<?xml version="1.0" encoding="UTF-8" standalone="no"?>
<!DOCTYPE svg PUBLIC "-//W3C//DTD SVG 1.1//EN"
 "http://www.w3.org/Graphics/SVG/1.1/DTD/svg11.dtd">
<!-- Generated by graphviz version 2.38.0 (20140413.2041)
 -->
<!-- Title: Tree Pages: 1 -->
<svg width="1070pt" height="603pt"
 viewBox="0.00 0.00 1070.00 603.00" xmlns="http://www.w3.org/2000/svg" xmlns:xlink="http://www.w3.org/1999/xlink">
<g id="graph0" class="graph" transform="scale(1 1) rotate(0) translate(4 599)">
<title>Tree</title>
<polygon fill="white" stroke="none" points="-4,4 -4,-599 1066,-599 1066,4 -4,4"/>
<!-- 0 -->
<g id="node1" class="node"><title>0</title>
<path fill="cornsilk" stroke="black" d="M781,-595C781,-595 639,-595 639,-595 633,-595 627,-589 627,-583 627,-583 627,-515 627,-515 627,-509 633,-503 639,-503 639,-503 781,-503 781,-503 787,-503 793,-509 793,-515 793,-515 793,-583 793,-583 793,-589 787,-595 781,-595"/>
<text text-anchor="start" x="683.5" y="-580.8" font-family="Helvetica,sans-Serif" font-size="14.00">node #0</text>
<text text-anchor="start" x="683.5" y="-566.8" font-family="Helvetica,sans-Serif" font-size="14.00">X</text>
<text text-anchor="start" x="693.5" y="-566.8" font-family="Helvetica,sans-Serif" baseline-shift="sub" font-size="14.00">5</text>
<text text-anchor="start" x="700.5" y="-566.8" font-family="Helvetica,sans-Serif" font-size="14.00"> ≤ 0.5</text>
<text text-anchor="start" x="681" y="-552.8" font-family="Helvetica,sans-Serif" font-size="14.00">gini = 0.5</text>
<text text-anchor="start" x="650" y="-538.8" font-family="Helvetica,sans-Serif" font-size="14.00">samples = 100.0%</text>
<text text-anchor="start" x="657.5" y="-524.8" font-family="Helvetica,sans-Serif" font-size="14.00">value = [0.5, 0.5]</text>
<text text-anchor="start" x="635" y="-510.8" font-family="Helvetica,sans-Serif" font-size="14.00">class = More than $50K</text>
</g>
<!-- 1 -->
<g id="node2" class="node"><title>1</title>
<path fill="cornsilk" stroke="black" d="M600,-467C600,-467 458,-467 458,-467 452,-467 446,-461 446,-455 446,-455 446,-387 446,-387 446,-381 452,-375 458,-375 458,-375 600,-375 600,-375 606,-375 612,-381 612,-387 612,-387 612,-455 612,-455 612,-461 606,-467 600,-467"/>
<text text-anchor="start" x="502.5" y="-452.8" font-family="Helvetica,sans-Serif" font-size="14.00">node #1</text>
<text text-anchor="start" x="502.5" y="-438.8" font-family="Helvetica,sans-Serif" font-size="14.00">X</text>
<text text-anchor="start" x="512.5" y="-438.8" font-family="Helvetica,sans-Serif" baseline-shift="sub" font-size="14.00">2</text>
<text text-anchor="start" x="519.5" y="-438.8" font-family="Helvetica,sans-Serif" font-size="14.00"> ≤ 9.5</text>
<text text-anchor="start" x="500" y="-424.8" font-family="Helvetica,sans-Serif" font-size="14.00">gini = 0.4</text>
<text text-anchor="start" x="473" y="-410.8" font-family="Helvetica,sans-Serif" font-size="14.00">samples = 40.7%</text>
<text text-anchor="start" x="460" y="-396.8" font-family="Helvetica,sans-Serif" font-size="14.00">value = [0.277, 0.723]</text>
<text text-anchor="start" x="454" y="-382.8" font-family="Helvetica,sans-Serif" font-size="14.00">class = More than $50K</text>
</g>
<!-- 0&#45;&gt;1 -->
<g id="edge1" class="edge"><title>0&#45;&gt;1</title>
<path fill="none" stroke="steelblue" d="M645.166,-502.867C631.175,-493.127 616.291,-482.766 602.012,-472.826"/>
<polygon fill="steelblue" stroke="steelblue" points="603.892,-469.87 593.685,-467.03 599.893,-475.615 603.892,-469.87"/>
<text text-anchor="middle" x="598.094" y="-487.938" font-family="Helvetica,sans-Serif" font-size="14.00">True</text>
</g>
<!-- 2 -->
<g id="node11" class="node"><title>2</title>
<path fill="cornsilk" stroke="black" d="M862,-467C862,-467 740,-467 740,-467 734,-467 728,-461 728,-455 728,-455 728,-387 728,-387 728,-381 734,-375 740,-375 740,-375 862,-375 862,-375 868,-375 874,-381 874,-387 874,-387 874,-455 874,-455 874,-461 868,-467 862,-467"/>
<text text-anchor="start" x="774.5" y="-452.8" font-family="Helvetica,sans-Serif" font-size="14.00">node #2</text>
<text text-anchor="start" x="774.5" y="-438.8" font-family="Helvetica,sans-Serif" font-size="14.00">X</text>
<text text-anchor="start" x="784.5" y="-438.8" font-family="Helvetica,sans-Serif" baseline-shift="sub" font-size="14.00">5</text>
<text text-anchor="start" x="791.5" y="-438.8" font-family="Helvetica,sans-Serif" font-size="14.00"> ≤ 4.5</text>
<text text-anchor="start" x="763.5" y="-424.8" font-family="Helvetica,sans-Serif" font-size="14.00">gini = 0.354</text>
<text text-anchor="start" x="745" y="-410.8" font-family="Helvetica,sans-Serif" font-size="14.00">samples = 59.3%</text>
<text text-anchor="start" x="740.5" y="-396.8" font-family="Helvetica,sans-Serif" font-size="14.00">value = [0.77, 0.23]</text>
<text text-anchor="start" x="736" y="-382.8" font-family="Helvetica,sans-Serif" font-size="14.00">class = $50K or less</text>
</g>
<!-- 0&#45;&gt;2 -->
<g id="edge10" class="edge"><title>0&#45;&gt;2</title>
<path fill="none" stroke="steelblue" d="M742.596,-502.867C749,-494.001 755.775,-484.619 762.354,-475.509"/>
<polygon fill="steelblue" stroke="steelblue" points="765.308,-477.397 768.326,-467.241 759.633,-473.299 765.308,-477.397"/>
<text text-anchor="middle" x="772.306" y="-488.222" font-family="Helvetica,sans-Serif" font-size="14.00">False</text>
</g>
<!-- 5 -->
<g id="node3" class="node"><title>5</title>
<path fill="cornsilk" stroke="black" d="M320,-339C320,-339 190,-339 190,-339 184,-339 178,-333 178,-327 178,-327 178,-259 178,-259 178,-253 184,-247 190,-247 190,-247 320,-247 320,-247 326,-247 332,-253 332,-259 332,-259 332,-327 332,-327 332,-333 326,-339 320,-339"/>
<text text-anchor="start" x="228.5" y="-324.8" font-family="Helvetica,sans-Serif" font-size="14.00">node #5</text>
<text text-anchor="start" x="216" y="-310.8" font-family="Helvetica,sans-Serif" font-size="14.00">X</text>
<text text-anchor="start" x="226" y="-310.8" font-family="Helvetica,sans-Serif" baseline-shift="sub" font-size="14.00">8</text>
<text text-anchor="start" x="233" y="-310.8" font-family="Helvetica,sans-Serif" font-size="14.00"> ≤ 4225.0</text>
<text text-anchor="start" x="217.5" y="-296.8" font-family="Helvetica,sans-Serif" font-size="14.00">gini = 0.466</text>
<text text-anchor="start" x="199" y="-282.8" font-family="Helvetica,sans-Serif" font-size="14.00">samples = 17.6%</text>
<text text-anchor="start" x="186" y="-268.8" font-family="Helvetica,sans-Serif" font-size="14.00">value = [0.631, 0.369]</text>
<text text-anchor="start" x="190" y="-254.8" font-family="Helvetica,sans-Serif" font-size="14.00">class = $50K or less</text>
</g>
<!-- 1&#45;&gt;5 -->
<g id="edge2" class="edge"><title>1&#45;&gt;5</title>
<path fill="none" stroke="steelblue" d="M445.675,-381.683C412.718,-366.527 374.839,-349.109 341.571,-333.81"/>
<polygon fill="steelblue" stroke="steelblue" points="342.866,-330.553 332.318,-329.555 339.941,-336.913 342.866,-330.553"/>
</g>
<!-- 6 -->
<g id="node6" class="node"><title>6</title>
<path fill="cornsilk" stroke="black" d="M600,-339C600,-339 458,-339 458,-339 452,-339 446,-333 446,-327 446,-327 446,-259 446,-259 446,-253 452,-247 458,-247 458,-247 600,-247 600,-247 606,-247 612,-253 612,-259 612,-259 612,-327 612,-327 612,-333 606,-339 600,-339"/>
<text text-anchor="start" x="502.5" y="-324.8" font-family="Helvetica,sans-Serif" font-size="14.00">node #6</text>
<text text-anchor="start" x="498.5" y="-310.8" font-family="Helvetica,sans-Serif" font-size="14.00">X</text>
<text text-anchor="start" x="508.5" y="-310.8" font-family="Helvetica,sans-Serif" baseline-shift="sub" font-size="14.00">2</text>
<text text-anchor="start" x="515.5" y="-310.8" font-family="Helvetica,sans-Serif" font-size="14.00"> ≤ 12.5</text>
<text text-anchor="start" x="491.5" y="-296.8" font-family="Helvetica,sans-Serif" font-size="14.00">gini = 0.241</text>
<text text-anchor="start" x="473" y="-282.8" font-family="Helvetica,sans-Serif" font-size="14.00">samples = 23.2%</text>
<text text-anchor="start" x="468.5" y="-268.8" font-family="Helvetica,sans-Serif" font-size="14.00">value = [0.14, 0.86]</text>
<text text-anchor="start" x="454" y="-254.8" font-family="Helvetica,sans-Serif" font-size="14.00">class = More than $50K</text>
</g>
<!-- 1&#45;&gt;6 -->
<g id="edge5" class="edge"><title>1&#45;&gt;6</title>
<path fill="none" stroke="steelblue" d="M529,-374.867C529,-366.634 529,-357.957 529,-349.465"/>
<polygon fill="steelblue" stroke="steelblue" points="532.5,-349.241 529,-339.241 525.5,-349.241 532.5,-349.241"/>
</g>
<!-- 9 -->
<g id="node4" class="node"><title>9</title>
<path fill="coral" stroke="black" d="M142,-206.5C142,-206.5 12,-206.5 12,-206.5 6,-206.5 0,-200.5 0,-194.5 0,-194.5 0,-135.5 0,-135.5 0,-129.5 6,-123.5 12,-123.5 12,-123.5 142,-123.5 142,-123.5 148,-123.5 154,-129.5 154,-135.5 154,-135.5 154,-194.5 154,-194.5 154,-200.5 148,-206.5 142,-206.5"/>
<text text-anchor="start" x="50.5" y="-191.3" font-family="Helvetica,sans-Serif" font-size="14.00">node #9</text>
<text text-anchor="start" x="39.5" y="-176.3" font-family="Helvetica,sans-Serif" font-size="14.00">gini = 0.416</text>
<text text-anchor="start" x="21" y="-161.3" font-family="Helvetica,sans-Serif" font-size="14.00">samples = 16.7%</text>
<text text-anchor="start" x="8" y="-146.3" font-family="Helvetica,sans-Serif" font-size="14.00">value = [0.705, 0.295]</text>
<text text-anchor="start" x="12" y="-131.3" font-family="Helvetica,sans-Serif" font-size="14.00">class = $50K or less</text>
</g>
<!-- 5&#45;&gt;9 -->
<g id="edge3" class="edge"><title>5&#45;&gt;9</title>
<path fill="none" stroke="steelblue" d="M191.241,-246.867C175.44,-235.682 158.483,-223.679 142.596,-212.433"/>
<polygon fill="steelblue" stroke="steelblue" points="144.582,-209.551 134.398,-206.63 140.538,-215.264 144.582,-209.551"/>
</g>
<!-- 10 -->
<g id="node5" class="node"><title>10</title>
<path fill="darkturquoise" stroke="black" d="M326,-206.5C326,-206.5 184,-206.5 184,-206.5 178,-206.5 172,-200.5 172,-194.5 172,-194.5 172,-135.5 172,-135.5 172,-129.5 178,-123.5 184,-123.5 184,-123.5 326,-123.5 326,-123.5 332,-123.5 338,-129.5 338,-135.5 338,-135.5 338,-194.5 338,-194.5 338,-200.5 332,-206.5 326,-206.5"/>
<text text-anchor="start" x="224.5" y="-191.3" font-family="Helvetica,sans-Serif" font-size="14.00">node #10</text>
<text text-anchor="start" x="217.5" y="-176.3" font-family="Helvetica,sans-Serif" font-size="14.00">gini = 0.103</text>
<text text-anchor="start" x="203.5" y="-161.3" font-family="Helvetica,sans-Serif" font-size="14.00">samples = 0.8%</text>
<text text-anchor="start" x="186" y="-146.3" font-family="Helvetica,sans-Serif" font-size="14.00">value = [0.055, 0.945]</text>
<text text-anchor="start" x="180" y="-131.3" font-family="Helvetica,sans-Serif" font-size="14.00">class = More than $50K</text>
</g>
<!-- 5&#45;&gt;10 -->
<g id="edge4" class="edge"><title>5&#45;&gt;10</title>
<path fill="none" stroke="steelblue" d="M255,-246.867C255,-237.119 255,-226.749 255,-216.801"/>
<polygon fill="steelblue" stroke="steelblue" points="258.5,-216.63 255,-206.63 251.5,-216.63 258.5,-216.63"/>
</g>
<!-- 11 -->
<g id="node7" class="node"><title>11</title>
<path fill="cornsilk" stroke="black" d="M510,-211C510,-211 368,-211 368,-211 362,-211 356,-205 356,-199 356,-199 356,-131 356,-131 356,-125 362,-119 368,-119 368,-119 510,-119 510,-119 516,-119 522,-125 522,-131 522,-131 522,-199 522,-199 522,-205 516,-211 510,-211"/>
<text text-anchor="start" x="408.5" y="-196.8" font-family="Helvetica,sans-Serif" font-size="14.00">node #11</text>
<text text-anchor="start" x="408.5" y="-182.8" font-family="Helvetica,sans-Serif" font-size="14.00">X</text>
<text text-anchor="start" x="418.5" y="-182.8" font-family="Helvetica,sans-Serif" baseline-shift="sub" font-size="14.00">0</text>
<text text-anchor="start" x="425.5" y="-182.8" font-family="Helvetica,sans-Serif" font-size="14.00"> ≤ 35.5</text>
<text text-anchor="start" x="401.5" y="-168.8" font-family="Helvetica,sans-Serif" font-size="14.00">gini = 0.419</text>
<text text-anchor="start" x="383" y="-154.8" font-family="Helvetica,sans-Serif" font-size="14.00">samples = 10.8%</text>
<text text-anchor="start" x="370" y="-140.8" font-family="Helvetica,sans-Serif" font-size="14.00">value = [0.299, 0.701]</text>
<text text-anchor="start" x="364" y="-126.8" font-family="Helvetica,sans-Serif" font-size="14.00">class = More than $50K</text>
</g>
<!-- 6&#45;&gt;11 -->
<g id="edge6" class="edge"><title>6&#45;&gt;11</title>
<path fill="none" stroke="steelblue" d="M496.762,-246.867C490.429,-238.001 483.728,-228.619 477.221,-219.509"/>
<polygon fill="steelblue" stroke="steelblue" points="479.976,-217.344 471.315,-211.241 474.28,-221.413 479.976,-217.344"/>
</g>
<!-- 12 -->
<g id="node10" class="node"><title>12</title>
<path fill="darkturquoise" stroke="black" d="M694,-206.5C694,-206.5 552,-206.5 552,-206.5 546,-206.5 540,-200.5 540,-194.5 540,-194.5 540,-135.5 540,-135.5 540,-129.5 546,-123.5 552,-123.5 552,-123.5 694,-123.5 694,-123.5 700,-123.5 706,-129.5 706,-135.5 706,-135.5 706,-194.5 706,-194.5 706,-200.5 700,-206.5 694,-206.5"/>
<text text-anchor="start" x="592.5" y="-191.3" font-family="Helvetica,sans-Serif" font-size="14.00">node #12</text>
<text text-anchor="start" x="594" y="-176.3" font-family="Helvetica,sans-Serif" font-size="14.00">gini = 0.1</text>
<text text-anchor="start" x="567" y="-161.3" font-family="Helvetica,sans-Serif" font-size="14.00">samples = 12.4%</text>
<text text-anchor="start" x="554" y="-146.3" font-family="Helvetica,sans-Serif" font-size="14.00">value = [0.053, 0.947]</text>
<text text-anchor="start" x="548" y="-131.3" font-family="Helvetica,sans-Serif" font-size="14.00">class = More than $50K</text>
</g>
<!-- 6&#45;&gt;12 -->
<g id="edge9" class="edge"><title>6&#45;&gt;12</title>
<path fill="none" stroke="steelblue" d="M562.671,-246.867C570.402,-236.503 578.659,-225.436 586.503,-214.921"/>
<polygon fill="steelblue" stroke="steelblue" points="589.514,-216.738 592.689,-206.63 583.904,-212.552 589.514,-216.738"/>
</g>
<!-- 13 -->
<g id="node8" class="node"><title>13</title>
<path fill="coral" stroke="black" d="M415,-83C415,-83 285,-83 285,-83 279,-83 273,-77 273,-71 273,-71 273,-12 273,-12 273,-6 279,-0 285,-0 285,-0 415,-0 415,-0 421,-0 427,-6 427,-12 427,-12 427,-71 427,-71 427,-77 421,-83 415,-83"/>
<text text-anchor="start" x="319.5" y="-67.8" font-family="Helvetica,sans-Serif" font-size="14.00">node #13</text>
<text text-anchor="start" x="312.5" y="-52.8" font-family="Helvetica,sans-Serif" font-size="14.00">gini = 0.437</text>
<text text-anchor="start" x="298.5" y="-37.8" font-family="Helvetica,sans-Serif" font-size="14.00">samples = 3.3%</text>
<text text-anchor="start" x="281" y="-22.8" font-family="Helvetica,sans-Serif" font-size="14.00">value = [0.678, 0.322]</text>
<text text-anchor="start" x="285" y="-7.8" font-family="Helvetica,sans-Serif" font-size="14.00">class = $50K or less</text>
</g>
<!-- 11&#45;&gt;13 -->
<g id="edge7" class="edge"><title>11&#45;&gt;13</title>
<path fill="none" stroke="steelblue" d="M405.86,-118.758C399.351,-109.873 392.496,-100.514 385.902,-91.5123"/>
<polygon fill="steelblue" stroke="steelblue" points="388.67,-89.3687 379.938,-83.3698 383.023,-93.5053 388.67,-89.3687"/>
</g>
<!-- 14 -->
<g id="node9" class="node"><title>14</title>
<path fill="darkturquoise" stroke="black" d="M599,-83C599,-83 457,-83 457,-83 451,-83 445,-77 445,-71 445,-71 445,-12 445,-12 445,-6 451,-0 457,-0 457,-0 599,-0 599,-0 605,-0 611,-6 611,-12 611,-12 611,-71 611,-71 611,-77 605,-83 599,-83"/>
<text text-anchor="start" x="497.5" y="-67.8" font-family="Helvetica,sans-Serif" font-size="14.00">node #14</text>
<text text-anchor="start" x="490.5" y="-52.8" font-family="Helvetica,sans-Serif" font-size="14.00">gini = 0.328</text>
<text text-anchor="start" x="476.5" y="-37.8" font-family="Helvetica,sans-Serif" font-size="14.00">samples = 7.5%</text>
<text text-anchor="start" x="459" y="-22.8" font-family="Helvetica,sans-Serif" font-size="14.00">value = [0.207, 0.793]</text>
<text text-anchor="start" x="453" y="-7.8" font-family="Helvetica,sans-Serif" font-size="14.00">class = More than $50K</text>
</g>
<!-- 11&#45;&gt;14 -->
<g id="edge8" class="edge"><title>11&#45;&gt;14</title>
<path fill="none" stroke="steelblue" d="M472.14,-118.758C478.649,-109.873 485.504,-100.514 492.098,-91.5123"/>
<polygon fill="steelblue" stroke="steelblue" points="494.977,-93.5053 498.062,-83.3698 489.33,-89.3687 494.977,-93.5053"/>
</g>
<!-- 3 -->
<g id="node12" class="node"><title>3</title>
<path fill="cornsilk" stroke="black" d="M866,-339C866,-339 736,-339 736,-339 730,-339 724,-333 724,-327 724,-327 724,-259 724,-259 724,-253 730,-247 736,-247 736,-247 866,-247 866,-247 872,-247 878,-253 878,-259 878,-259 878,-327 878,-327 878,-333 872,-339 866,-339"/>
<text text-anchor="start" x="774.5" y="-324.8" font-family="Helvetica,sans-Serif" font-size="14.00">node #3</text>
<text text-anchor="start" x="762" y="-310.8" font-family="Helvetica,sans-Serif" font-size="14.00">X</text>
<text text-anchor="start" x="772" y="-310.8" font-family="Helvetica,sans-Serif" baseline-shift="sub" font-size="14.00">8</text>
<text text-anchor="start" x="779" y="-310.8" font-family="Helvetica,sans-Serif" font-size="14.00"> ≤ 4668.5</text>
<text text-anchor="start" x="763.5" y="-296.8" font-family="Helvetica,sans-Serif" font-size="14.00">gini = 0.215</text>
<text text-anchor="start" x="745" y="-282.8" font-family="Helvetica,sans-Serif" font-size="14.00">samples = 54.5%</text>
<text text-anchor="start" x="732" y="-268.8" font-family="Helvetica,sans-Serif" font-size="14.00">value = [0.878, 0.122]</text>
<text text-anchor="start" x="736" y="-254.8" font-family="Helvetica,sans-Serif" font-size="14.00">class = $50K or less</text>
</g>
<!-- 2&#45;&gt;3 -->
<g id="edge11" class="edge"><title>2&#45;&gt;3</title>
<path fill="none" stroke="steelblue" d="M801,-374.867C801,-366.634 801,-357.957 801,-349.465"/>
<polygon fill="steelblue" stroke="steelblue" points="804.5,-349.241 801,-339.241 797.5,-349.241 804.5,-349.241"/>
</g>
<!-- 4 -->
<g id="node15" class="node"><title>4</title>
<path fill="darkturquoise" stroke="black" d="M1050,-334.5C1050,-334.5 908,-334.5 908,-334.5 902,-334.5 896,-328.5 896,-322.5 896,-322.5 896,-263.5 896,-263.5 896,-257.5 902,-251.5 908,-251.5 908,-251.5 1050,-251.5 1050,-251.5 1056,-251.5 1062,-257.5 1062,-263.5 1062,-263.5 1062,-322.5 1062,-322.5 1062,-328.5 1056,-334.5 1050,-334.5"/>
<text text-anchor="start" x="952.5" y="-319.3" font-family="Helvetica,sans-Serif" font-size="14.00">node #4</text>
<text text-anchor="start" x="941.5" y="-304.3" font-family="Helvetica,sans-Serif" font-size="14.00">gini = 0.325</text>
<text text-anchor="start" x="927.5" y="-289.3" font-family="Helvetica,sans-Serif" font-size="14.00">samples = 4.7%</text>
<text text-anchor="start" x="910" y="-274.3" font-family="Helvetica,sans-Serif" font-size="14.00">value = [0.205, 0.795]</text>
<text text-anchor="start" x="904" y="-259.3" font-family="Helvetica,sans-Serif" font-size="14.00">class = More than $50K</text>
</g>
<!-- 2&#45;&gt;4 -->
<g id="edge14" class="edge"><title>2&#45;&gt;4</title>
<path fill="none" stroke="steelblue" d="M864.759,-374.867C880.56,-363.682 897.517,-351.679 913.404,-340.433"/>
<polygon fill="steelblue" stroke="steelblue" points="915.462,-343.264 921.602,-334.63 911.418,-337.551 915.462,-343.264"/>
</g>
<!-- 7 -->
<g id="node13" class="node"><title>7</title>
<path fill="coral" stroke="black" d="M866,-206.5C866,-206.5 736,-206.5 736,-206.5 730,-206.5 724,-200.5 724,-194.5 724,-194.5 724,-135.5 724,-135.5 724,-129.5 730,-123.5 736,-123.5 736,-123.5 866,-123.5 866,-123.5 872,-123.5 878,-129.5 878,-135.5 878,-135.5 878,-194.5 878,-194.5 878,-200.5 872,-206.5 866,-206.5"/>
<text text-anchor="start" x="774.5" y="-191.3" font-family="Helvetica,sans-Serif" font-size="14.00">node #7</text>
<text text-anchor="start" x="763.5" y="-176.3" font-family="Helvetica,sans-Serif" font-size="14.00">gini = 0.117</text>
<text text-anchor="start" x="745" y="-161.3" font-family="Helvetica,sans-Serif" font-size="14.00">samples = 53.2%</text>
<text text-anchor="start" x="732" y="-146.3" font-family="Helvetica,sans-Serif" font-size="14.00">value = [0.938, 0.062]</text>
<text text-anchor="start" x="736" y="-131.3" font-family="Helvetica,sans-Serif" font-size="14.00">class = $50K or less</text>
</g>
<!-- 3&#45;&gt;7 -->
<g id="edge12" class="edge"><title>3&#45;&gt;7</title>
<path fill="none" stroke="steelblue" d="M801,-246.867C801,-237.119 801,-226.749 801,-216.801"/>
<polygon fill="steelblue" stroke="steelblue" points="804.5,-216.63 801,-206.63 797.5,-216.63 804.5,-216.63"/>
</g>
<!-- 8 -->
<g id="node14" class="node"><title>8</title>
<path fill="darkturquoise" stroke="black" d="M1050,-206.5C1050,-206.5 908,-206.5 908,-206.5 902,-206.5 896,-200.5 896,-194.5 896,-194.5 896,-135.5 896,-135.5 896,-129.5 902,-123.5 908,-123.5 908,-123.5 1050,-123.5 1050,-123.5 1056,-123.5 1062,-129.5 1062,-135.5 1062,-135.5 1062,-194.5 1062,-194.5 1062,-200.5 1056,-206.5 1050,-206.5"/>
<text text-anchor="start" x="952.5" y="-191.3" font-family="Helvetica,sans-Serif" font-size="14.00">node #8</text>
<text text-anchor="start" x="941.5" y="-176.3" font-family="Helvetica,sans-Serif" font-size="14.00">gini = 0.113</text>
<text text-anchor="start" x="927.5" y="-161.3" font-family="Helvetica,sans-Serif" font-size="14.00">samples = 1.3%</text>
<text text-anchor="start" x="918.5" y="-146.3" font-family="Helvetica,sans-Serif" font-size="14.00">value = [0.06, 0.94]</text>
<text text-anchor="start" x="904" y="-131.3" font-family="Helvetica,sans-Serif" font-size="14.00">class = More than $50K</text>
</g>
<!-- 3&#45;&gt;8 -->
<g id="edge13" class="edge"><title>3&#45;&gt;8</title>
<path fill="none" stroke="steelblue" d="M864.759,-246.867C880.56,-235.682 897.517,-223.679 913.404,-212.433"/>
<polygon fill="steelblue" stroke="steelblue" points="915.462,-215.264 921.602,-206.63 911.418,-209.551 915.462,-215.264"/>
</g>
</g>
</svg>
