<?xml version="1.0" encoding="utf-8"?>
<!-- Generator: Adobe Illustrator 21.0.2, SVG Export Plug-In . SVG Version: 6.00 Build 0)  -->
<svg version="1.1" id="レイヤー_1" xmlns="http://www.w3.org/2000/svg" xmlns:xlink="http://www.w3.org/1999/xlink" x="0px"
	 y="0px" viewBox="0 0 870 542" style="enable-background:new 0 0 870 542;" xml:space="preserve">
<style type="text/css">
	.st0{fill:#96B359;}
	.st1{fill:none;stroke:#AE9EC1;stroke-width:4.56;stroke-linecap:round;stroke-linejoin:round;stroke-miterlimit:10;}
	.st2{fill:none;stroke:#AE9EC1;stroke-width:4.56;stroke-linecap:round;stroke-miterlimit:10;}
	.st3{fill:#B74E4B;}
	
		.st4{fill:none;stroke:#AE9EC1;stroke-width:6;stroke-linecap:round;stroke-linejoin:round;stroke-miterlimit:10;stroke-dasharray:14,12.5;}
	.st5{fill-rule:evenodd;clip-rule:evenodd;fill:#D8D8D8;}
	.st6{fill:none;stroke:#FFFFFF;stroke-width:2.28;stroke-linejoin:round;stroke-miterlimit:10;}
	.st7{fill:#585959;}
	.st8{fill-rule:evenodd;clip-rule:evenodd;fill:#E8EEDC;}
	.st9{fill:none;stroke:#BECF97;stroke-width:4.56;stroke-linejoin:round;stroke-miterlimit:10;}
	.st10{fill:#748E3C;}
	.st11{fill-rule:evenodd;clip-rule:evenodd;fill:#E4DEEA;}
	.st12{fill:none;stroke:#AE9EC1;stroke-width:4.56;stroke-linejoin:round;stroke-miterlimit:10;}
	.st13{fill:#7A6099;}
	.st14{fill-rule:evenodd;clip-rule:evenodd;fill:#EFD9D8;}
	.st15{fill:none;stroke:#D1918F;stroke-width:4.56;stroke-linejoin:round;stroke-miterlimit:10;}
	.st16{fill-rule:evenodd;clip-rule:evenodd;fill:#FFFFFF;}
	.st17{clip-path:url(#SVGID_2_);}
	.st18{clip-path:url(#SVGID_5_);}
	.st19{clip-path:url(#SVGID_6_);fill:#8B76A8;}
</style>
<g>
	<path class="st0" d="M290.2,153.7h3.3l4.3,6.3v-6.3h3.3v11.4h-3.3l-4.3-6.3v6.3h-3.3V153.7z"/>
	<path class="st0" d="M302.8,161c0-1.3,0.4-2.3,1.3-3.1s2-1.2,3.4-1.2c1.7,0,2.9,0.5,3.7,1.4c0.7,0.8,1,1.7,1,2.9
		c0,1.3-0.4,2.3-1.3,3.1c-0.8,0.8-2,1.2-3.5,1.2c-1.3,0-2.4-0.3-3.2-1C303.3,163.4,302.8,162.3,302.8,161z M306,161
		c0,0.7,0.1,1.3,0.4,1.6c0.3,0.4,0.7,0.5,1.1,0.5c0.5,0,0.8-0.2,1.1-0.5c0.3-0.3,0.4-0.9,0.4-1.7c0-0.7-0.1-1.2-0.4-1.6
		c-0.3-0.3-0.7-0.5-1.1-0.5c-0.5,0-0.8,0.2-1.1,0.5C306.1,159.7,306,160.3,306,161z"/>
</g>
<line class="st1" x1="324.6" y1="152.9" x2="324.6" y2="185.9"/>
<polyline class="st2" points="335.2,173.9 324.6,185.9 314,173.9 "/>
<line class="st1" x1="392.2" y1="126.5" x2="477.9" y2="126.5"/>
<polyline class="st2" points="465.8,115.9 477.9,126.5 465.8,137.1 "/>
<g>
	<path class="st3" d="M394.3,108.6h3.9l2.3,3.8l2.3-3.8h3.9l-4.4,6.6v4.8h-3.5v-4.8L394.3,108.6z"/>
	<path class="st3" d="M415.4,116.6h-6.3c0.1,0.5,0.2,0.9,0.4,1.1c0.3,0.4,0.7,0.5,1.2,0.5c0.3,0,0.6-0.1,0.9-0.2
		c0.2-0.1,0.4-0.3,0.6-0.5l3.1,0.3c-0.5,0.8-1.1,1.4-1.7,1.8c-0.7,0.4-1.6,0.5-2.9,0.5c-1.1,0-2-0.2-2.6-0.5s-1.1-0.8-1.6-1.5
		c-0.4-0.7-0.6-1.5-0.6-2.4c0-1.3,0.4-2.3,1.2-3.1c0.8-0.8,2-1.2,3.4-1.2c1.2,0,2.1,0.2,2.8,0.5c0.7,0.4,1.2,0.9,1.6,1.6
		s0.5,1.6,0.5,2.6V116.6z M412.2,115.1c-0.1-0.6-0.2-1-0.5-1.3c-0.3-0.3-0.6-0.4-1.1-0.4c-0.5,0-0.9,0.2-1.2,0.6
		c-0.2,0.2-0.3,0.6-0.4,1.1H412.2z"/>
	<path class="st3" d="M416.4,117.7l3.1-0.3c0.1,0.4,0.3,0.6,0.5,0.8c0.2,0.2,0.5,0.2,0.9,0.2c0.4,0,0.8-0.1,1-0.3
		c0.2-0.1,0.3-0.3,0.3-0.5c0-0.2-0.1-0.4-0.4-0.5c-0.2-0.1-0.6-0.2-1.4-0.3c-1.1-0.2-1.9-0.4-2.3-0.5c-0.4-0.2-0.8-0.4-1.1-0.8
		c-0.3-0.4-0.4-0.8-0.4-1.3c0-0.5,0.2-1,0.5-1.4c0.3-0.4,0.8-0.7,1.3-0.9c0.6-0.2,1.3-0.3,2.2-0.3c1,0,1.7,0.1,2.2,0.2
		s0.9,0.4,1.2,0.7c0.3,0.3,0.6,0.7,0.8,1.3l-3,0.3c-0.1-0.3-0.2-0.5-0.4-0.6c-0.2-0.2-0.5-0.2-0.9-0.2c-0.4,0-0.6,0.1-0.8,0.2
		c-0.2,0.1-0.2,0.3-0.2,0.5c0,0.2,0.1,0.4,0.3,0.5c0.2,0.1,0.7,0.2,1.4,0.3c1.1,0.1,1.8,0.3,2.3,0.5c0.5,0.2,0.9,0.5,1.2,0.9
		c0.3,0.4,0.4,0.8,0.4,1.3c0,0.5-0.1,0.9-0.4,1.4s-0.7,0.8-1.4,1.1s-1.5,0.4-2.5,0.4c-1.5,0-2.6-0.2-3.2-0.6
		C416.9,119.1,416.5,118.5,416.4,117.7z"/>
</g>
<line class="st1" x1="324.6" y1="243.2" x2="324.6" y2="276.2"/>
<polyline class="st2" points="335.2,264.1 324.6,276.2 314,264.1 "/>
<g>
	<path class="st0" d="M290.2,334.2h3.3l4.3,6.3v-6.3h3.3v11.4h-3.3l-4.3-6.3v6.3h-3.3V334.2z"/>
	<path class="st0" d="M302.8,341.5c0-1.3,0.4-2.3,1.3-3.1s2-1.2,3.4-1.2c1.7,0,2.9,0.5,3.7,1.4c0.7,0.8,1,1.7,1,2.9
		c0,1.3-0.4,2.3-1.3,3.1c-0.8,0.8-2,1.2-3.5,1.2c-1.3,0-2.4-0.3-3.2-1C303.3,343.9,302.8,342.8,302.8,341.5z M306,341.5
		c0,0.7,0.1,1.3,0.4,1.6c0.3,0.4,0.7,0.5,1.1,0.5c0.5,0,0.8-0.2,1.1-0.5c0.3-0.3,0.4-0.9,0.4-1.7c0-0.7-0.1-1.2-0.4-1.6
		c-0.3-0.3-0.7-0.5-1.1-0.5c-0.5,0-0.8,0.2-1.1,0.5C306.1,340.2,306,340.7,306,341.5z"/>
</g>
<line class="st1" x1="324.6" y1="333.3" x2="324.6" y2="366.3"/>
<polyline class="st2" points="335.2,354.2 324.6,366.3 314,354.2 "/>
<line class="st1" x1="392.2" y1="307" x2="477.9" y2="307"/>
<polyline class="st2" points="465.8,296.4 477.9,307 465.8,317.6 "/>
<g>
	<path class="st3" d="M394.3,289.1h3.9l2.3,3.8l2.3-3.8h3.9l-4.4,6.6v4.8h-3.5v-4.8L394.3,289.1z"/>
	<path class="st3" d="M415.4,297.1h-6.3c0.1,0.5,0.2,0.9,0.4,1.1c0.3,0.4,0.7,0.5,1.2,0.5c0.3,0,0.6-0.1,0.9-0.2
		c0.2-0.1,0.4-0.3,0.6-0.5l3.1,0.3c-0.5,0.8-1.1,1.4-1.7,1.8s-1.6,0.5-2.9,0.5c-1.1,0-2-0.2-2.6-0.5c-0.6-0.3-1.1-0.8-1.6-1.5
		c-0.4-0.7-0.6-1.5-0.6-2.4c0-1.3,0.4-2.3,1.2-3.1c0.8-0.8,2-1.2,3.4-1.2c1.2,0,2.1,0.2,2.8,0.5c0.7,0.4,1.2,0.9,1.6,1.6
		s0.5,1.6,0.5,2.6V297.1z M412.2,295.6c-0.1-0.6-0.2-1-0.5-1.3c-0.3-0.3-0.6-0.4-1.1-0.4c-0.5,0-0.9,0.2-1.2,0.6
		c-0.2,0.2-0.3,0.6-0.4,1.1H412.2z"/>
	<path class="st3" d="M416.4,298.2l3.1-0.3c0.1,0.4,0.3,0.6,0.5,0.8c0.2,0.2,0.5,0.2,0.9,0.2c0.4,0,0.8-0.1,1-0.3
		c0.2-0.1,0.3-0.3,0.3-0.5c0-0.2-0.1-0.4-0.4-0.5c-0.2-0.1-0.6-0.2-1.4-0.3c-1.1-0.2-1.9-0.4-2.3-0.5c-0.4-0.2-0.8-0.4-1.1-0.8
		c-0.3-0.4-0.4-0.8-0.4-1.3c0-0.5,0.2-1,0.5-1.4c0.3-0.4,0.8-0.7,1.3-0.9c0.6-0.2,1.3-0.3,2.2-0.3c1,0,1.7,0.1,2.2,0.2
		s0.9,0.4,1.2,0.7c0.3,0.3,0.6,0.7,0.8,1.3l-3,0.3c-0.1-0.3-0.2-0.5-0.4-0.6c-0.2-0.2-0.5-0.2-0.9-0.2c-0.4,0-0.6,0.1-0.8,0.2
		c-0.2,0.1-0.2,0.3-0.2,0.5c0,0.2,0.1,0.4,0.3,0.5c0.2,0.1,0.7,0.2,1.4,0.3c1.1,0.1,1.8,0.3,2.3,0.5c0.5,0.2,0.9,0.5,1.2,0.9
		c0.3,0.4,0.4,0.8,0.4,1.3c0,0.5-0.1,0.9-0.4,1.4c-0.3,0.5-0.7,0.8-1.4,1.1c-0.6,0.3-1.5,0.4-2.5,0.4c-1.5,0-2.6-0.2-3.2-0.6
		C416.9,299.6,416.5,299,416.4,298.2z"/>
</g>
<polyline class="st4" points="250.8,397.3 185.5,397.3 185.5,216.8 243.9,216.8 "/>
<polyline class="st2" points="232.8,206.2 244.9,216.8 232.8,227.4 "/>
<polyline class="st1" points="625.5,401 686.5,401 686.5,216.8 404.5,216.8 "/>
<polyline class="st2" points="416.6,227.4 404.5,216.8 416.6,206.2 "/>
<line class="st1" x1="557.7" y1="333.3" x2="557.7" y2="366.3"/>
<polyline class="st2" points="568.3,354.2 557.7,366.3 547.2,354.2 "/>
<path class="st5" d="M16.4,95.2c0-5.5,4.5-10,10-10h73.3l0,0h35.7h13.8c5.5,0,10,4.5,10,10v25.1l99.3,7.6l-99.3,7.5v0
	c0,5.5-4.5,10-10,10h-13.8H99.7l0,0H26.4c-5.5,0-10-4.5-10-10v0v-15l0,0V95.2L16.4,95.2z"/>
<path class="st6" d="M16.4,95.2c0-5.5,4.5-10,10-10h73.3l0,0h35.7h13.8c5.5,0,10,4.5,10,10v25.1l99.3,7.6l-99.3,7.5v0
	c0,5.5-4.5,10-10,10h-13.8H99.7l0,0H26.4c-5.5,0-10-4.5-10-10v0v-15l0,0V95.2L16.4,95.2z"/>
<g>
	<path class="st7" d="M35.3,117.7h-3.7l-0.5,1.7h-3.3l3.9-10.5h3.5l3.9,10.5h-3.4L35.3,117.7z M34.7,115.5l-1.2-3.8l-1.1,3.8H34.7z"
		/>
	<path class="st7" d="M38.9,122.4v-10.5h2.7v1.1c0.4-0.5,0.7-0.8,1-1c0.4-0.2,0.9-0.3,1.4-0.3c1,0,1.8,0.4,2.4,1.2
		c0.6,0.8,0.8,1.7,0.8,2.9c0,1.3-0.3,2.2-0.9,2.9s-1.4,1-2.3,1c-0.4,0-0.9-0.1-1.2-0.2c-0.4-0.2-0.7-0.4-1-0.7v3.6H38.9z
		 M41.8,115.7c0,0.6,0.1,1,0.4,1.3c0.3,0.3,0.6,0.4,1,0.4c0.3,0,0.6-0.1,0.9-0.4c0.2-0.3,0.3-0.8,0.3-1.4c0-0.6-0.1-1.1-0.4-1.4
		c-0.2-0.3-0.5-0.4-0.9-0.4c-0.4,0-0.7,0.1-0.9,0.4C41.9,114.6,41.8,115,41.8,115.7z"/>
	<path class="st7" d="M47.3,122.4v-10.5h2.7v1.1c0.4-0.5,0.7-0.8,1-1c0.4-0.2,0.9-0.3,1.4-0.3c1,0,1.8,0.4,2.4,1.2
		c0.6,0.8,0.8,1.7,0.8,2.9c0,1.3-0.3,2.2-0.9,2.9s-1.4,1-2.3,1c-0.4,0-0.9-0.1-1.2-0.2c-0.4-0.2-0.7-0.4-1-0.7v3.6H47.3z
		 M50.3,115.7c0,0.6,0.1,1,0.4,1.3c0.3,0.3,0.6,0.4,1,0.4c0.3,0,0.6-0.1,0.9-0.4c0.2-0.3,0.3-0.8,0.3-1.4c0-0.6-0.1-1.1-0.4-1.4
		c-0.2-0.3-0.5-0.4-0.9-0.4c-0.4,0-0.7,0.1-0.9,0.4C50.4,114.6,50.3,115,50.3,115.7z"/>
	<path class="st7" d="M55.9,109h2.9v10.5h-2.9V109z"/>
	<path class="st7" d="M59.5,109h2.9v2h-2.9V109z M59.5,111.9h2.9v7.6h-2.9V111.9z"/>
	<path class="st7" d="M68.6,116.5l2.8,0.3c-0.2,0.6-0.4,1.1-0.8,1.5c-0.3,0.4-0.8,0.7-1.3,1s-1.2,0.4-2.1,0.4c-0.8,0-1.5-0.1-2-0.2
		s-1-0.4-1.4-0.7c-0.4-0.3-0.7-0.7-0.9-1.2c-0.2-0.5-0.3-1.1-0.3-1.8c0-0.8,0.1-1.4,0.4-2c0.2-0.4,0.5-0.7,0.8-1
		c0.3-0.3,0.7-0.5,1-0.7c0.6-0.2,1.3-0.4,2.2-0.4c1.2,0,2.2,0.2,2.8,0.7c0.7,0.4,1.1,1.1,1.4,1.9l-2.7,0.4c-0.1-0.3-0.2-0.6-0.5-0.7
		c-0.2-0.2-0.5-0.2-0.9-0.2c-0.5,0-0.9,0.2-1.2,0.5c-0.3,0.3-0.4,0.9-0.4,1.6c0,0.6,0.1,1.1,0.4,1.4c0.3,0.3,0.7,0.5,1.1,0.5
		c0.4,0,0.7-0.1,1-0.3C68.3,117.2,68.5,116.9,68.6,116.5z"/>
	<path class="st7" d="M74.1,114.3l-2.8-0.3c0.1-0.5,0.3-0.9,0.5-1.1s0.5-0.5,0.9-0.7c0.3-0.1,0.6-0.3,1.1-0.3s1-0.1,1.5-0.1
		c0.9,0,1.6,0,2.1,0.1c0.5,0.1,1,0.3,1.3,0.6c0.2,0.2,0.4,0.5,0.6,0.9s0.2,0.8,0.2,1.1v3.4c0,0.4,0,0.6,0.1,0.8s0.1,0.5,0.3,0.8
		h-2.7c-0.1-0.2-0.2-0.3-0.2-0.4s-0.1-0.3-0.1-0.5c-0.4,0.4-0.8,0.6-1.1,0.8c-0.5,0.2-1.1,0.3-1.8,0.3c-0.9,0-1.6-0.2-2.1-0.6
		c-0.5-0.4-0.7-0.9-0.7-1.6c0-0.6,0.2-1.1,0.5-1.4c0.3-0.4,1-0.6,1.9-0.8c1.1-0.2,1.8-0.4,2.1-0.5c0.3-0.1,0.7-0.2,1-0.3
		c0-0.4-0.1-0.6-0.2-0.8c-0.1-0.1-0.4-0.2-0.8-0.2c-0.5,0-0.8,0.1-1.1,0.2C74.3,113.8,74.2,114,74.1,114.3z M76.6,115.9
		c-0.4,0.1-0.8,0.3-1.3,0.4c-0.6,0.2-1,0.3-1.1,0.5c-0.2,0.2-0.2,0.3-0.2,0.5c0,0.2,0.1,0.4,0.2,0.6c0.2,0.1,0.4,0.2,0.7,0.2
		c0.3,0,0.6-0.1,0.9-0.2s0.5-0.3,0.6-0.6c0.1-0.2,0.2-0.5,0.2-0.9V115.9z"/>
	<path class="st7" d="M83.4,109v2.9H85v2.1h-1.6v2.7c0,0.3,0,0.5,0.1,0.6c0.1,0.2,0.3,0.2,0.5,0.2c0.2,0,0.5-0.1,0.9-0.2l0.2,2
		c-0.7,0.2-1.4,0.2-2,0.2c-0.7,0-1.3-0.1-1.6-0.3s-0.6-0.5-0.8-0.8c-0.2-0.4-0.2-1-0.2-1.8V114h-1.1v-2.1h1.1v-1.4L83.4,109z"/>
	<path class="st7" d="M85.2,109h2.9v2h-2.9V109z M85.2,111.9h2.9v7.6h-2.9V111.9z"/>
	<path class="st7" d="M88.3,115.7c0-1.2,0.4-2.1,1.2-2.9c0.8-0.8,1.8-1.1,3.2-1.1c1.5,0,2.7,0.4,3.4,1.3c0.6,0.7,0.9,1.6,0.9,2.6
		c0,1.2-0.4,2.1-1.2,2.9c-0.8,0.7-1.8,1.1-3.2,1.1c-1.2,0-2.2-0.3-3-0.9C88.7,118,88.3,116.9,88.3,115.7z M91.2,115.7
		c0,0.7,0.1,1.2,0.4,1.5s0.6,0.5,1,0.5c0.4,0,0.8-0.2,1-0.5c0.3-0.3,0.4-0.8,0.4-1.5c0-0.7-0.1-1.1-0.4-1.5c-0.3-0.3-0.6-0.5-1-0.5
		c-0.4,0-0.8,0.2-1.1,0.5C91.3,114.5,91.2,115,91.2,115.7z"/>
	<path class="st7" d="M97.1,111.9h2.7v1.2c0.4-0.5,0.8-0.9,1.2-1.1c0.4-0.2,0.9-0.3,1.5-0.3c0.8,0,1.4,0.2,1.9,0.7s0.7,1.2,0.7,2.2
		v4.8h-2.9v-4.2c0-0.5-0.1-0.8-0.3-1s-0.4-0.3-0.7-0.3c-0.4,0-0.6,0.1-0.9,0.4s-0.3,0.7-0.3,1.4v3.6h-2.9V111.9z"/>
	<path class="st7" d="M108.2,116l3.1-0.2c0.1,0.5,0.2,0.9,0.4,1.1c0.3,0.4,0.8,0.6,1.4,0.6c0.5,0,0.8-0.1,1.1-0.3
		c0.3-0.2,0.4-0.5,0.4-0.8c0-0.3-0.1-0.5-0.4-0.7c-0.2-0.2-0.8-0.4-1.7-0.6c-1.4-0.3-2.4-0.7-3-1.3c-0.6-0.5-0.9-1.2-0.9-2
		c0-0.5,0.2-1,0.5-1.5s0.8-0.9,1.4-1.1c0.6-0.3,1.5-0.4,2.6-0.4c1.3,0,2.4,0.2,3.1,0.7s1.1,1.3,1.3,2.4l-3.1,0.2
		c-0.1-0.5-0.3-0.8-0.5-1s-0.6-0.3-1.1-0.3c-0.4,0-0.7,0.1-0.9,0.2c-0.2,0.2-0.3,0.4-0.3,0.6c0,0.2,0.1,0.3,0.2,0.5
		c0.2,0.1,0.5,0.3,1.1,0.4c1.4,0.3,2.4,0.6,3,0.9c0.6,0.3,1.1,0.7,1.3,1.2s0.4,1,0.4,1.6c0,0.7-0.2,1.3-0.6,1.9
		c-0.4,0.6-0.9,1-1.6,1.3c-0.7,0.3-1.5,0.4-2.5,0.4c-1.8,0-3-0.3-3.7-1C108.7,117.9,108.3,117.1,108.2,116z"/>
	<path class="st7" d="M123.5,116.5l2.8,0.3c-0.2,0.6-0.4,1.1-0.8,1.5c-0.3,0.4-0.8,0.7-1.3,1s-1.2,0.4-2.1,0.4c-0.8,0-1.5-0.1-2-0.2
		s-1-0.4-1.4-0.7c-0.4-0.3-0.7-0.7-0.9-1.2c-0.2-0.5-0.3-1.1-0.3-1.8c0-0.8,0.1-1.4,0.4-2c0.2-0.4,0.5-0.7,0.8-1
		c0.3-0.3,0.7-0.5,1-0.7c0.6-0.2,1.3-0.4,2.2-0.4c1.2,0,2.2,0.2,2.8,0.7c0.7,0.4,1.1,1.1,1.4,1.9l-2.7,0.4c-0.1-0.3-0.2-0.6-0.5-0.7
		c-0.2-0.2-0.5-0.2-0.9-0.2c-0.5,0-0.9,0.2-1.2,0.5c-0.3,0.3-0.4,0.9-0.4,1.6c0,0.6,0.1,1.1,0.4,1.4c0.3,0.3,0.7,0.5,1.1,0.5
		c0.4,0,0.7-0.1,1-0.3C123.1,117.2,123.3,116.9,123.5,116.5z"/>
	<path class="st7" d="M125.9,115.7c0-1.2,0.4-2.1,1.2-2.9c0.8-0.8,1.8-1.1,3.2-1.1c1.5,0,2.7,0.4,3.4,1.3c0.6,0.7,0.9,1.6,0.9,2.6
		c0,1.2-0.4,2.1-1.2,2.9c-0.8,0.7-1.8,1.1-3.2,1.1c-1.2,0-2.2-0.3-3-0.9C126.4,118,125.9,116.9,125.9,115.7z M128.8,115.7
		c0,0.7,0.1,1.2,0.4,1.5s0.6,0.5,1,0.5c0.4,0,0.8-0.2,1-0.5c0.3-0.3,0.4-0.8,0.4-1.5c0-0.7-0.1-1.1-0.4-1.5c-0.3-0.3-0.6-0.5-1-0.5
		c-0.4,0-0.8,0.2-1.1,0.5C128.9,114.5,128.8,115,128.8,115.7z"/>
	<path class="st7" d="M134.7,111.9h2.7v1.2c0.3-0.5,0.5-0.9,0.8-1.1c0.3-0.2,0.6-0.3,1-0.3c0.4,0,0.9,0.1,1.4,0.4l-0.9,2.1
		c-0.3-0.1-0.6-0.2-0.8-0.2c-0.4,0-0.7,0.2-0.9,0.5c-0.3,0.4-0.5,1.3-0.5,2.5v2.5h-2.9V111.9z"/>
	<path class="st7" d="M148.4,116.4h-5.8c0.1,0.5,0.2,0.8,0.4,1c0.3,0.3,0.6,0.5,1.1,0.5c0.3,0,0.6-0.1,0.8-0.2
		c0.2-0.1,0.3-0.3,0.5-0.5l2.9,0.3c-0.4,0.8-1,1.3-1.6,1.6c-0.6,0.3-1.5,0.5-2.7,0.5c-1,0-1.8-0.1-2.4-0.4c-0.6-0.3-1.1-0.7-1.4-1.4
		s-0.6-1.3-0.6-2.2c0-1.2,0.4-2.1,1.1-2.9s1.8-1.1,3.1-1.1c1.1,0,1.9,0.2,2.6,0.5c0.6,0.3,1.1,0.8,1.4,1.4c0.3,0.6,0.5,1.4,0.5,2.4
		V116.4z M145.4,115c-0.1-0.6-0.2-1-0.5-1.2s-0.6-0.4-1-0.4c-0.5,0-0.8,0.2-1.1,0.6c-0.2,0.2-0.3,0.6-0.3,1H145.4z"/>
</g>
<line class="st1" x1="557.7" y1="431.2" x2="557.7" y2="464.2"/>
<polyline class="st2" points="568.3,452.1 557.7,464.2 547.2,452.1 "/>
<g>
	<path class="st3" d="M523.3,431.9h3.3l4.3,6.3v-6.3h3.3v11.4h-3.3l-4.3-6.3v6.3h-3.3V431.9z"/>
	<path class="st3" d="M535.9,439.2c0-1.3,0.4-2.3,1.3-3.1s2-1.2,3.4-1.2c1.7,0,2.9,0.5,3.7,1.4c0.7,0.8,1,1.7,1,2.9
		c0,1.3-0.4,2.3-1.3,3.1c-0.8,0.8-2,1.2-3.5,1.2c-1.3,0-2.4-0.3-3.2-1C536.4,441.7,535.9,440.6,535.9,439.2z M539.1,439.2
		c0,0.7,0.1,1.3,0.4,1.6c0.3,0.4,0.7,0.5,1.1,0.5c0.5,0,0.8-0.2,1.1-0.5c0.3-0.3,0.4-0.9,0.4-1.7c0-0.7-0.1-1.2-0.4-1.6
		c-0.3-0.3-0.7-0.5-1.1-0.5c-0.5,0-0.8,0.2-1.1,0.5C539.2,438,539.1,438.5,539.1,439.2z"/>
</g>
<g>
	<path class="st0" d="M627.4,379.3h3.9l2.3,3.8l2.3-3.8h3.9l-4.4,6.6v4.8h-3.5v-4.8L627.4,379.3z"/>
	<path class="st0" d="M648.5,387.4h-6.3c0.1,0.5,0.2,0.9,0.4,1.1c0.3,0.4,0.7,0.5,1.2,0.5c0.3,0,0.6-0.1,0.9-0.2
		c0.2-0.1,0.4-0.3,0.6-0.5l3.1,0.3c-0.5,0.8-1.1,1.4-1.7,1.8c-0.7,0.4-1.6,0.5-2.9,0.5c-1.1,0-2-0.2-2.6-0.5
		c-0.6-0.3-1.1-0.8-1.6-1.5c-0.4-0.7-0.6-1.5-0.6-2.4c0-1.3,0.4-2.3,1.2-3.1s2-1.2,3.4-1.2c1.2,0,2.1,0.2,2.8,0.5
		c0.7,0.4,1.2,0.9,1.6,1.6s0.5,1.6,0.5,2.7V387.4z M645.3,385.8c-0.1-0.6-0.2-1-0.5-1.3c-0.3-0.3-0.6-0.4-1.1-0.4
		c-0.5,0-0.9,0.2-1.2,0.6c-0.2,0.2-0.3,0.6-0.4,1.1H645.3z"/>
	<path class="st0" d="M649.5,388.4l3.1-0.3c0.1,0.4,0.3,0.6,0.5,0.8c0.2,0.2,0.5,0.2,0.9,0.2c0.4,0,0.8-0.1,1-0.3
		c0.2-0.1,0.3-0.3,0.3-0.5c0-0.2-0.1-0.4-0.4-0.5c-0.2-0.1-0.6-0.2-1.4-0.3c-1.1-0.2-1.9-0.4-2.3-0.5c-0.4-0.2-0.8-0.4-1.1-0.8
		c-0.3-0.4-0.4-0.8-0.4-1.3c0-0.5,0.2-1,0.5-1.4c0.3-0.4,0.8-0.7,1.3-0.9c0.6-0.2,1.3-0.3,2.2-0.3c1,0,1.7,0.1,2.2,0.2
		c0.5,0.2,0.9,0.4,1.2,0.7c0.3,0.3,0.6,0.7,0.8,1.3l-3,0.3c-0.1-0.3-0.2-0.5-0.4-0.6c-0.2-0.2-0.5-0.2-0.9-0.2
		c-0.4,0-0.6,0.1-0.8,0.2c-0.2,0.1-0.2,0.3-0.2,0.5c0,0.2,0.1,0.4,0.3,0.5s0.7,0.2,1.4,0.3c1.1,0.1,1.8,0.3,2.3,0.5
		c0.5,0.2,0.9,0.5,1.2,0.9c0.3,0.4,0.4,0.8,0.4,1.3c0,0.5-0.1,0.9-0.4,1.4c-0.3,0.5-0.7,0.8-1.4,1.1c-0.6,0.3-1.5,0.4-2.5,0.4
		c-1.5,0-2.6-0.2-3.2-0.6C650.1,389.8,649.7,389.2,649.5,388.4z"/>
</g>
<line class="st1" x1="324.6" y1="70.2" x2="324.6" y2="95.7"/>
<polyline class="st2" points="335.2,83.6 324.6,95.7 314,83.6 "/>
<path class="st8" d="M249.5,397.3c0-14.5,11.8-26.3,26.3-26.3h97.9c14.5,0,26.3,11.8,26.3,26.3l0,0c0,14.5-11.8,26.3-26.3,26.3
	h-97.9C261.2,423.5,249.5,411.8,249.5,397.3L249.5,397.3z"/>
<path class="st9" d="M249.5,397.3c0-14.5,11.8-26.3,26.3-26.3h97.9c14.5,0,26.3,11.8,26.3,26.3l0,0c0,14.5-11.8,26.3-26.3,26.3
	h-97.9C261.2,423.5,249.5,411.8,249.5,397.3L249.5,397.3z"/>
<g>
	<path class="st10" d="M286.4,377.2h7.8v2h-4.9v1.5h4.5v1.9h-4.5v1.9h5v2.1h-8V377.2z"/>
	<path class="st10" d="M295.9,377.2h2.6v9.5h-2.6V377.2z"/>
	<path class="st10" d="M300.3,377.2h2.6v1.8h-2.6V377.2z M300.3,379.8h2.6v6.9h-2.6V379.8z"/>
	<path class="st10" d="M309.4,379.8h2.5v6.5l0,0.3c0,0.4-0.1,0.8-0.3,1.2c-0.2,0.4-0.4,0.7-0.7,0.9c-0.3,0.2-0.7,0.4-1.2,0.5
		c-0.5,0.1-1,0.2-1.6,0.2c-1.4,0-2.3-0.2-2.8-0.6c-0.5-0.4-0.8-1-0.8-1.7c0-0.1,0-0.2,0-0.3l2.5,0.3c0.1,0.2,0.2,0.4,0.3,0.5
		c0.2,0.1,0.4,0.2,0.7,0.2c0.4,0,0.7-0.1,0.8-0.3c0.2-0.2,0.3-0.6,0.3-1.1v-1c-0.3,0.3-0.5,0.5-0.8,0.7c-0.4,0.2-0.8,0.3-1.3,0.3
		c-0.9,0-1.7-0.4-2.2-1.2c-0.4-0.6-0.6-1.3-0.6-2.3c0-1.1,0.3-1.9,0.8-2.4c0.5-0.6,1.2-0.8,2-0.8c0.5,0,1,0.1,1.3,0.3s0.7,0.5,1,0.9
		V379.8z M307,383.1c0,0.5,0.1,0.9,0.3,1.1c0.2,0.2,0.5,0.4,0.8,0.4c0.3,0,0.6-0.1,0.8-0.4c0.2-0.2,0.3-0.6,0.3-1.1
		s-0.1-0.9-0.3-1.1c-0.2-0.3-0.5-0.4-0.9-0.4s-0.6,0.1-0.8,0.4C307.1,382.1,307,382.5,307,383.1z"/>
	<path class="st10" d="M313.5,377.2h2.6v1.8h-2.6V377.2z M313.5,379.8h2.6v6.9h-2.6V379.8z"/>
	<path class="st10" d="M317.9,377.2h2.7v3.3c0.3-0.3,0.6-0.5,0.9-0.6c0.3-0.1,0.7-0.2,1.1-0.2c0.8,0,1.5,0.3,2.1,0.9
		c0.5,0.6,0.8,1.5,0.8,2.6c0,0.7-0.1,1.4-0.4,2c-0.2,0.6-0.6,1-1,1.3c-0.4,0.3-0.9,0.4-1.5,0.4c-0.5,0-0.9-0.1-1.3-0.3
		c-0.3-0.2-0.6-0.4-0.9-0.9v1h-2.5V377.2z M320.5,383.2c0,0.6,0.1,1,0.3,1.3c0.2,0.3,0.5,0.4,0.8,0.4c0.3,0,0.6-0.1,0.8-0.4
		c0.2-0.3,0.3-0.7,0.3-1.3c0-0.5-0.1-0.9-0.3-1.2c-0.2-0.3-0.5-0.4-0.8-0.4c-0.4,0-0.6,0.1-0.9,0.4
		C320.6,382.2,320.5,382.6,320.5,383.2z"/>
	<path class="st10" d="M326.7,377.2h2.6v9.5h-2.6V377.2z"/>
	<path class="st10" d="M338.7,383.8h-5.3c0,0.4,0.2,0.7,0.3,0.9c0.3,0.3,0.6,0.4,1,0.4c0.3,0,0.5-0.1,0.7-0.2
		c0.1-0.1,0.3-0.2,0.5-0.4l2.6,0.2c-0.4,0.7-0.9,1.2-1.4,1.5s-1.4,0.4-2.4,0.4c-0.9,0-1.6-0.1-2.1-0.4c-0.5-0.3-1-0.7-1.3-1.2
		s-0.5-1.2-0.5-2c0-1.1,0.3-1.9,1-2.6s1.6-1,2.8-1c1,0,1.8,0.1,2.3,0.4c0.6,0.3,1,0.7,1.3,1.3c0.3,0.6,0.4,1.3,0.4,2.2V383.8z
		 M336,382.6c-0.1-0.5-0.2-0.9-0.4-1.1c-0.2-0.2-0.5-0.3-0.9-0.3c-0.4,0-0.8,0.2-1,0.5c-0.2,0.2-0.3,0.5-0.3,0.9H336z"/>
	<path class="st10" d="M347.5,379.8h1.3v1.9h-1.3v4.9h-2.6v-4.9h-1v-1.9h1v-0.3c0-0.3,0-0.6,0.1-0.9c0.1-0.3,0.2-0.6,0.3-0.8
		s0.4-0.4,0.7-0.5c0.3-0.1,0.7-0.2,1.3-0.2c0.5,0,1.1,0.1,2,0.2l-0.3,1.6c-0.3-0.1-0.6-0.1-0.8-0.1c-0.2,0-0.4,0-0.5,0.1
		c-0.1,0.1-0.2,0.2-0.2,0.4C347.5,379.3,347.5,379.5,347.5,379.8z"/>
	<path class="st10" d="M349.4,383.2c0-1,0.4-1.9,1.1-2.6c0.7-0.7,1.7-1,2.9-1c1.4,0,2.4,0.4,3.1,1.2c0.6,0.6,0.8,1.4,0.8,2.4
		c0,1.1-0.3,1.9-1,2.6s-1.7,1-2.9,1c-1.1,0-2-0.3-2.7-0.8C349.8,385.2,349.4,384.3,349.4,383.2z M352,383.2c0,0.6,0.1,1.1,0.4,1.4
		c0.2,0.3,0.6,0.4,0.9,0.4c0.4,0,0.7-0.1,0.9-0.4c0.2-0.3,0.4-0.8,0.4-1.4c0-0.6-0.1-1-0.4-1.3s-0.5-0.4-0.9-0.4
		c-0.4,0-0.7,0.1-0.9,0.4C352.1,382.1,352,382.6,352,383.2z"/>
	<path class="st10" d="M358.5,379.8h2.5v1.1c0.2-0.5,0.5-0.8,0.7-1c0.3-0.2,0.6-0.3,0.9-0.3c0.4,0,0.8,0.1,1.3,0.4l-0.8,1.9
		c-0.3-0.1-0.6-0.2-0.7-0.2c-0.3,0-0.6,0.1-0.8,0.4c-0.3,0.4-0.4,1.1-0.4,2.2v2.3h-2.6V379.8z"/>
</g>
<g>
	<path class="st10" d="M289.2,391.5h3.8l1.5,5.8l1.5-5.8h3.8v9.5h-2.4v-7.2l-1.8,7.2h-2.2l-1.8-7.2v7.2h-2.4V391.5z"/>
	<path class="st10" d="M303.9,396.3l-2.5-0.3c0.1-0.4,0.2-0.8,0.4-1c0.2-0.3,0.4-0.5,0.8-0.7c0.2-0.1,0.6-0.2,1-0.3s0.9-0.1,1.4-0.1
		c0.8,0,1.4,0,1.9,0.1c0.5,0.1,0.9,0.3,1.2,0.6c0.2,0.2,0.4,0.5,0.5,0.8c0.1,0.4,0.2,0.7,0.2,1v3c0,0.3,0,0.6,0.1,0.8
		c0,0.2,0.1,0.4,0.3,0.7h-2.5c-0.1-0.2-0.2-0.3-0.2-0.4c0-0.1-0.1-0.2-0.1-0.4c-0.3,0.3-0.7,0.6-1,0.7c-0.5,0.2-1,0.3-1.6,0.3
		c-0.8,0-1.4-0.2-1.9-0.6c-0.4-0.4-0.6-0.8-0.6-1.4c0-0.5,0.2-0.9,0.5-1.3c0.3-0.3,0.9-0.6,1.7-0.7c1-0.2,1.6-0.3,1.9-0.4
		c0.3-0.1,0.6-0.2,0.9-0.3c0-0.3-0.1-0.5-0.2-0.7c-0.1-0.1-0.4-0.2-0.7-0.2c-0.4,0-0.8,0.1-1,0.2C304.1,395.8,304,396,303.9,396.3z
		 M306.2,397.7c-0.4,0.1-0.7,0.2-1.1,0.3c-0.5,0.1-0.9,0.3-1,0.4c-0.1,0.1-0.2,0.3-0.2,0.5c0,0.2,0.1,0.4,0.2,0.5
		c0.1,0.1,0.4,0.2,0.6,0.2c0.3,0,0.6-0.1,0.8-0.2c0.3-0.1,0.4-0.3,0.5-0.5c0.1-0.2,0.2-0.5,0.2-0.8V397.7z"/>
	<path class="st10" d="M310.3,394.1h2.5v1.1c0.2-0.5,0.5-0.8,0.7-1c0.3-0.2,0.6-0.3,0.9-0.3c0.4,0,0.8,0.1,1.3,0.4l-0.8,1.9
		c-0.3-0.1-0.6-0.2-0.7-0.2c-0.3,0-0.6,0.1-0.8,0.4c-0.3,0.4-0.4,1.1-0.4,2.2v2.3h-2.6V394.1z"/>
	<path class="st10" d="M316.1,391.5h2.7v4.9l2-2.3h3.2l-2.5,2.4l2.6,4.5h-3l-1.4-2.7l-1,1v1.8h-2.7V391.5z"/>
	<path class="st10" d="M332.5,398.2h-5.3c0,0.4,0.2,0.7,0.3,0.9c0.3,0.3,0.6,0.4,1,0.4c0.3,0,0.5-0.1,0.7-0.2
		c0.1-0.1,0.3-0.2,0.5-0.4l2.6,0.2c-0.4,0.7-0.9,1.2-1.4,1.5s-1.4,0.4-2.4,0.4c-0.9,0-1.6-0.1-2.1-0.4c-0.5-0.3-1-0.7-1.3-1.2
		s-0.5-1.2-0.5-2c0-1.1,0.3-1.9,1-2.6s1.6-1,2.8-1c1,0,1.8,0.1,2.3,0.4c0.6,0.3,1,0.7,1.3,1.3c0.3,0.6,0.4,1.3,0.4,2.2V398.2z
		 M329.8,396.9c-0.1-0.5-0.2-0.9-0.4-1.1c-0.2-0.2-0.5-0.3-0.9-0.3c-0.4,0-0.8,0.2-1,0.5c-0.2,0.2-0.3,0.5-0.3,0.9H329.8z"/>
	<path class="st10" d="M336.8,391.5v2.6h1.4v1.9h-1.4v2.4c0,0.3,0,0.5,0.1,0.6c0.1,0.1,0.2,0.2,0.5,0.2c0.2,0,0.5-0.1,0.8-0.2
		l0.2,1.8c-0.6,0.1-1.3,0.2-1.8,0.2c-0.7,0-1.1-0.1-1.4-0.3c-0.3-0.2-0.5-0.4-0.7-0.8c-0.1-0.3-0.2-0.9-0.2-1.7V396h-1v-1.9h1v-1.3
		L336.8,391.5z"/>
	<path class="st10" d="M339.6,391.5h2.6v1.8h-2.6V391.5z M339.6,394.1h2.6v6.9h-2.6V394.1z"/>
	<path class="st10" d="M344,394.1h2.4v1.1c0.4-0.5,0.7-0.8,1.1-1c0.4-0.2,0.8-0.3,1.4-0.3c0.7,0,1.3,0.2,1.7,0.6
		c0.4,0.4,0.6,1.1,0.6,2v4.4h-2.6v-3.8c0-0.4-0.1-0.7-0.2-0.9s-0.4-0.3-0.7-0.3c-0.3,0-0.6,0.1-0.8,0.4c-0.2,0.2-0.3,0.7-0.3,1.3
		v3.3H344V394.1z"/>
	<path class="st10" d="M357.5,394.1h2.5v6.5l0,0.3c0,0.4-0.1,0.8-0.3,1.2c-0.2,0.4-0.4,0.7-0.7,0.9c-0.3,0.2-0.7,0.4-1.2,0.5
		c-0.5,0.1-1,0.2-1.6,0.2c-1.4,0-2.3-0.2-2.8-0.6c-0.5-0.4-0.8-1-0.8-1.7c0-0.1,0-0.2,0-0.3l2.5,0.3c0.1,0.2,0.2,0.4,0.3,0.5
		c0.2,0.1,0.4,0.2,0.7,0.2c0.4,0,0.7-0.1,0.8-0.3c0.2-0.2,0.3-0.6,0.3-1.1v-1c-0.3,0.3-0.5,0.5-0.8,0.7c-0.4,0.2-0.8,0.3-1.3,0.3
		c-0.9,0-1.7-0.4-2.2-1.2c-0.4-0.6-0.6-1.3-0.6-2.3c0-1.1,0.3-1.9,0.8-2.4c0.5-0.6,1.2-0.8,2-0.8c0.5,0,1,0.1,1.3,0.3s0.7,0.5,1,0.9
		V394.1z M355,397.4c0,0.5,0.1,0.9,0.3,1.1c0.2,0.2,0.5,0.4,0.8,0.4c0.3,0,0.6-0.1,0.8-0.4c0.2-0.2,0.3-0.6,0.3-1.1
		s-0.1-0.9-0.3-1.1c-0.2-0.3-0.5-0.4-0.9-0.4s-0.6,0.1-0.8,0.4C355.1,396.4,355,396.8,355,397.4z"/>
</g>
<g>
	<path class="st10" d="M295.9,411.4l2.6,0.8c-0.2,0.7-0.4,1.3-0.8,1.8c-0.4,0.5-0.8,0.8-1.4,1.1s-1.2,0.4-2.1,0.4
		c-1,0-1.9-0.1-2.5-0.4c-0.7-0.3-1.2-0.8-1.7-1.6c-0.5-0.8-0.7-1.7-0.7-2.9c0-1.6,0.4-2.8,1.2-3.6c0.8-0.8,2-1.3,3.5-1.3
		c1.2,0,2.1,0.2,2.8,0.7c0.7,0.5,1.2,1.2,1.5,2.2l-2.6,0.6c-0.1-0.3-0.2-0.5-0.3-0.6c-0.2-0.2-0.4-0.4-0.6-0.5
		c-0.2-0.1-0.5-0.2-0.8-0.2c-0.7,0-1.2,0.3-1.5,0.8c-0.3,0.4-0.4,1-0.4,1.9c0,1,0.2,1.8,0.5,2.2c0.3,0.4,0.8,0.6,1.3,0.6
		c0.6,0,1-0.2,1.3-0.5C295.5,412.4,295.7,412,295.9,411.4z"/>
	<path class="st10" d="M302.1,410.6l-2.5-0.3c0.1-0.4,0.2-0.8,0.4-1c0.2-0.3,0.4-0.5,0.8-0.7c0.2-0.1,0.6-0.2,1-0.3s0.9-0.1,1.4-0.1
		c0.8,0,1.4,0,1.9,0.1c0.5,0.1,0.9,0.3,1.2,0.6c0.2,0.2,0.4,0.5,0.5,0.8c0.1,0.4,0.2,0.7,0.2,1v3c0,0.3,0,0.6,0.1,0.8
		c0,0.2,0.1,0.4,0.3,0.7h-2.5c-0.1-0.2-0.2-0.3-0.2-0.4c0-0.1-0.1-0.2-0.1-0.4c-0.3,0.3-0.7,0.6-1,0.7c-0.5,0.2-1,0.3-1.6,0.3
		c-0.8,0-1.4-0.2-1.9-0.6c-0.4-0.4-0.6-0.8-0.6-1.4c0-0.5,0.2-0.9,0.5-1.3c0.3-0.3,0.9-0.6,1.7-0.7c1-0.2,1.6-0.3,1.9-0.4
		c0.3-0.1,0.6-0.2,0.9-0.3c0-0.3-0.1-0.5-0.2-0.7c-0.1-0.1-0.4-0.2-0.7-0.2c-0.4,0-0.8,0.1-1,0.2
		C302.4,410.1,302.2,410.3,302.1,410.6z M304.4,412c-0.4,0.1-0.7,0.2-1.1,0.3c-0.5,0.1-0.9,0.3-1,0.4c-0.1,0.1-0.2,0.3-0.2,0.5
		c0,0.2,0.1,0.4,0.2,0.5c0.1,0.1,0.4,0.2,0.6,0.2c0.3,0,0.6-0.1,0.8-0.2c0.3-0.1,0.4-0.3,0.5-0.5c0.1-0.2,0.2-0.5,0.2-0.8V412z"/>
	<path class="st10" d="M308.5,408.4h2.5v1c0.4-0.4,0.7-0.7,1.1-0.9c0.4-0.2,0.8-0.3,1.3-0.3c0.5,0,1,0.1,1.3,0.3
		c0.3,0.2,0.6,0.5,0.8,0.9c0.4-0.4,0.8-0.8,1.1-0.9c0.3-0.2,0.8-0.2,1.3-0.2c0.7,0,1.3,0.2,1.7,0.7s0.6,1.1,0.6,2v4.3h-2.6v-3.9
		c0-0.3-0.1-0.5-0.2-0.7c-0.2-0.2-0.4-0.4-0.7-0.4c-0.3,0-0.6,0.1-0.7,0.3s-0.3,0.6-0.3,1.1v3.5H313v-3.8c0-0.3,0-0.5-0.1-0.6
		c-0.1-0.2-0.2-0.3-0.3-0.4c-0.1-0.1-0.3-0.2-0.5-0.2c-0.3,0-0.6,0.1-0.7,0.3c-0.2,0.2-0.3,0.6-0.3,1.1v3.5h-2.6V408.4z"/>
	<path class="st10" d="M321.7,417.9v-9.5h2.5v1c0.3-0.4,0.7-0.7,0.9-0.9c0.4-0.2,0.8-0.3,1.3-0.3c0.9,0,1.6,0.4,2.1,1.1
		c0.5,0.7,0.8,1.6,0.8,2.6c0,1.1-0.3,2-0.8,2.6c-0.5,0.6-1.2,0.9-2.1,0.9c-0.4,0-0.8-0.1-1.1-0.2c-0.3-0.1-0.6-0.3-0.9-0.6v3.3
		H321.7z M324.4,411.9c0,0.5,0.1,0.9,0.3,1.2c0.2,0.3,0.5,0.4,0.9,0.4c0.3,0,0.6-0.1,0.8-0.4c0.2-0.3,0.3-0.7,0.3-1.3
		c0-0.6-0.1-1-0.3-1.2c-0.2-0.3-0.5-0.4-0.8-0.4c-0.3,0-0.6,0.1-0.8,0.4C324.5,410.8,324.4,411.3,324.4,411.9z"/>
	<path class="st10" d="M332.9,410.6l-2.5-0.3c0.1-0.4,0.2-0.8,0.4-1c0.2-0.3,0.4-0.5,0.8-0.7c0.2-0.1,0.6-0.2,1-0.3s0.9-0.1,1.4-0.1
		c0.8,0,1.4,0,1.9,0.1c0.5,0.1,0.9,0.3,1.2,0.6c0.2,0.2,0.4,0.5,0.5,0.8c0.1,0.4,0.2,0.7,0.2,1v3c0,0.3,0,0.6,0.1,0.8
		c0,0.2,0.1,0.4,0.3,0.7h-2.5c-0.1-0.2-0.2-0.3-0.2-0.4c0-0.1-0.1-0.2-0.1-0.4c-0.3,0.3-0.7,0.6-1,0.7c-0.5,0.2-1,0.3-1.6,0.3
		c-0.8,0-1.4-0.2-1.9-0.6c-0.4-0.4-0.6-0.8-0.6-1.4c0-0.5,0.2-0.9,0.5-1.3c0.3-0.3,0.9-0.6,1.7-0.7c1-0.2,1.6-0.3,1.9-0.4
		c0.3-0.1,0.6-0.2,0.9-0.3c0-0.3-0.1-0.5-0.2-0.7c-0.1-0.1-0.4-0.2-0.7-0.2c-0.4,0-0.8,0.1-1,0.2C333.1,410.1,333,410.3,332.9,410.6
		z M335.1,412c-0.4,0.1-0.7,0.2-1.1,0.3c-0.5,0.1-0.9,0.3-1,0.4c-0.1,0.1-0.2,0.3-0.2,0.5c0,0.2,0.1,0.4,0.2,0.5
		c0.1,0.1,0.4,0.2,0.6,0.2c0.3,0,0.6-0.1,0.8-0.2c0.3-0.1,0.4-0.3,0.5-0.5c0.1-0.2,0.2-0.5,0.2-0.8V412z"/>
	<path class="st10" d="M339.3,405.8h2.6v1.8h-2.6V405.8z M339.3,408.4h2.6v6.9h-2.6V408.4z"/>
	<path class="st10" d="M348.5,408.4h2.5v6.5l0,0.3c0,0.4-0.1,0.8-0.3,1.2c-0.2,0.4-0.4,0.7-0.7,0.9c-0.3,0.2-0.7,0.4-1.2,0.5
		c-0.5,0.1-1,0.2-1.6,0.2c-1.4,0-2.3-0.2-2.8-0.6c-0.5-0.4-0.8-1-0.8-1.7c0-0.1,0-0.2,0-0.3l2.5,0.3c0.1,0.2,0.2,0.4,0.3,0.5
		c0.2,0.1,0.4,0.2,0.7,0.2c0.4,0,0.7-0.1,0.8-0.3c0.2-0.2,0.3-0.6,0.3-1.1v-1c-0.3,0.3-0.5,0.5-0.8,0.7c-0.4,0.2-0.8,0.3-1.3,0.3
		c-0.9,0-1.7-0.4-2.2-1.2c-0.4-0.6-0.6-1.3-0.6-2.3c0-1.1,0.3-1.9,0.8-2.4c0.5-0.6,1.2-0.8,2-0.8c0.5,0,1,0.1,1.3,0.3s0.7,0.5,1,0.9
		V408.4z M346,411.7c0,0.5,0.1,0.9,0.3,1.1c0.2,0.2,0.5,0.4,0.8,0.4c0.3,0,0.6-0.1,0.8-0.4c0.2-0.2,0.3-0.6,0.3-1.1
		s-0.1-0.9-0.3-1.1c-0.2-0.3-0.5-0.4-0.9-0.4s-0.6,0.1-0.8,0.4C346.1,410.8,346,411.2,346,411.7z"/>
	<path class="st10" d="M352.4,408.4h2.4v1.1c0.4-0.5,0.7-0.8,1.1-1c0.4-0.2,0.8-0.3,1.4-0.3c0.7,0,1.3,0.2,1.7,0.6
		c0.4,0.4,0.6,1.1,0.6,2v4.4H357v-3.8c0-0.4-0.1-0.7-0.2-0.9s-0.4-0.3-0.7-0.3c-0.3,0-0.6,0.1-0.8,0.4c-0.2,0.2-0.3,0.7-0.3,1.3v3.3
		h-2.6V408.4z"/>
</g>
<path class="st8" d="M249.5,216.8c0-14.5,11.8-26.3,26.3-26.3h97.7c14.5,0,26.3,11.8,26.3,26.3h0c0,14.5-11.8,26.3-26.3,26.3
	l-97.7,0C261.3,243.2,249.5,231.4,249.5,216.8L249.5,216.8z"/>
<path class="st9" d="M249.5,216.8c0-14.5,11.8-26.3,26.3-26.3h97.7c14.5,0,26.3,11.8,26.3,26.3h0c0,14.5-11.8,26.3-26.3,26.3
	l-97.7,0C261.3,243.2,249.5,231.4,249.5,216.8L249.5,216.8z"/>
<g>
	<path class="st10" d="M297,211.7h-3.3l-0.5,1.6h-3l3.6-9.5h3.2l3.6,9.5h-3.1L297,211.7z M296.4,209.7l-1-3.4l-1,3.4H296.4z"/>
	<path class="st10" d="M306.5,210.6l2.5,0.3c-0.1,0.5-0.4,1-0.7,1.4c-0.3,0.4-0.7,0.7-1.2,0.9c-0.5,0.2-1.1,0.3-1.9,0.3
		c-0.7,0-1.3-0.1-1.8-0.2s-0.9-0.4-1.2-0.7c-0.3-0.3-0.6-0.7-0.8-1.1s-0.3-0.9-0.3-1.6c0-0.7,0.1-1.3,0.4-1.8
		c0.2-0.3,0.4-0.7,0.7-0.9c0.3-0.3,0.6-0.5,0.9-0.6c0.5-0.2,1.2-0.3,2-0.3c1.1,0,2,0.2,2.6,0.6c0.6,0.4,1,1,1.2,1.8l-2.5,0.3
		c-0.1-0.3-0.2-0.5-0.4-0.7c-0.2-0.1-0.5-0.2-0.8-0.2c-0.4,0-0.8,0.2-1.1,0.5c-0.3,0.3-0.4,0.8-0.4,1.4c0,0.6,0.1,1,0.4,1.3
		s0.6,0.4,1,0.4c0.3,0,0.6-0.1,0.9-0.3S306.3,211,306.5,210.6z"/>
	<path class="st10" d="M315.2,210.6l2.5,0.3c-0.1,0.5-0.4,1-0.7,1.4c-0.3,0.4-0.7,0.7-1.2,0.9c-0.5,0.2-1.1,0.3-1.9,0.3
		c-0.7,0-1.3-0.1-1.8-0.2s-0.9-0.4-1.2-0.7c-0.3-0.3-0.6-0.7-0.8-1.1s-0.3-0.9-0.3-1.6c0-0.7,0.1-1.3,0.4-1.8
		c0.2-0.3,0.4-0.7,0.7-0.9c0.3-0.3,0.6-0.5,0.9-0.6c0.5-0.2,1.2-0.3,2-0.3c1.1,0,2,0.2,2.6,0.6c0.6,0.4,1,1,1.2,1.8l-2.5,0.3
		c-0.1-0.3-0.2-0.5-0.4-0.7c-0.2-0.1-0.5-0.2-0.8-0.2c-0.4,0-0.8,0.2-1.1,0.5c-0.3,0.3-0.4,0.8-0.4,1.4c0,0.6,0.1,1,0.4,1.3
		s0.6,0.4,1,0.4c0.3,0,0.6-0.1,0.9-0.3S315.1,211,315.2,210.6z"/>
	<path class="st10" d="M326.5,210.5h-5.3c0,0.4,0.2,0.7,0.3,0.9c0.3,0.3,0.6,0.4,1,0.4c0.3,0,0.5-0.1,0.7-0.2
		c0.1-0.1,0.3-0.2,0.5-0.4l2.6,0.2c-0.4,0.7-0.9,1.2-1.4,1.5s-1.4,0.4-2.4,0.4c-0.9,0-1.6-0.1-2.1-0.4c-0.5-0.3-1-0.7-1.3-1.2
		c-0.3-0.6-0.5-1.2-0.5-2c0-1.1,0.3-1.9,1-2.6s1.6-1,2.8-1c1,0,1.8,0.1,2.3,0.4c0.6,0.3,1,0.7,1.3,1.3c0.3,0.6,0.4,1.3,0.4,2.2
		V210.5z M323.8,209.3c-0.1-0.5-0.2-0.9-0.4-1.1c-0.2-0.2-0.5-0.3-0.9-0.3c-0.4,0-0.8,0.2-1,0.5c-0.2,0.2-0.3,0.5-0.3,0.9H323.8z"/>
	<path class="st10" d="M327.6,215.9v-9.5h2.5v1c0.3-0.4,0.7-0.7,0.9-0.9c0.4-0.2,0.8-0.3,1.3-0.3c0.9,0,1.6,0.4,2.1,1.1
		c0.5,0.7,0.8,1.6,0.8,2.6c0,1.1-0.3,2-0.8,2.6c-0.5,0.6-1.2,0.9-2.1,0.9c-0.4,0-0.8-0.1-1.1-0.2c-0.3-0.1-0.6-0.3-0.9-0.6v3.3
		H327.6z M330.3,209.9c0,0.5,0.1,0.9,0.3,1.2c0.2,0.3,0.5,0.4,0.9,0.4c0.3,0,0.6-0.1,0.8-0.4c0.2-0.3,0.3-0.7,0.3-1.3
		c0-0.6-0.1-1-0.3-1.2c-0.2-0.3-0.5-0.4-0.8-0.4c-0.3,0-0.6,0.1-0.8,0.4C330.4,208.9,330.3,209.3,330.3,209.9z"/>
	<path class="st10" d="M339.5,203.8v2.6h1.4v1.9h-1.4v2.4c0,0.3,0,0.5,0.1,0.6c0.1,0.1,0.2,0.2,0.5,0.2c0.2,0,0.5-0.1,0.8-0.2
		l0.2,1.8c-0.6,0.1-1.3,0.2-1.8,0.2c-0.7,0-1.1-0.1-1.4-0.3c-0.3-0.2-0.5-0.4-0.7-0.8s-0.2-0.9-0.2-1.7v-2.4h-1v-1.9h1v-1.3
		L339.5,203.8z"/>
	<path class="st10" d="M349.9,210.5h-5.3c0,0.4,0.2,0.7,0.3,0.9c0.3,0.3,0.6,0.4,1,0.4c0.3,0,0.5-0.1,0.7-0.2
		c0.1-0.1,0.3-0.2,0.5-0.4l2.6,0.2c-0.4,0.7-0.9,1.2-1.4,1.5s-1.4,0.4-2.4,0.4c-0.9,0-1.6-0.1-2.1-0.4c-0.5-0.3-1-0.7-1.3-1.2
		c-0.3-0.6-0.5-1.2-0.5-2c0-1.1,0.3-1.9,1-2.6s1.6-1,2.8-1c1,0,1.8,0.1,2.3,0.4c0.6,0.3,1,0.7,1.3,1.3c0.3,0.6,0.4,1.3,0.4,2.2
		V210.5z M347.2,209.3c-0.1-0.5-0.2-0.9-0.4-1.1c-0.2-0.2-0.5-0.3-0.9-0.3c-0.4,0-0.8,0.2-1,0.5c-0.2,0.2-0.3,0.5-0.3,0.9H347.2z"/>
	<path class="st10" d="M358.2,203.8v9.5h-2.5v-1c-0.3,0.4-0.7,0.7-0.9,0.9c-0.4,0.2-0.8,0.3-1.3,0.3c-0.9,0-1.6-0.4-2.1-1.1
		c-0.5-0.7-0.7-1.6-0.7-2.6c0-1.1,0.3-2,0.8-2.6s1.2-0.9,2.1-0.9c0.4,0,0.8,0.1,1.1,0.2c0.3,0.1,0.6,0.3,0.9,0.6v-3.3H358.2z
		 M355.6,209.8c0-0.5-0.1-0.9-0.3-1.2s-0.5-0.4-0.9-0.4c-0.3,0-0.6,0.1-0.8,0.4s-0.3,0.7-0.3,1.3c0,0.6,0.1,1,0.3,1.2
		s0.5,0.4,0.8,0.4c0.3,0,0.6-0.1,0.8-0.4C355.5,210.9,355.6,210.4,355.6,209.8z"/>
</g>
<g>
	<path class="st10" d="M297,223.7l2.6,0.8c-0.2,0.7-0.4,1.3-0.8,1.8c-0.4,0.5-0.8,0.8-1.4,1.1s-1.2,0.4-2.1,0.4
		c-1,0-1.9-0.1-2.5-0.4c-0.7-0.3-1.2-0.8-1.7-1.6c-0.5-0.8-0.7-1.7-0.7-2.9c0-1.6,0.4-2.8,1.2-3.6c0.8-0.8,2-1.3,3.5-1.3
		c1.2,0,2.1,0.2,2.8,0.7c0.7,0.5,1.2,1.2,1.5,2.2l-2.6,0.6c-0.1-0.3-0.2-0.5-0.3-0.6c-0.2-0.2-0.4-0.4-0.6-0.5
		c-0.2-0.1-0.5-0.2-0.8-0.2c-0.7,0-1.2,0.3-1.5,0.8c-0.3,0.4-0.4,1-0.4,1.9c0,1,0.2,1.8,0.5,2.2c0.3,0.4,0.8,0.6,1.3,0.6
		c0.6,0,1-0.2,1.3-0.5C296.7,224.8,296.9,224.3,297,223.7z"/>
	<path class="st10" d="M308.1,227.6h-2.5v-1.1c-0.4,0.5-0.7,0.8-1.1,1c-0.4,0.2-0.8,0.3-1.4,0.3c-0.7,0-1.3-0.2-1.7-0.6
		c-0.4-0.4-0.6-1.1-0.6-2v-4.4h2.6v3.8c0,0.4,0.1,0.7,0.2,0.9s0.4,0.3,0.7,0.3c0.3,0,0.6-0.1,0.8-0.4c0.2-0.2,0.3-0.7,0.3-1.3v-3.3
		h2.6V227.6z"/>
	<path class="st10" d="M309.2,225.7l2.6-0.2c0.1,0.3,0.3,0.5,0.5,0.7c0.2,0.1,0.5,0.2,0.8,0.2c0.4,0,0.6-0.1,0.8-0.2
		c0.2-0.1,0.2-0.3,0.2-0.4c0-0.2-0.1-0.3-0.3-0.4c-0.1-0.1-0.5-0.2-1.1-0.3c-0.9-0.2-1.5-0.3-1.9-0.4c-0.4-0.1-0.7-0.4-0.9-0.7
		c-0.2-0.3-0.4-0.7-0.4-1.1c0-0.5,0.1-0.8,0.4-1.2c0.3-0.3,0.6-0.6,1.1-0.7c0.5-0.2,1.1-0.2,1.9-0.2c0.8,0,1.4,0.1,1.8,0.2
		c0.4,0.1,0.7,0.3,1,0.6s0.5,0.6,0.6,1.1l-2.5,0.2c-0.1-0.2-0.2-0.4-0.3-0.5c-0.2-0.1-0.5-0.2-0.7-0.2c-0.3,0-0.5,0.1-0.6,0.2
		c-0.1,0.1-0.2,0.2-0.2,0.4c0,0.2,0.1,0.3,0.3,0.4s0.5,0.2,1.1,0.2c0.9,0.1,1.5,0.2,1.9,0.4c0.4,0.2,0.8,0.4,1,0.8
		c0.2,0.3,0.3,0.7,0.3,1.1c0,0.4-0.1,0.8-0.4,1.2c-0.2,0.4-0.6,0.7-1.1,0.9c-0.5,0.2-1.2,0.3-2.1,0.3c-1.3,0-2.1-0.2-2.7-0.5
		C309.7,226.9,309.3,226.4,309.2,225.7z"/>
	<path class="st10" d="M320.9,218.1v2.6h1.4v1.9h-1.4v2.4c0,0.3,0,0.5,0.1,0.6c0.1,0.1,0.2,0.2,0.5,0.2c0.2,0,0.5-0.1,0.8-0.2
		l0.2,1.8c-0.6,0.1-1.3,0.2-1.8,0.2c-0.7,0-1.1-0.1-1.4-0.3c-0.3-0.2-0.5-0.4-0.7-0.8s-0.2-0.9-0.2-1.7v-2.4h-1v-1.9h1v-1.3
		L320.9,218.1z"/>
	<path class="st10" d="M323.3,224.2c0-1,0.4-1.9,1.1-2.6c0.7-0.7,1.7-1,2.9-1c1.4,0,2.4,0.4,3.1,1.2c0.6,0.6,0.8,1.4,0.8,2.4
		c0,1.1-0.3,1.9-1,2.6c-0.7,0.7-1.7,1-2.9,1c-1.1,0-2-0.3-2.7-0.8C323.7,226.2,323.3,225.3,323.3,224.2z M325.9,224.2
		c0,0.6,0.1,1.1,0.4,1.4c0.2,0.3,0.6,0.4,0.9,0.4c0.4,0,0.7-0.1,0.9-0.4c0.2-0.3,0.4-0.8,0.4-1.4c0-0.6-0.1-1-0.4-1.3
		c-0.2-0.3-0.5-0.4-0.9-0.4c-0.4,0-0.7,0.1-0.9,0.4C326,223.1,325.9,223.6,325.9,224.2z"/>
	<path class="st10" d="M332.4,220.8h2.5v1c0.4-0.4,0.7-0.7,1.1-0.9c0.4-0.2,0.8-0.3,1.3-0.3c0.5,0,1,0.1,1.3,0.3
		c0.3,0.2,0.6,0.5,0.8,0.9c0.4-0.4,0.8-0.8,1.1-0.9s0.8-0.2,1.3-0.2c0.7,0,1.3,0.2,1.7,0.7c0.4,0.4,0.6,1.1,0.6,2v4.3h-2.6v-3.9
		c0-0.3-0.1-0.5-0.2-0.7c-0.2-0.2-0.4-0.4-0.7-0.4c-0.3,0-0.6,0.1-0.7,0.3s-0.3,0.6-0.3,1.1v3.5h-2.6v-3.8c0-0.3,0-0.5-0.1-0.6
		c-0.1-0.2-0.2-0.3-0.3-0.4c-0.1-0.1-0.3-0.2-0.5-0.2c-0.3,0-0.6,0.1-0.7,0.3c-0.2,0.2-0.3,0.6-0.3,1.1v3.5h-2.6V220.8z"/>
	<path class="st10" d="M353.2,224.8h-5.3c0,0.4,0.2,0.7,0.3,0.9c0.3,0.3,0.6,0.4,1,0.4c0.3,0,0.5-0.1,0.7-0.2
		c0.1-0.1,0.3-0.2,0.5-0.4l2.6,0.2c-0.4,0.7-0.9,1.2-1.4,1.5s-1.4,0.4-2.4,0.4c-0.9,0-1.6-0.1-2.1-0.4c-0.5-0.3-1-0.7-1.3-1.2
		c-0.3-0.6-0.5-1.2-0.5-2c0-1.1,0.3-1.9,1-2.6s1.6-1,2.8-1c1,0,1.8,0.1,2.3,0.4c0.6,0.3,1,0.7,1.3,1.3c0.3,0.6,0.4,1.3,0.4,2.2
		V224.8z M350.5,223.6c-0.1-0.5-0.2-0.9-0.4-1.1c-0.2-0.2-0.5-0.3-0.9-0.3c-0.4,0-0.8,0.2-1,0.5c-0.2,0.2-0.3,0.5-0.3,0.9H350.5z"/>
	<path class="st10" d="M354.4,220.8h2.5v1.1c0.2-0.5,0.5-0.8,0.7-1c0.3-0.2,0.6-0.3,0.9-0.3c0.4,0,0.8,0.1,1.3,0.4l-0.8,1.9
		c-0.3-0.1-0.6-0.2-0.7-0.2c-0.3,0-0.6,0.1-0.8,0.4c-0.3,0.4-0.4,1.1-0.4,2.2v2.3h-2.6V220.8z"/>
</g>
<polygon class="st11" points="256.9,126.6 324.6,100.3 392.2,126.6 324.6,152.9 256.9,126.6 "/>
<polygon class="st12" points="256.9,126.6 324.6,100.3 392.2,126.6 324.6,152.9 256.9,126.6 "/>
<g>
	<path class="st13" d="M295.4,120.7h4.3c0.9,0,1.5,0.1,2.1,0.3c0.5,0.2,1,0.6,1.3,1c0.3,0.4,0.6,0.9,0.7,1.5s0.2,1.2,0.2,1.8
		c0,1-0.1,1.8-0.3,2.4c-0.2,0.6-0.5,1-1,1.4c-0.4,0.4-0.8,0.6-1.3,0.8c-0.6,0.2-1.2,0.3-1.7,0.3h-4.3V120.7z M298.3,122.9v5.2h0.7
		c0.6,0,1-0.1,1.3-0.2c0.3-0.1,0.5-0.4,0.6-0.7c0.1-0.3,0.2-0.9,0.2-1.6c0-1-0.2-1.7-0.5-2.1c-0.3-0.4-0.9-0.6-1.6-0.6H298.3z"/>
</g>
<g>
	<path class="st13" d="M313.2,127.4h-5.3c0,0.4,0.2,0.7,0.3,0.9c0.3,0.3,0.6,0.4,1,0.4c0.3,0,0.5-0.1,0.7-0.2
		c0.1-0.1,0.3-0.2,0.5-0.4l2.6,0.2c-0.4,0.7-0.9,1.2-1.4,1.5s-1.4,0.4-2.4,0.4c-0.9,0-1.6-0.1-2.1-0.4c-0.5-0.3-1-0.7-1.3-1.2
		c-0.3-0.6-0.5-1.2-0.5-2c0-1.1,0.3-1.9,1-2.6s1.6-1,2.8-1c1,0,1.8,0.1,2.3,0.4c0.6,0.3,1,0.7,1.3,1.3c0.3,0.6,0.4,1.3,0.4,2.2
		V127.4z M310.5,126.2c-0.1-0.5-0.2-0.9-0.4-1.1c-0.2-0.2-0.5-0.3-0.9-0.3c-0.4,0-0.8,0.2-1,0.5c-0.2,0.2-0.3,0.5-0.3,0.9H310.5z"/>
	<path class="st13" d="M317.2,123.4h1.3v1.9h-1.3v4.9h-2.6v-4.9h-1v-1.9h1V123c0-0.3,0-0.6,0.1-0.9s0.2-0.6,0.3-0.8s0.4-0.4,0.7-0.5
		c0.3-0.1,0.7-0.2,1.3-0.2c0.5,0,1.1,0.1,2,0.2l-0.3,1.6c-0.3-0.1-0.6-0.1-0.8-0.1c-0.2,0-0.4,0-0.5,0.1c-0.1,0.1-0.2,0.2-0.2,0.4
		C317.3,122.8,317.2,123,317.2,123.4z"/>
	<path class="st13" d="M321.8,125.6l-2.5-0.3c0.1-0.4,0.2-0.8,0.4-1c0.2-0.3,0.4-0.5,0.8-0.7c0.2-0.1,0.6-0.2,1-0.3
		c0.4-0.1,0.9-0.1,1.4-0.1c0.8,0,1.4,0,1.9,0.1c0.5,0.1,0.9,0.3,1.2,0.6c0.2,0.2,0.4,0.5,0.5,0.8c0.1,0.4,0.2,0.7,0.2,1v3
		c0,0.3,0,0.6,0.1,0.8c0,0.2,0.1,0.4,0.3,0.7h-2.5c-0.1-0.2-0.2-0.3-0.2-0.4c0-0.1-0.1-0.2-0.1-0.4c-0.3,0.3-0.7,0.6-1,0.7
		c-0.5,0.2-1,0.3-1.6,0.3c-0.8,0-1.4-0.2-1.9-0.6c-0.4-0.4-0.6-0.8-0.6-1.4c0-0.5,0.2-0.9,0.5-1.3s0.9-0.6,1.7-0.7
		c1-0.2,1.6-0.3,1.9-0.4s0.6-0.2,0.9-0.3c0-0.3-0.1-0.5-0.2-0.7c-0.1-0.1-0.4-0.2-0.7-0.2c-0.4,0-0.8,0.1-1,0.2
		C322.1,125.1,321.9,125.3,321.8,125.6z M324.1,127c-0.4,0.1-0.7,0.2-1.1,0.3c-0.5,0.1-0.9,0.3-1,0.4c-0.1,0.1-0.2,0.3-0.2,0.5
		c0,0.2,0.1,0.4,0.2,0.5c0.1,0.1,0.4,0.2,0.6,0.2c0.3,0,0.6-0.1,0.8-0.2c0.3-0.1,0.4-0.3,0.5-0.5c0.1-0.2,0.2-0.5,0.2-0.8V127z"/>
	<path class="st13" d="M335.4,130.2h-2.5v-1.1c-0.4,0.5-0.7,0.8-1.1,1c-0.4,0.2-0.8,0.3-1.4,0.3c-0.7,0-1.3-0.2-1.7-0.6
		c-0.4-0.4-0.6-1.1-0.6-2v-4.4h2.6v3.8c0,0.4,0.1,0.7,0.2,0.9s0.4,0.3,0.7,0.3c0.3,0,0.6-0.1,0.8-0.4c0.2-0.2,0.3-0.7,0.3-1.3v-3.3
		h2.6V130.2z"/>
	<path class="st13" d="M337,120.7h2.6v9.5H337V120.7z"/>
	<path class="st13" d="M344.6,120.7v2.6h1.4v1.9h-1.4v2.4c0,0.3,0,0.5,0.1,0.6c0.1,0.1,0.2,0.2,0.5,0.2c0.2,0,0.5-0.1,0.8-0.2
		l0.2,1.8c-0.6,0.1-1.3,0.2-1.8,0.2c-0.7,0-1.1-0.1-1.4-0.3c-0.3-0.2-0.5-0.4-0.7-0.8s-0.2-0.9-0.2-1.7v-2.4h-1v-1.9h1v-1.3
		L344.6,120.7z"/>
	<path class="st13" d="M351.5,127.2h-2.5V127c0-0.4,0-0.8,0.1-1c0.1-0.3,0.2-0.5,0.4-0.7s0.6-0.6,1.3-1.1c0.3-0.3,0.5-0.5,0.5-0.8
		c0-0.2-0.1-0.4-0.2-0.6c-0.1-0.1-0.4-0.2-0.6-0.2c-0.3,0-0.6,0.1-0.8,0.3c-0.2,0.2-0.3,0.6-0.4,1.1l-2.5-0.3c0.1-0.9,0.4-1.7,1-2.2
		c0.6-0.6,1.5-0.8,2.7-0.8c0.9,0,1.7,0.2,2.3,0.6c0.8,0.5,1.2,1.2,1.2,2.1c0,0.4-0.1,0.7-0.3,1.1c-0.2,0.3-0.6,0.8-1.2,1.2
		c-0.4,0.3-0.7,0.6-0.8,0.8S351.5,126.9,351.5,127.2z M349,127.9h2.6v2.3H349V127.9z"/>
</g>
<path class="st14" d="M482.5,126.6c0-14.5,11.8-26.3,26.3-26.3h97.7c14.5,0,26.3,11.8,26.3,26.3h0c0,14.5-11.8,26.3-26.3,26.3
	l-97.7,0C494.3,152.9,482.5,141.2,482.5,126.6L482.5,126.6z"/>
<path class="st15" d="M482.5,126.6c0-14.5,11.8-26.3,26.3-26.3h97.7c14.5,0,26.3,11.8,26.3,26.3h0c0,14.5-11.8,26.3-26.3,26.3
	l-97.7,0C494.3,152.9,482.5,141.2,482.5,126.6L482.5,126.6z"/>
<g>
	<path class="st3" d="M526.4,123v-9.5h4.9c0.9,0,1.6,0.1,2.1,0.2c0.5,0.2,0.9,0.4,1.2,0.9c0.3,0.4,0.4,0.9,0.4,1.5
		c0,0.5-0.1,1-0.3,1.4c-0.2,0.4-0.5,0.7-0.9,0.9c-0.2,0.2-0.6,0.3-1,0.4c0.3,0.1,0.6,0.2,0.8,0.3c0.1,0.1,0.3,0.2,0.5,0.5
		s0.3,0.4,0.4,0.6l1.4,2.7h-3.3l-1.6-2.9c-0.2-0.4-0.4-0.6-0.5-0.7c-0.2-0.1-0.4-0.2-0.7-0.2h-0.3v3.8H526.4z M529.3,117.4h1.2
		c0.1,0,0.4,0,0.8-0.1c0.2,0,0.4-0.1,0.5-0.3c0.1-0.2,0.2-0.3,0.2-0.5c0-0.3-0.1-0.5-0.3-0.7c-0.2-0.2-0.6-0.2-1.1-0.2h-1.3V117.4z"
		/>
	<path class="st3" d="M544.1,120.3h-5.3c0,0.4,0.2,0.7,0.3,0.9c0.3,0.3,0.6,0.4,1,0.4c0.3,0,0.5-0.1,0.7-0.2
		c0.1-0.1,0.3-0.2,0.5-0.4l2.6,0.2c-0.4,0.7-0.9,1.2-1.4,1.5c-0.6,0.3-1.4,0.4-2.4,0.4c-0.9,0-1.6-0.1-2.1-0.4s-1-0.7-1.3-1.2
		c-0.3-0.6-0.5-1.2-0.5-2c0-1.1,0.3-1.9,1-2.6s1.6-1,2.8-1c1,0,1.8,0.1,2.3,0.4c0.6,0.3,1,0.7,1.3,1.3c0.3,0.6,0.4,1.3,0.4,2.2
		V120.3z M541.5,119c-0.1-0.5-0.2-0.9-0.4-1.1s-0.5-0.3-0.9-0.3c-0.4,0-0.8,0.2-1,0.5c-0.2,0.2-0.3,0.5-0.3,0.9H541.5z"/>
	<path class="st3" d="M545.4,116.2h2.6v6.6c0,0.8-0.1,1.4-0.2,1.8c-0.1,0.4-0.3,0.6-0.7,0.9s-0.8,0.3-1.4,0.3
		c-0.5,0-1.1-0.1-1.9-0.2l0.4-1.9c0.2,0,0.4,0.1,0.5,0.1c0.2,0,0.4-0.1,0.5-0.2s0.2-0.5,0.2-0.9V116.2z M545.4,113.6h2.6v1.8h-2.6
		V113.6z"/>
	<path class="st3" d="M557.4,120.3h-5.3c0,0.4,0.2,0.7,0.3,0.9c0.3,0.3,0.6,0.4,1,0.4c0.3,0,0.5-0.1,0.7-0.2
		c0.1-0.1,0.3-0.2,0.5-0.4l2.6,0.2c-0.4,0.7-0.9,1.2-1.4,1.5c-0.6,0.3-1.4,0.4-2.4,0.4c-0.9,0-1.6-0.1-2.1-0.4s-1-0.7-1.3-1.2
		c-0.3-0.6-0.5-1.2-0.5-2c0-1.1,0.3-1.9,1-2.6s1.6-1,2.8-1c1,0,1.8,0.1,2.3,0.4c0.6,0.3,1,0.7,1.3,1.3c0.3,0.6,0.4,1.3,0.4,2.2
		V120.3z M554.7,119c-0.1-0.5-0.2-0.9-0.4-1.1s-0.5-0.3-0.9-0.3c-0.4,0-0.8,0.2-1,0.5c-0.2,0.2-0.3,0.5-0.3,0.9H554.7z"/>
	<path class="st3" d="M563.6,120.4l2.5,0.3c-0.1,0.5-0.4,1-0.7,1.4c-0.3,0.4-0.7,0.7-1.2,0.9c-0.5,0.2-1.1,0.3-1.9,0.3
		c-0.7,0-1.3-0.1-1.8-0.2c-0.5-0.1-0.9-0.4-1.2-0.7c-0.3-0.3-0.6-0.7-0.8-1.1c-0.2-0.4-0.3-0.9-0.3-1.6c0-0.7,0.1-1.3,0.4-1.8
		c0.2-0.3,0.4-0.7,0.7-0.9c0.3-0.3,0.6-0.5,0.9-0.6c0.5-0.2,1.2-0.3,2-0.3c1.1,0,2,0.2,2.6,0.6s1,1,1.2,1.8l-2.5,0.3
		c-0.1-0.3-0.2-0.5-0.4-0.7s-0.5-0.2-0.8-0.2c-0.4,0-0.8,0.2-1.1,0.5c-0.3,0.3-0.4,0.8-0.4,1.4c0,0.6,0.1,1,0.4,1.3s0.6,0.4,1,0.4
		c0.3,0,0.6-0.1,0.9-0.3S563.5,120.7,563.6,120.4z"/>
	<path class="st3" d="M570.4,113.6v2.6h1.4v1.9h-1.4v2.4c0,0.3,0,0.5,0.1,0.6c0.1,0.1,0.2,0.2,0.5,0.2c0.2,0,0.5-0.1,0.8-0.2
		l0.2,1.8c-0.6,0.1-1.3,0.2-1.8,0.2c-0.7,0-1.1-0.1-1.4-0.3c-0.3-0.2-0.5-0.4-0.7-0.8c-0.1-0.3-0.2-0.9-0.2-1.7v-2.4h-1v-1.9h1v-1.3
		L570.4,113.6z"/>
	<path class="st3" d="M580.7,120.3h-5.3c0,0.4,0.2,0.7,0.3,0.9c0.3,0.3,0.6,0.4,1,0.4c0.3,0,0.5-0.1,0.7-0.2
		c0.1-0.1,0.3-0.2,0.5-0.4l2.6,0.2c-0.4,0.7-0.9,1.2-1.4,1.5c-0.6,0.3-1.4,0.4-2.4,0.4c-0.9,0-1.6-0.1-2.1-0.4s-1-0.7-1.3-1.2
		c-0.3-0.6-0.5-1.2-0.5-2c0-1.1,0.3-1.9,1-2.6s1.6-1,2.8-1c1,0,1.8,0.1,2.3,0.4c0.6,0.3,1,0.7,1.3,1.3c0.3,0.6,0.4,1.3,0.4,2.2
		V120.3z M578.1,119c-0.1-0.5-0.2-0.9-0.4-1.1s-0.5-0.3-0.9-0.3c-0.4,0-0.8,0.2-1,0.5c-0.2,0.2-0.3,0.5-0.3,0.9H578.1z"/>
	<path class="st3" d="M589.1,113.6v9.5h-2.5v-1c-0.3,0.4-0.7,0.7-0.9,0.9c-0.4,0.2-0.8,0.3-1.3,0.3c-0.9,0-1.6-0.4-2.1-1.1
		s-0.7-1.6-0.7-2.6c0-1.1,0.3-2,0.8-2.6s1.2-0.9,2.1-0.9c0.4,0,0.8,0.1,1.1,0.2c0.3,0.1,0.6,0.3,0.9,0.6v-3.3H589.1z M586.5,119.6
		c0-0.5-0.1-0.9-0.3-1.2s-0.5-0.4-0.9-0.4c-0.3,0-0.6,0.1-0.8,0.4s-0.3,0.7-0.3,1.3c0,0.6,0.1,1,0.3,1.2s0.5,0.4,0.8,0.4
		c0.3,0,0.6-0.1,0.8-0.4C586.4,120.6,586.5,120.2,586.5,119.6z"/>
</g>
<g>
	<path class="st3" d="M530.1,133.5l2.6,0.8c-0.2,0.7-0.4,1.3-0.8,1.8c-0.4,0.5-0.8,0.8-1.4,1.1c-0.5,0.2-1.2,0.4-2.1,0.4
		c-1,0-1.9-0.1-2.5-0.4c-0.7-0.3-1.2-0.8-1.7-1.6c-0.5-0.8-0.7-1.7-0.7-2.9c0-1.6,0.4-2.8,1.2-3.6c0.8-0.8,2-1.3,3.5-1.3
		c1.2,0,2.1,0.2,2.8,0.7c0.7,0.5,1.2,1.2,1.5,2.2l-2.6,0.6c-0.1-0.3-0.2-0.5-0.3-0.6c-0.2-0.2-0.4-0.4-0.6-0.5
		c-0.2-0.1-0.5-0.2-0.8-0.2c-0.7,0-1.2,0.3-1.5,0.8c-0.3,0.4-0.4,1-0.4,1.9c0,1,0.2,1.8,0.5,2.2s0.8,0.6,1.3,0.6
		c0.6,0,1-0.2,1.3-0.5C529.8,134.5,530,134.1,530.1,133.5z"/>
	<path class="st3" d="M541.2,137.4h-2.5v-1.1c-0.4,0.5-0.7,0.8-1.1,1c-0.4,0.2-0.8,0.3-1.4,0.3c-0.7,0-1.3-0.2-1.7-0.6
		c-0.4-0.4-0.6-1.1-0.6-2v-4.4h2.6v3.8c0,0.4,0.1,0.7,0.2,0.9s0.4,0.3,0.7,0.3c0.3,0,0.6-0.1,0.8-0.4c0.2-0.2,0.3-0.7,0.3-1.3v-3.3
		h2.6V137.4z"/>
	<path class="st3" d="M542.3,135.5l2.6-0.2c0.1,0.3,0.3,0.5,0.5,0.7s0.5,0.2,0.8,0.2c0.4,0,0.6-0.1,0.8-0.2c0.2-0.1,0.2-0.3,0.2-0.4
		c0-0.2-0.1-0.3-0.3-0.4c-0.1-0.1-0.5-0.2-1.1-0.3c-0.9-0.2-1.5-0.3-1.9-0.4c-0.4-0.1-0.7-0.4-0.9-0.7s-0.4-0.7-0.4-1.1
		c0-0.5,0.1-0.8,0.4-1.2c0.3-0.3,0.6-0.6,1.1-0.7c0.5-0.2,1.1-0.2,1.9-0.2c0.8,0,1.4,0.1,1.8,0.2c0.4,0.1,0.7,0.3,1,0.6
		c0.3,0.3,0.5,0.6,0.6,1.1l-2.5,0.2c-0.1-0.2-0.2-0.4-0.3-0.5c-0.2-0.1-0.5-0.2-0.7-0.2c-0.3,0-0.5,0.1-0.6,0.2
		c-0.1,0.1-0.2,0.2-0.2,0.4c0,0.2,0.1,0.3,0.3,0.4c0.2,0.1,0.5,0.2,1.1,0.2c0.9,0.1,1.5,0.2,1.9,0.4c0.4,0.2,0.8,0.4,1,0.8
		c0.2,0.3,0.3,0.7,0.3,1.1c0,0.4-0.1,0.8-0.4,1.2c-0.2,0.4-0.6,0.7-1.1,0.9c-0.5,0.2-1.2,0.3-2.1,0.3c-1.3,0-2.1-0.2-2.7-0.5
		S542.4,136.1,542.3,135.5z"/>
	<path class="st3" d="M554,127.9v2.6h1.4v1.9H554v2.4c0,0.3,0,0.5,0.1,0.6c0.1,0.1,0.2,0.2,0.5,0.2c0.2,0,0.5-0.1,0.8-0.2l0.2,1.8
		c-0.6,0.1-1.3,0.2-1.8,0.2c-0.7,0-1.1-0.1-1.4-0.3c-0.3-0.2-0.5-0.4-0.7-0.8c-0.1-0.3-0.2-0.9-0.2-1.7v-2.4h-1v-1.9h1v-1.3
		L554,127.9z"/>
	<path class="st3" d="M556.4,134c0-1,0.4-1.9,1.1-2.6c0.7-0.7,1.7-1,2.9-1c1.4,0,2.4,0.4,3.1,1.2c0.6,0.6,0.8,1.4,0.8,2.4
		c0,1.1-0.3,1.9-1,2.6c-0.7,0.7-1.7,1-2.9,1c-1.1,0-2-0.3-2.7-0.8C556.8,136,556.4,135.1,556.4,134z M559,133.9
		c0,0.6,0.1,1.1,0.4,1.4s0.6,0.4,0.9,0.4c0.4,0,0.7-0.1,0.9-0.4c0.2-0.3,0.4-0.8,0.4-1.4c0-0.6-0.1-1-0.4-1.3
		c-0.2-0.3-0.5-0.4-0.9-0.4c-0.4,0-0.7,0.1-0.9,0.4C559.2,132.9,559,133.3,559,133.9z"/>
	<path class="st3" d="M565.5,130.5h2.5v1c0.4-0.4,0.7-0.7,1.1-0.9c0.4-0.2,0.8-0.3,1.3-0.3c0.5,0,1,0.1,1.3,0.3
		c0.3,0.2,0.6,0.5,0.8,0.9c0.4-0.4,0.8-0.8,1.1-0.9s0.8-0.2,1.3-0.2c0.7,0,1.3,0.2,1.7,0.7c0.4,0.4,0.6,1.1,0.6,2v4.3h-2.6v-3.9
		c0-0.3-0.1-0.5-0.2-0.7c-0.2-0.2-0.4-0.4-0.7-0.4c-0.3,0-0.6,0.1-0.7,0.3c-0.2,0.2-0.3,0.6-0.3,1.1v3.5H570v-3.8
		c0-0.3,0-0.5-0.1-0.6c-0.1-0.2-0.2-0.3-0.3-0.4c-0.1-0.1-0.3-0.2-0.5-0.2c-0.3,0-0.6,0.1-0.7,0.3c-0.2,0.2-0.3,0.6-0.3,1.1v3.5
		h-2.6V130.5z"/>
	<path class="st3" d="M586.3,134.6H581c0,0.4,0.2,0.7,0.3,0.9c0.3,0.3,0.6,0.4,1,0.4c0.3,0,0.5-0.1,0.7-0.2c0.1-0.1,0.3-0.2,0.5-0.4
		l2.6,0.2c-0.4,0.7-0.9,1.2-1.4,1.5c-0.6,0.3-1.4,0.4-2.4,0.4c-0.9,0-1.6-0.1-2.1-0.4s-1-0.7-1.3-1.2c-0.3-0.6-0.5-1.2-0.5-2
		c0-1.1,0.3-1.9,1-2.6s1.6-1,2.8-1c1,0,1.8,0.1,2.3,0.4c0.6,0.3,1,0.7,1.3,1.3c0.3,0.6,0.4,1.3,0.4,2.2V134.6z M583.6,133.3
		c-0.1-0.5-0.2-0.9-0.4-1.1s-0.5-0.3-0.9-0.3c-0.4,0-0.8,0.2-1,0.5c-0.2,0.2-0.3,0.5-0.3,0.9H583.6z"/>
	<path class="st3" d="M587.5,130.5h2.5v1.1c0.2-0.5,0.5-0.8,0.7-1c0.3-0.2,0.6-0.3,0.9-0.3c0.4,0,0.8,0.1,1.3,0.4l-0.8,1.9
		c-0.3-0.1-0.6-0.2-0.7-0.2c-0.3,0-0.6,0.1-0.8,0.4c-0.3,0.4-0.4,1.1-0.4,2.2v2.3h-2.6V130.5z"/>
</g>
<polygon class="st11" points="489.9,401.1 557.7,371 625.4,401.1 557.7,431.2 489.9,401.1 "/>
<polygon class="st12" points="489.9,401.1 557.7,371 625.4,401.1 557.7,431.2 489.9,401.1 "/>
<g>
	<path class="st13" d="M523.9,395.2h4.9c1.1,0,1.9,0.3,2.4,0.8c0.5,0.5,0.8,1.2,0.8,2.1c0,1-0.3,1.7-0.9,2.2
		c-0.6,0.5-1.5,0.8-2.6,0.8h-1.6v3.5h-2.9V395.2z M526.8,399.3h0.7c0.6,0,1-0.1,1.2-0.3c0.2-0.2,0.3-0.4,0.3-0.8
		c0-0.3-0.1-0.5-0.3-0.8c-0.2-0.2-0.6-0.3-1.1-0.3h-0.8V399.3z"/>
	<path class="st13" d="M535.7,400.1l-2.5-0.3c0.1-0.4,0.2-0.8,0.4-1c0.2-0.3,0.4-0.5,0.8-0.7c0.2-0.1,0.6-0.2,1-0.3
		c0.4-0.1,0.9-0.1,1.4-0.1c0.8,0,1.4,0,1.9,0.1c0.5,0.1,0.9,0.3,1.2,0.6c0.2,0.2,0.4,0.5,0.5,0.8s0.2,0.7,0.2,1v3
		c0,0.3,0,0.6,0.1,0.8c0,0.2,0.1,0.4,0.3,0.7h-2.5c-0.1-0.2-0.2-0.3-0.2-0.4c0-0.1-0.1-0.2-0.1-0.4c-0.3,0.3-0.7,0.6-1,0.7
		c-0.5,0.2-1,0.3-1.6,0.3c-0.8,0-1.4-0.2-1.9-0.6c-0.4-0.4-0.6-0.8-0.6-1.4c0-0.5,0.2-0.9,0.5-1.3c0.3-0.3,0.9-0.6,1.7-0.7
		c1-0.2,1.6-0.3,1.9-0.4c0.3-0.1,0.6-0.2,0.9-0.3c0-0.3-0.1-0.5-0.2-0.7c-0.1-0.1-0.4-0.2-0.7-0.2c-0.4,0-0.8,0.1-1,0.2
		C535.9,399.6,535.8,399.8,535.7,400.1z M537.9,401.4c-0.4,0.1-0.7,0.2-1.1,0.3c-0.5,0.1-0.9,0.3-1,0.4c-0.1,0.1-0.2,0.3-0.2,0.5
		c0,0.2,0.1,0.4,0.2,0.5c0.1,0.1,0.4,0.2,0.6,0.2c0.3,0,0.6-0.1,0.8-0.2c0.3-0.1,0.4-0.3,0.5-0.5s0.2-0.5,0.2-0.8V401.4z"/>
	<path class="st13" d="M541.3,397.8h2.8l1.4,4.6l1.3-4.6h2.6l-2.7,7.3c-0.3,0.8-0.6,1.4-0.9,1.7c-0.5,0.4-1.1,0.6-2.1,0.6
		c-0.4,0-1-0.1-1.8-0.2l-0.2-1.8c0.4,0.1,0.8,0.2,1.3,0.2c0.3,0,0.6-0.1,0.8-0.2c0.2-0.1,0.4-0.4,0.5-0.8L541.3,397.8z"/>
	<path class="st13" d="M550.1,395.2h2.7v3.3c0.3-0.3,0.6-0.5,0.9-0.6s0.7-0.2,1.1-0.2c0.8,0,1.5,0.3,2.1,0.9
		c0.5,0.6,0.8,1.5,0.8,2.6c0,0.7-0.1,1.4-0.4,2c-0.3,0.6-0.6,1-1,1.3c-0.4,0.3-0.9,0.4-1.5,0.4c-0.5,0-0.9-0.1-1.3-0.3
		c-0.3-0.2-0.6-0.4-0.9-0.9v1h-2.5V395.2z M552.8,401.2c0,0.6,0.1,1,0.3,1.3c0.2,0.3,0.5,0.4,0.8,0.4c0.3,0,0.6-0.1,0.8-0.4
		c0.2-0.3,0.3-0.7,0.3-1.3c0-0.5-0.1-0.9-0.3-1.2c-0.2-0.3-0.5-0.4-0.8-0.4c-0.4,0-0.6,0.1-0.9,0.4S552.8,400.7,552.8,401.2z"/>
	<path class="st13" d="M561.3,400.1l-2.5-0.3c0.1-0.4,0.2-0.8,0.4-1c0.2-0.3,0.4-0.5,0.8-0.7c0.2-0.1,0.6-0.2,1-0.3
		c0.4-0.1,0.9-0.1,1.4-0.1c0.8,0,1.4,0,1.9,0.1c0.5,0.1,0.9,0.3,1.2,0.6c0.2,0.2,0.4,0.5,0.5,0.8s0.2,0.7,0.2,1v3
		c0,0.3,0,0.6,0.1,0.8c0,0.2,0.1,0.4,0.3,0.7H564c-0.1-0.2-0.2-0.3-0.2-0.4c0-0.1-0.1-0.2-0.1-0.4c-0.3,0.3-0.7,0.6-1,0.7
		c-0.5,0.2-1,0.3-1.6,0.3c-0.8,0-1.4-0.2-1.9-0.6c-0.4-0.4-0.6-0.8-0.6-1.4c0-0.5,0.2-0.9,0.5-1.3c0.3-0.3,0.9-0.6,1.7-0.7
		c1-0.2,1.6-0.3,1.9-0.4c0.3-0.1,0.6-0.2,0.9-0.3c0-0.3-0.1-0.5-0.2-0.7c-0.1-0.1-0.4-0.2-0.7-0.2c-0.4,0-0.8,0.1-1,0.2
		C561.5,399.6,561.4,399.8,561.3,400.1z M563.6,401.4c-0.4,0.1-0.7,0.2-1.1,0.3c-0.5,0.1-0.9,0.3-1,0.4c-0.1,0.1-0.2,0.3-0.2,0.5
		c0,0.2,0.1,0.4,0.2,0.5c0.1,0.1,0.4,0.2,0.6,0.2c0.3,0,0.6-0.1,0.8-0.2c0.3-0.1,0.4-0.3,0.5-0.5s0.2-0.5,0.2-0.8V401.4z"/>
	<path class="st13" d="M572.8,402l2.5,0.3c-0.1,0.5-0.4,1-0.7,1.4c-0.3,0.4-0.7,0.7-1.2,0.9c-0.5,0.2-1.1,0.3-1.9,0.3
		c-0.7,0-1.3-0.1-1.8-0.2c-0.5-0.1-0.9-0.4-1.2-0.7c-0.3-0.3-0.6-0.7-0.8-1.1c-0.2-0.4-0.3-0.9-0.3-1.6c0-0.7,0.1-1.3,0.4-1.8
		c0.2-0.3,0.4-0.7,0.7-0.9c0.3-0.3,0.6-0.5,0.9-0.6c0.5-0.2,1.2-0.3,2-0.3c1.1,0,2,0.2,2.6,0.6c0.6,0.4,1,1,1.2,1.8l-2.5,0.3
		c-0.1-0.3-0.2-0.5-0.4-0.7c-0.2-0.1-0.5-0.2-0.8-0.2c-0.4,0-0.8,0.2-1.1,0.5c-0.3,0.3-0.4,0.8-0.4,1.4c0,0.6,0.1,1,0.4,1.3
		s0.6,0.4,1,0.4c0.3,0,0.6-0.1,0.9-0.3C572.5,402.6,572.6,402.4,572.8,402z"/>
	<path class="st13" d="M576.4,395.2h2.7v4.9l2-2.3h3.2l-2.5,2.4l2.6,4.5h-3l-1.4-2.7l-1,1v1.8h-2.7V395.2z"/>
	<path class="st13" d="M589.4,401.7H587v-0.2c0-0.4,0-0.8,0.1-1c0.1-0.3,0.2-0.5,0.4-0.7c0.2-0.2,0.6-0.6,1.3-1.1
		c0.3-0.3,0.5-0.5,0.5-0.8s-0.1-0.4-0.2-0.6s-0.4-0.2-0.6-0.2c-0.3,0-0.6,0.1-0.8,0.3s-0.3,0.6-0.4,1.1l-2.5-0.3
		c0.1-0.9,0.4-1.7,1-2.2c0.6-0.6,1.5-0.8,2.7-0.8c0.9,0,1.7,0.2,2.3,0.6c0.8,0.5,1.2,1.2,1.2,2.1c0,0.4-0.1,0.7-0.3,1.1
		c-0.2,0.3-0.6,0.8-1.2,1.2c-0.4,0.3-0.7,0.6-0.8,0.8C589.5,401.1,589.4,401.4,589.4,401.7z M586.9,402.4h2.6v2.3h-2.6V402.4z"/>
</g>
<path class="st14" d="M482.5,307c0-14.5,11.8-26.3,26.3-26.3h97.9c14.5,0,26.3,11.8,26.3,26.3l0,0c0,14.5-11.8,26.3-26.3,26.3h-97.9
	C494.2,333.3,482.5,321.5,482.5,307L482.5,307z"/>
<path class="st15" d="M482.5,307c0-14.5,11.8-26.3,26.3-26.3h97.9c14.5,0,26.3,11.8,26.3,26.3l0,0c0,14.5-11.8,26.3-26.3,26.3h-97.9
	C494.2,333.3,482.5,321.5,482.5,307L482.5,307z"/>
<g>
	<path class="st3" d="M524.2,306.8l2.6,0.8c-0.2,0.7-0.4,1.3-0.8,1.8c-0.4,0.5-0.8,0.8-1.4,1.1c-0.5,0.2-1.2,0.4-2.1,0.4
		c-1,0-1.9-0.1-2.5-0.4c-0.7-0.3-1.2-0.8-1.7-1.6c-0.5-0.8-0.7-1.7-0.7-2.9c0-1.6,0.4-2.8,1.2-3.6c0.8-0.8,2-1.3,3.5-1.3
		c1.2,0,2.1,0.2,2.8,0.7c0.7,0.5,1.2,1.2,1.5,2.2l-2.6,0.6c-0.1-0.3-0.2-0.5-0.3-0.6c-0.2-0.2-0.4-0.4-0.6-0.5s-0.5-0.2-0.8-0.2
		c-0.7,0-1.2,0.3-1.5,0.8c-0.3,0.4-0.4,1-0.4,1.9c0,1,0.2,1.8,0.5,2.2s0.8,0.6,1.3,0.6c0.6,0,1-0.2,1.3-0.5
		C523.9,307.9,524.1,307.4,524.2,306.8z"/>
	<path class="st3" d="M527.8,307.3c0-1,0.4-1.9,1.1-2.6c0.7-0.7,1.7-1,2.9-1c1.4,0,2.4,0.4,3.1,1.2c0.6,0.6,0.8,1.4,0.8,2.4
		c0,1.1-0.3,1.9-1,2.6s-1.7,1-2.9,1c-1.1,0-2-0.3-2.7-0.8C528.2,309.3,527.8,308.4,527.8,307.3z M530.4,307.3c0,0.6,0.1,1.1,0.4,1.4
		s0.6,0.4,0.9,0.4c0.4,0,0.7-0.1,0.9-0.4c0.2-0.3,0.4-0.8,0.4-1.4c0-0.6-0.1-1-0.4-1.3s-0.5-0.4-0.9-0.4c-0.4,0-0.7,0.1-0.9,0.4
		C530.5,306.2,530.4,306.7,530.4,307.3z"/>
	<path class="st3" d="M537,301.2h2.6v9.5H537V301.2z"/>
	<path class="st3" d="M541.4,301.2h2.6v9.5h-2.6V301.2z"/>
	<path class="st3" d="M553.4,307.9h-5.3c0,0.4,0.2,0.7,0.3,0.9c0.3,0.3,0.6,0.4,1,0.4c0.3,0,0.5-0.1,0.7-0.2
		c0.1-0.1,0.3-0.2,0.5-0.4l2.6,0.2c-0.4,0.7-0.9,1.2-1.4,1.5c-0.6,0.3-1.4,0.4-2.4,0.4c-0.9,0-1.6-0.1-2.1-0.4
		c-0.5-0.3-1-0.7-1.3-1.2s-0.5-1.2-0.5-2c0-1.1,0.3-1.9,1-2.6s1.6-1,2.8-1c1,0,1.8,0.1,2.3,0.4c0.6,0.3,1,0.7,1.3,1.3
		s0.4,1.3,0.4,2.2V307.9z M550.7,306.7c-0.1-0.5-0.2-0.9-0.4-1.1c-0.2-0.2-0.5-0.3-0.9-0.3c-0.4,0-0.8,0.2-1,0.5
		c-0.2,0.2-0.3,0.5-0.3,0.9H550.7z"/>
	<path class="st3" d="M559.6,308l2.5,0.3c-0.1,0.5-0.4,1-0.7,1.4c-0.3,0.4-0.7,0.7-1.2,0.9c-0.5,0.2-1.1,0.3-1.9,0.3
		c-0.7,0-1.3-0.1-1.8-0.2c-0.5-0.1-0.9-0.4-1.2-0.7c-0.3-0.3-0.6-0.7-0.8-1.1c-0.2-0.4-0.3-0.9-0.3-1.6c0-0.7,0.1-1.3,0.4-1.8
		c0.2-0.3,0.4-0.7,0.7-0.9c0.3-0.3,0.6-0.5,0.9-0.6c0.5-0.2,1.2-0.3,2-0.3c1.1,0,2,0.2,2.6,0.6c0.6,0.4,1,1,1.2,1.8l-2.5,0.3
		c-0.1-0.3-0.2-0.5-0.4-0.7c-0.2-0.1-0.5-0.2-0.8-0.2c-0.4,0-0.8,0.2-1.1,0.5c-0.3,0.3-0.4,0.8-0.4,1.4c0,0.6,0.1,1,0.4,1.3
		s0.6,0.4,1,0.4c0.3,0,0.6-0.1,0.9-0.3C559.3,308.6,559.5,308.4,559.6,308z"/>
	<path class="st3" d="M566.5,301.2v2.6h1.4v1.9h-1.4v2.4c0,0.3,0,0.5,0.1,0.6c0.1,0.1,0.2,0.2,0.5,0.2c0.2,0,0.5-0.1,0.8-0.2
		l0.2,1.8c-0.6,0.1-1.3,0.2-1.8,0.2c-0.7,0-1.1-0.1-1.4-0.3c-0.3-0.2-0.5-0.4-0.7-0.8c-0.1-0.3-0.2-0.9-0.2-1.7v-2.4h-1v-1.9h1v-1.3
		L566.5,301.2z"/>
	<path class="st3" d="M569.3,301.2h2.6v1.8h-2.6V301.2z M569.3,303.8h2.6v6.9h-2.6V303.8z"/>
	<path class="st3" d="M573.3,307.3c0-1,0.4-1.9,1.1-2.6c0.7-0.7,1.7-1,2.9-1c1.4,0,2.4,0.4,3.1,1.2c0.6,0.6,0.8,1.4,0.8,2.4
		c0,1.1-0.3,1.9-1,2.6s-1.7,1-2.9,1c-1.1,0-2-0.3-2.7-0.8C573.7,309.3,573.3,308.4,573.3,307.3z M575.9,307.3c0,0.6,0.1,1.1,0.4,1.4
		s0.6,0.4,0.9,0.4c0.4,0,0.7-0.1,0.9-0.4c0.2-0.3,0.4-0.8,0.4-1.4c0-0.6-0.1-1-0.4-1.3s-0.5-0.4-0.9-0.4c-0.4,0-0.7,0.1-0.9,0.4
		C576,306.2,575.9,306.7,575.9,307.3z"/>
	<path class="st3" d="M582.4,303.8h2.4v1.1c0.4-0.5,0.7-0.8,1.1-1c0.4-0.2,0.8-0.3,1.4-0.3c0.7,0,1.3,0.2,1.7,0.6
		c0.4,0.4,0.6,1.1,0.6,2v4.4H587v-3.8c0-0.4-0.1-0.7-0.2-0.9s-0.4-0.3-0.7-0.3c-0.3,0-0.6,0.1-0.8,0.4c-0.2,0.2-0.3,0.7-0.3,1.3v3.3
		h-2.6V303.8z"/>
	<path class="st3" d="M590.7,308.8l2.6-0.2c0.1,0.3,0.3,0.5,0.5,0.7c0.2,0.1,0.5,0.2,0.8,0.2c0.4,0,0.6-0.1,0.8-0.2
		c0.2-0.1,0.2-0.3,0.2-0.4c0-0.2-0.1-0.3-0.3-0.4c-0.1-0.1-0.5-0.2-1.1-0.3c-0.9-0.2-1.5-0.3-1.9-0.4c-0.4-0.1-0.7-0.4-0.9-0.7
		s-0.4-0.7-0.4-1.1c0-0.5,0.1-0.8,0.4-1.2c0.3-0.3,0.6-0.6,1.1-0.7c0.5-0.2,1.1-0.2,1.9-0.2c0.8,0,1.4,0.1,1.8,0.2
		c0.4,0.1,0.7,0.3,1,0.6c0.3,0.3,0.5,0.6,0.6,1.1l-2.5,0.2c-0.1-0.2-0.2-0.4-0.3-0.5c-0.2-0.1-0.5-0.2-0.7-0.2
		c-0.3,0-0.5,0.1-0.6,0.2c-0.1,0.1-0.2,0.2-0.2,0.4c0,0.2,0.1,0.3,0.3,0.4c0.2,0.1,0.5,0.2,1.1,0.2c0.9,0.1,1.5,0.2,1.9,0.4
		c0.4,0.2,0.8,0.4,1,0.8s0.3,0.7,0.3,1.1c0,0.4-0.1,0.8-0.4,1.2c-0.2,0.4-0.6,0.7-1.1,0.9c-0.5,0.2-1.2,0.3-2.1,0.3
		c-1.3,0-2.1-0.2-2.7-0.5C591.2,310,590.8,309.5,590.7,308.8z"/>
</g>
<path class="st14" d="M482.5,495.1c0-14.5,11.8-26.3,26.3-26.3h97.7c14.5,0,26.3,11.8,26.3,26.3h0c0,14.5-11.8,26.3-26.3,26.3
	l-97.7,0C494.3,521.4,482.5,509.6,482.5,495.1L482.5,495.1z"/>
<path class="st15" d="M482.5,495.1c0-14.5,11.8-26.3,26.3-26.3h97.7c14.5,0,26.3,11.8,26.3,26.3h0c0,14.5-11.8,26.3-26.3,26.3
	l-97.7,0C494.3,521.4,482.5,509.6,482.5,495.1L482.5,495.1z"/>
<g>
	<path class="st3" d="M522.5,482.1h2.8l1,5.3l1.5-5.3h2.8l1.5,5.3l1-5.3h2.8l-2.1,9.5h-2.9l-1.7-6l-1.7,6h-2.9L522.5,482.1z"/>
	<path class="st3" d="M536.6,484.7h2.5v1.1c0.2-0.5,0.5-0.8,0.7-1c0.3-0.2,0.6-0.3,0.9-0.3c0.4,0,0.8,0.1,1.3,0.4l-0.8,1.9
		c-0.3-0.1-0.6-0.2-0.7-0.2c-0.3,0-0.6,0.1-0.8,0.4c-0.3,0.4-0.4,1.1-0.4,2.2v2.3h-2.6V484.7z"/>
	<path class="st3" d="M542.5,482.1h2.6v1.8h-2.6V482.1z M542.5,484.7h2.6v6.9h-2.6V484.7z"/>
	<path class="st3" d="M550,482.1v2.6h1.4v1.9H550v2.4c0,0.3,0,0.5,0.1,0.6c0.1,0.1,0.2,0.2,0.5,0.2c0.2,0,0.5-0.1,0.8-0.2l0.2,1.8
		c-0.6,0.1-1.3,0.2-1.8,0.2c-0.7,0-1.1-0.1-1.4-0.3c-0.3-0.2-0.5-0.4-0.7-0.8c-0.1-0.3-0.2-0.9-0.2-1.7v-2.4h-1v-1.9h1v-1.3
		L550,482.1z"/>
	<path class="st3" d="M560.4,488.8h-5.3c0,0.4,0.2,0.7,0.3,0.9c0.3,0.3,0.6,0.4,1,0.4c0.3,0,0.5-0.1,0.7-0.2
		c0.1-0.1,0.3-0.2,0.5-0.4l2.6,0.2c-0.4,0.7-0.9,1.2-1.4,1.5c-0.6,0.3-1.4,0.4-2.4,0.4c-0.9,0-1.6-0.1-2.1-0.4
		c-0.5-0.3-1-0.7-1.3-1.2s-0.5-1.2-0.5-2c0-1.1,0.3-1.9,1-2.6s1.6-1,2.8-1c1,0,1.8,0.1,2.3,0.4c0.6,0.3,1,0.7,1.3,1.3
		s0.4,1.3,0.4,2.2V488.8z M557.7,487.5c-0.1-0.5-0.2-0.9-0.4-1.1c-0.2-0.2-0.5-0.3-0.9-0.3c-0.4,0-0.8,0.2-1,0.5
		c-0.2,0.2-0.3,0.5-0.3,0.9H557.7z"/>
</g>
<g>
	<path class="st3" d="M561,487.1h3.8v2H561V487.1z"/>
</g>
<g>
	<path class="st3" d="M565.7,488.1c0-1,0.4-1.9,1.1-2.6c0.7-0.7,1.7-1,2.9-1c1.4,0,2.4,0.4,3.1,1.2c0.6,0.6,0.8,1.4,0.8,2.4
		c0,1.1-0.3,1.9-1,2.6s-1.7,1-2.9,1c-1.1,0-2-0.3-2.7-0.8C566.1,490.2,565.7,489.3,565.7,488.1z M568.3,488.1c0,0.6,0.1,1.1,0.4,1.4
		s0.6,0.4,0.9,0.4c0.4,0,0.7-0.1,0.9-0.4c0.2-0.3,0.4-0.8,0.4-1.4c0-0.6-0.1-1-0.4-1.3s-0.5-0.4-0.9-0.4c-0.4,0-0.7,0.1-0.9,0.4
		C568.4,487.1,568.3,487.5,568.3,488.1z"/>
	<path class="st3" d="M577.7,484.7h1.3v1.9h-1.3v4.9H575v-4.9h-1v-1.9h1v-0.3c0-0.3,0-0.6,0.1-0.9c0.1-0.3,0.2-0.6,0.3-0.8
		c0.2-0.2,0.4-0.4,0.7-0.5c0.3-0.1,0.7-0.2,1.3-0.2c0.5,0,1.1,0.1,2,0.2l-0.3,1.6c-0.3-0.1-0.6-0.1-0.8-0.1c-0.2,0-0.4,0-0.5,0.1
		c-0.1,0.1-0.2,0.2-0.2,0.4C577.7,484.2,577.7,484.4,577.7,484.7z"/>
	<path class="st3" d="M582.8,484.7h1.3v1.9h-1.3v4.9h-2.6v-4.9h-1v-1.9h1v-0.3c0-0.3,0-0.6,0.1-0.9c0.1-0.3,0.2-0.6,0.3-0.8
		c0.2-0.2,0.4-0.4,0.7-0.5c0.3-0.1,0.7-0.2,1.3-0.2c0.5,0,1.1,0.1,2,0.2l-0.3,1.6c-0.3-0.1-0.6-0.1-0.8-0.1c-0.2,0-0.4,0-0.5,0.1
		c-0.1,0.1-0.2,0.2-0.2,0.4C582.8,484.2,582.8,484.4,582.8,484.7z"/>
	<path class="st3" d="M591.4,481.9h1.3l-2.4,9.8h-1.3L591.4,481.9z"/>
</g>
<g>
	<path class="st3" d="M526.7,504l2.6-0.2c0.1,0.3,0.3,0.5,0.5,0.7c0.2,0.1,0.5,0.2,0.8,0.2c0.4,0,0.6-0.1,0.8-0.2
		c0.2-0.1,0.2-0.3,0.2-0.4c0-0.2-0.1-0.3-0.3-0.4c-0.1-0.1-0.5-0.2-1.1-0.3c-0.9-0.2-1.5-0.3-1.9-0.4c-0.4-0.1-0.7-0.4-0.9-0.7
		s-0.4-0.7-0.4-1.1c0-0.5,0.1-0.8,0.4-1.2c0.3-0.3,0.6-0.6,1.1-0.7c0.5-0.2,1.1-0.2,1.9-0.2c0.8,0,1.4,0.1,1.8,0.2
		c0.4,0.1,0.7,0.3,1,0.6c0.3,0.3,0.5,0.6,0.6,1.1l-2.5,0.2c-0.1-0.2-0.2-0.4-0.3-0.5c-0.2-0.1-0.5-0.2-0.7-0.2
		c-0.3,0-0.5,0.1-0.6,0.2c-0.1,0.1-0.2,0.2-0.2,0.4c0,0.2,0.1,0.3,0.3,0.4c0.2,0.1,0.5,0.2,1.1,0.2c0.9,0.1,1.5,0.2,1.9,0.4
		c0.4,0.2,0.8,0.4,1,0.8s0.3,0.7,0.3,1.1c0,0.4-0.1,0.8-0.4,1.2c-0.2,0.4-0.6,0.7-1.1,0.9c-0.5,0.2-1.2,0.3-2.1,0.3
		c-1.3,0-2.1-0.2-2.7-0.5C527.2,505.1,526.8,504.6,526.7,504z"/>
</g>
<g>
	<path class="st3" d="M542.9,503.1h-5.3c0,0.4,0.2,0.7,0.3,0.9c0.3,0.3,0.6,0.4,1,0.4c0.3,0,0.5-0.1,0.7-0.2
		c0.1-0.1,0.3-0.2,0.5-0.4l2.6,0.2c-0.4,0.7-0.9,1.2-1.4,1.5c-0.6,0.3-1.4,0.4-2.4,0.4c-0.9,0-1.6-0.1-2.1-0.4
		c-0.5-0.3-1-0.7-1.3-1.2s-0.5-1.2-0.5-2c0-1.1,0.3-1.9,1-2.6s1.6-1,2.8-1c1,0,1.8,0.1,2.3,0.4c0.6,0.3,1,0.7,1.3,1.3
		s0.4,1.3,0.4,2.2V503.1z M540.2,501.8c-0.1-0.5-0.2-0.9-0.4-1.1c-0.2-0.2-0.5-0.3-0.9-0.3c-0.4,0-0.8,0.2-1,0.5
		c-0.2,0.2-0.3,0.5-0.3,0.9H540.2z"/>
	<path class="st3" d="M544.1,496.4h2.6v9.5h-2.6V496.4z"/>
	<path class="st3" d="M548.6,496.4h2.6v9.5h-2.6V496.4z"/>
	<path class="st3" d="M564.8,496.4v9.5h-2.5v-1c-0.3,0.4-0.7,0.7-0.9,0.9c-0.4,0.2-0.8,0.3-1.3,0.3c-0.9,0-1.6-0.4-2.1-1.1
		c-0.5-0.7-0.7-1.6-0.7-2.6c0-1.1,0.3-2,0.8-2.6c0.5-0.6,1.2-0.9,2.1-0.9c0.4,0,0.8,0.1,1.1,0.2s0.6,0.3,0.9,0.6v-3.3H564.8z
		 M562.1,502.4c0-0.5-0.1-0.9-0.3-1.2s-0.5-0.4-0.9-0.4c-0.3,0-0.6,0.1-0.8,0.4c-0.2,0.3-0.3,0.7-0.3,1.3c0,0.6,0.1,1,0.3,1.2
		c0.2,0.3,0.5,0.4,0.8,0.4c0.3,0,0.6-0.1,0.8-0.4C562,503.4,562.1,503,562.1,502.4z"/>
	<path class="st3" d="M573.9,503.1h-5.3c0,0.4,0.2,0.7,0.3,0.9c0.3,0.3,0.6,0.4,1,0.4c0.3,0,0.5-0.1,0.7-0.2
		c0.1-0.1,0.3-0.2,0.5-0.4l2.6,0.2c-0.4,0.7-0.9,1.2-1.4,1.5c-0.6,0.3-1.4,0.4-2.4,0.4c-0.9,0-1.6-0.1-2.1-0.4
		c-0.5-0.3-1-0.7-1.3-1.2s-0.5-1.2-0.5-2c0-1.1,0.3-1.9,1-2.6s1.6-1,2.8-1c1,0,1.8,0.1,2.3,0.4c0.6,0.3,1,0.7,1.3,1.3
		s0.4,1.3,0.4,2.2V503.1z M571.2,501.8c-0.1-0.5-0.2-0.9-0.4-1.1c-0.2-0.2-0.5-0.3-0.9-0.3c-0.4,0-0.8,0.2-1,0.5
		c-0.2,0.2-0.3,0.5-0.3,0.9H571.2z"/>
	<path class="st3" d="M575.1,496.4h2.7v3.3c0.3-0.3,0.6-0.5,0.9-0.6s0.7-0.2,1.1-0.2c0.8,0,1.5,0.3,2.1,0.9c0.5,0.6,0.8,1.5,0.8,2.6
		c0,0.7-0.1,1.4-0.4,2c-0.3,0.6-0.6,1-1,1.3c-0.4,0.3-0.9,0.4-1.5,0.4c-0.5,0-0.9-0.1-1.3-0.3c-0.3-0.2-0.6-0.4-0.9-0.9v1h-2.5
		V496.4z M577.7,502.4c0,0.6,0.1,1,0.3,1.3c0.2,0.3,0.5,0.4,0.8,0.4c0.3,0,0.6-0.1,0.8-0.4c0.2-0.3,0.3-0.7,0.3-1.3
		c0-0.5-0.1-0.9-0.3-1.2c-0.2-0.3-0.5-0.4-0.8-0.4c-0.4,0-0.6,0.1-0.9,0.4S577.7,501.9,577.7,502.4z"/>
	<path class="st3" d="M587,496.4v2.6h1.4v1.9H587v2.4c0,0.3,0,0.5,0.1,0.6c0.1,0.1,0.2,0.2,0.5,0.2c0.2,0,0.5-0.1,0.8-0.2l0.2,1.8
		c-0.6,0.1-1.3,0.2-1.8,0.2c-0.7,0-1.1-0.1-1.4-0.3c-0.3-0.2-0.5-0.4-0.7-0.8c-0.1-0.3-0.2-0.9-0.2-1.7v-2.4h-1V499h1v-1.3
		L587,496.4z"/>
</g>
<path class="st16" d="M249.5,43.8c0-14.5,11.8-26.3,26.3-26.3h97.7c14.5,0,26.3,11.8,26.3,26.3h0c0,14.5-11.8,26.3-26.3,26.3
	l-97.7,0C261.3,70.2,249.5,58.4,249.5,43.8L249.5,43.8z"/>
<path class="st12" d="M249.5,43.8c0-14.5,11.8-26.3,26.3-26.3h97.7c14.5,0,26.3,11.8,26.3,26.3h0c0,14.5-11.8,26.3-26.3,26.3
	l-97.7,0C261.3,70.2,249.5,58.4,249.5,43.8L249.5,43.8z"/>
<g>
	<path class="st13" d="M310.3,30.9h2.7l3.6,5.2v-5.2h2.8v9.5h-2.8l-3.5-5.2v5.2h-2.7V30.9z"/>
	<path class="st13" d="M328.7,37.5h-5.3c0,0.4,0.2,0.7,0.3,0.9c0.3,0.3,0.6,0.4,1,0.4c0.3,0,0.5-0.1,0.7-0.2
		c0.1-0.1,0.3-0.2,0.5-0.4l2.6,0.2c-0.4,0.7-0.9,1.2-1.4,1.5s-1.4,0.4-2.4,0.4c-0.9,0-1.6-0.1-2.1-0.4c-0.5-0.3-1-0.7-1.3-1.2
		c-0.3-0.6-0.5-1.2-0.5-2c0-1.1,0.3-1.9,1-2.6s1.6-1,2.8-1c1,0,1.8,0.1,2.3,0.4c0.6,0.3,1,0.7,1.3,1.3c0.3,0.6,0.4,1.3,0.4,2.2V37.5
		z M326,36.3c-0.1-0.5-0.2-0.9-0.4-1.1c-0.2-0.2-0.5-0.3-0.9-0.3c-0.4,0-0.8,0.2-1,0.5c-0.2,0.2-0.3,0.5-0.3,0.9H326z"/>
	<path class="st13" d="M329.1,33.5h2.5l1.1,4.3l1.4-4.3h2.4l1.4,4.3l1.1-4.3h2.5l-2.5,6.9h-2.3l-1.4-4.1l-1.3,4.1h-2.3L329.1,33.5z"
		/>
</g>
<g>
	<path class="st13" d="M316.5,50.8l2.6,0.8c-0.2,0.7-0.4,1.3-0.8,1.8c-0.4,0.5-0.8,0.8-1.4,1.1s-1.2,0.4-2.1,0.4
		c-1,0-1.9-0.1-2.5-0.4c-0.7-0.3-1.2-0.8-1.7-1.6c-0.5-0.8-0.7-1.7-0.7-2.9c0-1.6,0.4-2.8,1.2-3.6c0.8-0.8,2-1.3,3.5-1.3
		c1.2,0,2.1,0.2,2.8,0.7c0.7,0.5,1.2,1.2,1.5,2.2l-2.6,0.6c-0.1-0.3-0.2-0.5-0.3-0.6c-0.2-0.2-0.4-0.4-0.6-0.5
		c-0.2-0.1-0.5-0.2-0.8-0.2c-0.7,0-1.2,0.3-1.5,0.8c-0.3,0.4-0.4,1-0.4,1.9c0,1,0.2,1.8,0.5,2.2c0.3,0.4,0.8,0.6,1.3,0.6
		c0.6,0,1-0.2,1.3-0.5C316.2,51.8,316.4,51.4,316.5,50.8z"/>
	<path class="st13" d="M327.6,54.7h-2.5v-1.1c-0.4,0.5-0.7,0.8-1.1,1c-0.4,0.2-0.8,0.3-1.4,0.3c-0.7,0-1.3-0.2-1.7-0.6
		c-0.4-0.4-0.6-1.1-0.6-2v-4.4h2.6v3.8c0,0.4,0.1,0.7,0.2,0.9s0.4,0.3,0.7,0.3c0.3,0,0.6-0.1,0.8-0.4c0.2-0.2,0.3-0.7,0.3-1.3v-3.3
		h2.6V54.7z"/>
	<path class="st13" d="M328.7,52.7l2.6-0.2c0.1,0.3,0.3,0.5,0.5,0.7c0.2,0.1,0.5,0.2,0.8,0.2c0.4,0,0.6-0.1,0.8-0.2
		c0.2-0.1,0.2-0.3,0.2-0.4c0-0.2-0.1-0.3-0.3-0.4c-0.1-0.1-0.5-0.2-1.1-0.3c-0.9-0.2-1.5-0.3-1.9-0.4c-0.4-0.1-0.7-0.4-0.9-0.7
		c-0.2-0.3-0.4-0.7-0.4-1.1c0-0.5,0.1-0.8,0.4-1.2c0.3-0.3,0.6-0.6,1.1-0.7c0.5-0.2,1.1-0.2,1.9-0.2c0.8,0,1.4,0.1,1.8,0.2
		c0.4,0.1,0.7,0.3,1,0.6s0.5,0.6,0.6,1.1l-2.5,0.2c-0.1-0.2-0.2-0.4-0.3-0.5c-0.2-0.1-0.5-0.2-0.7-0.2c-0.3,0-0.5,0.1-0.6,0.2
		c-0.1,0.1-0.2,0.2-0.2,0.4c0,0.2,0.1,0.3,0.3,0.4s0.5,0.2,1.1,0.2c0.9,0.1,1.5,0.2,1.9,0.4c0.4,0.2,0.8,0.4,1,0.8
		c0.2,0.3,0.3,0.7,0.3,1.1c0,0.4-0.1,0.8-0.4,1.2c-0.2,0.4-0.6,0.7-1.1,0.9c-0.5,0.2-1.2,0.3-2.1,0.3c-1.3,0-2.1-0.2-2.7-0.5
		C329.2,53.9,328.9,53.4,328.7,52.7z"/>
	<path class="st13" d="M340.5,45.2v2.6h1.4v1.9h-1.4v2.4c0,0.3,0,0.5,0.1,0.6c0.1,0.1,0.2,0.2,0.5,0.2c0.2,0,0.5-0.1,0.8-0.2
		l0.2,1.8c-0.6,0.1-1.3,0.2-1.8,0.2c-0.7,0-1.1-0.1-1.4-0.3c-0.3-0.2-0.5-0.4-0.7-0.8s-0.2-0.9-0.2-1.7v-2.4h-1v-1.9h1v-1.3
		L340.5,45.2z"/>
	<path class="st13" d="M342.8,51.2c0-1,0.4-1.9,1.1-2.6c0.7-0.7,1.7-1,2.9-1c1.4,0,2.4,0.4,3.1,1.2c0.6,0.6,0.8,1.4,0.8,2.4
		c0,1.1-0.3,1.9-1,2.6c-0.7,0.7-1.7,1-2.9,1c-1.1,0-2-0.3-2.7-0.8C343.3,53.3,342.8,52.4,342.8,51.2z M345.5,51.2
		c0,0.6,0.1,1.1,0.4,1.4c0.2,0.3,0.6,0.4,0.9,0.4c0.4,0,0.7-0.1,0.9-0.4c0.2-0.3,0.4-0.8,0.4-1.4c0-0.6-0.1-1-0.4-1.3
		c-0.2-0.3-0.5-0.4-0.9-0.4c-0.4,0-0.7,0.1-0.9,0.4C345.6,50.2,345.5,50.6,345.5,51.2z"/>
	<path class="st13" d="M351.9,47.8h2.5v1c0.4-0.4,0.7-0.7,1.1-0.9c0.4-0.2,0.8-0.3,1.3-0.3c0.5,0,1,0.1,1.3,0.3
		c0.3,0.2,0.6,0.5,0.8,0.9c0.4-0.4,0.8-0.8,1.1-0.9s0.8-0.2,1.3-0.2c0.7,0,1.3,0.2,1.7,0.7c0.4,0.4,0.6,1.1,0.6,2v4.3h-2.6v-3.9
		c0-0.3-0.1-0.5-0.2-0.7c-0.2-0.2-0.4-0.4-0.7-0.4c-0.3,0-0.6,0.1-0.7,0.3s-0.3,0.6-0.3,1.1v3.5h-2.6v-3.8c0-0.3,0-0.5-0.1-0.6
		c-0.1-0.2-0.2-0.3-0.3-0.4c-0.1-0.1-0.3-0.2-0.5-0.2c-0.3,0-0.6,0.1-0.7,0.3c-0.2,0.2-0.3,0.6-0.3,1.1v3.5h-2.6V47.8z"/>
	<path class="st13" d="M372.7,51.9h-5.3c0,0.4,0.2,0.7,0.3,0.9c0.3,0.3,0.6,0.4,1,0.4c0.3,0,0.5-0.1,0.7-0.2
		c0.1-0.1,0.3-0.2,0.5-0.4l2.6,0.2c-0.4,0.7-0.9,1.2-1.4,1.5s-1.4,0.4-2.4,0.4c-0.9,0-1.6-0.1-2.1-0.4c-0.5-0.3-1-0.7-1.3-1.2
		c-0.3-0.6-0.5-1.2-0.5-2c0-1.1,0.3-1.9,1-2.6s1.6-1,2.8-1c1,0,1.8,0.1,2.3,0.4c0.6,0.3,1,0.7,1.3,1.3c0.3,0.6,0.4,1.3,0.4,2.2V51.9
		z M370.1,50.6c-0.1-0.5-0.2-0.9-0.4-1.1c-0.2-0.2-0.5-0.3-0.9-0.3c-0.4,0-0.8,0.2-1,0.5c-0.2,0.2-0.3,0.5-0.3,0.9H370.1z"/>
	<path class="st13" d="M373.9,47.8h2.5v1.1c0.2-0.5,0.5-0.8,0.7-1c0.3-0.2,0.6-0.3,0.9-0.3c0.4,0,0.8,0.1,1.3,0.4l-0.8,1.9
		c-0.3-0.1-0.6-0.2-0.7-0.2c-0.3,0-0.6,0.1-0.8,0.4c-0.3,0.4-0.4,1.1-0.4,2.2v2.3h-2.6V47.8z"/>
</g>
<g>
	<defs>
		<polygon id="SVGID_1_" points="264.4,58.9 294.5,58.9 294.5,28.8 264.4,28.8 264.4,58.9 		"/>
	</defs>
	<clipPath id="SVGID_2_">
		<use xlink:href="#SVGID_1_"  style="overflow:visible;"/>
	</clipPath>
	<g class="st17">
		<defs>
			<polyline id="SVGID_3_" points="264.4,28.8 264.4,28.8 264.4,58.9 294.5,58.9 294.5,28.8 			"/>
		</defs>
		<defs>
			<polyline id="SVGID_4_" points="264.4,28.8 264.4,28.8 264.4,58.9 294.5,58.9 294.5,28.8 			"/>
		</defs>
		<clipPath id="SVGID_5_">
			<use xlink:href="#SVGID_3_"  style="overflow:visible;"/>
		</clipPath>
		<clipPath id="SVGID_6_" class="st18">
			<use xlink:href="#SVGID_4_"  style="overflow:visible;"/>
		</clipPath>
		<path class="st19" d="M288,47.6L288,47.6c-1.5,3.3-4.9,5.5-8.5,5.5c-3.7,0-7-2.1-8.5-5.5c-0.1-0.3-0.1-0.6,0.1-0.9
			c0.2-0.3,0.5-0.4,0.8-0.4h15.4c0.3,0,0.6,0.2,0.8,0.4C288.1,47,288.1,47.3,288,47.6L288,47.6z M272.5,38.1L272.5,38.1
			c0.3-0.3,0.8-0.7,1.7-0.7c0.6,0,1.2,0.2,1.6,0.7c0.5,0.4,0.7,1,0.7,1.7c0,0.6-0.2,1.2-0.7,1.7c-0.5,0.5-1,0.7-1.7,0.7
			c-0.9,0-1.4-0.4-1.7-0.7c-0.4-0.5-0.6-1-0.6-1.6C271.9,39.1,272.1,38.5,272.5,38.1L272.5,38.1z M282.9,38.1L282.9,38.1
			c0.3-0.3,0.8-0.7,1.7-0.7c0.6,0,1.2,0.2,1.6,0.7c0.5,0.4,0.7,1,0.7,1.7c0,0.6-0.2,1.2-0.7,1.7c-0.4,0.5-1,0.7-1.7,0.7
			c-0.9,0-1.4-0.4-1.7-0.7c-0.4-0.5-0.6-1-0.6-1.6C282.3,39.1,282.5,38.5,282.9,38.1L282.9,38.1z M279.4,28.7L279.4,28.7
			c-8.3,0-15,6.7-15,15s6.7,15,15,15c8.3,0,15-6.7,15-15S287.7,28.7,279.4,28.7L279.4,28.7z"/>
	</g>
</g>
<path class="st5" d="M16.4,275.7c0-5.5,4.5-10,10-10h73.3l0,0h35.7h13.8c5.5,0,10,4.5,10,10v25.1l97.6,4.4l-97.6,10.6v0
	c0,5.5-4.5,10-10,10h-13.8H99.7l0,0H26.4c-5.5,0-10-4.5-10-10v0v-15l0,0V275.7L16.4,275.7z"/>
<path class="st6" d="M16.4,275.7c0-5.5,4.5-10,10-10h73.3l0,0h35.7h13.8c5.5,0,10,4.5,10,10v25.1l97.6,4.4l-97.6,10.6v0
	c0,5.5-4.5,10-10,10h-13.8H99.7l0,0H26.4c-5.5,0-10-4.5-10-10v0v-15l0,0V275.7L16.4,275.7z"/>
<g>
	<path class="st7" d="M31.1,289.5h6.1c1,0,1.8,0.3,2.3,0.8s0.8,1.1,0.8,1.9c0,0.6-0.2,1.2-0.6,1.6c-0.3,0.3-0.6,0.5-1.1,0.7
		c0.8,0.2,1.3,0.5,1.7,0.9s0.5,1,0.5,1.7c0,0.5-0.1,1-0.4,1.5c-0.3,0.4-0.6,0.8-1,1c-0.3,0.2-0.7,0.3-1.2,0.3
		c-0.7,0.1-1.2,0.1-1.5,0.1h-5.6V289.5z M34.4,293.6h1.4c0.5,0,0.9-0.1,1.1-0.3s0.3-0.4,0.3-0.8c0-0.3-0.1-0.5-0.3-0.7
		c-0.2-0.2-0.5-0.3-1-0.3h-1.4V293.6z M34.4,297.7H36c0.6,0,1-0.1,1.2-0.3c0.2-0.2,0.3-0.5,0.3-0.8c0-0.3-0.1-0.6-0.3-0.7
		c-0.2-0.2-0.6-0.3-1.2-0.3h-1.6V297.7z"/>
	<path class="st7" d="M49.5,296.9h-5.8c0.1,0.5,0.2,0.8,0.4,1c0.3,0.3,0.6,0.5,1.1,0.5c0.3,0,0.6-0.1,0.8-0.2
		c0.2-0.1,0.3-0.3,0.5-0.5l2.9,0.3c-0.4,0.8-1,1.3-1.6,1.6c-0.6,0.3-1.5,0.5-2.7,0.5c-1,0-1.8-0.1-2.4-0.4s-1.1-0.7-1.4-1.4
		s-0.6-1.3-0.6-2.2c0-1.2,0.4-2.1,1.1-2.9s1.8-1.1,3.1-1.1c1.1,0,1.9,0.2,2.6,0.5c0.6,0.3,1.1,0.8,1.4,1.4c0.3,0.6,0.5,1.4,0.5,2.4
		V296.9z M46.6,295.5c-0.1-0.6-0.2-1-0.5-1.2s-0.6-0.4-1-0.4c-0.5,0-0.8,0.2-1.1,0.6c-0.2,0.2-0.3,0.6-0.3,1H46.6z"/>
	<path class="st7" d="M49.6,289.5h2.9v3.9c0.4-0.4,0.8-0.7,1.2-0.9c0.4-0.2,0.9-0.3,1.4-0.3c0.8,0,1.4,0.2,1.9,0.7s0.7,1.2,0.7,2.2
		v4.8h-2.9v-4.2c0-0.5-0.1-0.8-0.3-1s-0.4-0.3-0.7-0.3c-0.4,0-0.6,0.1-0.9,0.4s-0.3,0.7-0.3,1.4v3.6h-2.9V289.5z"/>
	<path class="st7" d="M60.7,294.8l-2.8-0.3c0.1-0.5,0.3-0.9,0.5-1.1s0.5-0.5,0.9-0.7c0.3-0.1,0.6-0.3,1.1-0.3s1-0.1,1.5-0.1
		c0.9,0,1.6,0,2.1,0.1c0.5,0.1,1,0.3,1.3,0.6c0.2,0.2,0.4,0.5,0.6,0.9s0.2,0.8,0.2,1.1v3.4c0,0.4,0,0.6,0.1,0.8
		c0,0.2,0.1,0.5,0.3,0.8h-2.7c-0.1-0.2-0.2-0.3-0.2-0.4c0-0.1-0.1-0.3-0.1-0.5c-0.4,0.4-0.8,0.6-1.1,0.8c-0.5,0.2-1.1,0.3-1.8,0.3
		c-0.9,0-1.6-0.2-2.1-0.6c-0.5-0.4-0.7-0.9-0.7-1.6c0-0.6,0.2-1.1,0.5-1.4c0.3-0.4,1-0.6,1.9-0.8c1.1-0.2,1.8-0.4,2.1-0.5
		c0.3-0.1,0.7-0.2,1-0.3c0-0.4-0.1-0.6-0.2-0.8c-0.1-0.1-0.4-0.2-0.8-0.2c-0.5,0-0.8,0.1-1.1,0.2C60.9,294.3,60.8,294.5,60.7,294.8z
		 M63.2,296.3c-0.4,0.1-0.8,0.3-1.3,0.4c-0.6,0.2-1,0.3-1.1,0.5c-0.2,0.2-0.2,0.3-0.2,0.5c0,0.2,0.1,0.4,0.2,0.6
		c0.2,0.1,0.4,0.2,0.7,0.2c0.3,0,0.6-0.1,0.9-0.2s0.5-0.3,0.6-0.6c0.1-0.2,0.2-0.5,0.2-0.9V296.3z"/>
	<path class="st7" d="M65.6,292.4h3l1.5,4.8l1.5-4.8h2.9l-3.2,7.6h-2.6L65.6,292.4z"/>
	<path class="st7" d="M74.2,289.5h2.9v2h-2.9V289.5z M74.2,292.4h2.9v7.6h-2.9V292.4z"/>
	<path class="st7" d="M77.4,296.2c0-1.2,0.4-2.1,1.2-2.9c0.8-0.8,1.8-1.1,3.2-1.1c1.5,0,2.7,0.4,3.4,1.3c0.6,0.7,0.9,1.6,0.9,2.6
		c0,1.2-0.4,2.1-1.2,2.9c-0.8,0.7-1.8,1.1-3.2,1.1c-1.2,0-2.2-0.3-3-0.9C77.9,298.4,77.4,297.4,77.4,296.2z M80.3,296.2
		c0,0.7,0.1,1.2,0.4,1.5s0.6,0.5,1,0.5c0.4,0,0.8-0.2,1-0.5c0.3-0.3,0.4-0.8,0.4-1.5c0-0.7-0.1-1.1-0.4-1.5c-0.3-0.3-0.6-0.5-1-0.5
		c-0.4,0-0.8,0.2-1.1,0.5C80.5,295,80.3,295.5,80.3,296.2z"/>
	<path class="st7" d="M86.2,292.4H89v1.2c0.3-0.5,0.5-0.9,0.8-1.1c0.3-0.2,0.6-0.3,1-0.3c0.4,0,0.9,0.1,1.4,0.4l-0.9,2.1
		c-0.3-0.1-0.6-0.2-0.8-0.2c-0.4,0-0.7,0.2-0.9,0.5c-0.3,0.4-0.5,1.3-0.5,2.5v2.5h-2.9V292.4z"/>
	<path class="st7" d="M94.1,294.8l-2.8-0.3c0.1-0.5,0.3-0.9,0.5-1.1s0.5-0.5,0.9-0.7c0.3-0.1,0.6-0.3,1.1-0.3s1-0.1,1.5-0.1
		c0.9,0,1.6,0,2.1,0.1c0.5,0.1,1,0.3,1.3,0.6c0.2,0.2,0.4,0.5,0.6,0.9s0.2,0.8,0.2,1.1v3.4c0,0.4,0,0.6,0.1,0.8
		c0,0.2,0.1,0.5,0.3,0.8h-2.7c-0.1-0.2-0.2-0.3-0.2-0.4c0-0.1-0.1-0.3-0.1-0.5c-0.4,0.4-0.8,0.6-1.1,0.8c-0.5,0.2-1.1,0.3-1.8,0.3
		c-0.9,0-1.6-0.2-2.1-0.6c-0.5-0.4-0.7-0.9-0.7-1.6c0-0.6,0.2-1.1,0.5-1.4c0.3-0.4,1-0.6,1.9-0.8c1.1-0.2,1.8-0.4,2.1-0.5
		c0.3-0.1,0.7-0.2,1-0.3c0-0.4-0.1-0.6-0.2-0.8c-0.1-0.1-0.4-0.2-0.8-0.2c-0.5,0-0.8,0.1-1.1,0.2C94.4,294.3,94.2,294.5,94.1,294.8z
		 M96.6,296.3c-0.4,0.1-0.8,0.3-1.3,0.4c-0.6,0.2-1,0.3-1.1,0.5c-0.2,0.2-0.2,0.3-0.2,0.5c0,0.2,0.1,0.4,0.2,0.6
		c0.2,0.1,0.4,0.2,0.7,0.2c0.3,0,0.6-0.1,0.9-0.2s0.5-0.3,0.6-0.6c0.1-0.2,0.2-0.5,0.2-0.9V296.3z"/>
	<path class="st7" d="M100,289.5h2.9V300H100V289.5z"/>
	<path class="st7" d="M106.1,296.5l3.1-0.2c0.1,0.5,0.2,0.9,0.4,1.1c0.3,0.4,0.8,0.6,1.4,0.6c0.5,0,0.8-0.1,1.1-0.3
		c0.3-0.2,0.4-0.5,0.4-0.8c0-0.3-0.1-0.5-0.4-0.7c-0.2-0.2-0.8-0.4-1.7-0.6c-1.4-0.3-2.4-0.7-3-1.3c-0.6-0.5-0.9-1.2-0.9-2
		c0-0.5,0.2-1,0.5-1.5s0.8-0.9,1.4-1.1c0.6-0.3,1.5-0.4,2.6-0.4c1.3,0,2.4,0.2,3.1,0.7s1.1,1.3,1.3,2.4l-3.1,0.2
		c-0.1-0.5-0.3-0.8-0.5-1s-0.6-0.3-1.1-0.3c-0.4,0-0.7,0.1-0.9,0.2c-0.2,0.2-0.3,0.4-0.3,0.6c0,0.2,0.1,0.3,0.2,0.5
		c0.2,0.1,0.5,0.3,1.1,0.4c1.4,0.3,2.4,0.6,3,0.9c0.6,0.3,1.1,0.7,1.3,1.2s0.4,1,0.4,1.6c0,0.7-0.2,1.3-0.6,1.9
		c-0.4,0.6-0.9,1-1.6,1.3s-1.5,0.4-2.5,0.4c-1.8,0-3-0.3-3.7-1C106.6,298.4,106.2,297.5,106.1,296.5z"/>
	<path class="st7" d="M121.4,297l2.8,0.3c-0.2,0.6-0.4,1.1-0.8,1.5c-0.3,0.4-0.8,0.7-1.3,1s-1.2,0.4-2.1,0.4c-0.8,0-1.5-0.1-2-0.2
		c-0.5-0.1-1-0.4-1.4-0.7c-0.4-0.3-0.7-0.7-0.9-1.2c-0.2-0.5-0.3-1.1-0.3-1.8c0-0.8,0.1-1.4,0.4-2c0.2-0.4,0.5-0.7,0.8-1
		c0.3-0.3,0.7-0.5,1-0.7c0.6-0.2,1.3-0.4,2.2-0.4c1.2,0,2.2,0.2,2.8,0.7c0.7,0.4,1.1,1.1,1.4,1.9l-2.7,0.4c-0.1-0.3-0.2-0.6-0.5-0.7
		c-0.2-0.2-0.5-0.2-0.9-0.2c-0.5,0-0.9,0.2-1.2,0.5c-0.3,0.3-0.4,0.9-0.4,1.6c0,0.6,0.1,1.1,0.4,1.4c0.3,0.3,0.7,0.5,1.1,0.5
		c0.4,0,0.7-0.1,1-0.3C121,297.7,121.2,297.4,121.4,297z"/>
	<path class="st7" d="M123.8,296.2c0-1.2,0.4-2.1,1.2-2.9c0.8-0.8,1.8-1.1,3.2-1.1c1.5,0,2.7,0.4,3.4,1.3c0.6,0.7,0.9,1.6,0.9,2.6
		c0,1.2-0.4,2.1-1.2,2.9c-0.8,0.7-1.8,1.1-3.2,1.1c-1.2,0-2.2-0.3-3-0.9C124.3,298.4,123.8,297.4,123.8,296.2z M126.7,296.2
		c0,0.7,0.1,1.2,0.4,1.5s0.6,0.5,1,0.5c0.4,0,0.8-0.2,1-0.5c0.3-0.3,0.4-0.8,0.4-1.5c0-0.7-0.1-1.1-0.4-1.5c-0.3-0.3-0.6-0.5-1-0.5
		c-0.4,0-0.8,0.2-1.1,0.5C126.9,295,126.7,295.5,126.7,296.2z"/>
	<path class="st7" d="M132.6,292.4h2.7v1.2c0.3-0.5,0.5-0.9,0.8-1.1c0.3-0.2,0.6-0.3,1-0.3c0.4,0,0.9,0.1,1.4,0.4l-0.9,2.1
		c-0.3-0.1-0.6-0.2-0.8-0.2c-0.4,0-0.7,0.2-0.9,0.5c-0.3,0.4-0.5,1.3-0.5,2.5v2.5h-2.9V292.4z"/>
	<path class="st7" d="M146.3,296.9h-5.8c0.1,0.5,0.2,0.8,0.4,1c0.3,0.3,0.6,0.5,1.1,0.5c0.3,0,0.6-0.1,0.8-0.2
		c0.2-0.1,0.3-0.3,0.5-0.5l2.9,0.3c-0.4,0.8-1,1.3-1.6,1.6c-0.6,0.3-1.5,0.5-2.7,0.5c-1,0-1.8-0.1-2.4-0.4s-1.1-0.7-1.4-1.4
		s-0.6-1.3-0.6-2.2c0-1.2,0.4-2.1,1.1-2.9s1.8-1.1,3.1-1.1c1.1,0,1.9,0.2,2.6,0.5c0.6,0.3,1.1,0.8,1.4,1.4c0.3,0.6,0.5,1.4,0.5,2.4
		V296.9z M143.3,295.5c-0.1-0.6-0.2-1-0.5-1.2s-0.6-0.4-1-0.4c-0.5,0-0.8,0.2-1.1,0.6c-0.2,0.2-0.3,0.6-0.3,1H143.3z"/>
</g>
<path class="st5" d="M851,388.6c0-5.5-4.5-10-10-10h-77.7l0,0h-37.6h-15c-5.5,0-10,4.5-10,10v25.1l-86.2,6l86.2,9v0
	c0,5.5,4.5,10,10,10h15h37.6l0,0H841c5.5,0,10-4.5,10-10v0v-15l0,0V388.6L851,388.6z"/>
<path class="st6" d="M851,388.6c0-5.5-4.5-10-10-10h-77.7l0,0h-37.6h-15c-5.5,0-10,4.5-10,10v25.1l-86.2,6l86.2,9v0
	c0,5.5,4.5,10,10,10h15h37.6l0,0H841c5.5,0,10-4.5,10-10v0v-15l0,0V388.6L851,388.6z"/>
<g>
	<path class="st7" d="M728.2,408.5l2.8,0.9c-0.2,0.8-0.5,1.5-0.9,2c-0.4,0.5-0.9,0.9-1.5,1.2c-0.6,0.3-1.4,0.4-2.3,0.4
		c-1.1,0-2.1-0.2-2.8-0.5c-0.7-0.3-1.3-0.9-1.9-1.7c-0.5-0.8-0.8-1.9-0.8-3.2c0-1.7,0.5-3.1,1.4-4c0.9-0.9,2.2-1.4,3.9-1.4
		c1.3,0,2.4,0.3,3.1,0.8c0.8,0.5,1.3,1.4,1.7,2.5l-2.9,0.6c-0.1-0.3-0.2-0.6-0.3-0.7c-0.2-0.2-0.4-0.4-0.7-0.6
		c-0.3-0.1-0.6-0.2-0.9-0.2c-0.7,0-1.3,0.3-1.7,0.9c-0.3,0.4-0.4,1.1-0.4,2.1c0,1.2,0.2,2,0.5,2.4s0.8,0.6,1.5,0.6
		c0.6,0,1.1-0.2,1.4-0.5C727.8,409.6,728,409.1,728.2,408.5z"/>
	<path class="st7" d="M730.8,409c0-1.2,0.4-2.1,1.2-2.9c0.8-0.8,1.8-1.1,3.2-1.1c1.5,0,2.7,0.4,3.4,1.3c0.6,0.7,0.9,1.6,0.9,2.6
		c0,1.2-0.4,2.1-1.2,2.9s-1.8,1.1-3.2,1.1c-1.2,0-2.2-0.3-3-0.9C731.3,411.2,730.8,410.2,730.8,409z M733.8,409
		c0,0.7,0.1,1.2,0.4,1.5c0.3,0.3,0.6,0.5,1,0.5c0.4,0,0.8-0.2,1-0.5c0.3-0.3,0.4-0.8,0.4-1.5c0-0.7-0.1-1.1-0.4-1.5
		c-0.3-0.3-0.6-0.5-1-0.5c-0.4,0-0.8,0.2-1.1,0.5C733.9,407.8,733.8,408.3,733.8,409z"/>
	<path class="st7" d="M739.8,402.3h2.9v10.5h-2.9V402.3z"/>
	<path class="st7" d="M743.4,402.3h2.9v10.5h-2.9V402.3z"/>
	<path class="st7" d="M755.3,409.7h-5.8c0.1,0.5,0.2,0.8,0.4,1c0.3,0.3,0.6,0.5,1.1,0.5c0.3,0,0.6-0.1,0.8-0.2
		c0.2-0.1,0.3-0.3,0.5-0.5l2.9,0.3c-0.4,0.8-1,1.3-1.6,1.6c-0.6,0.3-1.5,0.5-2.7,0.5c-1,0-1.8-0.1-2.4-0.4s-1.1-0.7-1.4-1.4
		c-0.4-0.6-0.6-1.3-0.6-2.2c0-1.2,0.4-2.1,1.1-2.9c0.8-0.7,1.8-1.1,3.1-1.1c1.1,0,1.9,0.2,2.6,0.5c0.6,0.3,1.1,0.8,1.4,1.4
		c0.3,0.6,0.5,1.4,0.5,2.4V409.7z M752.3,408.3c-0.1-0.6-0.2-1-0.5-1.2c-0.2-0.2-0.6-0.4-1-0.4c-0.5,0-0.8,0.2-1.1,0.6
		c-0.2,0.2-0.3,0.6-0.3,1H752.3z"/>
	<path class="st7" d="M760.9,409.8l2.8,0.3c-0.2,0.6-0.4,1.1-0.8,1.5c-0.3,0.4-0.8,0.8-1.3,1s-1.2,0.4-2.1,0.4c-0.8,0-1.5-0.1-2-0.2
		c-0.5-0.1-1-0.4-1.4-0.7c-0.4-0.3-0.7-0.7-0.9-1.2c-0.2-0.5-0.3-1.1-0.3-1.8c0-0.8,0.1-1.4,0.4-2c0.2-0.4,0.5-0.7,0.8-1
		c0.3-0.3,0.7-0.5,1-0.7c0.6-0.2,1.3-0.3,2.2-0.3c1.2,0,2.2,0.2,2.8,0.7c0.7,0.4,1.1,1.1,1.4,1.9l-2.7,0.4c-0.1-0.3-0.2-0.6-0.5-0.7
		c-0.2-0.2-0.5-0.2-0.9-0.2c-0.5,0-0.9,0.2-1.2,0.5c-0.3,0.3-0.4,0.9-0.4,1.6c0,0.6,0.1,1.1,0.4,1.4c0.3,0.3,0.7,0.5,1.1,0.5
		c0.4,0,0.7-0.1,1-0.3S760.8,410.2,760.9,409.8z"/>
	<path class="st7" d="M767.2,402.3v2.9h1.6v2.1h-1.6v2.7c0,0.3,0,0.5,0.1,0.6c0.1,0.2,0.3,0.2,0.5,0.2c0.2,0,0.5-0.1,0.9-0.2l0.2,2
		c-0.7,0.2-1.4,0.2-2,0.2c-0.7,0-1.3-0.1-1.6-0.3c-0.3-0.2-0.6-0.5-0.8-0.8c-0.2-0.4-0.2-1-0.2-1.8v-2.7h-1.1v-2.1h1.1v-1.4
		L767.2,402.3z"/>
	<path class="st7" d="M769.1,402.3h2.9v2h-2.9V402.3z M769.1,405.2h2.9v7.6h-2.9V405.2z"/>
	<path class="st7" d="M772.1,409c0-1.2,0.4-2.1,1.2-2.9c0.8-0.8,1.8-1.1,3.2-1.1c1.5,0,2.7,0.4,3.4,1.3c0.6,0.7,0.9,1.6,0.9,2.6
		c0,1.2-0.4,2.1-1.2,2.9s-1.8,1.1-3.2,1.1c-1.2,0-2.2-0.3-3-0.9C772.6,411.2,772.1,410.2,772.1,409z M775.1,409
		c0,0.7,0.1,1.2,0.4,1.5c0.3,0.3,0.6,0.5,1,0.5c0.4,0,0.8-0.2,1-0.5c0.3-0.3,0.4-0.8,0.4-1.5c0-0.7-0.1-1.1-0.4-1.5
		c-0.3-0.3-0.6-0.5-1-0.5c-0.4,0-0.8,0.2-1.1,0.5C775.2,407.8,775.1,408.3,775.1,409z"/>
	<path class="st7" d="M780.9,405.2h2.7v1.2c0.4-0.5,0.8-0.9,1.2-1.1c0.4-0.2,0.9-0.3,1.5-0.3c0.8,0,1.4,0.2,1.9,0.7
		c0.5,0.5,0.7,1.2,0.7,2.2v4.8H786v-4.2c0-0.5-0.1-0.8-0.3-1c-0.2-0.2-0.4-0.3-0.7-0.3c-0.4,0-0.6,0.1-0.9,0.4
		c-0.2,0.3-0.3,0.7-0.3,1.4v3.6h-2.9V405.2z"/>
	<path class="st7" d="M792.1,409.3l3.1-0.2c0.1,0.5,0.2,0.9,0.4,1.1c0.3,0.4,0.8,0.6,1.4,0.6c0.5,0,0.8-0.1,1.1-0.3
		c0.3-0.2,0.4-0.5,0.4-0.8c0-0.3-0.1-0.5-0.4-0.7c-0.2-0.2-0.8-0.4-1.7-0.6c-1.4-0.3-2.4-0.7-3-1.3c-0.6-0.5-0.9-1.2-0.9-2
		c0-0.5,0.2-1,0.5-1.5c0.3-0.5,0.8-0.9,1.4-1.1s1.5-0.4,2.6-0.4c1.3,0,2.4,0.2,3.1,0.7s1.1,1.3,1.3,2.4l-3.1,0.2
		c-0.1-0.5-0.3-0.8-0.5-1s-0.6-0.3-1.1-0.3c-0.4,0-0.7,0.1-0.9,0.2c-0.2,0.2-0.3,0.4-0.3,0.6c0,0.2,0.1,0.3,0.2,0.5
		c0.2,0.1,0.5,0.3,1.1,0.4c1.4,0.3,2.4,0.6,3,0.9c0.6,0.3,1.1,0.7,1.3,1.2c0.3,0.5,0.4,1,0.4,1.6c0,0.7-0.2,1.3-0.6,1.9
		s-0.9,1-1.6,1.3s-1.5,0.4-2.5,0.4c-1.8,0-3-0.3-3.7-1S792.1,410.4,792.1,409.3z"/>
	<path class="st7" d="M807.3,409.8l2.8,0.3c-0.2,0.6-0.4,1.1-0.8,1.5c-0.3,0.4-0.8,0.8-1.3,1s-1.2,0.4-2.1,0.4c-0.8,0-1.5-0.1-2-0.2
		c-0.5-0.1-1-0.4-1.4-0.7c-0.4-0.3-0.7-0.7-0.9-1.2c-0.2-0.5-0.3-1.1-0.3-1.8c0-0.8,0.1-1.4,0.4-2c0.2-0.4,0.5-0.7,0.8-1
		c0.3-0.3,0.7-0.5,1-0.7c0.6-0.2,1.3-0.3,2.2-0.3c1.2,0,2.2,0.2,2.8,0.7c0.7,0.4,1.1,1.1,1.4,1.9l-2.7,0.4c-0.1-0.3-0.2-0.6-0.5-0.7
		c-0.2-0.2-0.5-0.2-0.9-0.2c-0.5,0-0.9,0.2-1.2,0.5c-0.3,0.3-0.4,0.9-0.4,1.6c0,0.6,0.1,1.1,0.4,1.4c0.3,0.3,0.7,0.5,1.1,0.5
		c0.4,0,0.7-0.1,1-0.3S807.2,410.2,807.3,409.8z"/>
	<path class="st7" d="M809.8,409c0-1.2,0.4-2.1,1.2-2.9c0.8-0.8,1.8-1.1,3.2-1.1c1.5,0,2.7,0.4,3.4,1.3c0.6,0.7,0.9,1.6,0.9,2.6
		c0,1.2-0.4,2.1-1.2,2.9s-1.8,1.1-3.2,1.1c-1.2,0-2.2-0.3-3-0.9C810.2,411.2,809.8,410.2,809.8,409z M812.7,409
		c0,0.7,0.1,1.2,0.4,1.5c0.3,0.3,0.6,0.5,1,0.5c0.4,0,0.8-0.2,1-0.5c0.3-0.3,0.4-0.8,0.4-1.5c0-0.7-0.1-1.1-0.4-1.5
		c-0.3-0.3-0.6-0.5-1-0.5c-0.4,0-0.8,0.2-1.1,0.5C812.8,407.8,812.7,408.3,812.7,409z"/>
	<path class="st7" d="M818.6,405.2h2.7v1.2c0.3-0.5,0.5-0.9,0.8-1.1c0.3-0.2,0.6-0.3,1-0.3c0.4,0,0.9,0.1,1.4,0.4l-0.9,2.1
		c-0.3-0.1-0.6-0.2-0.8-0.2c-0.4,0-0.7,0.2-0.9,0.5c-0.3,0.4-0.5,1.3-0.5,2.5v2.5h-2.9V405.2z"/>
	<path class="st7" d="M832.3,409.7h-5.8c0.1,0.5,0.2,0.8,0.4,1c0.3,0.3,0.6,0.5,1.1,0.5c0.3,0,0.6-0.1,0.8-0.2
		c0.2-0.1,0.3-0.3,0.5-0.5l2.9,0.3c-0.4,0.8-1,1.3-1.6,1.6c-0.6,0.3-1.5,0.5-2.7,0.5c-1,0-1.8-0.1-2.4-0.4s-1.1-0.7-1.4-1.4
		c-0.4-0.6-0.6-1.3-0.6-2.2c0-1.2,0.4-2.1,1.1-2.9c0.8-0.7,1.8-1.1,3.1-1.1c1.1,0,1.9,0.2,2.6,0.5c0.6,0.3,1.1,0.8,1.4,1.4
		c0.3,0.6,0.5,1.4,0.5,2.4V409.7z M829.3,408.3c-0.1-0.6-0.2-1-0.5-1.2c-0.2-0.2-0.6-0.4-1-0.4c-0.5,0-0.8,0.2-1.1,0.6
		c-0.2,0.2-0.3,0.6-0.3,1H829.3z"/>
</g>
<polygon class="st11" points="256.9,307 324.6,280.7 392.2,307 324.6,333.3 256.9,307 "/>
<polygon class="st12" points="256.9,307 324.6,280.7 392.2,307 324.6,333.3 256.9,307 "/>
<g>
	<path class="st13" d="M295.4,301.2h4.3c0.9,0,1.5,0.1,2.1,0.3c0.5,0.2,1,0.6,1.3,1c0.3,0.4,0.6,0.9,0.7,1.5s0.2,1.2,0.2,1.8
		c0,1-0.1,1.8-0.3,2.4c-0.2,0.6-0.5,1-1,1.4c-0.4,0.4-0.8,0.6-1.3,0.8c-0.6,0.2-1.2,0.3-1.7,0.3h-4.3V301.2z M298.3,303.4v5.2h0.7
		c0.6,0,1-0.1,1.3-0.2c0.3-0.1,0.5-0.4,0.6-0.7c0.1-0.3,0.2-0.9,0.2-1.6c0-1-0.2-1.7-0.5-2.1c-0.3-0.4-0.9-0.6-1.6-0.6H298.3z"/>
</g>
<g>
	<path class="st13" d="M313.2,307.9h-5.3c0,0.4,0.2,0.7,0.3,0.9c0.3,0.3,0.6,0.4,1,0.4c0.3,0,0.5-0.1,0.7-0.2
		c0.1-0.1,0.3-0.2,0.5-0.4l2.6,0.2c-0.4,0.7-0.9,1.2-1.4,1.5s-1.4,0.4-2.4,0.4c-0.9,0-1.6-0.1-2.1-0.4c-0.5-0.3-1-0.7-1.3-1.2
		s-0.5-1.2-0.5-2c0-1.1,0.3-1.9,1-2.6s1.6-1,2.8-1c1,0,1.8,0.1,2.3,0.4c0.6,0.3,1,0.7,1.3,1.3c0.3,0.6,0.4,1.3,0.4,2.2V307.9z
		 M310.5,306.7c-0.1-0.5-0.2-0.9-0.4-1.1c-0.2-0.2-0.5-0.3-0.9-0.3c-0.4,0-0.8,0.2-1,0.5c-0.2,0.2-0.3,0.5-0.3,0.9H310.5z"/>
	<path class="st13" d="M317.2,303.8h1.3v1.9h-1.3v4.9h-2.6v-4.9h-1v-1.9h1v-0.3c0-0.3,0-0.6,0.1-0.9c0.1-0.3,0.2-0.6,0.3-0.8
		s0.4-0.4,0.7-0.5c0.3-0.1,0.7-0.2,1.3-0.2c0.5,0,1.1,0.1,2,0.2l-0.3,1.6c-0.3-0.1-0.6-0.1-0.8-0.1c-0.2,0-0.4,0-0.5,0.1
		c-0.1,0.1-0.2,0.2-0.2,0.4C317.3,303.3,317.2,303.5,317.2,303.8z"/>
	<path class="st13" d="M321.8,306.1l-2.5-0.3c0.1-0.4,0.2-0.8,0.4-1c0.2-0.3,0.4-0.5,0.8-0.7c0.2-0.1,0.6-0.2,1-0.3s0.9-0.1,1.4-0.1
		c0.8,0,1.4,0,1.9,0.1c0.5,0.1,0.9,0.3,1.2,0.6c0.2,0.2,0.4,0.5,0.5,0.8c0.1,0.4,0.2,0.7,0.2,1v3c0,0.3,0,0.6,0.1,0.8
		c0,0.2,0.1,0.4,0.3,0.7h-2.5c-0.1-0.2-0.2-0.3-0.2-0.4c0-0.1-0.1-0.2-0.1-0.4c-0.3,0.3-0.7,0.6-1,0.7c-0.5,0.2-1,0.3-1.6,0.3
		c-0.8,0-1.4-0.2-1.9-0.6c-0.4-0.4-0.6-0.8-0.6-1.4c0-0.5,0.2-0.9,0.5-1.3c0.3-0.3,0.9-0.6,1.7-0.7c1-0.2,1.6-0.3,1.9-0.4
		c0.3-0.1,0.6-0.2,0.9-0.3c0-0.3-0.1-0.5-0.2-0.7c-0.1-0.1-0.4-0.2-0.7-0.2c-0.4,0-0.8,0.1-1,0.2
		C322.1,305.6,321.9,305.8,321.8,306.1z M324.1,307.4c-0.4,0.1-0.7,0.2-1.1,0.3c-0.5,0.1-0.9,0.3-1,0.4c-0.1,0.1-0.2,0.3-0.2,0.5
		c0,0.2,0.1,0.4,0.2,0.5c0.1,0.1,0.4,0.2,0.6,0.2c0.3,0,0.6-0.1,0.8-0.2c0.3-0.1,0.4-0.3,0.5-0.5c0.1-0.2,0.2-0.5,0.2-0.8V307.4z"/>
	<path class="st13" d="M335.4,310.7h-2.5v-1.1c-0.4,0.5-0.7,0.8-1.1,1c-0.4,0.2-0.8,0.3-1.4,0.3c-0.7,0-1.3-0.2-1.7-0.6
		c-0.4-0.4-0.6-1.1-0.6-2v-4.4h2.6v3.8c0,0.4,0.1,0.7,0.2,0.9s0.4,0.3,0.7,0.3c0.3,0,0.6-0.1,0.8-0.4c0.2-0.2,0.3-0.7,0.3-1.3v-3.3
		h2.6V310.7z"/>
	<path class="st13" d="M337,301.2h2.6v9.5H337V301.2z"/>
	<path class="st13" d="M344.6,301.2v2.6h1.4v1.9h-1.4v2.4c0,0.3,0,0.5,0.1,0.6c0.1,0.1,0.2,0.2,0.5,0.2c0.2,0,0.5-0.1,0.8-0.2
		l0.2,1.8c-0.6,0.1-1.3,0.2-1.8,0.2c-0.7,0-1.1-0.1-1.4-0.3c-0.3-0.2-0.5-0.4-0.7-0.8c-0.1-0.3-0.2-0.9-0.2-1.7v-2.4h-1v-1.9h1v-1.3
		L344.6,301.2z"/>
	<path class="st13" d="M351.5,307.7h-2.5v-0.2c0-0.4,0-0.8,0.1-1c0.1-0.3,0.2-0.5,0.4-0.7c0.2-0.2,0.6-0.6,1.3-1.1
		c0.3-0.3,0.5-0.5,0.5-0.8s-0.1-0.4-0.2-0.6s-0.4-0.2-0.6-0.2c-0.3,0-0.6,0.1-0.8,0.3c-0.2,0.2-0.3,0.6-0.4,1.1l-2.5-0.3
		c0.1-0.9,0.4-1.7,1-2.2c0.6-0.6,1.5-0.8,2.7-0.8c0.9,0,1.7,0.2,2.3,0.6c0.8,0.5,1.2,1.2,1.2,2.1c0,0.4-0.1,0.7-0.3,1.1
		c-0.2,0.3-0.6,0.8-1.2,1.2c-0.4,0.3-0.7,0.6-0.8,0.8C351.6,307.1,351.5,307.4,351.5,307.7z M349,308.4h2.6v2.3H349V308.4z"/>
</g>
<g>
</g>
<g>
</g>
<g>
</g>
<g>
</g>
<g>
</g>
<g>
</g>
</svg>
