<?xml version="1.0" encoding="utf-8"?>
<!-- Generator: Adobe Illustrator 21.0.2, SVG Export Plug-In . SVG Version: 6.00 Build 0)  -->
<svg version="1.1" xmlns="http://www.w3.org/2000/svg" xmlns:xlink="http://www.w3.org/1999/xlink" x="0px" y="0px" viewBox="0 0 793 253" style="enable-background:new 0 0 793 253;" xml:space="preserve">
<style type="text/css">
	.st0{fill:#31859C;}
	.st1{fill:none;stroke:#4BACC6;stroke-width:5;stroke-miterlimit:10;}
	.st2{fill:#4BACC6;}
	.st3{fill:#B5B5B5;}
	.st4{fill:#FFFFFF;}
	.st5{fill:#595959;}
	.st6{display:none;fill:#4BACC6;}
	.st7{fill-rule:evenodd;clip-rule:evenodd;fill:#BFBFBF;stroke:#4F81BD;stroke-linejoin:round;stroke-miterlimit:10;}
	.st8{fill:none;stroke:#4F81BD;stroke-linejoin:round;stroke-miterlimit:10;}
</style>
<g id="レイヤー_1">
	<g>
		<polygon class="st0" points="109.125,122.911 94.699,115.808 94.646,129.906 		"/>
		<rect x="73.373" y="120.409" transform="matrix(1 0.0037 -0.0037 1 0.458 -0.3191)" class="st0" width="25.085" height="4.833"/>
	</g>
	<path class="st1" d="M444.277,197.184c-0.025,0.014-0.051,0.029-0.076,0.043c-6.167,3.514-13.303,5.522-20.909,5.522
		c-23.357,0-42.292-18.935-42.292-42.292c0-11.657,4.716-22.213,12.345-29.863"/>
	<path class="st1" d="M399.936,125.196c6.692-4.442,14.722-7.029,23.356-7.029c23.357,0,42.292,18.935,42.292,42.292
		c0,9.189-2.931,17.694-7.909,24.631"/>
	<path class="st1" d="M568.944,197.184c-0.025,0.014-0.051,0.029-0.076,0.043c-6.167,3.514-13.303,5.522-20.909,5.522
		c-23.357,0-42.292-18.935-42.292-42.292c0-11.657,4.716-22.213,12.345-29.863"/>
	<polygon class="st2" points="522.996,123.341 508.546,130.397 519.659,139.071 	"/>
	<g>
		<path class="st3" d="M246.346,122.681L246.346,122.681c0-13.869-11.237-25.09-25.104-25.09c-13.854,0-25.09,11.221-25.09,25.09
			c0,13.854,11.236,25.104,25.09,25.104C235.109,147.785,246.346,136.535,246.346,122.681z"/>
		<path class="st4" d="M207.52,118.049L207.52,118.049v-3.75c0.956,0.97,3.441,1.69,6.706,1.705
			c-0.382,0.249-0.618,0.602-0.632,0.794v3.413C210.196,120.093,207.52,119.166,207.52,118.049z M214.476,115.253L214.476,115.253
			c3.486,0,6.309-0.719,6.309-1.602c0-0.884-2.823-1.604-6.309-1.604c-3.485,0-6.309,0.719-6.309,1.604
			C208.167,114.534,210.991,115.253,214.476,115.253z M228.007,115.253L228.007,115.253c3.485,0,6.308-0.719,6.308-1.602
			c0-0.884-2.823-1.604-6.308-1.604c-3.485,0-6.31,0.719-6.31,1.604C221.697,114.534,224.521,115.253,228.007,115.253z
			 M213.594,125.21L213.594,125.21v-4.221c-2.941-0.102-5.177-0.794-6.074-1.705v3.764
			C207.52,124.167,210.196,125.078,213.594,125.21z M228.256,116.004L228.256,116.004c0.398,0.249,0.618,0.602,0.633,0.794v3.413
			c3.397-0.118,6.073-1.045,6.073-2.162v-3.75C234.007,115.269,231.522,115.988,228.256,116.004z M228.889,125.21L228.889,125.21
			c3.397-0.131,6.073-1.043,6.073-2.162v-3.764c-0.896,0.912-3.117,1.604-6.073,1.705V125.21z M228.889,130.196L228.889,130.196
			c3.397-0.118,6.073-1.044,6.073-2.161v-3.75c-0.896,0.896-3.117,1.602-6.073,1.705V130.196z M213.594,125.99L213.594,125.99
			c-2.941-0.104-5.177-0.81-6.074-1.706v3.75c0,1.117,2.677,2.044,6.074,2.161V125.99z M221.242,129.49L221.242,129.49
			c-3.338,0-5.883-0.735-6.869-1.72v3.75c0,1.206,3.119,2.177,6.869,2.177c3.75,0,6.867-0.971,6.867-2.177v-3.75
			C227.521,128.755,224.58,129.49,221.242,129.49z M228.109,122.769L228.109,122.769v3.764c0,1.192-3.117,2.178-6.867,2.178
			s-6.869-0.986-6.869-2.178v-3.764c0.985,0.986,3.53,1.721,6.869,1.721C224.58,124.49,227.521,123.755,228.109,122.769z
			 M228.109,117.784L228.109,117.784v3.75c0,1.206-3.117,2.176-6.867,2.176s-6.869-0.97-6.869-2.176v-3.75
			c0.985,0.984,3.53,1.719,6.869,1.719C224.58,119.503,227.521,118.768,228.109,117.784z M221.242,118.725L221.242,118.725
			c-3.485,0-6.31-0.706-6.31-1.588c0-0.884,2.824-1.604,6.31-1.604c3.485,0,6.308,0.719,6.308,1.604
			C227.55,118.019,224.727,118.725,221.242,118.725z"/>
	</g>
	<g>
		<path class="st3" d="M159.657,122.681L159.657,122.681c0-13.869-11.237-25.09-25.104-25.09c-13.854,0-25.09,11.221-25.09,25.09
			c0,13.854,11.236,25.104,25.09,25.104C148.42,147.785,159.657,136.535,159.657,122.681z"/>
		<path class="st4" d="M134.302,131.284L134.302,131.284l-3.47,3.5c-0.133,0.147-0.294,0.265-0.486,0.338c0,0-0.014,0-0.014,0.015
			c-0.029,0.015-0.074,0.015-0.104,0.029c-0.014,0-0.029,0.015-0.043,0.015c-0.029,0-0.059,0.015-0.088,0.015
			c-0.016,0.015-0.045,0.015-0.059,0.015c-0.029,0-0.045,0.015-0.074,0.015c-0.043,0-0.088,0-0.131,0l0,0h-0.016
			c-0.043,0-0.088,0-0.131,0c-0.016,0-0.045-0.015-0.074-0.015c-0.014,0-0.029,0-0.059-0.015c-0.029,0-0.059-0.015-0.088-0.015
			c-0.016,0-0.029-0.015-0.029-0.015c-0.045-0.015-0.074-0.015-0.118-0.029c0-0.015-0.016-0.015-0.016-0.015
			c-0.19-0.074-0.367-0.191-0.499-0.338l-3.471-3.5c-0.544-0.529-0.574-1.412-0.029-1.956c0.544-0.544,1.368-0.544,1.912,0
			l1.059,1.162v-9.25c0-0.765,0.618-1.384,1.383-1.384c0.765,0,1.366,0.619,1.366,1.384v9.25l1.251-1.162
			c0.529-0.544,1.486-0.544,2.029,0C134.847,129.872,134.847,130.755,134.302,131.284z M143.847,117.049L143.847,117.049
			c0-0.016,0.075-0.029,0.075-0.045c0-3.795-3.044-6.867-6.84-6.867c-2.456,0-4.603,1.294-5.824,3.235
			c-0.602-0.339-1.294-0.529-2.029-0.529c-2.309,0-4.162,1.853-4.162,4.162c0,0.029-0.059,0.074-0.059,0.104
			c-2.147,0.631-3.794,2.617-3.794,4.969v0.088c0,2.854,2.456,5.222,5.324,5.222h0.559v-6.148c0-1.413,1.147-2.56,2.56-2.56
			c1.411,0,2.543,1.147,2.543,2.56v6.148h4.311v-2.986c-0.384,0.118-0.502,0.176-0.839,0.176c-0.676,0-1.28-0.265-1.764-0.751
			c-0.986-1-0.957-2.633,0.029-3.633l3.47-3.47c0.251-0.267,0.574-0.486,0.912-0.619c0.016-0.014,0.029-0.014,0.059-0.029
			c0.059-0.014,0.118-0.043,0.176-0.059c0.016,0,0.045-0.014,0.074-0.014c0.059-0.016,0.118-0.029,0.161-0.045
			c0.029,0,0.074-0.014,0.104-0.014c0.059-0.016,0.102-0.016,0.147-0.016c0.073-0.014,0.147-0.014,0.22-0.014
			c0.016,0,0.059,0,0.059,0c0.074,0,0.163,0,0.237,0.014c0.029,0,0.073,0,0.118,0.016c0.043,0,0.088,0.014,0.118,0.014
			c0.043,0.016,0.102,0.029,0.161,0.045c0.029,0,0.045,0.014,0.074,0.014c0.073,0.029,0.131,0.045,0.19,0.074
			c0.016,0,0.016,0,0.029,0.014c0.353,0.133,0.663,0.353,0.912,0.619l3.456,3.47c0.986,1,0.986,2.633-0.014,3.633
			c-0.486,0.486-1.235,0.751-1.927,0.751c-0.323,0-0.868-0.059-1.059-0.176v2.986h1.161c2.868,0,4.913-2.368,4.913-5.222v-0.088
			C147.685,119.637,146.127,117.592,143.847,117.049z M143.774,121.034L143.774,121.034l-3.472-3.485
			c-0.131-0.147-0.308-0.265-0.5-0.353c0,0,0,0-0.014,0c-0.029-0.016-0.074-0.029-0.104-0.045c-0.014,0-0.029,0-0.029,0
			c-0.029-0.014-0.073-0.014-0.102-0.029c-0.016,0-0.031,0-0.061,0c-0.014-0.014-0.043-0.014-0.073-0.014
			c-0.045-0.016-0.088-0.016-0.133-0.016l0,0c-0.043,0-0.088,0-0.131,0.016c-0.029,0-0.059,0-0.074,0.014c-0.029,0-0.043,0-0.059,0
			c-0.029,0.016-0.073,0.016-0.102,0.029c0,0-0.016,0-0.029,0c-0.029,0.016-0.074,0.029-0.104,0.045c-0.014,0-0.014,0-0.014,0
			c-0.192,0.088-0.369,0.206-0.5,0.353l-3.472,3.485c-0.529,0.543-0.543,1.425,0,1.954c0.545,0.545,1.31,0.545,1.854,0l1.029-1.147
			v9.251c0,0.765,0.618,1.382,1.382,1.382c0.765,0,1.368-0.618,1.368-1.382v-9.251l1.264,1.147c0.543,0.545,1.47,0.545,2,0
			C144.245,122.459,144.304,121.577,143.774,121.034z"/>
	</g>
	<g>
		<path class="st3" d="M772.841,122.681L772.841,122.681c0-13.869-11.237-25.09-25.104-25.09c-13.854,0-25.09,11.221-25.09,25.09
			c0,13.854,11.236,25.104,25.09,25.104C761.604,147.785,772.841,136.535,772.841,122.681z"/>
		<path class="st4" d="M760.281,132.284L760.281,132.284c0,0.544-0.425,0.985-0.97,0.985h-23.149c-0.529,0-0.971-0.441-0.971-0.985
			c0-0.544,0.441-0.971,0.971-0.971l23.149,0C759.855,131.314,760.281,131.74,760.281,132.284z M743.03,127.388L743.03,127.388
			c0,1.293-1.044,2.352-2.353,2.352c-1.294,0-2.353-1.059-2.353-2.352v-7.059c0-1.309,1.059-2.354,2.353-2.354
			c1.309,0,2.353,1.045,2.353,2.354V127.388z M747.737,112.091L747.737,112.091c-1.294,0-2.354,1.045-2.354,2.354v12.942
			c0,1.293,1.061,2.352,2.354,2.352c1.308,0,2.352-1.059,2.352-2.352v-12.942C750.089,113.136,749.044,112.091,747.737,112.091z
			 M754.796,108.165L754.796,108.165c-1.294,0-2.354,1.059-2.354,2.354v16.869c0,1.293,1.061,2.352,2.354,2.352
			c1.31,0,2.352-1.059,2.352-2.352v-16.869C757.148,109.223,756.105,108.165,754.796,108.165z"/>
	</g>
	<g>
		<path class="st3" d="M86.489,61.623L86.489,61.623c0-13.869-11.237-25.09-25.104-25.09c-13.854,0-25.09,11.221-25.09,25.09
			c0,13.854,11.236,25.104,25.09,25.104C75.252,86.727,86.489,75.477,86.489,61.623z"/>
		<path class="st4" d="M71.194,65.697L71.194,65.697v5.368c0,1.706-4.442,3.103-9.81,3.103c-5.354,0-9.81-1.397-9.81-3.103v-5.368
			c1.044,1.398,5.044,2.456,9.81,2.456C66.148,68.153,70.149,67.094,71.194,65.697z M61.385,61.313L61.385,61.313
			c-4.766,0-8.766-1.059-9.81-2.47v5.367c0,1.721,4.456,3.118,9.81,3.118c5.367,0,9.81-1.397,9.81-3.118v-5.367
			C70.149,60.255,66.148,61.313,61.385,61.313z M61.385,54.46L61.385,54.46c-4.766,0-8.766-1.043-9.81-2.456v5.369
			c0,1.721,4.456,3.103,9.81,3.103c5.367,0,9.81-1.382,9.81-3.103v-5.369C70.149,53.417,66.148,54.46,61.385,54.46z M70.4,51.357
			L70.4,51.357c0-1.264-4.03-2.278-9.016-2.278c-4.985,0-9.016,1.013-9.016,2.278c0,1.251,4.031,2.28,9.016,2.28
			C66.37,53.637,70.4,52.608,70.4,51.357z"/>
	</g>
	<g>
		<path class="st3" d="M86.489,102.217L86.489,102.217c0-13.869-11.237-25.09-25.104-25.09c-13.854,0-25.09,11.221-25.09,25.09
			c0,13.854,11.236,25.104,25.09,25.104C75.252,127.321,86.489,116.071,86.489,102.217z"/>
		<path class="st4" d="M71.194,106.291L71.194,106.291v5.368c0,1.706-4.442,3.103-9.81,3.103c-5.354,0-9.81-1.397-9.81-3.103v-5.368
			c1.044,1.398,5.044,2.456,9.81,2.456C66.148,108.747,70.149,107.688,71.194,106.291z M61.385,101.907L61.385,101.907
			c-4.766,0-8.766-1.059-9.81-2.47v5.367c0,1.721,4.456,3.118,9.81,3.118c5.367,0,9.81-1.397,9.81-3.118v-5.367
			C70.149,100.849,66.148,101.907,61.385,101.907z M61.385,95.054L61.385,95.054c-4.766,0-8.766-1.043-9.81-2.456v5.369
			c0,1.721,4.456,3.103,9.81,3.103c5.367,0,9.81-1.382,9.81-3.103v-5.369C70.149,94.011,66.148,95.054,61.385,95.054z M70.4,91.951
			L70.4,91.951c0-1.264-4.03-2.278-9.016-2.278c-4.985,0-9.016,1.013-9.016,2.278c0,1.251,4.031,2.28,9.016,2.28
			C66.37,94.231,70.4,93.201,70.4,91.951z"/>
	</g>
	<g>
		<path class="st3" d="M86.489,142.811L86.489,142.811c0-13.869-11.237-25.09-25.104-25.09c-13.854,0-25.09,11.221-25.09,25.09
			c0,13.854,11.236,25.104,25.09,25.104C75.252,167.915,86.489,156.665,86.489,142.811z"/>
		<path class="st4" d="M71.194,146.885L71.194,146.885v5.368c0,1.706-4.442,3.103-9.81,3.103c-5.354,0-9.81-1.397-9.81-3.103v-5.368
			c1.044,1.398,5.044,2.456,9.81,2.456C66.148,149.341,70.149,148.282,71.194,146.885z M61.385,142.501L61.385,142.501
			c-4.766,0-8.766-1.059-9.81-2.47v5.367c0,1.721,4.456,3.118,9.81,3.118c5.367,0,9.81-1.397,9.81-3.118v-5.367
			C70.149,141.443,66.148,142.501,61.385,142.501z M61.385,135.648L61.385,135.648c-4.766,0-8.766-1.043-9.81-2.456v5.369
			c0,1.721,4.456,3.103,9.81,3.103c5.367,0,9.81-1.382,9.81-3.103v-5.369C70.149,134.605,66.148,135.648,61.385,135.648z
			 M70.4,132.545L70.4,132.545c0-1.264-4.03-2.278-9.016-2.278c-4.985,0-9.016,1.013-9.016,2.278c0,1.251,4.031,2.28,9.016,2.28
			C66.37,134.825,70.4,133.795,70.4,132.545z"/>
	</g>
	<g>
		<path class="st3" d="M86.489,183.405L86.489,183.405c0-13.869-11.237-25.09-25.104-25.09c-13.854,0-25.09,11.221-25.09,25.09
			c0,13.854,11.236,25.104,25.09,25.104C75.252,208.509,86.489,197.259,86.489,183.405z"/>
		<path class="st4" d="M71.194,187.478L71.194,187.478v5.368c0,1.706-4.442,3.103-9.81,3.103c-5.354,0-9.81-1.397-9.81-3.103v-5.368
			c1.044,1.398,5.044,2.456,9.81,2.456C66.148,189.935,70.149,188.876,71.194,187.478z M61.385,183.095L61.385,183.095
			c-4.766,0-8.766-1.059-9.81-2.47v5.367c0,1.721,4.456,3.118,9.81,3.118c5.367,0,9.81-1.397,9.81-3.118v-5.367
			C70.149,182.037,66.148,183.095,61.385,183.095z M61.385,176.242L61.385,176.242c-4.766,0-8.766-1.043-9.81-2.456v5.369
			c0,1.721,4.456,3.103,9.81,3.103c5.367,0,9.81-1.382,9.81-3.103v-5.369C70.149,175.199,66.148,176.242,61.385,176.242z
			 M70.4,173.139L70.4,173.139c0-1.264-4.03-2.278-9.016-2.278c-4.985,0-9.016,1.013-9.016,2.278c0,1.251,4.031,2.28,9.016,2.28
			C66.37,175.418,70.4,174.389,70.4,173.139z"/>
	</g>
	<g>
		<path class="st5" d="M718.808,77.349h2.882v9.306h-2.882V77.349z"/>
		<path class="st5" d="M722.536,77.349h2.686l3.504,5.148v-5.148h2.711v9.306h-2.711l-3.484-5.109v5.109h-2.705V77.349z"/>
		<path class="st5" d="M731.195,83.576l2.735-0.171c0.06,0.444,0.18,0.783,0.362,1.016c0.296,0.376,0.719,0.565,1.27,0.565
			c0.41,0,0.727-0.096,0.948-0.289c0.223-0.193,0.333-0.416,0.333-0.67c0-0.241-0.105-0.457-0.316-0.647
			c-0.212-0.19-0.703-0.37-1.473-0.54c-1.262-0.284-2.161-0.66-2.698-1.13c-0.542-0.47-0.813-1.068-0.813-1.796
			c0-0.478,0.139-0.93,0.416-1.355c0.277-0.425,0.693-0.759,1.25-1.003c0.557-0.243,1.319-0.365,2.288-0.365
			c1.189,0,2.097,0.221,2.721,0.664c0.624,0.442,0.995,1.146,1.113,2.11l-2.71,0.159c-0.072-0.419-0.224-0.724-0.454-0.914
			s-0.549-0.286-0.955-0.286c-0.334,0-0.586,0.071-0.756,0.213c-0.169,0.142-0.254,0.314-0.254,0.517c0,0.148,0.07,0.281,0.21,0.4
			c0.136,0.123,0.457,0.237,0.965,0.343c1.257,0.271,2.157,0.545,2.701,0.822c0.544,0.277,0.939,0.621,1.187,1.031
			c0.248,0.411,0.371,0.87,0.371,1.377c0,0.597-0.164,1.147-0.494,1.65s-0.792,0.885-1.385,1.146c-0.592,0.26-1.339,0.39-2.24,0.39
			c-1.583,0-2.679-0.305-3.288-0.914S731.275,84.515,731.195,83.576z"/>
		<path class="st5" d="M739.456,77.349h2.882v9.306h-2.882V77.349z"/>
		<path class="st5" d="M747.844,83.284v-1.936h4.443v3.967c-0.852,0.58-1.604,0.974-2.257,1.184
			c-0.654,0.209-1.43,0.314-2.327,0.314c-1.104,0-2.004-0.188-2.7-0.565s-1.236-0.938-1.619-1.682s-0.574-1.6-0.574-2.564
			c0-1.016,0.21-1.899,0.628-2.65c0.42-0.751,1.033-1.322,1.842-1.711c0.63-0.3,1.479-0.451,2.545-0.451
			c1.028,0,1.798,0.093,2.308,0.279s0.933,0.475,1.27,0.867c0.336,0.391,0.589,0.887,0.759,1.488l-2.774,0.495
			c-0.114-0.351-0.308-0.62-0.581-0.806c-0.272-0.186-0.621-0.279-1.044-0.279c-0.631,0-1.133,0.219-1.508,0.657
			c-0.374,0.438-0.562,1.131-0.562,2.079c0,1.007,0.189,1.727,0.568,2.158s0.906,0.647,1.584,0.647c0.321,0,0.628-0.046,0.92-0.14
			s0.626-0.252,1.003-0.476v-0.876H747.844z"/>
		<path class="st5" d="M752.356,77.349h2.875v3.256h3.143v-3.256h2.889v9.306h-2.889V82.89h-3.143v3.764h-2.875V77.349z"/>
		<path class="st5" d="M760.868,77.349h8.74v2.298h-2.933v7.008H763.8v-7.008h-2.932V77.349z"/>
		<path class="st5" d="M768.667,83.576l2.735-0.171c0.06,0.444,0.18,0.783,0.362,1.016c0.296,0.376,0.719,0.565,1.27,0.565
			c0.41,0,0.727-0.096,0.948-0.289c0.223-0.193,0.333-0.416,0.333-0.67c0-0.241-0.105-0.457-0.316-0.647
			c-0.212-0.19-0.703-0.37-1.473-0.54c-1.262-0.284-2.161-0.66-2.698-1.13c-0.542-0.47-0.813-1.068-0.813-1.796
			c0-0.478,0.139-0.93,0.416-1.355c0.277-0.425,0.693-0.759,1.25-1.003c0.557-0.243,1.319-0.365,2.288-0.365
			c1.189,0,2.097,0.221,2.721,0.664c0.624,0.442,0.995,1.146,1.113,2.11l-2.71,0.159c-0.072-0.419-0.224-0.724-0.454-0.914
			s-0.549-0.286-0.955-0.286c-0.334,0-0.586,0.071-0.756,0.213c-0.169,0.142-0.254,0.314-0.254,0.517c0,0.148,0.07,0.281,0.21,0.4
			c0.136,0.123,0.457,0.237,0.965,0.343c1.257,0.271,2.157,0.545,2.701,0.822c0.544,0.277,0.939,0.621,1.187,1.031
			c0.248,0.411,0.371,0.87,0.371,1.377c0,0.597-0.164,1.147-0.494,1.65s-0.792,0.885-1.385,1.146c-0.592,0.26-1.339,0.39-2.24,0.39
			c-1.583,0-2.679-0.305-3.288-0.914S768.747,84.515,768.667,83.576z"/>
	</g>
	<g>
		<path class="st5" d="M15.815,16.954h4.272c0.842,0,1.522,0.114,2.041,0.343c0.519,0.229,0.947,0.557,1.286,0.984
			s0.584,0.925,0.736,1.492s0.229,1.168,0.229,1.803c0,0.995-0.113,1.766-0.339,2.313c-0.227,0.548-0.541,1.007-0.943,1.378
			c-0.402,0.37-0.833,0.617-1.295,0.739c-0.63,0.169-1.202,0.254-1.714,0.254h-4.272V16.954z M18.69,19.061v5.084h0.705
			c0.601,0,1.028-0.067,1.282-0.2c0.254-0.134,0.453-0.366,0.597-0.698c0.144-0.333,0.216-0.871,0.216-1.616
			c0-0.986-0.161-1.661-0.482-2.025s-0.855-0.546-1.6-0.546H18.69z"/>
		<path class="st5" d="M29.14,24.723h-3.265l-0.454,1.536h-2.936l3.498-9.306h3.137l3.497,9.306h-3.011L29.14,24.723z
			 M28.543,22.711l-1.027-3.345L26.5,22.711H28.543z"/>
		<path class="st5" d="M30.407,16.954h8.741v2.298h-2.933v7.008h-2.875v-7.008h-2.933V16.954z"/>
		<path class="st5" d="M43.648,24.723h-3.265l-0.454,1.536h-2.936l3.498-9.306h3.137l3.497,9.306h-3.011L43.648,24.723z
			 M43.051,22.711l-1.027-3.345l-1.017,3.345H43.051z"/>
		<path class="st5" d="M48.128,23.181l2.736-0.171c0.059,0.444,0.18,0.783,0.362,1.016c0.296,0.376,0.719,0.565,1.27,0.565
			c0.411,0,0.727-0.096,0.949-0.289c0.223-0.193,0.333-0.416,0.333-0.67c0-0.241-0.106-0.457-0.317-0.647s-0.703-0.37-1.473-0.54
			c-1.261-0.284-2.16-0.66-2.698-1.13c-0.542-0.47-0.813-1.068-0.813-1.796c0-0.478,0.139-0.93,0.416-1.355
			c0.277-0.425,0.694-0.759,1.25-1.003c0.557-0.243,1.319-0.365,2.289-0.365c1.189,0,2.096,0.221,2.72,0.664
			c0.624,0.442,0.995,1.146,1.114,2.11l-2.71,0.159c-0.072-0.419-0.223-0.724-0.454-0.914c-0.23-0.19-0.549-0.286-0.955-0.286
			c-0.334,0-0.586,0.071-0.755,0.213c-0.169,0.142-0.254,0.314-0.254,0.517c0,0.148,0.07,0.281,0.209,0.4
			c0.135,0.123,0.457,0.237,0.965,0.343c1.257,0.271,2.157,0.545,2.701,0.822c0.543,0.277,0.939,0.621,1.187,1.031
			c0.248,0.411,0.372,0.87,0.372,1.377c0,0.597-0.165,1.147-0.495,1.65s-0.792,0.885-1.384,1.146c-0.592,0.26-1.339,0.39-2.241,0.39
			c-1.583,0-2.679-0.305-3.288-0.914S48.209,24.12,48.128,23.181z"/>
		<path class="st5" d="M55.901,21.613c0-1.519,0.423-2.702,1.27-3.548s2.025-1.27,3.536-1.27c1.549,0,2.742,0.416,3.58,1.248
			c0.838,0.831,1.257,1.996,1.257,3.494c0,1.087-0.183,1.979-0.549,2.676c-0.366,0.696-0.896,1.237-1.587,1.625
			c-0.692,0.387-1.554,0.581-2.587,0.581c-1.049,0-1.918-0.167-2.605-0.501c-0.688-0.334-1.246-0.863-1.673-1.587
			S55.901,22.7,55.901,21.613z M58.777,21.625c0,0.939,0.175,1.614,0.523,2.025c0.35,0.411,0.824,0.616,1.425,0.616
			c0.618,0,1.096-0.201,1.435-0.603s0.508-1.124,0.508-2.165c0-0.876-0.177-1.516-0.53-1.92c-0.354-0.404-0.833-0.606-1.438-0.606
			c-0.58,0-1.045,0.205-1.396,0.616S58.777,20.678,58.777,21.625z"/>
		<path class="st5" d="M71.471,16.954h2.869v5.544c0,0.55-0.086,1.069-0.257,1.558c-0.172,0.488-0.44,0.916-0.807,1.281
			c-0.366,0.366-0.75,0.623-1.152,0.771c-0.559,0.208-1.229,0.311-2.012,0.311c-0.453,0-0.947-0.032-1.482-0.095
			c-0.535-0.063-0.982-0.189-1.342-0.377c-0.36-0.188-0.689-0.456-0.987-0.802c-0.299-0.347-0.503-0.704-0.613-1.072
			c-0.178-0.592-0.267-1.116-0.267-1.573v-5.544h2.869v5.676c0,0.507,0.141,0.904,0.422,1.189c0.281,0.286,0.671,0.428,1.171,0.428
			c0.495,0,0.883-0.141,1.165-0.422c0.281-0.281,0.422-0.68,0.422-1.195V16.954z"/>
		<path class="st5" d="M74.605,26.259v-9.306h4.792c0.889,0,1.568,0.076,2.038,0.229s0.849,0.435,1.136,0.848
			c0.288,0.412,0.432,0.915,0.432,1.507c0,0.516-0.11,0.961-0.33,1.336c-0.22,0.374-0.523,0.678-0.908,0.911
			c-0.246,0.148-0.583,0.271-1.01,0.368c0.343,0.114,0.592,0.229,0.749,0.343c0.106,0.076,0.259,0.239,0.46,0.489
			c0.201,0.25,0.335,0.442,0.403,0.578l1.393,2.696H80.51l-1.537-2.844c-0.195-0.368-0.368-0.607-0.521-0.717
			c-0.208-0.144-0.442-0.216-0.705-0.216h-0.254v3.777H74.605z M77.494,20.724h1.212c0.131,0,0.385-0.042,0.762-0.127
			c0.19-0.038,0.346-0.135,0.467-0.292c0.12-0.157,0.181-0.336,0.181-0.54c0-0.3-0.095-0.531-0.286-0.692s-0.548-0.241-1.073-0.241
			h-1.263V20.724z"/>
		<path class="st5" d="M89.171,22.451l2.52,0.762c-0.169,0.707-0.436,1.297-0.8,1.771s-0.816,0.832-1.355,1.073
			c-0.54,0.241-1.227,0.362-2.06,0.362c-1.011,0-1.837-0.147-2.479-0.441c-0.641-0.294-1.194-0.811-1.66-1.551
			s-0.698-1.688-0.698-2.842c0-1.54,0.41-2.723,1.228-3.549c0.819-0.827,1.978-1.24,3.476-1.24c1.172,0,2.094,0.237,2.765,0.711
			c0.67,0.474,1.169,1.202,1.495,2.184l-2.539,0.565c-0.089-0.284-0.182-0.491-0.279-0.622c-0.161-0.22-0.357-0.389-0.59-0.508
			s-0.493-0.178-0.781-0.178c-0.652,0-1.151,0.262-1.498,0.786c-0.262,0.389-0.394,1-0.394,1.832c0,1.032,0.157,1.739,0.47,2.121
			s0.753,0.574,1.32,0.574c0.55,0,0.966-0.154,1.248-0.463C88.84,23.487,89.044,23.039,89.171,22.451z"/>
		<path class="st5" d="M91.378,16.954h7.706v1.987H94.26v1.479h4.475v1.898H94.26v1.834h4.964v2.107h-7.846V16.954z"/>
		<path class="st5" d="M98.517,23.181l2.736-0.171c0.059,0.444,0.18,0.783,0.362,1.016c0.296,0.376,0.719,0.565,1.27,0.565
			c0.411,0,0.727-0.096,0.949-0.289c0.223-0.193,0.333-0.416,0.333-0.67c0-0.241-0.106-0.457-0.317-0.647s-0.703-0.37-1.473-0.54
			c-1.261-0.284-2.16-0.66-2.698-1.13c-0.542-0.47-0.813-1.068-0.813-1.796c0-0.478,0.139-0.93,0.416-1.355
			c0.277-0.425,0.694-0.759,1.25-1.003c0.557-0.243,1.319-0.365,2.289-0.365c1.189,0,2.096,0.221,2.72,0.664
			c0.624,0.442,0.995,1.146,1.114,2.11l-2.71,0.159c-0.072-0.419-0.223-0.724-0.454-0.914c-0.23-0.19-0.549-0.286-0.955-0.286
			c-0.334,0-0.586,0.071-0.755,0.213c-0.169,0.142-0.254,0.314-0.254,0.517c0,0.148,0.07,0.281,0.209,0.4
			c0.135,0.123,0.457,0.237,0.965,0.343c1.257,0.271,2.157,0.545,2.701,0.822c0.543,0.277,0.939,0.621,1.187,1.031
			c0.248,0.411,0.372,0.87,0.372,1.377c0,0.597-0.165,1.147-0.495,1.65s-0.792,0.885-1.384,1.146c-0.592,0.26-1.339,0.39-2.241,0.39
			c-1.583,0-2.679-0.305-3.288-0.914S98.597,24.12,98.517,23.181z"/>
	</g>
	<g>
		<path class="st5" d="M409.38,82.846l2.521,0.762c-0.17,0.707-0.437,1.297-0.801,1.771c-0.363,0.474-0.815,0.832-1.354,1.073
			c-0.54,0.241-1.227,0.362-2.06,0.362c-1.012,0-1.838-0.147-2.479-0.441c-0.641-0.294-1.194-0.811-1.659-1.551
			c-0.466-0.74-0.699-1.688-0.699-2.842c0-1.54,0.41-2.723,1.229-3.549c0.819-0.827,1.978-1.24,3.476-1.24
			c1.172,0,2.094,0.237,2.765,0.711s1.169,1.202,1.494,2.184l-2.539,0.565c-0.088-0.284-0.182-0.491-0.279-0.622
			c-0.16-0.22-0.357-0.389-0.59-0.508s-0.493-0.178-0.781-0.178c-0.651,0-1.15,0.262-1.498,0.786c-0.262,0.389-0.393,1-0.393,1.832
			c0,1.032,0.156,1.739,0.469,2.121c0.313,0.382,0.754,0.574,1.32,0.574c0.551,0,0.967-0.154,1.248-0.463
			S409.253,83.434,409.38,82.846z"/>
		<path class="st5" d="M411.606,77.349h2.876v7.014h4.487v2.292h-7.363V77.349z"/>
		<path class="st5" d="M418.49,77.349h7.707v1.987h-4.824v1.479h4.475v1.898h-4.475v1.834h4.963v2.107h-7.846V77.349z"/>
		<path class="st5" d="M431.863,85.118h-3.265l-0.453,1.536h-2.936l3.497-9.306h3.137l3.497,9.306h-3.012L431.863,85.118z
			 M431.268,83.106l-1.027-3.345l-1.017,3.345H431.268z"/>
		<path class="st5" d="M434.582,77.349h2.686l3.504,5.148v-5.148h2.711v9.306h-2.711l-3.484-5.109v5.109h-2.705V77.349z"/>
	</g>
	<g>
		<path class="st5" d="M509.578,77.349h8.74v2.298h-2.933v7.008h-2.876v-7.008h-2.932V77.349z"/>
		<path class="st5" d="M517.915,86.654v-9.306h4.793c0.889,0,1.567,0.076,2.037,0.229s0.849,0.435,1.137,0.848
			c0.287,0.412,0.432,0.915,0.432,1.507c0,0.516-0.11,0.961-0.331,1.336c-0.22,0.374-0.522,0.678-0.908,0.911
			c-0.245,0.148-0.582,0.271-1.01,0.368c0.343,0.114,0.592,0.229,0.749,0.343c0.105,0.076,0.259,0.239,0.46,0.489
			c0.2,0.25,0.335,0.442,0.402,0.578l1.393,2.696h-3.249l-1.537-2.844c-0.194-0.368-0.368-0.607-0.521-0.717
			c-0.207-0.144-0.442-0.216-0.704-0.216h-0.254v3.777H517.915z M520.804,81.119h1.212c0.131,0,0.385-0.042,0.762-0.127
			c0.19-0.038,0.346-0.135,0.467-0.292c0.12-0.157,0.181-0.336,0.181-0.54c0-0.3-0.096-0.531-0.285-0.692
			c-0.191-0.161-0.549-0.241-1.073-0.241h-1.263V81.119z"/>
		<path class="st5" d="M532.02,85.118h-3.265l-0.453,1.536h-2.936l3.497-9.306H532l3.497,9.306h-3.012L532.02,85.118z
			 M531.424,83.106l-1.027-3.345l-1.017,3.345H531.424z"/>
		<path class="st5" d="M534.738,77.349h2.686l3.504,5.148v-5.148h2.711v9.306h-2.711l-3.484-5.109v5.109h-2.705V77.349z"/>
		<path class="st5" d="M543.396,83.576l2.735-0.171c0.06,0.444,0.18,0.783,0.362,1.016c0.296,0.376,0.719,0.565,1.27,0.565
			c0.41,0,0.727-0.096,0.948-0.289c0.223-0.193,0.333-0.416,0.333-0.67c0-0.241-0.105-0.457-0.316-0.647
			c-0.212-0.19-0.703-0.37-1.473-0.54c-1.262-0.284-2.161-0.66-2.698-1.13c-0.542-0.47-0.813-1.068-0.813-1.796
			c0-0.478,0.139-0.93,0.416-1.355c0.277-0.425,0.693-0.759,1.25-1.003c0.557-0.243,1.319-0.365,2.288-0.365
			c1.189,0,2.097,0.221,2.721,0.664c0.624,0.442,0.995,1.146,1.113,2.11l-2.71,0.159c-0.072-0.419-0.224-0.724-0.454-0.914
			s-0.549-0.286-0.955-0.286c-0.334,0-0.586,0.071-0.756,0.213c-0.169,0.142-0.254,0.314-0.254,0.517c0,0.148,0.07,0.281,0.21,0.4
			c0.136,0.123,0.457,0.237,0.965,0.343c1.257,0.271,2.157,0.545,2.701,0.822c0.544,0.277,0.939,0.621,1.187,1.031
			c0.248,0.411,0.371,0.87,0.371,1.377c0,0.597-0.164,1.147-0.494,1.65s-0.792,0.885-1.385,1.146c-0.592,0.26-1.339,0.39-2.24,0.39
			c-1.583,0-2.679-0.305-3.288-0.914S543.477,84.515,543.396,83.576z"/>
		<path class="st5" d="M551.557,77.349h7.109v2h-4.221v1.625h3.605v1.879h-3.605v3.802h-2.889V77.349z"/>
		<path class="st5" d="M558.071,82.008c0-1.519,0.424-2.702,1.27-3.548c0.847-0.846,2.025-1.27,3.536-1.27
			c1.549,0,2.742,0.416,3.58,1.248c0.838,0.831,1.257,1.996,1.257,3.494c0,1.087-0.183,1.979-0.549,2.676
			c-0.366,0.696-0.896,1.237-1.587,1.625c-0.692,0.387-1.555,0.581-2.587,0.581c-1.05,0-1.918-0.167-2.605-0.501
			s-1.245-0.863-1.673-1.587S558.071,83.095,558.071,82.008z M560.947,82.021c0,0.939,0.175,1.614,0.523,2.025
			c0.35,0.411,0.824,0.616,1.425,0.616c0.618,0,1.097-0.201,1.436-0.603c0.338-0.402,0.508-1.124,0.508-2.165
			c0-0.876-0.177-1.516-0.53-1.92c-0.354-0.404-0.833-0.606-1.438-0.606c-0.579,0-1.045,0.205-1.396,0.616
			C561.123,80.394,560.947,81.073,560.947,82.021z"/>
		<path class="st5" d="M567.649,86.654v-9.306h4.793c0.889,0,1.567,0.076,2.037,0.229s0.849,0.435,1.137,0.848
			c0.287,0.412,0.432,0.915,0.432,1.507c0,0.516-0.11,0.961-0.331,1.336c-0.22,0.374-0.522,0.678-0.908,0.911
			c-0.245,0.148-0.582,0.271-1.01,0.368c0.343,0.114,0.592,0.229,0.749,0.343c0.105,0.076,0.259,0.239,0.46,0.489
			c0.2,0.25,0.335,0.442,0.402,0.578l1.393,2.696h-3.249l-1.537-2.844c-0.194-0.368-0.368-0.607-0.521-0.717
			c-0.207-0.144-0.442-0.216-0.704-0.216h-0.254v3.777H567.649z M570.538,81.119h1.212c0.131,0,0.385-0.042,0.762-0.127
			c0.19-0.038,0.346-0.135,0.467-0.292c0.12-0.157,0.181-0.336,0.181-0.54c0-0.3-0.096-0.531-0.285-0.692
			c-0.191-0.161-0.549-0.241-1.073-0.241h-1.263V81.119z"/>
		<path class="st5" d="M576.001,77.349h3.782l1.458,5.662l1.448-5.662h3.779v9.306h-2.354v-7.097l-1.815,7.097h-2.131l-1.812-7.097
			v7.097h-2.355V77.349z"/>
	</g>
	<g>
		<path class="st5" d="M187.242,77.349h2.882v9.306h-2.882V77.349z"/>
		<path class="st5" d="M190.971,77.349h2.685l3.504,5.148v-5.148h2.71v9.306h-2.71l-3.485-5.109v5.109h-2.704V77.349z"/>
		<path class="st5" d="M199.502,77.349h8.741v2.298h-2.933v7.008h-2.875v-7.008h-2.933V77.349z"/>
		<path class="st5" d="M207.821,77.349h7.706v1.987h-4.824v1.479h4.475v1.898h-4.475v1.834h4.964v2.107h-7.846V77.349z"/>
		<path class="st5" d="M220.178,83.284v-1.936h4.443v3.967c-0.851,0.58-1.603,0.974-2.256,1.184
			c-0.654,0.209-1.43,0.314-2.327,0.314c-1.104,0-2.005-0.188-2.701-0.565c-0.696-0.376-1.236-0.938-1.619-1.682
			c-0.383-0.745-0.574-1.6-0.574-2.564c0-1.016,0.209-1.899,0.628-2.65c0.419-0.751,1.033-1.322,1.841-1.711
			c0.63-0.3,1.479-0.451,2.545-0.451c1.028,0,1.797,0.093,2.308,0.279c0.51,0.186,0.933,0.475,1.27,0.867
			c0.336,0.391,0.589,0.887,0.758,1.488l-2.774,0.495c-0.114-0.351-0.308-0.62-0.581-0.806c-0.272-0.186-0.621-0.279-1.044-0.279
			c-0.63,0-1.133,0.219-1.508,0.657c-0.374,0.438-0.562,1.131-0.562,2.079c0,1.007,0.189,1.727,0.568,2.158
			c0.378,0.432,0.906,0.647,1.583,0.647c0.322,0,0.628-0.046,0.92-0.14s0.626-0.252,1.003-0.476v-0.876H220.178z"/>
		<path class="st5" d="M224.742,86.654v-9.306h4.792c0.889,0,1.568,0.076,2.038,0.229s0.849,0.435,1.136,0.848
			c0.288,0.412,0.432,0.915,0.432,1.507c0,0.516-0.11,0.961-0.33,1.336c-0.22,0.374-0.523,0.678-0.908,0.911
			c-0.246,0.148-0.583,0.271-1.01,0.368c0.343,0.114,0.592,0.229,0.749,0.343c0.106,0.076,0.259,0.239,0.46,0.489
			c0.201,0.25,0.335,0.442,0.403,0.578l1.393,2.696h-3.249l-1.537-2.844c-0.195-0.368-0.368-0.607-0.521-0.717
			c-0.208-0.144-0.442-0.216-0.705-0.216h-0.254v3.777H224.742z M227.63,81.119h1.212c0.131,0,0.385-0.042,0.762-0.127
			c0.19-0.038,0.346-0.135,0.467-0.292c0.12-0.157,0.181-0.336,0.181-0.54c0-0.3-0.095-0.531-0.286-0.692s-0.548-0.241-1.073-0.241
			h-1.263V81.119z"/>
		<path class="st5" d="M238.873,85.118h-3.265l-0.454,1.536h-2.936l3.498-9.306h3.137l3.497,9.306h-3.011L238.873,85.118z
			 M238.276,83.106l-1.027-3.345l-1.017,3.345H238.276z"/>
		<path class="st5" d="M240.179,77.349h8.741v2.298h-2.933v7.008h-2.875v-7.008h-2.933V77.349z"/>
		<path class="st5" d="M248.499,77.349h7.706v1.987h-4.824v1.479h4.475v1.898h-4.475v1.834h4.964v2.107h-7.846V77.349z"/>
	</g>
	<g>
		<path class="st5" d="M123.334,77.349h7.706v1.987h-4.824v1.479h4.475v1.898h-4.475v1.834h4.964v2.107h-7.846V77.349z"/>
		<path class="st5" d="M130.372,77.349h8.741v2.298h-2.933v7.008h-2.875v-7.008h-2.933V77.349z"/>
		<path class="st5" d="M138.711,77.349h2.875v7.014h4.488v2.292h-7.363V77.349z"/>
	</g>
	<path class="st0" d="M181.736,115.971l14.316,7.158l-14.316,7.158V115.971z M159.567,120.743h24.555v4.772h-24.555V120.743z"/>
	<path class="st0" d="M261.731,116.103l14.26,7.268l-14.382,7.047L261.731,116.103z M246.278,120.743l17.806,0.144l-0.044,4.772
		l-17.806-0.144L246.278,120.743z"/>
	<path class="st0" d="M508.752,115.971l14.316,7.158l-14.316,7.158V115.971z M448.264,120.743h62.874v4.772h-62.874V120.743z"/>
	<path class="st0" d="M611.91,130.419l14.249-7.29l-14.382-7.025L611.91,130.419z M573.15,126l41.102-0.376l-0.044-4.772
		l-41.102,0.376L573.15,126z"/>
	<path class="st1" d="M524.602,125.196c6.692-4.442,14.722-7.029,23.356-7.029c23.357,0,42.292,18.935,42.292,42.292
		c0,9.189-2.931,17.694-7.909,24.631"/>
	<polygon class="st2" points="573.323,195.299 588.219,189.241 577.721,179.832 	"/>
	<path class="st0" d="M708.342,115.971l14.316,7.158l-14.316,7.158V115.971z M690.834,120.743h19.894v4.772h-19.894V120.743z"/>
	<path class="st1" d="M444.277,197.184c-0.025,0.014-0.051,0.029-0.076,0.043c-6.167,3.514-13.303,5.522-20.909,5.522
		c-23.357,0-42.292-18.935-42.292-42.292c0-11.657,4.716-22.213,12.345-29.863"/>
	<path class="st1" d="M399.936,125.196c6.692-4.442,14.722-7.029,23.356-7.029c23.357,0,42.292,18.935,42.292,42.292
		c0,9.189-2.931,17.694-7.909,24.631"/>
	<g>
		<path class="st3" d="M448.354,194.259L448.354,194.259c0-13.869-11.237-25.09-25.104-25.09c-13.854,0-25.09,11.221-25.09,25.09
			c0,13.854,11.236,25.104,25.09,25.104C437.118,219.363,448.354,208.113,448.354,194.259z"/>
		<path class="st4" d="M435.03,205.112L435.03,205.112l-1.117,1.118c-0.765,0.765-2,0.765-2.766,0l-5.146-5.147
			c-0.765-0.765-0.765-1.999,0-2.764l1.117-1.119c0.765-0.765,2-0.765,2.764,0l5.148,5.148
			C435.794,203.112,435.794,204.348,435.03,205.112z M419.543,181.715L419.543,181.715c-4.985,0-9.03,4.044-9.03,9.029
			c0,5.001,4.045,9.044,9.03,9.044c5.001,0,9.045-4.044,9.045-9.044C428.588,185.759,424.544,181.715,419.543,181.715z
			 M419.543,197.817L419.543,197.817c-3.912,0-7.074-3.162-7.074-7.073c0-3.913,3.162-7.075,7.074-7.075
			c3.913,0,7.075,3.162,7.075,7.075C426.618,194.655,423.456,197.817,419.543,197.817z M420.118,196.611L420.118,196.611
			c0.043,0,0.073-0.014,0.118-0.014c0.059-0.029,0.102-0.059,0.147-0.088c0.043-0.045,0.073-0.088,0.102-0.147
			c0-0.029,0.016-0.059,0.016-0.088l1.059-5.707l0.529,2.029c0.016,0.059,0.045,0.104,0.074,0.147
			c0.029,0.029,0.073,0.074,0.118,0.088c0.014,0.016,0.043,0.016,0.059,0.029c0.029,0.016,0.059,0.016,0.088,0.016
			c0.014,0,0.029,0.014,0.043,0.014c0.016,0,0.045-0.014,0.059-0.014c0.016,0,0.029,0,0.045-0.016
			c0.059-0.014,0.102-0.029,0.147-0.073c0.029-0.029,0.073-0.059,0.088-0.118c0.014,0,0.69-1.355,0.69-1.355h1.913
			c0.22,0,0.396-0.176,0.396-0.396c0-0.222-0.176-0.382-0.396-0.382h-2.162c-0.016,0-0.029,0-0.045,0
			c-0.059,0-0.118,0.029-0.161,0.059c-0.045,0.014-0.088,0.059-0.118,0.102c-0.016,0.016-0.016,0.045-0.029,0.059l-0.31,0.633
			l-0.719-2.721c0-0.014-0.016-0.029-0.016-0.059c-0.029-0.043-0.059-0.102-0.102-0.131c-0.029-0.045-0.088-0.074-0.133-0.088
			c-0.043-0.016-0.088-0.016-0.133-0.016c0,0,0,0-0.014,0c-0.045,0-0.088,0.016-0.133,0.029c-0.059,0.016-0.102,0.059-0.147,0.088
			c-0.029,0.045-0.059,0.104-0.073,0.147c-0.016,0.029-0.016,0.045-0.016,0.059l-0.882,4.795l-0.896-8.294
			c0-0.029,0-0.059-0.016-0.088c-0.014-0.059-0.043-0.104-0.088-0.147c-0.043-0.045-0.088-0.075-0.147-0.09
			c-0.029-0.014-0.073-0.029-0.131-0.029c-0.045,0-0.088,0-0.133,0.016c-0.043,0.014-0.102,0.059-0.147,0.088
			c-0.029,0.045-0.073,0.088-0.088,0.147c-0.014,0.029-0.014,0.059-0.029,0.088l-0.912,6.161l-0.677-2.117
			c-0.015-0.043-0.044-0.088-0.074-0.131c-0.029-0.029-0.059-0.059-0.103-0.088c0,0-0.029-0.016-0.044-0.016
			c-0.029-0.014-0.074-0.029-0.118-0.029c-0.015,0-0.015,0-0.029,0c-0.044,0-0.088,0-0.118,0.016
			c-0.059,0.014-0.103,0.043-0.147,0.073c-0.029,0.029-0.059,0.075-0.088,0.118l-0.677,1.368h-1.912
			c-0.221,0-0.397,0.161-0.397,0.382c0,0.22,0.176,0.396,0.397,0.396h2.147c0.029,0,0.044,0,0.059,0
			c0.059-0.014,0.103-0.029,0.162-0.059c0.044-0.029,0.088-0.073,0.118-0.118c0-0.014,0.015-0.029,0.029-0.043l0.338-0.706
			l0.897,2.793c0.015,0.029,0.015,0.045,0.029,0.059c0.029,0.059,0.059,0.104,0.103,0.133c0.044,0.043,0.088,0.059,0.147,0.073
			c0.029,0.016,0.074,0.029,0.103,0.029c0.014,0,0.014-0.014,0.029-0.014c0.043,0,0.088-0.016,0.131-0.029
			c0.059-0.029,0.104-0.059,0.133-0.104c0.043-0.043,0.073-0.088,0.088-0.147c0-0.014,0-0.043,0-0.059l0.721-4.793l0.837,7.912
			c0,0.029,0.016,0.059,0.016,0.088c0.029,0.059,0.059,0.102,0.088,0.147c0.043,0.043,0.088,0.073,0.147,0.102
			c0.043,0.016,0.088,0.029,0.131,0.029H420.118z"/>
	</g>
	<g>
		<path class="st3" d="M448.354,123.476L448.354,123.476c0-13.869-11.237-25.09-25.104-25.09c-13.854,0-25.09,11.221-25.09,25.09
			c0,13.854,11.236,25.104,25.09,25.104C437.118,148.581,448.354,137.33,448.354,123.476z"/>
		<path class="st4" d="M420.118,112.887L420.118,112.887h-1.764v-0.778c0-1.633,1.308-2.942,2.941-2.942h3.913
			c1.631,0,2.941,1.31,2.941,2.942v0.778h-1.764v-0.984c0-0.647-0.516-1.178-1.176-1.178h-3.913c-0.647,0-1.176,0.531-1.176,1.178
			V112.887z M435.794,117.195L435.794,117.195v12.56c0,1.941-1.574,3.53-3.529,3.53h-18.031c-1.956,0-3.53-1.588-3.53-3.53v-12.56
			c0-1.941,1.574-3.529,3.53-3.529h18.031C434.22,113.667,435.794,115.255,435.794,117.195z M428.941,122.3L428.941,122.3
			c0-0.545-0.441-0.986-0.986-0.986h-2.543v-2.545c0-0.543-0.441-0.984-0.986-0.984h-2.352c-0.545,0-0.986,0.441-0.986,0.984v2.545
			h-2.545c-0.545,0-0.985,0.441-0.985,0.986v2.352c0,0.545,0.44,0.986,0.985,0.986h2.545v2.545c0,0.543,0.441,0.984,0.986,0.984
			h2.352c0.545,0,0.986-0.441,0.986-0.984v-2.545h2.543c0.545,0,0.986-0.441,0.986-0.986V122.3z"/>
	</g>
	<g>
		<path class="st3" d="M573.218,123.476L573.218,123.476c0-13.869-11.237-25.09-25.104-25.09c-13.854,0-25.09,11.221-25.09,25.09
			c0,13.854,11.236,25.104,25.09,25.104C561.981,148.581,573.218,137.33,573.218,123.476z"/>
		<path class="st4" d="M559.672,130.58L559.672,130.58l-11.411-11.412c0.617-2.178,0.073-4.632-1.647-6.353
			c-1.751-1.735-4.237-2.28-6.457-1.617l3.354,3.338c1.059,1.072,1.161,2.793,0.088,3.868l-0.561,0.543
			c-1.073,1.074-2.896,1.104-3.97,0.029l-3.28-3.28c-0.588,2.162-0.029,4.573,1.677,6.265c1.721,1.721,4.162,2.28,6.353,1.647
			l11.413,11.413c1.219,1.221,3.221,1.221,4.44,0C560.893,133.786,560.893,131.8,559.672,130.58z M558.482,133.712L558.482,133.712
			c-0.529,0.529-1.411,0.529-1.941,0c-0.531-0.544-0.531-1.412,0-1.941c0.529-0.544,1.411-0.544,1.941,0
			C559.011,132.3,559.011,133.168,558.482,133.712z M546.157,127.109L546.157,127.109c0.617,0.617,0.617,1.604,0,2.221l-6.236,6.236
			c-0.618,0.618-1.618,0.618-2.221,0l-1.662-1.662c-0.617-0.618-0.617-1.603,0-2.221l6.236-6.236c0.617-0.617,1.603-0.617,2.22,0
			L546.157,127.109z M560.452,112.828L560.452,112.828l-1.676-1.66c-0.294-0.31-0.823-0.323-1.117-0.016l-1.678,1.662
			c-0.294,0.308-0.278,0.823,0.029,1.131l-0.029-0.029l-5.956,5.957l1.662,1.676l5.956-5.971l0.029,0.029
			c0.31,0.31,0.78,0.28,1.088-0.029l1.662-1.662C560.733,113.608,560.746,113.137,560.452,112.828z"/>
	</g>
	<g>
		<path class="st5" d="M395.165,232.081h7.707v1.987h-4.824v1.479h4.475v1.898h-4.475v1.834h4.963v2.107h-7.846V232.081z"/>
		<path class="st5" d="M402.171,232.081h3.167l1.647,2.862l1.603-2.862h3.137l-2.896,4.507l3.169,4.799h-3.231l-1.837-2.99
			l-1.838,2.99h-3.212l3.21-4.85L402.171,232.081z"/>
		<path class="st5" d="M411.201,232.081h4.779c1.041,0,1.821,0.247,2.34,0.743c0.519,0.494,0.777,1.199,0.777,2.113
			c0,0.939-0.282,1.674-0.848,2.203c-0.564,0.528-1.427,0.793-2.586,0.793h-1.574v3.453h-2.889V232.081z M414.09,236.049h0.704
			c0.555,0,0.943-0.097,1.168-0.289s0.337-0.439,0.337-0.74c0-0.291-0.098-0.539-0.293-0.742c-0.194-0.203-0.561-0.305-1.098-0.305
			h-0.818V236.049z"/>
		<path class="st5" d="M418.848,232.081h2.876v7.015h4.487v2.291h-7.363V232.081z"/>
		<path class="st5" d="M425.362,236.74c0-1.52,0.424-2.702,1.27-3.549c0.847-0.846,2.025-1.27,3.536-1.27
			c1.549,0,2.742,0.416,3.58,1.248c0.838,0.831,1.257,1.996,1.257,3.494c0,1.088-0.183,1.979-0.549,2.676s-0.896,1.237-1.587,1.625
			c-0.692,0.387-1.555,0.58-2.587,0.58c-1.05,0-1.918-0.167-2.605-0.501s-1.245-0.863-1.673-1.587S425.362,237.828,425.362,236.74z
			 M428.238,236.753c0,0.939,0.175,1.614,0.523,2.024c0.35,0.411,0.824,0.616,1.425,0.616c0.618,0,1.097-0.201,1.436-0.603
			c0.338-0.402,0.508-1.124,0.508-2.165c0-0.876-0.177-1.516-0.53-1.92s-0.833-0.606-1.438-0.606c-0.579,0-1.045,0.205-1.396,0.615
			C428.414,235.126,428.238,235.805,428.238,236.753z"/>
		<path class="st5" d="M434.915,241.387v-9.306h4.793c0.889,0,1.567,0.076,2.037,0.229s0.849,0.435,1.137,0.848
			c0.287,0.412,0.432,0.915,0.432,1.507c0,0.517-0.11,0.962-0.331,1.337c-0.22,0.374-0.522,0.678-0.908,0.911
			c-0.245,0.147-0.582,0.271-1.01,0.367c0.343,0.115,0.592,0.229,0.749,0.344c0.105,0.076,0.259,0.239,0.46,0.489
			c0.2,0.25,0.335,0.442,0.402,0.578l1.393,2.696h-3.249l-1.537-2.844c-0.194-0.368-0.368-0.607-0.521-0.717
			c-0.207-0.145-0.442-0.217-0.704-0.217h-0.254v3.777H434.915z M437.804,235.852h1.212c0.131,0,0.385-0.042,0.762-0.127
			c0.19-0.038,0.346-0.136,0.467-0.292c0.12-0.156,0.181-0.337,0.181-0.54c0-0.3-0.096-0.53-0.285-0.691
			c-0.191-0.161-0.549-0.241-1.073-0.241h-1.263V235.852z"/>
		<path class="st5" d="M443.278,232.081h7.707v1.987h-4.824v1.479h4.475v1.898h-4.475v1.834h4.963v2.107h-7.846V232.081z"/>
	</g>
	<path class="st6" d="M465.121,191.481l-15.741,2.872l7.136-14.316L465.121,191.481z M448.397,120.743l0.928,0.055l1.204,0.188
		l1.149,0.298l1.138,0.42l1.094,0.497l1.094,0.63l1.016,0.696l1.027,0.795l0.961,0.84l0.961,0.95l0.917,1.005l0.884,1.071
		l0.851,1.127l0.828,1.182l0.795,1.27l0.751,1.292l0.729,1.348l0.685,1.414l1.259,2.872l1.116,3.093l0.95,3.214l0.751,3.314
		l0.32,1.723l0.254,1.712l0.199,1.723l0.155,1.734l0.088,1.734l0.033,1.767l-0.022,1.734l-0.088,1.756l-0.133,1.734l-0.199,1.712
		l-0.519,3.369l-0.707,3.314l-0.873,3.203l-1.049,3.082l-1.193,2.916l-0.652,1.425l-0.685,1.359l-0.707,1.292l-0.762,1.259
		c-0.144,0.243-0.331,0.464-0.563,0.641l-1.999,1.569l-2.938-3.756l1.988-1.569l-0.563,0.641l0.652-1.071l0.63-1.16l0.608-1.193
		l0.574-1.248l1.094-2.651l0.961-2.806l0.817-2.938l0.663-3.049l0.486-3.148l0.177-1.58l0.133-1.58l0.077-1.591l0.022-1.602
		l-0.022-1.569l-0.088-1.602l-0.133-1.58l-0.177-1.58l-0.232-1.546l-0.276-1.524l-0.685-3.027l-0.862-2.938l-0.994-2.806
		l-1.171-2.695l-0.596-1.237l-0.652-1.204l-0.674-1.16l-0.674-1.083l-0.718-1.038l-0.718-0.961l-0.74-0.895l-0.762-0.839
		l-0.729-0.74l-0.773-0.685l-0.74-0.596l-0.762-0.519l-0.718-0.431l-0.729-0.353l-0.696-0.276l-0.707-0.199l-0.674-0.133
		l-0.928-0.044L448.397,120.743z"/>
	<path class="st6" d="M382.419,126l15.74-2.872l-7.147,14.327L382.419,126z M399.143,196.739l-0.928-0.044l-1.204-0.188
		l-1.149-0.298l-1.149-0.42l-1.082-0.508l-1.083-0.608l-1.049-0.718l-0.994-0.773l-0.983-0.862l-0.95-0.95l-0.917-0.994l-0.884-1.06
		l-0.862-1.149l-0.817-1.182l-0.795-1.248l-0.762-1.303l-0.718-1.348l-0.696-1.425l-1.248-2.872l-1.116-3.082l-0.95-3.214
		l-0.762-3.325l-0.32-1.712l-0.254-1.723l-0.199-1.723l-0.144-1.723l-0.099-1.745l-0.022-1.767l0.022-1.734l0.088-1.745l0.133-1.734
		l0.188-1.723l0.519-3.358l0.718-3.314l0.873-3.203l1.038-3.082l1.204-2.927l0.652-1.414l0.685-1.359l0.707-1.292l0.751-1.248
		c0.144-0.254,0.342-0.475,0.574-0.652l1.988-1.569l2.949,3.756l-1.999,1.557l0.574-0.652l-0.652,1.105l-0.641,1.16l-0.608,1.193
		l-0.574,1.237l-1.083,2.64l-0.961,2.817l-0.817,2.949l-0.663,3.027l-0.497,3.148l-0.166,1.58l-0.133,1.591l-0.077,1.591
		l-0.033,1.591l0.022,1.569l0.088,1.602l0.133,1.591l0.188,1.569l0.221,1.557l0.276,1.524l0.685,3.038l0.862,2.927l1.005,2.806
		l1.171,2.695l0.596,1.237l0.652,1.215l0.663,1.149l0.685,1.083l0.718,1.038l0.707,0.961l0.751,0.895l0.751,0.839l0.74,0.74
		l0.762,0.685l0.751,0.596l0.74,0.508l0.729,0.431l0.74,0.365l0.696,0.276l0.707,0.199l0.663,0.122l0.928,0.055L399.143,196.739z"/>
	<g>
		<path class="st3" d="M573.218,194.259L573.218,194.259c0-13.869-11.237-25.09-25.104-25.09c-13.854,0-25.09,11.221-25.09,25.09
			c0,13.854,11.236,25.104,25.09,25.104C561.981,219.363,573.218,208.113,573.218,194.259z"/>
		<path class="st4" d="M559.894,205.112L559.894,205.112l-1.117,1.118c-0.765,0.765-2,0.765-2.766,0l-5.146-5.147
			c-0.765-0.765-0.765-1.999,0-2.764l1.117-1.119c0.765-0.765,2-0.765,2.764,0l5.148,5.148
			C560.658,203.112,560.658,204.348,559.894,205.112z M544.407,181.715L544.407,181.715c-4.985,0-9.03,4.044-9.03,9.029
			c0,5.001,4.045,9.044,9.03,9.044c5.001,0,9.045-4.044,9.045-9.044C553.452,185.759,549.408,181.715,544.407,181.715z
			 M544.407,197.817L544.407,197.817c-3.912,0-7.074-3.162-7.074-7.073c0-3.913,3.162-7.075,7.074-7.075
			c3.913,0,7.075,3.162,7.075,7.075C551.482,194.655,548.32,197.817,544.407,197.817z M544.981,196.611L544.981,196.611
			c0.043,0,0.073-0.014,0.118-0.014c0.059-0.029,0.102-0.059,0.147-0.088c0.043-0.045,0.073-0.088,0.102-0.147
			c0-0.029,0.016-0.059,0.016-0.088l1.059-5.707l0.529,2.029c0.016,0.059,0.045,0.104,0.074,0.147
			c0.029,0.029,0.073,0.074,0.118,0.088c0.014,0.016,0.043,0.016,0.059,0.029c0.029,0.016,0.059,0.016,0.088,0.016
			c0.014,0,0.029,0.014,0.043,0.014c0.016,0,0.045-0.014,0.059-0.014c0.016,0,0.029,0,0.045-0.016
			c0.059-0.014,0.102-0.029,0.147-0.073c0.029-0.029,0.073-0.059,0.088-0.118c0.014,0,0.69-1.355,0.69-1.355h1.913
			c0.22,0,0.396-0.176,0.396-0.396c0-0.222-0.176-0.382-0.396-0.382h-2.162c-0.016,0-0.029,0-0.045,0
			c-0.059,0-0.118,0.029-0.161,0.059c-0.045,0.014-0.088,0.059-0.118,0.102c-0.016,0.016-0.016,0.045-0.029,0.059l-0.31,0.633
			l-0.719-2.721c0-0.014-0.016-0.029-0.016-0.059c-0.029-0.043-0.059-0.102-0.102-0.131c-0.029-0.045-0.088-0.074-0.133-0.088
			c-0.043-0.016-0.088-0.016-0.133-0.016c0,0,0,0-0.014,0c-0.045,0-0.088,0.016-0.133,0.029c-0.059,0.016-0.102,0.059-0.147,0.088
			c-0.029,0.045-0.059,0.104-0.073,0.147c-0.016,0.029-0.016,0.045-0.016,0.059l-0.882,4.795l-0.896-8.294
			c0-0.029,0-0.059-0.016-0.088c-0.014-0.059-0.043-0.104-0.088-0.147c-0.043-0.045-0.088-0.075-0.147-0.09
			c-0.029-0.014-0.073-0.029-0.131-0.029c-0.045,0-0.088,0-0.133,0.016c-0.043,0.014-0.102,0.059-0.147,0.088
			c-0.029,0.045-0.073,0.088-0.088,0.147c-0.014,0.029-0.014,0.059-0.029,0.088l-0.912,6.161l-0.677-2.117
			c-0.015-0.043-0.044-0.088-0.074-0.131c-0.029-0.029-0.059-0.059-0.103-0.088c0,0-0.029-0.016-0.044-0.016
			c-0.029-0.014-0.074-0.029-0.118-0.029c-0.015,0-0.015,0-0.029,0c-0.044,0-0.088,0-0.118,0.016
			c-0.059,0.014-0.103,0.043-0.147,0.073c-0.029,0.029-0.059,0.075-0.088,0.118l-0.677,1.368h-1.912
			c-0.221,0-0.397,0.161-0.397,0.382c0,0.22,0.176,0.396,0.397,0.396h2.147c0.029,0,0.044,0,0.059,0
			c0.059-0.014,0.103-0.029,0.162-0.059c0.044-0.029,0.088-0.073,0.118-0.118c0-0.014,0.015-0.029,0.029-0.043l0.338-0.706
			l0.897,2.793c0.015,0.029,0.015,0.045,0.029,0.059c0.029,0.059,0.059,0.104,0.103,0.133c0.044,0.043,0.088,0.059,0.147,0.073
			c0.029,0.016,0.074,0.029,0.103,0.029c0.014,0,0.014-0.014,0.029-0.014c0.043,0,0.088-0.016,0.131-0.029
			c0.059-0.029,0.104-0.059,0.133-0.104c0.043-0.043,0.073-0.088,0.088-0.147c0-0.014,0-0.043,0-0.059l0.721-4.793l0.837,7.912
			c0,0.029,0.016,0.059,0.016,0.088c0.029,0.059,0.059,0.102,0.088,0.147c0.043,0.043,0.088,0.073,0.147,0.102
			c0.043,0.016,0.088,0.029,0.131,0.029H544.981z"/>
	</g>
	<g>
		<path class="st5" d="M520.195,232.081h7.707v1.987h-4.824v1.479h4.475v1.898h-4.475v1.834h4.963v2.107h-7.846V232.081z"/>
		<path class="st5" d="M527.201,232.081h3.167l1.647,2.862l1.603-2.862h3.137l-2.896,4.507l3.169,4.799h-3.231l-1.837-2.99
			l-1.838,2.99h-3.212l3.21-4.85L527.201,232.081z"/>
		<path class="st5" d="M536.231,232.081h4.779c1.041,0,1.821,0.247,2.34,0.743c0.519,0.494,0.777,1.199,0.777,2.113
			c0,0.939-0.282,1.674-0.848,2.203c-0.564,0.528-1.427,0.793-2.586,0.793h-1.574v3.453h-2.889V232.081z M539.12,236.049h0.704
			c0.555,0,0.943-0.097,1.168-0.289s0.337-0.439,0.337-0.74c0-0.291-0.098-0.539-0.293-0.742c-0.194-0.203-0.561-0.305-1.098-0.305
			h-0.818V236.049z"/>
		<path class="st5" d="M543.878,232.081h2.876v7.015h4.487v2.291h-7.363V232.081z"/>
		<path class="st5" d="M550.393,236.74c0-1.52,0.424-2.702,1.27-3.549c0.847-0.846,2.025-1.27,3.536-1.27
			c1.549,0,2.742,0.416,3.58,1.248c0.838,0.831,1.257,1.996,1.257,3.494c0,1.088-0.183,1.979-0.549,2.676s-0.896,1.237-1.587,1.625
			c-0.692,0.387-1.555,0.58-2.587,0.58c-1.05,0-1.918-0.167-2.605-0.501s-1.245-0.863-1.673-1.587S550.393,237.828,550.393,236.74z
			 M553.269,236.753c0,0.939,0.175,1.614,0.523,2.024c0.35,0.411,0.824,0.616,1.425,0.616c0.618,0,1.097-0.201,1.436-0.603
			c0.338-0.402,0.508-1.124,0.508-2.165c0-0.876-0.177-1.516-0.53-1.92s-0.833-0.606-1.438-0.606c-0.579,0-1.045,0.205-1.396,0.615
			C553.444,235.126,553.269,235.805,553.269,236.753z"/>
		<path class="st5" d="M559.945,241.387v-9.306h4.793c0.889,0,1.567,0.076,2.037,0.229s0.849,0.435,1.137,0.848
			c0.287,0.412,0.432,0.915,0.432,1.507c0,0.517-0.11,0.962-0.331,1.337c-0.22,0.374-0.522,0.678-0.908,0.911
			c-0.245,0.147-0.582,0.271-1.01,0.367c0.343,0.115,0.592,0.229,0.749,0.344c0.105,0.076,0.259,0.239,0.46,0.489
			c0.2,0.25,0.335,0.442,0.402,0.578l1.393,2.696h-3.249l-1.537-2.844c-0.194-0.368-0.368-0.607-0.521-0.717
			c-0.207-0.145-0.442-0.217-0.704-0.217h-0.254v3.777H559.945z M562.834,235.852h1.212c0.131,0,0.385-0.042,0.762-0.127
			c0.19-0.038,0.346-0.136,0.467-0.292c0.12-0.156,0.181-0.337,0.181-0.54c0-0.3-0.096-0.53-0.285-0.691
			c-0.191-0.161-0.549-0.241-1.073-0.241h-1.263V235.852z"/>
		<path class="st5" d="M568.309,232.081h7.707v1.987h-4.824v1.479h4.475v1.898h-4.475v1.834h4.963v2.107h-7.846V232.081z"/>
	</g>
	<path class="st0" d="M383.999,116.114l14.271,7.246l-14.36,7.069L383.999,116.114z M360.791,120.743l25.56,0.166l-0.033,4.772
		l-25.549-0.166L360.791,120.743z"/>
	<polygon class="st2" points="398.329,123.341 383.88,130.397 394.992,139.071 	"/>
	<polygon class="st2" points="448.657,195.299 463.552,189.241 453.055,179.832 	"/>
	<polygon class="st2" points="398.329,123.341 383.88,130.397 394.992,139.071 	"/>
	<polygon class="st2" points="448.657,195.299 463.552,189.241 453.055,179.832 	"/>
</g>
<g id="レイヤー_2">
	<rect x="626.811" y="96.486" class="st7" width="64.42" height="53.286"/>
	<line class="st8" x1="626.667" y1="103" x2="691.333" y2="103"/>
	<g>
		<path class="st4" d="M641.409,113.986h3.49l1.347,5.227l1.337-5.227h3.488v8.59h-2.174v-6.551l-1.675,6.551h-1.968l-1.672-6.551
			v6.551h-2.174V113.986z"/>
		<path class="st4" d="M652.694,113.986h2.385v1.623h-2.385V113.986z M652.694,116.354h2.385v6.223h-2.385V116.354z"/>
		<path class="st4" d="M656.603,116.354h2.221v1.014c0.332-0.414,0.668-0.71,1.008-0.888s0.754-0.267,1.242-0.267
			c0.66,0,1.177,0.196,1.55,0.589s0.56,0.999,0.56,1.819v3.955h-2.396v-3.422c0-0.391-0.072-0.667-0.217-0.829
			s-0.348-0.243-0.609-0.243c-0.289,0-0.523,0.109-0.703,0.328s-0.27,0.611-0.27,1.178v2.988h-2.385V116.354z"/>
		<path class="st4" d="M664.694,113.986h2.385v1.623h-2.385V113.986z M664.694,116.354h2.385v6.223h-2.385V116.354z"/>
		<path class="st4" d="M668.603,116.354h2.221v1.014c0.332-0.414,0.668-0.71,1.008-0.888s0.754-0.267,1.242-0.267
			c0.66,0,1.177,0.196,1.55,0.589s0.56,0.999,0.56,1.819v3.955h-2.396v-3.422c0-0.391-0.072-0.667-0.217-0.829
			s-0.348-0.243-0.609-0.243c-0.289,0-0.523,0.109-0.703,0.328s-0.27,0.611-0.27,1.178v2.988h-2.385V116.354z"/>
		<path class="st4" d="M680.937,116.354h2.232v5.877l0.006,0.275c0,0.391-0.083,0.763-0.249,1.116s-0.387,0.64-0.662,0.858
			s-0.625,0.377-1.049,0.475s-0.909,0.146-1.456,0.146c-1.25,0-2.108-0.188-2.575-0.563s-0.7-0.877-0.7-1.506
			c0-0.078,0.004-0.184,0.012-0.316l2.314,0.264c0.059,0.215,0.148,0.363,0.27,0.445c0.176,0.121,0.396,0.182,0.662,0.182
			c0.344,0,0.601-0.092,0.771-0.275s0.255-0.504,0.255-0.961v-0.943c-0.234,0.277-0.469,0.479-0.703,0.604
			c-0.367,0.195-0.764,0.293-1.189,0.293c-0.832,0-1.504-0.363-2.016-1.09c-0.363-0.516-0.545-1.197-0.545-2.045
			c0-0.969,0.234-1.707,0.703-2.215s1.082-0.762,1.84-0.762c0.484,0,0.884,0.082,1.198,0.246s0.608,0.436,0.882,0.814V116.354z
			 M678.692,119.371c0,0.449,0.096,0.782,0.287,0.999s0.443,0.325,0.756,0.325c0.297,0,0.546-0.112,0.747-0.337
			s0.302-0.563,0.302-1.017s-0.105-0.8-0.316-1.04s-0.469-0.36-0.773-0.36s-0.548,0.11-0.729,0.331S678.692,118.859,678.692,119.371
			z"/>
		<path class="st4" d="M645.93,128.387h2.774l1.934,6.182l1.908-6.182h2.694l-3.189,8.59h-2.877L645.93,128.387z"/>
		<path class="st4" d="M656.037,128.387h2.385v1.623h-2.385V128.387z M656.037,130.754h2.385v6.223h-2.385V130.754z"/>
		<path class="st4" d="M666.854,134.457h-4.781c0.043,0.383,0.146,0.668,0.311,0.855c0.23,0.27,0.531,0.404,0.902,0.404
			c0.234,0,0.457-0.059,0.668-0.176c0.129-0.074,0.268-0.205,0.416-0.393l2.35,0.217c-0.359,0.625-0.793,1.073-1.301,1.345
			s-1.236,0.407-2.186,0.407c-0.824,0-1.473-0.116-1.945-0.349s-0.864-0.602-1.175-1.107s-0.466-1.101-0.466-1.784
			c0-0.973,0.312-1.76,0.935-2.361s1.483-0.902,2.581-0.902c0.891,0,1.594,0.135,2.109,0.404s0.908,0.66,1.178,1.172
			s0.404,1.178,0.404,1.998V134.457z M664.428,133.314c-0.047-0.461-0.171-0.791-0.372-0.99s-0.466-0.299-0.794-0.299
			c-0.379,0-0.682,0.15-0.908,0.451c-0.145,0.188-0.236,0.467-0.275,0.838H664.428z"/>
		<path class="st4" d="M667.252,130.754h2.306l0.998,3.918l1.263-3.918h2.154l1.316,3.928l1.003-3.928h2.292l-2.292,6.223h-2.122
			l-1.261-3.744l-1.218,3.744h-2.132L667.252,130.754z"/>
	</g>
	<line class="st8" x1="634.667" y1="96.167" x2="634.667" y2="149.833"/>
</g>
<g id="レイヤー_3">
	<rect x="276.08" y="96.486" class="st7" width="85.098" height="53.286"/>
	<g>
		<path class="st4" d="M296.817,118.21l2.326,0.703c-0.156,0.652-0.402,1.197-0.738,1.635s-0.753,0.768-1.251,0.99
			s-1.132,0.334-1.901,0.334c-0.934,0-1.696-0.136-2.288-0.407c-0.592-0.271-1.103-0.749-1.532-1.432s-0.645-1.558-0.645-2.624
			c0-1.421,0.378-2.513,1.134-3.276c0.756-0.763,1.825-1.145,3.208-1.145c1.082,0,1.933,0.219,2.552,0.656s1.079,1.109,1.38,2.016
			l-2.344,0.521c-0.082-0.262-0.168-0.453-0.258-0.574c-0.148-0.203-0.33-0.359-0.545-0.469s-0.455-0.164-0.721-0.164
			c-0.602,0-1.063,0.242-1.383,0.726c-0.242,0.359-0.363,0.923-0.363,1.691c0,0.952,0.145,1.604,0.434,1.958s0.695,0.53,1.219,0.53
			c0.508,0,0.892-0.143,1.151-0.428S296.7,118.753,296.817,118.21z"/>
		<path class="st4" d="M306.831,121.726h-2.227v-1.008c-0.332,0.414-0.667,0.709-1.005,0.885s-0.753,0.264-1.245,0.264
			c-0.656,0-1.171-0.196-1.544-0.589s-0.56-0.997-0.56-1.813v-3.961h2.396v3.422c0,0.391,0.072,0.668,0.217,0.832
			s0.348,0.246,0.609,0.246c0.285,0,0.519-0.109,0.7-0.328s0.272-0.611,0.272-1.178v-2.994h2.385V121.726z"/>
		<path class="st4" d="M307.856,119.997l2.367-0.223c0.098,0.281,0.234,0.482,0.41,0.604s0.41,0.182,0.703,0.182
			c0.32,0,0.568-0.068,0.744-0.205c0.137-0.102,0.205-0.228,0.205-0.38c0-0.172-0.09-0.304-0.27-0.398
			c-0.129-0.066-0.471-0.148-1.025-0.246c-0.828-0.145-1.403-0.278-1.726-0.401c-0.322-0.123-0.594-0.331-0.814-0.624
			s-0.331-0.626-0.331-1.001c0-0.41,0.119-0.763,0.357-1.06c0.238-0.296,0.566-0.518,0.984-0.664c0.418-0.146,0.979-0.22,1.682-0.22
			c0.742,0,1.29,0.057,1.644,0.17s0.648,0.289,0.885,0.527s0.433,0.561,0.589,0.967l-2.262,0.223
			c-0.059-0.199-0.156-0.346-0.293-0.439c-0.188-0.125-0.414-0.188-0.68-0.188c-0.27,0-0.466,0.048-0.589,0.144
			c-0.123,0.095-0.185,0.211-0.185,0.348c0,0.152,0.078,0.268,0.234,0.345c0.156,0.078,0.496,0.148,1.02,0.211
			c0.793,0.09,1.383,0.214,1.77,0.375s0.683,0.388,0.888,0.685c0.205,0.296,0.308,0.622,0.308,0.977
			c0,0.359-0.108,0.708-0.325,1.048c-0.217,0.34-0.559,0.61-1.025,0.811c-0.467,0.201-1.103,0.301-1.907,0.301
			c-1.137,0-1.946-0.162-2.429-0.486S307.993,120.595,307.856,119.997z"/>
		<path class="st4" d="M318.485,113.136v2.367h1.313v1.746h-1.313v2.205c0,0.265,0.025,0.44,0.076,0.526
			c0.078,0.132,0.215,0.199,0.41,0.199c0.176,0,0.422-0.051,0.738-0.152l0.176,1.646c-0.59,0.129-1.141,0.193-1.652,0.193
			c-0.594,0-1.031-0.076-1.313-0.228c-0.281-0.152-0.489-0.383-0.624-0.694c-0.135-0.31-0.202-0.812-0.202-1.507v-2.188h-0.879
			v-1.746h0.879v-1.143L318.485,113.136z"/>
		<path class="st4" d="M320.642,118.632c0-0.949,0.32-1.731,0.961-2.347s1.506-0.923,2.596-0.923c1.246,0,2.188,0.361,2.824,1.084
			c0.512,0.582,0.768,1.299,0.768,2.15c0,0.957-0.317,1.741-0.952,2.353s-1.513,0.917-2.634,0.917c-1,0-1.809-0.254-2.426-0.762
			C321.021,120.476,320.642,119.651,320.642,118.632z M323.032,118.626c0,0.555,0.112,0.965,0.337,1.23s0.507,0.398,0.847,0.398
			c0.344,0,0.626-0.131,0.847-0.393s0.331-0.682,0.331-1.26c0-0.539-0.111-0.94-0.334-1.204s-0.498-0.396-0.826-0.396
			c-0.348,0-0.635,0.134-0.861,0.401S323.032,118.079,323.032,118.626z"/>
		<path class="st4" d="M328.956,115.503h2.227v0.908c0.321-0.379,0.645-0.648,0.971-0.809s0.721-0.24,1.182-0.24
			c0.497,0,0.89,0.088,1.18,0.264s0.526,0.438,0.71,0.785c0.375-0.406,0.716-0.683,1.024-0.829s0.688-0.22,1.141-0.22
			c0.667,0,1.188,0.198,1.563,0.595c0.374,0.396,0.562,1.017,0.562,1.86v3.908h-2.391v-3.545c0-0.281-0.055-0.49-0.164-0.627
			c-0.16-0.215-0.358-0.322-0.596-0.322c-0.28,0-0.506,0.102-0.677,0.305s-0.257,0.529-0.257,0.979v3.211h-2.391v-3.428
			c0-0.273-0.016-0.459-0.047-0.557c-0.051-0.156-0.139-0.282-0.265-0.378s-0.272-0.144-0.441-0.144c-0.274,0-0.5,0.104-0.676,0.311
			s-0.265,0.547-0.265,1.02v3.176h-2.391V115.503z"/>
		<path class="st4" d="M347.847,119.206h-4.781c0.043,0.383,0.146,0.668,0.311,0.855c0.23,0.27,0.531,0.404,0.902,0.404
			c0.234,0,0.457-0.059,0.668-0.176c0.129-0.074,0.268-0.205,0.416-0.393l2.35,0.217c-0.359,0.625-0.793,1.073-1.301,1.345
			s-1.236,0.407-2.186,0.407c-0.824,0-1.473-0.116-1.945-0.349s-0.864-0.602-1.175-1.107s-0.466-1.101-0.466-1.784
			c0-0.973,0.312-1.76,0.935-2.361s1.483-0.902,2.581-0.902c0.891,0,1.594,0.135,2.109,0.404s0.908,0.66,1.178,1.172
			s0.404,1.178,0.404,1.998V119.206z M345.421,118.063c-0.047-0.461-0.171-0.791-0.372-0.99s-0.466-0.299-0.794-0.299
			c-0.379,0-0.682,0.15-0.908,0.451c-0.145,0.188-0.236,0.467-0.275,0.838H345.421z"/>
		<path class="st4" d="M348.966,115.503h2.232v1.02c0.215-0.441,0.437-0.745,0.665-0.911s0.511-0.249,0.847-0.249
			c0.352,0,0.736,0.109,1.154,0.328l-0.738,1.699c-0.281-0.117-0.504-0.176-0.668-0.176c-0.313,0-0.555,0.129-0.727,0.387
			c-0.246,0.363-0.369,1.043-0.369,2.039v2.086h-2.396V115.503z"/>
		<path class="st4" d="M290.633,133.284l2.525-0.158c0.055,0.41,0.166,0.723,0.334,0.938c0.273,0.348,0.664,0.521,1.172,0.521
			c0.379,0,0.671-0.089,0.876-0.267s0.308-0.384,0.308-0.618c0-0.223-0.098-0.422-0.293-0.598s-0.648-0.342-1.359-0.498
			c-1.164-0.262-1.994-0.609-2.49-1.043c-0.5-0.434-0.75-0.986-0.75-1.658c0-0.441,0.128-0.858,0.384-1.251s0.641-0.701,1.154-0.926
			s1.218-0.337,2.112-0.337c1.098,0,1.935,0.204,2.511,0.612s0.919,1.058,1.028,1.948l-2.502,0.146
			c-0.066-0.387-0.206-0.668-0.419-0.844s-0.507-0.264-0.882-0.264c-0.309,0-0.541,0.065-0.697,0.196s-0.234,0.29-0.234,0.478
			c0,0.137,0.064,0.26,0.193,0.369c0.125,0.113,0.422,0.219,0.891,0.316c1.16,0.25,1.991,0.503,2.493,0.759s0.867,0.573,1.096,0.952
			s0.343,0.803,0.343,1.271c0,0.551-0.152,1.059-0.457,1.523s-0.73,0.817-1.277,1.058s-1.236,0.36-2.068,0.36
			c-1.461,0-2.473-0.281-3.035-0.844S290.707,134.151,290.633,133.284z"/>
		<path class="st4" d="M299.691,127.536h2.385v1.623h-2.385V127.536z M299.691,129.903h2.385v6.223h-2.385V129.903z"/>
		<path class="st4" d="M307.93,129.903h2.232v5.877l0.006,0.275c0,0.391-0.083,0.763-0.249,1.116s-0.387,0.64-0.662,0.858
			s-0.625,0.377-1.049,0.475s-0.909,0.146-1.456,0.146c-1.25,0-2.108-0.188-2.575-0.563s-0.7-0.877-0.7-1.506
			c0-0.078,0.004-0.184,0.012-0.316l2.314,0.264c0.059,0.215,0.148,0.363,0.27,0.445c0.176,0.121,0.396,0.182,0.662,0.182
			c0.344,0,0.601-0.092,0.771-0.275s0.255-0.504,0.255-0.961v-0.943c-0.234,0.277-0.469,0.479-0.703,0.604
			c-0.367,0.195-0.764,0.293-1.189,0.293c-0.832,0-1.504-0.363-2.016-1.09c-0.363-0.516-0.545-1.197-0.545-2.045
			c0-0.969,0.234-1.707,0.703-2.215s1.082-0.762,1.84-0.762c0.484,0,0.884,0.082,1.198,0.246s0.608,0.436,0.882,0.814V129.903z
			 M305.686,132.921c0,0.449,0.096,0.782,0.287,0.999s0.443,0.325,0.756,0.325c0.297,0,0.546-0.112,0.747-0.337
			s0.302-0.563,0.302-1.017s-0.105-0.8-0.316-1.04s-0.469-0.36-0.773-0.36s-0.548,0.11-0.729,0.331S305.686,132.409,305.686,132.921
			z"/>
		<path class="st4" d="M311.604,129.903h2.221v1.014c0.332-0.414,0.668-0.71,1.008-0.888s0.754-0.267,1.242-0.267
			c0.66,0,1.177,0.196,1.55,0.589s0.56,0.999,0.56,1.819v3.955h-2.396v-3.422c0-0.391-0.072-0.667-0.217-0.829
			s-0.348-0.243-0.609-0.243c-0.289,0-0.523,0.109-0.703,0.328s-0.27,0.611-0.27,1.178v2.988h-2.385V129.903z"/>
		<path class="st4" d="M321.781,131.919l-2.279-0.24c0.086-0.398,0.21-0.712,0.372-0.94s0.396-0.427,0.7-0.595
			c0.219-0.121,0.52-0.215,0.902-0.281s0.797-0.1,1.242-0.1c0.715,0,1.289,0.04,1.723,0.12s0.795,0.247,1.084,0.501
			c0.203,0.176,0.363,0.425,0.48,0.747s0.176,0.63,0.176,0.923v2.748c0,0.293,0.019,0.522,0.056,0.688s0.118,0.378,0.243,0.636
			h-2.238c-0.09-0.16-0.148-0.282-0.176-0.366s-0.055-0.216-0.082-0.396c-0.313,0.301-0.623,0.516-0.932,0.645
			c-0.422,0.172-0.912,0.258-1.471,0.258c-0.742,0-1.306-0.172-1.69-0.516s-0.577-0.768-0.577-1.271
			c0-0.473,0.139-0.861,0.416-1.166s0.789-0.531,1.535-0.68c0.895-0.18,1.475-0.306,1.74-0.378s0.547-0.167,0.844-0.284
			c0-0.293-0.061-0.498-0.182-0.615s-0.334-0.176-0.639-0.176c-0.391,0-0.684,0.063-0.879,0.188
			C321.998,131.466,321.875,131.649,321.781,131.919z M323.85,133.173c-0.328,0.117-0.67,0.221-1.025,0.311
			c-0.484,0.129-0.791,0.256-0.92,0.381c-0.133,0.129-0.199,0.275-0.199,0.439c0,0.188,0.065,0.341,0.196,0.46
			s0.323,0.179,0.577,0.179c0.266,0,0.513-0.064,0.741-0.193s0.391-0.286,0.486-0.472s0.144-0.427,0.144-0.724V133.173z"/>
		<path class="st4" d="M330.488,127.536v2.367h1.313v1.746h-1.313v2.205c0,0.265,0.025,0.44,0.076,0.526
			c0.078,0.132,0.215,0.199,0.41,0.199c0.176,0,0.422-0.051,0.738-0.152l0.176,1.646c-0.59,0.129-1.141,0.193-1.652,0.193
			c-0.594,0-1.031-0.076-1.313-0.229s-0.489-0.383-0.624-0.693c-0.135-0.31-0.202-0.812-0.202-1.507v-2.188h-0.879v-1.746h0.879
			v-1.143L330.488,127.536z"/>
		<path class="st4" d="M339.494,136.126h-2.227v-1.008c-0.332,0.414-0.667,0.709-1.005,0.885s-0.753,0.264-1.245,0.264
			c-0.656,0-1.171-0.196-1.544-0.589s-0.56-0.997-0.56-1.813v-3.961h2.396v3.422c0,0.391,0.072,0.668,0.217,0.832
			s0.348,0.246,0.609,0.246c0.285,0,0.519-0.109,0.7-0.328s0.272-0.611,0.272-1.178v-2.994h2.385V136.126z"/>
		<path class="st4" d="M340.965,129.903h2.232v1.02c0.215-0.441,0.437-0.745,0.665-0.911s0.511-0.249,0.847-0.249
			c0.352,0,0.736,0.109,1.154,0.328l-0.738,1.699c-0.281-0.117-0.504-0.176-0.668-0.176c-0.313,0-0.555,0.129-0.727,0.387
			c-0.246,0.363-0.369,1.043-0.369,2.039v2.086h-2.396V129.903z"/>
		<path class="st4" d="M353.176,133.606h-4.781c0.043,0.383,0.146,0.668,0.311,0.855c0.23,0.27,0.531,0.404,0.902,0.404
			c0.234,0,0.457-0.059,0.668-0.176c0.129-0.074,0.268-0.205,0.416-0.393l2.35,0.217c-0.359,0.625-0.793,1.073-1.301,1.345
			s-1.236,0.407-2.186,0.407c-0.824,0-1.473-0.116-1.945-0.349s-0.864-0.602-1.175-1.107s-0.466-1.101-0.466-1.784
			c0-0.973,0.312-1.76,0.935-2.361s1.483-0.902,2.581-0.902c0.891,0,1.594,0.135,2.109,0.404s0.908,0.66,1.178,1.172
			s0.404,1.178,0.404,1.998V133.606z M350.75,132.464c-0.047-0.461-0.171-0.791-0.372-0.99s-0.466-0.299-0.794-0.299
			c-0.379,0-0.682,0.15-0.908,0.451c-0.145,0.188-0.236,0.467-0.275,0.838H350.75z"/>
	</g>
	<line class="st8" x1="276" y1="103" x2="361.333" y2="103"/>
	<line class="st8" x1="283.5" y1="96.833" x2="283.5" y2="150"/>
</g>
</svg>
