<?xml version="1.0" encoding="utf-8"?>
<!-- Generator: Adobe Illustrator 21.0.2, SVG Export Plug-In . SVG Version: 6.00 Build 0)  -->
<svg version="1.1" id="レイヤー_1" xmlns="http://www.w3.org/2000/svg" xmlns:xlink="http://www.w3.org/1999/xlink" x="0px"
	 y="0px" viewBox="0 0 149 148.75" style="enable-background:new 0 0 149 148.75;" xml:space="preserve">
<style type="text/css">
	.st0{fill:#5B9BD5;}
	.st1{fill-rule:evenodd;clip-rule:evenodd;fill:#5B9BD5;}
	.st2{fill:none;stroke:#41719C;stroke-miterlimit:10;}
	.st3{fill:#FFFFFF;}
	.st4{fill-rule:evenodd;clip-rule:evenodd;fill:#FFA7A7;}
	.st5{fill-rule:evenodd;clip-rule:evenodd;fill:#A9D18E;}
</style>
<path class="st0" d="M49.5,68.99l-3.37,6.75l-3.38-6.75H49.5z M47.25,41.12v29H45v-29H47.25z"/>
<rect x="10.88" y="10.38" class="st1" width="69.75" height="30.75"/>
<rect x="10.88" y="10.38" class="st2" width="69.75" height="30.75"/>
<g>
	<path class="st3" d="M16.546,31.35V18.447h5.721c1.15,0,2.024,0.116,2.623,0.348c0.598,0.232,1.077,0.641,1.435,1.228
		s0.537,1.235,0.537,1.945c0,0.916-0.296,1.687-0.889,2.315c-0.593,0.628-1.508,1.027-2.746,1.197
		c0.452,0.217,0.795,0.432,1.03,0.643c0.499,0.458,0.971,1.03,1.417,1.716l2.244,3.512H25.77l-1.708-2.685
		c-0.499-0.774-0.909-1.367-1.232-1.778c-0.323-0.411-0.612-0.698-0.867-0.862c-0.255-0.164-0.515-0.279-0.779-0.343
		c-0.193-0.041-0.51-0.062-0.951-0.062h-1.98v5.729H16.546z M18.254,24.142h3.67c0.78,0,1.391-0.081,1.831-0.242
		c0.44-0.162,0.775-0.419,1.003-0.774c0.229-0.355,0.343-0.741,0.343-1.158c0-0.61-0.221-1.112-0.665-1.505
		c-0.443-0.393-1.143-0.59-2.099-0.59h-4.083V24.142z"/>
	<path class="st3" d="M35.733,28.34l1.637,0.203c-0.258,0.957-0.736,1.699-1.435,2.227c-0.698,0.528-1.59,0.792-2.675,0.792
		c-1.368,0-2.451-0.421-3.252-1.263c-0.801-0.842-1.201-2.023-1.201-3.542c0-1.572,0.405-2.793,1.214-3.661
		c0.81-0.869,1.86-1.303,3.151-1.303c1.25,0,2.271,0.425,3.063,1.276c0.792,0.851,1.188,2.048,1.188,3.591
		c0,0.094-0.003,0.234-0.009,0.422h-6.97c0.059,1.027,0.349,1.813,0.871,2.359c0.522,0.545,1.173,0.818,1.954,0.818
		c0.581,0,1.077-0.152,1.487-0.458S35.493,29.009,35.733,28.34z M30.532,25.779h5.219c-0.071-0.786-0.27-1.376-0.599-1.769
		c-0.505-0.61-1.159-0.915-1.963-0.915c-0.728,0-1.339,0.243-1.835,0.73C30.859,24.312,30.584,24.963,30.532,25.779z"/>
	<path class="st3" d="M37.344,34.976l0.299-1.347c0.317,0.083,0.566,0.124,0.749,0.124c0.322,0,0.563-0.107,0.722-0.321
		c0.158-0.214,0.237-0.75,0.237-1.606v-9.822h1.584v9.857c0,1.15-0.15,1.951-0.449,2.403c-0.382,0.587-1.015,0.88-1.901,0.88
		C38.156,35.144,37.743,35.087,37.344,34.976z M39.35,20.287v-1.84h1.584v1.84H39.35z"/>
	<path class="st3" d="M49.763,28.34l1.637,0.203c-0.258,0.957-0.736,1.699-1.435,2.227c-0.698,0.528-1.59,0.792-2.675,0.792
		c-1.368,0-2.451-0.421-3.252-1.263c-0.801-0.842-1.201-2.023-1.201-3.542c0-1.572,0.405-2.793,1.214-3.661
		c0.81-0.869,1.86-1.303,3.151-1.303c1.25,0,2.271,0.425,3.063,1.276c0.792,0.851,1.188,2.048,1.188,3.591
		c0,0.094-0.003,0.234-0.009,0.422h-6.97c0.059,1.027,0.349,1.813,0.871,2.359c0.522,0.545,1.173,0.818,1.954,0.818
		c0.581,0,1.077-0.152,1.487-0.458S49.522,29.009,49.763,28.34z M44.561,25.779h5.219c-0.071-0.786-0.27-1.376-0.599-1.769
		c-0.505-0.61-1.159-0.915-1.963-0.915c-0.728,0-1.339,0.243-1.835,0.73C44.888,24.312,44.614,24.963,44.561,25.779z"/>
	<path class="st3" d="M59.488,27.926l1.558,0.203c-0.17,1.074-0.606,1.914-1.307,2.521s-1.562,0.911-2.583,0.911
		c-1.279,0-2.308-0.418-3.085-1.254s-1.166-2.035-1.166-3.595c0-1.009,0.167-1.893,0.501-2.649s0.844-1.324,1.527-1.703
		c0.684-0.378,1.427-0.567,2.231-0.567c1.015,0,1.845,0.257,2.491,0.77c0.646,0.514,1.059,1.243,1.241,2.187l-1.541,0.238
		c-0.146-0.628-0.406-1.1-0.779-1.417s-0.823-0.475-1.351-0.475c-0.798,0-1.446,0.286-1.945,0.858
		c-0.499,0.572-0.748,1.477-0.748,2.715c0,1.255,0.24,2.168,0.722,2.737c0.481,0.569,1.109,0.854,1.883,0.854
		c0.622,0,1.141-0.19,1.558-0.572C59.112,29.305,59.376,28.719,59.488,27.926z"/>
	<path class="st3" d="M65.86,29.933l0.229,1.399c-0.446,0.094-0.845,0.141-1.197,0.141c-0.575,0-1.021-0.091-1.337-0.272
		c-0.317-0.182-0.54-0.421-0.669-0.717c-0.129-0.296-0.194-0.92-0.194-1.871v-5.377H61.53v-1.232h1.162v-2.314l1.576-0.951v3.265
		h1.593v1.232h-1.593v5.465c0,0.452,0.028,0.743,0.083,0.872s0.146,0.232,0.273,0.308c0.126,0.076,0.306,0.114,0.541,0.114
		C65.341,29.995,65.572,29.974,65.86,29.933z"/>
	<path class="st3" d="M66.775,28.56l1.566-0.247c0.088,0.628,0.333,1.109,0.735,1.443c0.402,0.334,0.964,0.502,1.686,0.502
		c0.728,0,1.267-0.148,1.62-0.444c0.352-0.296,0.528-0.644,0.528-1.043c0-0.358-0.156-0.64-0.466-0.845
		c-0.217-0.141-0.757-0.32-1.62-0.537c-1.162-0.293-1.967-0.547-2.416-0.761c-0.449-0.214-0.789-0.511-1.021-0.889
		s-0.348-0.796-0.348-1.254c0-0.417,0.096-0.802,0.286-1.157s0.45-0.65,0.779-0.884c0.247-0.182,0.583-0.336,1.008-0.462
		c0.425-0.126,0.882-0.189,1.369-0.189c0.733,0,1.377,0.105,1.932,0.317c0.554,0.211,0.963,0.497,1.228,0.858
		s0.446,0.844,0.546,1.448l-1.549,0.211c-0.07-0.481-0.274-0.856-0.612-1.126s-0.814-0.405-1.43-0.405
		c-0.728,0-1.247,0.12-1.558,0.361c-0.311,0.24-0.466,0.522-0.466,0.845c0,0.206,0.064,0.39,0.193,0.555
		c0.129,0.17,0.332,0.311,0.607,0.422c0.158,0.059,0.625,0.193,1.399,0.405c1.121,0.299,1.902,0.544,2.346,0.735
		c0.443,0.191,0.791,0.468,1.043,0.832c0.252,0.364,0.378,0.816,0.378,1.355c0,0.528-0.154,1.025-0.462,1.492
		c-0.308,0.467-0.752,0.828-1.333,1.083c-0.581,0.255-1.238,0.383-1.972,0.383c-1.215,0-2.14-0.252-2.777-0.757
		C67.357,30.3,66.951,29.552,66.775,28.56z"/>
</g>
<g>
	<path d="M62.791,59.587l1.276-0.111c0.06,0.511,0.201,0.931,0.421,1.258s0.563,0.592,1.028,0.794
		c0.464,0.202,0.987,0.303,1.568,0.303c0.516,0,0.971-0.077,1.366-0.23c0.395-0.153,0.688-0.364,0.881-0.631s0.29-0.559,0.29-0.875
		c0-0.321-0.093-0.601-0.279-0.84c-0.186-0.239-0.493-0.44-0.92-0.603c-0.274-0.107-0.881-0.273-1.819-0.499
		c-0.939-0.226-1.596-0.438-1.973-0.638c-0.488-0.255-0.852-0.573-1.091-0.952c-0.239-0.378-0.359-0.803-0.359-1.272
		c0-0.516,0.146-0.998,0.439-1.446c0.293-0.448,0.72-0.789,1.283-1.021c0.562-0.232,1.187-0.349,1.875-0.349
		c0.757,0,1.425,0.122,2.004,0.366c0.578,0.244,1.023,0.603,1.334,1.077c0.312,0.474,0.479,1.011,0.502,1.61l-1.296,0.098
		c-0.07-0.646-0.306-1.134-0.708-1.463c-0.402-0.33-0.996-0.495-1.781-0.495c-0.818,0-1.414,0.15-1.788,0.45
		s-0.561,0.661-0.561,1.084c0,0.367,0.132,0.669,0.397,0.906c0.26,0.237,0.939,0.48,2.039,0.729s1.853,0.466,2.262,0.652
		c0.595,0.274,1.034,0.622,1.317,1.042c0.284,0.42,0.425,0.905,0.425,1.453c0,0.544-0.156,1.056-0.467,1.537
		c-0.312,0.481-0.759,0.855-1.342,1.122c-0.583,0.267-1.24,0.401-1.969,0.401c-0.925,0-1.7-0.135-2.325-0.404
		s-1.115-0.675-1.471-1.216S62.809,60.27,62.791,59.587z"/>
	<path d="M77.442,60.159l1.233,0.16c-0.135,0.851-0.479,1.516-1.035,1.997c-0.556,0.481-1.237,0.722-2.046,0.722
		c-1.013,0-1.828-0.331-2.443-0.994c-0.616-0.662-0.923-1.611-0.923-2.847c0-0.799,0.132-1.499,0.397-2.098
		c0.265-0.599,0.668-1.049,1.209-1.349c0.542-0.3,1.13-0.45,1.767-0.45c0.804,0,1.461,0.204,1.973,0.61
		c0.511,0.407,0.839,0.984,0.983,1.732l-1.22,0.188c-0.116-0.497-0.322-0.871-0.617-1.122s-0.651-0.376-1.07-0.376
		c-0.632,0-1.146,0.227-1.541,0.68s-0.592,1.17-0.592,2.15c0,0.994,0.19,1.717,0.571,2.167c0.381,0.451,0.878,0.676,1.492,0.676
		c0.493,0,0.904-0.151,1.234-0.453C77.145,61.251,77.354,60.786,77.442,60.159z"/>
	<path d="M79.282,59.169c0-1.371,0.381-2.386,1.143-3.046c0.637-0.548,1.413-0.823,2.328-0.823c1.018,0,1.849,0.333,2.495,1
		s0.969,1.588,0.969,2.764c0,0.953-0.143,1.702-0.429,2.248c-0.286,0.546-0.702,0.97-1.248,1.272
		c-0.546,0.302-1.142,0.453-1.788,0.453c-1.037,0-1.874-0.333-2.513-0.997C79.602,61.376,79.282,60.419,79.282,59.169z
		 M80.572,59.169c0,0.948,0.207,1.658,0.62,2.129s0.934,0.708,1.562,0.708c0.623,0,1.141-0.237,1.554-0.711s0.62-1.197,0.62-2.168
		c0-0.915-0.208-1.609-0.624-2.081c-0.416-0.472-0.933-0.708-1.551-0.708c-0.627,0-1.148,0.235-1.562,0.704
		S80.572,58.221,80.572,59.169z"/>
	<path d="M87.674,62.87v-7.402h1.129v1.122c0.288-0.525,0.554-0.871,0.798-1.039c0.244-0.167,0.512-0.251,0.805-0.251
		c0.423,0,0.853,0.135,1.29,0.404l-0.432,1.164c-0.307-0.181-0.613-0.272-0.92-0.272c-0.274,0-0.521,0.083-0.739,0.248
		c-0.219,0.165-0.374,0.394-0.467,0.687c-0.139,0.446-0.209,0.934-0.209,1.464v3.875H87.674z"/>
	<path d="M97.509,60.486l1.296,0.16c-0.205,0.758-0.583,1.345-1.136,1.764c-0.553,0.418-1.259,0.627-2.119,0.627
		c-1.083,0-1.941-0.333-2.576-1c-0.634-0.667-0.951-1.602-0.951-2.806c0-1.245,0.32-2.211,0.962-2.899
		c0.641-0.688,1.473-1.032,2.495-1.032c0.99,0,1.798,0.337,2.426,1.011c0.627,0.674,0.941,1.622,0.941,2.844
		c0,0.075-0.002,0.186-0.007,0.335H93.32c0.046,0.813,0.276,1.436,0.69,1.868s0.929,0.648,1.547,0.648
		c0.46,0,0.853-0.121,1.178-0.362C97.061,61.402,97.319,61.016,97.509,60.486z M93.39,58.458h4.133
		c-0.056-0.623-0.214-1.09-0.474-1.401c-0.4-0.483-0.918-0.725-1.554-0.725c-0.577,0-1.061,0.193-1.454,0.579
		S93.432,57.812,93.39,58.458z"/>
</g>
<rect x="10.88" y="76.38" class="st4" width="69.75" height="30.75"/>
<rect x="10.88" y="76.38" class="st2" width="69.75" height="30.75"/>
<g>
	<path class="st3" d="M16.546,97.35V84.447h5.721c1.15,0,2.024,0.116,2.623,0.348c0.598,0.232,1.077,0.641,1.435,1.228
		s0.537,1.235,0.537,1.945c0,0.916-0.296,1.687-0.889,2.315c-0.593,0.628-1.508,1.027-2.746,1.197
		c0.452,0.217,0.795,0.432,1.03,0.643c0.499,0.458,0.971,1.03,1.417,1.716l2.244,3.512H25.77l-1.708-2.685
		c-0.499-0.774-0.909-1.367-1.232-1.778c-0.323-0.411-0.612-0.698-0.867-0.862c-0.255-0.164-0.515-0.279-0.779-0.343
		c-0.193-0.041-0.51-0.062-0.951-0.062h-1.98v5.729H16.546z M18.254,90.142h3.67c0.78,0,1.391-0.081,1.831-0.242
		c0.44-0.162,0.775-0.419,1.003-0.774c0.229-0.355,0.343-0.741,0.343-1.158c0-0.61-0.221-1.112-0.665-1.505
		c-0.443-0.393-1.143-0.59-2.099-0.59h-4.083V90.142z"/>
	<path class="st3" d="M35.733,94.34l1.637,0.203c-0.258,0.957-0.736,1.699-1.435,2.227c-0.698,0.528-1.59,0.792-2.675,0.792
		c-1.368,0-2.451-0.421-3.252-1.263c-0.801-0.842-1.201-2.023-1.201-3.542c0-1.572,0.405-2.793,1.214-3.661
		c0.81-0.869,1.86-1.303,3.151-1.303c1.25,0,2.271,0.425,3.063,1.276c0.792,0.851,1.188,2.048,1.188,3.591
		c0,0.094-0.003,0.234-0.009,0.422h-6.97c0.059,1.027,0.349,1.813,0.871,2.359c0.522,0.545,1.173,0.818,1.954,0.818
		c0.581,0,1.077-0.152,1.487-0.458S35.493,95.009,35.733,94.34z M30.532,91.779h5.219c-0.071-0.786-0.27-1.376-0.599-1.769
		c-0.505-0.61-1.159-0.915-1.963-0.915c-0.728,0-1.339,0.243-1.835,0.73C30.859,90.312,30.584,90.963,30.532,91.779z"/>
	<path class="st3" d="M37.344,100.976l0.299-1.347c0.317,0.083,0.566,0.124,0.749,0.124c0.322,0,0.563-0.107,0.722-0.321
		c0.158-0.214,0.237-0.75,0.237-1.606v-9.822h1.584v9.857c0,1.15-0.15,1.951-0.449,2.403c-0.382,0.587-1.015,0.88-1.901,0.88
		C38.156,101.144,37.743,101.087,37.344,100.976z M39.35,86.287v-1.84h1.584v1.84H39.35z"/>
	<path class="st3" d="M49.763,94.34l1.637,0.203c-0.258,0.957-0.736,1.699-1.435,2.227c-0.698,0.528-1.59,0.792-2.675,0.792
		c-1.368,0-2.451-0.421-3.252-1.263c-0.801-0.842-1.201-2.023-1.201-3.542c0-1.572,0.405-2.793,1.214-3.661
		c0.81-0.869,1.86-1.303,3.151-1.303c1.25,0,2.271,0.425,3.063,1.276c0.792,0.851,1.188,2.048,1.188,3.591
		c0,0.094-0.003,0.234-0.009,0.422h-6.97c0.059,1.027,0.349,1.813,0.871,2.359c0.522,0.545,1.173,0.818,1.954,0.818
		c0.581,0,1.077-0.152,1.487-0.458S49.522,95.009,49.763,94.34z M44.561,91.779h5.219c-0.071-0.786-0.27-1.376-0.599-1.769
		c-0.505-0.61-1.159-0.915-1.963-0.915c-0.728,0-1.339,0.243-1.835,0.73C44.888,90.312,44.614,90.963,44.561,91.779z"/>
	<path class="st3" d="M59.488,93.926l1.558,0.203c-0.17,1.074-0.606,1.914-1.307,2.521s-1.562,0.911-2.583,0.911
		c-1.279,0-2.308-0.418-3.085-1.254s-1.166-2.035-1.166-3.595c0-1.009,0.167-1.893,0.501-2.649s0.844-1.324,1.527-1.703
		c0.684-0.378,1.427-0.567,2.231-0.567c1.015,0,1.845,0.257,2.491,0.77c0.646,0.514,1.059,1.243,1.241,2.187l-1.541,0.238
		c-0.146-0.628-0.406-1.1-0.779-1.417s-0.823-0.475-1.351-0.475c-0.798,0-1.446,0.286-1.945,0.858
		c-0.499,0.572-0.748,1.477-0.748,2.715c0,1.255,0.24,2.168,0.722,2.737c0.481,0.569,1.109,0.854,1.883,0.854
		c0.622,0,1.141-0.19,1.558-0.572C59.112,95.305,59.376,94.719,59.488,93.926z"/>
	<path class="st3" d="M65.86,95.933l0.229,1.399c-0.446,0.094-0.845,0.141-1.197,0.141c-0.575,0-1.021-0.091-1.337-0.272
		c-0.317-0.182-0.54-0.421-0.669-0.717c-0.129-0.296-0.194-0.92-0.194-1.871v-5.377H61.53v-1.232h1.162v-2.314l1.576-0.951v3.265
		h1.593v1.232h-1.593v5.465c0,0.452,0.028,0.743,0.083,0.872s0.146,0.232,0.273,0.308c0.126,0.076,0.306,0.114,0.541,0.114
		C65.341,95.995,65.572,95.974,65.86,95.933z"/>
	<path class="st3" d="M66.775,94.56l1.566-0.247c0.088,0.628,0.333,1.109,0.735,1.443c0.402,0.334,0.964,0.502,1.686,0.502
		c0.728,0,1.267-0.148,1.62-0.444c0.352-0.296,0.528-0.644,0.528-1.043c0-0.358-0.156-0.64-0.466-0.845
		c-0.217-0.141-0.757-0.32-1.62-0.537c-1.162-0.293-1.967-0.547-2.416-0.761c-0.449-0.214-0.789-0.511-1.021-0.889
		s-0.348-0.796-0.348-1.254c0-0.417,0.096-0.802,0.286-1.157s0.45-0.65,0.779-0.884c0.247-0.182,0.583-0.336,1.008-0.462
		c0.425-0.126,0.882-0.189,1.369-0.189c0.733,0,1.377,0.105,1.932,0.317c0.554,0.211,0.963,0.497,1.228,0.858
		s0.446,0.844,0.546,1.448l-1.549,0.211c-0.07-0.481-0.274-0.856-0.612-1.126s-0.814-0.405-1.43-0.405
		c-0.728,0-1.247,0.12-1.558,0.361c-0.311,0.24-0.466,0.522-0.466,0.845c0,0.206,0.064,0.39,0.193,0.555
		c0.129,0.17,0.332,0.311,0.607,0.422c0.158,0.059,0.625,0.193,1.399,0.405c1.121,0.299,1.902,0.544,2.346,0.735
		c0.443,0.191,0.791,0.468,1.043,0.832c0.252,0.364,0.378,0.816,0.378,1.355c0,0.528-0.154,1.025-0.462,1.492
		c-0.308,0.467-0.752,0.828-1.333,1.083c-0.581,0.255-1.238,0.383-1.972,0.383c-1.215,0-2.14-0.252-2.777-0.757
		C67.357,96.3,66.951,95.552,66.775,94.56z"/>
</g>
<rect x="80.63" y="10.38" class="st2" width="57.75" height="30.75"/>
<g>
	<path d="M92.045,32.09v-8.625h0.963v0.811c0.227-0.317,0.483-0.555,0.77-0.713c0.286-0.159,0.632-0.238,1.039-0.238
		c0.532,0,1.002,0.137,1.409,0.411s0.714,0.66,0.922,1.16c0.208,0.499,0.311,1.046,0.311,1.641c0,0.638-0.114,1.212-0.343,1.723
		s-0.562,0.902-0.998,1.174s-0.896,0.408-1.377,0.408c-0.353,0-0.668-0.075-0.948-0.223c-0.28-0.149-0.51-0.337-0.69-0.564v3.036
		H92.045z M93.002,26.618c0,0.802,0.163,1.396,0.488,1.779c0.325,0.384,0.718,0.576,1.18,0.576c0.47,0,0.872-0.199,1.207-0.596
		c0.334-0.397,0.502-1.013,0.502-1.847c0-0.794-0.164-1.389-0.49-1.785c-0.327-0.396-0.717-0.593-1.171-0.593
		c-0.45,0-0.849,0.21-1.195,0.631C93.175,25.204,93.002,25.815,93.002,26.618z"/>
	<path d="M100.752,32.231c-0.583-0.736-1.077-1.597-1.479-2.583c-0.403-0.986-0.605-2.008-0.605-3.065
		c0-0.932,0.151-1.824,0.452-2.678c0.353-0.99,0.896-1.977,1.632-2.959h0.757c-0.474,0.814-0.787,1.396-0.939,1.744
		c-0.239,0.54-0.427,1.104-0.563,1.691c-0.168,0.732-0.252,1.468-0.252,2.208c0,1.883,0.585,3.764,1.755,5.643H100.752z"/>
	<path d="M102.825,29.7v-8.608h3.229c0.657,0,1.185,0.087,1.582,0.261c0.397,0.174,0.709,0.442,0.934,0.805
		c0.226,0.362,0.338,0.741,0.338,1.136c0,0.368-0.1,0.714-0.3,1.039c-0.199,0.325-0.501,0.587-0.904,0.787
		c0.521,0.153,0.921,0.413,1.201,0.781c0.279,0.368,0.42,0.802,0.42,1.303c0,0.403-0.085,0.778-0.256,1.125
		c-0.17,0.347-0.381,0.614-0.631,0.802c-0.251,0.188-0.564,0.33-0.942,0.425c-0.378,0.096-0.841,0.144-1.389,0.144H102.825z
		 M103.964,24.709h1.861c0.505,0,0.867-0.033,1.085-0.1c0.29-0.086,0.509-0.229,0.655-0.429c0.146-0.199,0.22-0.45,0.22-0.751
		c0-0.286-0.068-0.537-0.205-0.754s-0.333-0.366-0.587-0.446c-0.255-0.08-0.691-0.12-1.31-0.12h-1.72V24.709z M103.964,28.685h2.143
		c0.368,0,0.626-0.014,0.774-0.041c0.263-0.047,0.482-0.125,0.658-0.235c0.176-0.109,0.321-0.269,0.435-0.479
		c0.113-0.209,0.17-0.451,0.17-0.725c0-0.321-0.082-0.6-0.246-0.836c-0.165-0.237-0.393-0.403-0.685-0.499
		c-0.291-0.096-0.711-0.144-1.259-0.144h-1.99V28.685z"/>
	<path d="M114.826,28.931c-0.392,0.333-0.768,0.567-1.13,0.705c-0.362,0.137-0.751,0.206-1.166,0.206
		c-0.685,0-1.211-0.167-1.579-0.502c-0.368-0.334-0.552-0.762-0.552-1.283c0-0.305,0.069-0.584,0.208-0.837
		c0.14-0.252,0.321-0.455,0.547-0.607c0.225-0.153,0.479-0.268,0.76-0.347c0.208-0.055,0.521-0.107,0.939-0.158
		c0.854-0.102,1.481-0.223,1.885-0.364c0.004-0.145,0.006-0.237,0.006-0.276c0-0.431-0.1-0.734-0.299-0.91
		c-0.271-0.239-0.672-0.358-1.204-0.358c-0.497,0-0.864,0.087-1.101,0.261c-0.237,0.174-0.412,0.482-0.525,0.925l-1.034-0.141
		c0.095-0.442,0.249-0.799,0.464-1.072c0.216-0.272,0.526-0.481,0.934-0.628c0.407-0.147,0.879-0.22,1.415-0.22
		c0.532,0,0.965,0.063,1.298,0.188c0.333,0.125,0.577,0.283,0.734,0.473c0.156,0.19,0.266,0.43,0.328,0.719
		c0.035,0.18,0.053,0.505,0.053,0.975v1.409c0,0.982,0.022,1.604,0.068,1.864c0.045,0.26,0.134,0.51,0.267,0.749h-1.104
		C114.929,29.481,114.857,29.225,114.826,28.931z M114.738,26.571c-0.384,0.156-0.959,0.29-1.727,0.399
		c-0.434,0.063-0.741,0.133-0.921,0.211c-0.181,0.079-0.319,0.193-0.417,0.344c-0.099,0.15-0.147,0.318-0.147,0.502
		c0,0.282,0.106,0.517,0.32,0.705c0.213,0.188,0.525,0.282,0.937,0.282c0.407,0,0.77-0.089,1.086-0.267
		c0.317-0.178,0.55-0.422,0.699-0.731c0.113-0.239,0.17-0.591,0.17-1.057V26.571z"/>
	<path d="M121.491,29.7v-0.787c-0.396,0.618-0.977,0.928-1.743,0.928c-0.498,0-0.954-0.137-1.371-0.411s-0.74-0.657-0.969-1.148
		c-0.229-0.491-0.344-1.056-0.344-1.694c0-0.623,0.104-1.187,0.312-1.694c0.207-0.507,0.519-0.896,0.934-1.166
		c0.414-0.271,0.878-0.405,1.391-0.405c0.376,0,0.711,0.079,1.005,0.238c0.293,0.159,0.532,0.365,0.716,0.619v-3.088h1.051V29.7
		H121.491z M118.15,26.588c0,0.798,0.168,1.396,0.505,1.791c0.337,0.396,0.734,0.593,1.192,0.593c0.462,0,0.854-0.189,1.177-0.567
		c0.323-0.377,0.484-0.954,0.484-1.729c0-0.853-0.164-1.479-0.493-1.879c-0.328-0.399-0.733-0.599-1.215-0.599
		c-0.47,0-0.862,0.191-1.178,0.575S118.15,25.762,118.15,26.588z"/>
	<path d="M124.826,32.231h-0.757c1.17-1.879,1.755-3.76,1.755-5.643c0-0.736-0.084-1.466-0.252-2.19
		c-0.134-0.587-0.319-1.15-0.558-1.691c-0.153-0.352-0.468-0.939-0.945-1.761h0.757c0.736,0.982,1.28,1.969,1.633,2.959
		c0.301,0.854,0.452,1.746,0.452,2.678c0,1.057-0.203,2.079-0.608,3.065S125.405,31.495,124.826,32.231z"/>
</g>
<rect x="80.63" y="76.38" class="st2" width="57.75" height="30.75"/>
<g>
	<path d="M92.053,95.7l-1.904-6.223h1.09l0.99,3.592l0.369,1.336c0.016-0.066,0.123-0.494,0.322-1.283l0.99-3.645h1.084l0.932,3.609
		l0.311,1.189l0.357-1.201l1.066-3.598h1.025L96.741,95.7h-1.096l-0.99-3.727l-0.24-1.061l-1.26,4.787H92.053z"/>
	<path d="M101.586,98.226c-0.582-0.734-1.074-1.594-1.477-2.578s-0.604-2.004-0.604-3.059c0-0.93,0.15-1.82,0.451-2.672
		c0.352-0.988,0.895-1.973,1.629-2.953h0.756c-0.473,0.813-0.785,1.393-0.938,1.74c-0.238,0.539-0.426,1.102-0.563,1.688
		c-0.168,0.73-0.252,1.465-0.252,2.203c0,1.879,0.584,3.756,1.752,5.631H101.586z"/>
	<path d="M103.655,95.7v-8.59h3.223c0.656,0,1.182,0.087,1.578,0.261s0.707,0.441,0.932,0.803s0.338,0.739,0.338,1.134
		c0,0.367-0.1,0.713-0.299,1.037s-0.5,0.586-0.902,0.785c0.52,0.152,0.918,0.412,1.197,0.779s0.42,0.801,0.42,1.301
		c0,0.402-0.086,0.776-0.256,1.122s-0.379,0.612-0.629,0.8s-0.564,0.329-0.941,0.425s-0.838,0.144-1.385,0.144H103.655z
		 M104.792,90.72h1.858c0.504,0,0.865-0.033,1.084-0.1c0.289-0.086,0.506-0.229,0.652-0.428s0.221-0.449,0.221-0.75
		c0-0.285-0.068-0.536-0.205-0.753s-0.332-0.365-0.586-0.445s-0.689-0.12-1.307-0.12h-1.717V90.72z M104.792,94.687h2.139
		c0.367,0,0.625-0.014,0.773-0.041c0.262-0.047,0.48-0.125,0.656-0.234s0.32-0.269,0.434-0.478s0.17-0.45,0.17-0.724
		c0-0.32-0.082-0.599-0.246-0.835s-0.393-0.402-0.684-0.498s-0.709-0.144-1.256-0.144h-1.987V94.687z"/>
	<path d="M115.632,94.933c-0.391,0.332-0.767,0.566-1.128,0.703s-0.749,0.205-1.163,0.205c-0.684,0-1.209-0.167-1.576-0.501
		s-0.551-0.761-0.551-1.28c0-0.305,0.069-0.583,0.208-0.835s0.32-0.454,0.545-0.606s0.478-0.268,0.759-0.346
		c0.207-0.055,0.52-0.107,0.938-0.158c0.852-0.102,1.479-0.223,1.881-0.363c0.004-0.145,0.006-0.236,0.006-0.275
		c0-0.43-0.1-0.732-0.299-0.908c-0.27-0.238-0.67-0.357-1.201-0.357c-0.496,0-0.862,0.087-1.099,0.261s-0.411,0.481-0.524,0.923
		l-1.031-0.141c0.094-0.441,0.248-0.798,0.463-1.069s0.525-0.48,0.932-0.627s0.877-0.22,1.412-0.22c0.531,0,0.963,0.063,1.295,0.188
		s0.576,0.282,0.732,0.472s0.266,0.429,0.328,0.718c0.035,0.18,0.053,0.504,0.053,0.973v1.406c0,0.98,0.022,1.601,0.067,1.86
		s0.134,0.509,0.267,0.747h-1.102C115.733,95.481,115.663,95.226,115.632,94.933z M115.544,92.577
		c-0.383,0.156-0.957,0.289-1.723,0.398c-0.434,0.063-0.74,0.133-0.92,0.211s-0.318,0.192-0.416,0.343s-0.146,0.317-0.146,0.501
		c0,0.281,0.106,0.516,0.319,0.703s0.524,0.281,0.935,0.281c0.406,0,0.768-0.089,1.084-0.267s0.549-0.421,0.697-0.729
		c0.113-0.238,0.17-0.59,0.17-1.055V92.577z"/>
	<path d="M122.282,95.7v-0.785c-0.395,0.617-0.975,0.926-1.74,0.926c-0.496,0-0.952-0.137-1.368-0.41s-0.738-0.655-0.967-1.146
		s-0.343-1.054-0.343-1.69c0-0.621,0.104-1.185,0.311-1.69s0.518-0.894,0.932-1.163s0.877-0.404,1.389-0.404
		c0.375,0,0.709,0.079,1.002,0.237s0.531,0.364,0.715,0.618V87.11h1.049v8.59H122.282z M118.948,92.595
		c0,0.797,0.168,1.393,0.504,1.787s0.732,0.592,1.189,0.592c0.461,0,0.853-0.188,1.175-0.565s0.483-0.952,0.483-1.726
		c0-0.852-0.164-1.477-0.492-1.875s-0.732-0.598-1.213-0.598c-0.469,0-0.86,0.191-1.175,0.574S118.948,91.771,118.948,92.595z"/>
	<path d="M125.61,98.226h-0.756c1.168-1.875,1.752-3.752,1.752-5.631c0-0.734-0.084-1.463-0.252-2.186
		c-0.133-0.586-0.318-1.148-0.557-1.688c-0.152-0.352-0.467-0.938-0.943-1.758h0.756c0.734,0.98,1.277,1.965,1.629,2.953
		c0.301,0.852,0.451,1.742,0.451,2.672c0,1.055-0.202,2.074-0.606,3.059S126.188,97.491,125.61,98.226z"/>
</g>
<rect x="10.88" y="107.13" class="st5" width="69.75" height="31.5"/>
<rect x="10.88" y="107.13" class="st2" width="69.75" height="31.5"/>
<g>
	<path class="st3" d="M16.546,128.68v-12.902h5.721c1.15,0,2.024,0.115,2.623,0.348c0.598,0.231,1.077,0.641,1.435,1.228
		s0.537,1.235,0.537,1.945c0,0.915-0.296,1.687-0.889,2.314c-0.593,0.628-1.508,1.026-2.746,1.197
		c0.452,0.217,0.795,0.431,1.03,0.643c0.499,0.457,0.971,1.029,1.417,1.716l2.244,3.512H25.77l-1.708-2.685
		c-0.499-0.774-0.909-1.367-1.232-1.777c-0.323-0.411-0.612-0.698-0.867-0.863c-0.255-0.164-0.515-0.278-0.779-0.343
		c-0.193-0.041-0.51-0.062-0.951-0.062h-1.98v5.729H16.546z M18.254,121.472h3.67c0.78,0,1.391-0.081,1.831-0.242
		c0.44-0.161,0.775-0.42,1.003-0.774c0.229-0.355,0.343-0.741,0.343-1.157c0-0.61-0.221-1.112-0.665-1.505
		c-0.443-0.394-1.143-0.59-2.099-0.59h-4.083V121.472z"/>
	<path class="st3" d="M35.733,125.67l1.637,0.202c-0.258,0.956-0.736,1.698-1.435,2.227s-1.59,0.792-2.675,0.792
		c-1.368,0-2.451-0.421-3.252-1.263c-0.801-0.842-1.201-2.022-1.201-3.543c0-1.572,0.405-2.792,1.214-3.661
		c0.81-0.868,1.86-1.303,3.151-1.303c1.25,0,2.271,0.426,3.063,1.276s1.188,2.048,1.188,3.591c0,0.095-0.003,0.235-0.009,0.423
		h-6.97c0.059,1.026,0.349,1.813,0.871,2.358c0.522,0.546,1.173,0.818,1.954,0.818c0.581,0,1.077-0.152,1.487-0.457
		C35.167,126.825,35.493,126.339,35.733,125.67z M30.532,123.108h5.219c-0.071-0.786-0.27-1.376-0.599-1.769
		c-0.505-0.61-1.159-0.916-1.963-0.916c-0.728,0-1.339,0.244-1.835,0.73C30.859,121.642,30.584,122.293,30.532,123.108z"/>
	<path class="st3" d="M37.344,132.306l0.299-1.347c0.317,0.082,0.566,0.123,0.749,0.123c0.322,0,0.563-0.106,0.722-0.321
		c0.158-0.214,0.237-0.749,0.237-1.605v-9.822h1.584v9.857c0,1.149-0.15,1.95-0.449,2.402c-0.382,0.587-1.015,0.88-1.901,0.88
		C38.156,132.473,37.743,132.417,37.344,132.306z M39.35,117.616v-1.839h1.584v1.839H39.35z"/>
	<path class="st3" d="M49.763,125.67l1.637,0.202c-0.258,0.956-0.736,1.698-1.435,2.227s-1.59,0.792-2.675,0.792
		c-1.368,0-2.451-0.421-3.252-1.263c-0.801-0.842-1.201-2.022-1.201-3.543c0-1.572,0.405-2.792,1.214-3.661
		c0.81-0.868,1.86-1.303,3.151-1.303c1.25,0,2.271,0.426,3.063,1.276s1.188,2.048,1.188,3.591c0,0.095-0.003,0.235-0.009,0.423
		h-6.97c0.059,1.026,0.349,1.813,0.871,2.358c0.522,0.546,1.173,0.818,1.954,0.818c0.581,0,1.077-0.152,1.487-0.457
		C49.196,126.825,49.522,126.339,49.763,125.67z M44.561,123.108h5.219c-0.071-0.786-0.27-1.376-0.599-1.769
		c-0.505-0.61-1.159-0.916-1.963-0.916c-0.728,0-1.339,0.244-1.835,0.73C44.888,121.642,44.614,122.293,44.561,123.108z"/>
	<path class="st3" d="M59.488,125.256l1.558,0.202c-0.17,1.074-0.606,1.915-1.307,2.522c-0.701,0.606-1.562,0.91-2.583,0.91
		c-1.279,0-2.308-0.418-3.085-1.254s-1.166-2.034-1.166-3.596c0-1.009,0.167-1.892,0.501-2.648s0.844-1.325,1.527-1.703
		c0.684-0.379,1.427-0.568,2.231-0.568c1.015,0,1.845,0.257,2.491,0.771s1.059,1.242,1.241,2.188l-1.541,0.237
		c-0.146-0.628-0.406-1.101-0.779-1.417c-0.373-0.317-0.823-0.476-1.351-0.476c-0.798,0-1.446,0.286-1.945,0.858
		c-0.499,0.572-0.748,1.478-0.748,2.715c0,1.256,0.24,2.169,0.722,2.737c0.481,0.569,1.109,0.854,1.883,0.854
		c0.622,0,1.141-0.19,1.558-0.571C59.112,126.635,59.376,126.048,59.488,125.256z"/>
	<path class="st3" d="M65.86,127.263l0.229,1.399c-0.446,0.094-0.845,0.141-1.197,0.141c-0.575,0-1.021-0.091-1.337-0.272
		s-0.54-0.421-0.669-0.718c-0.129-0.296-0.194-0.92-0.194-1.87v-5.378H61.53v-1.231h1.162v-2.315l1.576-0.95v3.266h1.593v1.231
		h-1.593v5.466c0,0.452,0.028,0.742,0.083,0.871c0.056,0.13,0.146,0.232,0.273,0.309c0.126,0.076,0.306,0.114,0.541,0.114
		C65.341,127.324,65.572,127.304,65.86,127.263z"/>
	<path class="st3" d="M66.775,125.89l1.566-0.246c0.088,0.628,0.333,1.108,0.735,1.443c0.402,0.334,0.964,0.501,1.686,0.501
		c0.728,0,1.267-0.147,1.62-0.444c0.352-0.296,0.528-0.644,0.528-1.043c0-0.357-0.156-0.639-0.466-0.845
		c-0.217-0.141-0.757-0.319-1.62-0.537c-1.162-0.293-1.967-0.547-2.416-0.761s-0.789-0.511-1.021-0.889
		c-0.232-0.379-0.348-0.797-0.348-1.255c0-0.416,0.096-0.802,0.286-1.157c0.19-0.354,0.45-0.649,0.779-0.885
		c0.247-0.182,0.583-0.336,1.008-0.462s0.882-0.189,1.369-0.189c0.733,0,1.377,0.106,1.932,0.317
		c0.554,0.211,0.963,0.497,1.228,0.858c0.264,0.36,0.446,0.843,0.546,1.447l-1.549,0.211c-0.07-0.48-0.274-0.856-0.612-1.126
		s-0.814-0.405-1.43-0.405c-0.728,0-1.247,0.12-1.558,0.361c-0.311,0.24-0.466,0.522-0.466,0.845c0,0.205,0.064,0.391,0.193,0.555
		c0.129,0.17,0.332,0.311,0.607,0.422c0.158,0.06,0.625,0.194,1.399,0.405c1.121,0.299,1.902,0.544,2.346,0.734
		c0.443,0.191,0.791,0.469,1.043,0.832c0.252,0.364,0.378,0.815,0.378,1.355c0,0.528-0.154,1.025-0.462,1.492
		c-0.308,0.466-0.752,0.827-1.333,1.082c-0.581,0.256-1.238,0.383-1.972,0.383c-1.215,0-2.14-0.252-2.777-0.757
		C67.357,127.63,66.951,126.881,66.775,125.89z"/>
</g>
<rect x="80.63" y="107.13" class="st2" width="57.75" height="31.5"/>
<g>
	<path d="M88.777,127.02l-1.908-6.235h1.092l0.992,3.599l0.37,1.339c0.016-0.066,0.123-0.495,0.323-1.286l0.992-3.651h1.086
		l0.934,3.616l0.311,1.192l0.358-1.204l1.068-3.604h1.028l-1.95,6.235h-1.098l-0.993-3.734l-0.241-1.063l-1.262,4.797H88.777z"/>
	<path d="M98.33,129.55c-0.583-0.735-1.077-1.597-1.479-2.583c-0.403-0.986-0.605-2.008-0.605-3.065
		c0-0.932,0.151-1.823,0.452-2.677c0.353-0.99,0.896-1.977,1.632-2.96h0.757c-0.474,0.814-0.787,1.396-0.939,1.744
		c-0.239,0.54-0.427,1.104-0.563,1.691c-0.168,0.731-0.252,1.468-0.252,2.207c0,1.883,0.585,3.764,1.755,5.643H98.33z"/>
	<path d="M104.478,123.644v-1.01l3.646-0.006v3.193c-0.559,0.446-1.137,0.782-1.731,1.008c-0.595,0.225-1.206,0.337-1.832,0.337
		c-0.845,0-1.614-0.181-2.304-0.543c-0.691-0.362-1.213-0.886-1.565-1.57c-0.353-0.686-0.528-1.45-0.528-2.296
		c0-0.838,0.175-1.619,0.525-2.346c0.35-0.727,0.854-1.266,1.512-1.618c0.658-0.352,1.415-0.528,2.272-0.528
		c0.623,0,1.185,0.102,1.688,0.303c0.502,0.201,0.897,0.482,1.184,0.843c0.285,0.36,0.502,0.83,0.65,1.409l-1.027,0.281
		c-0.129-0.438-0.289-0.782-0.48-1.033c-0.192-0.25-0.466-0.451-0.823-0.602c-0.356-0.15-0.751-0.227-1.186-0.227
		c-0.521,0-0.971,0.08-1.351,0.238c-0.379,0.158-0.686,0.367-0.919,0.625c-0.233,0.259-0.414,0.542-0.543,0.852
		c-0.219,0.532-0.329,1.109-0.329,1.732c0,0.767,0.132,1.409,0.396,1.926c0.265,0.517,0.649,0.9,1.154,1.15
		c0.505,0.251,1.042,0.376,1.609,0.376c0.493,0,0.975-0.095,1.444-0.284c0.47-0.19,0.826-0.393,1.068-0.608v-1.603H104.478z"/>
	<path d="M109.274,123.901c0-1.154,0.32-2.01,0.963-2.565c0.536-0.462,1.189-0.693,1.961-0.693c0.857,0,1.558,0.281,2.103,0.843
		c0.544,0.562,0.815,1.338,0.815,2.328c0,0.803-0.12,1.434-0.36,1.894c-0.241,0.46-0.592,0.817-1.052,1.071
		c-0.46,0.255-0.962,0.382-1.506,0.382c-0.873,0-1.578-0.279-2.116-0.839C109.543,125.761,109.274,124.955,109.274,123.901z
		 M110.36,123.901c0,0.799,0.174,1.396,0.522,1.794s0.787,0.596,1.315,0.596c0.524,0,0.961-0.199,1.31-0.599
		s0.522-1.008,0.522-1.826c0-0.771-0.175-1.355-0.525-1.752c-0.351-0.397-0.786-0.597-1.307-0.597c-0.528,0-0.967,0.198-1.315,0.594
		C110.534,122.506,110.36,123.104,110.36,123.901z"/>
	<path d="M115.963,123.901c0-1.154,0.32-2.01,0.963-2.565c0.536-0.462,1.189-0.693,1.961-0.693c0.857,0,1.558,0.281,2.103,0.843
		c0.544,0.562,0.815,1.338,0.815,2.328c0,0.803-0.12,1.434-0.36,1.894c-0.241,0.46-0.592,0.817-1.052,1.071
		c-0.46,0.255-0.962,0.382-1.506,0.382c-0.873,0-1.578-0.279-2.116-0.839C116.231,125.761,115.963,124.955,115.963,123.901z
		 M117.049,123.901c0,0.799,0.174,1.396,0.522,1.794s0.787,0.596,1.315,0.596c0.524,0,0.961-0.199,1.31-0.599
		s0.522-1.008,0.522-1.826c0-0.771-0.175-1.355-0.525-1.752c-0.351-0.397-0.786-0.597-1.307-0.597c-0.528,0-0.967,0.198-1.315,0.594
		C117.223,122.506,117.049,123.104,117.049,123.901z"/>
	<path d="M127.089,127.02v-0.787c-0.396,0.619-0.977,0.928-1.743,0.928c-0.498,0-0.954-0.137-1.371-0.411
		c-0.417-0.273-0.74-0.656-0.969-1.147c-0.229-0.491-0.344-1.056-0.344-1.694c0-0.622,0.104-1.187,0.312-1.693
		c0.207-0.507,0.519-0.896,0.934-1.166c0.414-0.27,0.878-0.405,1.391-0.405c0.376,0,0.711,0.08,1.005,0.238
		c0.293,0.158,0.532,0.365,0.716,0.619v-3.088h1.051v8.607H127.089z M123.748,123.907c0,0.799,0.168,1.396,0.505,1.791
		s0.734,0.593,1.192,0.593c0.462,0,0.854-0.188,1.177-0.566c0.323-0.378,0.484-0.954,0.484-1.729c0-0.854-0.164-1.48-0.493-1.879
		c-0.328-0.399-0.733-0.6-1.215-0.6c-0.47,0-0.862,0.192-1.178,0.576C123.905,122.477,123.748,123.082,123.748,123.907z"/>
	<path d="M130.424,129.55h-0.757c1.17-1.879,1.755-3.76,1.755-5.643c0-0.735-0.084-1.466-0.252-2.189
		c-0.134-0.588-0.319-1.151-0.558-1.691c-0.153-0.353-0.468-0.939-0.945-1.762h0.757c0.736,0.983,1.28,1.97,1.633,2.96
		c0.301,0.854,0.452,1.745,0.452,2.677c0,1.058-0.203,2.079-0.608,3.065S131.003,128.814,130.424,129.55z"/>
</g>
</svg>
