<?xml version="1.0" encoding="utf-8"?>
<!-- Generator: Adobe Illustrator 21.0.2, SVG Export Plug-In . SVG Version: 6.00 Build 0)  -->
<svg version="1.1" xmlns="http://www.w3.org/2000/svg" xmlns:xlink="http://www.w3.org/1999/xlink" x="0px" y="0px" viewBox="0 0 461 461" style="enable-background:new 0 0 461 461;" xml:space="preserve">
<style type="text/css">
	.st0{fill:#BFBFBF;}
	.st1{fill-rule:evenodd;clip-rule:evenodd;fill:#D9D9D9;}
	.st2{fill:#A6A6A6;}
	.st3{fill:#B5B5B5;}
	.st4{fill:#DCE6F2;stroke:#95B3D7;stroke-width:4.32;stroke-linejoin:round;stroke-miterlimit:10;}
	.st5{fill:#4F81BD;}
	.st6{fill:#FDEADA;stroke:#FAC090;stroke-width:4.32;stroke-linejoin:round;stroke-miterlimit:10;}
	.st7{fill:#F79646;}
	
		.st8{fill-rule:evenodd;clip-rule:evenodd;fill:#EBF1DE;stroke:#C3D69B;stroke-width:4.32;stroke-linejoin:round;stroke-miterlimit:10;}
	.st9{fill:#77933C;}
	.st10{fill:#F2DCDB;stroke:#D99694;stroke-width:4.32;stroke-linejoin:round;stroke-miterlimit:10;}
	.st11{fill:#C0504D;}
	.st12{fill:#E6E0EC;stroke:#B3A2C7;stroke-width:4.32;stroke-linejoin:round;stroke-miterlimit:10;}
	.st13{fill:#8064A2;}
	.st14{fill:#DBEEF4;stroke:#93CDDD;stroke-width:4.32;stroke-linejoin:round;stroke-miterlimit:10;}
	.st15{fill:#4BACC6;}
</style>
<g id="レイヤー_1">
	<path class="st0" d="M368.9,146.3l-8.5,16.2l-13.1-12.7L368.9,146.3z M296.6,104.9l3.3,0.1l3.4,0.2l3.4,0.4l3.3,0.5l3.2,0.6
		l3.2,0.8l3.1,0.9l3.1,1l3,1.1l2.9,1.3l2.8,1.4l2.7,1.5l2.6,1.6l2.5,1.7l2.5,1.8l2.4,1.9l2.2,2l2.1,2.1l2,2.2l1.9,2.2l1.8,2.3
		l1.6,2.4l1.5,2.5l1.4,2.5l1.2,2.6l1.1,2.7c0.1,0.2,0.1,0.4,0.2,0.6l1.1,5.2c0.4,2-0.8,3.9-2.8,4.3c-2,0.4-3.9-0.8-4.3-2.8l-1.1-5.2
		l0.2,0.6l-0.9-2.3l-1.1-2.3L351,141l-1.3-2.1l-1.4-2.1l-1.5-2l-1.7-2l-1.8-1.9l-1.9-1.9l-2-1.8l-2.1-1.7l-2.2-1.6l-2.3-1.5
		l-2.3-1.4l-2.4-1.3l-2.5-1.2l-2.6-1.1l-2.7-1l-2.8-0.9l-2.8-0.8l-2.9-0.7l-2.9-0.6l-3-0.5l-3-0.3l-3.1-0.2l-3.3-0.1
		c-2,0-3.6-1.7-3.6-3.7S294.6,104.9,296.6,104.9z"/>
	<path class="st0" d="M307.6,374.4l-15.7-9.4l13.4-12.4L307.6,374.4z M364.1,298.1l-0.1,3.4l-0.3,3.6l-0.5,3.5l-0.6,3.5l-0.8,3.4
		l-1,3.4l-1.1,3.3l-1.3,3.2l-1.4,3.1l-1.6,3.1l-1.7,3l-1.9,2.9l-2,2.8l-2.2,2.7l-2.3,2.6L343,348l-2.5,2.3l-2.6,2.2l-2.7,2.1l-2.8,2
		l-2.9,1.9l-3,1.7l-3.1,1.6l-3.2,1.4l-3.3,1.3l-3.4,1.1l-3.4,1l-6.6,1.1c-2,0.3-3.9-1.1-4.2-3.1c-0.3-2,1.1-3.9,3-4.2l5.8-0.9
		l3.1-0.8l3-1l3-1.2l2.9-1.3l2.8-1.4l2.7-1.5l2.6-1.6l2.5-1.8l2.4-1.9l2.4-2l2.3-2.1l2.2-2.2l2-2.3l1.9-2.4l1.8-2.5l1.7-2.6l1.6-2.7
		l1.4-2.7l1.3-2.8l1.2-2.9l1-3l0.9-3l0.7-3.1l0.6-3.1l0.4-3.2l0.3-3.2l0.1-3.4c0.1-2,1.7-3.6,3.7-3.6S364.1,296,364.1,298.1z"/>
	<path class="st0" d="M77.5,271.7l10-15.3l11.9,13.9L77.5,271.7z M198.8,371.4l-2.9,0l-3-0.1l-2.9-0.2l-2.9-0.3l-2.9-0.3l-2.9-0.4
		l-2.8-0.5l-2.8-0.5l-2.8-0.6l-2.8-0.7l-2.7-0.7l-2.7-0.8l-2.7-0.9l-2.7-1l-2.6-1l-2.6-1.1l-2.6-1.1l-2.5-1.2l-2.5-1.2l-2.5-1.3
		l-4.8-2.8l-4.7-3l-4.5-3.2l-4.3-3.4l-4.2-3.6l-4-3.8l-3.8-4l-3.6-4.2l-3.4-4.3l-3.2-4.5l-3-4.7l-2.8-4.8l-1.3-2.5l-1.2-2.5
		l-1.2-2.5l-1.1-2.6l-1.1-2.6l-1-2.6l-1-2.7l-0.9-2.7l-0.8-2.7l-0.7-2.7l-0.7-2.8l-0.6-2.8l-0.5-2.8l-0.5-2.9l-0.6-6.3
		c-0.2-2,1.3-3.8,3.3-4c2-0.2,3.8,1.3,4,3.3l0.5,5.8l0.4,2.7l0.5,2.6l0.6,2.6l0.6,2.6l0.7,2.6l0.7,2.5l0.8,2.5l0.9,2.5l0.9,2.5
		l1,2.4l1.1,2.4l1.1,2.4l1.2,2.3l1.2,2.3l2.6,4.5l2.8,4.4l3,4.2l3.2,4.1l3.4,3.9l3.6,3.7l3.7,3.6l3.9,3.4l4.1,3.2l4.2,3l4.4,2.8
		l4.5,2.6l2.3,1.2l2.3,1.2l2.4,1.1l2.4,1.1l2.4,1l2.5,0.9l2.5,0.9l2.5,0.8l2.5,0.8l2.6,0.7l2.6,0.6l2.6,0.6l2.6,0.5l2.7,0.4l2.7,0.4
		l2.7,0.3l2.7,0.2l2.7,0.2l2.8,0.1l2.9,0c2,0,3.6,1.7,3.6,3.7C202.5,369.9,200.8,371.5,198.8,371.4z"/>
	<path class="st0" d="M238.1,90.3l14.6,11l-14.6,11V90.3z M195.2,97.6h46.6c2,0,3.7,1.6,3.7,3.7s-1.6,3.7-3.7,3.7h-46.6
		c-2,0-3.7-1.6-3.7-3.7S193.2,97.6,195.2,97.6z"/>
	<path class="st0" d="M223.5,112.2l-14.6,11l14.6,11V112.2z M266.4,119.5h-46.6c-2,0-3.7,1.6-3.7,3.7s1.6,3.7,3.7,3.7h46.6
		c2,0,3.7-1.6,3.7-3.7S268.4,119.5,266.4,119.5z"/>
	<path class="st0" d="M356.8,230.9l-11-14.6l-11,14.6H356.8z M349.5,266.6v-39.4c0-2-1.6-3.7-3.7-3.7s-3.7,1.6-3.7,3.7v39.4
		c0,2,1.6,3.7,3.7,3.7S349.5,268.6,349.5,266.6z"/>
	<path class="st0" d="M385.1,237.5l-11,14.6l-11-14.6H385.1z M377.8,209v32.2c0,2-1.6,3.7-3.7,3.7s-3.7-1.6-3.7-3.7V209
		c0-2,1.6-3.7,3.7-3.7S377.8,207,377.8,209z"/>
	<path class="st0" d="M12.3,242.2l10.4-15l11.5,14.2L12.3,242.2z M234.4,442.6l-10.9-0.3l-10.9-0.8l-10.8-1.4l-10.6-1.9l-10.4-2.4
		l-10.2-2.9l-10-3.4l-9.8-3.9l-9.6-4.3l-9.3-4.8l-9-5.2l-8.7-5.6l-8.4-6l-8.1-6.4l-7.8-6.8l-7.5-7.1l-7.1-7.5l-6.8-7.8l-6.4-8.1
		l-6-8.4l-5.6-8.7l-5.2-9l-4.8-9.3l-4.3-9.5l-3.9-9.8l-3.4-10l-2.9-10.2l-2.4-10.4l-1.9-10.6l-1.4-10.8l-0.7-10.9
		c-0.1-2,1.4-3.8,3.4-3.9c2-0.1,3.7,1.4,3.9,3.4l0.7,10.5l1.3,10.4l1.8,10.3l2.3,10.1l2.8,9.9l3.3,9.7l3.7,9.4l4.2,9.2l4.6,9l5,8.7
		l5.4,8.5l5.8,8.2l6.2,7.9l6.5,7.6l6.9,7.2l7.2,6.9l7.6,6.5l7.9,6.2l8.2,5.8l8.4,5.4l8.7,5l9,4.6l9.2,4.2l9.4,3.7l9.7,3.3l9.9,2.8
		l10.1,2.3l10.2,1.8l10.4,1.3l10.6,0.8l10.9,0.3c2,0.1,3.6,1.7,3.6,3.7C238.1,441.1,236.4,442.7,234.4,442.6z"/>
	<path class="st0" d="M219.4,12.4l15,10.4l-14.2,11.5L219.4,12.4z M19,234.4l0.3-10.9l0.8-10.9l1.4-10.8l1.9-10.6l2.4-10.4l2.9-10.2
		l3.4-10l3.9-9.8l4.3-9.6l4.8-9.3l5.2-9l5.6-8.7l6-8.5l6.4-8.1l6.8-7.8l7.1-7.5l7.5-7.1l7.8-6.8l8.1-6.4l8.4-6l8.7-5.6l9-5.2
		l9.3-4.8l9.5-4.3l9.8-3.9l10-3.4l10.2-2.9l10.4-2.4l10.6-1.9l10.8-1.4l10.9-0.7c2-0.1,3.8,1.4,3.9,3.4s-1.4,3.7-3.4,3.9l-10.5,0.7
		l-10.4,1.3l-10.2,1.8l-10.1,2.3l-9.9,2.8L163,39l-9.4,3.7l-9.2,4.2l-9,4.6l-8.7,5l-8.4,5.4l-8.2,5.8l-7.9,6.2l-7.5,6.5l-7.2,6.9
		l-6.9,7.2l-6.5,7.6l-6.2,7.9l-5.8,8.2l-5.4,8.4l-5,8.7l-4.6,9l-4.2,9.2l-3.7,9.4l-3.3,9.7l-2.8,9.9l-2.3,10.1l-1.8,10.2l-1.3,10.4
		l-0.8,10.6l-0.3,10.9c-0.1,2-1.7,3.6-3.7,3.6C20.6,238.1,19,236.5,19,234.4z"/>
	<path class="st0" d="M449.3,219.5l-10.4,15l-11.5-14.2L449.3,219.5z M227.2,19.1l10.9,0.3l10.9,0.8l10.8,1.4l10.6,1.9l10.4,2.4
		l10.2,2.9l10,3.4l9.8,3.9l9.6,4.3l9.3,4.8l9,5.2l8.7,5.6l8.4,6l8.1,6.4l7.8,6.8l7.5,7.1l7.1,7.5l6.8,7.8l6.4,8.1l6,8.4l5.6,8.7
		l5.2,9l4.8,9.3l4.3,9.5l3.9,9.8l3.4,10l2.9,10.2l2.4,10.4l1.9,10.6l1.4,10.8l0.7,10.9c0.1,2-1.4,3.8-3.4,3.9
		c-2,0.1-3.7-1.4-3.9-3.4l-0.7-10.5l-1.3-10.4l-1.8-10.2l-2.3-10.1l-2.8-9.9l-3.3-9.7l-3.7-9.4l-4.2-9.2l-4.6-9l-5-8.7l-5.4-8.4
		l-5.8-8.2l-6.2-7.9l-6.5-7.6l-6.9-7.2l-7.2-6.9l-7.6-6.5l-7.8-6.2l-8.2-5.8l-8.4-5.4l-8.7-5l-9-4.6l-9.2-4.2l-9.4-3.7l-9.7-3.3
		l-9.9-2.8l-10.1-2.3l-10.2-1.8l-10.4-1.3L238,26.7l-10.9-0.3c-2-0.1-3.6-1.7-3.6-3.7C223.6,20.7,225.2,19.1,227.2,19.1z"/>
	<path class="st0" d="M242.2,449.4l-15-10.4l14.2-11.5L242.2,449.4z M442.6,227.3l-0.3,10.9l-0.8,10.9l-1.4,10.8l-1.9,10.6
		l-2.4,10.4l-2.9,10.2l-3.4,10l-3.9,9.8l-4.3,9.6l-4.8,9.3l-5.2,9l-5.6,8.7l-6,8.4l-6.4,8.1l-6.8,7.8l-7.1,7.5l-7.5,7.1l-7.8,6.8
		l-8.1,6.4l-8.4,6l-8.7,5.6l-9,5.2l-9.3,4.8l-9.5,4.3l-9.8,3.9l-10,3.4l-10.2,2.9l-10.4,2.4l-10.6,1.9l-10.8,1.4l-10.9,0.7
		c-2,0.1-3.8-1.4-3.9-3.4c-0.1-2,1.4-3.7,3.4-3.9l10.5-0.7l10.4-1.3l10.2-1.8l10.1-2.3l9.9-2.8l9.7-3.3l9.4-3.7l9.2-4.2l9-4.6l8.7-5
		l8.5-5.4l8.2-5.8l7.9-6.2l7.6-6.5l7.2-6.9l6.9-7.2l6.5-7.6l6.2-7.8l5.8-8.2l5.4-8.4l5-8.7l4.6-9l4.2-9.2l3.7-9.4l3.3-9.7l2.8-9.9
		l2.3-10.1l1.8-10.2l1.3-10.4L435,238l0.3-10.9c0.1-2,1.7-3.6,3.7-3.6C441,223.6,442.6,225.3,442.6,227.3z"/>
</g>
<g id="レイヤー_8">
	<circle class="st1" cx="230.8" cy="230.9" r="50.2"/>
	<g>
		<path class="st2" d="M217.1,253.3h3.9c0.8,0,1.4,0.1,1.9,0.3c0.5,0.2,0.9,0.5,1.2,0.9c0.3,0.4,0.5,0.8,0.7,1.4
			c0.1,0.5,0.2,1.1,0.2,1.7c0,0.9-0.1,1.6-0.3,2.1c-0.2,0.5-0.5,0.9-0.9,1.3c-0.4,0.3-0.8,0.6-1.2,0.7c-0.6,0.2-1.1,0.2-1.6,0.2
			h-3.9V253.3z M219.7,255.2v4.7h0.6c0.6,0,0.9-0.1,1.2-0.2s0.4-0.3,0.5-0.6c0.1-0.3,0.2-0.8,0.2-1.5c0-0.9-0.1-1.5-0.4-1.9
			c-0.3-0.3-0.8-0.5-1.5-0.5H219.7z"/>
		<path class="st2" d="M228.3,257.6l-2.3-0.2c0.1-0.4,0.2-0.7,0.4-0.9c0.2-0.2,0.4-0.4,0.7-0.6c0.2-0.1,0.5-0.2,0.9-0.3
			c0.4-0.1,0.8-0.1,1.2-0.1c0.7,0,1.3,0,1.7,0.1c0.4,0.1,0.8,0.2,1.1,0.5c0.2,0.2,0.4,0.4,0.5,0.7c0.1,0.3,0.2,0.6,0.2,0.9v2.7
			c0,0.3,0,0.5,0.1,0.7c0,0.2,0.1,0.4,0.2,0.6h-2.2c-0.1-0.2-0.1-0.3-0.2-0.4c0-0.1-0.1-0.2-0.1-0.4c-0.3,0.3-0.6,0.5-0.9,0.6
			c-0.4,0.2-0.9,0.3-1.5,0.3c-0.7,0-1.3-0.2-1.7-0.5c-0.4-0.3-0.6-0.8-0.6-1.3c0-0.5,0.1-0.9,0.4-1.2c0.3-0.3,0.8-0.5,1.5-0.7
			c0.9-0.2,1.5-0.3,1.7-0.4c0.3-0.1,0.5-0.2,0.8-0.3c0-0.3-0.1-0.5-0.2-0.6c-0.1-0.1-0.3-0.2-0.6-0.2c-0.4,0-0.7,0.1-0.9,0.2
			C228.5,257.2,228.4,257.3,228.3,257.6z M230.3,258.9c-0.3,0.1-0.7,0.2-1,0.3c-0.5,0.1-0.8,0.3-0.9,0.4c-0.1,0.1-0.2,0.3-0.2,0.4
			c0,0.2,0.1,0.3,0.2,0.5s0.3,0.2,0.6,0.2c0.3,0,0.5-0.1,0.7-0.2s0.4-0.3,0.5-0.5c0.1-0.2,0.1-0.4,0.1-0.7V258.9z"/>
		<path class="st2" d="M236.9,253.3v2.3h1.3v1.7h-1.3v2.2c0,0.3,0,0.4,0.1,0.5c0.1,0.1,0.2,0.2,0.4,0.2c0.2,0,0.4,0,0.7-0.2l0.2,1.6
			c-0.6,0.1-1.1,0.2-1.6,0.2c-0.6,0-1-0.1-1.3-0.2c-0.3-0.2-0.5-0.4-0.6-0.7s-0.2-0.8-0.2-1.5v-2.2h-0.9v-1.7h0.9v-1.1L236.9,253.3z
			"/>
		<path class="st2" d="M241.5,257.6l-2.3-0.2c0.1-0.4,0.2-0.7,0.4-0.9c0.2-0.2,0.4-0.4,0.7-0.6c0.2-0.1,0.5-0.2,0.9-0.3
			c0.4-0.1,0.8-0.1,1.2-0.1c0.7,0,1.3,0,1.7,0.1c0.4,0.1,0.8,0.2,1.1,0.5c0.2,0.2,0.4,0.4,0.5,0.7c0.1,0.3,0.2,0.6,0.2,0.9v2.7
			c0,0.3,0,0.5,0.1,0.7c0,0.2,0.1,0.4,0.2,0.6h-2.2c-0.1-0.2-0.1-0.3-0.2-0.4c0-0.1-0.1-0.2-0.1-0.4c-0.3,0.3-0.6,0.5-0.9,0.6
			c-0.4,0.2-0.9,0.3-1.5,0.3c-0.7,0-1.3-0.2-1.7-0.5c-0.4-0.3-0.6-0.8-0.6-1.3c0-0.5,0.1-0.9,0.4-1.2c0.3-0.3,0.8-0.5,1.5-0.7
			c0.9-0.2,1.5-0.3,1.7-0.4c0.3-0.1,0.5-0.2,0.8-0.3c0-0.3-0.1-0.5-0.2-0.6s-0.3-0.2-0.6-0.2c-0.4,0-0.7,0.1-0.9,0.2
			C241.7,257.2,241.6,257.3,241.5,257.6z M243.6,258.9c-0.3,0.1-0.7,0.2-1,0.3c-0.5,0.1-0.8,0.3-0.9,0.4c-0.1,0.1-0.2,0.3-0.2,0.4
			c0,0.2,0.1,0.3,0.2,0.5s0.3,0.2,0.6,0.2c0.3,0,0.5-0.1,0.7-0.2s0.4-0.3,0.5-0.5c0.1-0.2,0.1-0.4,0.1-0.7V258.9z"/>
	</g>
	<rect x="212.5" y="203.5" class="st1" width="36.5" height="46.6"/>
	<path class="st3" d="M249,234.1L249,234.1v10c0,3.2-8.3,5.8-18.3,5.8c-10,0-18.2-2.6-18.2-5.8v-10c1.9,2.6,9.4,4.6,18.2,4.6
		C239.7,238.6,247.1,236.7,249,234.1z M230.8,225.9L230.8,225.9c-8.9,0-16.3-2-18.2-4.6l0,9.9c0,3.2,8.3,5.8,18.2,5.8
		c10,0,18.3-2.6,18.3-5.8v-9.9C247.1,224,239.7,225.9,230.8,225.9z M230.8,213.3L230.8,213.3c-8.9,0-16.3-2-18.2-4.6v9.9
		c0,3.2,8.3,5.8,18.2,5.8c10,0,18.3-2.6,18.3-5.8v-9.9C247.1,211.3,239.7,213.3,230.8,213.3z M247.6,207.5L247.6,207.5
		c0-2.3-7.5-4.2-16.8-4.2c-9.3,0-16.8,1.9-16.8,4.2c0,2.3,7.5,4.2,16.8,4.2C240.1,211.7,247.6,209.8,247.6,207.5z"/>
</g>
<g id="レイヤー_7">
	<path class="st4" d="M36.4,227.7c0-13.9,11.2-25.1,25.1-25.1h64.8c13.9,0,25.1,11.2,25.1,25.1s-11.2,25.1-25.1,25.1H61.5
		C47.6,252.8,36.4,241.6,36.4,227.7z"/>
	<g>
		<path class="st5" d="M57.2,222.4h3.9c0.8,0,1.4,0.1,1.9,0.3s0.9,0.5,1.2,0.9s0.5,0.8,0.7,1.4c0.1,0.5,0.2,1.1,0.2,1.6
			c0,0.9-0.1,1.6-0.3,2.1s-0.5,0.9-0.9,1.3c-0.4,0.3-0.8,0.6-1.2,0.7c-0.6,0.2-1.1,0.2-1.6,0.2h-3.9V222.4z M59.8,224.3v4.6h0.6
			c0.5,0,0.9-0.1,1.2-0.2c0.2-0.1,0.4-0.3,0.5-0.6c0.1-0.3,0.2-0.8,0.2-1.5c0-0.9-0.1-1.5-0.4-1.8c-0.3-0.3-0.8-0.5-1.5-0.5H59.8z"
			/>
		<path class="st5" d="M73.1,228.4h-4.7c0,0.4,0.1,0.7,0.3,0.8c0.2,0.3,0.5,0.4,0.9,0.4c0.2,0,0.5-0.1,0.7-0.2
			c0.1-0.1,0.3-0.2,0.4-0.4l2.3,0.2c-0.4,0.6-0.8,1.1-1.3,1.3c-0.5,0.3-1.2,0.4-2.2,0.4c-0.8,0-1.5-0.1-1.9-0.3s-0.9-0.6-1.2-1.1
			s-0.5-1.1-0.5-1.8c0-1,0.3-1.7,0.9-2.3c0.6-0.6,1.5-0.9,2.6-0.9c0.9,0,1.6,0.1,2.1,0.4s0.9,0.7,1.2,1.2c0.3,0.5,0.4,1.2,0.4,2
			V228.4z M70.7,227.3c0-0.5-0.2-0.8-0.4-1c-0.2-0.2-0.5-0.3-0.8-0.3c-0.4,0-0.7,0.1-0.9,0.4c-0.1,0.2-0.2,0.5-0.3,0.8H70.7z"/>
		<path class="st5" d="M74.2,233.2v-8.5h2.2v0.9c0.3-0.4,0.6-0.6,0.8-0.8c0.3-0.2,0.7-0.3,1.1-0.3c0.8,0,1.5,0.3,1.9,0.9
			c0.4,0.6,0.7,1.4,0.7,2.3c0,1-0.2,1.8-0.7,2.3c-0.5,0.5-1.1,0.8-1.9,0.8c-0.4,0-0.7-0.1-1-0.2c-0.3-0.1-0.6-0.3-0.8-0.5v2.9H74.2z
			 M76.5,227.8c0,0.5,0.1,0.8,0.3,1.1c0.2,0.2,0.5,0.4,0.8,0.4c0.3,0,0.5-0.1,0.7-0.3c0.2-0.2,0.3-0.6,0.3-1.1
			c0-0.5-0.1-0.9-0.3-1.1c-0.2-0.2-0.4-0.4-0.7-0.4c-0.3,0-0.6,0.1-0.8,0.4C76.6,226.9,76.5,227.3,76.5,227.8z"/>
		<path class="st5" d="M82.2,222.4h2.4v8.5h-2.4V222.4z"/>
		<path class="st5" d="M85.7,227.8c0-0.9,0.3-1.7,1-2.3c0.6-0.6,1.5-0.9,2.6-0.9c1.2,0,2.2,0.4,2.8,1.1c0.5,0.6,0.8,1.3,0.8,2.1
			c0,0.9-0.3,1.7-0.9,2.3c-0.6,0.6-1.5,0.9-2.6,0.9c-1,0-1.8-0.3-2.4-0.8C86.1,229.6,85.7,228.8,85.7,227.8z M88.1,227.8
			c0,0.5,0.1,1,0.3,1.2s0.5,0.4,0.8,0.4c0.3,0,0.6-0.1,0.8-0.4s0.3-0.7,0.3-1.2c0-0.5-0.1-0.9-0.3-1.2c-0.2-0.3-0.5-0.4-0.8-0.4
			c-0.3,0-0.6,0.1-0.9,0.4S88.1,227.3,88.1,227.8z"/>
		<path class="st5" d="M93.3,224.7h2.5l1.3,4.1l1.2-4.1h2.3l-2.4,6.6c-0.3,0.8-0.6,1.3-0.9,1.5c-0.4,0.4-1,0.6-1.9,0.6
			c-0.3,0-0.9,0-1.6-0.1l-0.2-1.6c0.3,0.1,0.7,0.2,1.1,0.2c0.3,0,0.5-0.1,0.7-0.2c0.2-0.1,0.3-0.4,0.4-0.7L93.3,224.7z"/>
		<path class="st5" d="M101.2,224.7h2.2v0.9c0.3-0.4,0.6-0.6,1-0.8c0.3-0.2,0.7-0.2,1.2-0.2c0.5,0,0.9,0.1,1.2,0.3
			c0.3,0.2,0.5,0.4,0.7,0.8c0.4-0.4,0.7-0.7,1-0.8c0.3-0.1,0.7-0.2,1.1-0.2c0.7,0,1.2,0.2,1.5,0.6c0.4,0.4,0.6,1,0.6,1.8v3.9h-2.4
			v-3.5c0-0.3-0.1-0.5-0.2-0.6c-0.2-0.2-0.4-0.3-0.6-0.3c-0.3,0-0.5,0.1-0.7,0.3c-0.2,0.2-0.3,0.5-0.3,1v3.2h-2.4v-3.4
			c0-0.3,0-0.5,0-0.6c-0.1-0.2-0.1-0.3-0.3-0.4c-0.1-0.1-0.3-0.1-0.4-0.1c-0.3,0-0.5,0.1-0.7,0.3c-0.2,0.2-0.3,0.5-0.3,1v3.1h-2.4
			V224.7z"/>
		<path class="st5" d="M119.9,228.4h-4.7c0,0.4,0.1,0.7,0.3,0.8c0.2,0.3,0.5,0.4,0.9,0.4c0.2,0,0.5-0.1,0.7-0.2
			c0.1-0.1,0.3-0.2,0.4-0.4l2.3,0.2c-0.4,0.6-0.8,1.1-1.3,1.3c-0.5,0.3-1.2,0.4-2.2,0.4c-0.8,0-1.5-0.1-1.9-0.3s-0.9-0.6-1.2-1.1
			s-0.5-1.1-0.5-1.8c0-1,0.3-1.7,0.9-2.3c0.6-0.6,1.5-0.9,2.6-0.9c0.9,0,1.6,0.1,2.1,0.4s0.9,0.7,1.2,1.2c0.3,0.5,0.4,1.2,0.4,2
			V228.4z M117.5,227.3c0-0.5-0.2-0.8-0.4-1c-0.2-0.2-0.5-0.3-0.8-0.3c-0.4,0-0.7,0.1-0.9,0.4c-0.1,0.2-0.2,0.5-0.3,0.8H117.5z"/>
		<path class="st5" d="M121,224.7h2.2v1c0.3-0.4,0.7-0.7,1-0.9s0.7-0.3,1.2-0.3c0.7,0,1.2,0.2,1.5,0.6c0.4,0.4,0.6,1,0.6,1.8v3.9
			h-2.4v-3.4c0-0.4-0.1-0.7-0.2-0.8s-0.3-0.2-0.6-0.2c-0.3,0-0.5,0.1-0.7,0.3s-0.3,0.6-0.3,1.2v3H121V224.7z"/>
		<path class="st5" d="M131.7,222.4v2.3h1.3v1.7h-1.3v2.2c0,0.3,0,0.4,0.1,0.5c0.1,0.1,0.2,0.2,0.4,0.2c0.2,0,0.4,0,0.7-0.2l0.2,1.6
			c-0.6,0.1-1.1,0.2-1.6,0.2c-0.6,0-1-0.1-1.3-0.2c-0.3-0.2-0.5-0.4-0.6-0.7s-0.2-0.8-0.2-1.5v-2.2h-0.9v-1.7h0.9v-1.1L131.7,222.4z
			"/>
	</g>
</g>
<g id="レイヤー_6">
	<path class="st6" d="M173.3,363.7c0-13.9,11.2-25.1,25.1-25.1h64.8c13.9,0,25.1,11.2,25.1,25.1c0,13.9-11.2,25.1-25.1,25.1h-64.8
		C184.5,388.8,173.3,377.6,173.3,363.7z"/>
	<g>
		<path class="st7" d="M197.5,358.7h7.1v1.8h-4.5v1.4h4.1v1.8h-4.1v1.7h4.6v1.9h-7.2V358.7z"/>
		<path class="st7" d="M205.3,361h2.5l1.2,3.9l1.3-3.9h2.4l-2.6,6.2h-2.1L205.3,361z"/>
		<path class="st7" d="M215.5,363.1l-2.3-0.2c0.1-0.4,0.2-0.7,0.4-0.9s0.4-0.4,0.7-0.6c0.2-0.1,0.5-0.2,0.9-0.3s0.8-0.1,1.2-0.1
			c0.7,0,1.3,0,1.7,0.1s0.8,0.2,1.1,0.5c0.2,0.2,0.4,0.4,0.5,0.7s0.2,0.6,0.2,0.9v2.7c0,0.3,0,0.5,0.1,0.7s0.1,0.4,0.2,0.6H218
			c-0.1-0.2-0.1-0.3-0.2-0.4s-0.1-0.2-0.1-0.4c-0.3,0.3-0.6,0.5-0.9,0.6c-0.4,0.2-0.9,0.3-1.5,0.3c-0.7,0-1.3-0.2-1.7-0.5
			s-0.6-0.8-0.6-1.3c0-0.5,0.1-0.9,0.4-1.2s0.8-0.5,1.5-0.7c0.9-0.2,1.5-0.3,1.7-0.4s0.5-0.2,0.8-0.3c0-0.3-0.1-0.5-0.2-0.6
			s-0.3-0.2-0.6-0.2c-0.4,0-0.7,0.1-0.9,0.2C215.8,362.6,215.6,362.8,215.5,363.1z M217.6,364.3c-0.3,0.1-0.7,0.2-1,0.3
			c-0.5,0.1-0.8,0.3-0.9,0.4c-0.1,0.1-0.2,0.3-0.2,0.4c0,0.2,0.1,0.3,0.2,0.5s0.3,0.2,0.6,0.2c0.3,0,0.5-0.1,0.7-0.2
			s0.4-0.3,0.5-0.5s0.1-0.4,0.1-0.7V364.3z"/>
		<path class="st7" d="M221.5,358.7h2.4v8.6h-2.4V358.7z"/>
		<path class="st7" d="M231.9,367.3h-2.2v-1c-0.3,0.4-0.7,0.7-1,0.9s-0.8,0.3-1.2,0.3c-0.7,0-1.2-0.2-1.5-0.6
			c-0.4-0.4-0.6-1-0.6-1.8v-4h2.4v3.4c0,0.4,0.1,0.7,0.2,0.8s0.3,0.2,0.6,0.2c0.3,0,0.5-0.1,0.7-0.3s0.3-0.6,0.3-1.2v-3h2.4V367.3z"
			/>
		<path class="st7" d="M235.5,363.1l-2.3-0.2c0.1-0.4,0.2-0.7,0.4-0.9s0.4-0.4,0.7-0.6c0.2-0.1,0.5-0.2,0.9-0.3s0.8-0.1,1.2-0.1
			c0.7,0,1.3,0,1.7,0.1s0.8,0.2,1.1,0.5c0.2,0.2,0.4,0.4,0.5,0.7s0.2,0.6,0.2,0.9v2.7c0,0.3,0,0.5,0.1,0.7s0.1,0.4,0.2,0.6H238
			c-0.1-0.2-0.1-0.3-0.2-0.4s-0.1-0.2-0.1-0.4c-0.3,0.3-0.6,0.5-0.9,0.6c-0.4,0.2-0.9,0.3-1.5,0.3c-0.7,0-1.3-0.2-1.7-0.5
			s-0.6-0.8-0.6-1.3c0-0.5,0.1-0.9,0.4-1.2s0.8-0.5,1.5-0.7c0.9-0.2,1.5-0.3,1.7-0.4s0.5-0.2,0.8-0.3c0-0.3-0.1-0.5-0.2-0.6
			s-0.3-0.2-0.6-0.2c-0.4,0-0.7,0.1-0.9,0.2C235.8,362.6,235.6,362.8,235.5,363.1z M237.6,364.3c-0.3,0.1-0.7,0.2-1,0.3
			c-0.5,0.1-0.8,0.3-0.9,0.4c-0.1,0.1-0.2,0.3-0.2,0.4c0,0.2,0.1,0.3,0.2,0.5s0.3,0.2,0.6,0.2c0.3,0,0.5-0.1,0.7-0.2
			s0.4-0.3,0.5-0.5s0.1-0.4,0.1-0.7V364.3z"/>
		<path class="st7" d="M244.3,358.7v2.4h1.3v1.7h-1.3v2.2c0,0.3,0,0.4,0.1,0.5c0.1,0.1,0.2,0.2,0.4,0.2c0.2,0,0.4-0.1,0.7-0.2
			l0.2,1.6c-0.6,0.1-1.1,0.2-1.7,0.2c-0.6,0-1-0.1-1.3-0.2s-0.5-0.4-0.6-0.7c-0.1-0.3-0.2-0.8-0.2-1.5v-2.2H241V361h0.9v-1.1
			L244.3,358.7z"/>
		<path class="st7" d="M246.8,358.7h2.4v1.6h-2.4V358.7z M246.8,361h2.4v6.2h-2.4V361z"/>
		<path class="st7" d="M250.4,364.2c0-0.9,0.3-1.7,1-2.3s1.5-0.9,2.6-0.9c1.2,0,2.2,0.4,2.8,1.1c0.5,0.6,0.8,1.3,0.8,2.2
			c0,1-0.3,1.7-1,2.4c-0.6,0.6-1.5,0.9-2.6,0.9c-1,0-1.8-0.3-2.4-0.8C250.8,366,250.4,365.2,250.4,364.2z M252.8,364.2
			c0,0.6,0.1,1,0.3,1.2s0.5,0.4,0.8,0.4c0.3,0,0.6-0.1,0.8-0.4s0.3-0.7,0.3-1.3c0-0.5-0.1-0.9-0.3-1.2s-0.5-0.4-0.8-0.4
			c-0.3,0-0.6,0.1-0.9,0.4S252.8,363.6,252.8,364.2z"/>
		<path class="st7" d="M258.7,361h2.2v1c0.3-0.4,0.7-0.7,1-0.9s0.8-0.3,1.2-0.3c0.7,0,1.2,0.2,1.5,0.6s0.6,1,0.6,1.8v4h-2.4v-3.4
			c0-0.4-0.1-0.7-0.2-0.8s-0.3-0.2-0.6-0.2c-0.3,0-0.5,0.1-0.7,0.3s-0.3,0.6-0.3,1.2v3h-2.4V361z"/>
	</g>
</g>
<g id="レイヤー_5">
	<path class="st8" d="M302.9,277.9c0-13.9,11.2-25.1,25.1-25.1h64.8c13.9,0,25.1,11.2,25.1,25.1S406.7,303,392.8,303H328
		C314.1,303,302.9,291.8,302.9,277.9z"/>
	<g>
		<path class="st9" d="M331.6,272.7h3.5l1.3,5.2l1.3-5.2h3.5v8.6h-2.2v-6.6l-1.7,6.6h-2l-1.7-6.6v6.6h-2.2V272.7z"/>
		<path class="st9" d="M342.5,278.2c0-0.9,0.3-1.7,1-2.3s1.5-0.9,2.6-0.9c1.2,0,2.2,0.4,2.8,1.1c0.5,0.6,0.8,1.3,0.8,2.2
			c0,1-0.3,1.7-1,2.4s-1.5,0.9-2.6,0.9c-1,0-1.8-0.3-2.4-0.8C342.9,280,342.5,279.2,342.5,278.2z M344.9,278.2c0,0.6,0.1,1,0.3,1.2
			s0.5,0.4,0.8,0.4c0.3,0,0.6-0.1,0.8-0.4s0.3-0.7,0.3-1.3c0-0.5-0.1-0.9-0.3-1.2s-0.5-0.4-0.8-0.4c-0.3,0-0.6,0.1-0.9,0.4
			S344.9,277.6,344.9,278.2z"/>
		<path class="st9" d="M357.3,272.7v8.6h-2.2v-0.9c-0.3,0.4-0.6,0.7-0.9,0.8c-0.3,0.2-0.7,0.3-1.1,0.3c-0.8,0-1.5-0.3-1.9-1
			s-0.7-1.4-0.7-2.3c0-1,0.2-1.8,0.7-2.4s1.1-0.8,1.9-0.8c0.4,0,0.7,0.1,1,0.2s0.6,0.3,0.8,0.6v-3H357.3z M355,278.2
			c0-0.5-0.1-0.9-0.3-1.1s-0.5-0.4-0.8-0.4c-0.3,0-0.5,0.1-0.7,0.3s-0.3,0.6-0.3,1.2c0,0.5,0.1,0.9,0.3,1.1s0.4,0.4,0.7,0.4
			c0.3,0,0.6-0.1,0.8-0.4S355,278.7,355,278.2z"/>
		<path class="st9" d="M365.7,278.8h-4.8c0,0.4,0.1,0.7,0.3,0.9c0.2,0.3,0.5,0.4,0.9,0.4c0.2,0,0.5-0.1,0.7-0.2
			c0.1-0.1,0.3-0.2,0.4-0.4l2.3,0.2c-0.4,0.6-0.8,1.1-1.3,1.3s-1.2,0.4-2.2,0.4c-0.8,0-1.5-0.1-1.9-0.3s-0.9-0.6-1.2-1.1
			s-0.5-1.1-0.5-1.8c0-1,0.3-1.8,0.9-2.4s1.5-0.9,2.6-0.9c0.9,0,1.6,0.1,2.1,0.4s0.9,0.7,1.2,1.2s0.4,1.2,0.4,2V278.8z M363.3,277.6
			c0-0.5-0.2-0.8-0.4-1s-0.5-0.3-0.8-0.3c-0.4,0-0.7,0.2-0.9,0.5c-0.1,0.2-0.2,0.5-0.3,0.8H363.3z"/>
		<path class="st9" d="M366.9,272.7h2.4v8.6h-2.4V272.7z"/>
		<path class="st9" d="M370.9,272.7h2.4v1.6h-2.4V272.7z M370.9,275.1h2.4v6.2h-2.4V275.1z"/>
		<path class="st9" d="M374.8,275.1h2.2v1c0.3-0.4,0.7-0.7,1-0.9s0.8-0.3,1.2-0.3c0.7,0,1.2,0.2,1.5,0.6s0.6,1,0.6,1.8v4H379v-3.4
			c0-0.4-0.1-0.7-0.2-0.8s-0.3-0.2-0.6-0.2c-0.3,0-0.5,0.1-0.7,0.3s-0.3,0.6-0.3,1.2v3h-2.4V275.1z"/>
		<path class="st9" d="M387.1,275.1h2.2v5.9l0,0.3c0,0.4-0.1,0.8-0.2,1.1s-0.4,0.6-0.7,0.9s-0.6,0.4-1,0.5s-0.9,0.1-1.5,0.1
			c-1.3,0-2.1-0.2-2.6-0.6s-0.7-0.9-0.7-1.5c0-0.1,0-0.2,0-0.3l2.3,0.3c0.1,0.2,0.1,0.4,0.3,0.4c0.2,0.1,0.4,0.2,0.7,0.2
			c0.3,0,0.6-0.1,0.8-0.3s0.3-0.5,0.3-1v-0.9c-0.2,0.3-0.5,0.5-0.7,0.6c-0.4,0.2-0.8,0.3-1.2,0.3c-0.8,0-1.5-0.4-2-1.1
			c-0.4-0.5-0.5-1.2-0.5-2c0-1,0.2-1.7,0.7-2.2s1.1-0.8,1.8-0.8c0.5,0,0.9,0.1,1.2,0.2s0.6,0.4,0.9,0.8V275.1z M384.9,278.1
			c0,0.4,0.1,0.8,0.3,1s0.4,0.3,0.8,0.3c0.3,0,0.5-0.1,0.7-0.3s0.3-0.6,0.3-1s-0.1-0.8-0.3-1s-0.5-0.4-0.8-0.4s-0.5,0.1-0.7,0.3
			S384.9,277.6,384.9,278.1z"/>
	</g>
</g>
<g id="レイヤー_4">
	<path class="st10" d="M302.9,191.2c0-13.9,11.2-25.1,25.1-25.1h64.8c13.9,0,25.1,11.2,25.1,25.1c0,13.9-11.2,25.1-25.1,25.1H328
		C314.1,216.3,302.9,205,302.9,191.2z"/>
	<g>
		<path class="st11" d="M346,179.1h3.9c0.8,0,1.4,0.1,1.9,0.3s0.9,0.5,1.2,0.9s0.5,0.9,0.7,1.4s0.2,1.1,0.2,1.7
			c0,0.9-0.1,1.6-0.3,2.1s-0.5,0.9-0.9,1.3s-0.8,0.6-1.2,0.7c-0.6,0.2-1.1,0.2-1.6,0.2H346V179.1z M348.7,181.1v4.7h0.7
			c0.6,0,0.9-0.1,1.2-0.2s0.4-0.3,0.6-0.6s0.2-0.8,0.2-1.5c0-0.9-0.1-1.5-0.4-1.9s-0.8-0.5-1.5-0.5H348.7z"/>
		<path class="st11" d="M357.3,183.5l-2.3-0.2c0.1-0.4,0.2-0.7,0.4-0.9s0.4-0.4,0.7-0.6c0.2-0.1,0.5-0.2,0.9-0.3s0.8-0.1,1.2-0.1
			c0.7,0,1.3,0,1.7,0.1s0.8,0.2,1.1,0.5c0.2,0.2,0.4,0.4,0.5,0.7s0.2,0.6,0.2,0.9v2.7c0,0.3,0,0.5,0.1,0.7s0.1,0.4,0.2,0.6h-2.2
			c-0.1-0.2-0.1-0.3-0.2-0.4s-0.1-0.2-0.1-0.4c-0.3,0.3-0.6,0.5-0.9,0.6c-0.4,0.2-0.9,0.3-1.5,0.3c-0.7,0-1.3-0.2-1.7-0.5
			s-0.6-0.8-0.6-1.3c0-0.5,0.1-0.9,0.4-1.2s0.8-0.5,1.5-0.7c0.9-0.2,1.5-0.3,1.7-0.4s0.5-0.2,0.8-0.3c0-0.3-0.1-0.5-0.2-0.6
			s-0.3-0.2-0.6-0.2c-0.4,0-0.7,0.1-0.9,0.2C357.5,183,357.4,183.2,357.3,183.5z M359.4,184.7c-0.3,0.1-0.7,0.2-1,0.3
			c-0.5,0.1-0.8,0.3-0.9,0.4c-0.1,0.1-0.2,0.3-0.2,0.4c0,0.2,0.1,0.3,0.2,0.5s0.3,0.2,0.6,0.2c0.3,0,0.5-0.1,0.7-0.2
			s0.4-0.3,0.5-0.5s0.1-0.4,0.1-0.7V184.7z"/>
		<path class="st11" d="M366,179.1v2.4h1.3v1.7H366v2.2c0,0.3,0,0.4,0.1,0.5c0.1,0.1,0.2,0.2,0.4,0.2c0.2,0,0.4-0.1,0.7-0.2l0.2,1.6
			c-0.6,0.1-1.1,0.2-1.7,0.2c-0.6,0-1-0.1-1.3-0.2c-0.3-0.2-0.5-0.4-0.6-0.7c-0.1-0.3-0.2-0.8-0.2-1.5v-2.2h-0.9v-1.7h0.9v-1.1
			L366,179.1z"/>
		<path class="st11" d="M370.6,183.5l-2.3-0.2c0.1-0.4,0.2-0.7,0.4-0.9s0.4-0.4,0.7-0.6c0.2-0.1,0.5-0.2,0.9-0.3s0.8-0.1,1.2-0.1
			c0.7,0,1.3,0,1.7,0.1s0.8,0.2,1.1,0.5c0.2,0.2,0.4,0.4,0.5,0.7s0.2,0.6,0.2,0.9v2.7c0,0.3,0,0.5,0.1,0.7s0.1,0.4,0.2,0.6h-2.2
			c-0.1-0.2-0.1-0.3-0.2-0.4s-0.1-0.2-0.1-0.4c-0.3,0.3-0.6,0.5-0.9,0.6c-0.4,0.2-0.9,0.3-1.5,0.3c-0.7,0-1.3-0.2-1.7-0.5
			s-0.6-0.8-0.6-1.3c0-0.5,0.1-0.9,0.4-1.2s0.8-0.5,1.5-0.7c0.9-0.2,1.5-0.3,1.7-0.4s0.5-0.2,0.8-0.3c0-0.3-0.1-0.5-0.2-0.6
			s-0.3-0.2-0.6-0.2c-0.4,0-0.7,0.1-0.9,0.2C370.9,183,370.7,183.2,370.6,183.5z M372.7,184.7c-0.3,0.1-0.7,0.2-1,0.3
			c-0.5,0.1-0.8,0.3-0.9,0.4c-0.1,0.1-0.2,0.3-0.2,0.4c0,0.2,0.1,0.3,0.2,0.5s0.3,0.2,0.6,0.2c0.3,0,0.5-0.1,0.7-0.2
			s0.4-0.3,0.5-0.5s0.1-0.4,0.1-0.7V184.7z"/>
		<path class="st11" d="M323,193.5h4.4c1,0,1.7,0.2,2.2,0.7s0.7,1.1,0.7,2c0,0.9-0.3,1.5-0.8,2s-1.3,0.7-2.4,0.7h-1.5v3.2H323V193.5
			z M325.6,197.2h0.7c0.5,0,0.9-0.1,1.1-0.3s0.3-0.4,0.3-0.7c0-0.3-0.1-0.5-0.3-0.7s-0.5-0.3-1-0.3h-0.8V197.2z"/>
		<path class="st11" d="M331.5,195.9h2.2v1c0.2-0.4,0.4-0.7,0.7-0.9s0.5-0.2,0.8-0.2c0.4,0,0.7,0.1,1.2,0.3l-0.7,1.7
			c-0.3-0.1-0.5-0.2-0.7-0.2c-0.3,0-0.6,0.1-0.7,0.4c-0.2,0.4-0.4,1-0.4,2v2.1h-2.4V195.9z"/>
		<path class="st11" d="M343.7,199.6h-4.8c0,0.4,0.1,0.7,0.3,0.9c0.2,0.3,0.5,0.4,0.9,0.4c0.2,0,0.5-0.1,0.7-0.2
			c0.1-0.1,0.3-0.2,0.4-0.4l2.3,0.2c-0.4,0.6-0.8,1.1-1.3,1.3s-1.2,0.4-2.2,0.4c-0.8,0-1.5-0.1-1.9-0.3s-0.9-0.6-1.2-1.1
			s-0.5-1.1-0.5-1.8c0-1,0.3-1.8,0.9-2.4s1.5-0.9,2.6-0.9c0.9,0,1.6,0.1,2.1,0.4s0.9,0.7,1.2,1.2s0.4,1.2,0.4,2V199.6z M341.3,198.4
			c0-0.5-0.2-0.8-0.4-1s-0.5-0.3-0.8-0.3c-0.4,0-0.7,0.2-0.9,0.5c-0.1,0.2-0.2,0.5-0.3,0.8H341.3z"/>
		<path class="st11" d="M344.8,204.5v-8.6h2.2v0.9c0.3-0.4,0.6-0.6,0.8-0.8c0.3-0.2,0.7-0.3,1.2-0.3c0.8,0,1.5,0.3,1.9,1
			s0.7,1.4,0.7,2.4c0,1-0.2,1.8-0.7,2.4s-1.1,0.8-1.9,0.8c-0.4,0-0.7-0.1-1-0.2s-0.6-0.3-0.8-0.6v3H344.8z M347.2,199
			c0,0.5,0.1,0.9,0.3,1.1s0.5,0.4,0.8,0.4c0.3,0,0.5-0.1,0.7-0.3s0.3-0.6,0.3-1.2c0-0.5-0.1-0.9-0.3-1.1s-0.4-0.4-0.7-0.4
			c-0.3,0-0.6,0.1-0.8,0.4S347.2,198.5,347.2,199z"/>
		<path class="st11" d="M355,197.9l-2.3-0.2c0.1-0.4,0.2-0.7,0.4-0.9s0.4-0.4,0.7-0.6c0.2-0.1,0.5-0.2,0.9-0.3s0.8-0.1,1.2-0.1
			c0.7,0,1.3,0,1.7,0.1s0.8,0.2,1.1,0.5c0.2,0.2,0.4,0.4,0.5,0.7s0.2,0.6,0.2,0.9v2.7c0,0.3,0,0.5,0.1,0.7s0.1,0.4,0.2,0.6h-2.2
			c-0.1-0.2-0.1-0.3-0.2-0.4s-0.1-0.2-0.1-0.4c-0.3,0.3-0.6,0.5-0.9,0.6c-0.4,0.2-0.9,0.3-1.5,0.3c-0.7,0-1.3-0.2-1.7-0.5
			s-0.6-0.8-0.6-1.3c0-0.5,0.1-0.9,0.4-1.2s0.8-0.5,1.5-0.7c0.9-0.2,1.5-0.3,1.7-0.4s0.5-0.2,0.8-0.3c0-0.3-0.1-0.5-0.2-0.6
			s-0.3-0.2-0.6-0.2c-0.4,0-0.7,0.1-0.9,0.2C355.2,197.4,355.1,197.6,355,197.9z M357.1,199.1c-0.3,0.1-0.7,0.2-1,0.3
			c-0.5,0.1-0.8,0.3-0.9,0.4c-0.1,0.1-0.2,0.3-0.2,0.4c0,0.2,0.1,0.3,0.2,0.5s0.3,0.2,0.6,0.2c0.3,0,0.5-0.1,0.7-0.2
			s0.4-0.3,0.5-0.5s0.1-0.4,0.1-0.7V199.1z"/>
		<path class="st11" d="M360.8,195.9h2.2v1c0.2-0.4,0.4-0.7,0.7-0.9s0.5-0.2,0.8-0.2c0.4,0,0.7,0.1,1.2,0.3l-0.7,1.7
			c-0.3-0.1-0.5-0.2-0.7-0.2c-0.3,0-0.6,0.1-0.7,0.4c-0.2,0.4-0.4,1-0.4,2v2.1h-2.4V195.9z"/>
		<path class="st11" d="M368.3,197.9l-2.3-0.2c0.1-0.4,0.2-0.7,0.4-0.9s0.4-0.4,0.7-0.6c0.2-0.1,0.5-0.2,0.9-0.3s0.8-0.1,1.2-0.1
			c0.7,0,1.3,0,1.7,0.1s0.8,0.2,1.1,0.5c0.2,0.2,0.4,0.4,0.5,0.7s0.2,0.6,0.2,0.9v2.7c0,0.3,0,0.5,0.1,0.7s0.1,0.4,0.2,0.6h-2.2
			c-0.1-0.2-0.1-0.3-0.2-0.4s-0.1-0.2-0.1-0.4c-0.3,0.3-0.6,0.5-0.9,0.6c-0.4,0.2-0.9,0.3-1.5,0.3c-0.7,0-1.3-0.2-1.7-0.5
			s-0.6-0.8-0.6-1.3c0-0.5,0.1-0.9,0.4-1.2s0.8-0.5,1.5-0.7c0.9-0.2,1.5-0.3,1.7-0.4s0.5-0.2,0.8-0.3c0-0.3-0.1-0.5-0.2-0.6
			s-0.3-0.2-0.6-0.2c-0.4,0-0.7,0.1-0.9,0.2C368.5,197.4,368.4,197.6,368.3,197.9z M370.4,199.1c-0.3,0.1-0.7,0.2-1,0.3
			c-0.5,0.1-0.8,0.3-0.9,0.4c-0.1,0.1-0.2,0.3-0.2,0.4c0,0.2,0.1,0.3,0.2,0.5s0.3,0.2,0.6,0.2c0.3,0,0.5-0.1,0.7-0.2
			s0.4-0.3,0.5-0.5s0.1-0.4,0.1-0.7V199.1z"/>
		<path class="st11" d="M377,193.5v2.4h1.3v1.7H377v2.2c0,0.3,0,0.4,0.1,0.5c0.1,0.1,0.2,0.2,0.4,0.2c0.2,0,0.4-0.1,0.7-0.2l0.2,1.6
			c-0.6,0.1-1.1,0.2-1.7,0.2c-0.6,0-1-0.1-1.3-0.2c-0.3-0.2-0.5-0.4-0.6-0.7c-0.1-0.3-0.2-0.8-0.2-1.5v-2.2h-0.9v-1.7h0.9v-1.1
			L377,193.5z"/>
		<path class="st11" d="M379.6,193.5h2.4v1.6h-2.4V193.5z M379.6,195.9h2.4v6.2h-2.4V195.9z"/>
		<path class="st11" d="M383.2,199c0-0.9,0.3-1.7,1-2.3s1.5-0.9,2.6-0.9c1.2,0,2.2,0.4,2.8,1.1c0.5,0.6,0.8,1.3,0.8,2.2
			c0,1-0.3,1.7-1,2.4s-1.5,0.9-2.6,0.9c-1,0-1.8-0.3-2.4-0.8C383.6,200.8,383.2,200,383.2,199z M385.6,199c0,0.6,0.1,1,0.3,1.2
			s0.5,0.4,0.8,0.4c0.3,0,0.6-0.1,0.8-0.4s0.3-0.7,0.3-1.3c0-0.5-0.1-0.9-0.3-1.2s-0.5-0.4-0.8-0.4c-0.3,0-0.6,0.1-0.9,0.4
			S385.6,198.4,385.6,199z"/>
		<path class="st11" d="M391.5,195.9h2.2v1c0.3-0.4,0.7-0.7,1-0.9s0.8-0.3,1.2-0.3c0.7,0,1.2,0.2,1.5,0.6s0.6,1,0.6,1.8v4h-2.4v-3.4
			c0-0.4-0.1-0.7-0.2-0.8s-0.3-0.2-0.6-0.2c-0.3,0-0.5,0.1-0.7,0.3s-0.3,0.6-0.3,1.2v3h-2.4V195.9z"/>
	</g>
</g>
<g id="レイヤー_3">
	<path class="st12" d="M252.7,112.7c0-13.9,11.2-25.1,25.1-25.1h64.8c13.9,0,25.1,11.2,25.1,25.1s-11.2,25.1-25.1,25.1h-64.8
		C263.9,137.8,252.7,126.5,252.7,112.7z"/>
	<g>
		<path class="st13" d="M295.6,99.5h3.9c0.8,0,1.4,0.1,1.9,0.3s0.9,0.5,1.2,0.9s0.5,0.9,0.7,1.4s0.2,1.1,0.2,1.7
			c0,0.9-0.1,1.6-0.3,2.1s-0.5,0.9-0.9,1.3s-0.8,0.6-1.2,0.7c-0.6,0.2-1.1,0.2-1.6,0.2h-3.9V99.5z M298.3,101.5v4.7h0.7
			c0.6,0,0.9-0.1,1.2-0.2s0.4-0.3,0.6-0.6s0.2-0.8,0.2-1.5c0-0.9-0.1-1.5-0.4-1.9s-0.8-0.5-1.5-0.5H298.3z"/>
		<path class="st13" d="M307,103.9l-2.3-0.2c0.1-0.4,0.2-0.7,0.4-0.9s0.4-0.4,0.7-0.6c0.2-0.1,0.5-0.2,0.9-0.3s0.8-0.1,1.2-0.1
			c0.7,0,1.3,0,1.7,0.1s0.8,0.2,1.1,0.5c0.2,0.2,0.4,0.4,0.5,0.7s0.2,0.6,0.2,0.9v2.7c0,0.3,0,0.5,0.1,0.7s0.1,0.4,0.2,0.6h-2.2
			c-0.1-0.2-0.1-0.3-0.2-0.4s-0.1-0.2-0.1-0.4c-0.3,0.3-0.6,0.5-0.9,0.6c-0.4,0.2-0.9,0.3-1.5,0.3c-0.7,0-1.3-0.2-1.7-0.5
			s-0.6-0.8-0.6-1.3c0-0.5,0.1-0.9,0.4-1.2s0.8-0.5,1.5-0.7c0.9-0.2,1.5-0.3,1.7-0.4s0.5-0.2,0.8-0.3c0-0.3-0.1-0.5-0.2-0.6
			s-0.3-0.2-0.6-0.2c-0.4,0-0.7,0.1-0.9,0.2C307.2,103.5,307,103.6,307,103.9z M309,105.2c-0.3,0.1-0.7,0.2-1,0.3
			c-0.5,0.1-0.8,0.3-0.9,0.4c-0.1,0.1-0.2,0.3-0.2,0.4c0,0.2,0.1,0.3,0.2,0.5s0.3,0.2,0.6,0.2c0.3,0,0.5-0.1,0.7-0.2
			s0.4-0.3,0.5-0.5s0.1-0.4,0.1-0.7V105.2z"/>
		<path class="st13" d="M315.7,99.5v2.4h1.3v1.7h-1.3v2.2c0,0.3,0,0.4,0.1,0.5c0.1,0.1,0.2,0.2,0.4,0.2c0.2,0,0.4-0.1,0.7-0.2
			l0.2,1.6c-0.6,0.1-1.1,0.2-1.7,0.2c-0.6,0-1-0.1-1.3-0.2c-0.3-0.2-0.5-0.4-0.6-0.7c-0.1-0.3-0.2-0.8-0.2-1.5v-2.2h-0.9v-1.7h0.9
			v-1.1L315.7,99.5z"/>
		<path class="st13" d="M320.3,103.9l-2.3-0.2c0.1-0.4,0.2-0.7,0.4-0.9s0.4-0.4,0.7-0.6c0.2-0.1,0.5-0.2,0.9-0.3s0.8-0.1,1.2-0.1
			c0.7,0,1.3,0,1.7,0.1s0.8,0.2,1.1,0.5c0.2,0.2,0.4,0.4,0.5,0.7s0.2,0.6,0.2,0.9v2.7c0,0.3,0,0.5,0.1,0.7s0.1,0.4,0.2,0.6h-2.2
			c-0.1-0.2-0.1-0.3-0.2-0.4s-0.1-0.2-0.1-0.4c-0.3,0.3-0.6,0.5-0.9,0.6c-0.4,0.2-0.9,0.3-1.5,0.3c-0.7,0-1.3-0.2-1.7-0.5
			s-0.6-0.8-0.6-1.3c0-0.5,0.1-0.9,0.4-1.2s0.8-0.5,1.5-0.7c0.9-0.2,1.5-0.3,1.7-0.4s0.5-0.2,0.8-0.3c0-0.3-0.1-0.5-0.2-0.6
			s-0.3-0.2-0.6-0.2c-0.4,0-0.7,0.1-0.9,0.2C320.5,103.5,320.4,103.6,320.3,103.9z M322.4,105.2c-0.3,0.1-0.7,0.2-1,0.3
			c-0.5,0.1-0.8,0.3-0.9,0.4c-0.1,0.1-0.2,0.3-0.2,0.4c0,0.2,0.1,0.3,0.2,0.5s0.3,0.2,0.6,0.2c0.3,0,0.5-0.1,0.7-0.2
			s0.4-0.3,0.5-0.5s0.1-0.4,0.1-0.7V105.2z"/>
		<path class="st13" d="M268.5,113.9h2.6v5.1c0,0.5-0.1,1-0.2,1.4s-0.4,0.8-0.7,1.2c-0.3,0.3-0.7,0.6-1.1,0.7
			c-0.5,0.2-1.1,0.3-1.9,0.3c-0.4,0-0.9,0-1.4-0.1s-0.9-0.2-1.2-0.3c-0.3-0.2-0.6-0.4-0.9-0.7c-0.3-0.3-0.5-0.6-0.6-1
			c-0.2-0.5-0.2-1-0.2-1.5v-5.1h2.6v5.2c0,0.5,0.1,0.8,0.4,1.1c0.3,0.3,0.6,0.4,1.1,0.4c0.5,0,0.8-0.1,1.1-0.4
			c0.3-0.3,0.4-0.6,0.4-1.1V113.9z"/>
		<path class="st13" d="M272.8,116.3h2.2v1c0.3-0.4,0.7-0.7,1-0.9s0.8-0.3,1.2-0.3c0.7,0,1.2,0.2,1.5,0.6s0.6,1,0.6,1.8v4H277v-3.4
			c0-0.4-0.1-0.7-0.2-0.8s-0.3-0.2-0.6-0.2c-0.3,0-0.5,0.1-0.7,0.3s-0.3,0.6-0.3,1.2v3h-2.4V116.3z"/>
		<path class="st13" d="M287.3,113.9v8.6h-2.2v-0.9c-0.3,0.4-0.6,0.7-0.9,0.8c-0.3,0.2-0.7,0.3-1.1,0.3c-0.8,0-1.5-0.3-1.9-1
			s-0.7-1.4-0.7-2.3c0-1,0.2-1.8,0.7-2.4s1.1-0.8,1.9-0.8c0.4,0,0.7,0.1,1,0.2s0.6,0.3,0.8,0.6v-3H287.3z M284.9,119.4
			c0-0.5-0.1-0.9-0.3-1.1s-0.5-0.4-0.8-0.4c-0.3,0-0.5,0.1-0.7,0.3s-0.3,0.6-0.3,1.2c0,0.5,0.1,0.9,0.3,1.1s0.4,0.4,0.7,0.4
			c0.3,0,0.6-0.1,0.8-0.4S284.9,119.9,284.9,119.4z"/>
		<path class="st13" d="M295.7,120h-4.8c0,0.4,0.1,0.7,0.3,0.9c0.2,0.3,0.5,0.4,0.9,0.4c0.2,0,0.5-0.1,0.7-0.2
			c0.1-0.1,0.3-0.2,0.4-0.4l2.3,0.2c-0.4,0.6-0.8,1.1-1.3,1.3s-1.2,0.4-2.2,0.4c-0.8,0-1.5-0.1-1.9-0.3s-0.9-0.6-1.2-1.1
			s-0.5-1.1-0.5-1.8c0-1,0.3-1.8,0.9-2.4s1.5-0.9,2.6-0.9c0.9,0,1.6,0.1,2.1,0.4s0.9,0.7,1.2,1.2s0.4,1.2,0.4,2V120z M293.3,118.9
			c0-0.5-0.2-0.8-0.4-1s-0.5-0.3-0.8-0.3c-0.4,0-0.7,0.2-0.9,0.5c-0.1,0.2-0.2,0.5-0.3,0.8H293.3z"/>
		<path class="st13" d="M296.8,116.3h2.2v1c0.2-0.4,0.4-0.7,0.7-0.9s0.5-0.2,0.8-0.2c0.4,0,0.7,0.1,1.2,0.3l-0.7,1.7
			c-0.3-0.1-0.5-0.2-0.7-0.2c-0.3,0-0.6,0.1-0.7,0.4c-0.2,0.4-0.4,1-0.4,2v2.1h-2.4V116.3z"/>
		<path class="st13" d="M301.7,120.8l2.4-0.2c0.1,0.3,0.2,0.5,0.4,0.6s0.4,0.2,0.7,0.2c0.3,0,0.6-0.1,0.7-0.2
			c0.1-0.1,0.2-0.2,0.2-0.4c0-0.2-0.1-0.3-0.3-0.4c-0.1-0.1-0.5-0.1-1-0.2c-0.8-0.1-1.4-0.3-1.7-0.4c-0.3-0.1-0.6-0.3-0.8-0.6
			s-0.3-0.6-0.3-1c0-0.4,0.1-0.8,0.4-1.1c0.2-0.3,0.6-0.5,1-0.7c0.4-0.1,1-0.2,1.7-0.2c0.7,0,1.3,0.1,1.6,0.2s0.6,0.3,0.9,0.5
			s0.4,0.6,0.6,1l-2.3,0.2c-0.1-0.2-0.2-0.3-0.3-0.4c-0.2-0.1-0.4-0.2-0.7-0.2c-0.3,0-0.5,0-0.6,0.1c-0.1,0.1-0.2,0.2-0.2,0.3
			c0,0.2,0.1,0.3,0.2,0.3c0.2,0.1,0.5,0.1,1,0.2c0.8,0.1,1.4,0.2,1.8,0.4s0.7,0.4,0.9,0.7c0.2,0.3,0.3,0.6,0.3,1
			c0,0.4-0.1,0.7-0.3,1c-0.2,0.3-0.6,0.6-1,0.8c-0.5,0.2-1.1,0.3-1.9,0.3c-1.1,0-1.9-0.2-2.4-0.5S301.8,121.4,301.7,120.8z"/>
		<path class="st13" d="M312.3,113.9v2.4h1.3v1.7h-1.3v2.2c0,0.3,0,0.4,0.1,0.5c0.1,0.1,0.2,0.2,0.4,0.2c0.2,0,0.4-0.1,0.7-0.2
			l0.2,1.6c-0.6,0.1-1.1,0.2-1.7,0.2c-0.6,0-1-0.1-1.3-0.2c-0.3-0.2-0.5-0.4-0.6-0.7c-0.1-0.3-0.2-0.8-0.2-1.5V118H309v-1.7h0.9
			v-1.1L312.3,113.9z"/>
		<path class="st13" d="M316.9,118.3l-2.3-0.2c0.1-0.4,0.2-0.7,0.4-0.9s0.4-0.4,0.7-0.6c0.2-0.1,0.5-0.2,0.9-0.3s0.8-0.1,1.2-0.1
			c0.7,0,1.3,0,1.7,0.1s0.8,0.2,1.1,0.5c0.2,0.2,0.4,0.4,0.5,0.7s0.2,0.6,0.2,0.9v2.7c0,0.3,0,0.5,0.1,0.7s0.1,0.4,0.2,0.6h-2.2
			c-0.1-0.2-0.1-0.3-0.2-0.4s-0.1-0.2-0.1-0.4c-0.3,0.3-0.6,0.5-0.9,0.6c-0.4,0.2-0.9,0.3-1.5,0.3c-0.7,0-1.3-0.2-1.7-0.5
			s-0.6-0.8-0.6-1.3c0-0.5,0.1-0.9,0.4-1.2s0.8-0.5,1.5-0.7c0.9-0.2,1.5-0.3,1.7-0.4s0.5-0.2,0.8-0.3c0-0.3-0.1-0.5-0.2-0.6
			s-0.3-0.2-0.6-0.2c-0.4,0-0.7,0.1-0.9,0.2C317.2,117.9,317,118,316.9,118.3z M319,119.6c-0.3,0.1-0.7,0.2-1,0.3
			c-0.5,0.1-0.8,0.3-0.9,0.4c-0.1,0.1-0.2,0.3-0.2,0.4c0,0.2,0.1,0.3,0.2,0.5s0.3,0.2,0.6,0.2c0.3,0,0.5-0.1,0.7-0.2
			s0.4-0.3,0.5-0.5s0.1-0.4,0.1-0.7V119.6z"/>
		<path class="st13" d="M322.8,116.3h2.2v1c0.3-0.4,0.7-0.7,1-0.9s0.8-0.3,1.2-0.3c0.7,0,1.2,0.2,1.5,0.6s0.6,1,0.6,1.8v4H327v-3.4
			c0-0.4-0.1-0.7-0.2-0.8s-0.3-0.2-0.6-0.2c-0.3,0-0.5,0.1-0.7,0.3s-0.3,0.6-0.3,1.2v3h-2.4V116.3z"/>
		<path class="st13" d="M337.3,113.9v8.6h-2.2v-0.9c-0.3,0.4-0.6,0.7-0.9,0.8c-0.3,0.2-0.7,0.3-1.1,0.3c-0.8,0-1.5-0.3-1.9-1
			s-0.7-1.4-0.7-2.3c0-1,0.2-1.8,0.7-2.4s1.1-0.8,1.9-0.8c0.4,0,0.7,0.1,1,0.2s0.6,0.3,0.8,0.6v-3H337.3z M334.9,119.4
			c0-0.5-0.1-0.9-0.3-1.1s-0.5-0.4-0.8-0.4c-0.3,0-0.5,0.1-0.7,0.3s-0.3,0.6-0.3,1.2c0,0.5,0.1,0.9,0.3,1.1s0.4,0.4,0.7,0.4
			c0.3,0,0.6-0.1,0.8-0.4S334.9,119.9,334.9,119.4z"/>
		<path class="st13" d="M338.9,113.9h2.4v1.6h-2.4V113.9z M338.9,116.3h2.4v6.2h-2.4V116.3z"/>
		<path class="st13" d="M342.8,116.3h2.2v1c0.3-0.4,0.7-0.7,1-0.9s0.8-0.3,1.2-0.3c0.7,0,1.2,0.2,1.5,0.6s0.6,1,0.6,1.8v4H347v-3.4
			c0-0.4-0.1-0.7-0.2-0.8s-0.3-0.2-0.6-0.2c-0.3,0-0.5,0.1-0.7,0.3s-0.3,0.6-0.3,1.2v3h-2.4V116.3z"/>
		<path class="st13" d="M355.1,116.3h2.2v5.9l0,0.3c0,0.4-0.1,0.8-0.2,1.1s-0.4,0.6-0.7,0.9s-0.6,0.4-1,0.5s-0.9,0.1-1.5,0.1
			c-1.3,0-2.1-0.2-2.6-0.6s-0.7-0.9-0.7-1.5c0-0.1,0-0.2,0-0.3l2.3,0.3c0.1,0.2,0.1,0.4,0.3,0.4c0.2,0.1,0.4,0.2,0.7,0.2
			c0.3,0,0.6-0.1,0.8-0.3s0.3-0.5,0.3-1v-0.9c-0.2,0.3-0.5,0.5-0.7,0.6c-0.4,0.2-0.8,0.3-1.2,0.3c-0.8,0-1.5-0.4-2-1.1
			c-0.4-0.5-0.5-1.2-0.5-2c0-1,0.2-1.7,0.7-2.2s1.1-0.8,1.8-0.8c0.5,0,0.9,0.1,1.2,0.2s0.6,0.4,0.9,0.8V116.3z M352.9,119.3
			c0,0.4,0.1,0.8,0.3,1s0.4,0.3,0.8,0.3c0.3,0,0.5-0.1,0.7-0.3s0.3-0.6,0.3-1s-0.1-0.8-0.3-1s-0.5-0.4-0.8-0.4s-0.5,0.1-0.7,0.3
			S352.9,118.8,352.9,119.3z"/>
	</g>
</g>
<g id="レイヤー_2">
	<path class="st14" d="M93.9,112.7c0-13.9,11.2-25.1,25.1-25.1h64.8c13.9,0,25.1,11.2,25.1,25.1s-11.2,25.1-25.1,25.1H119
		C105.1,137.8,93.9,126.5,93.9,112.7z"/>
	<g>
		<path class="st15" d="M123.2,99.5h5c0.8,0,1.5,0.2,1.9,0.6s0.7,0.9,0.7,1.5c0,0.5-0.2,0.9-0.5,1.3c-0.2,0.2-0.5,0.4-0.9,0.6
			c0.6,0.1,1.1,0.4,1.4,0.8s0.4,0.8,0.4,1.4c0,0.4-0.1,0.8-0.3,1.2s-0.5,0.6-0.8,0.8c-0.2,0.1-0.6,0.2-1,0.3c-0.6,0.1-1,0.1-1.2,0.1
			h-4.6V99.5z M125.9,102.9h1.2c0.4,0,0.7-0.1,0.9-0.2s0.2-0.3,0.2-0.6c0-0.3-0.1-0.4-0.2-0.6s-0.4-0.2-0.8-0.2h-1.2V102.9z
			 M125.9,106.3h1.4c0.5,0,0.8-0.1,1-0.2s0.3-0.4,0.3-0.7c0-0.3-0.1-0.5-0.3-0.6s-0.5-0.2-1-0.2h-1.3V106.3z"/>
		<path class="st15" d="M139,108.1h-2.2v-1c-0.3,0.4-0.7,0.7-1,0.9s-0.8,0.3-1.2,0.3c-0.7,0-1.2-0.2-1.5-0.6s-0.6-1-0.6-1.8v-4h2.4
			v3.4c0,0.4,0.1,0.7,0.2,0.8s0.3,0.2,0.6,0.2c0.3,0,0.5-0.1,0.7-0.3s0.3-0.6,0.3-1.2v-3h2.4V108.1z"/>
		<path class="st15" d="M140,106.4l2.4-0.2c0.1,0.3,0.2,0.5,0.4,0.6s0.4,0.2,0.7,0.2c0.3,0,0.6-0.1,0.7-0.2c0.1-0.1,0.2-0.2,0.2-0.4
			c0-0.2-0.1-0.3-0.3-0.4c-0.1-0.1-0.5-0.1-1-0.2c-0.8-0.1-1.4-0.3-1.7-0.4c-0.3-0.1-0.6-0.3-0.8-0.6s-0.3-0.6-0.3-1
			c0-0.4,0.1-0.8,0.4-1.1c0.2-0.3,0.6-0.5,1-0.7c0.4-0.1,1-0.2,1.7-0.2c0.7,0,1.3,0.1,1.6,0.2s0.6,0.3,0.9,0.5s0.4,0.6,0.6,1
			l-2.3,0.2c-0.1-0.2-0.2-0.3-0.3-0.4c-0.2-0.1-0.4-0.2-0.7-0.2c-0.3,0-0.5,0-0.6,0.1c-0.1,0.1-0.2,0.2-0.2,0.3
			c0,0.2,0.1,0.3,0.2,0.3c0.2,0.1,0.5,0.1,1,0.2c0.8,0.1,1.4,0.2,1.8,0.4s0.7,0.4,0.9,0.7c0.2,0.3,0.3,0.6,0.3,1
			c0,0.4-0.1,0.7-0.3,1c-0.2,0.3-0.6,0.6-1,0.8c-0.5,0.2-1.1,0.3-1.9,0.3c-1.1,0-1.9-0.2-2.4-0.5S140.1,107,140,106.4z"/>
		<path class="st15" d="M147.8,99.5h2.4v1.6h-2.4V99.5z M147.8,101.9h2.4v6.2h-2.4V101.9z"/>
		<path class="st15" d="M151.7,101.9h2.2v1c0.3-0.4,0.7-0.7,1-0.9s0.8-0.3,1.2-0.3c0.7,0,1.2,0.2,1.5,0.6s0.6,1,0.6,1.8v4h-2.4v-3.4
			c0-0.4-0.1-0.7-0.2-0.8s-0.3-0.2-0.6-0.2c-0.3,0-0.5,0.1-0.7,0.3s-0.3,0.6-0.3,1.2v3h-2.4V101.9z"/>
		<path class="st15" d="M166.7,105.6h-4.8c0,0.4,0.1,0.7,0.3,0.9c0.2,0.3,0.5,0.4,0.9,0.4c0.2,0,0.5-0.1,0.7-0.2
			c0.1-0.1,0.3-0.2,0.4-0.4l2.3,0.2c-0.4,0.6-0.8,1.1-1.3,1.3s-1.2,0.4-2.2,0.4c-0.8,0-1.5-0.1-1.9-0.3s-0.9-0.6-1.2-1.1
			s-0.5-1.1-0.5-1.8c0-1,0.3-1.8,0.9-2.4s1.5-0.9,2.6-0.9c0.9,0,1.6,0.1,2.1,0.4s0.9,0.7,1.2,1.2s0.4,1.2,0.4,2V105.6z M164.2,104.5
			c0-0.5-0.2-0.8-0.4-1s-0.5-0.3-0.8-0.3c-0.4,0-0.7,0.2-0.9,0.5c-0.1,0.2-0.2,0.5-0.3,0.8H164.2z"/>
		<path class="st15" d="M167.3,106.4l2.4-0.2c0.1,0.3,0.2,0.5,0.4,0.6s0.4,0.2,0.7,0.2c0.3,0,0.6-0.1,0.7-0.2
			c0.1-0.1,0.2-0.2,0.2-0.4c0-0.2-0.1-0.3-0.3-0.4c-0.1-0.1-0.5-0.1-1-0.2c-0.8-0.1-1.4-0.3-1.7-0.4c-0.3-0.1-0.6-0.3-0.8-0.6
			s-0.3-0.6-0.3-1c0-0.4,0.1-0.8,0.4-1.1c0.2-0.3,0.6-0.5,1-0.7c0.4-0.1,1-0.2,1.7-0.2c0.7,0,1.3,0.1,1.6,0.2s0.6,0.3,0.9,0.5
			s0.4,0.6,0.6,1l-2.3,0.2c-0.1-0.2-0.2-0.3-0.3-0.4c-0.2-0.1-0.4-0.2-0.7-0.2c-0.3,0-0.5,0-0.6,0.1c-0.1,0.1-0.2,0.2-0.2,0.3
			c0,0.2,0.1,0.3,0.2,0.3c0.2,0.1,0.5,0.1,1,0.2c0.8,0.1,1.4,0.2,1.8,0.4s0.7,0.4,0.9,0.7c0.2,0.3,0.3,0.6,0.3,1
			c0,0.4-0.1,0.7-0.3,1c-0.2,0.3-0.6,0.6-1,0.8c-0.5,0.2-1.1,0.3-1.9,0.3c-1.1,0-1.9-0.2-2.4-0.5S167.5,107,167.3,106.4z"/>
		<path class="st15" d="M174.7,106.4l2.4-0.2c0.1,0.3,0.2,0.5,0.4,0.6s0.4,0.2,0.7,0.2c0.3,0,0.6-0.1,0.7-0.2
			c0.1-0.1,0.2-0.2,0.2-0.4c0-0.2-0.1-0.3-0.3-0.4c-0.1-0.1-0.5-0.1-1-0.2c-0.8-0.1-1.4-0.3-1.7-0.4c-0.3-0.1-0.6-0.3-0.8-0.6
			s-0.3-0.6-0.3-1c0-0.4,0.1-0.8,0.4-1.1c0.2-0.3,0.6-0.5,1-0.7c0.4-0.1,1-0.2,1.7-0.2c0.7,0,1.3,0.1,1.6,0.2s0.6,0.3,0.9,0.5
			s0.4,0.6,0.6,1l-2.3,0.2c-0.1-0.2-0.2-0.3-0.3-0.4c-0.2-0.1-0.4-0.2-0.7-0.2c-0.3,0-0.5,0-0.6,0.1c-0.1,0.1-0.2,0.2-0.2,0.3
			c0,0.2,0.1,0.3,0.2,0.3c0.2,0.1,0.5,0.1,1,0.2c0.8,0.1,1.4,0.2,1.8,0.4s0.7,0.4,0.9,0.7c0.2,0.3,0.3,0.6,0.3,1
			c0,0.4-0.1,0.7-0.3,1c-0.2,0.3-0.6,0.6-1,0.8c-0.5,0.2-1.1,0.3-1.9,0.3c-1.1,0-1.9-0.2-2.4-0.5S174.8,107,174.7,106.4z"/>
		<path class="st15" d="M110.5,113.9h2.6v5.1c0,0.5-0.1,1-0.2,1.4s-0.4,0.8-0.7,1.2c-0.3,0.3-0.7,0.6-1.1,0.7
			c-0.5,0.2-1.1,0.3-1.9,0.3c-0.4,0-0.9,0-1.4-0.1s-0.9-0.2-1.2-0.3c-0.3-0.2-0.6-0.4-0.9-0.7c-0.3-0.3-0.5-0.6-0.6-1
			c-0.2-0.5-0.2-1-0.2-1.5v-5.1h2.6v5.2c0,0.5,0.1,0.8,0.4,1.1c0.3,0.3,0.6,0.4,1.1,0.4c0.5,0,0.8-0.1,1.1-0.4
			c0.3-0.3,0.4-0.6,0.4-1.1V113.9z"/>
		<path class="st15" d="M114.7,116.3h2.2v1c0.3-0.4,0.7-0.7,1-0.9s0.8-0.3,1.2-0.3c0.7,0,1.2,0.2,1.5,0.6s0.6,1,0.6,1.8v4h-2.4v-3.4
			c0-0.4-0.1-0.7-0.2-0.8s-0.3-0.2-0.6-0.2c-0.3,0-0.5,0.1-0.7,0.3s-0.3,0.6-0.3,1.2v3h-2.4V116.3z"/>
		<path class="st15" d="M129.3,113.9v8.6h-2.2v-0.9c-0.3,0.4-0.6,0.7-0.9,0.8c-0.3,0.2-0.7,0.3-1.1,0.3c-0.8,0-1.5-0.3-1.9-1
			s-0.7-1.4-0.7-2.3c0-1,0.2-1.8,0.7-2.4s1.1-0.8,1.9-0.8c0.4,0,0.7,0.1,1,0.2s0.6,0.3,0.8,0.6v-3H129.3z M126.9,119.4
			c0-0.5-0.1-0.9-0.3-1.1s-0.5-0.4-0.8-0.4c-0.3,0-0.5,0.1-0.7,0.3s-0.3,0.6-0.3,1.2c0,0.5,0.1,0.9,0.3,1.1s0.4,0.4,0.7,0.4
			c0.3,0,0.6-0.1,0.8-0.4S126.9,119.9,126.9,119.4z"/>
		<path class="st15" d="M137.7,120h-4.8c0,0.4,0.1,0.7,0.3,0.9c0.2,0.3,0.5,0.4,0.9,0.4c0.2,0,0.5-0.1,0.7-0.2
			c0.1-0.1,0.3-0.2,0.4-0.4l2.3,0.2c-0.4,0.6-0.8,1.1-1.3,1.3s-1.2,0.4-2.2,0.4c-0.8,0-1.5-0.1-1.9-0.3s-0.9-0.6-1.2-1.1
			s-0.5-1.1-0.5-1.8c0-1,0.3-1.8,0.9-2.4s1.5-0.9,2.6-0.9c0.9,0,1.6,0.1,2.1,0.4s0.9,0.7,1.2,1.2s0.4,1.2,0.4,2V120z M135.2,118.9
			c0-0.5-0.2-0.8-0.4-1s-0.5-0.3-0.8-0.3c-0.4,0-0.7,0.2-0.9,0.5c-0.1,0.2-0.2,0.5-0.3,0.8H135.2z"/>
		<path class="st15" d="M138.8,116.3h2.2v1c0.2-0.4,0.4-0.7,0.7-0.9s0.5-0.2,0.8-0.2c0.4,0,0.7,0.1,1.2,0.3l-0.7,1.7
			c-0.3-0.1-0.5-0.2-0.7-0.2c-0.3,0-0.6,0.1-0.7,0.4c-0.2,0.4-0.4,1-0.4,2v2.1h-2.4V116.3z"/>
		<path class="st15" d="M143.7,120.8l2.4-0.2c0.1,0.3,0.2,0.5,0.4,0.6s0.4,0.2,0.7,0.2c0.3,0,0.6-0.1,0.7-0.2
			c0.1-0.1,0.2-0.2,0.2-0.4c0-0.2-0.1-0.3-0.3-0.4c-0.1-0.1-0.5-0.1-1-0.2c-0.8-0.1-1.4-0.3-1.7-0.4c-0.3-0.1-0.6-0.3-0.8-0.6
			s-0.3-0.6-0.3-1c0-0.4,0.1-0.8,0.4-1.1c0.2-0.3,0.6-0.5,1-0.7c0.4-0.1,1-0.2,1.7-0.2c0.7,0,1.3,0.1,1.6,0.2s0.6,0.3,0.9,0.5
			s0.4,0.6,0.6,1l-2.3,0.2c-0.1-0.2-0.2-0.3-0.3-0.4c-0.2-0.1-0.4-0.2-0.7-0.2c-0.3,0-0.5,0-0.6,0.1c-0.1,0.1-0.2,0.2-0.2,0.3
			c0,0.2,0.1,0.3,0.2,0.3c0.2,0.1,0.5,0.1,1,0.2c0.8,0.1,1.4,0.2,1.8,0.4s0.7,0.4,0.9,0.7c0.2,0.3,0.3,0.6,0.3,1
			c0,0.4-0.1,0.7-0.3,1c-0.2,0.3-0.6,0.6-1,0.8c-0.5,0.2-1.1,0.3-1.9,0.3c-1.1,0-1.9-0.2-2.4-0.5S143.8,121.4,143.7,120.8z"/>
		<path class="st15" d="M154.3,113.9v2.4h1.3v1.7h-1.3v2.2c0,0.3,0,0.4,0.1,0.5c0.1,0.1,0.2,0.2,0.4,0.2c0.2,0,0.4-0.1,0.7-0.2
			l0.2,1.6c-0.6,0.1-1.1,0.2-1.7,0.2c-0.6,0-1-0.1-1.3-0.2c-0.3-0.2-0.5-0.4-0.6-0.7c-0.1-0.3-0.2-0.8-0.2-1.5V118H151v-1.7h0.9
			v-1.1L154.3,113.9z"/>
		<path class="st15" d="M158.9,118.3l-2.3-0.2c0.1-0.4,0.2-0.7,0.4-0.9s0.4-0.4,0.7-0.6c0.2-0.1,0.5-0.2,0.9-0.3s0.8-0.1,1.2-0.1
			c0.7,0,1.3,0,1.7,0.1s0.8,0.2,1.1,0.5c0.2,0.2,0.4,0.4,0.5,0.7s0.2,0.6,0.2,0.9v2.7c0,0.3,0,0.5,0.1,0.7s0.1,0.4,0.2,0.6h-2.2
			c-0.1-0.2-0.1-0.3-0.2-0.4s-0.1-0.2-0.1-0.4c-0.3,0.3-0.6,0.5-0.9,0.6c-0.4,0.2-0.9,0.3-1.5,0.3c-0.7,0-1.3-0.2-1.7-0.5
			s-0.6-0.8-0.6-1.3c0-0.5,0.1-0.9,0.4-1.2s0.8-0.5,1.5-0.7c0.9-0.2,1.5-0.3,1.7-0.4s0.5-0.2,0.8-0.3c0-0.3-0.1-0.5-0.2-0.6
			s-0.3-0.2-0.6-0.2c-0.4,0-0.7,0.1-0.9,0.2C159.1,117.9,159,118,158.9,118.3z M161,119.6c-0.3,0.1-0.7,0.2-1,0.3
			c-0.5,0.1-0.8,0.3-0.9,0.4c-0.1,0.1-0.2,0.3-0.2,0.4c0,0.2,0.1,0.3,0.2,0.5s0.3,0.2,0.6,0.2c0.3,0,0.5-0.1,0.7-0.2
			s0.4-0.3,0.5-0.5s0.1-0.4,0.1-0.7V119.6z"/>
		<path class="st15" d="M164.7,116.3h2.2v1c0.3-0.4,0.7-0.7,1-0.9s0.8-0.3,1.2-0.3c0.7,0,1.2,0.2,1.5,0.6s0.6,1,0.6,1.8v4h-2.4v-3.4
			c0-0.4-0.1-0.7-0.2-0.8s-0.3-0.2-0.6-0.2c-0.3,0-0.5,0.1-0.7,0.3s-0.3,0.6-0.3,1.2v3h-2.4V116.3z"/>
		<path class="st15" d="M179.3,113.9v8.6h-2.2v-0.9c-0.3,0.4-0.6,0.7-0.9,0.8c-0.3,0.2-0.7,0.3-1.1,0.3c-0.8,0-1.5-0.3-1.9-1
			s-0.7-1.4-0.7-2.3c0-1,0.2-1.8,0.7-2.4s1.1-0.8,1.9-0.8c0.4,0,0.7,0.1,1,0.2s0.6,0.3,0.8,0.6v-3H179.3z M176.9,119.4
			c0-0.5-0.1-0.9-0.3-1.1s-0.5-0.4-0.8-0.4c-0.3,0-0.5,0.1-0.7,0.3s-0.3,0.6-0.3,1.2c0,0.5,0.1,0.9,0.3,1.1s0.4,0.4,0.7,0.4
			c0.3,0,0.6-0.1,0.8-0.4S176.9,119.9,176.9,119.4z"/>
		<path class="st15" d="M180.8,113.9h2.4v1.6h-2.4V113.9z M180.8,116.3h2.4v6.2h-2.4V116.3z"/>
		<path class="st15" d="M184.7,116.3h2.2v1c0.3-0.4,0.7-0.7,1-0.9s0.8-0.3,1.2-0.3c0.7,0,1.2,0.2,1.5,0.6s0.6,1,0.6,1.8v4h-2.4v-3.4
			c0-0.4-0.1-0.7-0.2-0.8s-0.3-0.2-0.6-0.2c-0.3,0-0.5,0.1-0.7,0.3s-0.3,0.6-0.3,1.2v3h-2.4V116.3z"/>
		<path class="st15" d="M197.1,116.3h2.2v5.9l0,0.3c0,0.4-0.1,0.8-0.2,1.1s-0.4,0.6-0.7,0.9s-0.6,0.4-1,0.5s-0.9,0.1-1.5,0.1
			c-1.3,0-2.1-0.2-2.6-0.6s-0.7-0.9-0.7-1.5c0-0.1,0-0.2,0-0.3l2.3,0.3c0.1,0.2,0.1,0.4,0.3,0.4c0.2,0.1,0.4,0.2,0.7,0.2
			c0.3,0,0.6-0.1,0.8-0.3s0.3-0.5,0.3-1v-0.9c-0.2,0.3-0.5,0.5-0.7,0.6c-0.4,0.2-0.8,0.3-1.2,0.3c-0.8,0-1.5-0.4-2-1.1
			c-0.4-0.5-0.5-1.2-0.5-2c0-1,0.2-1.7,0.7-2.2s1.1-0.8,1.8-0.8c0.5,0,0.9,0.1,1.2,0.2s0.6,0.4,0.9,0.8V116.3z M194.8,119.3
			c0,0.4,0.1,0.8,0.3,1s0.4,0.3,0.8,0.3c0.3,0,0.5-0.1,0.7-0.3s0.3-0.6,0.3-1s-0.1-0.8-0.3-1s-0.5-0.4-0.8-0.4s-0.5,0.1-0.7,0.3
			S194.8,118.8,194.8,119.3z"/>
	</g>
</g>
</svg>
