<?xml version="1.0" encoding="utf-8"?>
<!-- Generator: Adobe Illustrator 21.1.0, SVG Export Plug-In . SVG Version: 6.00 Build 0)  -->
<svg version="1.1" id="レイヤー_1" xmlns="http://www.w3.org/2000/svg" xmlns:xlink="http://www.w3.org/1999/xlink" x="0px"
	 y="0px" viewBox="0 0 667 206" style="enable-background:new 0 0 667 206;" xml:space="preserve">
<style type="text/css">
	.st0{fill:#B5B5B5;}
	.st1{fill:#FFFFFF;}
	.st2{fill:none;stroke:#31859C;stroke-width:3.96;stroke-linecap:round;stroke-linejoin:round;stroke-miterlimit:10;}
	.st3{fill-rule:evenodd;clip-rule:evenodd;fill:#31859C;}
	.st4{fill:#595959;}
	.st5{fill:none;stroke:#31859C;stroke-width:3;stroke-linejoin:round;stroke-miterlimit:10;stroke-dasharray:10,5;}
	.st6{fill:none;stroke:#31859C;stroke-width:3;stroke-linejoin:round;}
	.st7{fill:none;stroke:#31859C;stroke-width:3;stroke-linejoin:round;stroke-dasharray:8.4034,4.2017;}
	.st8{fill:none;stroke:#31859C;stroke-width:3;stroke-linejoin:round;stroke-dasharray:9.8967,4.9483;}
</style>
<path class="st0" d="M74.29,77.368L74.29,77.368c0-12.555-10.172-22.713-22.727-22.713c-12.542,0-22.713,10.158-22.713,22.713
	c0,12.542,10.172,22.727,22.713,22.727C64.118,100.094,74.29,89.909,74.29,77.368L74.29,77.368z"/>
<path class="st1" d="M44.467,67.808L44.467,67.808v19.145c-1.038-0.146-1.957-0.865-1.957-1.931V69.739
	C42.51,68.674,43.429,67.942,44.467,67.808L44.467,67.808z M41.804,70.138L41.804,70.138V84.61c-0.919-0.24-1.598-1.078-1.598-2.064
	V72.202C40.207,71.203,40.886,70.378,41.804,70.138L41.804,70.138z M57.954,73.64L57.954,73.64h-7.815
	c-0.479,0-0.879-0.399-0.879-0.892c0-0.493,0.399-0.879,0.879-0.879h7.815c0.493,0,0.892,0.386,0.892,0.879
	C58.846,73.24,58.446,73.64,57.954,73.64L57.954,73.64z M57.954,77.195L57.954,77.195h-7.815c-0.479,0-0.879-0.399-0.879-0.892
	c0-0.493,0.399-0.892,0.879-0.892h7.815c0.493,0,0.892,0.399,0.892,0.892C58.846,76.795,58.446,77.195,57.954,77.195L57.954,77.195z
	 M55.464,80.736L55.464,80.736h-5.326c-0.479,0-0.879-0.399-0.879-0.879c0-0.493,0.399-0.892,0.879-0.892h5.326
	c0.493,0,0.892,0.399,0.892,0.892C56.356,80.337,55.957,80.736,55.464,80.736L55.464,80.736z M60.79,66.011L60.79,66.011H47.303
	c-1.172,0-2.13,0.945-2.13,2.13v18.306c0,0.825,0.466,1.598,1.198,1.864c0.746,0.293,1.504,0.413,2.317,0.413
	c2.263,0,4.22-1.092,5.432-1.997l0.146-0.12c1.025-0.746,2.183-1.571,5.033-1.571c0.519,0,1.105-0.04,1.678,0.146h0.173
	c0.439,0,0.879-0.24,1.198-0.559c0.373-0.359,0.572-0.945,0.572-1.491V68.141C62.92,66.956,61.975,66.011,60.79,66.011L60.79,66.011
	z"/>
<path class="st0" d="M207.13,77.368L207.13,77.368c0-12.555-10.172-22.713-22.727-22.713c-12.542,0-22.713,10.158-22.713,22.713
	c0,12.542,10.172,22.727,22.713,22.727C196.958,100.094,207.13,89.909,207.13,77.368L207.13,77.368z"/>
<path class="st1" d="M193.284,66.011L193.284,66.011h-16.336c1.185,0,2.13,0.945,2.13,2.13v0.879c0,0.493,0.399,0.892,0.892,0.892
	h14.552c0.493,0,0.892-0.399,0.892-0.892v-0.879C195.414,66.956,194.455,66.011,193.284,66.011L193.284,66.011z M189.196,73.8
	L189.196,73.8c0-0.479-0.373-0.865-0.892-0.865h-7.802c-0.506,0-0.892,0.386-0.892,0.865v0.027c0,0.493,0.386,0.879,0.892,0.879
	h7.802c0.519,0,0.892-0.386,0.892-0.879V73.8L189.196,73.8L189.196,73.8z M189.196,77.354L189.196,77.354
	c0-0.493-0.373-0.879-0.892-0.879h-7.802c-0.506,0-0.892,0.386-0.892,0.879v0.027c0,0.479,0.386,0.879,0.892,0.879h7.802
	c0.519,0,0.892-0.399,0.892-0.879V77.354L189.196,77.354L189.196,77.354z M186.707,80.896L186.707,80.896
	c0-0.479-0.506-0.865-0.879-0.865h-5.326c-0.386,0-0.892,0.386-0.892,0.865v0.04c0,0.479,0.506,0.865,0.892,0.865h5.326
	c0.373,0,0.879-0.386,0.879-0.865V80.896L186.707,80.896L186.707,80.896z M193.284,70.618L193.284,70.618v15.977
	c0,1.185-0.959,2.13-2.13,2.13h-17.401c1.185,0,1.771-0.945,1.771-2.13V68.141c0-0.786,0.639-1.425,1.425-1.425
	c0.786,0,1.425,0.639,1.425,1.425v0.879c0,0.879,0.719,1.598,1.598,1.598H193.284L193.284,70.618L193.284,70.618z M174.817,84.65
	L174.817,84.65v1.944c0,0.786-0.639,1.425-1.425,1.425c-0.772,0-1.411-0.639-1.411-1.425v-1.065c0-0.493,0.399-0.879,0.879-0.879
	H174.817L174.817,84.65L174.817,84.65z"/>
<path class="st0" d="M198.219,136.906L198.219,136.906c0-7.639-6.216-13.82-13.888-13.82c-7.664,0-13.88,6.181-13.88,13.82
	c0,7.631,6.216,13.828,13.88,13.828C192.003,150.734,198.219,144.537,198.219,136.906L198.219,136.906z"/>
<path class="st1" d="M184.33,137.554L184.33,137.554c-0.358,0-0.651-0.292-0.651-0.648s0.293-0.648,0.651-0.648
	s0.651,0.292,0.651,0.648S184.688,137.554,184.33,137.554L184.33,137.554z M185.087,135.723L185.087,135.723v-2.6
	c0-0.413-0.334-0.753-0.757-0.753c-0.415,0-0.757,0.34-0.757,0.753v2.6c-0.366,0.235-0.618,0.632-0.651,1.094l-1.733,0.996
	c-0.366,0.211-0.488,0.672-0.277,1.037c0.212,0.365,0.675,0.486,1.033,0.276l1.717-0.988c0.195,0.113,0.423,0.17,0.667,0.17
	c0.781,0,1.408-0.624,1.408-1.401C185.738,136.412,185.486,135.974,185.087,135.723L185.087,135.723z M189.22,139.709
	L189.22,139.709c-1.562,2.689-5.012,3.613-7.705,2.058c-2.701-1.547-3.629-4.982-2.067-7.672c1.554-2.681,5.004-3.605,7.705-2.058
	C189.847,133.593,190.774,137.027,189.22,139.709L189.22,139.709z M187.804,130.919L187.804,130.919
	c-3.32-1.912-7.567-0.778-9.487,2.527c-1.912,3.305-0.781,7.534,2.547,9.446c3.32,1.904,7.559,0.778,9.479-2.536
	C192.263,137.052,191.124,132.831,187.804,130.919L187.804,130.919z"/>
<path class="st0" d="M343.57,77.368L343.57,77.368c0-12.555-10.172-22.713-22.727-22.713c-12.542,0-22.713,10.158-22.713,22.713
	c0,12.542,10.172,22.727,22.713,22.727C333.398,100.094,343.57,89.909,343.57,77.368L343.57,77.368z"/>
<path class="st1" d="M329.005,68.075L329.005,68.075c0-1.145-3.648-2.064-8.161-2.064s-8.161,0.919-8.161,2.064
	c0,1.132,3.648,2.064,8.161,2.064S329.005,69.206,329.005,68.075L329.005,68.075z M320.843,70.884L320.843,70.884
	c-4.314,0-7.935-0.945-8.88-2.223v4.86c0,1.558,4.034,2.809,8.88,2.809c4.86,0,8.88-1.252,8.88-2.809v-4.86
	C328.778,69.939,325.157,70.884,320.843,70.884L320.843,70.884z M320.843,77.088L320.843,77.088c-4.314,0-7.935-0.958-8.88-2.237
	v4.859c0,1.558,4.034,2.823,8.88,2.823c4.86,0,8.88-1.265,8.88-2.823v-4.859C328.778,76.13,325.157,77.088,320.843,77.088
	L320.843,77.088z M329.724,81.056L329.724,81.056v4.859c0,1.544-4.021,2.809-8.88,2.809c-4.846,0-8.88-1.265-8.88-2.809v-4.859
	c0.945,1.265,4.567,2.223,8.88,2.223S328.778,82.32,329.724,81.056L329.724,81.056z"/>
<line class="st2" x1="74.27" y1="77.474" x2="151.838" y2="77.474"/>
<polygon class="st3" points="149.858,71.534 161.738,77.474 149.857,83.414 149.858,71.534 "/>
<line class="st2" x1="207.11" y1="77.474" x2="288.336" y2="77.474"/>
<polygon class="st3" points="286.356,71.534 298.236,77.474 286.356,83.414 286.356,71.534 "/>
<path class="st0" d="M619.33,77.368L619.33,77.368c0-12.555-10.172-22.713-22.727-22.713c-12.542,0-22.713,10.158-22.713,22.713
	c0,12.542,10.172,22.727,22.713,22.727C609.158,100.094,619.33,89.909,619.33,77.368L619.33,77.368z"/>
<path class="st1" d="M607.6,80.55L607.6,80.55l-4.26,4.274c-0.28,0.28-0.652,0.359-1.025,0.359h-8.747l-3.089,3.075
	c-0.626,0.626-1.638,0.626-2.25,0l-2.516-2.516c-0.626-0.613-0.626-1.624,0-2.25l3.515-3.515c0.2-0.2,0.426-0.333,0.679-0.413
	c0.146-0.04,0.306-0.067,0.479-0.067h9.586c0.692,0,1.251,0.559,1.251,1.238c0,0.692-0.559,1.251-1.251,1.251h-4.433
	c-0.2,0-0.359,0.146-0.359,0.346s0.16,0.359,0.359,0.359h6.417l3.888-3.901c0.493-0.479,1.278-0.479,1.757,0
	C608.093,79.285,608.093,80.07,607.6,80.55L607.6,80.55z M589.667,72.961L589.667,72.961c0.586-0.053,1.172-0.12,1.757-0.226
	c0.08,0.972,0.28,1.997,0.612,3.022l-2.25,0.812C589.454,75.371,589.427,74.119,589.667,72.961L589.667,72.961z M591.784,69.166
	L591.784,69.166c-0.253,0.732-0.386,1.584-0.399,2.49c-0.466,0.08-0.919,0.146-1.385,0.2
	C590.386,70.844,590.998,69.925,591.784,69.166L591.784,69.166z M593.927,67.768L593.927,67.768l1.092,2.982
	c-0.865,0.28-1.731,0.519-2.596,0.706C592.476,69.752,592.995,68.394,593.927,67.768L593.927,67.768z M598.467,69.26L598.467,69.26
	c-0.786,0.413-1.598,0.799-2.45,1.118l-1.078-2.982C596.057,67.276,597.336,67.995,598.467,69.26L598.467,69.26z M600.571,68.008
	L600.571,68.008c-0.386,0.253-0.772,0.506-1.185,0.746c-0.599-0.692-1.238-1.251-1.904-1.664
	C598.574,67.169,599.625,67.489,600.571,68.008L600.571,68.008z M603.766,71.483L603.766,71.483l-2.25,0.812
	c-0.399-0.985-0.905-1.904-1.464-2.703c0.519-0.293,1.012-0.626,1.478-0.959C602.475,69.366,603.26,70.351,603.766,71.483
	L603.766,71.483z M604.232,76.143L604.232,76.143c-0.572,0.053-1.145,0.12-1.731,0.213c-0.08-0.972-0.293-2.037-0.612-3.062
	l2.237-0.812C604.472,73.68,604.498,74.971,604.232,76.143L604.232,76.143z M602.142,79.884L602.142,79.884
	c0.24-0.719,0.373-1.544,0.386-2.45c0.466-0.067,0.919-0.133,1.371-0.186C603.513,78.233,602.914,79.138,602.142,79.884
	L602.142,79.884z M598.56,77.354L598.56,77.354l-0.919-2.516l3.249-1.172c0.32,1.012,0.506,1.97,0.573,2.889
	C600.504,76.755,599.519,77.021,598.56,77.354L598.56,77.354z M597.282,73.839L597.282,73.839l-0.905-2.463
	c0.959-0.373,1.877-0.799,2.756-1.265c0.533,0.732,0.985,1.558,1.385,2.556L597.282,73.839L597.282,73.839L597.282,73.839z
	 M593.035,75.384L593.035,75.384c-0.333-1.012-0.506-1.944-0.573-2.836c0.972-0.213,1.944-0.479,2.916-0.799l0.905,2.463
	L593.035,75.384L593.035,75.384L593.035,75.384z M589.654,78.912L589.654,78.912c0.013-0.013,0.027-0.013,0.053-0.027
	c0.213-0.067,0.439-0.093,0.679-0.093h0.466c-0.266-0.386-0.506-0.799-0.692-1.225l2.237-0.812c0.293,0.706,0.639,1.398,1.025,2.037
	h1.265c-0.493-0.706-0.919-1.505-1.291-2.41l3.249-1.172l0.919,2.503c-0.825,0.319-1.611,0.679-2.37,1.078h2.556
	c0.053-0.027,0.12-0.053,0.173-0.08l0.027,0.08h1.132l-0.16-0.439c0.852-0.293,1.717-0.519,2.57-0.706
	c-0.013,0.586-0.093,1.132-0.226,1.624c0.399,0.359,0.666,0.879,0.666,1.465c0,0.306-0.067,0.599-0.2,0.852
	c3.169-2.144,4.607-6.231,3.235-9.972c-1.611-4.433-6.497-6.71-10.917-5.099s-6.697,6.497-5.099,10.917
	C589.148,77.953,589.374,78.446,589.654,78.912L589.654,78.912z"/>
<path class="st0" d="M469.419,136.906L469.419,136.906c0-7.639-6.243-13.82-13.949-13.82c-7.697,0-13.94,6.181-13.94,13.82
	c0,7.631,6.243,13.828,13.94,13.828C463.176,150.734,469.419,144.537,469.419,136.906L469.419,136.906z"/>
<path class="st1" d="M455.47,137.554L455.47,137.554c-0.36,0-0.654-0.292-0.654-0.648s0.294-0.648,0.654-0.648
	c0.36,0,0.654,0.292,0.654,0.648S455.83,137.554,455.47,137.554L455.47,137.554z M456.23,135.723L456.23,135.723v-2.6
	c0-0.413-0.335-0.753-0.76-0.753c-0.417,0-0.76,0.34-0.76,0.753v2.6c-0.368,0.235-0.621,0.632-0.654,1.094l-1.741,0.996
	c-0.368,0.211-0.49,0.672-0.278,1.037c0.212,0.365,0.678,0.486,1.038,0.276l1.724-0.988c0.196,0.113,0.425,0.17,0.67,0.17
	c0.784,0,1.414-0.624,1.414-1.401C456.884,136.412,456.631,135.974,456.23,135.723L456.23,135.723z M460.381,139.709
	L460.381,139.709c-1.569,2.689-5.034,3.613-7.738,2.058c-2.713-1.547-3.644-4.982-2.076-7.672c1.561-2.681,5.025-3.605,7.738-2.058
	C461.011,133.593,461.942,137.027,460.381,139.709L460.381,139.709z M458.96,130.919L458.96,130.919
	c-3.334-1.912-7.599-0.778-9.528,2.527c-1.92,3.305-0.784,7.534,2.558,9.446c3.334,1.904,7.591,0.778,9.52-2.536
	C463.438,137.052,462.294,132.831,458.96,130.919L458.96,130.919z"/>
<g>
	<path class="st4" d="M92.625,49.528l1.682-0.088c0.023,0.535,0.115,0.896,0.275,1.084c0.258,0.305,0.734,0.457,1.43,0.457
		c0.578,0,0.996-0.104,1.254-0.311s0.387-0.457,0.387-0.75c0-0.254-0.105-0.469-0.316-0.645c-0.148-0.129-0.556-0.338-1.222-0.627
		s-1.152-0.53-1.459-0.724s-0.548-0.444-0.724-0.753s-0.264-0.67-0.264-1.084c0-0.723,0.262-1.322,0.785-1.799
		s1.281-0.715,2.273-0.715c1.008,0,1.788,0.236,2.341,0.709s0.856,1.102,0.911,1.887l-1.693,0.076
		c-0.043-0.41-0.191-0.725-0.445-0.943s-0.629-0.328-1.125-0.328c-0.488,0-0.837,0.086-1.046,0.258s-0.313,0.389-0.313,0.65
		c0,0.246,0.096,0.449,0.287,0.609c0.191,0.164,0.615,0.389,1.271,0.674c0.988,0.426,1.617,0.771,1.887,1.037
		c0.402,0.391,0.604,0.893,0.604,1.506c0,0.758-0.3,1.405-0.899,1.942S97.07,52.458,96,52.458c-0.738,0-1.378-0.124-1.919-0.372
		s-0.923-0.593-1.146-1.034S92.609,50.102,92.625,49.528z"/>
	<path class="st4" d="M106.406,49.721h-4.219c-0.004,0.066-0.006,0.117-0.006,0.152c0,0.414,0.118,0.748,0.354,1.002
		s0.524,0.381,0.864,0.381c0.559,0,0.994-0.289,1.307-0.867l1.506,0.252c-0.293,0.605-0.685,1.06-1.175,1.362
		s-1.04,0.454-1.649,0.454c-0.836,0-1.516-0.265-2.039-0.794s-0.785-1.229-0.785-2.101c0-0.852,0.236-1.609,0.709-2.273
		c0.645-0.898,1.564-1.348,2.76-1.348c0.762,0,1.367,0.235,1.816,0.706s0.674,1.13,0.674,1.978
		C106.523,49.032,106.484,49.397,106.406,49.721z M104.988,48.696c0.004-0.074,0.006-0.131,0.006-0.17
		c0-0.461-0.104-0.807-0.311-1.037s-0.484-0.346-0.832-0.346s-0.659,0.131-0.935,0.393s-0.462,0.648-0.56,1.16H104.988z"/>
	<path class="st4" d="M107.009,52.311l1.799-8.59h1.676l-1.793,8.59H107.009z"/>
	<path class="st4" d="M116.414,49.721h-4.219c-0.004,0.066-0.006,0.117-0.006,0.152c0,0.414,0.118,0.748,0.354,1.002
		s0.524,0.381,0.864,0.381c0.559,0,0.994-0.289,1.307-0.867l1.506,0.252c-0.293,0.605-0.685,1.06-1.175,1.362
		s-1.04,0.454-1.649,0.454c-0.836,0-1.516-0.265-2.039-0.794s-0.785-1.229-0.785-2.101c0-0.852,0.236-1.609,0.709-2.273
		c0.645-0.898,1.564-1.348,2.76-1.348c0.762,0,1.367,0.235,1.816,0.706s0.674,1.13,0.674,1.978
		C116.531,49.032,116.492,49.397,116.414,49.721z M114.996,48.696c0.004-0.074,0.006-0.131,0.006-0.17
		c0-0.461-0.104-0.807-0.311-1.037s-0.484-0.346-0.832-0.346s-0.659,0.131-0.935,0.393s-0.462,0.648-0.56,1.16H114.996z"/>
	<path class="st4" d="M121.248,49.967l1.635,0.264c-0.27,0.727-0.668,1.279-1.195,1.658s-1.139,0.568-1.834,0.568
		c-0.793,0-1.422-0.236-1.887-0.709s-0.697-1.123-0.697-1.951c0-0.676,0.141-1.314,0.422-1.916s0.705-1.075,1.271-1.421
		s1.188-0.519,1.863-0.519c0.734,0,1.32,0.191,1.758,0.574s0.684,0.887,0.738,1.512l-1.6,0.17c-0.039-0.348-0.146-0.604-0.319-0.768
		s-0.401-0.246-0.683-0.246c-0.324,0-0.627,0.121-0.908,0.363s-0.497,0.604-0.647,1.087s-0.226,0.935-0.226,1.356
		c0,0.367,0.09,0.65,0.27,0.85s0.404,0.299,0.674,0.299s0.529-0.098,0.779-0.293S121.107,50.358,121.248,49.967z"/>
	<path class="st4" d="M124.125,47.336l0.258-1.248h0.82l0.205-0.996l1.928-1.16l-0.451,2.156h1.025l-0.258,1.248h-1.031
		l-0.545,2.607c-0.098,0.473-0.146,0.742-0.146,0.809c0,0.129,0.041,0.229,0.123,0.302s0.23,0.108,0.445,0.108
		c0.074,0,0.26-0.014,0.557-0.041l-0.264,1.248c-0.289,0.059-0.586,0.088-0.891,0.088c-0.594,0-1.025-0.114-1.295-0.343
		s-0.404-0.546-0.404-0.952c0-0.191,0.072-0.633,0.217-1.324l0.521-2.502H124.125z"/>
	<path class="st4" d="M85.986,66.711h-1.77l1.5-7.154h-2.52l0.299-1.436h6.768l-0.299,1.436H87.48L85.986,66.711z"/>
	<path class="st4" d="M95.179,64.121H90.96c-0.004,0.066-0.006,0.117-0.006,0.152c0,0.414,0.118,0.748,0.354,1.002
		s0.524,0.381,0.864,0.381c0.559,0,0.994-0.289,1.307-0.867l1.506,0.252c-0.293,0.605-0.685,1.06-1.175,1.362
		s-1.04,0.454-1.649,0.454c-0.836,0-1.516-0.265-2.039-0.794s-0.785-1.229-0.785-2.101c0-0.852,0.236-1.609,0.709-2.273
		c0.645-0.898,1.564-1.348,2.76-1.348c0.762,0,1.367,0.235,1.816,0.706s0.674,1.13,0.674,1.978
		C95.296,63.432,95.257,63.797,95.179,64.121z M93.761,63.096c0.004-0.074,0.006-0.131,0.006-0.17c0-0.461-0.104-0.807-0.311-1.037
		s-0.484-0.346-0.832-0.346s-0.659,0.131-0.935,0.393s-0.462,0.648-0.56,1.16H93.761z"/>
	<path class="st4" d="M97.042,60.488h1.582l-0.158,0.756c0.617-0.602,1.266-0.902,1.945-0.902c0.469,0,0.83,0.098,1.084,0.293
		s0.416,0.465,0.486,0.809c0.215-0.313,0.523-0.574,0.926-0.785s0.82-0.316,1.254-0.316c0.496,0,0.883,0.133,1.16,0.398
		s0.416,0.617,0.416,1.055c0,0.215-0.055,0.586-0.164,1.113l-0.797,3.803h-1.682l0.797-3.803c0.098-0.477,0.146-0.746,0.146-0.809
		c0-0.172-0.052-0.308-0.155-0.407s-0.259-0.149-0.466-0.149c-0.418,0-0.791,0.221-1.119,0.662
		c-0.238,0.316-0.441,0.877-0.609,1.682l-0.592,2.824h-1.682l0.785-3.762c0.09-0.434,0.135-0.715,0.135-0.844
		c0-0.164-0.056-0.299-0.167-0.404s-0.265-0.158-0.46-0.158c-0.184,0-0.373,0.055-0.568,0.164s-0.366,0.26-0.513,0.451
		s-0.272,0.438-0.378,0.738c-0.047,0.141-0.123,0.459-0.229,0.955l-0.598,2.859h-1.682L97.042,60.488z"/>
	<path class="st4" d="M107.712,60.488h1.594l-0.135,0.639c0.34-0.281,0.658-0.482,0.955-0.604s0.615-0.182,0.955-0.182
		c0.652,0,1.177,0.225,1.573,0.674s0.595,1.119,0.595,2.01c0,1.121-0.342,2.068-1.025,2.842c-0.586,0.66-1.279,0.99-2.08,0.99
		c-0.824,0-1.447-0.334-1.869-1.002l-0.674,3.229h-1.682L107.712,60.488z M108.726,64.057c0,0.484,0.118,0.86,0.354,1.128
		s0.515,0.401,0.835,0.401c0.277,0,0.545-0.101,0.803-0.302s0.472-0.535,0.642-1.002s0.255-0.899,0.255-1.298
		c0-0.465-0.111-0.821-0.334-1.069s-0.506-0.372-0.85-0.372c-0.32,0-0.612,0.114-0.876,0.343s-0.468,0.564-0.612,1.008
		S108.726,63.725,108.726,64.057z"/>
	<path class="st4" d="M113.783,66.711l1.799-8.59h1.676l-1.793,8.59H113.783z"/>
	<path class="st4" d="M119.501,62.252l-1.641-0.141c0.188-0.555,0.515-0.988,0.981-1.301s1.085-0.469,1.854-0.469
		c0.801,0,1.393,0.161,1.775,0.483s0.574,0.716,0.574,1.181c0,0.188-0.017,0.387-0.05,0.598s-0.149,0.766-0.349,1.664
		c-0.164,0.742-0.246,1.262-0.246,1.559c0,0.266,0.047,0.561,0.141,0.885h-1.635c-0.066-0.227-0.107-0.461-0.123-0.703
		c-0.246,0.273-0.529,0.483-0.85,0.63s-0.643,0.22-0.967,0.22c-0.516,0-0.941-0.169-1.277-0.507s-0.504-0.772-0.504-1.304
		c0-0.594,0.185-1.068,0.554-1.424s1.028-0.57,1.978-0.645c0.801-0.066,1.336-0.146,1.605-0.24c0.07-0.234,0.105-0.422,0.105-0.563
		c0-0.18-0.072-0.33-0.217-0.451s-0.359-0.182-0.645-0.182c-0.301,0-0.538,0.062-0.712,0.185S119.564,62.025,119.501,62.252z
		 M121.101,63.811c-0.102,0.027-0.236,0.053-0.404,0.076c-0.844,0.102-1.395,0.25-1.652,0.445c-0.184,0.141-0.275,0.33-0.275,0.568
		c0,0.195,0.07,0.36,0.211,0.495s0.326,0.202,0.557,0.202c0.254,0,0.493-0.062,0.718-0.185s0.393-0.281,0.504-0.475
		s0.21-0.495,0.296-0.905L121.101,63.811z"/>
	<path class="st4" d="M124.224,61.736l0.258-1.248h0.82l0.205-0.996l1.928-1.16l-0.451,2.156h1.025l-0.258,1.248h-1.031
		l-0.545,2.607c-0.098,0.473-0.146,0.742-0.146,0.809c0,0.129,0.041,0.229,0.123,0.302s0.23,0.108,0.445,0.108
		c0.074,0,0.26-0.014,0.557-0.041l-0.264,1.248c-0.289,0.059-0.586,0.088-0.891,0.088c-0.594,0-1.025-0.114-1.295-0.343
		s-0.404-0.546-0.404-0.952c0-0.191,0.072-0.633,0.217-1.324l0.521-2.502H124.224z"/>
	<path class="st4" d="M133.857,64.121h-4.219c-0.004,0.066-0.006,0.117-0.006,0.152c0,0.414,0.118,0.748,0.354,1.002
		s0.524,0.381,0.864,0.381c0.559,0,0.994-0.289,1.307-0.867l1.506,0.252c-0.293,0.605-0.685,1.06-1.175,1.362
		s-1.04,0.454-1.649,0.454c-0.836,0-1.516-0.265-2.039-0.794s-0.785-1.229-0.785-2.101c0-0.852,0.236-1.609,0.709-2.273
		c0.645-0.898,1.564-1.348,2.76-1.348c0.762,0,1.367,0.235,1.816,0.706s0.674,1.13,0.674,1.978
		C133.974,63.432,133.935,63.797,133.857,64.121z M132.439,63.096c0.004-0.074,0.006-0.131,0.006-0.17
		c0-0.461-0.104-0.807-0.311-1.037s-0.484-0.346-0.832-0.346s-0.659,0.131-0.935,0.393s-0.462,0.648-0.56,1.16H132.439z"/>
</g>
<g>
	<path class="st4" d="M232.75,50.413h-3.404l-1.031,1.898h-1.816l4.857-8.59h1.963l1.395,8.59h-1.676L232.75,50.413z
		 M232.534,48.983l-0.498-3.457l-2.074,3.457H232.534z"/>
	<path class="st4" d="M237.028,46.088h1.594l-0.135,0.639c0.34-0.281,0.658-0.482,0.955-0.604s0.615-0.182,0.955-0.182
		c0.652,0,1.177,0.225,1.573,0.674s0.595,1.119,0.595,2.01c0,1.121-0.342,2.068-1.025,2.842c-0.586,0.66-1.279,0.99-2.08,0.99
		c-0.824,0-1.447-0.334-1.869-1.002l-0.674,3.229h-1.682L237.028,46.088z M238.042,49.657c0,0.484,0.118,0.86,0.354,1.128
		s0.515,0.401,0.835,0.401c0.277,0,0.545-0.101,0.803-0.302s0.472-0.535,0.642-1.002s0.255-0.899,0.255-1.298
		c0-0.465-0.111-0.821-0.334-1.069s-0.506-0.372-0.85-0.372c-0.32,0-0.612,0.114-0.876,0.343s-0.468,0.564-0.612,1.008
		S238.042,49.325,238.042,49.657z"/>
	<path class="st4" d="M244.358,46.088h1.594l-0.135,0.639c0.34-0.281,0.658-0.482,0.955-0.604s0.615-0.182,0.955-0.182
		c0.652,0,1.177,0.225,1.573,0.674s0.595,1.119,0.595,2.01c0,1.121-0.342,2.068-1.025,2.842c-0.586,0.66-1.279,0.99-2.08,0.99
		c-0.824,0-1.447-0.334-1.869-1.002l-0.674,3.229h-1.682L244.358,46.088z M245.372,49.657c0,0.484,0.118,0.86,0.354,1.128
		s0.515,0.401,0.835,0.401c0.277,0,0.545-0.101,0.803-0.302s0.472-0.535,0.642-1.002s0.255-0.899,0.255-1.298
		c0-0.465-0.111-0.821-0.334-1.069s-0.506-0.372-0.85-0.372c-0.32,0-0.612,0.114-0.876,0.343s-0.468,0.564-0.612,1.008
		S245.372,49.325,245.372,49.657z"/>
	<path class="st4" d="M256.499,49.721h-4.219c-0.004,0.066-0.006,0.117-0.006,0.152c0,0.414,0.118,0.748,0.354,1.002
		s0.524,0.381,0.864,0.381c0.559,0,0.994-0.289,1.307-0.867l1.506,0.252c-0.293,0.605-0.685,1.06-1.175,1.362
		s-1.04,0.454-1.649,0.454c-0.836,0-1.516-0.265-2.039-0.794s-0.785-1.229-0.785-2.101c0-0.852,0.236-1.609,0.709-2.273
		c0.645-0.898,1.564-1.348,2.76-1.348c0.762,0,1.367,0.235,1.816,0.706s0.674,1.13,0.674,1.978
		C256.616,49.032,256.577,49.397,256.499,49.721z M255.081,48.696c0.004-0.074,0.006-0.131,0.006-0.17
		c0-0.461-0.104-0.807-0.311-1.037s-0.484-0.346-0.832-0.346s-0.659,0.131-0.935,0.393s-0.462,0.648-0.56,1.16H255.081z"/>
	<path class="st4" d="M258.438,46.088h1.594l-0.164,0.809c0.398-0.344,0.771-0.589,1.116-0.735s0.71-0.22,1.093-0.22
		c0.512,0,0.915,0.146,1.21,0.439s0.442,0.682,0.442,1.166c0,0.219-0.064,0.633-0.193,1.242l-0.732,3.521h-1.682l0.738-3.533
		c0.109-0.527,0.164-0.842,0.164-0.943c0-0.215-0.063-0.384-0.19-0.507s-0.304-0.185-0.53-0.185c-0.246,0-0.52,0.104-0.82,0.311
		s-0.537,0.48-0.709,0.82c-0.125,0.242-0.266,0.736-0.422,1.482l-0.533,2.555h-1.682L258.438,46.088z"/>
	<path class="st4" d="M270.192,52.311h-1.594l0.141-0.674c-0.305,0.293-0.604,0.503-0.899,0.63s-0.628,0.19-0.999,0.19
		c-0.645,0-1.167-0.22-1.567-0.659s-0.601-1.089-0.601-1.948c0-0.996,0.281-1.896,0.844-2.701s1.307-1.207,2.232-1.207
		c0.836,0,1.463,0.332,1.881,0.996l0.674-3.217h1.682L270.192,52.311z M266.307,49.78c0,0.445,0.112,0.793,0.337,1.043
		s0.501,0.375,0.829,0.375c0.305,0,0.589-0.104,0.853-0.313s0.475-0.528,0.633-0.958s0.237-0.842,0.237-1.236
		c0-0.449-0.121-0.813-0.363-1.09s-0.521-0.416-0.838-0.416c-0.492,0-0.896,0.273-1.213,0.82S266.307,49.143,266.307,49.78z"/>
	<path class="st4" d="M230.26,66.711h-1.77l1.799-8.59h3.814c0.656,0,1.167,0.067,1.532,0.202s0.66,0.382,0.885,0.741
		s0.337,0.795,0.337,1.307c0,0.73-0.219,1.333-0.656,1.808s-1.1,0.769-1.986,0.882c0.227,0.203,0.439,0.471,0.639,0.803
		c0.395,0.672,0.834,1.621,1.318,2.848h-1.898c-0.152-0.484-0.451-1.24-0.896-2.268c-0.242-0.555-0.5-0.928-0.773-1.119
		c-0.168-0.113-0.461-0.17-0.879-0.17h-0.721L230.26,66.711z M231.274,61.865h0.938c0.949,0,1.579-0.057,1.89-0.17
		s0.554-0.291,0.729-0.533s0.264-0.496,0.264-0.762c0-0.313-0.127-0.547-0.381-0.703c-0.156-0.094-0.494-0.141-1.014-0.141h-1.945
		L231.274,61.865z"/>
	<path class="st4" d="M243.168,64.121h-4.219c-0.004,0.066-0.006,0.117-0.006,0.152c0,0.414,0.118,0.748,0.354,1.002
		s0.524,0.381,0.864,0.381c0.559,0,0.994-0.289,1.307-0.867l1.506,0.252c-0.293,0.605-0.685,1.06-1.175,1.362
		s-1.04,0.454-1.649,0.454c-0.836,0-1.516-0.265-2.039-0.794s-0.785-1.229-0.785-2.101c0-0.852,0.236-1.609,0.709-2.273
		c0.645-0.898,1.564-1.348,2.76-1.348c0.762,0,1.367,0.235,1.816,0.706s0.674,1.13,0.674,1.978
		C243.286,63.432,243.247,63.797,243.168,64.121z M241.75,63.096c0.004-0.074,0.006-0.131,0.006-0.17
		c0-0.461-0.104-0.807-0.311-1.037s-0.484-0.346-0.832-0.346s-0.659,0.131-0.935,0.393s-0.462,0.648-0.56,1.16H241.75z"/>
	<path class="st4" d="M245.032,60.488h1.594l-0.135,0.639c0.34-0.281,0.658-0.482,0.955-0.604s0.615-0.182,0.955-0.182
		c0.652,0,1.177,0.225,1.573,0.674s0.595,1.119,0.595,2.01c0,1.121-0.342,2.068-1.025,2.842c-0.586,0.66-1.279,0.99-2.08,0.99
		c-0.824,0-1.447-0.334-1.869-1.002l-0.674,3.229h-1.682L245.032,60.488z M246.045,64.057c0,0.484,0.118,0.86,0.354,1.128
		s0.515,0.401,0.835,0.401c0.277,0,0.545-0.101,0.803-0.302s0.472-0.535,0.642-1.002s0.255-0.899,0.255-1.298
		c0-0.465-0.111-0.821-0.334-1.069s-0.506-0.372-0.85-0.372c-0.32,0-0.612,0.114-0.876,0.343s-0.468,0.564-0.612,1.008
		S246.045,63.725,246.045,64.057z"/>
	<path class="st4" d="M251.36,64.127c0-1.152,0.325-2.071,0.976-2.757s1.505-1.028,2.563-1.028c0.918,0,1.635,0.253,2.15,0.759
		s0.773,1.187,0.773,2.042c0,1.008-0.322,1.879-0.967,2.613s-1.508,1.102-2.59,1.102c-0.586,0-1.105-0.117-1.559-0.352
		s-0.791-0.566-1.014-0.996S251.36,64.619,251.36,64.127z M256.153,62.926c0-0.398-0.116-0.718-0.349-0.958s-0.532-0.36-0.899-0.36
		c-0.363,0-0.686,0.112-0.967,0.337s-0.5,0.551-0.656,0.979s-0.234,0.821-0.234,1.181c0,0.445,0.121,0.799,0.363,1.061
		s0.547,0.393,0.914,0.393c0.461,0,0.848-0.197,1.16-0.592C255.93,64.406,256.153,63.727,256.153,62.926z"/>
	<path class="st4" d="M259.651,60.488h1.57l-0.252,1.207c0.586-0.902,1.221-1.354,1.904-1.354c0.242,0,0.502,0.061,0.779,0.182
		l-0.645,1.377c-0.152-0.055-0.314-0.082-0.486-0.082c-0.289,0-0.583,0.109-0.882,0.328s-0.532,0.511-0.7,0.876
		s-0.334,0.944-0.498,1.737l-0.41,1.951h-1.682L259.651,60.488z"/>
	<path class="st4" d="M263.536,61.736l0.258-1.248h0.82l0.205-0.996l1.928-1.16l-0.451,2.156h1.025l-0.258,1.248h-1.031
		l-0.545,2.607c-0.098,0.473-0.146,0.742-0.146,0.809c0,0.129,0.041,0.229,0.123,0.302s0.23,0.108,0.445,0.108
		c0.074,0,0.26-0.014,0.557-0.041l-0.264,1.248c-0.289,0.059-0.586,0.088-0.891,0.088c-0.594,0-1.025-0.114-1.295-0.343
		s-0.404-0.546-0.404-0.952c0-0.191,0.072-0.633,0.217-1.324l0.521-2.502H263.536z"/>
</g>
<line class="st2" x1="343.55" y1="77.487" x2="391.344" y2="77.476"/>
<polygon class="st3" points="389.365,83.417 401.244,77.474 389.362,71.537 389.365,83.417 "/>
<path class="st0" d="M432.208,77.368L432.208,77.368c0-12.555,10.387-22.713,23.208-22.713c12.807,0,23.194,10.158,23.194,22.713
	c0,12.542-10.387,22.727-23.194,22.727C442.595,100.094,432.208,89.909,432.208,77.368L432.208,77.368z"/>
<path class="st1" d="M453.417,70.444L453.417,70.444c0,1.078,0.897,1.957,1.999,1.957c1.101,0,1.999-0.879,1.999-1.957
	c0-1.078-0.897-1.957-1.999-1.957C454.315,68.487,453.417,69.366,453.417,70.444L453.417,70.444z M460.677,72.575L460.677,72.575
	v-4.966h3.073L460.677,72.575L460.677,72.575L460.677,72.575z M460.677,79.498L460.677,79.498v-4.966h3.073L460.677,79.498
	L460.677,79.498L460.677,79.498z M460.677,86.421L460.677,86.421v-4.966h3.073L460.677,86.421L460.677,86.421L460.677,86.421z
	 M450.155,67.609L450.155,67.609v4.966l-3.073-4.966H450.155L450.155,67.609L450.155,67.609z M450.155,79.498L450.155,79.498
	l-3.073-4.966h3.073V79.498L450.155,79.498L450.155,79.498z M450.155,86.421L450.155,86.421l-3.073-4.966h3.073V86.421
	L450.155,86.421L450.155,86.421z M455.416,73.28L455.416,73.28c1.604,0,2.896-1.265,2.896-2.836s-1.292-2.836-2.896-2.836
	c-1.604,0-2.896,1.265-2.896,2.836S453.812,73.28,455.416,73.28L455.416,73.28z M455.416,80.203L455.416,80.203
	c1.604,0,2.896-1.265,2.896-2.836s-1.292-2.836-2.896-2.836c-1.604,0-2.896,1.265-2.896,2.836S453.812,80.203,455.416,80.203
	L455.416,80.203z M455.416,87.127L455.416,87.127c1.604,0,2.896-1.265,2.896-2.836s-1.292-2.836-2.896-2.836
	c-1.604,0-2.896,1.265-2.896,2.836S453.812,87.127,455.416,87.127L455.416,87.127z M453.064,66.011L453.064,66.011h4.704
	c1.21,0,2.175,0.945,2.175,2.13v18.453c0,1.185-0.965,2.13-2.175,2.13h-4.704c-1.21,0-2.175-0.945-2.175-2.13V68.141
	C450.889,66.956,451.854,66.011,453.064,66.011L453.064,66.011z M453.417,77.368L453.417,77.368c0,1.078,0.897,1.957,1.999,1.957
	c1.101,0,1.999-0.879,1.999-1.957c0-1.078-0.897-1.957-1.999-1.957C454.315,75.411,453.417,76.289,453.417,77.368L453.417,77.368z"
	/>
<path class="st0" d="M446.65,77.368L446.65,77.368c0-12.555-10.172-22.713-22.727-22.713c-12.542,0-22.713,10.158-22.713,22.713
	c0,12.542,10.172,22.727,22.713,22.727C436.478,100.094,446.65,89.909,446.65,77.368L446.65,77.368z"/>
<path class="st1" d="M425.122,88.724L425.122,88.724c-0.08,0-0.173-0.013-0.24-0.04c-0.107-0.04-0.186-0.093-0.253-0.173
	c-0.08-0.08-0.133-0.16-0.173-0.266c-0.013-0.053-0.027-0.107-0.027-0.16l-1.731-15.75l-1.358,9.373
	c0,0.053-0.013,0.093-0.027,0.133c-0.027,0.107-0.08,0.186-0.146,0.266c-0.08,0.08-0.16,0.133-0.266,0.173
	c-0.067,0.04-0.146,0.053-0.24,0.053c0,0-0.013,0-0.027,0c-0.067,0-0.146-0.013-0.213-0.027c-0.107-0.04-0.186-0.093-0.266-0.16
	c-0.067-0.067-0.133-0.16-0.173-0.253c-0.013-0.04-0.027-0.08-0.04-0.133l-1.105-4.966l-0.266,0.786
	c-0.013,0.04-0.04,0.093-0.067,0.133c-0.053,0.093-0.12,0.173-0.2,0.226c-0.08,0.067-0.186,0.106-0.28,0.12
	c-0.053,0.013-0.093,0.013-0.133,0.013h-4.58c-0.386,0-0.706-0.319-0.706-0.706c0-0.399,0.32-0.706,0.706-0.706h4.074l0.905-2.703
	c0.013-0.027,0.027-0.053,0.04-0.08c0.04-0.093,0.093-0.173,0.173-0.24c0.067-0.067,0.16-0.12,0.253-0.146
	c0.067-0.027,0.146-0.04,0.213-0.04c0.013,0,0.027,0.013,0.04,0.013c0.093,0,0.173,0.027,0.253,0.053
	c0.093,0.04,0.173,0.106,0.24,0.173c0.067,0.067,0.12,0.16,0.146,0.266c0.013,0.013,0.013,0.04,0.027,0.067l0.812,3.675
	l1.611-11.077c0-0.053,0.013-0.106,0.04-0.16c0.04-0.093,0.093-0.186,0.16-0.253c0.08-0.08,0.173-0.133,0.28-0.173
	c0.067-0.027,0.146-0.027,0.226-0.027h0.013c0.08,0,0.16,0.013,0.24,0.04c0.093,0.04,0.186,0.093,0.253,0.173
	c0.067,0.067,0.133,0.16,0.16,0.266c0.027,0.053,0.04,0.106,0.04,0.16l1.717,15.737l1.358-9.373c0.013-0.04,0.013-0.08,0.04-0.133
	c0.027-0.093,0.08-0.186,0.146-0.253c0.067-0.08,0.16-0.146,0.253-0.186c0.08-0.027,0.16-0.04,0.24-0.04
	c0.013,0,0.027-0.013,0.027-0.013c0.08,0,0.16,0.013,0.226,0.04c0.093,0.04,0.186,0.08,0.253,0.146
	c0.08,0.08,0.146,0.16,0.186,0.266c0.013,0.04,0.027,0.08,0.04,0.12l1.078,4.859l0.2-0.652c0.013-0.053,0.04-0.093,0.067-0.146
	c0.04-0.093,0.12-0.16,0.2-0.226c0.08-0.067,0.173-0.107,0.28-0.133c0.053,0,0.093,0,0.133,0h4.66c0.399,0,0.719,0.306,0.719,0.706
	c0,0.386-0.32,0.706-0.719,0.706h-4.127l-0.839,2.689c-0.013,0.027-0.027,0.053-0.04,0.08c-0.04,0.093-0.093,0.173-0.16,0.24
	c-0.08,0.067-0.173,0.12-0.266,0.16c-0.067,0.013-0.146,0.027-0.226,0.027c0,0-0.013,0-0.027,0c-0.093,0-0.173-0.027-0.253-0.053
	c-0.093-0.04-0.173-0.107-0.24-0.173c-0.067-0.067-0.12-0.16-0.146-0.253c-0.013-0.027-0.027-0.053-0.027-0.093l-0.825-3.661
	l-1.598,11.064c-0.013,0.067-0.027,0.12-0.04,0.173c-0.04,0.093-0.093,0.186-0.173,0.253c-0.067,0.067-0.16,0.133-0.266,0.16
	c-0.08,0.027-0.146,0.04-0.226,0.04H425.122L425.122,88.724L425.122,88.724z"/>
<path class="st0" d="M511.93,77.368L511.93,77.368c0-12.555-10.172-22.713-22.727-22.713c-12.542,0-22.713,10.158-22.713,22.713
	c0,12.542,10.172,22.727,22.713,22.727C501.758,100.094,511.93,89.909,511.93,77.368L511.93,77.368z"/>
<path class="st1" d="M495.594,64.227L495.594,64.227c-1.172,0-2.13,0.959-2.13,2.13v15.271c0,1.172,0.959,2.13,2.13,2.13
	c1.185,0,2.13-0.959,2.13-2.13V66.357C497.724,65.186,496.779,64.227,495.594,64.227L495.594,64.227z M489.203,67.782
	L489.203,67.782c-1.172,0-2.13,0.945-2.13,2.13v11.716c0,1.172,0.959,2.13,2.13,2.13c1.185,0,2.13-0.959,2.13-2.13V69.912
	C491.333,68.727,490.388,67.782,489.203,67.782L489.203,67.782z M484.943,81.628L484.943,81.628c0,1.172-0.945,2.13-2.13,2.13
	c-1.172,0-2.13-0.959-2.13-2.13v-6.391c0-1.185,0.959-2.13,2.13-2.13c1.185,0,2.13,0.945,2.13,2.13V81.628L484.943,81.628
	L484.943,81.628z M500.56,86.062L500.56,86.062c0,0.493-0.386,0.892-0.879,0.892h-20.956c-0.479,0-0.879-0.399-0.879-0.892
	c0-0.493,0.399-0.879,0.879-0.879h20.956C500.174,85.183,500.56,85.569,500.56,86.062L500.56,86.062z"/>
<line class="st2" x1="511.91" y1="77.474" x2="564.149" y2="77.485"/>
<polygon class="st3" points="562.171,71.544 574.049,77.487 562.168,83.424 562.171,71.544 "/>
<g>
	<path class="st4" d="M345.224,52.311h-1.887l-1.541-8.59h1.764l1.09,6.498l3.557-6.498h1.752L345.224,52.311z"/>
	<path class="st4" d="M349.776,46.088h1.682l-1.301,6.223h-1.682L349.776,46.088z M350.269,43.721h1.682l-0.316,1.523h-1.682
		L350.269,43.721z"/>
	<path class="st4" d="M351.593,50.571l1.629-0.258c0.145,0.344,0.324,0.587,0.539,0.729s0.508,0.214,0.879,0.214
		c0.383,0,0.689-0.086,0.92-0.258c0.16-0.117,0.24-0.26,0.24-0.428c0-0.113-0.041-0.215-0.123-0.305
		c-0.086-0.086-0.318-0.191-0.697-0.316c-1.016-0.336-1.645-0.602-1.887-0.797c-0.379-0.305-0.568-0.703-0.568-1.195
		s0.184-0.916,0.551-1.271c0.512-0.496,1.271-0.744,2.279-0.744c0.801,0,1.406,0.146,1.816,0.439s0.67,0.689,0.779,1.189
		l-1.553,0.27c-0.082-0.227-0.215-0.396-0.398-0.51c-0.25-0.152-0.551-0.229-0.902-0.229s-0.604,0.059-0.759,0.176
		s-0.231,0.252-0.231,0.404c0,0.156,0.078,0.285,0.234,0.387c0.098,0.063,0.412,0.172,0.943,0.328
		c0.82,0.238,1.369,0.473,1.646,0.703c0.391,0.324,0.586,0.715,0.586,1.172c0,0.59-0.248,1.102-0.744,1.535s-1.195,0.65-2.098,0.65
		c-0.898,0-1.593-0.165-2.083-0.495S351.769,51.168,351.593,50.571z"/>
	<path class="st4" d="M359.772,46.088h1.682l-0.768,3.686c-0.094,0.441-0.141,0.717-0.141,0.826c0,0.18,0.066,0.334,0.199,0.463
		s0.303,0.193,0.51,0.193c0.148,0,0.295-0.028,0.439-0.085s0.293-0.143,0.445-0.258s0.289-0.247,0.41-0.396s0.234-0.344,0.34-0.586
		c0.074-0.18,0.154-0.473,0.24-0.879l0.621-2.965h1.682l-1.301,6.223h-1.57l0.176-0.844c-0.688,0.66-1.436,0.99-2.244,0.99
		c-0.512,0-0.914-0.146-1.207-0.439s-0.439-0.686-0.439-1.178c0-0.215,0.066-0.643,0.199-1.283L359.772,46.088z"/>
	<path class="st4" d="M368.187,47.852l-1.641-0.141c0.188-0.555,0.515-0.988,0.981-1.301s1.085-0.469,1.854-0.469
		c0.801,0,1.393,0.161,1.775,0.483s0.574,0.716,0.574,1.181c0,0.188-0.017,0.387-0.05,0.598s-0.149,0.766-0.349,1.664
		c-0.164,0.742-0.246,1.262-0.246,1.559c0,0.266,0.047,0.561,0.141,0.885h-1.635c-0.066-0.227-0.107-0.461-0.123-0.703
		c-0.246,0.273-0.529,0.483-0.85,0.63s-0.643,0.22-0.967,0.22c-0.516,0-0.941-0.169-1.277-0.507s-0.504-0.772-0.504-1.304
		c0-0.594,0.185-1.068,0.554-1.424s1.028-0.57,1.978-0.645c0.801-0.066,1.336-0.146,1.605-0.24c0.07-0.234,0.105-0.422,0.105-0.563
		c0-0.18-0.072-0.33-0.217-0.451s-0.359-0.182-0.645-0.182c-0.301,0-0.538,0.062-0.712,0.185S368.249,47.625,368.187,47.852z
		 M369.786,49.411c-0.102,0.027-0.236,0.053-0.404,0.076c-0.844,0.102-1.395,0.25-1.652,0.445c-0.184,0.141-0.275,0.33-0.275,0.568
		c0,0.195,0.07,0.36,0.211,0.495s0.326,0.202,0.557,0.202c0.254,0,0.493-0.062,0.718-0.185s0.393-0.281,0.504-0.475
		s0.21-0.495,0.296-0.905L369.786,49.411z"/>
	<path class="st4" d="M372.476,52.311l1.799-8.59h1.676l-1.793,8.59H372.476z"/>
	<path class="st4" d="M377.122,46.088h1.682l-1.301,6.223h-1.682L377.122,46.088z M377.614,43.721h1.682l-0.316,1.523h-1.682
		L377.614,43.721z"/>
	<path class="st4" d="M378.938,50.571l1.629-0.258c0.145,0.344,0.324,0.587,0.539,0.729s0.508,0.214,0.879,0.214
		c0.383,0,0.689-0.086,0.92-0.258c0.16-0.117,0.24-0.26,0.24-0.428c0-0.113-0.041-0.215-0.123-0.305
		c-0.086-0.086-0.318-0.191-0.697-0.316c-1.016-0.336-1.645-0.602-1.887-0.797c-0.379-0.305-0.568-0.703-0.568-1.195
		s0.184-0.916,0.551-1.271c0.512-0.496,1.271-0.744,2.279-0.744c0.801,0,1.406,0.146,1.816,0.439s0.67,0.689,0.779,1.189
		l-1.553,0.27c-0.082-0.227-0.215-0.396-0.398-0.51c-0.25-0.152-0.551-0.229-0.902-0.229s-0.604,0.059-0.759,0.176
		s-0.231,0.252-0.231,0.404c0,0.156,0.078,0.285,0.234,0.387c0.098,0.063,0.412,0.172,0.943,0.328
		c0.82,0.238,1.369,0.473,1.646,0.703c0.391,0.324,0.586,0.715,0.586,1.172c0,0.59-0.248,1.102-0.744,1.535s-1.195,0.65-2.098,0.65
		c-0.898,0-1.593-0.165-2.083-0.495S379.114,51.168,378.938,50.571z"/>
	<path class="st4" d="M391.888,49.721h-4.219c-0.004,0.066-0.006,0.117-0.006,0.152c0,0.414,0.118,0.748,0.354,1.002
		s0.524,0.381,0.864,0.381c0.559,0,0.994-0.289,1.307-0.867l1.506,0.252c-0.293,0.605-0.685,1.06-1.175,1.362
		s-1.04,0.454-1.649,0.454c-0.836,0-1.516-0.265-2.039-0.794s-0.785-1.229-0.785-2.101c0-0.852,0.236-1.609,0.709-2.273
		c0.645-0.898,1.564-1.348,2.76-1.348c0.762,0,1.367,0.235,1.816,0.706s0.674,1.13,0.674,1.978
		C392.005,49.032,391.966,49.397,391.888,49.721z M390.47,48.696c0.004-0.074,0.006-0.131,0.006-0.17
		c0-0.461-0.104-0.807-0.311-1.037s-0.484-0.346-0.832-0.346s-0.659,0.131-0.935,0.393s-0.462,0.648-0.56,1.16H390.47z"/>
	<path class="st4" d="M345.856,66.711h-1.77l1.799-8.59h3.814c0.656,0,1.167,0.067,1.532,0.202s0.66,0.382,0.885,0.741
		s0.337,0.795,0.337,1.307c0,0.73-0.219,1.333-0.656,1.808s-1.1,0.769-1.986,0.882c0.227,0.203,0.439,0.471,0.639,0.803
		c0.395,0.672,0.834,1.621,1.318,2.848h-1.898c-0.152-0.484-0.451-1.24-0.896-2.268c-0.242-0.555-0.5-0.928-0.773-1.119
		c-0.168-0.113-0.461-0.17-0.879-0.17h-0.721L345.856,66.711z M346.87,61.865h0.938c0.949,0,1.579-0.057,1.89-0.17
		s0.554-0.291,0.729-0.533s0.264-0.496,0.264-0.762c0-0.313-0.127-0.547-0.381-0.703c-0.156-0.094-0.494-0.141-1.014-0.141h-1.945
		L346.87,61.865z"/>
	<path class="st4" d="M358.765,64.121h-4.219c-0.004,0.066-0.006,0.117-0.006,0.152c0,0.414,0.118,0.748,0.354,1.002
		s0.524,0.381,0.864,0.381c0.559,0,0.994-0.289,1.307-0.867l1.506,0.252c-0.293,0.605-0.685,1.06-1.175,1.362
		s-1.04,0.454-1.649,0.454c-0.836,0-1.516-0.265-2.039-0.794s-0.785-1.229-0.785-2.101c0-0.852,0.236-1.609,0.709-2.273
		c0.645-0.898,1.564-1.348,2.76-1.348c0.762,0,1.367,0.235,1.816,0.706s0.674,1.13,0.674,1.978
		C358.882,63.432,358.843,63.797,358.765,64.121z M357.347,63.096c0.004-0.074,0.006-0.131,0.006-0.17
		c0-0.461-0.104-0.807-0.311-1.037s-0.484-0.346-0.832-0.346s-0.659,0.131-0.935,0.393s-0.462,0.648-0.56,1.16H357.347z"/>
	<path class="st4" d="M360.628,60.488h1.594l-0.135,0.639c0.34-0.281,0.658-0.482,0.955-0.604s0.615-0.182,0.955-0.182
		c0.652,0,1.177,0.225,1.573,0.674s0.595,1.119,0.595,2.01c0,1.121-0.342,2.068-1.025,2.842c-0.586,0.66-1.279,0.99-2.08,0.99
		c-0.824,0-1.447-0.334-1.869-1.002l-0.674,3.229h-1.682L360.628,60.488z M361.642,64.057c0,0.484,0.118,0.86,0.354,1.128
		s0.515,0.401,0.835,0.401c0.277,0,0.545-0.101,0.803-0.302s0.472-0.535,0.642-1.002s0.255-0.899,0.255-1.298
		c0-0.465-0.111-0.821-0.334-1.069s-0.506-0.372-0.85-0.372c-0.32,0-0.612,0.114-0.876,0.343s-0.468,0.564-0.612,1.008
		S361.642,63.725,361.642,64.057z"/>
	<path class="st4" d="M366.956,64.127c0-1.152,0.325-2.071,0.976-2.757s1.505-1.028,2.563-1.028c0.918,0,1.635,0.253,2.15,0.759
		s0.773,1.187,0.773,2.042c0,1.008-0.322,1.879-0.967,2.613s-1.508,1.102-2.59,1.102c-0.586,0-1.105-0.117-1.559-0.352
		s-0.791-0.566-1.014-0.996S366.956,64.619,366.956,64.127z M371.749,62.926c0-0.398-0.116-0.718-0.349-0.958
		s-0.532-0.36-0.899-0.36c-0.363,0-0.686,0.112-0.967,0.337s-0.5,0.551-0.656,0.979s-0.234,0.821-0.234,1.181
		c0,0.445,0.121,0.799,0.363,1.061s0.547,0.393,0.914,0.393c0.461,0,0.848-0.197,1.16-0.592
		C371.526,64.406,371.749,63.727,371.749,62.926z"/>
	<path class="st4" d="M375.247,60.488h1.57l-0.252,1.207c0.586-0.902,1.221-1.354,1.904-1.354c0.242,0,0.502,0.061,0.779,0.182
		l-0.645,1.377c-0.152-0.055-0.314-0.082-0.486-0.082c-0.289,0-0.583,0.109-0.882,0.328s-0.532,0.511-0.7,0.876
		s-0.334,0.944-0.498,1.737l-0.41,1.951h-1.682L375.247,60.488z"/>
	<path class="st4" d="M379.132,61.736l0.258-1.248h0.82l0.205-0.996l1.928-1.16l-0.451,2.156h1.025l-0.258,1.248h-1.031
		l-0.545,2.607c-0.098,0.473-0.146,0.742-0.146,0.809c0,0.129,0.041,0.229,0.123,0.302s0.23,0.108,0.445,0.108
		c0.074,0,0.26-0.014,0.557-0.041l-0.264,1.248c-0.289,0.059-0.586,0.088-0.891,0.088c-0.594,0-1.025-0.114-1.295-0.343
		s-0.404-0.546-0.404-0.952c0-0.191,0.072-0.633,0.217-1.324l0.521-2.502H379.132z"/>
	<path class="st4" d="M382.489,64.971l1.629-0.258c0.145,0.344,0.324,0.587,0.539,0.729s0.508,0.214,0.879,0.214
		c0.383,0,0.689-0.086,0.92-0.258c0.16-0.117,0.24-0.26,0.24-0.428c0-0.113-0.041-0.215-0.123-0.305
		c-0.086-0.086-0.318-0.191-0.697-0.316c-1.016-0.336-1.645-0.602-1.887-0.797c-0.379-0.305-0.568-0.703-0.568-1.195
		s0.184-0.916,0.551-1.271c0.512-0.496,1.271-0.744,2.279-0.744c0.801,0,1.406,0.146,1.816,0.439s0.67,0.689,0.779,1.189
		l-1.553,0.27c-0.082-0.227-0.215-0.396-0.398-0.51c-0.25-0.152-0.551-0.229-0.902-0.229s-0.604,0.059-0.759,0.176
		s-0.231,0.252-0.231,0.404c0,0.156,0.078,0.285,0.234,0.387c0.098,0.063,0.412,0.172,0.943,0.328
		c0.82,0.238,1.369,0.473,1.646,0.703c0.391,0.324,0.586,0.715,0.586,1.172c0,0.59-0.248,1.102-0.744,1.535s-1.195,0.65-2.098,0.65
		c-0.898,0-1.593-0.165-2.083-0.495S382.665,65.568,382.489,64.971z"/>
</g>
<polyline class="st5" points="511.905,77.474 529.905,77.474 529.905,136.97 476.93,136.97 "/>
<polygon class="st3" points="478.43,132.469 469.43,136.97 478.43,141.469 478.43,132.469 "/>
<polyline class="st5" points="441.671,136.97 383.27,136.97 383.27,77.474 393.77,77.474 "/>
<polygon class="st3" points="392.27,72.975 401.27,77.474 392.27,81.975 392.27,72.975 "/>
<g>
	<path class="st4" d="M428.881,166.491h-1.77l1.799-8.59h3.814c0.656,0,1.167,0.067,1.532,0.202s0.66,0.382,0.885,0.741
		s0.337,0.795,0.337,1.307c0,0.73-0.219,1.333-0.656,1.808s-1.1,0.769-1.986,0.882c0.227,0.203,0.439,0.471,0.639,0.803
		c0.395,0.672,0.834,1.621,1.318,2.848h-1.898c-0.152-0.484-0.451-1.24-0.896-2.268c-0.242-0.555-0.5-0.928-0.773-1.119
		c-0.168-0.113-0.461-0.17-0.879-0.17h-0.721L428.881,166.491z M429.895,161.646h0.938c0.949,0,1.579-0.057,1.89-0.17
		s0.554-0.291,0.729-0.533s0.264-0.496,0.264-0.762c0-0.313-0.127-0.547-0.381-0.703c-0.156-0.094-0.494-0.141-1.014-0.141h-1.945
		L429.895,161.646z"/>
	<path class="st4" d="M441.789,163.901h-4.219c-0.004,0.066-0.006,0.117-0.006,0.152c0,0.414,0.118,0.748,0.354,1.002
		s0.524,0.381,0.864,0.381c0.559,0,0.994-0.289,1.307-0.867l1.506,0.252c-0.293,0.605-0.685,1.06-1.175,1.362
		s-1.04,0.454-1.649,0.454c-0.836,0-1.516-0.265-2.039-0.794s-0.785-1.229-0.785-2.101c0-0.852,0.236-1.609,0.709-2.273
		c0.645-0.898,1.564-1.348,2.76-1.348c0.762,0,1.367,0.235,1.816,0.706s0.674,1.13,0.674,1.978
		C441.906,163.212,441.867,163.577,441.789,163.901z M440.371,162.876c0.004-0.074,0.006-0.131,0.006-0.17
		c0-0.461-0.104-0.807-0.311-1.037s-0.484-0.346-0.832-0.346s-0.659,0.131-0.935,0.393s-0.462,0.648-0.56,1.16H440.371z"/>
	<path class="st4" d="M446.74,160.269l-0.258,1.23h-1.189l-1.043,4.992h-1.682l1.043-4.992h-0.938l0.258-1.23h0.938l0.135-0.639
		c0.109-0.523,0.213-0.877,0.311-1.061c0.133-0.25,0.331-0.448,0.595-0.595s0.608-0.22,1.034-0.22c0.516,0,1.059,0.094,1.629,0.281
		l-0.328,1.201c-0.402-0.137-0.729-0.205-0.979-0.205c-0.191,0-0.334,0.061-0.428,0.182c-0.063,0.078-0.127,0.283-0.193,0.615
		l-0.094,0.439H446.74z"/>
	<path class="st4" d="M447.607,160.269h1.57l-0.252,1.207c0.586-0.902,1.221-1.354,1.904-1.354c0.242,0,0.502,0.061,0.779,0.182
		l-0.645,1.377c-0.152-0.055-0.314-0.082-0.486-0.082c-0.289,0-0.583,0.109-0.882,0.328s-0.532,0.511-0.7,0.876
		s-0.334,0.944-0.498,1.737l-0.41,1.951h-1.682L447.607,160.269z"/>
	<path class="st4" d="M457.129,163.901h-4.219c-0.004,0.066-0.006,0.117-0.006,0.152c0,0.414,0.118,0.748,0.354,1.002
		s0.524,0.381,0.864,0.381c0.559,0,0.994-0.289,1.307-0.867l1.506,0.252c-0.293,0.605-0.685,1.06-1.175,1.362
		s-1.04,0.454-1.649,0.454c-0.836,0-1.516-0.265-2.039-0.794s-0.785-1.229-0.785-2.101c0-0.852,0.236-1.609,0.709-2.273
		c0.645-0.898,1.564-1.348,2.76-1.348c0.762,0,1.367,0.235,1.816,0.706s0.674,1.13,0.674,1.978
		C457.246,163.212,457.207,163.577,457.129,163.901z M455.711,162.876c0.004-0.074,0.006-0.131,0.006-0.17
		c0-0.461-0.104-0.807-0.311-1.037s-0.484-0.346-0.832-0.346s-0.659,0.131-0.935,0.393s-0.462,0.648-0.56,1.16H455.711z"/>
	<path class="st4" d="M457.527,164.751l1.629-0.258c0.145,0.344,0.324,0.587,0.539,0.729s0.508,0.214,0.879,0.214
		c0.383,0,0.689-0.086,0.92-0.258c0.16-0.117,0.24-0.26,0.24-0.428c0-0.113-0.041-0.215-0.123-0.305
		c-0.086-0.086-0.318-0.191-0.697-0.316c-1.016-0.336-1.645-0.602-1.887-0.797c-0.379-0.305-0.568-0.703-0.568-1.195
		s0.184-0.916,0.551-1.271c0.512-0.496,1.271-0.744,2.279-0.744c0.801,0,1.406,0.146,1.816,0.439s0.67,0.689,0.779,1.189
		l-1.553,0.27c-0.082-0.227-0.215-0.396-0.398-0.51c-0.25-0.152-0.551-0.229-0.902-0.229s-0.604,0.059-0.759,0.176
		s-0.231,0.252-0.231,0.404c0,0.156,0.078,0.285,0.234,0.387c0.098,0.063,0.412,0.172,0.943,0.328
		c0.82,0.238,1.369,0.473,1.646,0.703c0.391,0.324,0.586,0.715,0.586,1.172c0,0.59-0.248,1.102-0.744,1.535s-1.195,0.65-2.098,0.65
		c-0.898,0-1.593-0.165-2.083-0.495S457.703,165.349,457.527,164.751z"/>
	<path class="st4" d="M466.123,166.491h-1.682l1.799-8.59h1.682l-0.645,3.059c0.379-0.297,0.732-0.511,1.061-0.642
		s0.68-0.196,1.055-0.196c0.504,0,0.902,0.145,1.195,0.434s0.439,0.668,0.439,1.137c0,0.25-0.055,0.637-0.164,1.16l-0.762,3.639
		h-1.682l0.779-3.709c0.082-0.402,0.123-0.66,0.123-0.773c0-0.207-0.064-0.373-0.193-0.498s-0.305-0.188-0.527-0.188
		c-0.281,0-0.551,0.098-0.809,0.293c-0.336,0.258-0.592,0.574-0.768,0.949c-0.098,0.207-0.227,0.693-0.387,1.459L466.123,166.491z"
		/>
	<path class="st4" d="M476.383,160.269h1.682l-1.301,6.223h-1.682L476.383,160.269z M476.875,157.901h1.682l-0.316,1.523h-1.682
		L476.875,157.901z"/>
	<path class="st4" d="M479.74,160.269h1.594l-0.164,0.809c0.398-0.344,0.771-0.589,1.116-0.735s0.71-0.22,1.093-0.22
		c0.512,0,0.915,0.146,1.21,0.439s0.442,0.682,0.442,1.166c0,0.219-0.064,0.633-0.193,1.242l-0.732,3.521h-1.682l0.738-3.533
		c0.109-0.527,0.164-0.842,0.164-0.943c0-0.215-0.063-0.384-0.19-0.507s-0.304-0.185-0.53-0.185c-0.246,0-0.52,0.104-0.82,0.311
		s-0.537,0.48-0.709,0.82c-0.125,0.242-0.266,0.736-0.422,1.482l-0.533,2.555h-1.682L479.74,160.269z"/>
	<path class="st4" d="M431.213,180.892h-1.77l1.799-8.59h3.814c0.656,0,1.167,0.067,1.532,0.202s0.66,0.382,0.885,0.741
		s0.337,0.795,0.337,1.307c0,0.73-0.219,1.333-0.656,1.808s-1.1,0.769-1.986,0.882c0.227,0.203,0.439,0.471,0.639,0.803
		c0.395,0.672,0.834,1.621,1.318,2.848h-1.898c-0.152-0.484-0.451-1.24-0.896-2.268c-0.242-0.555-0.5-0.928-0.773-1.119
		c-0.168-0.113-0.461-0.17-0.879-0.17h-0.721L431.213,180.892z M432.227,176.046h0.938c0.949,0,1.579-0.057,1.89-0.17
		s0.554-0.291,0.729-0.533s0.264-0.496,0.264-0.762c0-0.313-0.127-0.547-0.381-0.703c-0.156-0.094-0.494-0.141-1.014-0.141h-1.945
		L432.227,176.046z"/>
	<path class="st4" d="M444.121,178.302h-4.219c-0.004,0.066-0.006,0.117-0.006,0.152c0,0.414,0.118,0.748,0.354,1.002
		s0.524,0.381,0.864,0.381c0.559,0,0.994-0.289,1.307-0.867l1.506,0.252c-0.293,0.605-0.685,1.06-1.175,1.362
		s-1.04,0.454-1.649,0.454c-0.836,0-1.516-0.265-2.039-0.794s-0.785-1.229-0.785-2.101c0-0.852,0.236-1.609,0.709-2.273
		c0.645-0.898,1.564-1.348,2.76-1.348c0.762,0,1.367,0.235,1.816,0.706s0.674,1.13,0.674,1.978
		C444.238,177.612,444.199,177.978,444.121,178.302z M442.703,177.276c0.004-0.074,0.006-0.131,0.006-0.17
		c0-0.461-0.104-0.807-0.311-1.037s-0.484-0.346-0.832-0.346s-0.659,0.131-0.935,0.393s-0.462,0.648-0.56,1.16H442.703z"/>
	<path class="st4" d="M447.109,176.433l-1.641-0.141c0.188-0.555,0.515-0.988,0.981-1.301s1.085-0.469,1.854-0.469
		c0.801,0,1.393,0.161,1.775,0.483s0.574,0.716,0.574,1.181c0,0.188-0.017,0.387-0.05,0.598s-0.149,0.766-0.349,1.664
		c-0.164,0.742-0.246,1.262-0.246,1.559c0,0.266,0.047,0.561,0.141,0.885h-1.635c-0.066-0.227-0.107-0.461-0.123-0.703
		c-0.246,0.273-0.529,0.483-0.85,0.63s-0.643,0.22-0.967,0.22c-0.516,0-0.941-0.169-1.277-0.507s-0.504-0.772-0.504-1.304
		c0-0.594,0.185-1.068,0.554-1.424s1.028-0.57,1.978-0.645c0.801-0.066,1.336-0.146,1.605-0.24c0.07-0.234,0.105-0.422,0.105-0.563
		c0-0.18-0.072-0.33-0.217-0.451s-0.359-0.182-0.645-0.182c-0.301,0-0.538,0.062-0.712,0.185S447.172,176.206,447.109,176.433z
		 M448.709,177.991c-0.102,0.027-0.236,0.053-0.404,0.076c-0.844,0.102-1.395,0.25-1.652,0.445c-0.184,0.141-0.275,0.33-0.275,0.568
		c0,0.195,0.07,0.36,0.211,0.495s0.326,0.202,0.557,0.202c0.254,0,0.493-0.062,0.718-0.185s0.393-0.281,0.504-0.475
		s0.21-0.495,0.296-0.905L448.709,177.991z"/>
	<path class="st4" d="M451.398,180.892l1.799-8.59h1.676l-1.793,8.59H451.398z"/>
	<path class="st4" d="M455.066,176.983h3.264l-0.34,1.623h-3.264L455.066,176.983z"/>
	<path class="st4" d="M459.162,175.917l0.258-1.248h0.82l0.205-0.996l1.928-1.16l-0.451,2.156h1.025l-0.258,1.248h-1.031
		l-0.545,2.607c-0.098,0.473-0.146,0.742-0.146,0.809c0,0.129,0.041,0.229,0.123,0.302s0.23,0.108,0.445,0.108
		c0.074,0,0.26-0.014,0.557-0.041l-0.264,1.248c-0.289,0.059-0.586,0.088-0.891,0.088c-0.594,0-1.025-0.114-1.295-0.343
		s-0.404-0.546-0.404-0.952c0-0.191,0.072-0.633,0.217-1.324l0.521-2.502H459.162z"/>
	<path class="st4" d="M464.037,174.669h1.682l-1.301,6.223h-1.682L464.037,174.669z M464.529,172.302h1.682l-0.316,1.523h-1.682
		L464.529,172.302z"/>
	<path class="st4" d="M467.318,174.669h1.582l-0.158,0.756c0.617-0.602,1.266-0.902,1.945-0.902c0.469,0,0.83,0.098,1.084,0.293
		s0.416,0.465,0.486,0.809c0.215-0.313,0.523-0.574,0.926-0.785s0.82-0.316,1.254-0.316c0.496,0,0.883,0.133,1.16,0.398
		s0.416,0.617,0.416,1.055c0,0.215-0.055,0.586-0.164,1.113l-0.797,3.803h-1.682l0.797-3.803c0.098-0.477,0.146-0.746,0.146-0.809
		c0-0.172-0.052-0.308-0.155-0.407s-0.259-0.149-0.466-0.149c-0.418,0-0.791,0.221-1.119,0.662
		c-0.238,0.316-0.441,0.877-0.609,1.682l-0.592,2.824h-1.682l0.785-3.762c0.09-0.434,0.135-0.715,0.135-0.844
		c0-0.164-0.056-0.299-0.167-0.404s-0.265-0.158-0.46-0.158c-0.184,0-0.373,0.055-0.568,0.164s-0.366,0.26-0.513,0.451
		s-0.272,0.438-0.378,0.738c-0.047,0.141-0.123,0.459-0.229,0.955l-0.598,2.859h-1.682L467.318,174.669z"/>
	<path class="st4" d="M482.799,178.302h-4.219c-0.004,0.066-0.006,0.117-0.006,0.152c0,0.414,0.118,0.748,0.354,1.002
		s0.524,0.381,0.864,0.381c0.559,0,0.994-0.289,1.307-0.867l1.506,0.252c-0.293,0.605-0.685,1.06-1.175,1.362
		s-1.04,0.454-1.649,0.454c-0.836,0-1.516-0.265-2.039-0.794s-0.785-1.229-0.785-2.101c0-0.852,0.236-1.609,0.709-2.273
		c0.645-0.898,1.564-1.348,2.76-1.348c0.762,0,1.367,0.235,1.816,0.706s0.674,1.13,0.674,1.978
		C482.916,177.612,482.877,177.978,482.799,178.302z M481.381,177.276c0.004-0.074,0.006-0.131,0.006-0.17
		c0-0.461-0.104-0.807-0.311-1.037s-0.484-0.346-0.832-0.346s-0.659,0.131-0.935,0.393s-0.462,0.648-0.56,1.16H481.381z"/>
</g>
<polyline class="st5" points="207.037,77.474 225.037,77.474 225.037,136.958 205.73,136.958 "/>
<polygon class="st3" points="207.23,132.457 198.23,136.958 207.23,141.457 207.23,132.457 "/>
<g>
	<g>
		<line class="st6" x1="170.557" y1="136.958" x2="165.557" y2="136.958"/>
		<line class="st7" x1="161.355" y1="136.958" x2="150.851" y2="136.958"/>
		<polyline class="st6" points="148.75,136.958 143.75,136.958 143.75,131.958 		"/>
		<line class="st8" x1="143.75" y1="127.009" x2="143.75" y2="84.948"/>
		<polyline class="st6" points="143.75,82.474 143.75,77.474 148.75,77.474 		"/>
		<line class="st6" x1="149.25" y1="77.474" x2="154.25" y2="77.474"/>
	</g>
</g>
<polygon class="st3" points="152.75,72.975 161.75,77.474 152.75,81.975 152.75,72.975 "/>
<g>
	<path class="st4" d="M153.37,163.708l1.682-0.088c0.023,0.535,0.115,0.896,0.275,1.084c0.258,0.305,0.734,0.457,1.43,0.457
		c0.578,0,0.996-0.104,1.254-0.311s0.387-0.457,0.387-0.75c0-0.254-0.105-0.469-0.316-0.645c-0.148-0.129-0.556-0.338-1.222-0.627
		s-1.152-0.53-1.459-0.724s-0.548-0.444-0.724-0.753s-0.264-0.67-0.264-1.084c0-0.723,0.262-1.322,0.785-1.799
		s1.281-0.715,2.273-0.715c1.008,0,1.788,0.236,2.341,0.709s0.856,1.102,0.911,1.887l-1.693,0.076
		c-0.043-0.41-0.191-0.725-0.445-0.943s-0.629-0.328-1.125-0.328c-0.488,0-0.837,0.086-1.046,0.258s-0.313,0.389-0.313,0.65
		c0,0.246,0.096,0.449,0.287,0.609c0.191,0.164,0.615,0.389,1.271,0.674c0.988,0.426,1.617,0.771,1.887,1.037
		c0.402,0.391,0.604,0.893,0.604,1.506c0,0.758-0.3,1.405-0.899,1.942s-1.435,0.806-2.505,0.806c-0.738,0-1.378-0.124-1.919-0.372
		s-0.923-0.593-1.146-1.034S153.354,164.282,153.37,163.708z"/>
	<path class="st4" d="M165.312,164.147l1.635,0.264c-0.27,0.727-0.668,1.279-1.195,1.658s-1.139,0.568-1.834,0.568
		c-0.793,0-1.422-0.236-1.887-0.709s-0.697-1.123-0.697-1.951c0-0.676,0.141-1.314,0.422-1.916s0.705-1.075,1.271-1.421
		s1.188-0.519,1.863-0.519c0.734,0,1.32,0.191,1.758,0.574s0.684,0.887,0.738,1.512l-1.6,0.17c-0.039-0.348-0.146-0.604-0.319-0.768
		s-0.401-0.246-0.683-0.246c-0.324,0-0.627,0.121-0.908,0.363s-0.497,0.604-0.647,1.087s-0.226,0.935-0.226,1.356
		c0,0.367,0.09,0.65,0.27,0.85s0.404,0.299,0.674,0.299s0.529-0.098,0.779-0.293S165.171,164.538,165.312,164.147z"/>
	<path class="st4" d="M169.472,166.491h-1.682l1.799-8.59h1.682l-0.645,3.059c0.379-0.297,0.732-0.511,1.061-0.642
		s0.68-0.196,1.055-0.196c0.504,0,0.902,0.145,1.195,0.434s0.439,0.668,0.439,1.137c0,0.25-0.055,0.637-0.164,1.16l-0.762,3.639
		h-1.682l0.779-3.709c0.082-0.402,0.123-0.66,0.123-0.773c0-0.207-0.064-0.373-0.193-0.498s-0.305-0.188-0.527-0.188
		c-0.281,0-0.551,0.098-0.809,0.293c-0.336,0.258-0.592,0.574-0.768,0.949c-0.098,0.207-0.227,0.693-0.387,1.459L169.472,166.491z"
		/>
	<path class="st4" d="M181.155,163.901h-4.219c-0.004,0.066-0.006,0.117-0.006,0.152c0,0.414,0.118,0.748,0.354,1.002
		s0.524,0.381,0.864,0.381c0.559,0,0.994-0.289,1.307-0.867l1.506,0.252c-0.293,0.605-0.685,1.06-1.175,1.362
		s-1.04,0.454-1.649,0.454c-0.836,0-1.516-0.265-2.039-0.794s-0.785-1.229-0.785-2.101c0-0.852,0.236-1.609,0.709-2.273
		c0.645-0.898,1.564-1.348,2.76-1.348c0.762,0,1.367,0.235,1.816,0.706s0.674,1.13,0.674,1.978
		C181.272,163.212,181.233,163.577,181.155,163.901z M179.737,162.876c0.004-0.074,0.006-0.131,0.006-0.17
		c0-0.461-0.104-0.807-0.311-1.037s-0.484-0.346-0.832-0.346s-0.659,0.131-0.935,0.393s-0.462,0.648-0.56,1.16H179.737z"/>
	<path class="st4" d="M187.519,166.491h-1.594l0.141-0.674c-0.305,0.293-0.604,0.503-0.899,0.63s-0.628,0.19-0.999,0.19
		c-0.645,0-1.167-0.22-1.567-0.659s-0.601-1.089-0.601-1.948c0-0.996,0.281-1.896,0.844-2.701s1.307-1.207,2.232-1.207
		c0.836,0,1.463,0.332,1.881,0.996l0.674-3.217h1.682L187.519,166.491z M183.634,163.96c0,0.445,0.112,0.793,0.337,1.043
		s0.501,0.375,0.829,0.375c0.305,0,0.589-0.104,0.853-0.313s0.475-0.528,0.633-0.958s0.237-0.842,0.237-1.236
		c0-0.449-0.121-0.813-0.363-1.09s-0.521-0.416-0.838-0.416c-0.492,0-0.896,0.273-1.213,0.82S183.634,163.323,183.634,163.96z"/>
	<path class="st4" d="M190.39,160.269h1.682l-0.768,3.686c-0.094,0.441-0.141,0.717-0.141,0.826c0,0.18,0.066,0.334,0.199,0.463
		s0.303,0.193,0.51,0.193c0.148,0,0.295-0.028,0.439-0.085s0.293-0.143,0.445-0.258s0.289-0.247,0.41-0.396s0.234-0.344,0.34-0.586
		c0.074-0.18,0.154-0.473,0.24-0.879l0.621-2.965h1.682l-1.301,6.223h-1.57l0.176-0.844c-0.688,0.66-1.436,0.99-2.244,0.99
		c-0.512,0-0.914-0.146-1.207-0.439s-0.439-0.686-0.439-1.178c0-0.215,0.066-0.643,0.199-1.283L190.39,160.269z"/>
	<path class="st4" d="M196.419,166.491l1.799-8.59h1.676l-1.793,8.59H196.419z"/>
	<path class="st4" d="M205.823,163.901h-4.219c-0.004,0.066-0.006,0.117-0.006,0.152c0,0.414,0.118,0.748,0.354,1.002
		s0.524,0.381,0.864,0.381c0.559,0,0.994-0.289,1.307-0.867l1.506,0.252c-0.293,0.605-0.685,1.06-1.175,1.362
		s-1.04,0.454-1.649,0.454c-0.836,0-1.516-0.265-2.039-0.794s-0.785-1.229-0.785-2.101c0-0.852,0.236-1.609,0.709-2.273
		c0.645-0.898,1.564-1.348,2.76-1.348c0.762,0,1.367,0.235,1.816,0.706s0.674,1.13,0.674,1.978
		C205.94,163.212,205.901,163.577,205.823,163.901z M204.405,162.876c0.004-0.074,0.006-0.131,0.006-0.17
		c0-0.461-0.104-0.807-0.311-1.037s-0.484-0.346-0.832-0.346s-0.659,0.131-0.935,0.393s-0.462,0.648-0.56,1.16H204.405z"/>
	<path class="st4" d="M212.187,166.491h-1.594l0.141-0.674c-0.305,0.293-0.604,0.503-0.899,0.63s-0.628,0.19-0.999,0.19
		c-0.645,0-1.167-0.22-1.567-0.659s-0.601-1.089-0.601-1.948c0-0.996,0.281-1.896,0.844-2.701s1.307-1.207,2.232-1.207
		c0.836,0,1.463,0.332,1.881,0.996l0.674-3.217h1.682L212.187,166.491z M208.302,163.96c0,0.445,0.112,0.793,0.337,1.043
		s0.501,0.375,0.829,0.375c0.305,0,0.589-0.104,0.853-0.313s0.475-0.528,0.633-0.958s0.237-0.842,0.237-1.236
		c0-0.449-0.121-0.813-0.363-1.09s-0.521-0.416-0.838-0.416c-0.492,0-0.896,0.273-1.213,0.82S208.302,163.323,208.302,163.96z"/>
	<path class="st4" d="M156.915,180.892h-1.77l1.799-8.59h3.814c0.656,0,1.167,0.067,1.532,0.202s0.66,0.382,0.885,0.741
		s0.337,0.795,0.337,1.307c0,0.73-0.219,1.333-0.656,1.808s-1.1,0.769-1.986,0.882c0.227,0.203,0.439,0.471,0.639,0.803
		c0.395,0.672,0.834,1.621,1.318,2.848h-1.898c-0.152-0.484-0.451-1.24-0.896-2.268c-0.242-0.555-0.5-0.928-0.773-1.119
		c-0.168-0.113-0.461-0.17-0.879-0.17h-0.721L156.915,180.892z M157.929,176.046h0.938c0.949,0,1.579-0.057,1.89-0.17
		s0.554-0.291,0.729-0.533s0.264-0.496,0.264-0.762c0-0.313-0.127-0.547-0.381-0.703c-0.156-0.094-0.494-0.141-1.014-0.141h-1.945
		L157.929,176.046z"/>
	<path class="st4" d="M169.823,178.302h-4.219c-0.004,0.066-0.006,0.117-0.006,0.152c0,0.414,0.118,0.748,0.354,1.002
		s0.524,0.381,0.864,0.381c0.559,0,0.994-0.289,1.307-0.867l1.506,0.252c-0.293,0.605-0.685,1.06-1.175,1.362
		s-1.04,0.454-1.649,0.454c-0.836,0-1.516-0.265-2.039-0.794s-0.785-1.229-0.785-2.101c0-0.852,0.236-1.609,0.709-2.273
		c0.645-0.898,1.564-1.348,2.76-1.348c0.762,0,1.367,0.235,1.816,0.706s0.674,1.13,0.674,1.978
		C169.94,177.612,169.901,177.978,169.823,178.302z M168.405,177.276c0.004-0.074,0.006-0.131,0.006-0.17
		c0-0.461-0.104-0.807-0.311-1.037s-0.484-0.346-0.832-0.346s-0.659,0.131-0.935,0.393s-0.462,0.648-0.56,1.16H168.405z"/>
	<path class="st4" d="M171.687,174.669h1.594l-0.135,0.639c0.34-0.281,0.658-0.482,0.955-0.604s0.615-0.182,0.955-0.182
		c0.652,0,1.177,0.225,1.573,0.674s0.595,1.119,0.595,2.01c0,1.121-0.342,2.068-1.025,2.842c-0.586,0.66-1.279,0.99-2.08,0.99
		c-0.824,0-1.447-0.334-1.869-1.002l-0.674,3.229h-1.682L171.687,174.669z M172.7,178.237c0,0.484,0.118,0.86,0.354,1.128
		s0.515,0.401,0.835,0.401c0.277,0,0.545-0.101,0.803-0.302s0.472-0.535,0.642-1.002s0.255-0.899,0.255-1.298
		c0-0.465-0.111-0.821-0.334-1.069s-0.506-0.372-0.85-0.372c-0.32,0-0.612,0.114-0.876,0.343s-0.468,0.564-0.612,1.008
		S172.7,177.905,172.7,178.237z"/>
	<path class="st4" d="M178.015,178.308c0-1.152,0.325-2.071,0.976-2.757s1.505-1.028,2.563-1.028c0.918,0,1.635,0.253,2.15,0.759
		s0.773,1.187,0.773,2.042c0,1.008-0.322,1.879-0.967,2.613s-1.508,1.102-2.59,1.102c-0.586,0-1.105-0.117-1.559-0.352
		s-0.791-0.566-1.014-0.996S178.015,178.8,178.015,178.308z M182.808,177.106c0-0.398-0.116-0.718-0.349-0.958
		s-0.532-0.36-0.899-0.36c-0.363,0-0.686,0.112-0.967,0.337s-0.5,0.551-0.656,0.979s-0.234,0.821-0.234,1.181
		c0,0.445,0.121,0.799,0.363,1.061s0.547,0.393,0.914,0.393c0.461,0,0.848-0.197,1.16-0.592
		C182.585,178.587,182.808,177.907,182.808,177.106z"/>
	<path class="st4" d="M186.306,174.669h1.57l-0.252,1.207c0.586-0.902,1.221-1.354,1.904-1.354c0.242,0,0.502,0.061,0.779,0.182
		l-0.645,1.377c-0.152-0.055-0.314-0.082-0.486-0.082c-0.289,0-0.583,0.109-0.882,0.328s-0.532,0.511-0.7,0.876
		s-0.334,0.944-0.498,1.737l-0.41,1.951h-1.682L186.306,174.669z"/>
	<path class="st4" d="M190.19,175.917l0.258-1.248h0.82l0.205-0.996l1.928-1.16l-0.451,2.156h1.025l-0.258,1.248h-1.031
		l-0.545,2.607c-0.098,0.473-0.146,0.742-0.146,0.809c0,0.129,0.041,0.229,0.123,0.302s0.23,0.108,0.445,0.108
		c0.074,0,0.26-0.014,0.557-0.041l-0.264,1.248c-0.289,0.059-0.586,0.088-0.891,0.088c-0.594,0-1.025-0.114-1.295-0.343
		s-0.404-0.546-0.404-0.952c0-0.191,0.072-0.633,0.217-1.324l0.521-2.502H190.19z"/>
	<path class="st4" d="M195.065,174.669h1.682l-1.301,6.223h-1.682L195.065,174.669z M195.558,172.302h1.682l-0.316,1.523h-1.682
		L195.558,172.302z"/>
	<path class="st4" d="M198.423,174.669h1.594l-0.164,0.809c0.398-0.344,0.771-0.589,1.116-0.735s0.71-0.22,1.093-0.22
		c0.512,0,0.915,0.146,1.21,0.439s0.442,0.682,0.442,1.166c0,0.219-0.064,0.633-0.193,1.242l-0.732,3.521h-1.682l0.738-3.533
		c0.109-0.527,0.164-0.842,0.164-0.943c0-0.215-0.063-0.384-0.19-0.507s-0.304-0.185-0.53-0.185c-0.246,0-0.52,0.104-0.82,0.311
		s-0.537,0.48-0.709,0.82c-0.125,0.242-0.266,0.736-0.422,1.482l-0.533,2.555h-1.682L198.423,174.669z"/>
	<path class="st4" d="M204.341,181.22l1.775,0.258c0,0.18,0.029,0.315,0.088,0.407s0.153,0.17,0.284,0.234s0.31,0.097,0.536,0.097
		c0.355,0,0.641-0.07,0.855-0.211c0.16-0.109,0.291-0.285,0.393-0.527c0.063-0.152,0.143-0.484,0.24-0.996l0.059-0.293
		c-0.582,0.484-1.184,0.727-1.805,0.727c-0.609,0-1.109-0.215-1.5-0.645s-0.586-1.059-0.586-1.887c0-0.73,0.133-1.4,0.398-2.01
		s0.639-1.07,1.119-1.383s0.971-0.469,1.471-0.469c0.414,0,0.793,0.109,1.137,0.328s0.611,0.525,0.803,0.92l0.234-1.102h1.576
		l-1.078,5.186c-0.176,0.832-0.324,1.426-0.445,1.781s-0.26,0.639-0.416,0.85s-0.354,0.388-0.592,0.53s-0.52,0.245-0.844,0.308
		s-0.676,0.094-1.055,0.094c-0.879,0-1.543-0.15-1.992-0.451s-0.674-0.801-0.674-1.5C204.323,181.392,204.329,181.31,204.341,181.22
		z M206.321,178.214c0,0.473,0.106,0.833,0.319,1.081s0.479,0.372,0.8,0.372c0.293,0,0.577-0.111,0.853-0.334
		s0.486-0.539,0.633-0.949s0.22-0.807,0.22-1.189c0-0.441-0.119-0.797-0.357-1.066s-0.514-0.404-0.826-0.404
		c-0.301,0-0.577,0.119-0.829,0.357s-0.46,0.605-0.624,1.102C206.384,177.565,206.321,177.909,206.321,178.214z"/>
</g>
<g>
	<path class="st4" d="M521.019,60.856l1.682-0.088c0.023,0.535,0.115,0.896,0.275,1.084c0.258,0.305,0.734,0.457,1.43,0.457
		c0.578,0,0.996-0.104,1.254-0.311s0.387-0.457,0.387-0.75c0-0.254-0.105-0.469-0.316-0.645c-0.148-0.129-0.556-0.338-1.222-0.627
		s-1.152-0.53-1.459-0.724s-0.548-0.444-0.724-0.753s-0.264-0.67-0.264-1.084c0-0.723,0.262-1.322,0.785-1.799
		s1.281-0.715,2.273-0.715c1.008,0,1.788,0.236,2.341,0.709s0.856,1.102,0.911,1.887l-1.693,0.076
		c-0.043-0.41-0.191-0.725-0.445-0.943s-0.629-0.328-1.125-0.328c-0.488,0-0.837,0.086-1.046,0.258s-0.313,0.389-0.313,0.65
		c0,0.246,0.096,0.449,0.287,0.609c0.191,0.164,0.615,0.389,1.271,0.674c0.988,0.426,1.617,0.771,1.887,1.037
		c0.402,0.391,0.604,0.893,0.604,1.506c0,0.758-0.3,1.405-0.899,1.942s-1.435,0.806-2.505,0.806c-0.738,0-1.378-0.124-1.919-0.372
		s-0.923-0.593-1.146-1.034S521.003,61.43,521.019,60.856z"/>
	<path class="st4" d="M530.446,63.639h-1.682l1.799-8.59h1.682l-0.645,3.059c0.379-0.297,0.732-0.511,1.061-0.642
		s0.68-0.196,1.055-0.196c0.504,0,0.902,0.145,1.195,0.434s0.439,0.668,0.439,1.137c0,0.25-0.055,0.637-0.164,1.16l-0.762,3.639
		h-1.682l0.779-3.709c0.082-0.402,0.123-0.66,0.123-0.773c0-0.207-0.064-0.373-0.193-0.498s-0.305-0.188-0.527-0.188
		c-0.281,0-0.551,0.098-0.809,0.293c-0.336,0.258-0.592,0.574-0.768,0.949c-0.098,0.207-0.227,0.693-0.387,1.459L530.446,63.639z"/>
	<path class="st4" d="M538.444,59.18l-1.641-0.141c0.188-0.555,0.515-0.988,0.981-1.301s1.085-0.469,1.854-0.469
		c0.801,0,1.393,0.161,1.775,0.483s0.574,0.716,0.574,1.181c0,0.188-0.017,0.387-0.05,0.598s-0.149,0.766-0.349,1.664
		c-0.164,0.742-0.246,1.262-0.246,1.559c0,0.266,0.047,0.561,0.141,0.885h-1.635c-0.066-0.227-0.107-0.461-0.123-0.703
		c-0.246,0.273-0.529,0.483-0.85,0.63s-0.643,0.22-0.967,0.22c-0.516,0-0.941-0.169-1.277-0.507s-0.504-0.772-0.504-1.304
		c0-0.594,0.185-1.068,0.554-1.424s1.028-0.57,1.978-0.645c0.801-0.066,1.336-0.146,1.605-0.24c0.07-0.234,0.105-0.422,0.105-0.563
		c0-0.18-0.072-0.33-0.217-0.451s-0.359-0.182-0.645-0.182c-0.301,0-0.538,0.062-0.712,0.185S538.507,58.954,538.444,59.18z
		 M540.044,60.739c-0.102,0.027-0.236,0.053-0.404,0.076c-0.844,0.102-1.395,0.25-1.652,0.445c-0.184,0.141-0.275,0.33-0.275,0.568
		c0,0.195,0.07,0.36,0.211,0.495s0.326,0.202,0.557,0.202c0.254,0,0.493-0.062,0.718-0.185s0.393-0.281,0.504-0.475
		s0.21-0.495,0.296-0.905L540.044,60.739z"/>
	<path class="st4" d="M543.952,57.417h1.57l-0.252,1.207c0.586-0.902,1.221-1.354,1.904-1.354c0.242,0,0.502,0.061,0.779,0.182
		l-0.645,1.377c-0.152-0.055-0.314-0.082-0.486-0.082c-0.289,0-0.583,0.109-0.882,0.328s-0.532,0.511-0.7,0.876
		s-0.334,0.944-0.498,1.737l-0.41,1.951h-1.682L543.952,57.417z"/>
	<path class="st4" d="M553.474,61.049h-4.219c-0.004,0.066-0.006,0.117-0.006,0.152c0,0.414,0.118,0.748,0.354,1.002
		s0.524,0.381,0.864,0.381c0.559,0,0.994-0.289,1.307-0.867l1.506,0.252c-0.293,0.605-0.685,1.06-1.175,1.362
		s-1.04,0.454-1.649,0.454c-0.836,0-1.516-0.265-2.039-0.794s-0.785-1.229-0.785-2.101c0-0.852,0.236-1.609,0.709-2.273
		c0.645-0.898,1.564-1.348,2.76-1.348c0.762,0,1.367,0.235,1.816,0.706s0.674,1.13,0.674,1.978
		C553.591,60.36,553.552,60.725,553.474,61.049z M552.056,60.024c0.004-0.074,0.006-0.131,0.006-0.17
		c0-0.461-0.104-0.807-0.311-1.037s-0.484-0.346-0.832-0.346s-0.659,0.131-0.935,0.393s-0.462,0.648-0.56,1.16H552.056z"/>
</g>
<g>
	<path class="st4" d="M20.75,120.616v-8.59h4.424c0.82,0,1.447,0.07,1.881,0.211s0.783,0.401,1.049,0.782s0.398,0.845,0.398,1.392
		c0,0.477-0.102,0.888-0.305,1.233c-0.204,0.346-0.483,0.626-0.838,0.841c-0.227,0.137-0.538,0.25-0.932,0.34
		c0.316,0.105,0.546,0.211,0.691,0.316c0.097,0.07,0.239,0.221,0.424,0.452c0.186,0.23,0.31,0.408,0.372,0.533l1.285,2.489h-2.999
		l-1.419-2.625c-0.18-0.34-0.34-0.561-0.48-0.662c-0.191-0.133-0.408-0.199-0.65-0.199h-0.234v3.486H20.75z M23.417,115.507h1.119
		c0.121,0,0.355-0.039,0.703-0.117c0.176-0.035,0.319-0.125,0.431-0.27s0.167-0.311,0.167-0.498c0-0.277-0.088-0.49-0.264-0.639
		s-0.506-0.223-0.99-0.223h-1.166V115.507z"/>
	<path class="st4" d="M30.043,112.026h7.113v1.834h-4.453v1.365h4.131v1.752h-4.131v1.693h4.582v1.945h-7.242V112.026z"/>
	<path class="st4" d="M38.704,112.026h4.412c0.961,0,1.681,0.229,2.159,0.686s0.718,1.107,0.718,1.951
		c0,0.867-0.261,1.545-0.782,2.033s-1.317,0.732-2.388,0.732H41.37v3.188h-2.666V112.026z M41.37,115.688h0.65
		c0.512,0,0.871-0.089,1.078-0.267s0.311-0.405,0.311-0.683c0-0.27-0.09-0.498-0.27-0.686s-0.518-0.281-1.014-0.281H41.37V115.688z"
		/>
	<path class="st4" d="M47.047,116.327c0-1.402,0.391-2.494,1.172-3.275s1.869-1.172,3.264-1.172c1.43,0,2.531,0.384,3.305,1.151
		s1.16,1.843,1.16,3.226c0,1.004-0.169,1.827-0.507,2.47s-0.826,1.143-1.465,1.5s-1.435,0.536-2.388,0.536
		c-0.969,0-1.771-0.154-2.405-0.463s-1.149-0.797-1.544-1.465S47.047,117.331,47.047,116.327z M49.702,116.339
		c0,0.867,0.161,1.49,0.483,1.869s0.761,0.568,1.315,0.568c0.57,0,1.012-0.186,1.324-0.557s0.469-1.037,0.469-1.998
		c0-0.809-0.163-1.399-0.489-1.772s-0.769-0.56-1.327-0.56c-0.535,0-0.965,0.189-1.289,0.568S49.702,115.464,49.702,116.339z"/>
	<path class="st4" d="M57.413,120.616v-8.59h4.424c0.82,0,1.447,0.07,1.881,0.211s0.783,0.401,1.049,0.782s0.398,0.845,0.398,1.392
		c0,0.477-0.102,0.888-0.305,1.233c-0.204,0.346-0.483,0.626-0.838,0.841c-0.227,0.137-0.538,0.25-0.932,0.34
		c0.316,0.105,0.546,0.211,0.691,0.316c0.097,0.07,0.239,0.221,0.424,0.452c0.186,0.23,0.31,0.408,0.372,0.533l1.285,2.489h-2.999
		l-1.419-2.625c-0.18-0.34-0.34-0.561-0.48-0.662c-0.191-0.133-0.408-0.199-0.65-0.199h-0.234v3.486H57.413z M60.079,115.507h1.119
		c0.121,0,0.355-0.039,0.703-0.117c0.176-0.035,0.319-0.125,0.431-0.27s0.167-0.311,0.167-0.498c0-0.277-0.088-0.49-0.264-0.639
		s-0.506-0.223-0.99-0.223h-1.166V115.507z"/>
	<path class="st4" d="M66.002,112.026h8.068v2.121h-2.707v6.469h-2.654v-6.469h-2.707V112.026z"/>
	<path class="st4" d="M74.809,117.774l2.525-0.158c0.055,0.41,0.166,0.723,0.334,0.938c0.273,0.348,0.664,0.521,1.172,0.521
		c0.379,0,0.671-0.089,0.876-0.267s0.308-0.384,0.308-0.618c0-0.223-0.098-0.422-0.293-0.598s-0.648-0.342-1.359-0.498
		c-1.164-0.262-1.994-0.609-2.49-1.043c-0.5-0.434-0.75-0.986-0.75-1.658c0-0.441,0.128-0.858,0.384-1.251s0.641-0.701,1.154-0.926
		s1.218-0.337,2.112-0.337c1.098,0,1.935,0.204,2.511,0.612s0.919,1.058,1.028,1.948l-2.502,0.146
		c-0.066-0.387-0.206-0.668-0.419-0.844s-0.507-0.264-0.882-0.264c-0.309,0-0.541,0.065-0.697,0.196s-0.234,0.29-0.234,0.478
		c0,0.137,0.064,0.26,0.193,0.369c0.125,0.113,0.422,0.219,0.891,0.316c1.16,0.25,1.991,0.503,2.493,0.759s0.867,0.573,1.096,0.952
		s0.343,0.803,0.343,1.271c0,0.551-0.152,1.059-0.457,1.523s-0.73,0.817-1.277,1.058s-1.236,0.36-2.068,0.36
		c-1.461,0-2.473-0.281-3.035-0.844S74.883,118.642,74.809,117.774z"/>
	<path class="st4" d="M22.913,126.427h2.654v6.475h4.143v2.115h-6.797V126.427z"/>
	<path class="st4" d="M31.022,126.427h2.66v8.59h-2.66V126.427z"/>
	<path class="st4" d="M35.592,126.427h4.969c0.828,0,1.464,0.205,1.907,0.615s0.665,0.918,0.665,1.523
		c0,0.508-0.158,0.943-0.475,1.307c-0.211,0.242-0.52,0.434-0.926,0.574c0.617,0.148,1.071,0.403,1.362,0.765
		s0.437,0.815,0.437,1.362c0,0.445-0.104,0.846-0.311,1.201s-0.49,0.637-0.85,0.844c-0.223,0.129-0.559,0.223-1.008,0.281
		c-0.598,0.078-0.994,0.117-1.189,0.117h-4.582V126.427z M38.27,129.796h1.154c0.414,0,0.702-0.071,0.864-0.214
		s0.243-0.349,0.243-0.618c0-0.25-0.081-0.445-0.243-0.586s-0.444-0.211-0.847-0.211H38.27V129.796z M38.27,133.171h1.354
		c0.457,0,0.779-0.081,0.967-0.243s0.281-0.38,0.281-0.653c0-0.254-0.093-0.458-0.278-0.612s-0.511-0.231-0.976-0.231H38.27V133.171
		z"/>
	<path class="st4" d="M44.956,135.017v-8.59h4.424c0.82,0,1.447,0.07,1.881,0.211s0.783,0.401,1.049,0.782s0.398,0.845,0.398,1.392
		c0,0.477-0.102,0.888-0.305,1.233c-0.204,0.346-0.483,0.626-0.838,0.841c-0.227,0.137-0.538,0.25-0.932,0.34
		c0.316,0.105,0.546,0.211,0.691,0.316c0.097,0.07,0.239,0.221,0.424,0.452c0.186,0.23,0.31,0.408,0.372,0.533l1.285,2.489h-2.999
		l-1.419-2.625c-0.18-0.34-0.34-0.561-0.48-0.662c-0.191-0.133-0.408-0.199-0.65-0.199h-0.234v3.486H44.956z M47.622,129.907h1.119
		c0.121,0,0.355-0.039,0.703-0.117c0.176-0.035,0.319-0.125,0.431-0.27s0.167-0.311,0.167-0.498c0-0.277-0.088-0.49-0.264-0.639
		s-0.506-0.223-0.99-0.223h-1.166V129.907z"/>
	<path class="st4" d="M59.535,133.599h-3.013l-0.419,1.418h-2.71l3.229-8.59h2.896l3.228,8.59h-2.779L59.535,133.599z
		 M58.985,131.741l-0.948-3.088l-0.938,3.088H58.985z"/>
	<path class="st4" d="M63.624,135.017v-8.59h4.424c0.82,0,1.447,0.07,1.881,0.211s0.783,0.401,1.049,0.782s0.398,0.845,0.398,1.392
		c0,0.477-0.102,0.888-0.305,1.233c-0.204,0.346-0.483,0.626-0.838,0.841c-0.227,0.137-0.538,0.25-0.932,0.34
		c0.316,0.105,0.546,0.211,0.691,0.316c0.097,0.07,0.239,0.221,0.424,0.452c0.186,0.23,0.31,0.408,0.372,0.533l1.285,2.489h-2.999
		l-1.419-2.625c-0.18-0.34-0.34-0.561-0.48-0.662c-0.191-0.133-0.408-0.199-0.65-0.199H66.29v3.486H63.624z M66.29,129.907h1.119
		c0.121,0,0.355-0.039,0.703-0.117c0.176-0.035,0.319-0.125,0.431-0.27s0.167-0.311,0.167-0.498c0-0.277-0.088-0.49-0.264-0.639
		s-0.506-0.223-0.99-0.223H66.29V129.907z"/>
	<path class="st4" d="M71.54,126.427h2.948l1.731,2.897l1.734-2.897h2.933l-3.34,4.992v3.598h-2.66v-3.598L71.54,126.427z"/>
</g>
<g>
	<path class="st4" d="M161.806,19.016h3.491l1.346,5.227l1.336-5.227h3.489v8.59h-2.174v-6.551l-1.675,6.551h-1.968l-1.672-6.551
		v6.551h-2.174V19.016z"/>
	<path class="st4" d="M172.827,23.317c0-1.402,0.391-2.494,1.172-3.275s1.869-1.172,3.264-1.172c1.43,0,2.531,0.384,3.305,1.151
		s1.16,1.843,1.16,3.226c0,1.004-0.169,1.827-0.507,2.47s-0.826,1.143-1.465,1.5s-1.435,0.536-2.388,0.536
		c-0.969,0-1.771-0.154-2.405-0.463s-1.149-0.797-1.544-1.465S172.827,24.321,172.827,23.317z M175.481,23.329
		c0,0.867,0.161,1.49,0.483,1.869s0.761,0.568,1.315,0.568c0.57,0,1.012-0.186,1.324-0.557s0.469-1.037,0.469-1.998
		c0-0.809-0.163-1.399-0.489-1.772s-0.769-0.56-1.327-0.56c-0.535,0-0.965,0.189-1.289,0.568S175.481,22.454,175.481,23.329z"/>
	<path class="st4" d="M183.192,19.016h3.943c0.777,0,1.405,0.105,1.884,0.316s0.874,0.514,1.187,0.908s0.539,0.854,0.68,1.377
		s0.211,1.078,0.211,1.664c0,0.918-0.104,1.63-0.313,2.136s-0.499,0.93-0.87,1.271s-0.77,0.569-1.195,0.683
		c-0.582,0.156-1.109,0.234-1.582,0.234h-3.943V19.016z M185.847,20.961v4.693h0.65c0.555,0,0.949-0.062,1.184-0.185
		s0.418-0.338,0.551-0.645s0.199-0.804,0.199-1.491c0-0.91-0.148-1.533-0.445-1.869s-0.789-0.504-1.477-0.504H185.847z"/>
	<path class="st4" d="M192.485,19.016h7.113v1.834h-4.453v1.365h4.131v1.752h-4.131v1.693h4.582v1.945h-7.242V19.016z"/>
	<path class="st4" d="M201.157,19.016h2.654v6.475h4.143v2.115h-6.797V19.016z"/>
	<path class="st4" d="M158.255,42.006v-8.59h4.424c0.82,0,1.447,0.07,1.881,0.211s0.783,0.401,1.049,0.782s0.398,0.845,0.398,1.392
		c0,0.477-0.102,0.888-0.305,1.233c-0.204,0.346-0.483,0.626-0.838,0.841c-0.227,0.137-0.538,0.25-0.932,0.34
		c0.316,0.105,0.546,0.211,0.691,0.317c0.097,0.07,0.239,0.221,0.424,0.452c0.186,0.23,0.31,0.408,0.372,0.533l1.285,2.489h-2.999
		l-1.419-2.625c-0.18-0.34-0.34-0.561-0.48-0.662c-0.191-0.133-0.408-0.199-0.65-0.199h-0.234v3.486H158.255z M160.921,36.896h1.119
		c0.121,0,0.355-0.039,0.703-0.117c0.176-0.035,0.319-0.125,0.431-0.27s0.167-0.311,0.167-0.498c0-0.277-0.088-0.49-0.264-0.639
		s-0.506-0.223-0.99-0.223h-1.166V36.896z"/>
	<path class="st4" d="M167.548,33.416h7.113v1.834h-4.453v1.365h4.131v1.752h-4.131v1.693h4.582v1.945h-7.242V33.416z"/>
	<path class="st4" d="M176.208,33.416h4.412c0.961,0,1.681,0.229,2.159,0.686s0.718,1.107,0.718,1.951
		c0,0.867-0.261,1.545-0.782,2.033s-1.317,0.732-2.388,0.732h-1.453v3.188h-2.666V33.416z M178.874,37.078h0.65
		c0.512,0,0.871-0.089,1.078-0.267s0.311-0.405,0.311-0.683c0-0.27-0.09-0.498-0.27-0.686s-0.518-0.281-1.014-0.281h-0.756V37.078z"
		/>
	<path class="st4" d="M184.552,37.717c0-1.402,0.391-2.494,1.172-3.275s1.869-1.172,3.264-1.172c1.43,0,2.531,0.384,3.305,1.151
		s1.16,1.843,1.16,3.226c0,1.004-0.169,1.827-0.507,2.47s-0.826,1.143-1.465,1.5s-1.435,0.536-2.388,0.536
		c-0.969,0-1.771-0.154-2.405-0.463s-1.149-0.797-1.544-1.465S184.552,38.721,184.552,37.717z M187.206,37.729
		c0,0.867,0.161,1.49,0.483,1.869s0.761,0.568,1.315,0.568c0.57,0,1.012-0.186,1.324-0.557s0.469-1.037,0.469-1.998
		c0-0.809-0.163-1.399-0.489-1.772s-0.769-0.56-1.327-0.56c-0.535,0-0.965,0.189-1.289,0.568S187.206,36.854,187.206,37.729z"/>
	<path class="st4" d="M194.917,42.006v-8.59h4.424c0.82,0,1.447,0.07,1.881,0.211s0.783,0.401,1.049,0.782s0.398,0.845,0.398,1.392
		c0,0.477-0.102,0.888-0.305,1.233c-0.204,0.346-0.483,0.626-0.838,0.841c-0.227,0.137-0.538,0.25-0.932,0.34
		c0.316,0.105,0.546,0.211,0.691,0.317c0.097,0.07,0.239,0.221,0.424,0.452c0.186,0.23,0.31,0.408,0.372,0.533l1.285,2.489h-2.999
		l-1.419-2.625c-0.18-0.34-0.34-0.561-0.48-0.662c-0.191-0.133-0.408-0.199-0.65-0.199h-0.234v3.486H194.917z M197.583,36.896h1.119
		c0.121,0,0.355-0.039,0.703-0.117c0.176-0.035,0.319-0.125,0.431-0.27s0.167-0.311,0.167-0.498c0-0.277-0.088-0.49-0.264-0.639
		s-0.506-0.223-0.99-0.223h-1.166V36.896z"/>
	<path class="st4" d="M203.507,33.416h8.068v2.121h-2.707v6.469h-2.654v-6.469h-2.707V33.416z"/>
</g>
<g>
	<path class="st4" d="M289.829,120.616v-8.59h4.424c0.82,0,1.447,0.07,1.881,0.211s0.783,0.401,1.049,0.782s0.398,0.845,0.398,1.392
		c0,0.477-0.102,0.888-0.305,1.233c-0.204,0.346-0.483,0.626-0.838,0.841c-0.227,0.137-0.538,0.25-0.932,0.34
		c0.316,0.105,0.546,0.211,0.691,0.316c0.097,0.07,0.239,0.221,0.424,0.452c0.186,0.23,0.31,0.408,0.372,0.533l1.285,2.489h-2.999
		l-1.419-2.625c-0.18-0.34-0.34-0.561-0.48-0.662c-0.191-0.133-0.408-0.199-0.65-0.199h-0.234v3.486H289.829z M292.495,115.507
		h1.119c0.121,0,0.355-0.039,0.703-0.117c0.176-0.035,0.319-0.125,0.431-0.27s0.167-0.311,0.167-0.498
		c0-0.277-0.088-0.49-0.264-0.639s-0.506-0.223-0.99-0.223h-1.166V115.507z"/>
	<path class="st4" d="M299.122,112.026h7.113v1.834h-4.453v1.365h4.131v1.752h-4.131v1.693h4.582v1.945h-7.242V112.026z"/>
	<path class="st4" d="M307.782,112.026h4.412c0.961,0,1.681,0.229,2.159,0.686s0.718,1.107,0.718,1.951
		c0,0.867-0.261,1.545-0.782,2.033s-1.317,0.732-2.388,0.732h-1.453v3.188h-2.666V112.026z M310.448,115.688h0.65
		c0.512,0,0.871-0.089,1.078-0.267s0.311-0.405,0.311-0.683c0-0.27-0.09-0.498-0.27-0.686s-0.518-0.281-1.014-0.281h-0.756V115.688z
		"/>
	<path class="st4" d="M316.125,116.327c0-1.402,0.391-2.494,1.172-3.275s1.869-1.172,3.264-1.172c1.43,0,2.531,0.384,3.305,1.151
		s1.16,1.843,1.16,3.226c0,1.004-0.169,1.827-0.507,2.47s-0.826,1.143-1.465,1.5s-1.435,0.536-2.388,0.536
		c-0.969,0-1.771-0.154-2.405-0.463s-1.149-0.797-1.544-1.465S316.125,117.331,316.125,116.327z M318.78,116.339
		c0,0.867,0.161,1.49,0.483,1.869s0.761,0.568,1.315,0.568c0.57,0,1.012-0.186,1.324-0.557s0.469-1.037,0.469-1.998
		c0-0.809-0.163-1.399-0.489-1.772s-0.769-0.56-1.327-0.56c-0.535,0-0.965,0.189-1.289,0.568S318.78,115.464,318.78,116.339z"/>
	<path class="st4" d="M326.491,120.616v-8.59h4.424c0.82,0,1.447,0.07,1.881,0.211s0.783,0.401,1.049,0.782s0.398,0.845,0.398,1.392
		c0,0.477-0.102,0.888-0.305,1.233c-0.204,0.346-0.483,0.626-0.838,0.841c-0.227,0.137-0.538,0.25-0.932,0.34
		c0.316,0.105,0.546,0.211,0.691,0.316c0.097,0.07,0.239,0.221,0.424,0.452c0.186,0.23,0.31,0.408,0.372,0.533l1.285,2.489h-2.999
		l-1.419-2.625c-0.18-0.34-0.34-0.561-0.48-0.662c-0.191-0.133-0.408-0.199-0.65-0.199h-0.234v3.486H326.491z M329.157,115.507
		h1.119c0.121,0,0.355-0.039,0.703-0.117c0.176-0.035,0.319-0.125,0.431-0.27s0.167-0.311,0.167-0.498
		c0-0.277-0.088-0.49-0.264-0.639s-0.506-0.223-0.99-0.223h-1.166V115.507z"/>
	<path class="st4" d="M335.081,112.026h8.069v2.121h-2.707v6.469h-2.655v-6.469h-2.707V112.026z"/>
	<path class="st4" d="M343.888,117.774l2.525-0.158c0.055,0.41,0.166,0.723,0.334,0.938c0.273,0.348,0.664,0.521,1.172,0.521
		c0.379,0,0.671-0.089,0.876-0.267s0.308-0.384,0.308-0.618c0-0.223-0.098-0.422-0.293-0.598s-0.648-0.342-1.359-0.498
		c-1.164-0.262-1.994-0.609-2.49-1.043c-0.5-0.434-0.75-0.986-0.75-1.658c0-0.441,0.128-0.858,0.384-1.251s0.641-0.701,1.154-0.926
		s1.218-0.337,2.112-0.337c1.098,0,1.935,0.204,2.511,0.612s0.919,1.058,1.028,1.948l-2.502,0.146
		c-0.066-0.387-0.206-0.668-0.419-0.844s-0.507-0.264-0.882-0.264c-0.309,0-0.541,0.065-0.697,0.196s-0.234,0.29-0.234,0.478
		c0,0.137,0.064,0.26,0.193,0.369c0.125,0.113,0.422,0.219,0.891,0.316c1.16,0.25,1.991,0.503,2.493,0.759s0.867,0.573,1.096,0.952
		s0.343,0.803,0.343,1.271c0,0.551-0.152,1.059-0.457,1.523s-0.73,0.817-1.277,1.058s-1.236,0.36-2.068,0.36
		c-1.461,0-2.473-0.281-3.035-0.844S343.962,118.642,343.888,117.774z"/>
	<path class="st4" d="M278.239,135.017v-8.59h4.424c0.82,0,1.447,0.07,1.881,0.211s0.783,0.401,1.049,0.782s0.398,0.845,0.398,1.392
		c0,0.477-0.102,0.888-0.305,1.233c-0.204,0.346-0.483,0.626-0.838,0.841c-0.227,0.137-0.538,0.25-0.932,0.34
		c0.316,0.105,0.546,0.211,0.691,0.316c0.097,0.07,0.239,0.221,0.424,0.452c0.186,0.23,0.31,0.408,0.372,0.533l1.285,2.489h-2.999
		l-1.419-2.625c-0.18-0.34-0.34-0.561-0.48-0.662c-0.191-0.133-0.408-0.199-0.65-0.199h-0.234v3.486H278.239z M280.905,129.907
		h1.119c0.121,0,0.355-0.039,0.703-0.117c0.176-0.035,0.319-0.125,0.431-0.27s0.167-0.311,0.167-0.498
		c0-0.277-0.088-0.49-0.264-0.639s-0.506-0.223-0.99-0.223h-1.166V129.907z"/>
	<path class="st4" d="M287.532,126.427h7.113v1.834h-4.453v1.365h4.131v1.752h-4.131v1.693h4.582v1.945h-7.242V126.427z"/>
	<path class="st4" d="M296.192,126.427h4.412c0.961,0,1.681,0.229,2.159,0.686s0.718,1.107,0.718,1.951
		c0,0.867-0.261,1.545-0.782,2.033s-1.317,0.732-2.388,0.732h-1.453v3.188h-2.666V126.427z M298.858,130.089h0.65
		c0.512,0,0.871-0.089,1.078-0.267s0.311-0.405,0.311-0.683c0-0.27-0.09-0.498-0.27-0.686s-0.518-0.281-1.014-0.281h-0.756V130.089z
		"/>
	<path class="st4" d="M304.536,130.728c0-1.402,0.391-2.494,1.172-3.275s1.869-1.172,3.264-1.172c1.43,0,2.531,0.384,3.305,1.151
		s1.16,1.843,1.16,3.226c0,1.004-0.169,1.827-0.507,2.47s-0.826,1.143-1.465,1.5s-1.435,0.536-2.388,0.536
		c-0.969,0-1.771-0.154-2.405-0.463s-1.149-0.797-1.544-1.465S304.536,131.731,304.536,130.728z M307.19,130.739
		c0,0.867,0.161,1.49,0.483,1.869s0.761,0.568,1.315,0.568c0.57,0,1.012-0.186,1.324-0.557s0.469-1.037,0.469-1.998
		c0-0.809-0.163-1.399-0.489-1.772s-0.769-0.56-1.327-0.56c-0.535,0-0.965,0.189-1.289,0.568S307.19,129.864,307.19,130.739z"/>
	<path class="st4" d="M314.403,132.175l2.525-0.158c0.055,0.41,0.166,0.723,0.334,0.938c0.273,0.348,0.664,0.521,1.172,0.521
		c0.379,0,0.671-0.089,0.876-0.267s0.308-0.384,0.308-0.618c0-0.223-0.098-0.422-0.293-0.598s-0.648-0.342-1.359-0.498
		c-1.164-0.262-1.994-0.609-2.49-1.043c-0.5-0.434-0.75-0.986-0.75-1.658c0-0.441,0.128-0.858,0.384-1.251s0.641-0.701,1.154-0.926
		s1.218-0.337,2.112-0.337c1.098,0,1.935,0.204,2.511,0.612s0.919,1.058,1.028,1.948l-2.502,0.146
		c-0.066-0.387-0.206-0.668-0.419-0.844s-0.507-0.264-0.882-0.264c-0.309,0-0.541,0.065-0.697,0.196s-0.234,0.29-0.234,0.478
		c0,0.137,0.064,0.26,0.193,0.369c0.125,0.113,0.422,0.219,0.891,0.316c1.16,0.25,1.991,0.503,2.493,0.759s0.867,0.573,1.096,0.952
		s0.343,0.803,0.343,1.271c0,0.551-0.152,1.059-0.457,1.523s-0.73,0.817-1.277,1.058s-1.236,0.36-2.068,0.36
		c-1.461,0-2.473-0.281-3.035-0.844S314.477,133.042,314.403,132.175z"/>
	<path class="st4" d="M323.637,126.427h2.66v8.59h-2.66V126.427z"/>
	<path class="st4" d="M327.598,126.427h8.068v2.121h-2.707v6.469h-2.654v-6.469h-2.707V126.427z"/>
	<path class="st4" d="M336.124,130.728c0-1.402,0.391-2.494,1.172-3.275c0.782-0.781,1.87-1.172,3.264-1.172
		c1.43,0,2.531,0.384,3.305,1.151s1.16,1.843,1.16,3.226c0,1.004-0.169,1.827-0.507,2.47s-0.826,1.143-1.465,1.5
		s-1.435,0.536-2.388,0.536c-0.969,0-1.771-0.154-2.405-0.463c-0.635-0.309-1.15-0.797-1.544-1.465S336.124,131.731,336.124,130.728
		z M338.778,130.739c0,0.867,0.161,1.49,0.483,1.869s0.761,0.568,1.315,0.568c0.57,0,1.012-0.186,1.324-0.557
		s0.469-1.037,0.469-1.998c0-0.809-0.163-1.399-0.489-1.772s-0.769-0.56-1.327-0.56c-0.535,0-0.965,0.189-1.289,0.568
		S338.778,129.864,338.778,130.739z"/>
	<path class="st4" d="M346.489,135.017v-8.59h4.424c0.82,0,1.447,0.07,1.881,0.211s0.783,0.401,1.049,0.782s0.398,0.845,0.398,1.392
		c0,0.477-0.102,0.888-0.305,1.233c-0.204,0.346-0.483,0.626-0.839,0.841c-0.227,0.137-0.537,0.25-0.932,0.34
		c0.315,0.105,0.546,0.211,0.69,0.316c0.098,0.07,0.239,0.221,0.425,0.452c0.186,0.23,0.31,0.408,0.372,0.533l1.285,2.489h-2.999
		l-1.419-2.625c-0.18-0.34-0.34-0.561-0.48-0.662c-0.191-0.133-0.408-0.199-0.65-0.199h-0.234v3.486H346.489z M349.155,129.907
		h1.119c0.121,0,0.355-0.039,0.703-0.117c0.176-0.035,0.319-0.125,0.431-0.27s0.167-0.311,0.167-0.498
		c0-0.277-0.088-0.49-0.264-0.639s-0.506-0.223-0.99-0.223h-1.166V129.907z"/>
	<path class="st4" d="M354.405,126.427h2.948l1.73,2.897l1.734-2.897h2.933l-3.34,4.992v3.598h-2.66v-3.598L354.405,126.427z"/>
</g>
<g>
	<path class="st4" d="M415.022,26.216h3.943c0.777,0,1.405,0.105,1.884,0.316s0.874,0.514,1.187,0.908s0.539,0.854,0.68,1.377
		s0.211,1.078,0.211,1.664c0,0.918-0.104,1.63-0.313,2.136s-0.499,0.93-0.87,1.271s-0.77,0.569-1.195,0.683
		c-0.582,0.156-1.109,0.234-1.582,0.234h-3.943V26.216z M417.677,28.161v4.693h0.65c0.555,0,0.949-0.062,1.184-0.185
		s0.418-0.338,0.551-0.645s0.199-0.804,0.199-1.491c0-0.91-0.148-1.533-0.445-1.869s-0.789-0.504-1.477-0.504H417.677z"/>
	<path class="st4" d="M429.087,33.388h-3.014l-0.419,1.418h-2.71l3.229-8.59h2.896l3.228,8.59h-2.779L429.087,33.388z
		 M428.536,31.53l-0.948-3.088l-0.938,3.088H428.536z"/>
	<path class="st4" d="M432.677,31.964l2.525-0.158c0.055,0.41,0.166,0.723,0.334,0.938c0.273,0.348,0.664,0.521,1.172,0.521
		c0.379,0,0.671-0.089,0.876-0.267s0.308-0.384,0.308-0.618c0-0.223-0.098-0.422-0.293-0.598s-0.648-0.342-1.359-0.498
		c-1.164-0.262-1.994-0.609-2.49-1.043c-0.5-0.434-0.75-0.986-0.75-1.658c0-0.441,0.128-0.858,0.384-1.251s0.641-0.701,1.154-0.926
		s1.218-0.337,2.112-0.337c1.098,0,1.935,0.204,2.511,0.612s0.919,1.058,1.028,1.948l-2.502,0.146
		c-0.066-0.387-0.206-0.668-0.419-0.844s-0.507-0.264-0.882-0.264c-0.309,0-0.541,0.065-0.697,0.196s-0.234,0.29-0.234,0.478
		c0,0.137,0.064,0.26,0.193,0.369c0.125,0.113,0.422,0.219,0.891,0.316c1.16,0.25,1.991,0.503,2.493,0.759s0.867,0.573,1.096,0.952
		s0.343,0.803,0.343,1.271c0,0.551-0.152,1.059-0.457,1.523s-0.73,0.817-1.277,1.058s-1.236,0.36-2.068,0.36
		c-1.461,0-2.473-0.281-3.035-0.844S432.751,32.831,432.677,31.964z"/>
	<path class="st4" d="M441.817,26.216h2.654v3.006h2.9v-3.006h2.666v8.59h-2.666v-3.475h-2.9v3.475h-2.654V26.216z"/>
	<path class="st4" d="M451.808,26.216h4.969c0.828,0,1.464,0.205,1.907,0.615s0.665,0.918,0.665,1.523
		c0,0.508-0.158,0.943-0.475,1.307c-0.211,0.242-0.52,0.434-0.926,0.574c0.617,0.148,1.071,0.403,1.362,0.765
		s0.437,0.815,0.437,1.362c0,0.445-0.104,0.846-0.311,1.201s-0.49,0.637-0.85,0.844c-0.223,0.129-0.559,0.223-1.008,0.281
		c-0.598,0.078-0.994,0.117-1.189,0.117h-4.582V26.216z M454.485,29.585h1.154c0.414,0,0.702-0.071,0.864-0.214
		s0.243-0.349,0.243-0.618c0-0.25-0.081-0.445-0.243-0.586s-0.444-0.211-0.847-0.211h-1.172V29.585z M454.485,32.96h1.354
		c0.457,0,0.779-0.081,0.967-0.243s0.281-0.38,0.281-0.653c0-0.254-0.093-0.458-0.278-0.612s-0.511-0.231-0.976-0.231h-1.348V32.96z
		"/>
	<path class="st4" d="M460.802,30.517c0-1.402,0.391-2.494,1.172-3.275s1.869-1.172,3.264-1.172c1.43,0,2.531,0.384,3.305,1.151
		s1.16,1.843,1.16,3.226c0,1.004-0.169,1.827-0.507,2.47s-0.826,1.143-1.465,1.5s-1.435,0.536-2.388,0.536
		c-0.969,0-1.771-0.154-2.405-0.463s-1.149-0.797-1.544-1.465S460.802,31.521,460.802,30.517z M463.456,30.528
		c0,0.867,0.161,1.49,0.483,1.869s0.761,0.568,1.315,0.568c0.57,0,1.012-0.186,1.324-0.557s0.469-1.037,0.469-1.998
		c0-0.809-0.163-1.399-0.489-1.772s-0.769-0.56-1.327-0.56c-0.535,0-0.965,0.189-1.289,0.568S463.456,29.653,463.456,30.528z"/>
	<path class="st4" d="M476.003,33.388h-3.014l-0.419,1.418h-2.71l3.229-8.59h2.896l3.228,8.59h-2.779L476.003,33.388z
		 M475.452,31.53l-0.948-3.088l-0.938,3.088H475.452z"/>
	<path class="st4" d="M480.091,34.806v-8.59h4.424c0.82,0,1.447,0.07,1.881,0.211s0.783,0.401,1.049,0.782s0.398,0.845,0.398,1.392
		c0,0.477-0.102,0.888-0.305,1.233s-0.483,0.626-0.839,0.841c-0.227,0.137-0.537,0.25-0.932,0.34
		c0.315,0.105,0.546,0.211,0.69,0.317c0.098,0.07,0.239,0.221,0.425,0.452c0.186,0.23,0.31,0.408,0.372,0.533l1.285,2.489h-2.999
		l-1.419-2.625c-0.18-0.34-0.34-0.561-0.48-0.662c-0.191-0.133-0.408-0.199-0.65-0.199h-0.234v3.486H480.091z M482.757,29.696h1.119
		c0.121,0,0.355-0.039,0.703-0.117c0.176-0.035,0.319-0.125,0.431-0.27s0.167-0.311,0.167-0.498c0-0.277-0.088-0.49-0.264-0.639
		s-0.506-0.223-0.99-0.223h-1.166V29.696z"/>
	<path class="st4" d="M489.425,26.216h3.943c0.777,0,1.405,0.105,1.884,0.316s0.874,0.514,1.187,0.908s0.539,0.854,0.68,1.377
		s0.211,1.078,0.211,1.664c0,0.918-0.104,1.63-0.313,2.136s-0.499,0.93-0.87,1.271s-0.77,0.569-1.195,0.683
		c-0.582,0.156-1.109,0.234-1.582,0.234h-3.943V26.216z M492.079,28.161v4.693h0.65c0.555,0,0.949-0.062,1.184-0.185
		s0.418-0.338,0.551-0.645s0.199-0.804,0.199-1.491c0-0.91-0.148-1.533-0.445-1.869s-0.789-0.504-1.477-0.504H492.079z"/>
</g>
<g>
	<path class="st4" d="M547.309,117.101l2.326,0.703c-0.156,0.652-0.402,1.197-0.738,1.635s-0.753,0.768-1.251,0.99
		s-1.132,0.334-1.901,0.334c-0.934,0-1.696-0.136-2.288-0.407c-0.592-0.271-1.103-0.748-1.532-1.432
		c-0.43-0.683-0.645-1.558-0.645-2.623c0-1.421,0.378-2.513,1.134-3.276c0.756-0.763,1.825-1.145,3.208-1.145
		c1.082,0,1.933,0.219,2.552,0.656s1.079,1.109,1.38,2.016l-2.344,0.521c-0.082-0.262-0.168-0.453-0.258-0.574
		c-0.148-0.203-0.33-0.359-0.545-0.469s-0.455-0.164-0.721-0.164c-0.602,0-1.063,0.242-1.383,0.726
		c-0.242,0.359-0.363,0.923-0.363,1.691c0,0.952,0.145,1.604,0.434,1.958c0.289,0.353,0.695,0.529,1.219,0.529
		c0.508,0,0.892-0.143,1.151-0.428S547.191,117.644,547.309,117.101z"/>
	<path class="st4" d="M550.59,116.327c0-1.402,0.391-2.494,1.172-3.275s1.869-1.172,3.264-1.172c1.43,0,2.531,0.384,3.305,1.151
		s1.16,1.843,1.16,3.226c0,1.004-0.169,1.827-0.507,2.47s-0.826,1.143-1.465,1.5s-1.435,0.536-2.388,0.536
		c-0.969,0-1.771-0.154-2.405-0.463s-1.149-0.797-1.544-1.465S550.59,117.331,550.59,116.327z M553.244,116.339
		c0,0.867,0.161,1.49,0.483,1.869s0.761,0.568,1.315,0.568c0.57,0,1.012-0.186,1.324-0.557s0.469-1.037,0.469-1.998
		c0-0.809-0.163-1.399-0.489-1.772s-0.769-0.56-1.327-0.56c-0.535,0-0.965,0.189-1.289,0.568S553.244,115.464,553.244,116.339z"/>
	<path class="st4" d="M560.92,112.026h2.654v6.475h4.143v2.115h-6.797V112.026z"/>
	<path class="st4" d="M568.924,112.026h2.654v6.475h4.143v2.115h-6.797V112.026z"/>
	<path class="st4" d="M582.209,119.198h-3.014l-0.419,1.418h-2.71l3.229-8.59h2.896l3.228,8.59h-2.779L582.209,119.198z
		 M581.658,117.341l-0.948-3.088l-0.938,3.088H581.658z"/>
	<path class="st4" d="M586.268,112.026h4.969c0.828,0,1.464,0.205,1.907,0.615s0.665,0.918,0.665,1.523
		c0,0.508-0.158,0.943-0.475,1.307c-0.211,0.242-0.52,0.434-0.926,0.574c0.617,0.148,1.071,0.403,1.362,0.765
		s0.437,0.815,0.437,1.362c0,0.445-0.104,0.846-0.311,1.201s-0.49,0.637-0.85,0.844c-0.223,0.129-0.559,0.223-1.008,0.281
		c-0.598,0.078-0.994,0.117-1.189,0.117h-4.582V112.026z M588.945,115.396h1.154c0.414,0,0.702-0.071,0.864-0.214
		s0.243-0.349,0.243-0.618c0-0.25-0.081-0.445-0.243-0.586s-0.444-0.211-0.847-0.211h-1.172V115.396z M588.945,118.771h1.354
		c0.457,0,0.779-0.081,0.967-0.243s0.281-0.38,0.281-0.653c0-0.254-0.093-0.458-0.278-0.612s-0.511-0.231-0.976-0.231h-1.348
		V118.771z"/>
	<path class="st4" d="M595.262,116.327c0-1.402,0.391-2.494,1.172-3.275s1.869-1.172,3.264-1.172c1.43,0,2.531,0.384,3.305,1.151
		s1.16,1.843,1.16,3.226c0,1.004-0.169,1.827-0.507,2.47s-0.826,1.143-1.465,1.5s-1.435,0.536-2.388,0.536
		c-0.969,0-1.771-0.154-2.405-0.463s-1.149-0.797-1.544-1.465S595.262,117.331,595.262,116.327z M597.916,116.339
		c0,0.867,0.161,1.49,0.483,1.869s0.761,0.568,1.315,0.568c0.57,0,1.012-0.186,1.324-0.557s0.469-1.037,0.469-1.998
		c0-0.809-0.163-1.399-0.489-1.772s-0.769-0.56-1.327-0.56c-0.535,0-0.965,0.189-1.289,0.568S597.916,115.464,597.916,116.339z"/>
	<path class="st4" d="M605.627,120.616v-8.59h4.424c0.82,0,1.447,0.07,1.881,0.211s0.783,0.401,1.049,0.782s0.398,0.845,0.398,1.392
		c0,0.477-0.102,0.888-0.305,1.233s-0.483,0.626-0.839,0.841c-0.227,0.137-0.537,0.25-0.932,0.34
		c0.315,0.105,0.546,0.211,0.69,0.316c0.098,0.07,0.239,0.221,0.425,0.452c0.186,0.23,0.31,0.408,0.372,0.533l1.285,2.489h-2.999
		l-1.419-2.625c-0.18-0.34-0.34-0.561-0.48-0.662c-0.191-0.133-0.408-0.199-0.65-0.199h-0.234v3.486H605.627z M608.293,115.507
		h1.119c0.121,0,0.355-0.039,0.703-0.117c0.176-0.035,0.319-0.125,0.431-0.27s0.167-0.311,0.167-0.498
		c0-0.277-0.088-0.49-0.264-0.639s-0.506-0.223-0.99-0.223h-1.166V115.507z"/>
	<path class="st4" d="M620.207,119.198h-3.014l-0.419,1.418h-2.71l3.229-8.59h2.896l3.228,8.59h-2.779L620.207,119.198z
		 M619.656,117.341l-0.948-3.088l-0.938,3.088H619.656z"/>
	<path class="st4" d="M622.83,112.026h8.068v2.121h-2.707v6.469h-2.654v-6.469h-2.707V112.026z"/>
	<path class="st4" d="M632.205,112.026h2.66v8.59h-2.66V112.026z"/>
	<path class="st4" d="M635.926,112.026h2.774l1.934,6.182l1.908-6.182h2.694l-3.189,8.59h-2.877L635.926,112.026z"/>
	<path class="st4" d="M646.098,112.026h7.113v1.834h-4.453v1.365h4.131v1.752h-4.131v1.693h4.582v1.945h-7.242V112.026z"/>
	<path class="st4" d="M547.953,126.427h7.113v1.834h-4.453v1.365h4.131v1.752h-4.131v1.693h4.582v1.945h-7.242V126.427z"/>
	<path class="st4" d="M556.643,126.427h2.479l3.234,4.752v-4.752h2.502v8.59h-2.502l-3.217-4.717v4.717h-2.496V126.427z"/>
	<path class="st4" d="M565.777,126.427h2.774l1.934,6.182l1.908-6.182h2.694l-3.189,8.59h-2.877L565.777,126.427z"/>
	<path class="st4" d="M576.061,126.427h2.66v8.59h-2.66V126.427z"/>
	<path class="st4" d="M580.66,135.017v-8.59h4.424c0.82,0,1.447,0.07,1.881,0.211s0.783,0.401,1.049,0.782s0.398,0.845,0.398,1.392
		c0,0.477-0.102,0.888-0.305,1.233s-0.483,0.626-0.839,0.841c-0.227,0.137-0.537,0.25-0.932,0.34
		c0.315,0.105,0.546,0.211,0.69,0.316c0.098,0.07,0.239,0.221,0.425,0.452c0.186,0.23,0.31,0.408,0.372,0.533l1.285,2.489h-2.999
		l-1.419-2.625c-0.18-0.34-0.34-0.561-0.48-0.662c-0.191-0.133-0.408-0.199-0.65-0.199h-0.234v3.486H580.66z M583.326,129.907h1.119
		c0.121,0,0.355-0.039,0.703-0.117c0.176-0.035,0.319-0.125,0.431-0.27s0.167-0.311,0.167-0.498c0-0.277-0.088-0.49-0.264-0.639
		s-0.506-0.223-0.99-0.223h-1.166V129.907z"/>
	<path class="st4" d="M589.42,130.728c0-1.402,0.391-2.494,1.172-3.275s1.869-1.172,3.264-1.172c1.43,0,2.531,0.384,3.305,1.151
		s1.16,1.843,1.16,3.226c0,1.004-0.169,1.827-0.507,2.47s-0.826,1.143-1.465,1.5s-1.435,0.536-2.388,0.536
		c-0.969,0-1.771-0.154-2.405-0.463s-1.149-0.797-1.544-1.465S589.42,131.731,589.42,130.728z M592.074,130.739
		c0,0.867,0.161,1.49,0.483,1.869s0.761,0.568,1.315,0.568c0.57,0,1.012-0.186,1.324-0.557s0.469-1.037,0.469-1.998
		c0-0.809-0.163-1.399-0.489-1.772s-0.769-0.56-1.327-0.56c-0.535,0-0.965,0.189-1.289,0.568S592.074,129.864,592.074,130.739z"/>
	<path class="st4" d="M599.768,126.427h2.479l3.234,4.752v-4.752h2.502v8.59h-2.502l-3.217-4.717v4.717h-2.496V126.427z"/>
	<path class="st4" d="M609.717,126.427h3.49l1.347,5.227l1.337-5.227h3.488v8.59h-2.174v-6.551l-1.675,6.551h-1.968l-1.672-6.551
		v6.551h-2.174V126.427z"/>
	<path class="st4" d="M621.066,126.427h7.113v1.834h-4.453v1.365h4.131v1.752h-4.131v1.693h4.582v1.945h-7.242V126.427z"/>
	<path class="st4" d="M629.756,126.427h2.479l3.234,4.752v-4.752h2.502v8.59h-2.502l-3.217-4.717v4.717h-2.496V126.427z"/>
	<path class="st4" d="M639.131,126.427h8.068v2.121h-2.707v6.469h-2.654v-6.469h-2.707V126.427z"/>
</g>
<g>
</g>
<g>
</g>
<g>
</g>
<g>
</g>
<g>
</g>
<g>
</g>
</svg>
