<?xml version="1.0" encoding="utf-8"?>
<!-- Generator: Adobe Illustrator 21.0.2, SVG Export Plug-In . SVG Version: 6.00 Build 0)  -->
<svg version="1.1" id="レイヤー_1" xmlns="http://www.w3.org/2000/svg" xmlns:xlink="http://www.w3.org/1999/xlink" x="0px"
	 y="0px" viewBox="0 0 731.34 240" style="enable-background:new 0 0 731.34 240;"
	 xml:space="preserve">
<style type="text/css">
	.st0{fill:#7F7F7F;}
	.st1{fill:none;stroke:#7F7F7F;stroke-width:2.16;stroke-linejoin:round;stroke-miterlimit:10;}
	.st2{fill:#595959;}
	.st3{fill:#31859C;}
	.st4{fill:#00B050;}
	.st5{fill:#C00000;}
</style>
<path class="st0" d="M709.464,114.79l7.876-3.938l-7.876-3.938V114.79z M46.823,112.165h663.967v-2.625H46.823V112.165z"/>
<line class="st1" x1="46.823" y1="96.851" x2="46.823" y2="124.453"/>
<line class="st1" x1="449.359" y1="96.851" x2="449.359" y2="124.453"/>
<line class="st1" x1="648.877" y1="96.851" x2="648.877" y2="124.453"/>
<path class="st1" d="M46.823,83.725c0-11.352,14.305-20.564,31.953-20.564h137.363c17.647,0,31.953-9.213,31.953-20.564
	c0,11.352,14.305,20.564,31.953,20.564h137.363c17.647,0,31.953,9.213,31.953,20.564"/>
<path class="st1" d="M449.359,83.725c0-11.352,14.305-20.564,31.953-20.564h35.854c17.647,0,31.953-9.213,31.953-20.564
	c0,11.352,14.305,20.564,31.953,20.564h35.854c17.647,0,31.953,9.213,31.953,20.564"/>
<g>
	<path class="st2" d="M157.011,23.664c0-2.22,0.618-3.949,1.855-5.186c1.237-1.237,2.959-1.855,5.167-1.855
		c2.264,0,4.008,0.608,5.232,1.823c1.225,1.216,1.837,2.918,1.837,5.107c0,1.59-0.268,2.893-0.803,3.91
		c-0.535,1.018-1.308,1.81-2.319,2.375c-1.011,0.566-2.271,0.849-3.78,0.849c-1.534,0-2.803-0.244-3.809-0.733
		c-1.005-0.488-1.82-1.262-2.444-2.319C157.323,26.577,157.011,25.254,157.011,23.664z M161.213,23.683
		c0,1.373,0.255,2.36,0.766,2.959c0.51,0.6,1.204,0.9,2.083,0.9c0.903,0,1.602-0.293,2.097-0.881
		c0.495-0.587,0.742-1.642,0.742-3.164c0-1.28-0.258-2.216-0.775-2.807c-0.516-0.59-1.217-0.886-2.101-0.886
		c-0.848,0-1.528,0.3-2.041,0.9C161.47,21.305,161.213,22.297,161.213,23.683z"/>
	<path class="st2" d="M171.348,16.854h3.813v4.713c0.377-0.396,0.806-0.692,1.285-0.891c0.479-0.198,1.009-0.297,1.591-0.297
		c1.2,0,2.192,0.432,2.978,1.294c0.785,0.863,1.178,2.102,1.178,3.716c0,1.076-0.18,2.024-0.538,2.844
		c-0.359,0.819-0.855,1.432-1.489,1.837c-0.634,0.405-1.337,0.607-2.11,0.607c-0.662,0-1.268-0.143-1.818-0.427
		c-0.415-0.223-0.866-0.64-1.354-1.252v1.457h-3.535V16.854z M175.134,25.501c0,0.848,0.159,1.461,0.478,1.842
		c0.318,0.38,0.722,0.57,1.21,0.57c0.451,0,0.831-0.187,1.136-0.562c0.307-0.374,0.459-1.003,0.459-1.888
		c0-0.779-0.15-1.351-0.45-1.716c-0.3-0.365-0.664-0.547-1.09-0.547c-0.514,0-0.932,0.19-1.257,0.57
		C175.296,24.151,175.134,24.728,175.134,25.501z"/>
	<path class="st2" d="M181.72,27.718l3.748-0.353c0.154,0.445,0.371,0.764,0.649,0.956c0.278,0.192,0.649,0.288,1.113,0.288
		c0.507,0,0.9-0.108,1.178-0.324c0.216-0.161,0.325-0.361,0.325-0.602c0-0.271-0.143-0.482-0.427-0.63
		c-0.204-0.105-0.746-0.235-1.624-0.389c-1.312-0.229-2.222-0.44-2.732-0.635c-0.51-0.194-0.94-0.523-1.289-0.987
		c-0.35-0.463-0.524-0.992-0.524-1.585c0-0.649,0.188-1.208,0.566-1.678c0.377-0.47,0.896-0.82,1.559-1.052
		c0.662-0.231,1.549-0.348,2.663-0.348c1.175,0,2.042,0.09,2.603,0.269c0.56,0.18,1.026,0.458,1.4,0.835
		c0.375,0.377,0.685,0.888,0.933,1.531l-3.581,0.353c-0.093-0.315-0.248-0.547-0.464-0.696c-0.297-0.198-0.656-0.297-1.076-0.297
		c-0.427,0-0.737,0.076-0.933,0.227c-0.194,0.151-0.292,0.335-0.292,0.551c0,0.241,0.124,0.423,0.371,0.546
		c0.247,0.124,0.785,0.234,1.614,0.333c1.255,0.142,2.189,0.34,2.802,0.593s1.081,0.615,1.405,1.084
		c0.325,0.47,0.487,0.986,0.487,1.548c0,0.568-0.172,1.122-0.515,1.659c-0.344,0.538-0.885,0.965-1.624,1.284
		c-0.739,0.318-1.746,0.477-3.02,0.477c-1.8,0-3.082-0.256-3.846-0.77C182.427,29.395,181.936,28.665,181.72,27.718z"/>
	<path class="st2" d="M203.374,26.466h-7.57c0.068,0.606,0.232,1.058,0.492,1.354c0.365,0.427,0.841,0.64,1.429,0.64
		c0.371,0,0.724-0.093,1.058-0.278c0.204-0.117,0.423-0.325,0.659-0.622l3.72,0.343c-0.569,0.99-1.256,1.699-2.06,2.129
		c-0.804,0.43-1.958,0.645-3.46,0.645c-1.305,0-2.332-0.184-3.08-0.552c-0.749-0.368-1.368-0.953-1.86-1.754
		c-0.491-0.801-0.737-1.742-0.737-2.825c0-1.54,0.493-2.786,1.479-3.739c0.987-0.952,2.349-1.429,4.087-1.429
		c1.41,0,2.523,0.213,3.34,0.64s1.438,1.045,1.865,1.855c0.427,0.811,0.64,1.865,0.64,3.164V26.466z M199.533,24.657
		c-0.074-0.729-0.271-1.252-0.589-1.568c-0.319-0.315-0.738-0.473-1.257-0.473c-0.6,0-1.08,0.238-1.438,0.714
		c-0.229,0.297-0.375,0.739-0.436,1.327H199.533z"/>
	<path class="st2" d="M203.531,20.603h3.535v1.614c0.34-0.699,0.691-1.18,1.053-1.442c0.362-0.263,0.809-0.395,1.341-0.395
		c0.557,0,1.166,0.173,1.828,0.52l-1.169,2.69c-0.445-0.186-0.798-0.278-1.058-0.278c-0.495,0-0.878,0.204-1.15,0.612
		c-0.39,0.575-0.584,1.651-0.584,3.229v3.303h-3.794V20.603z"/>
	<path class="st2" d="M209.427,20.603h3.929l1.912,6.244l1.983-6.244h3.811l-4.188,9.853h-3.349L209.427,20.603z"/>
	<path class="st2" d="M224.03,23.794l-3.609-0.38c0.136-0.631,0.333-1.127,0.589-1.489c0.256-0.362,0.626-0.676,1.108-0.942
		c0.346-0.191,0.822-0.34,1.429-0.445c0.606-0.105,1.262-0.158,1.967-0.158c1.132,0,2.041,0.063,2.728,0.19
		c0.687,0.126,1.258,0.391,1.716,0.793c0.321,0.278,0.575,0.673,0.761,1.183c0.186,0.511,0.278,0.998,0.278,1.461v4.351
		c0,0.464,0.029,0.827,0.088,1.09c0.059,0.263,0.187,0.599,0.385,1.007h-3.544c-0.143-0.253-0.235-0.447-0.278-0.58
		c-0.043-0.133-0.087-0.341-0.13-0.626c-0.495,0.477-0.987,0.816-1.475,1.021c-0.668,0.272-1.444,0.408-2.329,0.408
		c-1.175,0-2.067-0.272-2.677-0.816c-0.609-0.544-0.914-1.215-0.914-2.013c0-0.748,0.219-1.364,0.659-1.846
		c0.439-0.482,1.249-0.841,2.431-1.076c1.416-0.284,2.334-0.484,2.755-0.599c0.42-0.114,0.866-0.264,1.336-0.45
		c0-0.464-0.096-0.789-0.288-0.974c-0.192-0.186-0.529-0.278-1.011-0.278c-0.619,0-1.083,0.099-1.392,0.297
		C224.373,23.077,224.178,23.367,224.03,23.794z M227.305,25.779c-0.52,0.186-1.061,0.35-1.624,0.492
		c-0.767,0.204-1.252,0.405-1.457,0.603c-0.21,0.204-0.315,0.436-0.315,0.696c0,0.297,0.104,0.54,0.311,0.728
		c0.207,0.189,0.511,0.283,0.914,0.283c0.42,0,0.812-0.102,1.173-0.306c0.362-0.204,0.619-0.453,0.771-0.747
		c0.151-0.294,0.227-0.676,0.227-1.146V25.779z"/>
	<path class="st2" d="M236.201,16.854v3.748h2.078v2.765h-2.078v3.491c0,0.419,0.04,0.697,0.121,0.833
		c0.124,0.21,0.34,0.315,0.649,0.315c0.278,0,0.668-0.08,1.169-0.241l0.278,2.606c-0.934,0.204-1.806,0.306-2.616,0.306
		c-0.94,0-1.633-0.121-2.078-0.361c-0.445-0.241-0.775-0.607-0.988-1.098c-0.214-0.491-0.32-1.286-0.32-2.386v-3.465h-1.392v-2.765
		h1.392v-1.809L236.201,16.854z"/>
	<path class="st2" d="M237.805,16.854h3.776v2.57h-3.776V16.854z M237.805,20.603h3.776v9.853h-3.776V20.603z"/>
	<path class="st2" d="M241.211,25.557c0-1.503,0.507-2.741,1.521-3.716c1.014-0.974,2.384-1.461,4.11-1.461
		c1.973,0,3.463,0.572,4.472,1.716c0.81,0.922,1.215,2.057,1.215,3.405c0,1.516-0.502,2.757-1.507,3.725
		c-1.005,0.968-2.396,1.452-4.17,1.452c-1.583,0-2.864-0.402-3.841-1.206C241.81,28.476,241.211,27.171,241.211,25.557z
		 M244.996,25.547c0,0.878,0.178,1.528,0.534,1.948c0.355,0.421,0.802,0.631,1.34,0.631c0.544,0,0.991-0.207,1.34-0.622
		c0.35-0.414,0.524-1.079,0.524-1.995c0-0.854-0.176-1.489-0.529-1.907c-0.353-0.417-0.789-0.626-1.308-0.626
		c-0.551,0-1.005,0.212-1.364,0.636C245.175,24.037,244.996,24.682,244.996,25.547z"/>
	<path class="st2" d="M252.733,20.603h3.516v1.605c0.525-0.655,1.058-1.124,1.596-1.406c0.538-0.281,1.193-0.422,1.967-0.422
		c1.045,0,1.863,0.311,2.454,0.933c0.59,0.621,0.886,1.582,0.886,2.88v6.262h-3.794v-5.418c0-0.618-0.115-1.056-0.343-1.313
		c-0.229-0.257-0.551-0.385-0.965-0.385c-0.458,0-0.829,0.173-1.113,0.52c-0.285,0.347-0.427,0.968-0.427,1.865v4.731h-3.776V20.603
		z"/>
	<path class="st2" d="M267.647,16.854h3.992l1.437,7.614l2.104-7.614h3.978l2.108,7.604l1.438-7.604h3.971l-2.998,13.601h-4.121
		l-2.386-8.563l-2.376,8.563h-4.121L267.647,16.854z"/>
	<path class="st2" d="M286.986,16.854h3.776v2.57h-3.776V16.854z M286.986,20.603h3.776v9.853h-3.776V20.603z"/>
	<path class="st2" d="M290.856,20.603h3.516v1.605c0.525-0.655,1.058-1.124,1.596-1.406c0.538-0.281,1.193-0.422,1.967-0.422
		c1.045,0,1.863,0.311,2.454,0.933c0.59,0.621,0.886,1.582,0.886,2.88v6.262h-3.794v-5.418c0-0.618-0.115-1.056-0.343-1.313
		c-0.229-0.257-0.551-0.385-0.965-0.385c-0.458,0-0.829,0.173-1.113,0.52c-0.285,0.347-0.427,0.968-0.427,1.865v4.731h-3.776V20.603
		z"/>
	<path class="st2" d="M312.286,16.854v13.601h-3.535v-1.457c-0.495,0.619-0.946,1.036-1.354,1.252
		c-0.544,0.284-1.15,0.427-1.818,0.427c-1.342,0-2.367-0.51-3.075-1.531c-0.708-1.021-1.063-2.26-1.063-3.72
		c0-1.633,0.391-2.882,1.174-3.748c0.782-0.866,1.776-1.299,2.982-1.299c0.587,0,1.121,0.099,1.601,0.297
		c0.479,0.198,0.904,0.495,1.275,0.891v-4.713H312.286z M308.501,25.501c0-0.773-0.164-1.35-0.492-1.73
		c-0.328-0.38-0.742-0.57-1.243-0.57c-0.439,0-0.807,0.183-1.104,0.547c-0.297,0.365-0.445,0.978-0.445,1.837
		c0,0.804,0.153,1.393,0.459,1.767c0.306,0.375,0.685,0.562,1.136,0.562c0.482,0,0.884-0.188,1.206-0.566
		C308.34,26.97,308.501,26.354,308.501,25.501z"/>
	<path class="st2" d="M312.508,25.557c0-1.503,0.507-2.741,1.521-3.716c1.014-0.974,2.384-1.461,4.11-1.461
		c1.973,0,3.463,0.572,4.472,1.716c0.81,0.922,1.215,2.057,1.215,3.405c0,1.516-0.502,2.757-1.507,3.725
		c-1.005,0.968-2.396,1.452-4.17,1.452c-1.583,0-2.864-0.402-3.841-1.206C313.108,28.476,312.508,27.171,312.508,25.557z
		 M316.293,25.547c0,0.878,0.178,1.528,0.534,1.948c0.355,0.421,0.802,0.631,1.34,0.631c0.544,0,0.991-0.207,1.34-0.622
		c0.35-0.414,0.524-1.079,0.524-1.995c0-0.854-0.176-1.489-0.529-1.907c-0.353-0.417-0.789-0.626-1.308-0.626
		c-0.551,0-1.005,0.212-1.364,0.636C316.473,24.037,316.293,24.682,316.293,25.547z"/>
	<path class="st2" d="M322.926,20.603h3.651l1.58,6.203l1.999-6.203h3.412l2.083,6.219l1.589-6.219h3.628l-3.629,9.853h-3.36
		l-1.996-5.928l-1.928,5.928h-3.375L322.926,20.603z"/>
</g>
<g>
	<path class="st2" d="M455.407,16.854h6.986c1.521,0,2.66,0.362,3.418,1.085s1.137,1.753,1.137,3.089
		c0,1.373-0.413,2.446-1.238,3.219c-0.826,0.773-2.086,1.16-3.781,1.16h-2.301v5.047h-4.221V16.854z M459.627,22.653h1.03
		c0.811,0,1.379-0.141,1.707-0.422c0.328-0.281,0.491-0.641,0.491-1.081c0-0.427-0.142-0.789-0.426-1.085
		c-0.285-0.297-0.82-0.445-1.605-0.445h-1.197V22.653z"/>
	<path class="st2" d="M477.117,26.466h-7.57c0.068,0.606,0.231,1.058,0.491,1.354c0.365,0.427,0.842,0.64,1.43,0.64
		c0.371,0,0.723-0.093,1.057-0.278c0.205-0.117,0.424-0.325,0.659-0.622l3.72,0.343c-0.568,0.99-1.255,1.699-2.059,2.129
		c-0.805,0.43-1.958,0.645-3.461,0.645c-1.305,0-2.332-0.184-3.08-0.552c-0.748-0.368-1.368-0.953-1.86-1.754
		c-0.491-0.801-0.737-1.742-0.737-2.825c0-1.54,0.493-2.786,1.479-3.739c0.986-0.952,2.349-1.429,4.087-1.429
		c1.41,0,2.523,0.213,3.34,0.64s1.438,1.045,1.865,1.855c0.426,0.811,0.64,1.865,0.64,3.164V26.466z M473.276,24.657
		c-0.074-0.729-0.271-1.252-0.589-1.568c-0.319-0.315-0.737-0.473-1.257-0.473c-0.601,0-1.08,0.238-1.438,0.714
		c-0.229,0.297-0.374,0.739-0.437,1.327H473.276z"/>
	<path class="st2" d="M477.236,20.603h3.535v1.614c0.34-0.699,0.691-1.18,1.053-1.442c0.362-0.263,0.809-0.395,1.341-0.395
		c0.557,0,1.166,0.173,1.827,0.52l-1.168,2.69c-0.445-0.186-0.799-0.278-1.059-0.278c-0.494,0-0.878,0.204-1.15,0.612
		c-0.389,0.575-0.584,1.651-0.584,3.229v3.303h-3.795V20.603z"/>
	<path class="st2" d="M487.421,20.603h1.8v2.765h-1.8v7.088h-3.785v-7.088h-1.41v-2.765h1.41v-0.445c0-0.402,0.043-0.844,0.13-1.327
		s0.249-0.876,0.487-1.183c0.237-0.306,0.571-0.553,1.002-0.742c0.43-0.188,1.059-0.283,1.888-0.283
		c0.662,0,1.624,0.078,2.886,0.232l-0.418,2.282c-0.451-0.074-0.816-0.111-1.095-0.111c-0.34,0-0.585,0.057-0.733,0.172
		c-0.148,0.114-0.253,0.295-0.314,0.542C487.437,19.876,487.421,20.164,487.421,20.603z"/>
	<path class="st2" d="M487.755,25.557c0-1.503,0.507-2.741,1.521-3.716c1.014-0.974,2.384-1.461,4.109-1.461
		c1.973,0,3.464,0.572,4.472,1.716c0.811,0.922,1.216,2.057,1.216,3.405c0,1.516-0.503,2.757-1.508,3.725
		c-1.006,0.968-2.396,1.452-4.17,1.452c-1.584,0-2.864-0.402-3.842-1.206C488.355,28.476,487.755,27.171,487.755,25.557z
		 M491.54,25.547c0,0.878,0.177,1.528,0.533,1.948c0.355,0.421,0.803,0.631,1.34,0.631c0.545,0,0.991-0.207,1.341-0.622
		c0.35-0.414,0.524-1.079,0.524-1.995c0-0.854-0.176-1.489-0.529-1.907c-0.352-0.417-0.788-0.626-1.308-0.626
		c-0.551,0-1.005,0.212-1.364,0.636C491.719,24.037,491.54,24.682,491.54,25.547z"/>
	<path class="st2" d="M499.276,20.603h3.535v1.614c0.34-0.699,0.691-1.18,1.053-1.442c0.362-0.263,0.809-0.395,1.341-0.395
		c0.557,0,1.166,0.173,1.827,0.52l-1.168,2.69c-0.445-0.186-0.799-0.278-1.059-0.278c-0.494,0-0.878,0.204-1.15,0.612
		c-0.389,0.575-0.584,1.651-0.584,3.229v3.303h-3.795V20.603z"/>
	<path class="st2" d="M506.275,20.603h3.525v1.438c0.508-0.6,1.021-1.026,1.537-1.28c0.518-0.253,1.142-0.38,1.873-0.38
		c0.786,0,1.409,0.139,1.867,0.417s0.833,0.693,1.124,1.243c0.593-0.643,1.134-1.081,1.621-1.313
		c0.488-0.231,1.091-0.348,1.807-0.348c1.057,0,1.881,0.314,2.474,0.941c0.593,0.628,0.89,1.61,0.89,2.946v6.188h-3.785v-5.613
		c0-0.445-0.086-0.776-0.259-0.993c-0.253-0.34-0.567-0.51-0.943-0.51c-0.443,0-0.801,0.161-1.072,0.482
		c-0.271,0.322-0.407,0.838-0.407,1.549v5.084h-3.785v-5.427c0-0.433-0.024-0.727-0.074-0.881c-0.08-0.247-0.22-0.447-0.419-0.599
		c-0.198-0.151-0.432-0.227-0.698-0.227c-0.435,0-0.791,0.164-1.07,0.492c-0.279,0.328-0.419,0.866-0.419,1.614v5.028h-3.785V20.603
		z"/>
	<path class="st2" d="M526.75,23.794l-3.608-0.38c0.136-0.631,0.332-1.127,0.589-1.489c0.256-0.362,0.626-0.676,1.108-0.942
		c0.347-0.191,0.822-0.34,1.429-0.445c0.606-0.105,1.262-0.158,1.967-0.158c1.132,0,2.041,0.063,2.728,0.19
		c0.687,0.126,1.259,0.391,1.717,0.793c0.321,0.278,0.574,0.673,0.76,1.183c0.186,0.511,0.279,0.998,0.279,1.461v4.351
		c0,0.464,0.028,0.827,0.088,1.09c0.059,0.263,0.187,0.599,0.385,1.007h-3.544c-0.143-0.253-0.235-0.447-0.278-0.58
		c-0.043-0.133-0.087-0.341-0.13-0.626c-0.495,0.477-0.986,0.816-1.476,1.021c-0.668,0.272-1.443,0.408-2.328,0.408
		c-1.175,0-2.067-0.272-2.677-0.816c-0.609-0.544-0.913-1.215-0.913-2.013c0-0.748,0.219-1.364,0.658-1.846s1.249-0.841,2.431-1.076
		c1.416-0.284,2.335-0.484,2.755-0.599c0.421-0.114,0.866-0.264,1.336-0.45c0-0.464-0.096-0.789-0.287-0.974
		s-0.529-0.278-1.012-0.278c-0.618,0-1.082,0.099-1.391,0.297C527.093,23.077,526.899,23.367,526.75,23.794z M530.025,25.779
		c-0.52,0.186-1.061,0.35-1.623,0.492c-0.767,0.204-1.252,0.405-1.457,0.603c-0.21,0.204-0.314,0.436-0.314,0.696
		c0,0.297,0.103,0.54,0.311,0.728c0.207,0.189,0.512,0.283,0.914,0.283c0.42,0,0.812-0.102,1.173-0.306
		c0.362-0.204,0.618-0.453,0.771-0.747c0.151-0.294,0.227-0.676,0.227-1.146V25.779z"/>
	<path class="st2" d="M534.328,20.603h3.517v1.605c0.525-0.655,1.058-1.124,1.596-1.406c0.538-0.281,1.193-0.422,1.967-0.422
		c1.045,0,1.863,0.311,2.454,0.933c0.59,0.621,0.886,1.582,0.886,2.88v6.262h-3.794v-5.418c0-0.618-0.115-1.056-0.344-1.313
		c-0.229-0.257-0.551-0.385-0.965-0.385c-0.458,0-0.829,0.173-1.113,0.52c-0.284,0.347-0.427,0.968-0.427,1.865v4.731h-3.776V20.603
		z"/>
	<path class="st2" d="M552.696,26.596l3.591,0.408c-0.198,0.749-0.522,1.396-0.974,1.943c-0.452,0.548-1.029,0.973-1.73,1.276
		c-0.702,0.303-1.595,0.455-2.677,0.455c-1.045,0-1.916-0.098-2.611-0.292c-0.696-0.194-1.294-0.51-1.796-0.945
		c-0.5-0.436-0.894-0.947-1.178-1.534c-0.284-0.587-0.427-1.366-0.427-2.336c0-1.013,0.173-1.856,0.52-2.53
		c0.254-0.494,0.6-0.938,1.039-1.33s0.891-0.684,1.354-0.876c0.736-0.303,1.68-0.454,2.83-0.454c1.607,0,2.834,0.288,3.678,0.863
		c0.845,0.575,1.437,1.417,1.777,2.523l-3.554,0.473c-0.111-0.42-0.314-0.737-0.607-0.951c-0.294-0.213-0.688-0.32-1.183-0.32
		c-0.625,0-1.131,0.224-1.518,0.671s-0.58,1.125-0.58,2.033c0,0.809,0.192,1.423,0.576,1.843c0.383,0.42,0.871,0.63,1.465,0.63
		c0.495,0,0.911-0.126,1.248-0.38C552.277,27.511,552.53,27.122,552.696,26.596z"/>
	<path class="st2" d="M567.306,26.466h-7.57c0.068,0.606,0.231,1.058,0.491,1.354c0.365,0.427,0.842,0.64,1.43,0.64
		c0.371,0,0.723-0.093,1.057-0.278c0.205-0.117,0.424-0.325,0.659-0.622l3.72,0.343c-0.568,0.99-1.255,1.699-2.059,2.129
		c-0.805,0.43-1.958,0.645-3.461,0.645c-1.305,0-2.332-0.184-3.08-0.552c-0.748-0.368-1.368-0.953-1.86-1.754
		c-0.491-0.801-0.737-1.742-0.737-2.825c0-1.54,0.493-2.786,1.479-3.739c0.986-0.952,2.349-1.429,4.087-1.429
		c1.41,0,2.523,0.213,3.34,0.64s1.438,1.045,1.865,1.855c0.426,0.811,0.64,1.865,0.64,3.164V26.466z M563.465,24.657
		c-0.074-0.729-0.271-1.252-0.589-1.568c-0.319-0.315-0.737-0.473-1.257-0.473c-0.601,0-1.08,0.238-1.438,0.714
		c-0.229,0.297-0.374,0.739-0.437,1.327H563.465z"/>
	<path class="st2" d="M572.25,16.854h3.992l1.438,7.614l2.103-7.614h3.978l2.108,7.604l1.439-7.604h3.971l-2.998,13.601h-4.121
		l-2.386-8.563l-2.376,8.563h-4.121L572.25,16.854z"/>
	<path class="st2" d="M591.591,16.854h3.776v2.57h-3.776V16.854z M591.591,20.603h3.776v9.853h-3.776V20.603z"/>
	<path class="st2" d="M595.46,20.603h3.517v1.605c0.525-0.655,1.058-1.124,1.596-1.406c0.538-0.281,1.193-0.422,1.967-0.422
		c1.045,0,1.863,0.311,2.454,0.933c0.59,0.621,0.886,1.582,0.886,2.88v6.262h-3.794v-5.418c0-0.618-0.115-1.056-0.344-1.313
		c-0.229-0.257-0.551-0.385-0.965-0.385c-0.458,0-0.829,0.173-1.113,0.52c-0.284,0.347-0.427,0.968-0.427,1.865v4.731h-3.776V20.603
		z"/>
	<path class="st2" d="M616.853,16.854v13.601h-3.535v-1.457c-0.495,0.619-0.946,1.036-1.354,1.252
		c-0.544,0.284-1.15,0.427-1.818,0.427c-1.342,0-2.367-0.51-3.075-1.531c-0.709-1.021-1.063-2.26-1.063-3.72
		c0-1.633,0.391-2.882,1.174-3.748c0.782-0.866,1.776-1.299,2.982-1.299c0.588,0,1.121,0.099,1.601,0.297
		c0.479,0.198,0.904,0.495,1.275,0.891v-4.713H616.853z M613.068,25.501c0-0.773-0.164-1.35-0.492-1.73
		c-0.328-0.38-0.742-0.57-1.243-0.57c-0.439,0-0.808,0.183-1.104,0.547c-0.297,0.365-0.445,0.978-0.445,1.837
		c0,0.804,0.153,1.393,0.46,1.767c0.306,0.375,0.685,0.562,1.136,0.562c0.482,0,0.885-0.188,1.207-0.566
		C612.907,26.97,613.068,26.354,613.068,25.501z"/>
	<path class="st2" d="M617.037,25.557c0-1.503,0.507-2.741,1.521-3.716c1.014-0.974,2.384-1.461,4.109-1.461
		c1.973,0,3.464,0.572,4.472,1.716c0.811,0.922,1.216,2.057,1.216,3.405c0,1.516-0.503,2.757-1.508,3.725
		c-1.006,0.968-2.396,1.452-4.17,1.452c-1.584,0-2.864-0.402-3.842-1.206C617.637,28.476,617.037,27.171,617.037,25.557z
		 M620.823,25.547c0,0.878,0.177,1.528,0.533,1.948c0.355,0.421,0.803,0.631,1.34,0.631c0.545,0,0.991-0.207,1.341-0.622
		c0.35-0.414,0.524-1.079,0.524-1.995c0-0.854-0.176-1.489-0.529-1.907c-0.352-0.417-0.788-0.626-1.308-0.626
		c-0.551,0-1.005,0.212-1.364,0.636C621.001,24.037,620.823,24.682,620.823,25.547z"/>
	<path class="st2" d="M627.416,20.603h3.651l1.579,6.203l1.999-6.203h3.412l2.084,6.219l1.588-6.219h3.629l-3.629,9.853h-3.36
		l-1.996-5.928l-1.929,5.928h-3.375L627.416,20.603z"/>
</g>
<path class="st3" d="M458.548,148.481l-9.188-18.377l-9.188,18.377H458.548z M452.422,178.027v-32.609h-6.126v32.609H452.422z"/>
<g>
	<path class="st2" d="M370.096,195.047c0-1.947,0.542-3.462,1.626-4.547c1.085-1.084,2.595-1.627,4.53-1.627
		c1.984,0,3.514,0.533,4.587,1.599c1.074,1.065,1.61,2.558,1.61,4.478c0,1.394-0.234,2.536-0.703,3.428s-1.146,1.586-2.033,2.082
		s-1.991,0.744-3.314,0.744c-1.345,0-2.458-0.214-3.339-0.643c-0.881-0.428-1.596-1.105-2.143-2.033
		C370.369,197.601,370.096,196.44,370.096,195.047z M373.78,195.063c0,1.204,0.224,2.069,0.671,2.595
		c0.447,0.526,1.057,0.789,1.826,0.789c0.792,0,1.404-0.258,1.838-0.772c0.435-0.516,0.651-1.439,0.651-2.773
		c0-1.123-0.227-1.942-0.68-2.461c-0.452-0.518-1.066-0.776-1.842-0.776c-0.743,0-1.34,0.263-1.789,0.789
		C374.005,192.978,373.78,193.849,373.78,195.063z"/>
	<path class="st2" d="M382.616,189.076h3.343v4.132c0.331-0.347,0.706-0.606,1.127-0.78c0.42-0.174,0.885-0.261,1.395-0.261
		c1.052,0,1.922,0.379,2.61,1.135c0.688,0.757,1.033,1.843,1.033,3.258c0,0.943-0.157,1.774-0.472,2.492
		c-0.314,0.719-0.75,1.256-1.306,1.61c-0.556,0.355-1.172,0.533-1.85,0.533c-0.581,0-1.112-0.125-1.595-0.374
		c-0.363-0.195-0.759-0.562-1.188-1.099V201h-3.099V189.076z M385.934,196.657c0,0.742,0.14,1.28,0.419,1.614
		c0.279,0.333,0.633,0.5,1.062,0.5c0.396,0,0.728-0.164,0.996-0.492s0.402-0.88,0.402-1.655c0-0.683-0.131-1.185-0.395-1.504
		c-0.263-0.32-0.581-0.48-0.955-0.48c-0.45,0-0.817,0.167-1.103,0.5C386.077,195.474,385.934,195.979,385.934,196.657z"/>
	<path class="st2" d="M391.659,198.601l3.285-0.309c0.136,0.39,0.326,0.669,0.569,0.837c0.244,0.169,0.569,0.253,0.977,0.253
		c0.444,0,0.789-0.095,1.033-0.284c0.189-0.142,0.284-0.317,0.284-0.528c0-0.238-0.125-0.422-0.374-0.552
		c-0.179-0.093-0.653-0.206-1.424-0.342c-1.149-0.2-1.947-0.386-2.395-0.557c-0.447-0.17-0.824-0.459-1.131-0.865
		s-0.459-0.869-0.459-1.389c0-0.569,0.165-1.06,0.496-1.471c0.33-0.412,0.786-0.72,1.366-0.923s1.358-0.305,2.334-0.305
		c1.03,0,1.791,0.079,2.281,0.236c0.491,0.157,0.9,0.401,1.229,0.731c0.328,0.331,0.601,0.778,0.817,1.343l-3.14,0.309
		c-0.081-0.276-0.217-0.479-0.406-0.61c-0.261-0.173-0.575-0.26-0.944-0.26c-0.374,0-0.646,0.066-0.817,0.199
		c-0.17,0.133-0.256,0.293-0.256,0.482c0,0.212,0.108,0.371,0.325,0.479s0.688,0.206,1.415,0.293c1.101,0.124,1.92,0.298,2.457,0.52
		c0.536,0.222,0.947,0.539,1.231,0.95c0.285,0.412,0.428,0.864,0.428,1.357c0,0.498-0.151,0.983-0.452,1.454
		c-0.301,0.472-0.775,0.847-1.423,1.125c-0.648,0.279-1.53,0.419-2.647,0.419c-1.578,0-2.702-0.225-3.371-0.675
		C392.278,200.07,391.848,199.431,391.659,198.601z"/>
	<path class="st2" d="M410.592,197.503h-6.637c0.06,0.531,0.203,0.927,0.431,1.188c0.32,0.374,0.737,0.561,1.253,0.561
		c0.325,0,0.634-0.081,0.927-0.243c0.179-0.104,0.371-0.285,0.577-0.545l3.262,0.301c-0.499,0.867-1.101,1.489-1.806,1.866
		s-1.716,0.565-3.033,0.565c-1.145,0-2.045-0.161-2.7-0.484c-0.656-0.322-1.2-0.835-1.631-1.537
		c-0.432-0.702-0.646-1.527-0.646-2.477c0-1.35,0.432-2.442,1.297-3.277s2.059-1.253,3.583-1.253c1.236,0,2.212,0.188,2.928,0.562
		s1.261,0.916,1.635,1.627c0.374,0.71,0.562,1.635,0.562,2.773V197.503z M407.225,195.917c-0.065-0.64-0.237-1.099-0.517-1.375
		s-0.646-0.415-1.103-0.415c-0.525,0-0.946,0.209-1.261,0.627c-0.2,0.26-0.328,0.647-0.382,1.163H407.225z"/>
	<path class="st2" d="M410.679,192.362h3.099v1.415c0.298-0.612,0.605-1.034,0.923-1.265s0.709-0.346,1.176-0.346
		c0.487,0,1.021,0.152,1.602,0.456l-1.024,2.358c-0.391-0.163-0.699-0.244-0.928-0.244c-0.434,0-0.77,0.179-1.008,0.537
		c-0.342,0.504-0.513,1.447-0.513,2.83V201h-3.326V192.362z"/>
	<path class="st2" d="M415.815,192.362h3.444l1.676,5.474l1.738-5.474h3.341L422.343,201h-2.937L415.815,192.362z"/>
	<path class="st2" d="M428.567,195.16l-3.164-0.333c0.12-0.554,0.292-0.988,0.517-1.306c0.226-0.317,0.55-0.593,0.973-0.825
		c0.303-0.168,0.721-0.299,1.252-0.391s1.106-0.139,1.725-0.139c0.992,0,1.789,0.056,2.391,0.167
		c0.603,0.111,1.104,0.343,1.505,0.695c0.282,0.244,0.504,0.59,0.667,1.037s0.244,0.874,0.244,1.281v3.814
		c0,0.406,0.025,0.725,0.077,0.955s0.164,0.525,0.338,0.883h-3.107c-0.125-0.223-0.206-0.392-0.244-0.509
		c-0.038-0.116-0.075-0.299-0.113-0.549c-0.435,0.418-0.865,0.716-1.293,0.895c-0.586,0.239-1.267,0.358-2.042,0.358
		c-1.03,0-1.813-0.238-2.347-0.716s-0.801-1.065-0.801-1.765c0-0.656,0.192-1.196,0.577-1.619s1.096-0.737,2.131-0.943
		c1.242-0.249,2.047-0.424,2.416-0.524c0.368-0.101,0.759-0.231,1.171-0.395c0-0.406-0.084-0.691-0.252-0.854
		c-0.168-0.163-0.464-0.244-0.887-0.244c-0.542,0-0.948,0.087-1.22,0.26C428.868,194.531,428.698,194.786,428.567,195.16z
		 M431.438,196.9c-0.455,0.163-0.93,0.307-1.423,0.432c-0.673,0.179-1.099,0.355-1.277,0.528c-0.185,0.179-0.276,0.383-0.276,0.61
		c0,0.26,0.091,0.473,0.272,0.639c0.182,0.165,0.448,0.248,0.801,0.248c0.369,0,0.712-0.09,1.029-0.269s0.542-0.397,0.675-0.655
		c0.133-0.257,0.199-0.592,0.199-1.004V196.9z"/>
	<path class="st2" d="M439.187,189.076v3.286h1.821v2.424h-1.821v3.061c0,0.368,0.035,0.611,0.105,0.73
		c0.108,0.184,0.298,0.275,0.569,0.275c0.244,0,0.586-0.07,1.024-0.211l0.244,2.285c-0.818,0.179-1.583,0.269-2.293,0.269
		c-0.824,0-1.432-0.105-1.822-0.317c-0.391-0.211-0.679-0.531-0.866-0.962s-0.28-1.128-0.28-2.092v-3.038h-1.221v-2.424h1.221
		v-1.586L439.187,189.076z"/>
	<path class="st2" d="M440.577,189.076h3.311v2.253h-3.311V189.076z M440.577,192.362h3.311V201h-3.311V192.362z"/>
	<path class="st2" d="M443.546,196.706c0-1.318,0.444-2.403,1.334-3.258c0.889-0.854,2.09-1.281,3.603-1.281
		c1.729,0,3.037,0.502,3.921,1.505c0.71,0.808,1.065,1.803,1.065,2.985c0,1.328-0.44,2.417-1.322,3.265
		c-0.881,0.85-2.1,1.273-3.655,1.273c-1.389,0-2.511-0.353-3.367-1.058C444.072,199.265,443.546,198.121,443.546,196.706z
		 M446.865,196.697c0,0.771,0.156,1.34,0.468,1.708c0.312,0.369,0.703,0.554,1.175,0.554c0.478,0,0.869-0.182,1.176-0.545
		c0.306-0.363,0.459-0.946,0.459-1.749c0-0.748-0.154-1.306-0.463-1.672c-0.31-0.365-0.691-0.549-1.147-0.549
		c-0.482,0-0.881,0.187-1.195,0.558S446.865,195.938,446.865,196.697z"/>
	<path class="st2" d="M453.596,192.362h3.083v1.407c0.461-0.574,0.927-0.985,1.398-1.232c0.472-0.246,1.047-0.37,1.725-0.37
		c0.916,0,1.634,0.272,2.151,0.817s0.776,1.387,0.776,2.525V201h-3.326v-4.75c0-0.542-0.101-0.926-0.301-1.15
		c-0.201-0.226-0.482-0.338-0.846-0.338c-0.401,0-0.727,0.152-0.977,0.455c-0.249,0.304-0.374,0.849-0.374,1.635V201h-3.311V192.362
		z"/>
	<path class="st2" d="M467.833,189.076h6.124c1.334,0,2.333,0.317,2.997,0.952s0.996,1.537,0.996,2.708
		c0,1.204-0.361,2.145-1.086,2.822c-0.724,0.678-1.828,1.017-3.313,1.017h-2.018V201h-3.7V189.076z M471.534,194.16h0.903
		c0.71,0,1.209-0.123,1.496-0.37s0.431-0.563,0.431-0.947c0-0.375-0.124-0.691-0.374-0.952c-0.249-0.26-0.719-0.391-1.407-0.391
		h-1.049V194.16z"/>
	<path class="st2" d="M476.854,196.706c0-1.318,0.444-2.403,1.334-3.258c0.889-0.854,2.09-1.281,3.603-1.281
		c1.729,0,3.037,0.502,3.921,1.505c0.71,0.808,1.065,1.803,1.065,2.985c0,1.328-0.44,2.417-1.322,3.265
		c-0.881,0.85-2.1,1.273-3.655,1.273c-1.389,0-2.511-0.353-3.367-1.058C477.379,199.265,476.854,198.121,476.854,196.706z
		 M480.172,196.697c0,0.771,0.156,1.34,0.468,1.708c0.312,0.369,0.703,0.554,1.175,0.554c0.478,0,0.869-0.182,1.176-0.545
		c0.306-0.363,0.459-0.946,0.459-1.749c0-0.748-0.154-1.306-0.463-1.672c-0.31-0.365-0.691-0.549-1.147-0.549
		c-0.482,0-0.881,0.187-1.195,0.558S480.172,195.938,480.172,196.697z"/>
	<path class="st2" d="M487.027,189.076h3.311v2.253h-3.311V189.076z M487.027,192.362h3.311V201h-3.311V192.362z"/>
	<path class="st2" d="M490.403,192.362h3.083v1.407c0.461-0.574,0.927-0.985,1.398-1.232c0.472-0.246,1.047-0.37,1.725-0.37
		c0.916,0,1.634,0.272,2.151,0.817s0.776,1.387,0.776,2.525V201h-3.326v-4.75c0-0.542-0.101-0.926-0.301-1.15
		c-0.201-0.226-0.482-0.338-0.846-0.338c-0.401,0-0.727,0.152-0.977,0.455c-0.249,0.304-0.374,0.849-0.374,1.635V201h-3.311V192.362
		z"/>
	<path class="st2" d="M504.04,189.076v3.286h1.821v2.424h-1.821v3.061c0,0.368,0.035,0.611,0.105,0.73
		c0.108,0.184,0.298,0.275,0.569,0.275c0.244,0,0.586-0.07,1.024-0.211l0.244,2.285c-0.818,0.179-1.583,0.269-2.293,0.269
		c-0.824,0-1.432-0.105-1.822-0.317c-0.391-0.211-0.679-0.531-0.866-0.962s-0.28-1.128-0.28-2.092v-3.038h-1.221v-2.424h1.221
		v-1.586L504.04,189.076z"/>
</g>
<g>
	<path class="st2" d="M520.949,197.787c0-2.041,0.367-3.47,1.103-4.285c0.734-0.815,1.854-1.223,3.358-1.223
		c0.722,0,1.315,0.089,1.779,0.267c0.464,0.179,0.842,0.41,1.135,0.696c0.293,0.285,0.524,0.586,0.692,0.9
		c0.169,0.315,0.304,0.683,0.407,1.103c0.199,0.801,0.3,1.636,0.3,2.505c0,1.948-0.329,3.374-0.989,4.277
		c-0.658,0.903-1.794,1.355-3.405,1.355c-0.903,0-1.634-0.145-2.19-0.433s-1.013-0.71-1.369-1.267
		c-0.259-0.396-0.46-0.937-0.604-1.623C521.021,199.375,520.949,198.617,520.949,197.787z M523.908,197.794
		c0,1.367,0.121,2.301,0.362,2.802c0.242,0.5,0.592,0.75,1.052,0.75c0.302,0,0.564-0.105,0.787-0.318
		c0.222-0.212,0.386-0.548,0.49-1.007c0.105-0.459,0.158-1.174,0.158-2.146c0-1.426-0.121-2.385-0.363-2.875
		c-0.241-0.491-0.604-0.736-1.088-0.736c-0.493,0-0.85,0.25-1.068,0.751C524.017,195.515,523.908,196.441,523.908,197.794z"/>
</g>
<g>
	<path class="st3" d="M386.395,210.113h4.845l1.869,7.255l1.855-7.255h4.842v11.924h-3.018v-9.093l-2.324,9.093h-2.731l-2.321-9.093
		v9.093h-3.017V210.113z"/>
	<path class="st3" d="M399.848,217.743c0-1.318,0.444-2.403,1.334-3.258c0.889-0.854,2.09-1.281,3.603-1.281
		c1.729,0,3.037,0.502,3.921,1.505c0.71,0.808,1.065,1.803,1.065,2.985c0,1.328-0.44,2.417-1.322,3.265
		c-0.881,0.85-2.1,1.273-3.655,1.273c-1.389,0-2.511-0.353-3.367-1.058C400.373,220.302,399.848,219.158,399.848,217.743z
		 M403.166,217.734c0,0.771,0.156,1.34,0.468,1.708c0.312,0.369,0.703,0.554,1.175,0.554c0.478,0,0.869-0.182,1.176-0.545
		c0.306-0.363,0.459-0.946,0.459-1.749c0-0.748-0.154-1.306-0.463-1.672c-0.31-0.365-0.691-0.549-1.147-0.549
		c-0.482,0-0.881,0.187-1.195,0.558S403.166,216.976,403.166,217.734z"/>
	<path class="st3" d="M418.993,210.113v11.924h-3.1v-1.277c-0.434,0.543-0.829,0.908-1.187,1.099
		c-0.478,0.249-1.009,0.374-1.595,0.374c-1.177,0-2.075-0.447-2.696-1.342s-0.931-1.982-0.931-3.262
		c0-1.432,0.343-2.526,1.028-3.286c0.687-0.759,1.558-1.139,2.615-1.139c0.515,0,0.982,0.087,1.402,0.261
		c0.421,0.174,0.793,0.434,1.119,0.78v-4.132H418.993z M415.674,217.694c0-0.678-0.145-1.184-0.432-1.518
		c-0.287-0.333-0.65-0.5-1.09-0.5c-0.385,0-0.707,0.16-0.968,0.48c-0.26,0.319-0.391,0.856-0.391,1.61
		c0,0.704,0.135,1.221,0.403,1.549c0.268,0.328,0.6,0.492,0.996,0.492c0.423,0,0.775-0.165,1.058-0.496
		C415.533,218.981,415.674,218.442,415.674,217.694z"/>
	<path class="st3" d="M429.132,218.54h-6.637c0.06,0.531,0.203,0.927,0.431,1.188c0.32,0.374,0.737,0.561,1.253,0.561
		c0.325,0,0.634-0.081,0.927-0.243c0.179-0.104,0.371-0.285,0.577-0.545l3.262,0.301c-0.499,0.867-1.101,1.489-1.806,1.866
		s-1.716,0.565-3.033,0.565c-1.145,0-2.045-0.161-2.7-0.484c-0.656-0.322-1.2-0.835-1.631-1.537
		c-0.432-0.702-0.646-1.527-0.646-2.477c0-1.35,0.432-2.442,1.297-3.277s2.059-1.253,3.583-1.253c1.236,0,2.212,0.188,2.928,0.562
		s1.261,0.916,1.635,1.627c0.374,0.71,0.562,1.635,0.562,2.773V218.54z M425.765,216.954c-0.065-0.64-0.237-1.099-0.517-1.375
		s-0.646-0.415-1.103-0.415c-0.525,0-0.946,0.209-1.261,0.627c-0.2,0.26-0.328,0.647-0.382,1.163H425.765z"/>
	<path class="st3" d="M429.301,210.113h3.318v11.924h-3.318V210.113z"/>
	<path class="st3" d="M437.279,210.113h6.124c1.334,0,2.333,0.317,2.997,0.952s0.996,1.537,0.996,2.708
		c0,1.204-0.361,2.145-1.086,2.822c-0.724,0.678-1.828,1.017-3.313,1.017h-2.018v4.425h-3.7V210.113z M440.979,215.197h0.903
		c0.71,0,1.209-0.123,1.496-0.37s0.431-0.563,0.431-0.947c0-0.375-0.124-0.691-0.374-0.952c-0.249-0.26-0.719-0.391-1.407-0.391
		h-1.049V215.197z"/>
	<path class="st3" d="M447.604,213.399h3.099v1.415c0.298-0.612,0.605-1.034,0.923-1.265s0.709-0.346,1.176-0.346
		c0.487,0,1.021,0.152,1.602,0.456l-1.024,2.358c-0.391-0.163-0.699-0.244-0.928-0.244c-0.434,0-0.77,0.179-1.008,0.537
		c-0.342,0.504-0.513,1.447-0.513,2.83v2.896h-3.326V213.399z"/>
	<path class="st3" d="M462.421,218.54h-6.637c0.06,0.531,0.203,0.927,0.431,1.188c0.32,0.374,0.737,0.561,1.253,0.561
		c0.325,0,0.634-0.081,0.927-0.243c0.179-0.104,0.371-0.285,0.577-0.545l3.262,0.301c-0.499,0.867-1.101,1.489-1.806,1.866
		s-1.716,0.565-3.033,0.565c-1.145,0-2.045-0.161-2.7-0.484c-0.656-0.322-1.2-0.835-1.631-1.537
		c-0.432-0.702-0.646-1.527-0.646-2.477c0-1.35,0.432-2.442,1.297-3.277s2.059-1.253,3.583-1.253c1.236,0,2.212,0.188,2.928,0.562
		s1.261,0.916,1.635,1.627c0.374,0.71,0.562,1.635,0.562,2.773V218.54z M459.054,216.954c-0.065-0.64-0.237-1.099-0.517-1.375
		s-0.646-0.415-1.103-0.415c-0.525,0-0.946,0.209-1.261,0.627c-0.2,0.26-0.328,0.647-0.382,1.163H459.054z"/>
	<path class="st3" d="M471.57,210.113v11.924h-3.1v-1.277c-0.434,0.543-0.829,0.908-1.187,1.099
		c-0.478,0.249-1.009,0.374-1.595,0.374c-1.177,0-2.075-0.447-2.696-1.342s-0.931-1.982-0.931-3.262
		c0-1.432,0.343-2.526,1.028-3.286c0.687-0.759,1.558-1.139,2.615-1.139c0.515,0,0.982,0.087,1.402,0.261
		c0.421,0.174,0.793,0.434,1.119,0.78v-4.132H471.57z M468.251,217.694c0-0.678-0.145-1.184-0.432-1.518
		c-0.287-0.333-0.65-0.5-1.09-0.5c-0.385,0-0.707,0.16-0.968,0.48c-0.26,0.319-0.391,0.856-0.391,1.61
		c0,0.704,0.135,1.221,0.403,1.549c0.268,0.328,0.6,0.492,0.996,0.492c0.423,0,0.775-0.165,1.058-0.496
		C468.11,218.981,468.251,218.442,468.251,217.694z"/>
	<path class="st3" d="M472.243,210.113h3.311v2.253h-3.311V210.113z M472.243,213.399h3.311v8.638h-3.311V213.399z"/>
	<path class="st3" d="M482.061,218.653l3.147,0.358c-0.174,0.656-0.459,1.224-0.854,1.704c-0.396,0.479-0.901,0.853-1.517,1.118
		s-1.397,0.398-2.347,0.398c-0.916,0-1.68-0.086-2.289-0.256c-0.61-0.171-1.135-0.447-1.574-0.829s-0.783-0.83-1.033-1.345
		c-0.249-0.515-0.374-1.197-0.374-2.048c0-0.889,0.152-1.628,0.456-2.219c0.222-0.433,0.525-0.821,0.91-1.166
		c0.386-0.344,0.781-0.6,1.188-0.768c0.646-0.266,1.473-0.398,2.481-0.398c1.409,0,2.484,0.252,3.225,0.757
		c0.74,0.504,1.259,1.241,1.558,2.212l-3.115,0.415c-0.098-0.369-0.275-0.646-0.533-0.834c-0.257-0.187-0.603-0.28-1.036-0.28
		c-0.548,0-0.991,0.196-1.33,0.589s-0.509,0.986-0.509,1.782c0,0.709,0.168,1.247,0.505,1.615c0.336,0.368,0.765,0.552,1.285,0.552
		c0.434,0,0.798-0.111,1.094-0.333C481.693,219.456,481.914,219.114,482.061,218.653z"/>
	<path class="st3" d="M489.256,210.113v3.286h1.821v2.424h-1.821v3.061c0,0.368,0.035,0.611,0.105,0.73
		c0.108,0.184,0.298,0.275,0.569,0.275c0.244,0,0.586-0.07,1.024-0.211l0.244,2.285c-0.818,0.179-1.583,0.269-2.293,0.269
		c-0.824,0-1.432-0.105-1.822-0.317c-0.391-0.211-0.679-0.531-0.866-0.962s-0.28-1.128-0.28-2.092v-3.038h-1.221v-2.424h1.221
		v-1.586L489.256,210.113z"/>
	<path class="st3" d="M490.646,210.113h3.311v2.253h-3.311V210.113z M490.646,213.399h3.311v8.638h-3.311V213.399z"/>
	<path class="st3" d="M493.616,217.743c0-1.318,0.444-2.403,1.334-3.258c0.889-0.854,2.09-1.281,3.603-1.281
		c1.729,0,3.037,0.502,3.921,1.505c0.71,0.808,1.065,1.803,1.065,2.985c0,1.328-0.44,2.417-1.322,3.265
		c-0.881,0.85-2.1,1.273-3.655,1.273c-1.389,0-2.511-0.353-3.367-1.058C494.141,220.302,493.616,219.158,493.616,217.743z
		 M496.934,217.734c0,0.771,0.156,1.34,0.468,1.708c0.312,0.369,0.703,0.554,1.175,0.554c0.478,0,0.869-0.182,1.176-0.545
		c0.306-0.363,0.459-0.946,0.459-1.749c0-0.748-0.154-1.306-0.463-1.672c-0.31-0.365-0.691-0.549-1.147-0.549
		c-0.482,0-0.881,0.187-1.195,0.558S496.934,216.976,496.934,217.734z"/>
	<path class="st3" d="M503.665,213.399h3.083v1.407c0.461-0.574,0.927-0.985,1.398-1.232c0.472-0.246,1.047-0.37,1.725-0.37
		c0.916,0,1.634,0.272,2.151,0.817c0.518,0.545,0.776,1.387,0.776,2.525v5.49h-3.326v-4.75c0-0.542-0.101-0.926-0.301-1.15
		c-0.201-0.226-0.482-0.338-0.846-0.338c-0.401,0-0.727,0.152-0.977,0.455c-0.249,0.304-0.374,0.849-0.374,1.635v4.148h-3.311
		V213.399z"/>
</g>
<g>
	<path class="st2" d="M14.481,185.25h14.792v3.889H24.31v11.859h-4.866v-11.859h-4.963V185.25z"/>
</g>
<g>
	<path class="st2" d="M28.609,198.267h4.336v2.307h-4.336V198.267z"/>
	<path class="st2" d="M39.885,192.415v10.92h-3.018v-7.156c-0.488,0.372-0.961,0.672-1.417,0.901s-1.029,0.449-1.717,0.659v-2.446
		c1.016-0.327,1.804-0.72,2.366-1.179s1.001-1.025,1.318-1.699H39.885z"/>
	<path class="st2" d="M51.096,203.335h-8.95c0.103-0.884,0.414-1.715,0.934-2.494c0.521-0.778,1.496-1.697,2.926-2.758
		c0.874-0.648,1.433-1.143,1.677-1.479c0.244-0.338,0.366-0.657,0.366-0.96c0-0.327-0.121-0.606-0.362-0.839
		c-0.242-0.231-0.546-0.348-0.912-0.348c-0.381,0-0.692,0.12-0.934,0.359c-0.242,0.239-0.404,0.661-0.487,1.267l-2.988-0.241
		c0.117-0.84,0.332-1.496,0.645-1.967c0.313-0.472,0.753-0.833,1.322-1.084c0.568-0.252,1.356-0.377,2.362-0.377
		c1.05,0,1.866,0.119,2.45,0.358s1.042,0.606,1.377,1.103c0.334,0.495,0.502,1.051,0.502,1.666c0,0.654-0.192,1.279-0.575,1.875
		s-1.08,1.25-2.091,1.963c-0.601,0.415-1.002,0.706-1.205,0.871c-0.203,0.167-0.44,0.384-0.714,0.652h4.658V203.335z"/>
</g>
<g>
	<path class="st2" d="M53.381,197.112h2.227v0.908c0.321-0.379,0.645-0.648,0.971-0.809s0.721-0.24,1.182-0.24
		c0.497,0,0.89,0.088,1.18,0.264s0.526,0.438,0.71,0.785c0.375-0.406,0.716-0.683,1.024-0.829s0.688-0.22,1.141-0.22
		c0.667,0,1.188,0.198,1.563,0.595c0.374,0.396,0.562,1.017,0.562,1.86v3.908h-2.391v-3.545c0-0.281-0.055-0.49-0.164-0.627
		c-0.16-0.215-0.358-0.322-0.596-0.322c-0.28,0-0.506,0.102-0.677,0.305s-0.257,0.529-0.257,0.979v3.211h-2.391v-3.428
		c0-0.273-0.016-0.459-0.047-0.557c-0.051-0.156-0.139-0.282-0.265-0.378s-0.272-0.144-0.441-0.144c-0.274,0-0.5,0.104-0.676,0.311
		s-0.265,0.547-0.265,1.02v3.176h-2.391V197.112z"/>
	<path class="st2" d="M64.158,200.241c0-0.949,0.32-1.731,0.961-2.347s1.506-0.923,2.596-0.923c1.246,0,2.188,0.361,2.824,1.084
		c0.512,0.582,0.768,1.299,0.768,2.15c0,0.957-0.317,1.741-0.952,2.353s-1.513,0.917-2.634,0.917c-1,0-1.809-0.254-2.426-0.762
		C64.537,202.085,64.158,201.261,64.158,200.241z M66.549,200.235c0,0.555,0.112,0.965,0.337,1.23s0.507,0.398,0.847,0.398
		c0.344,0,0.626-0.131,0.847-0.393s0.331-0.682,0.331-1.26c0-0.539-0.111-0.94-0.334-1.204s-0.498-0.396-0.826-0.396
		c-0.348,0-0.635,0.134-0.861,0.401S66.549,199.688,66.549,200.235z"/>
	<path class="st2" d="M71.843,197.112h2.221v1.014c0.332-0.414,0.668-0.71,1.008-0.888s0.754-0.267,1.242-0.267
		c0.66,0,1.177,0.196,1.55,0.589s0.56,0.999,0.56,1.819v3.955h-2.396v-3.422c0-0.391-0.072-0.667-0.217-0.829
		s-0.348-0.243-0.609-0.243c-0.289,0-0.523,0.109-0.703,0.328s-0.27,0.611-0.27,1.178v2.988h-2.385V197.112z"/>
	<path class="st2" d="M81.188,194.745v2.367H82.5v1.746h-1.313v2.205c0,0.265,0.025,0.44,0.076,0.525
		c0.078,0.133,0.215,0.199,0.41,0.199c0.176,0,0.422-0.051,0.738-0.152l0.176,1.646c-0.59,0.129-1.141,0.193-1.652,0.193
		c-0.594,0-1.031-0.076-1.313-0.229s-0.489-0.383-0.624-0.693c-0.135-0.31-0.202-0.813-0.202-1.507v-2.188h-0.879v-1.746h0.879
		v-1.143L81.188,194.745z"/>
	<path class="st2" d="M82.941,194.745h2.385v3.164c0.324-0.336,0.646-0.576,0.967-0.721s0.699-0.217,1.137-0.217
		c0.648,0,1.159,0.197,1.532,0.592s0.56,1,0.56,1.816v3.955h-2.396v-3.422c0-0.391-0.072-0.667-0.217-0.829
		s-0.348-0.243-0.609-0.243c-0.289,0-0.523,0.109-0.703,0.328s-0.27,0.611-0.27,1.178v2.988h-2.385V194.745z"/>
	<path class="st2" d="M88.987,201.606l2.367-0.223c0.098,0.281,0.234,0.482,0.41,0.604s0.41,0.182,0.703,0.182
		c0.32,0,0.568-0.068,0.744-0.205c0.137-0.102,0.205-0.228,0.205-0.38c0-0.172-0.09-0.305-0.27-0.397
		c-0.129-0.066-0.471-0.148-1.025-0.246c-0.828-0.145-1.403-0.278-1.726-0.401c-0.322-0.122-0.594-0.33-0.814-0.623
		s-0.331-0.626-0.331-1.001c0-0.41,0.119-0.763,0.357-1.06s0.566-0.518,0.984-0.664s0.979-0.22,1.682-0.22
		c0.742,0,1.29,0.057,1.644,0.17s0.648,0.289,0.885,0.527s0.433,0.561,0.589,0.967l-2.262,0.223
		c-0.059-0.199-0.156-0.346-0.293-0.439c-0.188-0.125-0.414-0.188-0.68-0.188c-0.27,0-0.466,0.048-0.589,0.144
		s-0.185,0.211-0.185,0.348c0,0.152,0.078,0.268,0.234,0.346s0.496,0.147,1.02,0.21c0.793,0.09,1.383,0.215,1.77,0.375
		s0.683,0.389,0.888,0.685c0.205,0.297,0.308,0.623,0.308,0.978c0,0.359-0.108,0.709-0.325,1.048
		c-0.217,0.34-0.559,0.61-1.025,0.811c-0.467,0.201-1.103,0.302-1.907,0.302c-1.137,0-1.946-0.162-2.429-0.486
		S89.124,202.204,88.987,201.606z"/>
</g>
<path class="st0" d="M56.011,148.481l-9.188-18.377l-9.188,18.377H56.011z M49.885,178.027v-32.609H43.76v32.609H49.885z"/>
<path class="st0" d="M658.941,148.481l-9.188-18.377l-9.188,18.377H658.941z M652.815,178.027v-32.609h-6.126v32.609H652.815z"/>
<g>
	<path class="st2" d="M164.181,132.74h3.693v11.924h-3.693V132.74z"/>
	<path class="st2" d="M168.199,136.026h3.083v1.407c0.46-0.574,0.927-0.985,1.399-1.232c0.472-0.246,1.046-0.37,1.724-0.37
		c0.917,0,1.633,0.272,2.151,0.817c0.518,0.545,0.776,1.387,0.776,2.525v5.49h-3.326v-4.75c0-0.542-0.101-0.926-0.301-1.15
		c-0.201-0.226-0.483-0.338-0.846-0.338c-0.401,0-0.727,0.152-0.976,0.455c-0.25,0.304-0.374,0.849-0.374,1.635v4.148h-3.31V136.026
		z"/>
	<path class="st2" d="M186.936,132.74v11.924h-3.099v-1.277c-0.434,0.543-0.83,0.908-1.188,1.099
		c-0.477,0.249-1.008,0.374-1.594,0.374c-1.177,0-2.075-0.447-2.696-1.342c-0.621-0.895-0.932-1.982-0.932-3.262
		c0-1.432,0.343-2.526,1.029-3.286c0.686-0.759,1.558-1.139,2.615-1.139c0.515,0,0.982,0.087,1.403,0.261
		c0.42,0.174,0.793,0.434,1.118,0.78v-4.132H186.936z M183.618,140.321c0-0.678-0.144-1.184-0.431-1.518
		c-0.287-0.333-0.65-0.5-1.09-0.5c-0.385,0-0.708,0.16-0.968,0.48c-0.26,0.319-0.39,0.856-0.39,1.61
		c0,0.704,0.134,1.221,0.402,1.549s0.601,0.492,0.997,0.492c0.423,0,0.775-0.165,1.057-0.496S183.618,141.069,183.618,140.321z"/>
	<path class="st2" d="M197.076,141.167h-6.637c0.06,0.531,0.204,0.927,0.431,1.188c0.32,0.374,0.737,0.561,1.252,0.561
		c0.326,0,0.634-0.081,0.927-0.243c0.179-0.104,0.372-0.285,0.578-0.545l3.261,0.301c-0.499,0.867-1.101,1.489-1.806,1.866
		c-0.705,0.377-1.716,0.565-3.034,0.565c-1.144,0-2.044-0.161-2.7-0.484c-0.656-0.322-1.2-0.835-1.63-1.537
		c-0.431-0.702-0.647-1.527-0.647-2.477c0-1.35,0.433-2.442,1.297-3.277s2.059-1.253,3.583-1.253c1.236,0,2.212,0.188,2.928,0.562
		s1.261,0.916,1.635,1.627c0.374,0.71,0.561,1.635,0.561,2.773V141.167z M193.709,139.581c-0.065-0.64-0.237-1.099-0.516-1.375
		c-0.279-0.276-0.647-0.415-1.102-0.415c-0.526,0-0.946,0.209-1.261,0.627c-0.201,0.26-0.328,0.647-0.382,1.163H193.709z"/>
	<path class="st2" d="M197.148,147.95v-11.924h3.099v1.277c0.428-0.537,0.822-0.9,1.18-1.09c0.482-0.255,1.017-0.383,1.602-0.383
		c1.155,0,2.048,0.442,2.68,1.326c0.632,0.884,0.948,1.977,0.948,3.277c0,1.438-0.344,2.534-1.033,3.29
		c-0.689,0.757-1.559,1.135-2.611,1.135c-0.51,0-0.975-0.087-1.395-0.261c-0.42-0.173-0.796-0.431-1.126-0.772v4.124H197.148z
		 M200.466,140.37c0,0.683,0.144,1.189,0.431,1.521c0.287,0.331,0.65,0.496,1.09,0.496c0.385,0,0.708-0.158,0.968-0.476
		s0.391-0.855,0.391-1.614c0-0.7-0.136-1.214-0.407-1.542c-0.271-0.327-0.602-0.491-0.992-0.491c-0.423,0-0.775,0.165-1.058,0.496
		C200.607,139.09,200.466,139.627,200.466,140.37z"/>
	<path class="st2" d="M216.365,141.167h-6.637c0.06,0.531,0.204,0.927,0.431,1.188c0.32,0.374,0.737,0.561,1.252,0.561
		c0.326,0,0.634-0.081,0.927-0.243c0.179-0.104,0.372-0.285,0.578-0.545l3.261,0.301c-0.499,0.867-1.101,1.489-1.806,1.866
		c-0.705,0.377-1.716,0.565-3.034,0.565c-1.144,0-2.044-0.161-2.7-0.484c-0.656-0.322-1.2-0.835-1.63-1.537
		c-0.431-0.702-0.647-1.527-0.647-2.477c0-1.35,0.433-2.442,1.297-3.277s2.059-1.253,3.583-1.253c1.236,0,2.212,0.188,2.928,0.562
		s1.261,0.916,1.635,1.627c0.374,0.71,0.561,1.635,0.561,2.773V141.167z M212.998,139.581c-0.065-0.64-0.237-1.099-0.516-1.375
		c-0.279-0.276-0.647-0.415-1.102-0.415c-0.526,0-0.946,0.209-1.261,0.627c-0.201,0.26-0.328,0.647-0.382,1.163H212.998z"/>
	<path class="st2" d="M216.42,136.026h3.083v1.407c0.46-0.574,0.927-0.985,1.399-1.232c0.472-0.246,1.046-0.37,1.724-0.37
		c0.917,0,1.633,0.272,2.151,0.817c0.518,0.545,0.776,1.387,0.776,2.525v5.49h-3.326v-4.75c0-0.542-0.101-0.926-0.301-1.15
		c-0.201-0.226-0.483-0.338-0.846-0.338c-0.401,0-0.727,0.152-0.976,0.455c-0.25,0.304-0.374,0.849-0.374,1.635v4.148h-3.31V136.026
		z"/>
	<path class="st2" d="M235.157,132.74v11.924h-3.099v-1.277c-0.434,0.543-0.83,0.908-1.188,1.099
		c-0.477,0.249-1.008,0.374-1.594,0.374c-1.177,0-2.075-0.447-2.696-1.342c-0.621-0.895-0.932-1.982-0.932-3.262
		c0-1.432,0.343-2.526,1.029-3.286c0.686-0.759,1.558-1.139,2.615-1.139c0.515,0,0.982,0.087,1.403,0.261
		c0.42,0.174,0.793,0.434,1.118,0.78v-4.132H235.157z M231.839,140.321c0-0.678-0.144-1.184-0.431-1.518
		c-0.287-0.333-0.65-0.5-1.09-0.5c-0.385,0-0.708,0.16-0.968,0.48c-0.26,0.319-0.39,0.856-0.39,1.61
		c0,0.704,0.134,1.221,0.402,1.549s0.601,0.492,0.997,0.492c0.423,0,0.775-0.165,1.057-0.496S231.839,141.069,231.839,140.321z"/>
	<path class="st2" d="M245.298,141.167h-6.637c0.06,0.531,0.204,0.927,0.431,1.188c0.32,0.374,0.737,0.561,1.252,0.561
		c0.326,0,0.634-0.081,0.927-0.243c0.179-0.104,0.372-0.285,0.578-0.545l3.261,0.301c-0.499,0.867-1.101,1.489-1.806,1.866
		c-0.705,0.377-1.716,0.565-3.034,0.565c-1.144,0-2.044-0.161-2.7-0.484c-0.656-0.322-1.2-0.835-1.63-1.537
		c-0.431-0.702-0.647-1.527-0.647-2.477c0-1.35,0.433-2.442,1.297-3.277s2.059-1.253,3.583-1.253c1.236,0,2.212,0.188,2.928,0.562
		s1.261,0.916,1.635,1.627c0.374,0.71,0.561,1.635,0.561,2.773V141.167z M241.93,139.581c-0.065-0.64-0.237-1.099-0.516-1.375
		c-0.279-0.276-0.647-0.415-1.102-0.415c-0.526,0-0.946,0.209-1.261,0.627c-0.201,0.26-0.328,0.647-0.382,1.163H241.93z"/>
	<path class="st2" d="M245.353,136.026h3.083v1.407c0.46-0.574,0.927-0.985,1.399-1.232c0.472-0.246,1.046-0.37,1.724-0.37
		c0.917,0,1.633,0.272,2.151,0.817c0.518,0.545,0.776,1.387,0.776,2.525v5.49h-3.326v-4.75c0-0.542-0.101-0.926-0.301-1.15
		c-0.201-0.226-0.483-0.338-0.846-0.338c-0.401,0-0.727,0.152-0.976,0.455c-0.25,0.304-0.374,0.849-0.374,1.635v4.148h-3.31V136.026
		z"/>
	<path class="st2" d="M258.99,132.74v3.286h1.822v2.424h-1.822v3.061c0,0.368,0.035,0.611,0.106,0.73
		c0.108,0.184,0.298,0.275,0.569,0.275c0.244,0,0.585-0.07,1.025-0.211l0.244,2.285c-0.819,0.179-1.583,0.269-2.293,0.269
		c-0.824,0-1.432-0.105-1.822-0.317c-0.391-0.211-0.679-0.531-0.866-0.962c-0.187-0.431-0.281-1.128-0.281-2.092v-3.038h-1.22
		v-2.424h1.22v-1.586L258.99,132.74z"/>
	<path class="st2" d="M263.696,132.74h3.852l2.684,8.581l2.649-8.581h3.74l-4.427,11.924h-3.994L263.696,132.74z"/>
	<path class="st2" d="M278.172,138.824l-3.164-0.333c0.119-0.554,0.292-0.988,0.517-1.306c0.225-0.317,0.549-0.593,0.972-0.825
		c0.304-0.168,0.721-0.299,1.252-0.391c0.532-0.092,1.106-0.139,1.725-0.139c0.992,0,1.789,0.056,2.391,0.167
		c0.602,0.111,1.103,0.343,1.504,0.695c0.282,0.244,0.504,0.59,0.667,1.037s0.244,0.874,0.244,1.281v3.814
		c0,0.406,0.025,0.725,0.077,0.955c0.051,0.23,0.164,0.525,0.337,0.883h-3.107c-0.125-0.223-0.206-0.392-0.244-0.509
		c-0.038-0.116-0.076-0.299-0.114-0.549c-0.434,0.418-0.865,0.716-1.293,0.895c-0.585,0.239-1.266,0.358-2.042,0.358
		c-1.03,0-1.813-0.238-2.346-0.716c-0.534-0.478-0.801-1.065-0.801-1.765c0-0.656,0.192-1.196,0.578-1.619
		c0.385-0.423,1.095-0.737,2.131-0.943c1.241-0.249,2.047-0.424,2.416-0.524s0.759-0.231,1.171-0.395
		c0-0.406-0.084-0.691-0.252-0.854c-0.168-0.163-0.463-0.244-0.887-0.244c-0.542,0-0.949,0.087-1.22,0.26
		C278.473,138.195,278.302,138.45,278.172,138.824z M281.043,140.564c-0.455,0.163-0.93,0.307-1.423,0.432
		c-0.672,0.179-1.098,0.355-1.277,0.528c-0.184,0.179-0.276,0.383-0.276,0.61c0,0.26,0.091,0.473,0.272,0.639
		c0.182,0.165,0.449,0.248,0.801,0.248c0.369,0,0.711-0.09,1.029-0.269c0.317-0.179,0.542-0.397,0.675-0.655
		c0.133-0.257,0.199-0.592,0.199-1.004V140.564z"/>
	<path class="st2" d="M284.831,136.026h3.099v1.415c0.298-0.612,0.606-1.034,0.923-1.265c0.317-0.23,0.709-0.346,1.175-0.346
		c0.488,0,1.022,0.152,1.603,0.456l-1.025,2.358c-0.391-0.163-0.7-0.244-0.927-0.244c-0.434,0-0.77,0.179-1.009,0.537
		c-0.341,0.504-0.512,1.447-0.512,2.83v2.896h-3.327V136.026z"/>
	<path class="st2" d="M290.182,132.74h3.31v2.253h-3.31V132.74z M290.182,136.026h3.31v8.638h-3.31V136.026z"/>
	<path class="st2" d="M296.576,138.824l-3.164-0.333c0.119-0.554,0.292-0.988,0.517-1.306c0.225-0.317,0.549-0.593,0.972-0.825
		c0.304-0.168,0.721-0.299,1.252-0.391c0.532-0.092,1.106-0.139,1.725-0.139c0.992,0,1.789,0.056,2.391,0.167
		c0.602,0.111,1.103,0.343,1.504,0.695c0.282,0.244,0.504,0.59,0.667,1.037s0.244,0.874,0.244,1.281v3.814
		c0,0.406,0.025,0.725,0.077,0.955c0.051,0.23,0.164,0.525,0.337,0.883h-3.107c-0.125-0.223-0.206-0.392-0.244-0.509
		c-0.038-0.116-0.076-0.299-0.114-0.549c-0.434,0.418-0.865,0.716-1.293,0.895c-0.585,0.239-1.266,0.358-2.042,0.358
		c-1.03,0-1.813-0.238-2.346-0.716c-0.534-0.478-0.801-1.065-0.801-1.765c0-0.656,0.192-1.196,0.578-1.619
		c0.385-0.423,1.095-0.737,2.131-0.943c1.241-0.249,2.047-0.424,2.416-0.524s0.759-0.231,1.171-0.395
		c0-0.406-0.084-0.691-0.252-0.854c-0.168-0.163-0.463-0.244-0.887-0.244c-0.542,0-0.949,0.087-1.22,0.26
		C296.876,138.195,296.705,138.45,296.576,138.824z M299.446,140.564c-0.455,0.163-0.93,0.307-1.423,0.432
		c-0.672,0.179-1.098,0.355-1.277,0.528c-0.184,0.179-0.276,0.383-0.276,0.61c0,0.26,0.091,0.473,0.272,0.639
		c0.182,0.165,0.449,0.248,0.801,0.248c0.369,0,0.711-0.09,1.029-0.269c0.317-0.179,0.542-0.397,0.675-0.655
		c0.133-0.257,0.199-0.592,0.199-1.004V140.564z"/>
	<path class="st2" d="M303.219,132.74h3.343v4.132c0.331-0.347,0.706-0.606,1.126-0.78s0.885-0.261,1.395-0.261
		c1.052,0,1.922,0.379,2.611,1.135c0.688,0.757,1.033,1.843,1.033,3.258c0,0.943-0.157,1.774-0.472,2.492
		c-0.314,0.719-0.75,1.256-1.306,1.61c-0.556,0.355-1.172,0.533-1.85,0.533c-0.58,0-1.111-0.125-1.594-0.374
		c-0.363-0.195-0.759-0.562-1.188-1.099v1.277h-3.099V132.74z M306.537,140.321c0,0.742,0.14,1.28,0.419,1.614
		c0.279,0.333,0.633,0.5,1.062,0.5c0.396,0,0.728-0.164,0.996-0.492s0.403-0.88,0.403-1.655c0-0.683-0.132-1.185-0.395-1.504
		c-0.263-0.32-0.582-0.48-0.956-0.48c-0.45,0-0.817,0.167-1.102,0.5C306.68,139.138,306.537,139.644,306.537,140.321z"/>
	<path class="st2" d="M312.96,132.74h3.318v11.924h-3.318V132.74z"/>
	<path class="st2" d="M325.933,141.167h-6.637c0.06,0.531,0.204,0.927,0.431,1.188c0.32,0.374,0.737,0.561,1.252,0.561
		c0.326,0,0.634-0.081,0.927-0.243c0.179-0.104,0.372-0.285,0.578-0.545l3.261,0.301c-0.499,0.867-1.101,1.489-1.806,1.866
		c-0.705,0.377-1.716,0.565-3.034,0.565c-1.144,0-2.044-0.161-2.7-0.484c-0.656-0.322-1.2-0.835-1.63-1.537
		c-0.431-0.702-0.647-1.527-0.647-2.477c0-1.35,0.433-2.442,1.297-3.277s2.059-1.253,3.583-1.253c1.236,0,2.212,0.188,2.928,0.562
		s1.261,0.916,1.635,1.627c0.374,0.71,0.561,1.635,0.561,2.773V141.167z M322.566,139.581c-0.065-0.64-0.237-1.099-0.516-1.375
		c-0.279-0.276-0.647-0.415-1.102-0.415c-0.526,0-0.946,0.209-1.261,0.627c-0.201,0.26-0.328,0.647-0.382,1.163H322.566z"/>
	<path class="st2" d="M325.403,142.265l3.286-0.309c0.135,0.39,0.325,0.669,0.569,0.837c0.244,0.169,0.569,0.253,0.976,0.253
		c0.444,0,0.789-0.095,1.033-0.284c0.19-0.142,0.285-0.317,0.285-0.528c0-0.238-0.125-0.422-0.374-0.552
		c-0.179-0.093-0.653-0.206-1.423-0.342c-1.149-0.2-1.948-0.386-2.396-0.557c-0.447-0.17-0.824-0.459-1.13-0.865
		s-0.459-0.869-0.459-1.389c0-0.569,0.166-1.06,0.496-1.471c0.331-0.412,0.786-0.72,1.366-0.923
		c0.581-0.203,1.358-0.305,2.334-0.305c1.03,0,1.791,0.079,2.281,0.236s0.9,0.401,1.228,0.731c0.328,0.331,0.601,0.778,0.817,1.343
		l-3.139,0.309c-0.082-0.276-0.217-0.479-0.407-0.61c-0.26-0.173-0.575-0.26-0.943-0.26c-0.374,0-0.646,0.066-0.817,0.199
		s-0.256,0.293-0.256,0.482c0,0.212,0.108,0.371,0.325,0.479s0.689,0.206,1.416,0.293c1.101,0.124,1.919,0.298,2.456,0.52
		s0.948,0.539,1.232,0.95c0.285,0.412,0.427,0.864,0.427,1.357c0,0.498-0.15,0.983-0.451,1.454
		c-0.301,0.472-0.775,0.847-1.423,1.125c-0.648,0.279-1.531,0.419-2.647,0.419c-1.578,0-2.702-0.225-3.371-0.675
		C326.022,143.734,325.593,143.095,325.403,142.265z"/>
</g>
<g>
	<path class="st2" d="M192.739,153.562h2.066c-0.71,1.573-1.223,3.025-1.537,4.359c-0.266,1.134-0.398,2.343-0.398,3.628
		c0,2.478,0.645,5.026,1.936,7.646h-2.066c-1.052-1.491-1.791-2.84-2.216-4.047c-0.426-1.206-0.638-2.471-0.638-3.794
		c0-1.372,0.224-2.676,0.671-3.912S191.73,154.912,192.739,153.562z"/>
	<path class="st2" d="M194.373,153.765h3.31v4.393c0.45-0.467,0.897-0.8,1.342-1.001c0.444-0.2,0.97-0.301,1.578-0.301
		c0.9,0,1.609,0.274,2.127,0.821c0.518,0.548,0.776,1.389,0.776,2.521v5.49h-3.326v-4.75c0-0.542-0.101-0.926-0.301-1.15
		c-0.201-0.226-0.483-0.338-0.846-0.338c-0.401,0-0.727,0.152-0.976,0.455c-0.25,0.304-0.374,0.849-0.374,1.635v4.148h-3.31V153.765
		z"/>
	<path class="st2" d="M204.173,153.765h3.31v2.253h-3.31V153.765z M204.173,157.051h3.31v8.638h-3.31V157.051z"/>
	<path class="st2" d="M206.997,163.289l3.286-0.309c0.135,0.39,0.325,0.669,0.569,0.837c0.244,0.169,0.569,0.253,0.976,0.253
		c0.444,0,0.789-0.095,1.033-0.284c0.19-0.142,0.285-0.317,0.285-0.528c0-0.238-0.125-0.422-0.374-0.552
		c-0.179-0.093-0.653-0.206-1.423-0.342c-1.149-0.2-1.948-0.386-2.396-0.557c-0.447-0.17-0.824-0.459-1.13-0.865
		s-0.459-0.869-0.459-1.389c0-0.569,0.166-1.06,0.496-1.471c0.331-0.412,0.786-0.72,1.366-0.923
		c0.581-0.203,1.358-0.305,2.334-0.305c1.03,0,1.791,0.079,2.281,0.236s0.9,0.401,1.228,0.731c0.328,0.331,0.601,0.778,0.817,1.343
		l-3.139,0.309c-0.082-0.276-0.217-0.479-0.407-0.61c-0.26-0.173-0.575-0.26-0.943-0.26c-0.374,0-0.646,0.066-0.817,0.199
		s-0.256,0.293-0.256,0.482c0,0.212,0.108,0.371,0.325,0.479s0.689,0.206,1.416,0.293c1.101,0.124,1.919,0.298,2.456,0.52
		s0.948,0.539,1.232,0.95c0.285,0.412,0.427,0.864,0.427,1.357c0,0.498-0.15,0.983-0.451,1.454
		c-0.301,0.472-0.775,0.847-1.423,1.125c-0.648,0.279-1.531,0.419-2.647,0.419c-1.578,0-2.702-0.225-3.371-0.675
		C207.616,164.759,207.186,164.119,206.997,163.289z"/>
	<path class="st2" d="M220.368,153.765v3.286h1.822v2.424h-1.822v3.061c0,0.368,0.035,0.611,0.106,0.73
		c0.108,0.184,0.298,0.275,0.569,0.275c0.244,0,0.585-0.07,1.025-0.211l0.244,2.285c-0.819,0.179-1.583,0.269-2.293,0.269
		c-0.824,0-1.432-0.105-1.822-0.317c-0.391-0.211-0.679-0.531-0.866-0.962s-0.281-1.128-0.281-2.092v-3.038h-1.22v-2.424h1.22
		v-1.586L220.368,153.765z"/>
	<path class="st2" d="M221.262,161.395c0-1.318,0.444-2.403,1.334-3.258c0.889-0.854,2.09-1.281,3.603-1.281
		c1.729,0,3.036,0.502,3.92,1.505c0.71,0.808,1.065,1.803,1.065,2.985c0,1.328-0.44,2.417-1.321,3.265
		c-0.881,0.85-2.1,1.273-3.656,1.273c-1.388,0-2.51-0.353-3.367-1.058C221.788,163.953,221.262,162.81,221.262,161.395z
		 M224.58,161.386c0,0.771,0.156,1.34,0.468,1.708c0.312,0.369,0.704,0.554,1.175,0.554c0.477,0,0.869-0.182,1.175-0.545
		c0.306-0.363,0.459-0.946,0.459-1.749c0-0.748-0.155-1.306-0.464-1.672c-0.309-0.365-0.691-0.549-1.146-0.549
		c-0.483,0-0.881,0.187-1.196,0.558S224.58,160.627,224.58,161.386z"/>
	<path class="st2" d="M231.379,157.051h3.099v1.415c0.298-0.612,0.606-1.034,0.923-1.265c0.317-0.23,0.709-0.346,1.175-0.346
		c0.488,0,1.022,0.152,1.603,0.456l-1.025,2.358c-0.391-0.163-0.7-0.244-0.927-0.244c-0.434,0-0.77,0.179-1.009,0.537
		c-0.341,0.504-0.512,1.447-0.512,2.83v2.896h-3.327V157.051z"/>
	<path class="st2" d="M236.763,153.765h3.31v2.253h-3.31V153.765z M236.763,157.051h3.31v8.638h-3.31V157.051z"/>
	<path class="st2" d="M246.614,162.305l3.147,0.358c-0.173,0.656-0.458,1.224-0.854,1.704c-0.396,0.479-0.901,0.853-1.517,1.118
		c-0.616,0.266-1.398,0.398-2.347,0.398c-0.916,0-1.679-0.086-2.29-0.256c-0.61-0.171-1.134-0.447-1.574-0.829
		c-0.439-0.382-0.784-0.83-1.033-1.345c-0.25-0.515-0.374-1.197-0.374-2.048c0-0.889,0.151-1.628,0.455-2.219
		c0.223-0.433,0.526-0.821,0.911-1.166c0.385-0.344,0.781-0.6,1.188-0.768c0.645-0.266,1.472-0.398,2.48-0.398
		c1.41,0,2.485,0.252,3.225,0.757c0.74,0.504,1.259,1.241,1.557,2.212l-3.115,0.415c-0.098-0.369-0.275-0.646-0.533-0.834
		c-0.258-0.187-0.604-0.28-1.037-0.28c-0.548,0-0.991,0.196-1.33,0.589s-0.508,0.986-0.508,1.782c0,0.709,0.168,1.247,0.504,1.615
		c0.336,0.368,0.765,0.552,1.285,0.552c0.434,0,0.798-0.111,1.094-0.333C246.246,163.107,246.467,162.766,246.614,162.305z"/>
	<path class="st2" d="M252.868,159.849l-3.164-0.333c0.119-0.554,0.292-0.988,0.517-1.306c0.225-0.317,0.549-0.593,0.972-0.825
		c0.304-0.168,0.721-0.299,1.252-0.391c0.532-0.092,1.106-0.139,1.725-0.139c0.992,0,1.789,0.056,2.391,0.167
		c0.602,0.111,1.103,0.343,1.504,0.695c0.282,0.244,0.504,0.59,0.667,1.037s0.244,0.874,0.244,1.281v3.814
		c0,0.406,0.025,0.725,0.077,0.955c0.051,0.23,0.164,0.525,0.337,0.883h-3.107c-0.125-0.223-0.206-0.392-0.244-0.509
		c-0.038-0.116-0.076-0.299-0.114-0.549c-0.434,0.418-0.865,0.716-1.293,0.895c-0.585,0.239-1.266,0.358-2.042,0.358
		c-1.03,0-1.813-0.238-2.346-0.716c-0.534-0.478-0.801-1.065-0.801-1.765c0-0.656,0.192-1.196,0.578-1.619
		c0.385-0.423,1.095-0.737,2.131-0.943c1.241-0.249,2.047-0.424,2.416-0.524s0.759-0.231,1.171-0.395
		c0-0.406-0.084-0.691-0.252-0.854c-0.168-0.163-0.463-0.244-0.887-0.244c-0.542,0-0.949,0.087-1.22,0.26
		C253.168,159.22,252.997,159.475,252.868,159.849z M255.738,161.589c-0.455,0.163-0.93,0.307-1.423,0.432
		c-0.672,0.179-1.098,0.355-1.277,0.528c-0.184,0.179-0.276,0.383-0.276,0.61c0,0.26,0.091,0.473,0.272,0.639
		c0.182,0.165,0.449,0.248,0.801,0.248c0.369,0,0.711-0.09,1.029-0.269c0.317-0.179,0.542-0.397,0.675-0.655
		c0.133-0.257,0.199-0.592,0.199-1.004V161.589z"/>
	<path class="st2" d="M259.641,153.765h3.318v11.924h-3.318V153.765z"/>
	<path class="st2" d="M278.289,153.765v11.924h-3.099v-1.277c-0.434,0.543-0.83,0.908-1.188,1.099
		c-0.477,0.249-1.008,0.374-1.594,0.374c-1.177,0-2.075-0.447-2.696-1.342c-0.621-0.895-0.932-1.982-0.932-3.262
		c0-1.432,0.343-2.526,1.029-3.286c0.686-0.759,1.558-1.139,2.615-1.139c0.515,0,0.982,0.087,1.403,0.261
		c0.42,0.174,0.793,0.434,1.118,0.78v-4.132H278.289z M274.971,161.346c0-0.678-0.144-1.184-0.431-1.518
		c-0.287-0.333-0.65-0.5-1.09-0.5c-0.385,0-0.708,0.16-0.968,0.48c-0.26,0.319-0.39,0.856-0.39,1.61
		c0,0.704,0.134,1.221,0.402,1.549s0.601,0.492,0.997,0.492c0.423,0,0.775-0.165,1.057-0.496S274.971,162.094,274.971,161.346z"/>
	<path class="st2" d="M281.892,159.849l-3.164-0.333c0.119-0.554,0.292-0.988,0.517-1.306c0.225-0.317,0.549-0.593,0.972-0.825
		c0.304-0.168,0.721-0.299,1.252-0.391c0.532-0.092,1.106-0.139,1.725-0.139c0.992,0,1.789,0.056,2.391,0.167
		c0.602,0.111,1.103,0.343,1.504,0.695c0.282,0.244,0.504,0.59,0.667,1.037s0.244,0.874,0.244,1.281v3.814
		c0,0.406,0.025,0.725,0.077,0.955c0.051,0.23,0.164,0.525,0.337,0.883h-3.107c-0.125-0.223-0.206-0.392-0.244-0.509
		c-0.038-0.116-0.076-0.299-0.114-0.549c-0.434,0.418-0.865,0.716-1.293,0.895c-0.585,0.239-1.266,0.358-2.042,0.358
		c-1.03,0-1.813-0.238-2.346-0.716c-0.534-0.478-0.801-1.065-0.801-1.765c0-0.656,0.192-1.196,0.578-1.619
		c0.385-0.423,1.095-0.737,2.131-0.943c1.241-0.249,2.047-0.424,2.416-0.524s0.759-0.231,1.171-0.395
		c0-0.406-0.084-0.691-0.252-0.854c-0.168-0.163-0.463-0.244-0.887-0.244c-0.542,0-0.949,0.087-1.22,0.26
		C282.193,159.22,282.022,159.475,281.892,159.849z M284.763,161.589c-0.455,0.163-0.93,0.307-1.423,0.432
		c-0.672,0.179-1.098,0.355-1.277,0.528c-0.184,0.179-0.276,0.383-0.276,0.61c0,0.26,0.091,0.473,0.272,0.639
		c0.182,0.165,0.449,0.248,0.801,0.248c0.369,0,0.711-0.09,1.029-0.269c0.317-0.179,0.542-0.397,0.675-0.655
		c0.133-0.257,0.199-0.592,0.199-1.004V161.589z"/>
	<path class="st2" d="M292.545,153.765v3.286h1.822v2.424h-1.822v3.061c0,0.368,0.035,0.611,0.106,0.73
		c0.108,0.184,0.298,0.275,0.569,0.275c0.244,0,0.585-0.07,1.025-0.211l0.244,2.285c-0.819,0.179-1.583,0.269-2.293,0.269
		c-0.824,0-1.432-0.105-1.822-0.317c-0.391-0.211-0.679-0.531-0.866-0.962s-0.281-1.128-0.281-2.092v-3.038h-1.22v-2.424h1.22
		v-1.586L292.545,153.765z"/>
	<path class="st2" d="M296.864,159.849l-3.164-0.333c0.119-0.554,0.292-0.988,0.517-1.306c0.225-0.317,0.549-0.593,0.972-0.825
		c0.304-0.168,0.721-0.299,1.252-0.391c0.532-0.092,1.106-0.139,1.725-0.139c0.992,0,1.789,0.056,2.391,0.167
		c0.602,0.111,1.103,0.343,1.504,0.695c0.282,0.244,0.504,0.59,0.667,1.037s0.244,0.874,0.244,1.281v3.814
		c0,0.406,0.025,0.725,0.077,0.955c0.051,0.23,0.164,0.525,0.337,0.883h-3.107c-0.125-0.223-0.206-0.392-0.244-0.509
		c-0.038-0.116-0.076-0.299-0.114-0.549c-0.434,0.418-0.865,0.716-1.293,0.895c-0.585,0.239-1.266,0.358-2.042,0.358
		c-1.03,0-1.813-0.238-2.346-0.716c-0.534-0.478-0.801-1.065-0.801-1.765c0-0.656,0.192-1.196,0.578-1.619
		c0.385-0.423,1.095-0.737,2.131-0.943c1.241-0.249,2.047-0.424,2.416-0.524s0.759-0.231,1.171-0.395
		c0-0.406-0.084-0.691-0.252-0.854c-0.168-0.163-0.463-0.244-0.887-0.244c-0.542,0-0.949,0.087-1.22,0.26
		C297.164,159.22,296.993,159.475,296.864,159.849z M299.734,161.589c-0.455,0.163-0.93,0.307-1.423,0.432
		c-0.672,0.179-1.098,0.355-1.277,0.528c-0.184,0.179-0.276,0.383-0.276,0.61c0,0.26,0.091,0.473,0.272,0.639
		c0.182,0.165,0.449,0.248,0.801,0.248c0.369,0,0.711-0.09,1.029-0.269c0.317-0.179,0.542-0.397,0.675-0.655
		c0.133-0.257,0.199-0.592,0.199-1.004V161.589z"/>
	<path class="st2" d="M307.424,157.441c0.447,1.236,0.671,2.54,0.671,3.912c0,1.323-0.213,2.588-0.639,3.794
		c-0.425,1.207-1.164,2.556-2.216,4.047h-2.065c1.29-2.619,1.936-5.168,1.936-7.646c0-1.285-0.133-2.494-0.398-3.628
		c-0.314-1.334-0.827-2.786-1.537-4.359h2.065C306.248,154.912,306.976,156.205,307.424,157.441z"/>
</g>
<g>
	<path class="st2" d="M611.335,185.25h14.792v3.889h-4.963v11.859h-4.866v-11.859h-4.963V185.25z"/>
</g>
<g>
	<path class="st2" d="M626.511,196.656h2.806v-2.819h2.366v2.819h2.819v2.366h-2.819v2.806h-2.366v-2.806h-2.806V196.656z"/>
	<path class="st2" d="M644.104,194.877l-2.966,0.366c-0.078-0.415-0.209-0.708-0.392-0.879c-0.184-0.171-0.409-0.257-0.678-0.257
		c-0.483,0-0.859,0.245-1.128,0.732c-0.195,0.352-0.34,1.104-0.433,2.256c0.356-0.36,0.723-0.628,1.1-0.802
		c0.375-0.173,0.81-0.26,1.303-0.26c0.957,0,1.767,0.342,2.429,1.025c0.661,0.684,0.992,1.551,0.992,2.601
		c0,0.708-0.167,1.354-0.502,1.94c-0.334,0.586-0.798,1.029-1.392,1.329c-0.593,0.301-1.336,0.451-2.23,0.451
		c-1.074,0-1.936-0.184-2.585-0.55s-1.168-0.951-1.557-1.754c-0.388-0.804-0.582-1.866-0.582-3.19c0-1.938,0.407-3.357,1.224-4.259
		c0.814-0.9,1.945-1.351,3.391-1.351c0.854,0,1.529,0.099,2.025,0.296c0.495,0.198,0.906,0.487,1.234,0.868
		C643.684,193.822,643.933,194.301,644.104,194.877z M638.612,199.66c0,0.581,0.146,1.036,0.439,1.365
		c0.293,0.33,0.651,0.494,1.076,0.494c0.391,0,0.718-0.148,0.981-0.446s0.396-0.742,0.396-1.333c0-0.605-0.137-1.066-0.41-1.385
		c-0.273-0.316-0.613-0.476-1.018-0.476c-0.416,0-0.764,0.153-1.044,0.462C638.751,198.648,638.612,199.088,638.612,199.66z"/>
</g>
<g>
	<path class="st2" d="M646.573,196.975h2.227v0.908c0.32-0.379,0.645-0.648,0.971-0.809c0.327-0.16,0.721-0.24,1.183-0.24
		c0.497,0,0.891,0.088,1.18,0.264s0.526,0.438,0.71,0.785c0.374-0.406,0.716-0.683,1.024-0.829c0.308-0.146,0.688-0.22,1.141-0.22
		c0.667,0,1.188,0.198,1.563,0.595c0.374,0.396,0.562,1.017,0.562,1.86v3.908h-2.391v-3.545c0-0.281-0.055-0.49-0.163-0.627
		c-0.16-0.215-0.358-0.322-0.596-0.322c-0.28,0-0.507,0.102-0.678,0.305s-0.257,0.529-0.257,0.979v3.211h-2.391v-3.428
		c0-0.273-0.016-0.459-0.047-0.557c-0.051-0.156-0.14-0.282-0.265-0.378c-0.126-0.096-0.272-0.144-0.441-0.144
		c-0.274,0-0.499,0.104-0.676,0.311s-0.265,0.547-0.265,1.02v3.176h-2.391V196.975z"/>
	<path class="st2" d="M657.35,200.104c0-0.949,0.32-1.731,0.961-2.347s1.506-0.923,2.596-0.923c1.246,0,2.188,0.361,2.824,1.084
		c0.512,0.582,0.768,1.299,0.768,2.15c0,0.957-0.317,1.741-0.952,2.353s-1.513,0.917-2.634,0.917c-1,0-1.809-0.254-2.426-0.762
		C657.729,201.947,657.35,201.123,657.35,200.104z M659.741,200.098c0,0.555,0.112,0.965,0.337,1.23s0.507,0.398,0.847,0.398
		c0.344,0,0.626-0.131,0.847-0.393s0.331-0.682,0.331-1.26c0-0.539-0.111-0.94-0.334-1.204s-0.498-0.396-0.826-0.396
		c-0.348,0-0.635,0.134-0.861,0.401S659.741,199.551,659.741,200.098z"/>
	<path class="st2" d="M665.034,196.975h2.221v1.014c0.332-0.414,0.668-0.71,1.008-0.888s0.754-0.267,1.242-0.267
		c0.66,0,1.177,0.196,1.55,0.589s0.56,0.999,0.56,1.819v3.955h-2.396v-3.422c0-0.391-0.072-0.667-0.217-0.829
		s-0.348-0.243-0.609-0.243c-0.289,0-0.523,0.109-0.703,0.328s-0.27,0.611-0.27,1.178v2.988h-2.385V196.975z"/>
	<path class="st2" d="M675.304,194.607v2.367h1.313v1.746h-1.313v2.205c0,0.265,0.025,0.44,0.076,0.525
		c0.078,0.133,0.215,0.199,0.41,0.199c0.176,0,0.422-0.051,0.738-0.152l0.176,1.646c-0.59,0.129-1.141,0.193-1.652,0.193
		c-0.594,0-1.031-0.076-1.313-0.229s-0.489-0.383-0.624-0.693c-0.135-0.31-0.202-0.813-0.202-1.507v-2.188h-0.879v-1.746h0.879
		v-1.143L675.304,194.607z"/>
	<path class="st2" d="M676.133,194.607h2.385v3.164c0.324-0.336,0.646-0.576,0.967-0.721s0.699-0.217,1.137-0.217
		c0.648,0,1.159,0.197,1.532,0.592s0.56,1,0.56,1.816v3.955h-2.396v-3.422c0-0.391-0.072-0.667-0.217-0.829
		s-0.348-0.243-0.609-0.243c-0.289,0-0.523,0.109-0.703,0.328s-0.27,0.611-0.27,1.178v2.988h-2.385V194.607z"/>
	<path class="st2" d="M682.179,201.469l2.367-0.223c0.098,0.281,0.234,0.482,0.41,0.604s0.41,0.182,0.703,0.182
		c0.32,0,0.568-0.068,0.744-0.205c0.137-0.102,0.205-0.228,0.205-0.38c0-0.172-0.09-0.305-0.27-0.397
		c-0.129-0.066-0.471-0.148-1.025-0.246c-0.828-0.145-1.403-0.278-1.726-0.401c-0.322-0.122-0.594-0.33-0.814-0.623
		s-0.331-0.626-0.331-1.001c0-0.41,0.119-0.763,0.357-1.06s0.566-0.518,0.984-0.664s0.979-0.22,1.682-0.22
		c0.742,0,1.29,0.057,1.644,0.17s0.648,0.289,0.885,0.527s0.433,0.561,0.589,0.967l-2.262,0.223
		c-0.059-0.199-0.156-0.346-0.293-0.439c-0.188-0.125-0.414-0.188-0.68-0.188c-0.27,0-0.466,0.048-0.589,0.144
		s-0.185,0.211-0.185,0.348c0,0.152,0.078,0.268,0.234,0.346s0.496,0.147,1.02,0.21c0.793,0.09,1.383,0.215,1.77,0.375
		s0.683,0.389,0.888,0.685c0.205,0.297,0.308,0.623,0.308,0.978c0,0.359-0.108,0.709-0.325,1.048
		c-0.217,0.34-0.559,0.61-1.025,0.811c-0.467,0.201-1.103,0.302-1.907,0.302c-1.137,0-1.946-0.162-2.429-0.486
		S682.316,202.066,682.179,201.469z"/>
</g>
<g>
	<path class="st2" d="M473.947,132.74h5.474c1.079,0,1.951,0.146,2.615,0.439s1.213,0.713,1.646,1.261
		c0.435,0.548,0.749,1.185,0.943,1.911c0.195,0.727,0.293,1.497,0.293,2.311c0,1.273-0.145,2.262-0.435,2.964
		s-0.693,1.291-1.208,1.766c-0.516,0.475-1.068,0.79-1.659,0.947c-0.808,0.217-1.54,0.325-2.196,0.325h-5.474V132.74z
		 M477.631,135.441v6.515h0.902c0.771,0,1.318-0.086,1.644-0.257s0.58-0.469,0.765-0.895c0.184-0.426,0.276-1.115,0.276-2.069
		c0-1.264-0.206-2.129-0.618-2.595c-0.412-0.467-1.096-0.699-2.05-0.699H477.631z"/>
	<path class="st2" d="M494.659,141.167h-6.637c0.06,0.531,0.203,0.927,0.431,1.188c0.32,0.374,0.737,0.561,1.253,0.561
		c0.325,0,0.634-0.081,0.927-0.243c0.179-0.104,0.371-0.285,0.577-0.545l3.262,0.301c-0.499,0.867-1.101,1.489-1.806,1.866
		s-1.716,0.565-3.033,0.565c-1.145,0-2.045-0.161-2.7-0.484c-0.656-0.322-1.2-0.835-1.631-1.537
		c-0.432-0.702-0.646-1.527-0.646-2.477c0-1.35,0.432-2.442,1.297-3.277s2.059-1.253,3.583-1.253c1.236,0,2.212,0.188,2.928,0.562
		s1.261,0.916,1.635,1.627c0.374,0.71,0.562,1.635,0.562,2.773V141.167z M491.291,139.581c-0.065-0.64-0.237-1.099-0.517-1.375
		s-0.646-0.415-1.103-0.415c-0.525,0-0.946,0.209-1.261,0.627c-0.2,0.26-0.328,0.647-0.382,1.163H491.291z"/>
	<path class="st2" d="M494.73,147.95v-11.924h3.099v1.277c0.429-0.537,0.821-0.9,1.18-1.09c0.482-0.255,1.017-0.383,1.603-0.383
		c1.154,0,2.048,0.442,2.68,1.326s0.947,1.977,0.947,3.277c0,1.438-0.345,2.534-1.033,3.29c-0.688,0.757-1.559,1.135-2.61,1.135
		c-0.51,0-0.975-0.087-1.395-0.261c-0.421-0.173-0.796-0.431-1.127-0.772v4.124H494.73z M498.048,140.37
		c0,0.683,0.144,1.189,0.431,1.521c0.288,0.331,0.651,0.496,1.09,0.496c0.386,0,0.708-0.158,0.969-0.476
		c0.26-0.317,0.39-0.855,0.39-1.614c0-0.7-0.136-1.214-0.406-1.542c-0.271-0.327-0.602-0.491-0.992-0.491
		c-0.423,0-0.775,0.165-1.058,0.496C498.189,139.09,498.048,139.627,498.048,140.37z"/>
	<path class="st2" d="M513.947,141.167h-6.637c0.06,0.531,0.203,0.927,0.431,1.188c0.32,0.374,0.737,0.561,1.253,0.561
		c0.325,0,0.634-0.081,0.927-0.243c0.179-0.104,0.371-0.285,0.577-0.545l3.262,0.301c-0.499,0.867-1.101,1.489-1.806,1.866
		c-0.705,0.377-1.716,0.565-3.033,0.565c-1.145,0-2.045-0.161-2.7-0.484c-0.656-0.322-1.2-0.835-1.631-1.537
		c-0.432-0.702-0.646-1.527-0.646-2.477c0-1.35,0.432-2.442,1.297-3.277s2.059-1.253,3.583-1.253c1.236,0,2.212,0.188,2.928,0.562
		c0.716,0.374,1.261,0.916,1.635,1.627c0.374,0.71,0.562,1.635,0.562,2.773V141.167z M510.579,139.581
		c-0.065-0.64-0.237-1.099-0.517-1.375s-0.646-0.415-1.103-0.415c-0.525,0-0.946,0.209-1.261,0.627
		c-0.2,0.26-0.328,0.647-0.382,1.163H510.579z"/>
	<path class="st2" d="M514.001,136.026h3.083v1.407c0.461-0.574,0.927-0.985,1.398-1.232c0.472-0.246,1.047-0.37,1.725-0.37
		c0.916,0,1.634,0.272,2.151,0.817s0.776,1.387,0.776,2.525v5.49h-3.326v-4.75c0-0.542-0.101-0.926-0.301-1.15
		c-0.201-0.226-0.482-0.338-0.846-0.338c-0.401,0-0.727,0.152-0.977,0.455c-0.249,0.304-0.374,0.849-0.374,1.635v4.148h-3.311
		V136.026z"/>
	<path class="st2" d="M532.74,132.74v11.924h-3.1v-1.277c-0.434,0.543-0.829,0.908-1.187,1.099
		c-0.478,0.249-1.009,0.374-1.595,0.374c-1.177,0-2.075-0.447-2.696-1.342s-0.931-1.982-0.931-3.262
		c0-1.432,0.343-2.526,1.028-3.286c0.687-0.759,1.558-1.139,2.615-1.139c0.515,0,0.982,0.087,1.402,0.261
		c0.421,0.174,0.793,0.434,1.119,0.78v-4.132H532.74z M529.421,140.321c0-0.678-0.145-1.184-0.432-1.518
		c-0.287-0.333-0.65-0.5-1.09-0.5c-0.385,0-0.707,0.16-0.968,0.48c-0.26,0.319-0.391,0.856-0.391,1.61
		c0,0.704,0.135,1.221,0.403,1.549c0.268,0.328,0.6,0.492,0.996,0.492c0.423,0,0.775-0.165,1.058-0.496
		C529.28,141.608,529.421,141.069,529.421,140.321z"/>
	<path class="st2" d="M542.879,141.167h-6.637c0.06,0.531,0.203,0.927,0.431,1.188c0.32,0.374,0.737,0.561,1.253,0.561
		c0.325,0,0.634-0.081,0.927-0.243c0.179-0.104,0.371-0.285,0.577-0.545l3.262,0.301c-0.499,0.867-1.101,1.489-1.806,1.866
		s-1.716,0.565-3.033,0.565c-1.145,0-2.045-0.161-2.7-0.484c-0.656-0.322-1.2-0.835-1.631-1.537
		c-0.432-0.702-0.646-1.527-0.646-2.477c0-1.35,0.432-2.442,1.297-3.277s2.059-1.253,3.583-1.253c1.236,0,2.212,0.188,2.928,0.562
		s1.261,0.916,1.635,1.627c0.374,0.71,0.562,1.635,0.562,2.773V141.167z M539.512,139.581c-0.065-0.64-0.237-1.099-0.517-1.375
		s-0.646-0.415-1.103-0.415c-0.525,0-0.946,0.209-1.261,0.627c-0.2,0.26-0.328,0.647-0.382,1.163H539.512z"/>
	<path class="st2" d="M542.934,136.026h3.083v1.407c0.461-0.574,0.927-0.985,1.398-1.232c0.472-0.246,1.047-0.37,1.725-0.37
		c0.916,0,1.634,0.272,2.151,0.817s0.776,1.387,0.776,2.525v5.49h-3.326v-4.75c0-0.542-0.101-0.926-0.301-1.15
		c-0.201-0.226-0.482-0.338-0.846-0.338c-0.401,0-0.727,0.152-0.977,0.455c-0.249,0.304-0.374,0.849-0.374,1.635v4.148h-3.311
		V136.026z"/>
	<path class="st2" d="M556.573,132.74v3.286h1.821v2.424h-1.821v3.061c0,0.368,0.035,0.611,0.105,0.73
		c0.108,0.184,0.298,0.275,0.569,0.275c0.244,0,0.586-0.07,1.024-0.211l0.244,2.285c-0.818,0.179-1.583,0.269-2.293,0.269
		c-0.824,0-1.432-0.105-1.822-0.317c-0.391-0.211-0.679-0.531-0.866-0.962s-0.28-1.128-0.28-2.092v-3.038h-1.221v-2.424h1.221
		v-1.586L556.573,132.74z"/>
	<path class="st2" d="M561.277,132.74h3.852l2.684,8.581l2.649-8.581h3.739l-4.428,11.924h-3.993L561.277,132.74z"/>
	<path class="st2" d="M575.753,138.824l-3.164-0.333c0.12-0.554,0.292-0.988,0.517-1.306c0.226-0.317,0.55-0.593,0.973-0.825
		c0.303-0.168,0.721-0.299,1.252-0.391s1.106-0.139,1.725-0.139c0.992,0,1.789,0.056,2.391,0.167
		c0.603,0.111,1.104,0.343,1.505,0.695c0.282,0.244,0.504,0.59,0.667,1.037s0.244,0.874,0.244,1.281v3.814
		c0,0.406,0.025,0.725,0.077,0.955s0.164,0.525,0.338,0.883h-3.107c-0.125-0.223-0.206-0.392-0.244-0.509
		c-0.038-0.116-0.075-0.299-0.113-0.549c-0.435,0.418-0.865,0.716-1.293,0.895c-0.586,0.239-1.267,0.358-2.042,0.358
		c-1.03,0-1.813-0.238-2.347-0.716s-0.801-1.065-0.801-1.765c0-0.656,0.192-1.196,0.577-1.619s1.096-0.737,2.131-0.943
		c1.242-0.249,2.047-0.424,2.416-0.524c0.368-0.101,0.759-0.231,1.171-0.395c0-0.406-0.084-0.691-0.252-0.854
		c-0.168-0.163-0.464-0.244-0.887-0.244c-0.542,0-0.948,0.087-1.22,0.26C576.054,138.195,575.884,138.45,575.753,138.824z
		 M578.624,140.564c-0.455,0.163-0.93,0.307-1.423,0.432c-0.673,0.179-1.099,0.355-1.277,0.528c-0.185,0.179-0.276,0.383-0.276,0.61
		c0,0.26,0.091,0.473,0.272,0.639c0.182,0.165,0.448,0.248,0.801,0.248c0.369,0,0.712-0.09,1.029-0.269s0.542-0.397,0.675-0.655
		c0.133-0.257,0.199-0.592,0.199-1.004V140.564z"/>
	<path class="st2" d="M582.413,136.026h3.099v1.415c0.298-0.612,0.605-1.034,0.923-1.265s0.709-0.346,1.176-0.346
		c0.487,0,1.021,0.152,1.602,0.456l-1.024,2.358c-0.391-0.163-0.699-0.244-0.928-0.244c-0.434,0-0.77,0.179-1.008,0.537
		c-0.342,0.504-0.513,1.447-0.513,2.83v2.896h-3.326V136.026z"/>
	<path class="st2" d="M587.763,132.74h3.311v2.253h-3.311V132.74z M587.763,136.026h3.311v8.638h-3.311V136.026z"/>
	<path class="st2" d="M594.157,138.824l-3.164-0.333c0.12-0.554,0.292-0.988,0.517-1.306c0.226-0.317,0.55-0.593,0.973-0.825
		c0.303-0.168,0.721-0.299,1.252-0.391s1.106-0.139,1.725-0.139c0.992,0,1.789,0.056,2.391,0.167
		c0.603,0.111,1.104,0.343,1.505,0.695c0.282,0.244,0.504,0.59,0.667,1.037s0.244,0.874,0.244,1.281v3.814
		c0,0.406,0.025,0.725,0.077,0.955s0.164,0.525,0.338,0.883h-3.107c-0.125-0.223-0.206-0.392-0.244-0.509
		c-0.038-0.116-0.075-0.299-0.113-0.549c-0.435,0.418-0.865,0.716-1.293,0.895c-0.586,0.239-1.267,0.358-2.042,0.358
		c-1.03,0-1.813-0.238-2.347-0.716s-0.801-1.065-0.801-1.765c0-0.656,0.192-1.196,0.577-1.619s1.096-0.737,2.131-0.943
		c1.242-0.249,2.047-0.424,2.416-0.524c0.368-0.101,0.759-0.231,1.171-0.395c0-0.406-0.084-0.691-0.252-0.854
		c-0.168-0.163-0.464-0.244-0.887-0.244c-0.542,0-0.948,0.087-1.22,0.26C594.457,138.195,594.287,138.45,594.157,138.824z
		 M597.028,140.564c-0.455,0.163-0.93,0.307-1.423,0.432c-0.673,0.179-1.099,0.355-1.277,0.528c-0.185,0.179-0.276,0.383-0.276,0.61
		c0,0.26,0.091,0.473,0.272,0.639c0.182,0.165,0.448,0.248,0.801,0.248c0.369,0,0.712-0.09,1.029-0.269s0.542-0.397,0.675-0.655
		c0.133-0.257,0.199-0.592,0.199-1.004V140.564z"/>
	<path class="st2" d="M600.8,132.74h3.343v4.132c0.331-0.347,0.706-0.606,1.127-0.78c0.42-0.174,0.885-0.261,1.395-0.261
		c1.052,0,1.922,0.379,2.61,1.135c0.688,0.757,1.033,1.843,1.033,3.258c0,0.943-0.157,1.774-0.472,2.492
		c-0.314,0.719-0.75,1.256-1.306,1.61c-0.556,0.355-1.172,0.533-1.85,0.533c-0.581,0-1.112-0.125-1.595-0.374
		c-0.363-0.195-0.759-0.562-1.188-1.099v1.277H600.8V132.74z M604.118,140.321c0,0.742,0.14,1.28,0.419,1.614
		c0.279,0.333,0.633,0.5,1.062,0.5c0.396,0,0.728-0.164,0.996-0.492s0.402-0.88,0.402-1.655c0-0.683-0.131-1.185-0.395-1.504
		c-0.263-0.32-0.581-0.48-0.955-0.48c-0.45,0-0.817,0.167-1.103,0.5C604.261,139.138,604.118,139.644,604.118,140.321z"/>
	<path class="st2" d="M610.541,132.74h3.318v11.924h-3.318V132.74z"/>
	<path class="st2" d="M623.515,141.167h-6.637c0.06,0.531,0.203,0.927,0.431,1.188c0.32,0.374,0.737,0.561,1.253,0.561
		c0.325,0,0.634-0.081,0.927-0.243c0.179-0.104,0.371-0.285,0.577-0.545l3.262,0.301c-0.499,0.867-1.101,1.489-1.806,1.866
		s-1.716,0.565-3.033,0.565c-1.145,0-2.045-0.161-2.7-0.484c-0.656-0.322-1.2-0.835-1.631-1.537
		c-0.432-0.702-0.646-1.527-0.646-2.477c0-1.35,0.432-2.442,1.297-3.277s2.059-1.253,3.583-1.253c1.236,0,2.212,0.188,2.928,0.562
		s1.261,0.916,1.635,1.627c0.374,0.71,0.562,1.635,0.562,2.773V141.167z M620.148,139.581c-0.065-0.64-0.237-1.099-0.517-1.375
		s-0.646-0.415-1.103-0.415c-0.525,0-0.946,0.209-1.261,0.627c-0.2,0.26-0.328,0.647-0.382,1.163H620.148z"/>
</g>
<g>
	<path class="st4" d="M497.18,161.37v-2.481h5.693v5.084c-1.09,0.742-2.054,1.248-2.892,1.517c-0.837,0.269-1.831,0.402-2.98,0.402
		c-1.415,0-2.568-0.241-3.461-0.724c-0.892-0.482-1.583-1.201-2.073-2.155c-0.491-0.954-0.736-2.05-0.736-3.286
		c0-1.301,0.269-2.433,0.805-3.396c0.537-0.962,1.323-1.692,2.359-2.191c0.808-0.386,1.895-0.578,3.261-0.578
		c1.318,0,2.304,0.119,2.957,0.358c0.653,0.238,1.195,0.608,1.626,1.11c0.432,0.501,0.756,1.137,0.973,1.907l-3.555,0.634
		c-0.146-0.45-0.395-0.794-0.744-1.033c-0.35-0.238-0.796-0.357-1.338-0.357c-0.808,0-1.452,0.28-1.932,0.842
		s-0.72,1.449-0.72,2.664c0,1.29,0.242,2.212,0.728,2.765c0.485,0.554,1.162,0.83,2.029,0.83c0.412,0,0.806-0.06,1.18-0.179
		c0.374-0.12,0.803-0.323,1.285-0.61v-1.122H497.18z"/>
	<path class="st4" d="M502.82,161.395c0-1.318,0.444-2.403,1.334-3.258c0.889-0.854,2.09-1.281,3.603-1.281
		c1.729,0,3.037,0.502,3.921,1.505c0.71,0.808,1.065,1.803,1.065,2.985c0,1.328-0.44,2.417-1.322,3.265
		c-0.881,0.85-2.1,1.273-3.655,1.273c-1.389,0-2.511-0.353-3.367-1.058C503.345,163.953,502.82,162.81,502.82,161.395z
		 M506.138,161.386c0,0.771,0.156,1.34,0.468,1.708c0.312,0.369,0.703,0.554,1.175,0.554c0.478,0,0.869-0.182,1.176-0.545
		c0.306-0.363,0.459-0.946,0.459-1.749c0-0.748-0.154-1.306-0.463-1.672c-0.31-0.365-0.691-0.549-1.147-0.549
		c-0.482,0-0.881,0.187-1.195,0.558S506.138,160.627,506.138,161.386z"/>
	<path class="st4" d="M512.464,161.395c0-1.318,0.444-2.403,1.334-3.258c0.889-0.854,2.09-1.281,3.603-1.281
		c1.729,0,3.037,0.502,3.921,1.505c0.71,0.808,1.065,1.803,1.065,2.985c0,1.328-0.44,2.417-1.322,3.265
		c-0.881,0.85-2.1,1.273-3.655,1.273c-1.389,0-2.511-0.353-3.367-1.058C512.99,163.953,512.464,162.81,512.464,161.395z
		 M515.783,161.386c0,0.771,0.156,1.34,0.468,1.708c0.312,0.369,0.703,0.554,1.175,0.554c0.478,0,0.869-0.182,1.176-0.545
		c0.306-0.363,0.459-0.946,0.459-1.749c0-0.748-0.154-1.306-0.463-1.672c-0.31-0.365-0.691-0.549-1.147-0.549
		c-0.482,0-0.881,0.187-1.195,0.558S515.783,160.627,515.783,161.386z"/>
	<path class="st4" d="M531.608,153.765v11.924h-3.1v-1.277c-0.434,0.543-0.829,0.908-1.187,1.099
		c-0.478,0.249-1.009,0.374-1.595,0.374c-1.177,0-2.075-0.447-2.696-1.342s-0.931-1.982-0.931-3.262
		c0-1.432,0.343-2.526,1.028-3.286c0.687-0.759,1.558-1.139,2.615-1.139c0.515,0,0.982,0.087,1.402,0.261
		c0.421,0.174,0.793,0.434,1.119,0.78v-4.132H531.608z M528.289,161.346c0-0.678-0.145-1.184-0.432-1.518
		c-0.287-0.333-0.65-0.5-1.09-0.5c-0.385,0-0.707,0.16-0.968,0.48c-0.26,0.319-0.391,0.856-0.391,1.61
		c0,0.704,0.135,1.221,0.403,1.549c0.268,0.328,0.6,0.492,0.996,0.492c0.423,0,0.775-0.165,1.058-0.496
		C528.148,162.633,528.289,162.094,528.289,161.346z"/>
</g>
<g>
	<path class="st2" d="M539.504,161.947h-3.091v-0.31c0-0.525,0.06-0.952,0.179-1.28s0.297-0.628,0.533-0.899
		c0.235-0.271,0.766-0.748,1.59-1.431c0.439-0.358,0.659-0.687,0.659-0.984s-0.089-0.53-0.265-0.695
		c-0.177-0.166-0.443-0.248-0.801-0.248c-0.386,0-0.704,0.127-0.956,0.382s-0.413,0.699-0.484,1.334l-3.155-0.391
		c0.108-1.16,0.53-2.094,1.265-2.802c0.734-0.707,1.861-1.062,3.38-1.062c1.182,0,2.136,0.247,2.862,0.74
		c0.987,0.667,1.48,1.557,1.48,2.668c0,0.461-0.128,0.905-0.383,1.334c-0.255,0.428-0.775,0.951-1.562,1.569
		c-0.547,0.434-0.893,0.782-1.036,1.045C539.576,161.182,539.504,161.524,539.504,161.947z M536.308,162.769h3.31v2.92h-3.31
		V162.769z"/>
	<path class="st2" d="M545.978,161.395c0-1.318,0.444-2.403,1.334-3.258c0.889-0.854,2.09-1.281,3.603-1.281
		c1.729,0,3.037,0.502,3.921,1.505c0.71,0.808,1.065,1.803,1.065,2.985c0,1.328-0.44,2.417-1.322,3.265
		c-0.881,0.85-2.1,1.273-3.655,1.273c-1.389,0-2.511-0.353-3.367-1.058C546.503,163.953,545.978,162.81,545.978,161.395z
		 M549.296,161.386c0,0.771,0.156,1.34,0.468,1.708c0.312,0.369,0.703,0.554,1.175,0.554c0.478,0,0.869-0.182,1.176-0.545
		c0.306-0.363,0.459-0.946,0.459-1.749c0-0.748-0.154-1.306-0.463-1.672c-0.31-0.365-0.691-0.549-1.147-0.549
		c-0.482,0-0.881,0.187-1.195,0.558S549.296,160.627,549.296,161.386z"/>
	<path class="st2" d="M556.062,157.051h3.099v1.415c0.298-0.612,0.605-1.034,0.923-1.265s0.709-0.346,1.176-0.346
		c0.487,0,1.021,0.152,1.602,0.456l-1.024,2.358c-0.391-0.163-0.699-0.244-0.928-0.244c-0.434,0-0.77,0.179-1.008,0.537
		c-0.342,0.504-0.513,1.447-0.513,2.83v2.896h-3.326V157.051z"/>
</g>
<g>
	<path class="st5" d="M565.886,153.765h6.896c1.149,0,2.032,0.285,2.647,0.854s0.923,1.274,0.923,2.114
		c0,0.705-0.22,1.31-0.658,1.814c-0.293,0.336-0.722,0.602-1.285,0.797c0.856,0.206,1.486,0.56,1.891,1.062
		c0.404,0.501,0.606,1.132,0.606,1.891c0,0.618-0.145,1.174-0.432,1.667c-0.287,0.494-0.681,0.884-1.179,1.172
		c-0.31,0.179-0.775,0.309-1.399,0.39c-0.829,0.109-1.38,0.163-1.651,0.163h-6.359V153.765z M569.603,158.441h1.602
		c0.575,0,0.975-0.099,1.2-0.297c0.225-0.197,0.337-0.483,0.337-0.857c0-0.348-0.112-0.618-0.337-0.813
		c-0.226-0.195-0.617-0.293-1.176-0.293h-1.626V158.441z M569.603,163.127h1.879c0.634,0,1.081-0.113,1.342-0.338
		c0.26-0.225,0.391-0.527,0.391-0.907c0-0.353-0.129-0.636-0.387-0.85s-0.709-0.321-1.354-0.321h-1.87V163.127z"/>
	<path class="st5" d="M580.066,159.849l-3.164-0.333c0.12-0.554,0.292-0.988,0.517-1.306c0.226-0.317,0.55-0.593,0.973-0.825
		c0.303-0.168,0.721-0.299,1.252-0.391s1.106-0.139,1.725-0.139c0.992,0,1.789,0.056,2.391,0.167
		c0.603,0.111,1.104,0.343,1.505,0.695c0.282,0.244,0.504,0.59,0.667,1.037s0.244,0.874,0.244,1.281v3.814
		c0,0.406,0.025,0.725,0.077,0.955s0.164,0.525,0.338,0.883h-3.107c-0.125-0.223-0.206-0.392-0.244-0.509
		c-0.038-0.116-0.075-0.299-0.113-0.549c-0.435,0.418-0.865,0.716-1.293,0.895c-0.586,0.239-1.267,0.358-2.042,0.358
		c-1.03,0-1.813-0.238-2.347-0.716s-0.801-1.065-0.801-1.765c0-0.656,0.192-1.196,0.577-1.619s1.096-0.737,2.131-0.943
		c1.242-0.249,2.047-0.424,2.416-0.524c0.368-0.101,0.759-0.231,1.171-0.395c0-0.406-0.084-0.691-0.252-0.854
		c-0.168-0.163-0.464-0.244-0.887-0.244c-0.542,0-0.948,0.087-1.22,0.26C580.367,159.22,580.197,159.475,580.066,159.849z
		 M582.937,161.589c-0.455,0.163-0.93,0.307-1.423,0.432c-0.673,0.179-1.099,0.355-1.277,0.528c-0.185,0.179-0.276,0.383-0.276,0.61
		c0,0.26,0.091,0.473,0.272,0.639c0.182,0.165,0.448,0.248,0.801,0.248c0.369,0,0.712-0.09,1.029-0.269s0.542-0.397,0.675-0.655
		c0.133-0.257,0.199-0.592,0.199-1.004V161.589z"/>
	<path class="st5" d="M595.786,153.765v11.924h-3.1v-1.277c-0.434,0.543-0.829,0.908-1.187,1.099
		c-0.478,0.249-1.009,0.374-1.595,0.374c-1.177,0-2.075-0.447-2.696-1.342s-0.931-1.982-0.931-3.262
		c0-1.432,0.343-2.526,1.028-3.286c0.687-0.759,1.558-1.139,2.615-1.139c0.515,0,0.982,0.087,1.402,0.261
		c0.421,0.174,0.793,0.434,1.119,0.78v-4.132H595.786z M592.468,161.346c0-0.678-0.145-1.184-0.432-1.518
		c-0.287-0.333-0.65-0.5-1.09-0.5c-0.385,0-0.707,0.16-0.968,0.48c-0.26,0.319-0.391,0.856-0.391,1.61
		c0,0.704,0.135,1.221,0.403,1.549c0.268,0.328,0.6,0.492,0.996,0.492c0.423,0,0.775-0.165,1.058-0.496
		C592.326,162.633,592.468,162.094,592.468,161.346z"/>
</g>
<g>
	<path class="st2" d="M603.697,161.947h-3.091v-0.31c0-0.525,0.06-0.952,0.179-1.28s0.297-0.628,0.533-0.899
		c0.235-0.271,0.766-0.748,1.59-1.431c0.439-0.358,0.659-0.687,0.659-0.984s-0.089-0.53-0.265-0.695
		c-0.177-0.166-0.443-0.248-0.801-0.248c-0.386,0-0.704,0.127-0.956,0.382s-0.413,0.699-0.484,1.334l-3.155-0.391
		c0.108-1.16,0.53-2.094,1.265-2.802c0.734-0.707,1.861-1.062,3.38-1.062c1.182,0,2.136,0.247,2.862,0.74
		c0.987,0.667,1.48,1.557,1.48,2.668c0,0.461-0.128,0.905-0.383,1.334c-0.255,0.428-0.775,0.951-1.562,1.569
		c-0.547,0.434-0.893,0.782-1.036,1.045C603.768,161.182,603.697,161.524,603.697,161.947z M600.5,162.769h3.31v2.92h-3.31V162.769z
		"/>
</g>
<g>
	<path class="st2" d="M507.344,185.254h14.792v3.889h-4.963v11.859h-4.866v-11.859h-4.963V185.254z"/>
</g>
</svg>
