<?xml version="1.0" encoding="utf-8"?>
<!-- Generator: Adobe Illustrator 21.0.2, SVG Export Plug-In . SVG Version: 6.00 Build 0)  -->
<svg version="1.1" id="レイヤー_1" xmlns="http://www.w3.org/2000/svg" xmlns:xlink="http://www.w3.org/1999/xlink" x="0px"
	 y="0px" viewBox="0 0 505.667 120" style="enable-background:new 0 0 505.667 120;" xml:space="preserve">
<style type="text/css">
	.st0{fill:#41719C;}
	.st1{fill-rule:evenodd;clip-rule:evenodd;fill:#C00000;}
	.st2{fill:#FFFFFF;}
	.st3{fill-rule:evenodd;clip-rule:evenodd;fill:#00B050;}
	.st4{fill:#5B9BD5;}
	.st5{fill-rule:evenodd;clip-rule:evenodd;fill:#5B9BD5;}
	.st6{fill:none;stroke:#41719C;stroke-miterlimit:10;}
</style>
<g>
	<path d="M12.103,87.103v-10.2h1.35v4.188h5.302v-4.188h1.35v10.2h-1.35v-4.808h-5.302v4.808H12.103z"/>
	<path d="M22.2,78.343v-1.44h1.252v1.44H22.2z M22.2,87.103v-7.39h1.252v7.39H22.2z"/>
	<path d="M25.129,87.716l1.217,0.181c0.051,0.376,0.192,0.649,0.424,0.821c0.311,0.232,0.735,0.348,1.273,0.348
		c0.58,0,1.027-0.116,1.343-0.348s0.529-0.557,0.641-0.974c0.064-0.255,0.095-0.791,0.09-1.607
		c-0.547,0.645-1.229,0.967-2.046,0.967c-1.016,0-1.802-0.366-2.359-1.1c-0.557-0.732-0.835-1.612-0.835-2.637
		c0-0.705,0.128-1.356,0.383-1.952c0.255-0.596,0.625-1.057,1.11-1.381s1.054-0.487,1.708-0.487c0.872,0,1.591,0.353,2.157,1.058
		v-0.891h1.155v6.388c0,1.15-0.117,1.966-0.351,2.446c-0.234,0.48-0.605,0.859-1.113,1.138s-1.133,0.417-1.875,0.417
		c-0.881,0-1.593-0.198-2.136-0.595C25.372,89.111,25.11,88.514,25.129,87.716z M26.166,83.276c0,0.97,0.192,1.677,0.578,2.123
		c0.385,0.445,0.867,0.668,1.447,0.668c0.575,0,1.058-0.222,1.447-0.665s0.584-1.138,0.584-2.084c0-0.904-0.201-1.586-0.602-2.046
		c-0.401-0.459-0.885-0.688-1.451-0.688c-0.557,0-1.03,0.226-1.419,0.678S26.166,82.386,26.166,83.276z"/>
	<path d="M33.284,87.103v-10.2h1.252v3.66c0.584-0.677,1.322-1.016,2.212-1.016c0.547,0,1.023,0.108,1.427,0.324
		c0.403,0.216,0.692,0.514,0.866,0.894c0.174,0.38,0.261,0.933,0.261,1.656v4.683H38.05v-4.683c0-0.626-0.136-1.082-0.407-1.367
		c-0.271-0.286-0.655-0.428-1.151-0.428c-0.371,0-0.72,0.097-1.047,0.289c-0.327,0.192-0.56,0.453-0.699,0.783
		c-0.139,0.329-0.208,0.784-0.208,1.364v4.042H33.284z"/>
	<path d="M11.602,100.926l1.273-0.111c0.06,0.511,0.201,0.929,0.421,1.256s0.563,0.592,1.026,0.793
		c0.464,0.202,0.985,0.303,1.565,0.303c0.515,0,0.969-0.076,1.364-0.229c0.394-0.153,0.688-0.362,0.88-0.63
		c0.192-0.267,0.289-0.558,0.289-0.873c0-0.32-0.093-0.6-0.278-0.838c-0.186-0.239-0.492-0.439-0.918-0.603
		c-0.274-0.106-0.879-0.272-1.816-0.497c-0.937-0.225-1.594-0.438-1.969-0.637c-0.487-0.255-0.85-0.571-1.089-0.95
		c-0.239-0.378-0.358-0.801-0.358-1.27c0-0.515,0.146-0.996,0.438-1.443c0.292-0.448,0.719-0.788,1.28-1.02
		c0.561-0.232,1.185-0.348,1.872-0.348c0.756,0,1.423,0.121,2,0.365c0.578,0.243,1.021,0.602,1.333,1.075
		c0.311,0.473,0.478,1.009,0.501,1.606l-1.294,0.098c-0.069-0.645-0.305-1.132-0.706-1.461c-0.401-0.329-0.994-0.494-1.778-0.494
		c-0.816,0-1.412,0.149-1.785,0.449c-0.374,0.299-0.56,0.659-0.56,1.081c0,0.367,0.132,0.668,0.396,0.905
		c0.26,0.236,0.938,0.479,2.035,0.727s1.85,0.466,2.258,0.651c0.594,0.273,1.032,0.62,1.315,1.04c0.283,0.42,0.424,0.903,0.424,1.45
		c0,0.543-0.156,1.055-0.466,1.534c-0.311,0.48-0.757,0.854-1.339,1.12c-0.582,0.268-1.237,0.4-1.966,0.4
		c-0.923,0-1.697-0.135-2.32-0.403c-0.624-0.27-1.113-0.674-1.468-1.214C11.807,102.219,11.621,101.608,11.602,100.926z"/>
	<path d="M26.228,101.496l1.231,0.16c-0.134,0.85-0.479,1.514-1.033,1.994c-0.554,0.479-1.235,0.72-2.042,0.72
		c-1.011,0-1.824-0.33-2.439-0.991s-0.922-1.608-0.922-2.843c0-0.798,0.132-1.496,0.396-2.095c0.265-0.598,0.667-1.047,1.208-1.346
		c0.54-0.3,1.128-0.449,1.764-0.449c0.802,0,1.459,0.203,1.969,0.609c0.51,0.405,0.837,0.982,0.981,1.729l-1.218,0.188
		c-0.116-0.497-0.321-0.87-0.616-1.12c-0.294-0.251-0.65-0.376-1.068-0.376c-0.631,0-1.144,0.226-1.538,0.678
		c-0.395,0.453-0.592,1.168-0.592,2.147c0,0.992,0.19,1.714,0.571,2.163c0.38,0.45,0.876,0.675,1.489,0.675
		c0.492,0,0.902-0.15,1.231-0.452C25.931,102.587,26.14,102.123,26.228,101.496z"/>
	<path d="M28.065,100.509c0-1.369,0.38-2.382,1.141-3.041c0.635-0.547,1.41-0.821,2.324-0.821c1.016,0,1.846,0.333,2.491,0.999
		c0.645,0.665,0.967,1.585,0.967,2.759c0,0.951-0.143,1.698-0.428,2.244c-0.285,0.545-0.7,0.968-1.245,1.27
		c-0.545,0.302-1.14,0.452-1.785,0.452c-1.035,0-1.871-0.332-2.509-0.995S28.065,101.756,28.065,100.509z M29.352,100.509
		c0,0.946,0.207,1.654,0.62,2.125c0.413,0.471,0.932,0.706,1.559,0.706c0.621,0,1.139-0.236,1.551-0.709
		c0.413-0.474,0.62-1.194,0.62-2.164c0-0.914-0.208-1.606-0.623-2.077s-0.931-0.706-1.548-0.706c-0.626,0-1.146,0.234-1.559,0.703
		C29.559,98.855,29.352,99.563,29.352,100.509z"/>
	<path d="M36.442,104.203v-7.39h1.127v1.12c0.288-0.523,0.553-0.869,0.796-1.036c0.244-0.167,0.512-0.251,0.804-0.251
		c0.422,0,0.851,0.135,1.288,0.404l-0.432,1.161c-0.306-0.181-0.612-0.271-0.918-0.271c-0.274,0-0.52,0.082-0.738,0.246
		c-0.218,0.165-0.373,0.394-0.466,0.686c-0.139,0.445-0.209,0.933-0.209,1.461v3.869H36.442z"/>
	<path d="M46.261,101.824l1.294,0.16c-0.204,0.756-0.582,1.343-1.134,1.761c-0.552,0.417-1.257,0.626-2.115,0.626
		c-1.081,0-1.938-0.333-2.571-0.998c-0.633-0.666-0.95-1.6-0.95-2.801c0-1.243,0.32-2.208,0.96-2.895s1.471-1.03,2.491-1.03
		c0.988,0,1.795,0.337,2.421,1.009c0.626,0.673,0.939,1.619,0.939,2.839c0,0.074-0.002,0.186-0.007,0.334h-5.511
		c0.046,0.813,0.276,1.434,0.689,1.865c0.413,0.432,0.928,0.646,1.545,0.646c0.459,0,0.851-0.12,1.176-0.361
		S46.07,102.353,46.261,101.824z M42.148,99.799h4.126c-0.056-0.622-0.213-1.088-0.473-1.398c-0.399-0.482-0.916-0.724-1.552-0.724
		c-0.575,0-1.059,0.192-1.451,0.577S42.19,99.155,42.148,99.799z"/>
</g>
<g>
	<path d="M458.327,87.103v-10.2h1.35V85.9h5.023v1.204H458.327z"/>
	<path d="M465.681,83.409c0-1.368,0.381-2.382,1.142-3.041c0.636-0.547,1.41-0.821,2.324-0.821c1.016,0,1.846,0.333,2.491,0.999
		c0.645,0.666,0.967,1.585,0.967,2.759c0,0.951-0.143,1.699-0.428,2.244c-0.285,0.545-0.701,0.968-1.246,1.27
		c-0.545,0.301-1.14,0.452-1.784,0.452c-1.035,0-1.871-0.332-2.509-0.995C466,85.612,465.681,84.657,465.681,83.409z
		 M466.969,83.409c0,0.946,0.206,1.655,0.619,2.126c0.412,0.471,0.933,0.706,1.559,0.706c0.621,0,1.139-0.237,1.552-0.709
		c0.412-0.474,0.619-1.195,0.619-2.164c0-0.914-0.208-1.606-0.623-2.077s-0.932-0.706-1.548-0.706c-0.626,0-1.146,0.234-1.559,0.703
		C467.175,81.755,466.969,82.462,466.969,83.409z"/>
	<path d="M475.437,87.103l-2.261-7.39h1.294l1.176,4.266l0.438,1.586c0.019-0.079,0.146-0.587,0.383-1.524l1.176-4.328h1.287
		L480.036,84l0.369,1.413l0.424-1.426l1.267-4.272h1.218l-2.311,7.39h-1.301l-1.176-4.425l-0.285-1.259l-1.496,5.685H475.437z"/>
	<path d="M457.924,100.926l1.272-0.111c0.061,0.511,0.201,0.929,0.421,1.256c0.221,0.327,0.563,0.592,1.026,0.793
		c0.464,0.202,0.986,0.303,1.565,0.303c0.516,0,0.97-0.076,1.364-0.229s0.688-0.362,0.88-0.63c0.192-0.267,0.289-0.558,0.289-0.873
		c0-0.32-0.093-0.6-0.278-0.838c-0.186-0.239-0.492-0.439-0.919-0.603c-0.273-0.106-0.879-0.272-1.815-0.497
		c-0.938-0.225-1.594-0.438-1.97-0.637c-0.486-0.255-0.85-0.571-1.089-0.95c-0.238-0.378-0.358-0.801-0.358-1.27
		c0-0.515,0.146-0.996,0.438-1.443c0.293-0.448,0.72-0.788,1.28-1.02c0.562-0.232,1.186-0.348,1.872-0.348
		c0.756,0,1.423,0.121,2,0.365c0.578,0.243,1.022,0.602,1.333,1.075c0.311,0.473,0.478,1.009,0.501,1.606l-1.294,0.098
		c-0.07-0.645-0.306-1.132-0.707-1.461c-0.4-0.329-0.993-0.494-1.777-0.494c-0.816,0-1.411,0.149-1.785,0.449
		c-0.373,0.299-0.56,0.659-0.56,1.081c0,0.367,0.132,0.668,0.396,0.905c0.26,0.236,0.938,0.479,2.035,0.727s1.85,0.466,2.258,0.651
		c0.594,0.273,1.032,0.62,1.315,1.04c0.282,0.42,0.424,0.903,0.424,1.45c0,0.543-0.155,1.055-0.466,1.534
		c-0.311,0.48-0.758,0.854-1.34,1.12c-0.582,0.268-1.237,0.4-1.965,0.4c-0.924,0-1.697-0.135-2.321-0.403
		c-0.623-0.27-1.113-0.674-1.468-1.214C458.129,102.219,457.942,101.608,457.924,100.926z"/>
	<path d="M472.55,101.496l1.231,0.16c-0.135,0.85-0.479,1.514-1.033,1.994c-0.555,0.479-1.235,0.72-2.043,0.72
		c-1.011,0-1.824-0.33-2.438-0.991s-0.922-1.608-0.922-2.843c0-0.798,0.132-1.496,0.396-2.095c0.265-0.598,0.667-1.047,1.207-1.346
		c0.541-0.3,1.129-0.449,1.764-0.449c0.803,0,1.459,0.203,1.97,0.609c0.51,0.405,0.837,0.982,0.981,1.729l-1.218,0.188
		c-0.116-0.497-0.321-0.87-0.616-1.12c-0.295-0.251-0.65-0.376-1.068-0.376c-0.631,0-1.144,0.226-1.537,0.678
		c-0.395,0.453-0.592,1.168-0.592,2.147c0,0.992,0.19,1.714,0.57,2.163c0.381,0.45,0.877,0.675,1.489,0.675
		c0.492,0,0.902-0.15,1.231-0.452C472.252,102.587,472.461,102.123,472.55,101.496z"/>
	<path d="M474.386,100.509c0-1.369,0.381-2.382,1.142-3.041c0.636-0.547,1.41-0.821,2.324-0.821c1.016,0,1.846,0.333,2.491,0.999
		c0.645,0.665,0.967,1.585,0.967,2.759c0,0.951-0.143,1.698-0.428,2.244c-0.285,0.545-0.701,0.968-1.246,1.27
		s-1.14,0.452-1.784,0.452c-1.035,0-1.871-0.332-2.509-0.995S474.386,101.756,474.386,100.509z M475.674,100.509
		c0,0.946,0.206,1.654,0.619,2.125c0.412,0.471,0.933,0.706,1.559,0.706c0.621,0,1.139-0.236,1.552-0.709
		c0.412-0.474,0.619-1.194,0.619-2.164c0-0.914-0.208-1.606-0.623-2.077s-0.932-0.706-1.548-0.706c-0.626,0-1.146,0.234-1.559,0.703
		C475.88,98.855,475.674,99.563,475.674,100.509z"/>
	<path d="M482.764,104.203v-7.39h1.127v1.12c0.287-0.523,0.553-0.869,0.797-1.036c0.243-0.167,0.511-0.251,0.804-0.251
		c0.422,0,0.851,0.135,1.287,0.404l-0.432,1.161c-0.306-0.181-0.612-0.271-0.919-0.271c-0.273,0-0.52,0.082-0.737,0.246
		c-0.218,0.165-0.373,0.394-0.466,0.686c-0.14,0.445-0.209,0.933-0.209,1.461v3.869H482.764z"/>
	<path d="M492.581,101.824l1.294,0.16c-0.204,0.756-0.582,1.343-1.134,1.761c-0.553,0.417-1.258,0.626-2.115,0.626
		c-1.081,0-1.938-0.333-2.571-0.998c-0.633-0.666-0.95-1.6-0.95-2.801c0-1.243,0.32-2.208,0.961-2.895
		c0.64-0.687,1.47-1.03,2.49-1.03c0.988,0,1.796,0.337,2.422,1.009c0.626,0.673,0.939,1.619,0.939,2.839
		c0,0.074-0.003,0.186-0.007,0.334H488.4c0.046,0.813,0.275,1.434,0.688,1.865s0.928,0.646,1.545,0.646
		c0.459,0,0.851-0.12,1.176-0.361C492.133,102.738,492.391,102.353,492.581,101.824z M488.469,99.799h4.126
		c-0.056-0.622-0.214-1.088-0.473-1.398c-0.399-0.482-0.917-0.724-1.552-0.724c-0.575,0-1.06,0.192-1.451,0.577
		S488.511,99.155,488.469,99.799z"/>
</g>
<g>
	<path class="st0" d="M123.213,75.463v31.5h-28.5h-6h-35.25v-31.5h35.25h6H123.213 M124.213,74.463h-1h-28.5h-6h-35.25h-1v1v31.5v1
		h1h35.25h6h28.5h1v-1v-31.5V74.463L124.213,74.463z"/>
</g>
<rect x="88.713" y="75.463" class="st1" width="34.5" height="31.5"/>
<g>
	<path class="st2" d="M104.504,97.064V84.161h4.841c0.985,0,1.776,0.131,2.372,0.392c0.596,0.261,1.062,0.664,1.399,1.206
		c0.337,0.543,0.506,1.11,0.506,1.703c0,0.551-0.15,1.071-0.449,1.558c-0.299,0.487-0.751,0.88-1.355,1.179
		c0.78,0.229,1.38,0.619,1.8,1.171c0.419,0.552,0.629,1.203,0.629,1.954c0,0.604-0.127,1.166-0.383,1.686
		c-0.255,0.519-0.57,0.919-0.946,1.201c-0.376,0.281-0.847,0.494-1.413,0.638c-0.566,0.144-1.26,0.216-2.082,0.216H104.504z
		 M106.211,89.583h2.79c0.757,0,1.299-0.05,1.628-0.15c0.434-0.129,0.761-0.343,0.981-0.643c0.22-0.299,0.33-0.674,0.33-1.126
		c0-0.428-0.103-0.805-0.308-1.131c-0.206-0.326-0.499-0.548-0.88-0.669c-0.382-0.12-1.036-0.18-1.963-0.18h-2.579V89.583z
		 M106.211,95.541h3.212c0.551,0,0.938-0.021,1.162-0.062c0.393-0.07,0.722-0.188,0.986-0.353c0.264-0.164,0.481-0.403,0.651-0.717
		c0.17-0.314,0.255-0.677,0.255-1.087c0-0.481-0.123-0.899-0.37-1.255c-0.246-0.354-0.588-0.604-1.025-0.748
		c-0.437-0.144-1.066-0.215-1.888-0.215h-2.983V95.541z"/>
</g>
<rect x="53.463" y="75.463" class="st3" width="41.578" height="31.5"/>
<g>
	<path class="st2" d="M74.362,92.003V90.49l5.466-0.01v4.788c-0.839,0.669-1.705,1.173-2.597,1.51
		c-0.892,0.338-1.807,0.506-2.746,0.506c-1.267,0-2.419-0.271-3.454-0.813c-1.036-0.543-1.818-1.328-2.346-2.354
		c-0.528-1.027-0.792-2.174-0.792-3.441c0-1.256,0.262-2.428,0.788-3.516c0.525-1.088,1.281-1.897,2.266-2.425
		c0.986-0.528,2.121-0.792,3.406-0.792c0.933,0,1.776,0.151,2.53,0.453s1.345,0.723,1.773,1.263c0.428,0.54,0.754,1.244,0.977,2.112
		l-1.54,0.422c-0.194-0.657-0.435-1.173-0.722-1.549c-0.288-0.375-0.699-0.676-1.232-0.902s-1.126-0.339-1.778-0.339
		c-0.78,0-1.455,0.119-2.024,0.356c-0.569,0.238-1.028,0.55-1.377,0.938c-0.349,0.387-0.62,0.813-0.814,1.276
		c-0.329,0.798-0.493,1.664-0.493,2.597c0,1.149,0.198,2.112,0.594,2.887c0.396,0.774,0.973,1.35,1.729,1.725
		c0.757,0.376,1.561,0.563,2.412,0.563c0.739,0,1.461-0.142,2.165-0.427c0.704-0.284,1.238-0.588,1.602-0.911v-2.402H74.362z"/>
</g>
<rect x="170.463" y="75.463" class="st1" width="34.5" height="31.5"/>
<g>
	<path class="st0" d="M204.963,75.463v31.5h-29.25h-5.25h-34.5v-31.5h34.5h5.25H204.963 M205.963,74.463h-1h-29.25h-5.25h-34.5h-1v1
		v31.5v1h1h34.5h5.25h29.25h1v-1v-31.5V74.463L205.963,74.463z"/>
</g>
<g>
	<path class="st2" d="M185.284,97.064V84.161h4.841c0.985,0,1.776,0.131,2.372,0.392c0.596,0.261,1.062,0.664,1.399,1.206
		c0.337,0.543,0.506,1.11,0.506,1.703c0,0.551-0.15,1.071-0.449,1.558c-0.299,0.487-0.751,0.88-1.355,1.179
		c0.78,0.229,1.38,0.619,1.8,1.171c0.419,0.552,0.629,1.203,0.629,1.954c0,0.604-0.127,1.166-0.383,1.686
		c-0.255,0.519-0.57,0.919-0.946,1.201c-0.376,0.281-0.847,0.494-1.413,0.638c-0.566,0.144-1.26,0.216-2.082,0.216H185.284z
		 M186.991,89.583h2.79c0.757,0,1.299-0.05,1.628-0.15c0.434-0.129,0.761-0.343,0.981-0.643c0.22-0.299,0.33-0.674,0.33-1.126
		c0-0.428-0.103-0.805-0.308-1.131c-0.206-0.326-0.499-0.548-0.88-0.669c-0.382-0.12-1.036-0.18-1.963-0.18h-2.579V89.583z
		 M186.991,95.541h3.212c0.551,0,0.938-0.021,1.162-0.062c0.393-0.07,0.722-0.188,0.986-0.353c0.264-0.164,0.481-0.403,0.651-0.717
		c0.17-0.314,0.255-0.677,0.255-1.087c0-0.481-0.123-0.899-0.37-1.255c-0.246-0.354-0.588-0.604-1.025-0.748
		c-0.437-0.144-1.066-0.215-1.888-0.215h-2.983V95.541z"/>
</g>
<rect x="135.963" y="75.463" class="st3" width="39.75" height="31.5"/>
<g>
	<path class="st2" d="M156.516,92.003V90.49l5.466-0.01v4.788c-0.839,0.669-1.705,1.173-2.597,1.51
		c-0.892,0.338-1.807,0.506-2.746,0.506c-1.267,0-2.419-0.271-3.454-0.813c-1.036-0.543-1.818-1.328-2.346-2.354
		c-0.528-1.027-0.792-2.174-0.792-3.441c0-1.256,0.262-2.428,0.788-3.516c0.525-1.088,1.281-1.897,2.266-2.425
		c0.986-0.528,2.121-0.792,3.406-0.792c0.933,0,1.776,0.151,2.53,0.453s1.345,0.723,1.773,1.263c0.428,0.54,0.754,1.244,0.977,2.112
		l-1.54,0.422c-0.194-0.657-0.435-1.173-0.722-1.549c-0.288-0.375-0.699-0.676-1.232-0.902s-1.126-0.339-1.778-0.339
		c-0.78,0-1.455,0.119-2.024,0.356c-0.569,0.238-1.028,0.55-1.377,0.938c-0.349,0.387-0.62,0.813-0.814,1.276
		c-0.329,0.798-0.493,1.664-0.493,2.597c0,1.149,0.198,2.112,0.594,2.887c0.396,0.774,0.973,1.35,1.729,1.725
		c0.757,0.376,1.561,0.563,2.412,0.563c0.739,0,1.461-0.142,2.165-0.427c0.704-0.284,1.238-0.588,1.602-0.911v-2.402H156.516z"/>
</g>
<rect x="246.963" y="75.463" class="st1" width="39.75" height="31.5"/>
<g>
	<path class="st2" d="M263.304,97.064V84.161h4.841c0.985,0,1.776,0.131,2.372,0.392c0.596,0.261,1.062,0.664,1.399,1.206
		c0.337,0.543,0.506,1.11,0.506,1.703c0,0.551-0.15,1.071-0.449,1.558c-0.299,0.487-0.751,0.88-1.355,1.179
		c0.78,0.229,1.38,0.619,1.8,1.171c0.419,0.552,0.629,1.203,0.629,1.954c0,0.604-0.127,1.166-0.383,1.686
		c-0.255,0.519-0.57,0.919-0.946,1.201c-0.376,0.281-0.847,0.494-1.413,0.638c-0.566,0.144-1.26,0.216-2.082,0.216H263.304z
		 M265.011,89.583h2.79c0.757,0,1.299-0.05,1.628-0.15c0.434-0.129,0.761-0.343,0.981-0.643c0.22-0.299,0.33-0.674,0.33-1.126
		c0-0.428-0.103-0.805-0.308-1.131c-0.206-0.326-0.499-0.548-0.88-0.669c-0.382-0.12-1.036-0.18-1.963-0.18h-2.579V89.583z
		 M265.011,95.541h3.212c0.551,0,0.938-0.021,1.162-0.062c0.393-0.07,0.722-0.188,0.986-0.353c0.264-0.164,0.481-0.403,0.651-0.717
		c0.17-0.314,0.255-0.677,0.255-1.087c0-0.481-0.123-0.899-0.37-1.255c-0.246-0.354-0.588-0.604-1.025-0.748
		c-0.437-0.144-1.066-0.215-1.888-0.215h-2.983V95.541z"/>
</g>
<rect x="217.713" y="75.463" class="st3" width="29.25" height="31.5"/>
<g>
	<path class="st0" d="M286.713,75.463v31.5h-39.75h-29.25v-31.5h29.25H286.713 M287.713,74.463h-1h-39.75h-29.25h-1v1v31.5v1h1
		h29.25h39.75h1v-1v-31.5V74.463L287.713,74.463z"/>
</g>
<g>
	<path class="st2" d="M232.806,92.003V90.49l5.466-0.01v4.788c-0.839,0.669-1.705,1.173-2.597,1.51
		c-0.892,0.338-1.807,0.506-2.746,0.506c-1.267,0-2.419-0.271-3.454-0.813c-1.036-0.543-1.818-1.328-2.346-2.354
		c-0.528-1.027-0.792-2.174-0.792-3.441c0-1.256,0.262-2.428,0.788-3.516c0.525-1.088,1.281-1.897,2.266-2.425
		c0.986-0.528,2.121-0.792,3.406-0.792c0.933,0,1.776,0.151,2.53,0.453s1.345,0.723,1.773,1.263c0.428,0.54,0.754,1.244,0.977,2.112
		l-1.54,0.422c-0.194-0.657-0.435-1.173-0.722-1.549c-0.288-0.375-0.699-0.676-1.232-0.902s-1.126-0.339-1.778-0.339
		c-0.78,0-1.455,0.119-2.024,0.356c-0.569,0.238-1.028,0.55-1.377,0.938c-0.349,0.387-0.62,0.813-0.814,1.276
		c-0.329,0.798-0.493,1.664-0.493,2.597c0,1.149,0.198,2.112,0.594,2.887c0.396,0.774,0.973,1.35,1.729,1.725
		c0.757,0.376,1.561,0.563,2.412,0.563c0.739,0,1.461-0.142,2.165-0.427c0.704-0.284,1.238-0.588,1.602-0.911v-2.402H232.806z"/>
</g>
<rect x="325.713" y="75.463" class="st1" width="44.25" height="31.5"/>
<g>
	<path class="st2" d="M343.804,97.064V84.161h4.841c0.985,0,1.776,0.131,2.372,0.392c0.595,0.261,1.062,0.664,1.399,1.206
		c0.337,0.543,0.506,1.11,0.506,1.703c0,0.551-0.149,1.071-0.449,1.558c-0.299,0.487-0.751,0.88-1.355,1.179
		c0.78,0.229,1.381,0.619,1.8,1.171c0.42,0.552,0.63,1.203,0.63,1.954c0,0.604-0.128,1.166-0.383,1.686
		c-0.256,0.519-0.571,0.919-0.946,1.201c-0.376,0.281-0.847,0.494-1.413,0.638s-1.26,0.216-2.081,0.216H343.804z M345.511,89.583
		h2.79c0.757,0,1.3-0.05,1.629-0.15c0.434-0.129,0.761-0.343,0.98-0.643c0.221-0.299,0.33-0.674,0.33-1.126
		c0-0.428-0.103-0.805-0.308-1.131s-0.499-0.548-0.88-0.669c-0.382-0.12-1.036-0.18-1.963-0.18h-2.579V89.583z M345.511,95.541
		h3.213c0.552,0,0.938-0.021,1.162-0.062c0.393-0.07,0.722-0.188,0.985-0.353c0.264-0.164,0.481-0.403,0.651-0.717
		c0.17-0.314,0.255-0.677,0.255-1.087c0-0.481-0.123-0.899-0.369-1.255c-0.247-0.354-0.589-0.604-1.025-0.748
		c-0.438-0.144-1.066-0.215-1.888-0.215h-2.984V95.541z"/>
</g>
<g>
	<path class="st0" d="M451.713,75.463v31.5h-52.5h-0.75h-15.75v-31.5h15.75h0.75H451.713 M452.464,74.713h-0.751h-52.5h-0.75h-15.75
		h-0.751v0.751v31.5v0.751h0.751h15.75h0.75h52.5h0.751v-0.751v-31.5V74.713L452.464,74.713z"/>
</g>
<rect x="300.213" y="75.463" class="st3" width="25.5" height="31.5"/>
<g>
	<path class="st0" d="M369.963,75.463v31.5h-44.25h-25.5v-31.5h25.5H369.963 M370.963,74.463h-1h-44.25h-25.5h-1v1v31.5v1h1h25.5
		h44.25h1v-1v-31.5V74.463L370.963,74.463z"/>
</g>
<g>
	<path class="st2" d="M313.112,92.003V90.49l5.465-0.01v4.788c-0.839,0.669-1.704,1.173-2.596,1.51
		c-0.893,0.338-1.808,0.506-2.746,0.506c-1.268,0-2.419-0.271-3.455-0.813c-1.035-0.543-1.817-1.328-2.346-2.354
		c-0.527-1.027-0.792-2.174-0.792-3.441c0-1.256,0.263-2.428,0.788-3.516s1.28-1.897,2.267-2.425
		c0.985-0.528,2.121-0.792,3.406-0.792c0.933,0,1.776,0.151,2.53,0.453s1.345,0.723,1.773,1.263c0.428,0.54,0.754,1.244,0.977,2.112
		l-1.54,0.422c-0.193-0.657-0.435-1.173-0.722-1.549c-0.288-0.375-0.698-0.676-1.232-0.902s-1.127-0.339-1.777-0.339
		c-0.781,0-1.456,0.119-2.024,0.356c-0.569,0.238-1.028,0.55-1.378,0.938c-0.349,0.387-0.62,0.813-0.813,1.276
		c-0.329,0.798-0.493,1.664-0.493,2.597c0,1.149,0.198,2.112,0.594,2.887c0.396,0.774,0.973,1.35,1.729,1.725
		c0.757,0.376,1.561,0.563,2.412,0.563c0.739,0,1.461-0.142,2.165-0.427c0.704-0.284,1.237-0.588,1.602-0.911v-2.402H313.112z"/>
</g>
<rect x="398.463" y="75.463" class="st1" width="53.25" height="31.5"/>
<g>
	<path class="st2" d="M421.453,97.064V84.161h4.841c0.985,0,1.776,0.131,2.372,0.392c0.595,0.261,1.062,0.664,1.399,1.206
		c0.337,0.543,0.506,1.11,0.506,1.703c0,0.551-0.149,1.071-0.449,1.558c-0.299,0.487-0.751,0.88-1.355,1.179
		c0.78,0.229,1.381,0.619,1.8,1.171c0.42,0.552,0.63,1.203,0.63,1.954c0,0.604-0.128,1.166-0.383,1.686
		c-0.256,0.519-0.571,0.919-0.946,1.201c-0.376,0.281-0.847,0.494-1.413,0.638s-1.26,0.216-2.081,0.216H421.453z M423.16,89.583
		h2.79c0.757,0,1.3-0.05,1.629-0.15c0.434-0.129,0.761-0.343,0.98-0.643c0.221-0.299,0.33-0.674,0.33-1.126
		c0-0.428-0.103-0.805-0.308-1.131s-0.499-0.548-0.88-0.669c-0.382-0.12-1.036-0.18-1.963-0.18h-2.579V89.583z M423.16,95.541h3.213
		c0.552,0,0.938-0.021,1.162-0.062c0.393-0.07,0.722-0.188,0.985-0.353c0.264-0.164,0.481-0.403,0.651-0.717
		c0.17-0.314,0.255-0.677,0.255-1.087c0-0.481-0.123-0.899-0.369-1.255c-0.247-0.354-0.589-0.604-1.025-0.748
		c-0.438-0.144-1.066-0.215-1.888-0.215h-2.984V95.541z"/>
</g>
<rect x="382.713" y="75.463" class="st3" width="16.5" height="31.5"/>
<g>
	<path class="st2" d="M391.267,92.003V90.49l5.465-0.01v4.788c-0.839,0.669-1.704,1.173-2.596,1.51
		c-0.893,0.338-1.808,0.506-2.746,0.506c-1.268,0-2.419-0.271-3.455-0.813c-1.035-0.543-1.817-1.328-2.346-2.354
		c-0.527-1.027-0.792-2.174-0.792-3.441c0-1.256,0.263-2.428,0.788-3.516s1.28-1.897,2.267-2.425
		c0.985-0.528,2.121-0.792,3.406-0.792c0.933,0,1.776,0.151,2.53,0.453s1.345,0.723,1.773,1.263c0.428,0.54,0.754,1.244,0.977,2.112
		l-1.54,0.422c-0.193-0.657-0.435-1.173-0.722-1.549c-0.288-0.375-0.698-0.676-1.232-0.902s-1.127-0.339-1.777-0.339
		c-0.781,0-1.456,0.119-2.024,0.356c-0.569,0.238-1.028,0.55-1.378,0.938c-0.349,0.387-0.62,0.813-0.813,1.276
		c-0.329,0.798-0.493,1.664-0.493,2.597c0,1.149,0.198,2.112,0.594,2.887c0.396,0.774,0.973,1.35,1.729,1.725
		c0.757,0.376,1.561,0.563,2.412,0.563c0.739,0,1.461-0.142,2.165-0.427c0.704-0.284,1.237-0.588,1.602-0.911v-2.402H391.267z"/>
</g>
<path class="st4" d="M79.861,68.592l-5.427,3.943l6.412,1.972L79.861,68.592z M251.505,42.23L79.237,70.973l0.249,1.484
	l172.268-28.743L251.505,42.23z"/>
<path class="st4" d="M163.87,68.642l-4.754,4.726l6.633,0.977L163.87,68.642z M254.157,41.243L163.632,71.09l0.47,1.423
	l90.525-29.847L254.157,41.243z"/>
<path class="st4" d="M265.68,67.309l0.03,6.7l-5.38-4L265.68,67.309z M250.17,41.579l13.96,27.63l-1.34,0.68l-13.96-27.63
	L250.17,41.579z"/>
<path class="st4" d="M337.945,67.904l5.169,4.961l-7.149,1.076L337.945,67.904z M250.611,42.873l87.624,27.616l-0.498,1.512
	l-87.613-27.617L250.611,42.873z"/>
<path class="st4" d="M406.263,68.983l5.36,4.03l-6.44,1.87L406.263,68.983z M250.463,42.843l156.38,28.53l-0.27,1.48l-156.37-28.53
	L250.463,42.843z"/>
<g>
	<path d="M221.405,62.1l1.276-0.111c0.06,0.511,0.201,0.931,0.421,1.258s0.563,0.592,1.028,0.794
		c0.464,0.202,0.987,0.303,1.568,0.303c0.516,0,0.971-0.077,1.366-0.23c0.395-0.153,0.688-0.364,0.881-0.631s0.29-0.559,0.29-0.875
		c0-0.321-0.093-0.601-0.279-0.84c-0.186-0.239-0.493-0.44-0.92-0.603c-0.274-0.107-0.881-0.273-1.819-0.499
		c-0.939-0.226-1.596-0.438-1.973-0.638c-0.488-0.255-0.852-0.573-1.091-0.952c-0.239-0.378-0.359-0.803-0.359-1.272
		c0-0.516,0.146-0.998,0.439-1.446c0.293-0.448,0.72-0.789,1.283-1.021c0.562-0.232,1.187-0.349,1.875-0.349
		c0.757,0,1.425,0.122,2.004,0.366c0.578,0.244,1.023,0.603,1.334,1.077c0.312,0.474,0.479,1.011,0.502,1.61l-1.296,0.098
		c-0.07-0.646-0.306-1.134-0.708-1.463c-0.402-0.33-0.996-0.495-1.781-0.495c-0.818,0-1.414,0.15-1.788,0.45
		s-0.561,0.661-0.561,1.084c0,0.367,0.132,0.669,0.397,0.906c0.26,0.237,0.939,0.48,2.039,0.729s1.853,0.466,2.262,0.652
		c0.595,0.274,1.034,0.622,1.317,1.042c0.284,0.42,0.425,0.905,0.425,1.453c0,0.544-0.156,1.056-0.467,1.537
		c-0.312,0.481-0.759,0.855-1.342,1.122c-0.583,0.267-1.24,0.401-1.969,0.401c-0.925,0-1.7-0.135-2.325-0.404
		s-1.115-0.675-1.471-1.216C221.61,63.395,221.423,62.783,221.405,62.1z"/>
	<path d="M236.056,62.672l1.233,0.16c-0.135,0.851-0.479,1.516-1.035,1.997c-0.556,0.481-1.237,0.722-2.046,0.722
		c-1.013,0-1.828-0.331-2.443-0.994c-0.616-0.662-0.923-1.611-0.923-2.847c0-0.799,0.132-1.499,0.397-2.098
		c0.265-0.599,0.668-1.049,1.209-1.349c0.542-0.3,1.13-0.45,1.767-0.45c0.804,0,1.461,0.204,1.973,0.61
		c0.511,0.407,0.839,0.984,0.983,1.732l-1.22,0.188c-0.116-0.497-0.322-0.871-0.617-1.122s-0.651-0.376-1.07-0.376
		c-0.632,0-1.146,0.227-1.541,0.68s-0.592,1.17-0.592,2.15c0,0.994,0.19,1.717,0.571,2.167c0.381,0.451,0.878,0.676,1.492,0.676
		c0.493,0,0.904-0.151,1.234-0.453C235.759,63.764,235.968,63.299,236.056,62.672z"/>
	<path d="M237.896,61.682c0-1.371,0.381-2.386,1.143-3.046c0.637-0.548,1.413-0.823,2.328-0.823c1.018,0,1.849,0.333,2.495,1
		s0.969,1.588,0.969,2.764c0,0.953-0.143,1.702-0.429,2.248c-0.286,0.546-0.702,0.97-1.248,1.272
		c-0.546,0.302-1.142,0.453-1.788,0.453c-1.037,0-1.874-0.333-2.513-0.997C238.216,63.889,237.896,62.932,237.896,61.682z
		 M239.186,61.682c0,0.948,0.207,1.658,0.62,2.129c0.414,0.472,0.934,0.708,1.562,0.708c0.623,0,1.141-0.237,1.554-0.711
		c0.414-0.474,0.62-1.197,0.62-2.168c0-0.915-0.208-1.609-0.624-2.081c-0.416-0.472-0.933-0.708-1.551-0.708
		c-0.627,0-1.148,0.235-1.562,0.704S239.186,60.734,239.186,61.682z"/>
	<path d="M246.288,65.383v-7.402h1.129v1.122c0.288-0.525,0.554-0.871,0.798-1.039c0.244-0.167,0.512-0.251,0.805-0.251
		c0.423,0,0.853,0.135,1.29,0.404l-0.432,1.164c-0.307-0.181-0.613-0.272-0.92-0.272c-0.274,0-0.521,0.083-0.739,0.248
		c-0.219,0.165-0.374,0.394-0.467,0.687c-0.139,0.446-0.209,0.934-0.209,1.464v3.875H246.288z"/>
	<path d="M256.123,62.999l1.296,0.16c-0.205,0.758-0.583,1.345-1.136,1.764c-0.553,0.418-1.259,0.627-2.119,0.627
		c-1.083,0-1.941-0.333-2.576-1c-0.634-0.667-0.951-1.602-0.951-2.806c0-1.245,0.32-2.211,0.962-2.899
		c0.641-0.688,1.473-1.032,2.495-1.032c0.99,0,1.798,0.337,2.426,1.011c0.627,0.674,0.941,1.622,0.941,2.844
		c0,0.075-0.002,0.186-0.007,0.335h-5.521c0.046,0.813,0.276,1.436,0.69,1.868c0.414,0.432,0.929,0.648,1.547,0.648
		c0.46,0,0.853-0.121,1.178-0.362C255.675,63.915,255.933,63.529,256.123,62.999z M252.004,60.971h4.133
		c-0.056-0.623-0.214-1.09-0.474-1.401c-0.4-0.483-0.918-0.725-1.554-0.725c-0.577,0-1.061,0.193-1.454,0.579
		S252.046,60.325,252.004,60.971z"/>
	<path d="M263.066,65.383V55.165h3.833c0.781,0,1.407,0.104,1.879,0.31c0.471,0.207,0.841,0.525,1.108,0.955
		s0.401,0.879,0.401,1.349c0,0.437-0.119,0.848-0.355,1.234s-0.595,0.697-1.073,0.934c0.618,0.181,1.093,0.49,1.425,0.927
		c0.332,0.437,0.499,0.953,0.499,1.547c0,0.479-0.101,0.924-0.303,1.335c-0.202,0.411-0.452,0.729-0.75,0.951
		c-0.297,0.223-0.67,0.392-1.119,0.505c-0.448,0.114-0.998,0.171-1.648,0.171H263.066z M264.418,59.458h2.209
		c0.599,0,1.029-0.039,1.29-0.118c0.344-0.103,0.603-0.272,0.777-0.509c0.174-0.237,0.262-0.535,0.262-0.893
		c0-0.339-0.082-0.638-0.244-0.896s-0.395-0.435-0.697-0.53c-0.302-0.095-0.82-0.143-1.554-0.143h-2.042V59.458z M264.418,64.177
		h2.544c0.437,0,0.743-0.016,0.92-0.049c0.312-0.056,0.572-0.148,0.781-0.278c0.209-0.13,0.381-0.32,0.516-0.568
		s0.202-0.536,0.202-0.861c0-0.381-0.097-0.712-0.292-0.993s-0.466-0.479-0.812-0.592c-0.346-0.114-0.845-0.171-1.495-0.171h-2.363
		V64.177z"/>
	<path d="M272.489,56.608v-1.443h1.255v1.443H272.489z M272.489,65.383v-7.402h1.255v7.402H272.489z"/>
	<path d="M275.654,65.383v-7.402h1.129v1.052c0.543-0.813,1.329-1.22,2.356-1.22c0.446,0,0.856,0.081,1.229,0.241
		c0.375,0.16,0.654,0.371,0.84,0.631s0.316,0.569,0.391,0.927c0.047,0.232,0.07,0.639,0.07,1.22v4.552h-1.256V60.88
		c0-0.511-0.047-0.893-0.145-1.146c-0.098-0.253-0.271-0.455-0.52-0.606c-0.25-0.151-0.541-0.227-0.875-0.227
		c-0.534,0-0.996,0.17-1.383,0.509c-0.388,0.339-0.582,0.983-0.582,1.931v4.043H275.654z"/>
	<path d="M283.091,63.174l1.24-0.195c0.07,0.498,0.264,0.878,0.582,1.143c0.318,0.265,0.764,0.397,1.335,0.397
		c0.576,0,1.004-0.117,1.282-0.352c0.279-0.234,0.418-0.51,0.418-0.826c0-0.283-0.123-0.506-0.369-0.669
		c-0.172-0.111-0.6-0.253-1.282-0.425c-0.92-0.232-1.558-0.433-1.913-0.603c-0.355-0.169-0.625-0.404-0.809-0.704
		s-0.275-0.631-0.275-0.993c0-0.33,0.075-0.636,0.227-0.917c0.15-0.281,0.356-0.515,0.616-0.7c0.195-0.144,0.462-0.266,0.799-0.366
		c0.337-0.1,0.698-0.15,1.084-0.15c0.58,0,1.091,0.084,1.529,0.251c0.439,0.167,0.764,0.394,0.973,0.68s0.353,0.668,0.432,1.146
		l-1.227,0.167c-0.056-0.381-0.217-0.678-0.484-0.892c-0.267-0.214-0.645-0.321-1.133-0.321c-0.576,0-0.987,0.095-1.233,0.286
		c-0.246,0.191-0.369,0.414-0.369,0.669c0,0.163,0.051,0.309,0.153,0.439c0.102,0.135,0.263,0.247,0.48,0.334
		c0.126,0.046,0.495,0.153,1.108,0.321c0.888,0.237,1.507,0.431,1.857,0.582s0.626,0.371,0.826,0.659s0.3,0.646,0.3,1.073
		c0,0.418-0.122,0.812-0.366,1.182c-0.244,0.369-0.596,0.655-1.056,0.857s-0.98,0.303-1.562,0.303c-0.962,0-1.695-0.2-2.199-0.6
		C283.552,64.552,283.23,63.959,283.091,63.174z"/>
</g>
<g>
	<rect x="215.713" y="11.963" class="st5" width="70.75" height="32.5"/>
	<path class="st0" d="M285.963,12.463v31.5h-69.75v-31.5H285.963 M286.963,11.463h-1h-69.75h-1v1v31.5v1h1h69.75h1v-1v-31.5V11.463
		L286.963,11.463z"/>
</g>
<g>
	<path class="st2" d="M222.55,33.583V20.681h5.721c1.15,0,2.024,0.116,2.623,0.348c0.598,0.232,1.077,0.641,1.435,1.228
		s0.537,1.235,0.537,1.945c0,0.916-0.296,1.687-0.889,2.315c-0.593,0.628-1.508,1.027-2.746,1.197
		c0.452,0.217,0.795,0.432,1.03,0.643c0.499,0.458,0.971,1.03,1.417,1.716l2.244,3.512h-2.147l-1.708-2.685
		c-0.499-0.774-0.909-1.367-1.232-1.778c-0.323-0.411-0.612-0.698-0.867-0.862c-0.255-0.164-0.515-0.279-0.779-0.343
		c-0.193-0.041-0.51-0.062-0.951-0.062h-1.98v5.729H222.55z M224.257,26.375h3.67c0.78,0,1.391-0.081,1.831-0.242
		c0.44-0.162,0.775-0.419,1.003-0.774c0.229-0.355,0.343-0.741,0.343-1.158c0-0.61-0.221-1.112-0.665-1.505
		c-0.443-0.393-1.143-0.59-2.099-0.59h-4.083V26.375z"/>
	<path class="st2" d="M241.737,30.573l1.637,0.203c-0.258,0.957-0.736,1.699-1.435,2.227c-0.698,0.528-1.59,0.792-2.675,0.792
		c-1.368,0-2.451-0.421-3.252-1.263c-0.801-0.842-1.201-2.023-1.201-3.542c0-1.572,0.405-2.793,1.214-3.661
		c0.81-0.869,1.86-1.303,3.151-1.303c1.25,0,2.271,0.425,3.063,1.276c0.792,0.851,1.188,2.048,1.188,3.591
		c0,0.094-0.003,0.234-0.009,0.422h-6.97c0.059,1.027,0.349,1.813,0.871,2.359c0.522,0.545,1.173,0.818,1.954,0.818
		c0.581,0,1.077-0.152,1.487-0.458C241.17,31.729,241.496,31.242,241.737,30.573z M236.535,28.012h5.219
		c-0.071-0.786-0.27-1.376-0.599-1.769c-0.505-0.61-1.159-0.915-1.963-0.915c-0.728,0-1.339,0.243-1.835,0.73
		C236.862,26.545,236.588,27.197,236.535,28.012z"/>
	<path class="st2" d="M243.347,37.209l0.299-1.347c0.317,0.083,0.566,0.124,0.749,0.124c0.322,0,0.563-0.107,0.722-0.321
		c0.158-0.214,0.237-0.75,0.237-1.606v-9.822h1.584v9.857c0,1.15-0.15,1.951-0.449,2.403c-0.382,0.587-1.015,0.88-1.901,0.88
		C244.16,37.377,243.746,37.321,243.347,37.209z M245.353,22.52v-1.84h1.584v1.84H245.353z"/>
	<path class="st2" d="M255.766,30.573l1.637,0.203c-0.258,0.957-0.736,1.699-1.435,2.227c-0.698,0.528-1.59,0.792-2.675,0.792
		c-1.368,0-2.451-0.421-3.252-1.263c-0.801-0.842-1.201-2.023-1.201-3.542c0-1.572,0.405-2.793,1.214-3.661
		c0.81-0.869,1.86-1.303,3.151-1.303c1.25,0,2.271,0.425,3.063,1.276c0.792,0.851,1.188,2.048,1.188,3.591
		c0,0.094-0.003,0.234-0.009,0.422h-6.97c0.059,1.027,0.349,1.813,0.871,2.359c0.522,0.545,1.173,0.818,1.954,0.818
		c0.581,0,1.077-0.152,1.487-0.458C255.2,31.729,255.525,31.242,255.766,30.573z M250.564,28.012h5.219
		c-0.071-0.786-0.27-1.376-0.599-1.769c-0.505-0.61-1.159-0.915-1.963-0.915c-0.728,0-1.339,0.243-1.835,0.73
		C250.891,26.545,250.617,27.197,250.564,28.012z"/>
	<path class="st2" d="M265.491,30.16l1.558,0.203c-0.17,1.074-0.606,1.914-1.307,2.521s-1.562,0.911-2.583,0.911
		c-1.279,0-2.308-0.418-3.085-1.254c-0.777-0.836-1.166-2.035-1.166-3.595c0-1.009,0.167-1.893,0.501-2.649s0.844-1.324,1.527-1.703
		c0.684-0.378,1.427-0.567,2.231-0.567c1.015,0,1.845,0.257,2.491,0.77c0.646,0.514,1.059,1.243,1.241,2.187l-1.541,0.238
		c-0.146-0.628-0.406-1.1-0.779-1.417s-0.823-0.475-1.351-0.475c-0.798,0-1.446,0.286-1.945,0.858
		c-0.499,0.572-0.748,1.477-0.748,2.715c0,1.255,0.24,2.168,0.722,2.737c0.481,0.569,1.109,0.854,1.883,0.854
		c0.622,0,1.141-0.19,1.558-0.572C265.116,31.538,265.379,30.952,265.491,30.16z"/>
	<path class="st2" d="M271.863,32.166l0.229,1.399c-0.446,0.094-0.845,0.141-1.197,0.141c-0.575,0-1.021-0.091-1.337-0.272
		c-0.317-0.182-0.54-0.421-0.669-0.717c-0.129-0.296-0.194-0.92-0.194-1.871v-5.377h-1.162v-1.232h1.162v-2.314l1.576-0.951v3.265
		h1.593v1.232h-1.593v5.465c0,0.452,0.028,0.743,0.083,0.872s0.146,0.232,0.273,0.308c0.126,0.076,0.306,0.114,0.541,0.114
		C271.344,32.228,271.576,32.207,271.863,32.166z"/>
	<path class="st2" d="M272.779,30.793l1.566-0.247c0.088,0.628,0.333,1.109,0.735,1.443c0.402,0.334,0.964,0.502,1.686,0.502
		c0.728,0,1.267-0.148,1.62-0.444c0.352-0.296,0.528-0.644,0.528-1.043c0-0.358-0.156-0.64-0.466-0.845
		c-0.217-0.141-0.757-0.32-1.62-0.537c-1.162-0.293-1.967-0.547-2.416-0.761c-0.449-0.214-0.789-0.511-1.021-0.889
		s-0.348-0.796-0.348-1.254c0-0.417,0.096-0.802,0.286-1.157s0.45-0.65,0.779-0.884c0.247-0.182,0.583-0.336,1.008-0.462
		c0.425-0.126,0.882-0.189,1.369-0.189c0.733,0,1.377,0.105,1.932,0.317c0.554,0.211,0.963,0.497,1.228,0.858
		s0.446,0.844,0.546,1.448l-1.549,0.211c-0.07-0.481-0.274-0.856-0.612-1.126s-0.814-0.405-1.43-0.405
		c-0.728,0-1.247,0.12-1.558,0.361c-0.311,0.24-0.466,0.522-0.466,0.845c0,0.206,0.064,0.39,0.193,0.555
		c0.129,0.17,0.332,0.311,0.607,0.422c0.158,0.059,0.625,0.193,1.399,0.405c1.121,0.299,1.902,0.544,2.346,0.735
		c0.443,0.191,0.791,0.468,1.043,0.832c0.252,0.364,0.378,0.816,0.378,1.355c0,0.528-0.154,1.025-0.462,1.492
		c-0.308,0.467-0.752,0.828-1.333,1.083c-0.581,0.255-1.238,0.383-1.972,0.383c-1.215,0-2.14-0.252-2.777-0.757
		C273.361,32.533,272.954,31.785,272.779,30.793z"/>
</g>
<line class="st6" x1="325.713" y1="75.463" x2="325.713" y2="106.963"/>
<line class="st6" x1="399.213" y1="75.463" x2="399.213" y2="106.963"/>
<line class="st6" x1="246.963" y1="75.463" x2="246.963" y2="106.963"/>
<line class="st6" x1="175.713" y1="75.463" x2="175.713" y2="106.963"/>
<line class="st6" x1="95.042" y1="75.463" x2="95.042" y2="106.963"/>
</svg>
