<?xml version="1.0" encoding="utf-8"?>
<!-- Generator: Adobe Illustrator 21.0.2, SVG Export Plug-In . SVG Version: 6.00 Build 0)  -->
<svg version="1.1" id="レイヤー_1" xmlns="http://www.w3.org/2000/svg" xmlns:xlink="http://www.w3.org/1999/xlink" x="0px"
	 y="0px" viewBox="0 0 870.667 316" style="enable-background:new 0 0 870.667 316;"
	 xml:space="preserve">
<style type="text/css">
	.st0{fill:#31859C;}
	.st1{fill:#595959;}
	.st2{fill:#BFBFBF;stroke:#4F81BD;stroke-width:0.7207;stroke-linejoin:round;stroke-miterlimit:10;}
	.st3{fill:none;stroke:#4F81BD;stroke-width:0.7207;stroke-linejoin:round;stroke-miterlimit:10;}
	.st4{fill:#FFFFFF;}
	.st5{fill:#B5B5B5;}
	.st6{fill-rule:evenodd;clip-rule:evenodd;fill:#BFBFBF;stroke:#4F81BD;stroke-miterlimit:10;}
</style>
<path class="st0" d="M480.857,160.814l15.908-8.065l-15.994-7.893L480.857,160.814z M454.556,155.631l28.923-0.148l-0.025-5.319
	l-28.923,0.148L454.556,155.631z"/>
<path class="st0" d="M350.364,169.667l5.676-16.918l-16.93,5.602L350.364,169.667z M305.139,207.172l43.353-43.156l-3.755-3.768
	l-43.341,43.156L305.139,207.172z"/>
<path class="st0" d="M348.911,136.176l7.129,16.351l-17.361-4.112L348.911,136.176z M304.979,106.379l42.565,35.584l-3.411,4.076
	l-42.578-35.572L304.979,106.379z"/>
<g>
	<path class="st1" d="M342.414,77.495h2.81v3.473c0.278-0.292,0.594-0.51,0.947-0.656s0.744-0.219,1.172-0.219
		c0.884,0,1.616,0.318,2.194,0.954c0.579,0.636,0.868,1.548,0.868,2.738c0,0.793-0.133,1.491-0.396,2.095
		c-0.264,0.604-0.63,1.055-1.097,1.354s-0.985,0.448-1.555,0.448c-0.488,0-0.934-0.105-1.34-0.314
		c-0.305-0.164-0.638-0.472-0.998-0.923v1.073h-2.604V77.495z M345.203,83.866c0,0.625,0.117,1.077,0.352,1.357
		s0.532,0.42,0.892,0.42c0.333,0,0.612-0.138,0.837-0.414s0.338-0.739,0.338-1.391c0-0.574-0.11-0.996-0.332-1.265
		s-0.489-0.403-0.803-0.403c-0.378,0-0.687,0.14-0.926,0.42S345.203,83.296,345.203,83.866z"/>
	<path class="st1" d="M354.274,82.608l-2.659-0.28c0.101-0.465,0.245-0.831,0.435-1.097c0.188-0.267,0.461-0.498,0.816-0.694
		c0.255-0.141,0.606-0.25,1.053-0.328s0.93-0.116,1.449-0.116c0.834,0,1.504,0.047,2.01,0.14s0.928,0.288,1.265,0.584
		c0.237,0.205,0.424,0.496,0.561,0.872s0.205,0.735,0.205,1.077v3.206c0,0.342,0.021,0.609,0.065,0.803
		c0.043,0.194,0.138,0.441,0.283,0.742h-2.611c-0.104-0.187-0.173-0.329-0.205-0.427s-0.063-0.252-0.096-0.461
		c-0.364,0.351-0.727,0.602-1.087,0.752c-0.492,0.201-1.064,0.301-1.716,0.301c-0.866,0-1.523-0.201-1.973-0.602
		c-0.448-0.401-0.673-0.896-0.673-1.483c0-0.551,0.162-1.005,0.485-1.36s0.921-0.62,1.791-0.793c1.044-0.209,1.721-0.356,2.03-0.441
		s0.638-0.195,0.984-0.332c0-0.342-0.07-0.581-0.212-0.718s-0.39-0.205-0.745-0.205c-0.456,0-0.798,0.073-1.025,0.219
		C354.527,82.079,354.384,82.293,354.274,82.608z M356.688,84.071c-0.383,0.137-0.781,0.257-1.196,0.362
		c-0.565,0.15-0.923,0.298-1.073,0.444c-0.155,0.15-0.232,0.321-0.232,0.513c0,0.219,0.076,0.397,0.229,0.537
		c0.152,0.139,0.377,0.208,0.673,0.208c0.31,0,0.599-0.075,0.864-0.226c0.268-0.15,0.456-0.334,0.568-0.55
		c0.111-0.216,0.167-0.498,0.167-0.844V84.071z"/>
	<path class="st1" d="M360.584,85.5l2.762-0.26c0.114,0.328,0.273,0.563,0.479,0.704s0.479,0.212,0.82,0.212
		c0.374,0,0.663-0.08,0.868-0.239c0.159-0.119,0.239-0.266,0.239-0.444c0-0.2-0.104-0.355-0.314-0.464
		c-0.15-0.078-0.549-0.173-1.196-0.287c-0.966-0.168-1.637-0.324-2.014-0.468c-0.375-0.143-0.692-0.386-0.949-0.727
		c-0.258-0.341-0.387-0.73-0.387-1.168c0-0.478,0.139-0.89,0.417-1.236s0.661-0.604,1.148-0.775
		c0.487-0.171,1.142-0.256,1.962-0.256c0.866,0,1.505,0.066,1.918,0.198c0.412,0.132,0.756,0.337,1.031,0.615
		c0.276,0.278,0.505,0.654,0.688,1.128l-2.639,0.26c-0.068-0.232-0.183-0.403-0.342-0.513c-0.219-0.146-0.483-0.219-0.793-0.219
		c-0.314,0-0.543,0.056-0.688,0.167c-0.143,0.111-0.215,0.247-0.215,0.406c0,0.178,0.091,0.312,0.273,0.403s0.579,0.173,1.189,0.246
		c0.925,0.105,1.613,0.25,2.064,0.437c0.451,0.187,0.797,0.453,1.035,0.799c0.24,0.346,0.359,0.726,0.359,1.14
		c0,0.419-0.127,0.827-0.379,1.223c-0.254,0.396-0.652,0.711-1.197,0.946c-0.544,0.234-1.286,0.352-2.225,0.352
		c-1.326,0-2.271-0.189-2.834-0.567C361.104,86.734,360.743,86.197,360.584,85.5z"/>
	<path class="st1" d="M377.688,84.577h-5.578c0.05,0.447,0.171,0.779,0.362,0.998c0.269,0.314,0.62,0.472,1.053,0.472
		c0.273,0,0.533-0.068,0.779-0.205c0.15-0.086,0.313-0.239,0.485-0.458l2.741,0.253c-0.419,0.729-0.925,1.252-1.518,1.569
		s-1.442,0.475-2.55,0.475c-0.962,0-1.718-0.136-2.27-0.407s-1.008-0.702-1.371-1.292c-0.361-0.59-0.543-1.284-0.543-2.082
		c0-1.135,0.363-2.053,1.09-2.755c0.728-0.702,1.731-1.053,3.012-1.053c1.039,0,1.859,0.157,2.461,0.472s1.06,0.77,1.374,1.367
		s0.472,1.374,0.472,2.331V84.577z M374.857,83.244c-0.055-0.538-0.199-0.923-0.434-1.155c-0.235-0.232-0.544-0.349-0.927-0.349
		c-0.442,0-0.795,0.175-1.06,0.526c-0.169,0.219-0.275,0.544-0.321,0.978H374.857z"/>
	<path class="st1" d="M378.043,88.569h7.164v0.697h-7.164V88.569z"/>
	<path class="st1" d="M386.062,77.495h2.789v10.021h-2.789V77.495z"/>
	<path class="st1" d="M390.286,83.907c0-1.107,0.374-2.02,1.121-2.738s1.757-1.077,3.028-1.077c1.454,0,2.552,0.421,3.295,1.265
		c0.597,0.679,0.896,1.515,0.896,2.509c0,1.117-0.37,2.031-1.11,2.745c-0.741,0.713-1.766,1.07-3.073,1.07
		c-1.167,0-2.11-0.296-2.83-0.889C390.729,86.058,390.286,85.096,390.286,83.907z M393.075,83.9c0,0.647,0.131,1.125,0.394,1.436
		c0.262,0.31,0.591,0.465,0.987,0.465c0.401,0,0.73-0.153,0.987-0.458c0.258-0.305,0.387-0.795,0.387-1.47
		c0-0.629-0.13-1.097-0.39-1.405s-0.581-0.461-0.964-0.461c-0.405,0-0.74,0.156-1.005,0.468S393.075,83.262,393.075,83.9z"/>
	<path class="st1" d="M405.018,80.256h2.604v6.856l0.007,0.321c0,0.456-0.097,0.89-0.291,1.302
		c-0.193,0.413-0.451,0.746-0.771,1.001c-0.322,0.255-0.729,0.44-1.225,0.554c-0.494,0.114-1.061,0.171-1.698,0.171
		c-1.458,0-2.46-0.219-3.005-0.656c-0.544-0.438-0.816-1.023-0.816-1.757c0-0.091,0.005-0.214,0.014-0.369l2.7,0.308
		c0.068,0.25,0.173,0.424,0.314,0.52c0.205,0.141,0.463,0.212,0.772,0.212c0.401,0,0.701-0.107,0.898-0.321
		c0.199-0.214,0.298-0.588,0.298-1.121v-1.101c-0.273,0.324-0.547,0.558-0.82,0.704c-0.429,0.228-0.891,0.342-1.388,0.342
		c-0.971,0-1.755-0.424-2.352-1.271c-0.424-0.602-0.636-1.397-0.636-2.386c0-1.13,0.273-1.992,0.82-2.584s1.263-0.889,2.146-0.889
		c0.565,0,1.031,0.096,1.397,0.287c0.367,0.191,0.71,0.508,1.029,0.95V80.256z M402.399,83.777c0,0.524,0.111,0.913,0.335,1.166
		s0.518,0.379,0.882,0.379c0.347,0,0.637-0.131,0.872-0.393c0.234-0.262,0.352-0.657,0.352-1.186s-0.123-0.933-0.369-1.213
		s-0.547-0.42-0.902-0.42s-0.639,0.129-0.852,0.386C402.506,82.752,402.399,83.18,402.399,83.777z"/>
	<path class="st1" d="M409.406,77.495h2.782v1.894h-2.782V77.495z M409.406,80.256h2.782v7.26h-2.782V80.256z"/>
	<path class="st1" d="M417.322,77.495v2.762h1.531v2.037h-1.531v2.572c0,0.309,0.029,0.514,0.089,0.614
		c0.091,0.155,0.251,0.232,0.479,0.232c0.205,0,0.492-0.059,0.861-0.177l0.205,1.92c-0.688,0.15-1.331,0.226-1.928,0.226
		c-0.692,0-1.203-0.089-1.531-0.266c-0.328-0.178-0.571-0.447-0.728-0.809c-0.158-0.362-0.236-0.948-0.236-1.758v-2.553h-1.025
		v-2.037h1.025v-1.333L417.322,77.495z"/>
	<path class="st1" d="M419.257,88.569h7.164v0.697h-7.164V88.569z"/>
	<path class="st1" d="M427.2,80.256h2.598v1.06c0.374-0.442,0.752-0.756,1.133-0.943s0.841-0.28,1.38-0.28
		c0.579,0,1.038,0.103,1.376,0.308s0.613,0.51,0.828,0.916c0.437-0.474,0.835-0.796,1.194-0.967c0.36-0.171,0.804-0.256,1.331-0.256
		c0.778,0,1.387,0.231,1.823,0.694s0.655,1.186,0.655,2.17v4.56h-2.789V83.38c0-0.328-0.063-0.572-0.19-0.731
		c-0.187-0.25-0.418-0.376-0.695-0.376c-0.327,0-0.59,0.119-0.79,0.355s-0.3,0.618-0.3,1.142v3.746h-2.789v-3.999
		c0-0.319-0.019-0.536-0.055-0.649c-0.06-0.182-0.162-0.329-0.309-0.441s-0.318-0.167-0.515-0.167c-0.32,0-0.583,0.121-0.789,0.362
		s-0.309,0.638-0.309,1.189v3.705H427.2V80.256z"/>
	<path class="st1" d="M440.838,83.907c0-1.107,0.374-2.02,1.121-2.738s1.757-1.077,3.028-1.077c1.454,0,2.552,0.421,3.295,1.265
		c0.597,0.679,0.896,1.515,0.896,2.509c0,1.117-0.37,2.031-1.11,2.745c-0.741,0.713-1.766,1.07-3.073,1.07
		c-1.167,0-2.11-0.296-2.83-0.889C441.28,86.058,440.838,85.096,440.838,83.907z M443.627,83.9c0,0.647,0.131,1.125,0.394,1.436
		c0.262,0.31,0.591,0.465,0.987,0.465c0.401,0,0.73-0.153,0.987-0.458c0.258-0.305,0.387-0.795,0.387-1.47
		c0-0.629-0.13-1.097-0.39-1.405s-0.581-0.461-0.964-0.461c-0.405,0-0.74,0.156-1.005,0.468S443.627,83.262,443.627,83.9z"/>
	<path class="st1" d="M458.16,77.495v10.021h-2.604v-1.073c-0.364,0.456-0.697,0.763-0.998,0.923
		c-0.401,0.209-0.848,0.314-1.34,0.314c-0.989,0-1.744-0.376-2.266-1.128c-0.522-0.752-0.783-1.666-0.783-2.741
		c0-1.203,0.288-2.124,0.865-2.762c0.576-0.638,1.309-0.957,2.197-0.957c0.433,0,0.826,0.073,1.18,0.219
		c0.353,0.146,0.666,0.365,0.939,0.656v-3.473H458.16z M455.371,83.866c0-0.57-0.121-0.995-0.362-1.275s-0.547-0.42-0.916-0.42
		c-0.323,0-0.595,0.134-0.813,0.403s-0.328,0.72-0.328,1.354c0,0.592,0.112,1.026,0.339,1.302c0.225,0.276,0.504,0.414,0.837,0.414
		c0.355,0,0.651-0.139,0.889-0.417S455.371,84.495,455.371,83.866z"/>
	<path class="st1" d="M467.915,84.577h-5.578c0.05,0.447,0.171,0.779,0.362,0.998c0.269,0.314,0.62,0.472,1.053,0.472
		c0.273,0,0.533-0.068,0.779-0.205c0.15-0.086,0.313-0.239,0.485-0.458l2.741,0.253c-0.419,0.729-0.925,1.252-1.518,1.569
		s-1.442,0.475-2.55,0.475c-0.962,0-1.718-0.136-2.27-0.407s-1.008-0.702-1.371-1.292c-0.361-0.59-0.543-1.284-0.543-2.082
		c0-1.135,0.363-2.053,1.09-2.755c0.728-0.702,1.731-1.053,3.012-1.053c1.039,0,1.859,0.157,2.461,0.472s1.06,0.77,1.374,1.367
		s0.472,1.374,0.472,2.331V84.577z M465.085,83.244c-0.055-0.538-0.199-0.923-0.434-1.155c-0.235-0.232-0.544-0.349-0.927-0.349
		c-0.442,0-0.795,0.175-1.06,0.526c-0.169,0.219-0.275,0.544-0.321,0.978H465.085z"/>
	<path class="st1" d="M469.289,77.495h2.789v10.021h-2.789V77.495z"/>
</g>
<rect x="223.605" y="79.611" class="st2" width="85.106" height="59.397"/>
<path class="st3" d="M223.605,87.036h85.106 M234.243,79.611v59.397"/>
<g>
	<path class="st4" d="M248.35,114.834h-3.516l-0.489,1.654h-3.162l3.767-10.021h3.378l3.766,10.021h-3.243L248.35,114.834z
		 M247.708,112.667l-1.106-3.603l-1.095,3.603H247.708z"/>
	<path class="st4" d="M258.308,113.645l2.646,0.301c-0.146,0.551-0.385,1.029-0.718,1.432s-0.758,0.717-1.275,0.94
		s-1.175,0.335-1.972,0.335c-0.77,0-1.412-0.072-1.924-0.215c-0.513-0.143-0.954-0.375-1.323-0.696
		c-0.369-0.321-0.659-0.698-0.868-1.13s-0.314-1.006-0.314-1.721c0-0.747,0.127-1.368,0.383-1.865
		c0.187-0.364,0.442-0.691,0.766-0.98s0.656-0.504,0.998-0.646c0.542-0.223,1.237-0.334,2.085-0.334c1.185,0,2.088,0.212,2.71,0.636
		s1.059,1.043,1.309,1.859l-2.618,0.349c-0.082-0.31-0.231-0.543-0.448-0.701s-0.507-0.236-0.872-0.236
		c-0.46,0-0.833,0.165-1.118,0.495c-0.285,0.33-0.427,0.829-0.427,1.498c0,0.596,0.141,1.048,0.424,1.358
		c0.283,0.309,0.643,0.464,1.08,0.464c0.365,0,0.671-0.093,0.919-0.28S258.185,114.032,258.308,113.645z"/>
	<path class="st4" d="M267.646,113.645l2.646,0.301c-0.146,0.551-0.385,1.029-0.718,1.432s-0.758,0.717-1.275,0.94
		s-1.175,0.335-1.972,0.335c-0.77,0-1.412-0.072-1.924-0.215c-0.513-0.143-0.954-0.375-1.323-0.696
		c-0.369-0.321-0.659-0.698-0.868-1.13s-0.314-1.006-0.314-1.721c0-0.747,0.127-1.368,0.383-1.865
		c0.187-0.364,0.442-0.691,0.766-0.98s0.656-0.504,0.998-0.646c0.542-0.223,1.237-0.334,2.085-0.334c1.185,0,2.088,0.212,2.71,0.636
		s1.059,1.043,1.309,1.859l-2.618,0.349c-0.082-0.31-0.231-0.543-0.448-0.701s-0.507-0.236-0.872-0.236
		c-0.46,0-0.833,0.165-1.118,0.495c-0.285,0.33-0.427,0.829-0.427,1.498c0,0.596,0.141,1.048,0.424,1.358
		c0.283,0.309,0.643,0.464,1.08,0.464c0.365,0,0.671-0.093,0.919-0.28S267.523,114.032,267.646,113.645z"/>
	<path class="st4" d="M279.629,113.549h-5.578c0.05,0.447,0.171,0.779,0.362,0.998c0.269,0.314,0.62,0.472,1.053,0.472
		c0.273,0,0.533-0.068,0.779-0.205c0.15-0.086,0.312-0.239,0.485-0.458l2.741,0.253c-0.419,0.729-0.925,1.252-1.518,1.569
		s-1.442,0.475-2.55,0.475c-0.961,0-1.718-0.136-2.27-0.407s-1.008-0.702-1.371-1.292s-0.543-1.284-0.543-2.082
		c0-1.135,0.363-2.053,1.09-2.755s1.73-1.053,3.011-1.053c1.039,0,1.859,0.157,2.461,0.472s1.06,0.77,1.374,1.367
		s0.472,1.374,0.472,2.331V113.549z M276.799,112.216c-0.055-0.538-0.199-0.923-0.434-1.155s-0.543-0.349-0.926-0.349
		c-0.442,0-0.795,0.175-1.06,0.526c-0.168,0.219-0.276,0.544-0.321,0.978H276.799z"/>
	<path class="st4" d="M280.921,119.25v-10.021h2.604v1.073c0.36-0.451,0.69-0.756,0.991-0.916c0.406-0.214,0.854-0.321,1.347-0.321
		c0.971,0,1.722,0.372,2.252,1.114s0.796,1.661,0.796,2.755c0,1.208-0.29,2.129-0.868,2.765s-1.31,0.954-2.194,0.954
		c-0.428,0-0.819-0.073-1.172-0.219s-0.669-0.362-0.947-0.649v3.466H280.921z M283.71,112.879c0,0.574,0.121,1,0.362,1.278
		s0.547,0.417,0.916,0.417c0.324,0,0.595-0.133,0.813-0.4s0.328-0.719,0.328-1.357c0-0.588-0.114-1.02-0.342-1.295
		s-0.506-0.414-0.834-0.414c-0.355,0-0.652,0.139-0.889,0.417S283.71,112.255,283.71,112.879z"/>
	<path class="st4" d="M293.602,106.467v2.762h1.531v2.037h-1.531v2.572c0,0.309,0.03,0.514,0.089,0.614
		c0.091,0.155,0.25,0.232,0.479,0.232c0.205,0,0.492-0.059,0.861-0.177l0.205,1.92c-0.688,0.15-1.331,0.226-1.928,0.226
		c-0.693,0-1.203-0.089-1.531-0.266c-0.328-0.178-0.571-0.447-0.728-0.809s-0.236-0.948-0.236-1.758v-2.553h-1.025v-2.037h1.025
		v-1.333L293.602,106.467z"/>
	<path class="st4" d="M295.967,114.472l2.762-0.26c0.114,0.328,0.273,0.563,0.479,0.704s0.479,0.212,0.82,0.212
		c0.374,0,0.663-0.08,0.868-0.239c0.16-0.119,0.239-0.266,0.239-0.444c0-0.2-0.105-0.355-0.314-0.464
		c-0.15-0.078-0.549-0.173-1.196-0.287c-0.966-0.168-1.637-0.324-2.013-0.468c-0.376-0.143-0.693-0.386-0.95-0.727
		s-0.386-0.73-0.386-1.168c0-0.478,0.139-0.89,0.417-1.236s0.661-0.604,1.148-0.775c0.488-0.171,1.142-0.256,1.962-0.256
		c0.866,0,1.505,0.066,1.917,0.198s0.756,0.337,1.032,0.615s0.505,0.654,0.687,1.128l-2.639,0.26
		c-0.068-0.232-0.182-0.403-0.342-0.513c-0.219-0.146-0.483-0.219-0.793-0.219c-0.314,0-0.543,0.056-0.687,0.167
		c-0.144,0.111-0.215,0.247-0.215,0.406c0,0.178,0.091,0.312,0.273,0.403s0.579,0.173,1.189,0.246
		c0.925,0.105,1.613,0.25,2.064,0.437c0.451,0.187,0.796,0.453,1.036,0.799c0.239,0.346,0.359,0.726,0.359,1.14
		c0,0.419-0.126,0.827-0.379,1.223s-0.652,0.711-1.196,0.946s-1.286,0.352-2.225,0.352c-1.326,0-2.271-0.189-2.833-0.567
		S296.127,115.169,295.967,114.472z"/>
</g>
<g>
	<path class="st5" d="M436.027,43.208L436.027,43.208c0-15.46-12.525-27.968-27.983-27.968c-15.443,0-27.968,12.508-27.968,27.968
		c0,15.443,12.525,27.984,27.968,27.984C423.502,71.192,436.027,58.651,436.027,43.208z"/>
	<path class="st4" d="M400.404,44.159L400.404,44.159l-1.262,1.886c-0.41-0.426-0.918-0.754-1.459-0.983l1.295-1.919
		C399.371,43.569,399.863,43.912,400.404,44.159z M409.698,35.224L409.698,35.224l1.296,1.919c0.393-0.426,0.885-0.771,1.427-1.001
		l-1.263-1.884C410.749,34.666,410.258,34.994,409.698,35.224z M405.19,37.011L405.19,37.011l1.197-1.787
		c-0.542-0.229-1.049-0.557-1.46-0.966l-1.213,1.818C404.273,36.29,404.764,36.603,405.19,37.011z M411.027,43.191L411.027,43.191
		l-1.296,1.886c0.559,0.229,1.051,0.575,1.444,0.983l1.294-1.884C411.929,43.945,411.438,43.602,411.027,43.191z M406.421,45.044
		L406.421,45.044l-1.197-1.803c-0.409,0.409-0.9,0.739-1.457,0.968l1.195,1.803C405.372,45.601,405.879,45.273,406.421,45.044z
		 M418.404,45.061L418.404,45.061l-1.197-1.787c-0.409,0.409-0.918,0.739-1.475,0.951l1.23,1.82
		C417.373,45.619,417.864,45.291,418.404,45.061z M408.044,27.912L408.044,27.912c-1.803,0-3.28,1.46-3.28,3.28
		c0,1.803,1.477,3.278,3.28,3.278c1.818,0,3.278-1.475,3.278-3.278C411.322,29.372,409.862,27.912,408.044,27.912z M399.306,49.11
		L399.306,49.11c0,1.803-1.475,3.278-3.279,3.278c-1.82,0-3.279-1.475-3.279-3.278c0-1.82,1.459-3.28,3.279-3.28
		C397.831,45.831,399.306,47.29,399.306,49.11z M423.338,49.11L423.338,49.11c0,1.803-1.457,3.278-3.278,3.278
		c-1.803,0-3.28-1.475-3.28-3.278c0-1.82,1.477-3.28,3.28-3.28C421.881,45.831,423.338,47.29,423.338,49.11z M411.322,49.11
		L411.322,49.11c0,1.803-1.46,3.278-3.278,3.278c-1.803,0-3.28-1.475-3.28-3.278c0-1.82,1.477-3.28,3.28-3.28
		C409.862,45.831,411.322,47.29,411.322,49.11z M405.42,40.143L405.42,40.143c0,1.82-1.457,3.278-3.278,3.278
		c-1.803,0-3.279-1.457-3.279-3.278c0-1.803,1.475-3.278,3.279-3.278C403.962,36.865,405.42,38.34,405.42,40.143z M417.438,40.143
		L417.438,40.143c0,1.82-1.46,3.278-3.28,3.278c-1.803,0-3.278-1.457-3.278-3.278c0-1.803,1.475-3.278,3.278-3.278
		C415.979,36.865,417.438,38.34,417.438,40.143z"/>
</g>
<g>
	<path class="st1" d="M130.149,257.729v-10.021h5.161c0.957,0,1.688,0.082,2.194,0.246s0.914,0.469,1.224,0.912
		c0.31,0.445,0.465,0.986,0.465,1.624c0,0.556-0.119,1.036-0.355,1.438c-0.237,0.404-0.563,0.73-0.979,0.981
		c-0.264,0.159-0.627,0.292-1.087,0.396c0.369,0.123,0.638,0.246,0.806,0.369c0.114,0.082,0.279,0.258,0.495,0.527
		c0.216,0.269,0.361,0.477,0.434,0.622l1.5,2.904h-3.499l-1.655-3.063c-0.209-0.396-0.396-0.654-0.561-0.772
		c-0.223-0.155-0.476-0.232-0.759-0.232h-0.273v4.067H130.149z M133.26,251.768h1.306c0.141,0,0.415-0.046,0.82-0.137
		c0.205-0.041,0.373-0.146,0.502-0.314s0.195-0.362,0.195-0.581c0-0.323-0.103-0.572-0.308-0.745s-0.59-0.26-1.155-0.26h-1.36
		V251.768z"/>
	<path class="st1" d="M140.991,247.707h8.299v2.14h-5.195v1.593h4.819v2.044h-4.819v1.976h5.346v2.27h-8.449V247.707z"/>
	<path class="st1" d="M155.278,247.707h3.104v5.444c0,1.144-0.102,2.014-0.304,2.61c-0.203,0.596-0.611,1.102-1.224,1.516
		c-0.613,0.415-1.398,0.622-2.355,0.622c-1.012,0-1.795-0.137-2.352-0.41s-0.985-0.673-1.289-1.2
		c-0.303-0.525-0.482-1.177-0.537-1.951l2.96-0.403c0.004,0.442,0.043,0.771,0.116,0.984s0.196,0.388,0.369,0.52
		c0.119,0.087,0.287,0.13,0.506,0.13c0.346,0,0.601-0.129,0.762-0.386c0.162-0.258,0.243-0.691,0.243-1.301V247.707z"/>
	<path class="st1" d="M160.439,247.707h8.299v2.14h-5.195v1.593h4.819v2.044h-4.819v1.976h5.346v2.27h-8.449V247.707z"/>
	<path class="st1" d="M177.229,253.627l2.714,0.82c-0.182,0.761-0.469,1.396-0.861,1.907s-0.878,0.896-1.459,1.155
		s-1.32,0.39-2.218,0.39c-1.089,0-1.979-0.158-2.669-0.475s-1.286-0.873-1.788-1.67c-0.501-0.798-0.752-1.817-0.752-3.062
		c0-1.657,0.441-2.932,1.323-3.821c0.882-0.891,2.129-1.336,3.743-1.336c1.262,0,2.255,0.255,2.977,0.766s1.259,1.294,1.61,2.352
		l-2.734,0.608c-0.096-0.306-0.196-0.528-0.301-0.67c-0.173-0.237-0.385-0.419-0.636-0.547s-0.531-0.191-0.841-0.191
		c-0.702,0-1.24,0.282-1.613,0.847c-0.283,0.419-0.424,1.076-0.424,1.974c0,1.11,0.168,1.872,0.506,2.283
		c0.337,0.412,0.811,0.618,1.422,0.618c0.592,0,1.04-0.166,1.343-0.499S177.092,254.261,177.229,253.627z"/>
	<path class="st1" d="M180.742,247.707h9.413v2.475h-3.158v7.547H183.9v-7.547h-3.158V247.707z"/>
</g>
<g>
	<path class="st1" d="M118.18,265.462h3.104v10.021h-3.104V265.462z"/>
	<path class="st1" d="M123.525,265.462h2.892l3.773,5.544v-5.544h2.919v10.021h-2.919l-3.753-5.503v5.503h-2.912V265.462z"/>
	<path class="st1" d="M135.181,265.462h7.656v2.153h-4.546v1.75h3.883v2.023h-3.883v4.095h-3.11V265.462z"/>
	<path class="st1" d="M144.498,265.462h8.299v2.14h-5.195v1.593h4.819v2.044h-4.819v1.976h5.346v2.27h-8.449V265.462z"/>
	<path class="st1" d="M154.656,275.483v-10.021h5.161c0.957,0,1.688,0.082,2.194,0.246s0.914,0.469,1.224,0.912
		c0.31,0.445,0.465,0.986,0.465,1.624c0,0.556-0.119,1.036-0.355,1.438c-0.237,0.404-0.563,0.73-0.979,0.981
		c-0.264,0.159-0.627,0.292-1.087,0.396c0.369,0.123,0.638,0.246,0.806,0.369c0.114,0.082,0.279,0.258,0.495,0.527
		c0.216,0.269,0.361,0.477,0.434,0.622l1.5,2.904h-3.499l-1.655-3.063c-0.209-0.396-0.396-0.654-0.561-0.772
		c-0.223-0.155-0.476-0.232-0.759-0.232h-0.273v4.067H154.656z M157.767,269.522h1.306c0.141,0,0.415-0.046,0.82-0.137
		c0.205-0.041,0.373-0.146,0.502-0.314s0.195-0.362,0.195-0.581c0-0.323-0.103-0.572-0.308-0.745s-0.59-0.26-1.155-0.26h-1.36
		V269.522z"/>
	<path class="st1" d="M165.498,265.462h8.299v2.14h-5.195v1.593h4.819v2.044h-4.819v1.976h5.346v2.27h-8.449V265.462z"/>
	<path class="st1" d="M175.636,265.462h2.892l3.773,5.544v-5.544h2.919v10.021h-2.919l-3.753-5.503v5.503h-2.912V265.462z"/>
	<path class="st1" d="M193.949,271.382l2.714,0.82c-0.182,0.761-0.469,1.396-0.861,1.907s-0.878,0.896-1.459,1.155
		s-1.32,0.39-2.218,0.39c-1.089,0-1.979-0.158-2.669-0.475s-1.286-0.873-1.788-1.67c-0.501-0.798-0.752-1.817-0.752-3.062
		c0-1.657,0.441-2.932,1.323-3.821c0.882-0.891,2.129-1.336,3.743-1.336c1.262,0,2.255,0.255,2.977,0.766s1.259,1.294,1.61,2.352
		l-2.734,0.608c-0.096-0.306-0.196-0.528-0.301-0.67c-0.173-0.237-0.385-0.419-0.636-0.547s-0.531-0.191-0.841-0.191
		c-0.702,0-1.24,0.282-1.613,0.847c-0.283,0.419-0.424,1.076-0.424,1.974c0,1.11,0.168,1.872,0.506,2.283
		c0.337,0.412,0.811,0.618,1.422,0.618c0.592,0,1.04-0.166,1.343-0.499S193.813,272.016,193.949,271.382z"/>
	<path class="st1" d="M198.16,265.462h8.299v2.14h-5.195v1.593h4.819v2.044h-4.819v1.976h5.346v2.27h-8.449V265.462z"/>
</g>
<rect x="16.159" y="176.242" class="st6" width="85.106" height="59.397"/>
<path class="st3" d="M16.159,183.667h85.106 M26.797,176.242v59.397"/>
<g>
	<path class="st4" d="M37.54,213.281V203.26h5.161c0.957,0,1.688,0.082,2.194,0.246s0.914,0.469,1.224,0.912
		c0.31,0.445,0.465,0.986,0.465,1.624c0,0.556-0.119,1.036-0.355,1.438c-0.237,0.404-0.563,0.73-0.979,0.981
		c-0.264,0.159-0.627,0.292-1.087,0.396c0.369,0.123,0.638,0.246,0.806,0.369c0.114,0.082,0.279,0.258,0.495,0.527
		c0.216,0.269,0.361,0.477,0.434,0.622l1.5,2.904h-3.499l-1.655-3.063c-0.209-0.396-0.396-0.654-0.561-0.772
		c-0.223-0.155-0.476-0.232-0.759-0.232H40.65v4.067H37.54z M40.65,207.32h1.306c0.141,0,0.415-0.046,0.82-0.137
		c0.205-0.041,0.373-0.146,0.502-0.314s0.195-0.362,0.195-0.581c0-0.323-0.103-0.572-0.308-0.745s-0.59-0.26-1.155-0.26h-1.36
		V207.32z"/>
	<path class="st4" d="M56.264,210.342h-5.578c0.05,0.446,0.171,0.779,0.362,0.998c0.269,0.314,0.62,0.472,1.053,0.472
		c0.273,0,0.533-0.068,0.779-0.205c0.15-0.087,0.312-0.239,0.485-0.458l2.741,0.253c-0.419,0.729-0.925,1.252-1.518,1.569
		c-0.592,0.316-1.442,0.475-2.55,0.475c-0.961,0-1.718-0.136-2.27-0.406c-0.551-0.271-1.008-0.702-1.371-1.293
		c-0.362-0.59-0.543-1.283-0.543-2.081c0-1.135,0.363-2.053,1.09-2.755s1.73-1.053,3.011-1.053c1.039,0,1.859,0.157,2.461,0.472
		s1.06,0.771,1.374,1.367s0.472,1.374,0.472,2.331V210.342z M53.434,209.009c-0.055-0.538-0.199-0.923-0.434-1.155
		s-0.543-0.349-0.926-0.349c-0.442,0-0.795,0.176-1.06,0.526c-0.168,0.219-0.276,0.545-0.321,0.978H53.434z"/>
	<path class="st4" d="M57.651,206.021h2.789v7.041c0,0.897-0.065,1.533-0.195,1.907s-0.37,0.677-0.721,0.909
		s-0.852,0.349-1.504,0.349c-0.538,0-1.206-0.08-2.003-0.239l0.417-2.023c0.223,0.046,0.387,0.068,0.492,0.068
		c0.237,0,0.417-0.081,0.54-0.242c0.123-0.162,0.185-0.484,0.185-0.968V206.021z M57.651,203.26h2.789v1.914h-2.789V203.26z"/>
	<path class="st4" d="M70.264,210.342h-5.578c0.05,0.446,0.171,0.779,0.362,0.998c0.269,0.314,0.62,0.472,1.053,0.472
		c0.273,0,0.533-0.068,0.779-0.205c0.15-0.087,0.312-0.239,0.485-0.458l2.741,0.253c-0.419,0.729-0.925,1.252-1.518,1.569
		c-0.592,0.316-1.442,0.475-2.55,0.475c-0.961,0-1.718-0.136-2.27-0.406c-0.551-0.271-1.008-0.702-1.371-1.293
		c-0.362-0.59-0.543-1.283-0.543-2.081c0-1.135,0.363-2.053,1.09-2.755s1.73-1.053,3.011-1.053c1.039,0,1.859,0.157,2.461,0.472
		s1.06,0.771,1.374,1.367s0.472,1.374,0.472,2.331V210.342z M67.434,209.009c-0.055-0.538-0.199-0.923-0.434-1.155
		s-0.543-0.349-0.926-0.349c-0.442,0-0.795,0.176-1.06,0.526c-0.168,0.219-0.276,0.545-0.321,0.978H67.434z"/>
	<path class="st4" d="M76.956,210.438l2.646,0.301c-0.146,0.552-0.385,1.029-0.718,1.432c-0.333,0.404-0.758,0.717-1.275,0.94
		s-1.175,0.335-1.972,0.335c-0.77,0-1.412-0.072-1.924-0.215c-0.513-0.144-0.954-0.376-1.323-0.697
		c-0.369-0.32-0.659-0.697-0.868-1.13s-0.314-1.006-0.314-1.722c0-0.746,0.127-1.368,0.383-1.864
		c0.187-0.364,0.442-0.69,0.766-0.979s0.656-0.505,0.998-0.646c0.542-0.224,1.237-0.335,2.085-0.335c1.185,0,2.088,0.212,2.71,0.636
		s1.059,1.044,1.309,1.859l-2.618,0.349c-0.082-0.31-0.231-0.543-0.448-0.701c-0.216-0.156-0.507-0.235-0.872-0.235
		c-0.46,0-0.833,0.165-1.118,0.495c-0.285,0.329-0.427,0.829-0.427,1.497c0,0.597,0.141,1.049,0.424,1.358s0.643,0.464,1.08,0.464
		c0.365,0,0.671-0.094,0.919-0.28S76.833,210.825,76.956,210.438z"/>
	<path class="st4" d="M84.236,203.26v2.762h1.531v2.037h-1.531v2.572c0,0.309,0.03,0.514,0.089,0.613
		c0.091,0.155,0.25,0.232,0.479,0.232c0.205,0,0.492-0.059,0.861-0.178l0.205,1.921c-0.688,0.15-1.331,0.226-1.928,0.226
		c-0.693,0-1.203-0.089-1.531-0.267c-0.328-0.177-0.571-0.447-0.728-0.809c-0.157-0.362-0.236-0.948-0.236-1.758v-2.554h-1.025
		v-2.037h1.025v-1.333L84.236,203.26z"/>
	<path class="st4" d="M86.602,211.265l2.762-0.26c0.114,0.328,0.273,0.563,0.479,0.704s0.479,0.212,0.82,0.212
		c0.374,0,0.663-0.079,0.868-0.239c0.16-0.118,0.239-0.266,0.239-0.443c0-0.2-0.105-0.354-0.314-0.464
		c-0.15-0.077-0.549-0.173-1.196-0.287c-0.966-0.168-1.637-0.324-2.013-0.468s-0.693-0.386-0.95-0.727
		c-0.257-0.342-0.386-0.731-0.386-1.168c0-0.479,0.139-0.891,0.417-1.236s0.661-0.604,1.148-0.775
		c0.488-0.17,1.142-0.256,1.962-0.256c0.866,0,1.505,0.066,1.917,0.198s0.756,0.337,1.032,0.615s0.505,0.654,0.687,1.128
		l-2.639,0.26c-0.068-0.232-0.182-0.403-0.342-0.513c-0.219-0.146-0.483-0.219-0.793-0.219c-0.314,0-0.543,0.056-0.687,0.167
		s-0.215,0.247-0.215,0.406c0,0.178,0.091,0.312,0.273,0.402c0.182,0.092,0.579,0.174,1.189,0.246
		c0.925,0.104,1.613,0.251,2.064,0.438s0.796,0.453,1.036,0.799s0.359,0.726,0.359,1.141c0,0.419-0.126,0.826-0.379,1.222
		c-0.253,0.396-0.652,0.712-1.196,0.946s-1.286,0.352-2.225,0.352c-1.326,0-2.271-0.189-2.833-0.567S86.761,211.962,86.602,211.265z
		"/>
</g>
<g>
	<path class="st5" d="M189.574,205.442L189.574,205.442c0-15.46-12.525-27.968-27.983-27.968c-15.443,0-27.968,12.508-27.968,27.968
		c0,15.443,12.525,27.984,27.968,27.984C177.049,233.426,189.574,220.885,189.574,205.442z"/>
	<path class="st4" d="M157,206.803L157,206.803c0,1.294-1.049,2.36-2.344,2.36h-2.738c-1.295,0-2.344-1.066-2.344-2.36v-2.723
		c0-1.294,1.049-2.36,2.344-2.36h2.738c1.295,0,2.344,1.066,2.344,2.36V206.803z M165.312,204.081L165.312,204.081
		c0-1.294-1.049-2.36-2.345-2.36h-2.753c-1.296,0-2.329,1.066-2.329,2.36v2.723c0,1.294,1.034,2.36,2.329,2.36h2.753
		c1.296,0,2.345-1.066,2.345-2.36V204.081z M173.622,204.081L173.622,204.081c0-1.294-1.049-2.36-2.342-2.36h-2.756
		c-1.294,0-2.345,1.066-2.345,2.36v2.723c0,1.294,1.051,2.36,2.345,2.36h2.756c1.294,0,2.342-1.066,2.342-2.36V204.081z
		 M157,212.393L157,212.393c0-1.311-1.049-2.36-2.344-2.36h-2.738c-1.295,0-2.344,1.049-2.344,2.36v2.705
		c0,1.312,1.049,2.361,2.344,2.361h2.738c1.295,0,2.344-1.049,2.344-2.361V212.393z M165.312,212.393L165.312,212.393
		c0-1.311-1.049-2.36-2.345-2.36h-2.753c-1.296,0-2.329,1.049-2.329,2.36l0,2.705c0,1.312,1.034,2.361,2.329,2.361h2.753
		c1.296,0,2.345-1.049,2.345-2.361L165.312,212.393z M173.622,212.393L173.622,212.393c0-1.311-1.049-2.36-2.342-2.36h-2.756
		c-1.294,0-2.345,1.049-2.345,2.36l0,2.705c0,1.312,1.051,2.361,2.345,2.361h2.756c1.294,0,2.342-1.049,2.342-2.361V212.393z
		 M157,195.77L157,195.77c0-1.296-1.049-2.345-2.344-2.345h-2.738c-1.295,0-2.344,1.049-2.344,2.345v2.721
		c0,1.296,1.049,2.36,2.344,2.36h2.738c1.295,0,2.344-1.064,2.344-2.36V195.77z M165.312,195.77L165.312,195.77
		c0-1.296-1.049-2.345-2.345-2.345h-2.753c-1.296,0-2.329,1.049-2.329,2.345v2.721c0,1.296,1.034,2.36,2.329,2.36l2.753,0
		c1.296,0,2.345-1.064,2.345-2.36V195.77z M173.312,191.918L173.312,191.918c-0.656-1.132-2.082-1.525-3.197-0.87l-2.393,1.377
		c-1.117,0.64-1.492,2.082-0.854,3.214l1.361,2.342c0.656,1.132,2.098,1.525,3.214,0.87l2.375-1.377
		c1.117-0.64,1.51-2.082,0.854-3.214L173.312,191.918z"/>
</g>
<rect x="223.605" y="176.242" class="st6" width="85.106" height="59.397"/>
<path class="st3" d="M223.605,183.667h85.106 M234.243,176.242v59.397"/>
<g>
	<path class="st4" d="M242.198,195.278h3.104V205.3h-3.104V195.278z"/>
	<path class="st4" d="M247.339,198.04h2.591v1.183c0.387-0.483,0.779-0.828,1.176-1.036c0.396-0.207,0.879-0.311,1.449-0.311
		c0.77,0,1.373,0.229,1.808,0.688c0.435,0.457,0.653,1.165,0.653,2.122v4.614h-2.796v-3.992c0-0.456-0.084-0.778-0.253-0.967
		c-0.168-0.189-0.406-0.284-0.711-0.284c-0.337,0-0.611,0.128-0.82,0.383s-0.314,0.713-0.314,1.374v3.486h-2.782V198.04z"/>
	<path class="st4" d="M259.773,198.04h1.326v2.037h-1.326v5.223h-2.789v-5.223h-1.039v-2.037h1.039v-0.328
		c0-0.296,0.032-0.622,0.096-0.978s0.184-0.646,0.359-0.872c0.175-0.225,0.421-0.407,0.738-0.547
		c0.317-0.139,0.78-0.208,1.391-0.208c0.488,0,1.196,0.057,2.126,0.171l-0.308,1.682c-0.333-0.055-0.602-0.082-0.807-0.082
		c-0.25,0-0.431,0.042-0.54,0.127c-0.109,0.084-0.187,0.217-0.232,0.399C259.785,197.505,259.773,197.717,259.773,198.04z"/>
	<path class="st4" d="M270.185,202.36h-5.578c0.05,0.446,0.171,0.779,0.362,0.998c0.269,0.314,0.62,0.472,1.053,0.472
		c0.273,0,0.533-0.068,0.779-0.205c0.15-0.087,0.312-0.239,0.485-0.458l2.741,0.253c-0.419,0.729-0.925,1.252-1.518,1.569
		c-0.592,0.316-1.442,0.475-2.55,0.475c-0.961,0-1.718-0.136-2.27-0.406c-0.551-0.271-1.008-0.702-1.371-1.293
		c-0.362-0.59-0.543-1.283-0.543-2.081c0-1.135,0.363-2.053,1.09-2.755s1.73-1.053,3.011-1.053c1.039,0,1.859,0.157,2.461,0.472
		s1.06,0.771,1.374,1.367s0.472,1.374,0.472,2.331V202.36z M267.354,201.027c-0.055-0.538-0.199-0.923-0.434-1.155
		s-0.543-0.349-0.926-0.349c-0.442,0-0.795,0.176-1.06,0.526c-0.168,0.219-0.276,0.545-0.321,0.978H267.354z"/>
	<path class="st4" d="M271.49,198.04h2.604v1.189c0.25-0.515,0.509-0.869,0.776-1.063c0.267-0.194,0.596-0.291,0.988-0.291
		c0.41,0,0.859,0.128,1.347,0.383l-0.861,1.982c-0.328-0.137-0.588-0.205-0.779-0.205c-0.365,0-0.647,0.15-0.848,0.451
		c-0.287,0.424-0.431,1.217-0.431,2.379v2.434h-2.796V198.04z"/>
	<path class="st4" d="M277.704,198.04h2.604v1.189c0.25-0.515,0.509-0.869,0.776-1.063c0.267-0.194,0.596-0.291,0.988-0.291
		c0.41,0,0.859,0.128,1.347,0.383l-0.861,1.982c-0.328-0.137-0.588-0.205-0.779-0.205c-0.365,0-0.647,0.15-0.848,0.451
		c-0.287,0.424-0.431,1.217-0.431,2.379v2.434h-2.796V198.04z"/>
	<path class="st4" d="M291.95,202.36h-5.578c0.05,0.446,0.171,0.779,0.362,0.998c0.269,0.314,0.62,0.472,1.053,0.472
		c0.273,0,0.533-0.068,0.779-0.205c0.15-0.087,0.312-0.239,0.485-0.458l2.741,0.253c-0.419,0.729-0.925,1.252-1.518,1.569
		c-0.592,0.316-1.442,0.475-2.55,0.475c-0.961,0-1.718-0.136-2.27-0.406c-0.551-0.271-1.008-0.702-1.371-1.293
		c-0.362-0.59-0.543-1.283-0.543-2.081c0-1.135,0.363-2.053,1.09-2.755s1.73-1.053,3.011-1.053c1.039,0,1.859,0.157,2.461,0.472
		s1.06,0.771,1.374,1.367s0.472,1.374,0.472,2.331V202.36z M289.12,201.027c-0.055-0.538-0.199-0.923-0.434-1.155
		s-0.543-0.349-0.926-0.349c-0.442,0-0.795,0.176-1.06,0.526c-0.168,0.219-0.276,0.545-0.321,0.978H289.12z"/>
	<path class="st4" d="M300.871,195.278V205.3h-2.604v-1.073c-0.365,0.456-0.697,0.764-0.998,0.923
		c-0.401,0.21-0.848,0.314-1.34,0.314c-0.989,0-1.744-0.376-2.266-1.128s-0.783-1.666-0.783-2.741c0-1.203,0.288-2.124,0.865-2.762
		s1.309-0.957,2.198-0.957c0.433,0,0.826,0.073,1.179,0.219s0.667,0.364,0.94,0.656v-3.473H300.871z M298.082,201.649
		c0-0.569-0.121-0.994-0.362-1.275c-0.242-0.279-0.547-0.42-0.916-0.42c-0.324,0-0.595,0.135-0.813,0.403s-0.328,0.72-0.328,1.354
		c0,0.593,0.113,1.026,0.338,1.302c0.226,0.276,0.505,0.414,0.837,0.414c0.355,0,0.652-0.139,0.889-0.417
		S298.082,202.278,298.082,201.649z"/>
</g>
<g>
	<path class="st4" d="M243.89,221.283v-10.021h5.161c0.957,0,1.688,0.082,2.194,0.246s0.914,0.469,1.224,0.912
		c0.31,0.445,0.465,0.986,0.465,1.624c0,0.556-0.119,1.036-0.355,1.438c-0.237,0.404-0.563,0.73-0.979,0.981
		c-0.264,0.159-0.627,0.292-1.087,0.396c0.369,0.123,0.638,0.246,0.806,0.369c0.114,0.082,0.279,0.258,0.495,0.527
		c0.216,0.269,0.361,0.477,0.434,0.622l1.5,2.904h-3.499l-1.655-3.063c-0.209-0.396-0.396-0.654-0.561-0.772
		c-0.223-0.155-0.476-0.232-0.759-0.232H247v4.067H243.89z M247,215.322h1.306c0.141,0,0.415-0.046,0.82-0.137
		c0.205-0.041,0.373-0.146,0.502-0.314s0.195-0.362,0.195-0.581c0-0.323-0.103-0.572-0.308-0.745s-0.59-0.26-1.155-0.26H247V215.322
		z"/>
	<path class="st4" d="M262.614,218.344h-5.578c0.05,0.446,0.171,0.779,0.362,0.998c0.269,0.314,0.62,0.472,1.053,0.472
		c0.273,0,0.533-0.068,0.779-0.205c0.15-0.087,0.312-0.239,0.485-0.458l2.741,0.253c-0.419,0.729-0.925,1.252-1.518,1.569
		c-0.592,0.316-1.442,0.475-2.55,0.475c-0.961,0-1.718-0.136-2.27-0.406c-0.551-0.271-1.008-0.702-1.371-1.293
		c-0.362-0.59-0.543-1.283-0.543-2.081c0-1.135,0.363-2.053,1.09-2.755s1.73-1.053,3.011-1.053c1.039,0,1.859,0.157,2.461,0.472
		s1.06,0.771,1.374,1.367s0.472,1.374,0.472,2.331V218.344z M259.784,217.011c-0.055-0.538-0.199-0.923-0.434-1.155
		s-0.543-0.349-0.926-0.349c-0.442,0-0.795,0.176-1.06,0.526c-0.168,0.219-0.276,0.545-0.321,0.978H259.784z"/>
	<path class="st4" d="M264.001,214.023h2.789v7.041c0,0.897-0.065,1.533-0.195,1.907s-0.37,0.677-0.721,0.909
		s-0.852,0.349-1.504,0.349c-0.538,0-1.206-0.08-2.003-0.239l0.417-2.023c0.223,0.046,0.387,0.068,0.492,0.068
		c0.237,0,0.417-0.081,0.54-0.242c0.123-0.162,0.185-0.484,0.185-0.968V214.023z M264.001,211.262h2.789v1.914h-2.789V211.262z"/>
	<path class="st4" d="M276.614,218.344h-5.578c0.05,0.446,0.171,0.779,0.362,0.998c0.269,0.314,0.62,0.472,1.053,0.472
		c0.273,0,0.533-0.068,0.779-0.205c0.15-0.087,0.312-0.239,0.485-0.458l2.741,0.253c-0.419,0.729-0.925,1.252-1.518,1.569
		c-0.592,0.316-1.442,0.475-2.55,0.475c-0.961,0-1.718-0.136-2.27-0.406c-0.551-0.271-1.008-0.702-1.371-1.293
		c-0.362-0.59-0.543-1.283-0.543-2.081c0-1.135,0.363-2.053,1.09-2.755s1.73-1.053,3.011-1.053c1.039,0,1.859,0.157,2.461,0.472
		s1.06,0.771,1.374,1.367s0.472,1.374,0.472,2.331V218.344z M273.784,217.011c-0.055-0.538-0.199-0.923-0.434-1.155
		s-0.543-0.349-0.926-0.349c-0.442,0-0.795,0.176-1.06,0.526c-0.168,0.219-0.276,0.545-0.321,0.978H273.784z"/>
	<path class="st4" d="M283.306,218.439l2.646,0.301c-0.146,0.552-0.385,1.029-0.718,1.432c-0.333,0.404-0.758,0.717-1.275,0.94
		s-1.175,0.335-1.972,0.335c-0.77,0-1.412-0.072-1.924-0.215c-0.513-0.144-0.954-0.376-1.323-0.697
		c-0.369-0.32-0.659-0.697-0.868-1.13s-0.314-1.006-0.314-1.722c0-0.746,0.127-1.368,0.383-1.864
		c0.187-0.364,0.442-0.69,0.766-0.979s0.656-0.505,0.998-0.646c0.542-0.224,1.237-0.335,2.085-0.335c1.185,0,2.088,0.212,2.71,0.636
		s1.059,1.044,1.309,1.859l-2.618,0.349c-0.082-0.31-0.231-0.543-0.448-0.701c-0.216-0.156-0.507-0.235-0.872-0.235
		c-0.46,0-0.833,0.165-1.118,0.495c-0.285,0.329-0.427,0.829-0.427,1.497c0,0.597,0.141,1.049,0.424,1.358s0.643,0.464,1.08,0.464
		c0.365,0,0.671-0.094,0.919-0.28S283.183,218.827,283.306,218.439z"/>
	<path class="st4" d="M290.586,211.262v2.762h1.531v2.037h-1.531v2.572c0,0.309,0.03,0.514,0.089,0.613
		c0.091,0.155,0.25,0.232,0.479,0.232c0.205,0,0.492-0.059,0.861-0.178l0.205,1.921c-0.688,0.15-1.331,0.226-1.928,0.226
		c-0.693,0-1.203-0.089-1.531-0.267c-0.328-0.177-0.571-0.447-0.728-0.809c-0.157-0.362-0.236-0.948-0.236-1.758v-2.554h-1.025
		v-2.037h1.025v-1.333L290.586,211.262z"/>
	<path class="st4" d="M292.952,219.267l2.762-0.26c0.114,0.328,0.273,0.563,0.479,0.704s0.479,0.212,0.82,0.212
		c0.374,0,0.663-0.079,0.868-0.239c0.16-0.118,0.239-0.266,0.239-0.443c0-0.2-0.105-0.354-0.314-0.464
		c-0.15-0.077-0.549-0.173-1.196-0.287c-0.966-0.168-1.637-0.324-2.013-0.468s-0.693-0.386-0.95-0.727
		c-0.257-0.342-0.386-0.731-0.386-1.168c0-0.479,0.139-0.891,0.417-1.236s0.661-0.604,1.148-0.775
		c0.488-0.17,1.142-0.256,1.962-0.256c0.866,0,1.505,0.066,1.917,0.198s0.756,0.337,1.032,0.615s0.505,0.654,0.687,1.128
		l-2.639,0.26c-0.068-0.232-0.182-0.403-0.342-0.513c-0.219-0.146-0.483-0.219-0.793-0.219c-0.314,0-0.543,0.056-0.687,0.167
		s-0.215,0.247-0.215,0.406c0,0.178,0.091,0.312,0.273,0.402c0.182,0.092,0.579,0.174,1.189,0.246
		c0.925,0.104,1.613,0.251,2.064,0.438s0.796,0.453,1.036,0.799s0.359,0.726,0.359,1.141c0,0.419-0.126,0.826-0.379,1.222
		c-0.253,0.396-0.652,0.712-1.196,0.946s-1.286,0.352-2.225,0.352c-1.326,0-2.271-0.189-2.833-0.567
		S293.111,219.964,292.952,219.267z"/>
</g>
<rect x="356.016" y="123.937" class="st6" width="101.151" height="59.397"/>
<path class="st3" d="M356.016,131.362h100.972 M367.762,123.937v59.397"/>
<g>
	<path class="st4" d="M383.106,148.587l2.714,0.82c-0.183,0.761-0.47,1.396-0.861,1.907s-0.878,0.896-1.46,1.155
		c-0.58,0.26-1.32,0.39-2.218,0.39c-1.089,0-1.979-0.158-2.669-0.475c-0.691-0.316-1.287-0.873-1.788-1.67
		c-0.501-0.798-0.752-1.817-0.752-3.062c0-1.657,0.44-2.932,1.323-3.821c0.881-0.891,2.129-1.336,3.742-1.336
		c1.263,0,2.255,0.255,2.977,0.766c0.723,0.511,1.26,1.294,1.61,2.352l-2.734,0.608c-0.096-0.306-0.196-0.528-0.301-0.67
		c-0.173-0.237-0.385-0.419-0.636-0.547s-0.531-0.191-0.841-0.191c-0.702,0-1.239,0.282-1.613,0.847
		c-0.282,0.419-0.424,1.076-0.424,1.974c0,1.11,0.169,1.872,0.506,2.283c0.337,0.412,0.812,0.618,1.422,0.618
		c0.593,0,1.04-0.166,1.343-0.499C382.75,149.703,382.97,149.221,383.106,148.587z"/>
	<path class="st4" d="M386.798,149.079c0-1.107,0.374-2.02,1.121-2.738c0.747-0.717,1.757-1.076,3.028-1.076
		c1.454,0,2.552,0.422,3.295,1.265c0.597,0.679,0.896,1.516,0.896,2.509c0,1.116-0.37,2.031-1.11,2.744
		c-0.741,0.714-1.766,1.07-3.073,1.07c-1.167,0-2.11-0.296-2.83-0.889C387.24,151.23,386.798,150.269,386.798,149.079z
		 M389.587,149.072c0,0.647,0.131,1.126,0.394,1.436c0.262,0.31,0.591,0.465,0.987,0.465c0.401,0,0.73-0.152,0.987-0.458
		c0.258-0.306,0.387-0.795,0.387-1.47c0-0.629-0.13-1.097-0.39-1.405c-0.26-0.307-0.581-0.461-0.964-0.461
		c-0.405,0-0.74,0.156-1.005,0.469C389.719,147.959,389.587,148.435,389.587,149.072z"/>
	<path class="st4" d="M396.498,145.429h2.598v1.06c0.374-0.442,0.752-0.757,1.133-0.943s0.841-0.28,1.38-0.28
		c0.579,0,1.038,0.103,1.376,0.308s0.613,0.511,0.828,0.916c0.437-0.474,0.835-0.796,1.194-0.968c0.36-0.17,0.804-0.256,1.331-0.256
		c0.778,0,1.387,0.231,1.823,0.693c0.437,0.463,0.655,1.187,0.655,2.171v4.56h-2.789v-4.136c0-0.328-0.063-0.572-0.19-0.731
		c-0.187-0.251-0.418-0.376-0.695-0.376c-0.327,0-0.59,0.118-0.79,0.355s-0.3,0.617-0.3,1.142v3.746h-2.789v-3.999
		c0-0.319-0.019-0.535-0.055-0.649c-0.06-0.183-0.162-0.329-0.309-0.441c-0.146-0.111-0.318-0.167-0.515-0.167
		c-0.32,0-0.583,0.121-0.789,0.362s-0.309,0.638-0.309,1.189v3.705h-2.789V145.429z"/>
	<path class="st4" d="M410.491,155.45v-10.021h2.604v1.073c0.36-0.451,0.69-0.757,0.991-0.916c0.405-0.214,0.854-0.321,1.347-0.321
		c0.971,0,1.722,0.371,2.252,1.114c0.531,0.743,0.797,1.661,0.797,2.755c0,1.208-0.289,2.129-0.868,2.766
		c-0.579,0.635-1.311,0.953-2.194,0.953c-0.429,0-0.819-0.073-1.172-0.219c-0.354-0.146-0.669-0.362-0.947-0.649v3.466H410.491z
		 M413.28,149.079c0,0.574,0.121,1,0.362,1.278s0.547,0.417,0.916,0.417c0.323,0,0.595-0.133,0.813-0.4
		c0.219-0.266,0.328-0.719,0.328-1.356c0-0.588-0.114-1.02-0.342-1.296c-0.228-0.275-0.506-0.413-0.834-0.413
		c-0.355,0-0.651,0.139-0.889,0.417S413.28,148.455,413.28,149.079z"/>
	<path class="st4" d="M419.911,142.667h2.789v10.021h-2.789V142.667z"/>
	<path class="st4" d="M432.537,149.749h-5.578c0.05,0.446,0.171,0.779,0.362,0.998c0.269,0.314,0.62,0.472,1.053,0.472
		c0.273,0,0.533-0.068,0.779-0.205c0.15-0.087,0.313-0.239,0.485-0.458l2.741,0.253c-0.419,0.729-0.925,1.252-1.518,1.569
		c-0.593,0.316-1.442,0.475-2.55,0.475c-0.962,0-1.718-0.136-2.27-0.406c-0.552-0.271-1.008-0.702-1.371-1.293
		c-0.361-0.59-0.543-1.283-0.543-2.081c0-1.135,0.363-2.053,1.09-2.755c0.728-0.702,1.731-1.053,3.012-1.053
		c1.039,0,1.859,0.157,2.461,0.472s1.06,0.771,1.374,1.367s0.472,1.374,0.472,2.331V149.749z M429.707,148.416
		c-0.055-0.538-0.199-0.923-0.434-1.155c-0.235-0.232-0.544-0.349-0.927-0.349c-0.442,0-0.795,0.176-1.06,0.526
		c-0.169,0.219-0.275,0.545-0.321,0.978H429.707z"/>
	<path class="st4" d="M437.172,142.667v2.762h1.531v2.037h-1.531v2.572c0,0.309,0.029,0.514,0.089,0.613
		c0.091,0.155,0.251,0.232,0.479,0.232c0.205,0,0.492-0.059,0.861-0.178l0.205,1.921c-0.688,0.15-1.331,0.226-1.928,0.226
		c-0.692,0-1.203-0.089-1.531-0.267c-0.328-0.177-0.571-0.447-0.728-0.809c-0.158-0.362-0.236-0.948-0.236-1.758v-2.554h-1.025
		v-2.037h1.025v-1.333L437.172,142.667z"/>
	<path class="st4" d="M448.089,149.749h-5.578c0.05,0.446,0.171,0.779,0.362,0.998c0.269,0.314,0.62,0.472,1.053,0.472
		c0.273,0,0.533-0.068,0.779-0.205c0.15-0.087,0.313-0.239,0.485-0.458l2.741,0.253c-0.419,0.729-0.925,1.252-1.518,1.569
		c-0.593,0.316-1.442,0.475-2.55,0.475c-0.962,0-1.718-0.136-2.27-0.406c-0.552-0.271-1.008-0.702-1.371-1.293
		c-0.361-0.59-0.543-1.283-0.543-2.081c0-1.135,0.363-2.053,1.09-2.755c0.728-0.702,1.731-1.053,3.012-1.053
		c1.039,0,1.859,0.157,2.461,0.472s1.06,0.771,1.374,1.367s0.472,1.374,0.472,2.331V149.749z M445.259,148.416
		c-0.055-0.538-0.199-0.923-0.434-1.155c-0.235-0.232-0.544-0.349-0.927-0.349c-0.442,0-0.795,0.176-1.06,0.526
		c-0.169,0.219-0.275,0.545-0.321,0.978H445.259z"/>
</g>
<g>
	<path class="st4" d="M372.142,158.662h5.147c1.121,0,1.961,0.267,2.519,0.8c0.559,0.533,0.838,1.292,0.838,2.276
		c0,1.012-0.305,1.803-0.912,2.372c-0.609,0.569-1.537,0.854-2.786,0.854h-1.695v3.719h-3.11V158.662z M375.252,162.935h0.759
		c0.597,0,1.017-0.104,1.258-0.312c0.241-0.207,0.362-0.473,0.362-0.796c0-0.314-0.104-0.581-0.314-0.8s-0.604-0.328-1.183-0.328
		h-0.882V162.935z"/>
	<path class="st4" d="M381.739,165.074c0-1.107,0.374-2.02,1.121-2.738c0.747-0.717,1.757-1.076,3.028-1.076
		c1.454,0,2.552,0.422,3.295,1.265c0.597,0.679,0.896,1.516,0.896,2.509c0,1.116-0.37,2.031-1.11,2.744
		c-0.741,0.714-1.766,1.07-3.073,1.07c-1.167,0-2.11-0.296-2.83-0.889C382.182,167.226,381.739,166.264,381.739,165.074z
		 M384.528,165.067c0,0.647,0.131,1.126,0.394,1.436c0.262,0.31,0.591,0.465,0.987,0.465c0.401,0,0.73-0.152,0.987-0.458
		c0.258-0.306,0.387-0.795,0.387-1.47c0-0.629-0.13-1.097-0.39-1.405c-0.26-0.307-0.581-0.461-0.964-0.461
		c-0.405,0-0.74,0.156-1.005,0.469C384.66,163.954,384.528,164.43,384.528,165.067z"/>
	<path class="st4" d="M391.433,171.445v-10.021h2.604v1.073c0.36-0.451,0.69-0.757,0.991-0.916c0.405-0.214,0.854-0.321,1.347-0.321
		c0.971,0,1.722,0.371,2.252,1.114c0.531,0.743,0.797,1.661,0.797,2.755c0,1.208-0.289,2.129-0.868,2.766
		c-0.579,0.635-1.311,0.953-2.194,0.953c-0.429,0-0.819-0.073-1.172-0.219c-0.354-0.146-0.669-0.362-0.947-0.649v3.466H391.433z
		 M394.222,165.074c0,0.574,0.121,1,0.362,1.278s0.547,0.417,0.916,0.417c0.323,0,0.595-0.133,0.813-0.4
		c0.219-0.266,0.328-0.719,0.328-1.356c0-0.588-0.114-1.02-0.342-1.296c-0.228-0.275-0.506-0.413-0.834-0.413
		c-0.355,0-0.651,0.139-0.889,0.417S394.222,164.45,394.222,165.074z"/>
	<path class="st4" d="M408.406,168.684h-2.598v-1.176c-0.388,0.483-0.778,0.827-1.172,1.032c-0.395,0.205-0.879,0.308-1.453,0.308
		c-0.766,0-1.366-0.229-1.801-0.688c-0.436-0.457-0.653-1.163-0.653-2.115v-4.621h2.796v3.992c0,0.456,0.084,0.779,0.253,0.971
		s0.405,0.287,0.711,0.287c0.333,0,0.604-0.128,0.817-0.383c0.211-0.255,0.317-0.713,0.317-1.374v-3.493h2.782V168.684z"/>
	<path class="st4" d="M410.19,158.662h2.789v10.021h-2.789V158.662z"/>
	<path class="st4" d="M417.293,163.775l-2.659-0.28c0.101-0.465,0.245-0.831,0.435-1.097c0.188-0.268,0.461-0.498,0.816-0.694
		c0.255-0.142,0.606-0.251,1.053-0.328s0.93-0.116,1.449-0.116c0.834,0,1.504,0.047,2.01,0.141c0.506,0.093,0.928,0.288,1.265,0.584
		c0.237,0.205,0.424,0.496,0.561,0.871c0.137,0.377,0.205,0.735,0.205,1.077v3.206c0,0.342,0.021,0.609,0.065,0.803
		c0.043,0.194,0.138,0.441,0.283,0.742h-2.611c-0.104-0.187-0.173-0.329-0.205-0.428c-0.032-0.098-0.063-0.251-0.096-0.461
		c-0.364,0.351-0.727,0.602-1.087,0.752c-0.492,0.2-1.064,0.301-1.716,0.301c-0.866,0-1.523-0.2-1.973-0.602
		c-0.448-0.401-0.673-0.896-0.673-1.483c0-0.552,0.162-1.005,0.485-1.36s0.921-0.62,1.791-0.793c1.044-0.21,1.721-0.356,2.03-0.441
		c0.31-0.084,0.638-0.194,0.984-0.331c0-0.342-0.07-0.581-0.212-0.718s-0.39-0.205-0.745-0.205c-0.456,0-0.798,0.073-1.025,0.219
		C417.546,163.247,417.402,163.461,417.293,163.775z M419.706,165.238c-0.383,0.137-0.781,0.258-1.196,0.362
		c-0.565,0.15-0.923,0.299-1.073,0.444c-0.155,0.15-0.232,0.321-0.232,0.513c0,0.219,0.076,0.397,0.229,0.536
		c0.152,0.14,0.377,0.209,0.673,0.209c0.31,0,0.599-0.075,0.864-0.226c0.268-0.15,0.456-0.334,0.568-0.55
		c0.111-0.217,0.167-0.498,0.167-0.845V165.238z"/>
	<path class="st4" d="M427.451,158.662v2.762h1.531v2.037h-1.531v2.572c0,0.309,0.029,0.514,0.089,0.613
		c0.091,0.155,0.251,0.232,0.479,0.232c0.205,0,0.492-0.059,0.861-0.178l0.205,1.921c-0.688,0.15-1.331,0.226-1.928,0.226
		c-0.692,0-1.203-0.089-1.531-0.267c-0.328-0.177-0.571-0.447-0.728-0.809c-0.158-0.362-0.236-0.948-0.236-1.758v-2.554h-1.025
		v-2.037h1.025v-1.333L427.451,158.662z"/>
	<path class="st4" d="M430.411,158.662h2.782v1.894h-2.782V158.662z M430.411,161.424h2.782v7.26h-2.782V161.424z"/>
	<path class="st4" d="M434.629,165.074c0-1.107,0.374-2.02,1.121-2.738c0.747-0.717,1.757-1.076,3.028-1.076
		c1.454,0,2.552,0.422,3.295,1.265c0.597,0.679,0.896,1.516,0.896,2.509c0,1.116-0.37,2.031-1.11,2.744
		c-0.741,0.714-1.766,1.07-3.073,1.07c-1.167,0-2.11-0.296-2.83-0.889C435.071,167.226,434.629,166.264,434.629,165.074z
		 M437.418,165.067c0,0.647,0.131,1.126,0.394,1.436c0.262,0.31,0.591,0.465,0.987,0.465c0.401,0,0.73-0.152,0.987-0.458
		c0.258-0.306,0.387-0.795,0.387-1.47c0-0.629-0.13-1.097-0.39-1.405c-0.26-0.307-0.581-0.461-0.964-0.461
		c-0.405,0-0.74,0.156-1.005,0.469C437.55,163.954,437.418,164.43,437.418,165.067z"/>
	<path class="st4" d="M444.309,161.424h2.591v1.183c0.388-0.483,0.779-0.828,1.176-1.036c0.396-0.207,0.88-0.311,1.449-0.311
		c0.771,0,1.373,0.229,1.809,0.688c0.435,0.457,0.652,1.165,0.652,2.122v4.614h-2.796v-3.992c0-0.456-0.084-0.778-0.253-0.967
		c-0.169-0.189-0.405-0.284-0.711-0.284c-0.337,0-0.61,0.128-0.82,0.383s-0.314,0.713-0.314,1.374v3.486h-2.782V161.424z"/>
</g>
<g>
	<path class="st5" d="M553.048,152.695L553.048,152.695c0-15.215-12.525-27.524-27.983-27.524
		c-15.443,0-27.968,12.309-27.968,27.524c0,15.197,12.525,27.539,27.968,27.539C540.523,180.234,553.048,167.892,553.048,152.695z"
		/>
	<path class="st4" d="M517.425,153.63L517.425,153.63l-1.262,1.856c-0.41-0.419-0.918-0.742-1.459-0.968l1.295-1.888
		C516.393,153.05,516.884,153.387,517.425,153.63z M526.719,144.837L526.719,144.837l1.296,1.888
		c0.393-0.419,0.885-0.759,1.427-0.985l-1.263-1.854C527.77,144.288,527.279,144.611,526.719,144.837z M522.211,146.596
		L522.211,146.596l1.198-1.759c-0.542-0.226-1.049-0.548-1.46-0.951l-1.213,1.789C521.294,145.886,521.785,146.194,522.211,146.596z
		 M528.048,152.678L528.048,152.678l-1.296,1.856c0.559,0.226,1.051,0.566,1.444,0.968l1.294-1.854
		C528.95,153.419,528.459,153.082,528.048,152.678z M523.442,154.501L523.442,154.501l-1.197-1.774
		c-0.409,0.402-0.9,0.727-1.458,0.953l1.195,1.774C522.393,155.049,522.9,154.727,523.442,154.501z M535.425,154.518
		L535.425,154.518l-1.197-1.759c-0.409,0.402-0.918,0.727-1.475,0.935l1.23,1.791C534.394,155.067,534.885,154.744,535.425,154.518z
		 M525.065,137.641L525.065,137.641c-1.803,0-3.28,1.437-3.28,3.228c0,1.774,1.477,3.226,3.28,3.226
		c1.818,0,3.278-1.452,3.278-3.226C528.343,139.078,526.883,137.641,525.065,137.641z M516.327,158.503L516.327,158.503
		c0,1.774-1.475,3.226-3.279,3.226c-1.82,0-3.279-1.452-3.279-3.226c0-1.791,1.459-3.228,3.279-3.228
		C514.852,155.275,516.327,156.712,516.327,158.503z M540.359,158.503L540.359,158.503c0,1.774-1.458,3.226-3.278,3.226
		c-1.803,0-3.28-1.452-3.28-3.226c0-1.791,1.477-3.228,3.28-3.228C538.902,155.275,540.359,156.712,540.359,158.503z
		 M528.343,158.503L528.343,158.503c0,1.774-1.46,3.226-3.278,3.226c-1.803,0-3.28-1.452-3.28-3.226c0-1.791,1.477-3.228,3.28-3.228
		C526.883,155.275,528.343,156.712,528.343,158.503z M522.441,149.678L522.441,149.678c0,1.791-1.458,3.226-3.278,3.226
		c-1.803,0-3.279-1.434-3.279-3.226c0-1.774,1.475-3.226,3.279-3.226C520.983,146.452,522.441,147.903,522.441,149.678z
		 M534.459,149.678L534.459,149.678c0,1.791-1.46,3.226-3.28,3.226c-1.803,0-3.278-1.434-3.278-3.226
		c0-1.774,1.475-3.226,3.278-3.226C533,146.452,534.459,147.903,534.459,149.678z"/>
</g>
<path class="st0" d="M363.897,34.842l15.957,7.979l-15.957,7.979V34.842z M263.055,79.119V42.821c0-1.465,1.194-2.66,2.66-2.66
	h100.842v5.319H265.715l2.66-2.66v36.298H263.055z"/>
<path class="st0" d="M533.051,108.817l-7.979,15.957l-7.979-15.957H533.051z M435.927,40.161h89.145c1.465,0,2.66,1.194,2.66,2.66
	v68.656h-5.319V42.821l2.66,2.66h-89.145V40.161z"/>
<rect x="365.449" y="240.958" class="st6" width="85.106" height="59.397"/>
<path class="st3" d="M365.449,248.383h85.106 M376.087,240.958v59.397"/>
<g>
	<path class="st4" d="M384.357,260.267h9.413v2.475h-3.158v7.547h-3.097v-7.547h-3.158V260.267z"/>
	<path class="st4" d="M403.047,267.349h-5.578c0.05,0.446,0.171,0.779,0.362,0.998c0.269,0.314,0.62,0.472,1.053,0.472
		c0.273,0,0.533-0.068,0.779-0.205c0.15-0.087,0.313-0.239,0.485-0.458l2.741,0.253c-0.419,0.729-0.925,1.252-1.518,1.569
		c-0.593,0.316-1.442,0.475-2.55,0.475c-0.962,0-1.718-0.136-2.27-0.406c-0.552-0.271-1.008-0.702-1.371-1.293
		c-0.361-0.59-0.543-1.283-0.543-2.081c0-1.135,0.363-2.053,1.09-2.755c0.728-0.702,1.731-1.053,3.012-1.053
		c1.039,0,1.859,0.157,2.461,0.472s1.06,0.771,1.374,1.367s0.472,1.374,0.472,2.331V267.349z M400.217,266.016
		c-0.055-0.538-0.199-0.923-0.434-1.155c-0.235-0.232-0.544-0.349-0.927-0.349c-0.442,0-0.795,0.176-1.06,0.526
		c-0.169,0.219-0.275,0.545-0.321,0.978H400.217z"/>
	<path class="st4" d="M403.833,268.271l2.762-0.26c0.114,0.328,0.273,0.563,0.479,0.704s0.479,0.212,0.82,0.212
		c0.374,0,0.663-0.079,0.868-0.239c0.159-0.118,0.239-0.266,0.239-0.443c0-0.2-0.104-0.354-0.314-0.464
		c-0.15-0.077-0.549-0.173-1.196-0.287c-0.966-0.168-1.637-0.324-2.014-0.468c-0.375-0.144-0.692-0.386-0.949-0.727
		c-0.258-0.342-0.387-0.731-0.387-1.168c0-0.479,0.139-0.891,0.417-1.236s0.661-0.604,1.148-0.775
		c0.487-0.17,1.142-0.256,1.962-0.256c0.866,0,1.505,0.066,1.918,0.198c0.412,0.132,0.756,0.337,1.031,0.615
		c0.276,0.278,0.505,0.654,0.688,1.128l-2.639,0.26c-0.068-0.232-0.183-0.403-0.342-0.513c-0.219-0.146-0.483-0.219-0.793-0.219
		c-0.314,0-0.543,0.056-0.688,0.167c-0.143,0.111-0.215,0.247-0.215,0.406c0,0.178,0.091,0.312,0.273,0.402
		c0.183,0.092,0.579,0.174,1.189,0.246c0.925,0.104,1.613,0.251,2.064,0.438s0.797,0.453,1.035,0.799
		c0.24,0.346,0.359,0.726,0.359,1.141c0,0.419-0.127,0.826-0.379,1.222c-0.254,0.396-0.652,0.712-1.197,0.946
		c-0.544,0.234-1.286,0.352-2.225,0.352c-1.326,0-2.271-0.189-2.834-0.567C404.354,269.507,403.992,268.969,403.833,268.271z"/>
	<path class="st4" d="M416.233,260.267v2.762h1.531v2.037h-1.531v2.572c0,0.309,0.029,0.514,0.089,0.613
		c0.091,0.155,0.251,0.232,0.479,0.232c0.205,0,0.492-0.059,0.861-0.178l0.205,1.921c-0.688,0.15-1.331,0.226-1.928,0.226
		c-0.692,0-1.203-0.089-1.531-0.267c-0.328-0.177-0.571-0.447-0.728-0.809c-0.158-0.362-0.236-0.948-0.236-1.758v-2.554h-1.025
		v-2.037h1.025v-1.333L416.233,260.267z"/>
	<path class="st4" d="M419.193,260.267h2.782v1.894h-2.782V260.267z M419.193,263.028h2.782v7.26h-2.782V263.028z"/>
	<path class="st4" d="M423.753,263.028h2.591v1.183c0.388-0.483,0.779-0.828,1.176-1.036c0.396-0.207,0.88-0.311,1.449-0.311
		c0.771,0,1.373,0.229,1.809,0.688c0.435,0.457,0.652,1.165,0.652,2.122v4.614h-2.796v-3.992c0-0.456-0.084-0.778-0.253-0.967
		c-0.169-0.189-0.405-0.284-0.711-0.284c-0.337,0-0.61,0.128-0.82,0.383s-0.314,0.713-0.314,1.374v3.486h-2.782V263.028z"/>
	<path class="st4" d="M438.143,263.028h2.604v6.856l0.007,0.321c0,0.456-0.097,0.89-0.291,1.303
		c-0.193,0.412-0.451,0.746-0.771,1.001c-0.322,0.255-0.729,0.439-1.225,0.554c-0.494,0.114-1.061,0.171-1.698,0.171
		c-1.458,0-2.46-0.219-3.005-0.656c-0.544-0.438-0.816-1.023-0.816-1.757c0-0.091,0.005-0.214,0.014-0.369l2.7,0.308
		c0.068,0.251,0.173,0.424,0.314,0.52c0.205,0.142,0.463,0.212,0.772,0.212c0.401,0,0.701-0.107,0.898-0.321
		c0.199-0.214,0.298-0.588,0.298-1.121v-1.101c-0.273,0.323-0.547,0.559-0.82,0.704c-0.429,0.228-0.891,0.342-1.388,0.342
		c-0.971,0-1.755-0.424-2.352-1.271c-0.424-0.602-0.636-1.396-0.636-2.386c0-1.13,0.273-1.991,0.82-2.584s1.263-0.889,2.146-0.889
		c0.565,0,1.031,0.096,1.397,0.287c0.367,0.191,0.71,0.508,1.029,0.95V263.028z M435.524,266.549c0,0.524,0.111,0.913,0.335,1.165
		c0.224,0.254,0.518,0.38,0.882,0.38c0.347,0,0.637-0.131,0.872-0.394c0.234-0.262,0.352-0.657,0.352-1.186
		s-0.123-0.934-0.369-1.213c-0.246-0.281-0.547-0.421-0.902-0.421s-0.639,0.129-0.852,0.386
		C435.631,265.524,435.524,265.952,435.524,266.549z"/>
</g>
<g>
	<path class="st4" d="M381.502,276.262h5.147c1.121,0,1.961,0.267,2.519,0.8c0.559,0.533,0.838,1.292,0.838,2.276
		c0,1.012-0.305,1.803-0.912,2.372c-0.609,0.569-1.537,0.854-2.786,0.854h-1.695v3.719h-3.11V276.262z M384.612,280.534h0.759
		c0.597,0,1.017-0.104,1.258-0.312c0.241-0.207,0.362-0.473,0.362-0.796c0-0.314-0.104-0.581-0.314-0.8s-0.604-0.328-1.183-0.328
		h-0.882V280.534z"/>
	<path class="st4" d="M393.978,281.375l-2.659-0.28c0.101-0.465,0.245-0.831,0.435-1.097c0.188-0.268,0.461-0.498,0.816-0.694
		c0.255-0.142,0.606-0.251,1.053-0.328s0.93-0.116,1.449-0.116c0.834,0,1.504,0.047,2.01,0.141c0.506,0.093,0.928,0.288,1.265,0.584
		c0.237,0.205,0.424,0.496,0.561,0.871c0.137,0.377,0.205,0.735,0.205,1.077v3.206c0,0.342,0.021,0.609,0.065,0.803
		c0.043,0.194,0.138,0.441,0.283,0.742h-2.611c-0.104-0.187-0.173-0.329-0.205-0.428c-0.032-0.098-0.063-0.251-0.096-0.461
		c-0.364,0.351-0.727,0.602-1.087,0.752c-0.492,0.2-1.064,0.301-1.716,0.301c-0.866,0-1.523-0.2-1.973-0.602
		c-0.448-0.401-0.673-0.896-0.673-1.483c0-0.552,0.162-1.005,0.485-1.36s0.921-0.62,1.791-0.793c1.044-0.21,1.721-0.356,2.03-0.441
		c0.31-0.084,0.638-0.194,0.984-0.331c0-0.342-0.07-0.581-0.212-0.718s-0.39-0.205-0.745-0.205c-0.456,0-0.798,0.073-1.025,0.219
		C394.23,280.847,394.087,281.061,393.978,281.375z M396.391,282.838c-0.383,0.137-0.781,0.258-1.196,0.362
		c-0.565,0.15-0.923,0.299-1.073,0.444c-0.155,0.15-0.232,0.321-0.232,0.513c0,0.219,0.076,0.397,0.229,0.536
		c0.152,0.14,0.377,0.209,0.673,0.209c0.31,0,0.599-0.075,0.864-0.226c0.268-0.15,0.456-0.334,0.568-0.55
		c0.111-0.217,0.167-0.498,0.167-0.845V282.838z"/>
	<path class="st4" d="M400.807,279.023h2.604v1.189c0.251-0.515,0.51-0.869,0.775-1.063c0.268-0.194,0.597-0.291,0.988-0.291
		c0.41,0,0.859,0.128,1.347,0.383l-0.861,1.982c-0.328-0.137-0.588-0.205-0.779-0.205c-0.364,0-0.647,0.15-0.848,0.451
		c-0.287,0.424-0.431,1.217-0.431,2.379v2.434h-2.796V279.023z"/>
	<path class="st4" d="M410.35,276.262v2.762h1.531v2.037h-1.531v2.572c0,0.309,0.029,0.514,0.089,0.613
		c0.091,0.155,0.251,0.232,0.479,0.232c0.205,0,0.492-0.059,0.861-0.178l0.205,1.921c-0.688,0.15-1.331,0.226-1.928,0.226
		c-0.692,0-1.203-0.089-1.531-0.267c-0.328-0.177-0.571-0.447-0.728-0.809c-0.158-0.362-0.236-0.948-0.236-1.758v-2.554h-1.025
		v-2.037h1.025v-1.333L410.35,276.262z"/>
	<path class="st4" d="M413.31,276.262h2.782v1.894h-2.782V276.262z M413.31,279.023h2.782v7.26h-2.782V279.023z"/>
	<path class="st4" d="M421.226,276.262v2.762h1.531v2.037h-1.531v2.572c0,0.309,0.029,0.514,0.089,0.613
		c0.091,0.155,0.251,0.232,0.479,0.232c0.205,0,0.492-0.059,0.861-0.178l0.205,1.921c-0.688,0.15-1.331,0.226-1.928,0.226
		c-0.692,0-1.203-0.089-1.531-0.267c-0.328-0.177-0.571-0.447-0.728-0.809c-0.158-0.362-0.236-0.948-0.236-1.758v-2.554h-1.025
		v-2.037h1.025v-1.333L421.226,276.262z"/>
	<path class="st4" d="M424.186,276.262h2.782v1.894h-2.782V276.262z M424.186,279.023h2.782v7.26h-2.782V279.023z"/>
	<path class="st4" d="M428.403,282.674c0-1.107,0.374-2.02,1.121-2.738c0.747-0.717,1.757-1.076,3.028-1.076
		c1.454,0,2.552,0.422,3.295,1.265c0.597,0.679,0.896,1.516,0.896,2.509c0,1.116-0.37,2.031-1.11,2.744
		c-0.741,0.714-1.766,1.07-3.073,1.07c-1.167,0-2.11-0.296-2.83-0.889C428.846,284.825,428.403,283.863,428.403,282.674z
		 M431.192,282.667c0,0.647,0.131,1.126,0.394,1.436c0.262,0.31,0.591,0.465,0.987,0.465c0.401,0,0.73-0.152,0.987-0.458
		c0.258-0.306,0.387-0.795,0.387-1.47c0-0.629-0.13-1.097-0.39-1.405c-0.26-0.307-0.581-0.461-0.964-0.461
		c-0.405,0-0.74,0.156-1.005,0.469C431.324,281.554,431.192,282.029,431.192,282.667z"/>
	<path class="st4" d="M438.083,279.023h2.591v1.183c0.388-0.483,0.779-0.828,1.176-1.036c0.396-0.207,0.88-0.311,1.449-0.311
		c0.771,0,1.373,0.229,1.809,0.688c0.435,0.457,0.652,1.165,0.652,2.122v4.614h-2.796v-3.992c0-0.456-0.084-0.778-0.253-0.967
		c-0.169-0.189-0.405-0.284-0.711-0.284c-0.337,0-0.61,0.128-0.82,0.383s-0.314,0.713-0.314,1.374v3.486h-2.782V279.023z"/>
</g>
<g>
	<path class="st5" d="M737.445,152.695L737.445,152.695c0-15.215-12.525-27.524-27.983-27.524
		c-15.443,0-27.968,12.309-27.968,27.524c0,15.197,12.525,27.539,27.968,27.539C724.92,180.234,737.445,167.892,737.445,152.695z"/>
	<path class="st4" d="M720.838,145.467L720.838,145.467c0.968-1.645,0.393-3.744-1.278-4.695c-1.672-0.953-3.82-0.387-4.788,1.258
		l-8,13.632l-2.967-3.484c-1.245-1.469-3.458-1.645-4.933-0.437c-1.475,1.226-1.672,3.404-0.426,4.856l6.181,7.245
		c1.245,1.468,3.442,1.646,4.934,0.436c0.31-0.274,0.573-0.581,0.769-0.936l0.018,0.016L720.838,145.467z"/>
</g>
<g>
	<path class="st5" d="M836.736,152.695L836.736,152.695c0-15.215-12.525-27.524-27.983-27.524
		c-15.443,0-27.968,12.309-27.968,27.524c0,15.197,12.525,27.539,27.968,27.539C824.21,180.234,836.736,167.892,836.736,152.695z"/>
	<path class="st4" d="M795.522,162.988L795.522,162.988l2.77,2.727c1.017,1,2.672,1,3.689,0l20-19.684c1.016-1,1.016-2.628,0-3.63
		l-2.771-2.725c-1.016-1.002-2.672-1.002-3.689,0l-20,19.682C794.506,160.358,794.506,161.987,795.522,162.988z M815.376,141.046
		L815.376,141.046c0.164-0.176,0.441-0.176,0.605,0l3.083,3.017c0.164,0.178,0.164,0.437,0,0.613c-0.181,0.161-0.459,0.161-0.623,0
		l-3.066-3.032C815.194,141.482,815.194,141.207,815.376,141.046z M814.44,145.273L814.44,145.273l-1.377-1.355
		c-0.181-0.178-0.181-0.437,0-0.613c0.164-0.161,0.441-0.161,0.605,0l1.394,1.37c0.164,0.161,0.164,0.437,0,0.598
		C814.884,145.45,814.622,145.45,814.44,145.273z M810.752,145.579L810.752,145.579c0.164-0.161,0.444-0.161,0.623,0l3.066,3.034
		c0.181,0.161,0.181,0.434,0,0.596c-0.164,0.161-0.444,0.161-0.607,0l-3.081-3.032C810.588,146.015,810.588,145.74,810.752,145.579z
		 M809.834,149.824L809.834,149.824l-1.394-1.372c-0.164-0.161-0.164-0.437,0-0.598c0.181-0.176,0.459-0.176,0.623,0l1.377,1.355
		c0.181,0.161,0.181,0.437,0,0.615C810.275,149.985,809.998,149.985,809.834,149.824z M806.145,150.114L806.145,150.114
		c0.164-0.161,0.441-0.161,0.605,0l3.083,3.032c0.164,0.161,0.164,0.437,0,0.613c-0.181,0.161-0.444,0.161-0.623,0l-3.066-3.032
		C805.964,150.566,805.964,150.29,806.145,150.114z M805.21,154.357L805.21,154.357L803.834,153c-0.164-0.176-0.164-0.452,0-0.613
		c0.164-0.161,0.444-0.161,0.623,0l1.377,1.372c0.164,0.161,0.164,0.437,0,0.598C805.669,154.518,805.392,154.518,805.21,154.357z
		 M801.522,154.662L801.522,154.662c0.18-0.176,0.443-0.176,0.623,0l3.065,3.017c0.181,0.179,0.181,0.452,0,0.613
		c-0.164,0.161-0.441,0.161-0.605,0l-3.083-3.032C801.358,155.099,801.358,154.824,801.522,154.662z M800.604,158.89L800.604,158.89
		l-1.377-1.354c-0.18-0.161-0.18-0.437,0-0.615c0.164-0.161,0.443-0.161,0.607,0l1.393,1.372c0.164,0.161,0.164,0.436,0,0.597
		C801.047,159.067,800.768,159.067,800.604,158.89z M796.916,159.196L796.916,159.196c0.164-0.161,0.443-0.161,0.606,0l3.082,3.033
		c0.164,0.161,0.164,0.436,0,0.597c-0.164,0.177-0.443,0.177-0.623,0l-3.066-3.017C796.752,159.632,796.752,159.374,796.916,159.196
		z"/>
</g>
<g>
	<path class="st5" d="M638.155,152.695L638.155,152.695c0-15.215-12.525-27.524-27.983-27.524
		c-15.443,0-27.968,12.309-27.968,27.524c0,15.197,12.525,27.539,27.968,27.539C625.629,180.234,638.155,167.892,638.155,152.695z"
		/>
	<path class="st4" d="M599.531,165.601L599.531,165.601c-0.361,0-0.672-0.21-0.803-0.532c-0.131-0.339-0.066-0.71,0.197-0.952
		l11.542-11.02l-11.558-11.858c-0.246-0.241-0.311-0.613-0.18-0.935c0.147-0.305,0.459-0.516,0.803-0.516h21.131
		c0.492,0,0.885,0.387,0.885,0.856v4.307c0,0.338-0.212,0.66-0.54,0.789c-0.116,0.049-0.229,0.065-0.345,0.065
		c-0.229,0-0.441-0.08-0.623-0.241l-2.804-2.759h-8.95l8.197,8.438c0.345,0.338,0.328,0.871-0.015,1.209l-9.394,9.068h10.163
		l2.804-2.775c0.181-0.162,0.393-0.241,0.623-0.241c0.116,0,0.229,0.015,0.345,0.065c0.328,0.129,0.54,0.451,0.54,0.79v5.388
		c0,0.468-0.393,0.855-0.885,0.855H599.531z"/>
</g>
<g>
	<path class="st1" d="M584.454,108.678l2.946-0.185c0.063,0.479,0.193,0.843,0.39,1.094c0.319,0.406,0.774,0.608,1.367,0.608
		c0.442,0,0.782-0.104,1.022-0.311c0.238-0.208,0.358-0.448,0.358-0.721c0-0.26-0.114-0.492-0.342-0.697s-0.757-0.399-1.586-0.581
		c-1.358-0.305-2.326-0.711-2.905-1.217c-0.583-0.506-0.875-1.151-0.875-1.935c0-0.515,0.149-1.001,0.447-1.459
		c0.299-0.458,0.748-0.818,1.348-1.08c0.599-0.262,1.42-0.393,2.464-0.393c1.28,0,2.257,0.238,2.929,0.714
		c0.673,0.476,1.072,1.234,1.2,2.273l-2.919,0.171c-0.077-0.451-0.24-0.779-0.488-0.984c-0.249-0.205-0.592-0.308-1.029-0.308
		c-0.36,0-0.631,0.076-0.813,0.229s-0.273,0.338-0.273,0.557c0,0.16,0.075,0.303,0.226,0.431c0.146,0.132,0.492,0.255,1.039,0.369
		c1.354,0.292,2.323,0.587,2.908,0.885c0.586,0.298,1.012,0.669,1.279,1.111c0.266,0.442,0.399,0.937,0.399,1.483
		c0,0.643-0.178,1.235-0.533,1.777s-0.853,0.954-1.49,1.234s-1.442,0.42-2.413,0.42c-1.704,0-2.885-0.328-3.541-0.984
		S584.541,109.69,584.454,108.678z"/>
	<path class="st1" d="M601.776,107.892l2.714,0.82c-0.183,0.761-0.47,1.397-0.861,1.907s-0.878,0.896-1.46,1.155
		c-0.58,0.26-1.32,0.39-2.218,0.39c-1.089,0-1.979-0.158-2.669-0.475c-0.691-0.316-1.287-0.874-1.788-1.67s-0.752-1.817-0.752-3.061
		c0-1.658,0.44-2.932,1.323-3.822c0.881-0.89,2.129-1.335,3.742-1.335c1.263,0,2.255,0.255,2.977,0.766
		c0.723,0.51,1.26,1.294,1.61,2.352l-2.734,0.608c-0.096-0.305-0.196-0.529-0.301-0.67c-0.173-0.237-0.385-0.419-0.636-0.547
		s-0.531-0.191-0.841-0.191c-0.702,0-1.239,0.282-1.613,0.847c-0.282,0.419-0.424,1.077-0.424,1.973
		c0,1.111,0.169,1.872,0.506,2.284c0.337,0.412,0.812,0.618,1.422,0.618c0.593,0,1.04-0.167,1.343-0.499
		C601.42,109.009,601.64,108.525,601.776,107.892z"/>
	<path class="st1" d="M605.604,106.99c0-1.636,0.456-2.91,1.367-3.821s2.181-1.367,3.808-1.367c1.668,0,2.953,0.448,3.855,1.343
		s1.354,2.15,1.354,3.763c0,1.171-0.197,2.132-0.592,2.881c-0.394,0.75-0.963,1.333-1.709,1.75
		c-0.744,0.417-1.673,0.625-2.785,0.625c-1.13,0-2.065-0.18-2.807-0.54c-0.74-0.36-1.341-0.93-1.801-1.709
		S605.604,108.161,605.604,106.99z M608.701,107.003c0,1.012,0.188,1.739,0.564,2.181c0.375,0.442,0.887,0.663,1.534,0.663
		c0.665,0,1.181-0.216,1.545-0.649s0.547-1.21,0.547-2.331c0-0.943-0.19-1.633-0.571-2.068c-0.38-0.435-0.896-0.653-1.548-0.653
		c-0.624,0-1.126,0.221-1.504,0.663S608.701,105.982,608.701,107.003z"/>
	<path class="st1" d="M617.697,111.994v-10.021h5.161c0.957,0,1.688,0.082,2.194,0.246s0.914,0.468,1.224,0.913
		s0.465,0.985,0.465,1.624c0,0.556-0.118,1.036-0.355,1.439s-0.563,0.73-0.979,0.981c-0.265,0.16-0.627,0.292-1.087,0.396
		c0.368,0.123,0.637,0.247,0.806,0.37c0.114,0.082,0.279,0.257,0.495,0.527c0.217,0.269,0.361,0.477,0.434,0.623l1.5,2.904h-3.499
		l-1.655-3.063c-0.21-0.396-0.396-0.654-0.561-0.772c-0.224-0.155-0.477-0.232-0.759-0.232h-0.273v4.067H617.697z M620.808,106.033
		h1.306c0.142,0,0.415-0.045,0.82-0.137c0.205-0.041,0.373-0.146,0.502-0.314c0.131-0.168,0.195-0.362,0.195-0.581
		c0-0.324-0.103-0.572-0.308-0.745s-0.59-0.26-1.155-0.26h-1.36V106.033z"/>
	<path class="st1" d="M628.539,101.972h8.299v2.14h-5.195v1.593h4.819v2.044h-4.819v1.976h5.346v2.27h-8.449V101.972z"/>
</g>
<g>
	<path class="st1" d="M671.548,101.972h3.237l2.255,7.212l2.228-7.212h3.143l-3.721,10.021h-3.356L671.548,101.972z"/>
	<path class="st1" d="M689.583,110.339h-3.516l-0.488,1.654h-3.162l3.767-10.021h3.378l3.766,10.021h-3.243L689.583,110.339z
		 M688.94,108.172l-1.106-3.603l-1.094,3.603H688.94z"/>
	<path class="st1" d="M694.312,101.972h3.097v7.554h4.833v2.468h-7.93V101.972z"/>
	<path class="st1" d="M703.772,101.972h3.104v10.021h-3.104V101.972z"/>
	<path class="st1" d="M709.139,101.972h4.601c0.907,0,1.64,0.123,2.198,0.369c0.558,0.246,1.02,0.599,1.384,1.06
		s0.629,0.996,0.793,1.606s0.246,1.258,0.246,1.941c0,1.071-0.122,1.901-0.366,2.492c-0.243,0.59-0.582,1.084-1.015,1.483
		s-0.897,0.664-1.395,0.796c-0.679,0.182-1.294,0.273-1.846,0.273h-4.601V101.972z M712.235,104.242v5.476h0.759
		c0.647,0,1.107-0.072,1.381-0.215s0.487-0.394,0.643-0.752s0.232-0.938,0.232-1.74c0-1.062-0.173-1.789-0.52-2.181
		s-0.921-0.588-1.723-0.588H712.235z"/>
	<path class="st1" d="M726.148,110.339h-3.516l-0.488,1.654h-3.162l3.767-10.021h3.378l3.766,10.021h-3.243L726.148,110.339z
		 M725.506,108.172l-1.106-3.603l-1.094,3.603H725.506z"/>
	<path class="st1" d="M730.173,101.972h9.413v2.475h-3.158v7.547h-3.097v-7.547h-3.158V101.972z"/>
	<path class="st1" d="M740.98,101.972h8.299v2.14h-5.195v1.593h4.819v2.044h-4.819v1.976h5.346v2.27h-8.449V101.972z"/>
</g>
<g>
	<path class="st1" d="M760.531,202.134l2.946-0.185c0.063,0.479,0.193,0.843,0.39,1.094c0.319,0.405,0.774,0.608,1.367,0.608
		c0.442,0,0.782-0.104,1.022-0.312c0.238-0.207,0.358-0.447,0.358-0.721c0-0.26-0.114-0.492-0.342-0.697s-0.757-0.398-1.586-0.581
		c-1.358-0.306-2.326-0.711-2.905-1.217c-0.583-0.506-0.875-1.15-0.875-1.935c0-0.515,0.149-1.002,0.447-1.459
		c0.299-0.459,0.748-0.818,1.348-1.08c0.599-0.263,1.42-0.394,2.464-0.394c1.28,0,2.257,0.238,2.929,0.714
		c0.673,0.477,1.072,1.234,1.2,2.273l-2.919,0.171c-0.077-0.451-0.24-0.779-0.488-0.984c-0.249-0.205-0.592-0.308-1.029-0.308
		c-0.36,0-0.631,0.076-0.813,0.229c-0.183,0.153-0.273,0.339-0.273,0.558c0,0.159,0.075,0.303,0.226,0.431
		c0.146,0.132,0.492,0.255,1.039,0.369c1.354,0.292,2.323,0.587,2.908,0.885c0.586,0.299,1.012,0.669,1.279,1.111
		c0.266,0.442,0.399,0.937,0.399,1.483c0,0.643-0.178,1.235-0.533,1.777s-0.853,0.954-1.49,1.233
		c-0.638,0.281-1.442,0.421-2.413,0.421c-1.704,0-2.885-0.328-3.541-0.984S760.618,203.146,760.531,202.134z"/>
	<path class="st1" d="M777.854,201.348l2.714,0.82c-0.183,0.761-0.47,1.396-0.861,1.907s-0.878,0.896-1.46,1.155
		c-0.58,0.26-1.32,0.39-2.218,0.39c-1.089,0-1.979-0.158-2.669-0.475c-0.691-0.316-1.287-0.873-1.788-1.67
		c-0.501-0.798-0.752-1.817-0.752-3.062c0-1.657,0.44-2.932,1.323-3.821c0.881-0.891,2.129-1.336,3.742-1.336
		c1.263,0,2.255,0.255,2.977,0.766c0.723,0.511,1.26,1.294,1.61,2.352l-2.734,0.608c-0.096-0.306-0.196-0.528-0.301-0.67
		c-0.173-0.237-0.385-0.419-0.636-0.547s-0.531-0.191-0.841-0.191c-0.702,0-1.239,0.282-1.613,0.847
		c-0.282,0.419-0.424,1.076-0.424,1.974c0,1.11,0.169,1.872,0.506,2.283c0.337,0.412,0.812,0.618,1.422,0.618
		c0.593,0,1.04-0.166,1.343-0.499C777.497,202.464,777.717,201.981,777.854,201.348z"/>
	<path class="st1" d="M781.682,200.445c0-1.636,0.456-2.91,1.367-3.821s2.181-1.367,3.808-1.367c1.668,0,2.953,0.448,3.855,1.343
		c0.902,0.896,1.354,2.15,1.354,3.764c0,1.171-0.197,2.132-0.592,2.881c-0.394,0.75-0.963,1.334-1.709,1.75
		c-0.744,0.418-1.673,0.626-2.785,0.626c-1.13,0-2.065-0.18-2.807-0.54c-0.74-0.36-1.341-0.93-1.801-1.709
		S781.682,201.616,781.682,200.445z M784.778,200.459c0,1.012,0.188,1.738,0.564,2.181c0.375,0.442,0.887,0.663,1.534,0.663
		c0.665,0,1.181-0.217,1.545-0.649s0.547-1.21,0.547-2.331c0-0.943-0.19-1.633-0.571-2.068c-0.38-0.435-0.896-0.652-1.548-0.652
		c-0.624,0-1.126,0.221-1.504,0.663S784.778,199.438,784.778,200.459z"/>
	<path class="st1" d="M793.774,205.449v-10.021h5.161c0.957,0,1.688,0.082,2.194,0.246s0.914,0.469,1.224,0.912
		c0.31,0.445,0.465,0.986,0.465,1.624c0,0.556-0.118,1.036-0.355,1.438c-0.237,0.404-0.563,0.73-0.979,0.981
		c-0.265,0.159-0.627,0.292-1.087,0.396c0.368,0.123,0.637,0.246,0.806,0.369c0.114,0.082,0.279,0.258,0.495,0.527
		c0.217,0.269,0.361,0.477,0.434,0.622l1.5,2.904h-3.499l-1.655-3.063c-0.21-0.396-0.396-0.654-0.561-0.772
		c-0.224-0.155-0.477-0.232-0.759-0.232h-0.273v4.067H793.774z M796.885,199.488h1.306c0.142,0,0.415-0.046,0.82-0.137
		c0.205-0.041,0.373-0.146,0.502-0.314c0.131-0.169,0.195-0.362,0.195-0.581c0-0.323-0.103-0.572-0.308-0.745s-0.59-0.26-1.155-0.26
		h-1.36V199.488z"/>
	<path class="st1" d="M804.616,195.428h8.299v2.14h-5.195v1.593h4.819v2.044h-4.819v1.976h5.346v2.27h-8.449V195.428z"/>
	<path class="st1" d="M821.405,201.348l2.714,0.82c-0.183,0.761-0.47,1.396-0.861,1.907s-0.878,0.896-1.46,1.155
		c-0.58,0.26-1.32,0.39-2.218,0.39c-1.089,0-1.979-0.158-2.669-0.475c-0.691-0.316-1.287-0.873-1.788-1.67
		c-0.501-0.798-0.752-1.817-0.752-3.062c0-1.657,0.44-2.932,1.323-3.821c0.881-0.891,2.129-1.336,3.742-1.336
		c1.263,0,2.255,0.255,2.977,0.766c0.723,0.511,1.26,1.294,1.61,2.352l-2.734,0.608c-0.096-0.306-0.196-0.528-0.301-0.67
		c-0.173-0.237-0.385-0.419-0.636-0.547s-0.531-0.191-0.841-0.191c-0.702,0-1.239,0.282-1.613,0.847
		c-0.282,0.419-0.424,1.076-0.424,1.974c0,1.11,0.169,1.872,0.506,2.283c0.337,0.412,0.812,0.618,1.422,0.618
		c0.593,0,1.04-0.166,1.343-0.499C821.049,202.464,821.269,201.981,821.405,201.348z"/>
	<path class="st1" d="M831.784,203.795h-3.516l-0.488,1.654h-3.162l3.767-10.021h3.378l3.766,10.021h-3.243L831.784,203.795z
		 M831.142,201.628l-1.106-3.603l-1.094,3.603H831.142z"/>
	<path class="st1" d="M836.554,205.449v-10.021h5.161c0.957,0,1.688,0.082,2.194,0.246s0.914,0.469,1.224,0.912
		c0.31,0.445,0.465,0.986,0.465,1.624c0,0.556-0.118,1.036-0.355,1.438c-0.237,0.404-0.563,0.73-0.979,0.981
		c-0.265,0.159-0.627,0.292-1.087,0.396c0.368,0.123,0.637,0.246,0.806,0.369c0.114,0.082,0.279,0.258,0.495,0.527
		c0.217,0.269,0.361,0.477,0.434,0.622l1.5,2.904h-3.499l-1.655-3.063c-0.21-0.396-0.396-0.654-0.561-0.772
		c-0.224-0.155-0.477-0.232-0.759-0.232h-0.273v4.067H836.554z M839.664,199.488h1.306c0.142,0,0.415-0.046,0.82-0.137
		c0.205-0.041,0.373-0.146,0.502-0.314c0.131-0.169,0.195-0.362,0.195-0.581c0-0.323-0.103-0.572-0.308-0.745s-0.59-0.26-1.155-0.26
		h-1.36V199.488z"/>
	<path class="st1" d="M847.443,195.428h4.601c0.907,0,1.64,0.123,2.198,0.369c0.558,0.246,1.02,0.6,1.384,1.06
		s0.629,0.996,0.793,1.606s0.246,1.258,0.246,1.941c0,1.071-0.122,1.901-0.366,2.492c-0.243,0.59-0.582,1.084-1.015,1.482
		c-0.433,0.399-0.897,0.665-1.395,0.797c-0.679,0.183-1.294,0.273-1.846,0.273h-4.601V195.428z M850.54,197.697v5.476h0.759
		c0.647,0,1.107-0.071,1.381-0.216c0.273-0.143,0.487-0.394,0.643-0.752c0.155-0.357,0.232-0.938,0.232-1.739
		c0-1.062-0.173-1.789-0.52-2.181s-0.921-0.588-1.723-0.588H850.54z"/>
</g>
<path class="st0" d="M118.146,197.962l15.957,7.979l-15.957,7.979V197.962z M100.822,203.281h19.984v5.319h-19.984V203.281z"/>
<path class="st0" d="M206.798,197.962l15.957,7.979l-15.957,7.979V197.962z M189.474,203.281h19.984v5.319h-19.984V203.281z"/>
<path class="st0" d="M566.862,144.771l15.957,7.979l-15.957,7.979V144.771z M552.948,150.09h16.573v5.319h-16.573V150.09z"/>
<path class="st0" d="M665.463,144.771l15.957,7.979l-15.957,7.979V144.771z M638.054,150.09h30.068v5.319h-30.068V150.09z"/>
<path class="st0" d="M764.753,144.771l15.957,7.979l-15.957,7.979V144.771z M737.345,150.09h30.068v5.319h-30.068V150.09z"/>
<g>
	<path class="st1" d="M465.211,198.189h1.326v2.037h-1.326v5.223h-2.789v-5.223h-1.039v-2.037h1.039v-0.328
		c0-0.296,0.032-0.622,0.096-0.978s0.184-0.646,0.359-0.872c0.175-0.225,0.421-0.407,0.738-0.547
		c0.316-0.139,0.78-0.208,1.391-0.208c0.487,0,1.196,0.057,2.126,0.171l-0.308,1.682c-0.333-0.055-0.602-0.082-0.807-0.082
		c-0.251,0-0.431,0.042-0.54,0.127c-0.109,0.084-0.187,0.217-0.232,0.399C465.223,197.654,465.211,197.866,465.211,198.189z"/>
	<path class="st1" d="M467.665,195.428h2.782v1.894h-2.782V195.428z M467.665,198.189h2.782v7.26h-2.782V198.189z"/>
	<path class="st1" d="M472.225,198.189h2.591v1.183c0.388-0.483,0.779-0.828,1.176-1.036c0.396-0.207,0.88-0.311,1.449-0.311
		c0.771,0,1.373,0.229,1.809,0.688c0.435,0.457,0.652,1.165,0.652,2.122v4.614h-2.796v-3.992c0-0.456-0.084-0.778-0.253-0.967
		c-0.169-0.189-0.405-0.284-0.711-0.284c-0.337,0-0.61,0.128-0.82,0.383s-0.314,0.713-0.314,1.374v3.486h-2.782V198.189z"/>
	<path class="st1" d="M484.099,200.541l-2.659-0.28c0.101-0.465,0.245-0.831,0.435-1.097c0.188-0.268,0.461-0.498,0.816-0.694
		c0.255-0.142,0.606-0.251,1.053-0.328s0.93-0.116,1.449-0.116c0.834,0,1.504,0.047,2.01,0.141c0.506,0.093,0.928,0.288,1.265,0.584
		c0.237,0.205,0.424,0.496,0.561,0.871c0.137,0.377,0.205,0.735,0.205,1.077v3.206c0,0.342,0.021,0.609,0.065,0.803
		c0.043,0.194,0.138,0.441,0.283,0.742h-2.611c-0.104-0.187-0.173-0.329-0.205-0.428c-0.032-0.098-0.063-0.251-0.096-0.461
		c-0.364,0.351-0.727,0.602-1.087,0.752c-0.492,0.2-1.064,0.301-1.716,0.301c-0.866,0-1.523-0.2-1.973-0.602
		c-0.448-0.401-0.673-0.896-0.673-1.483c0-0.552,0.162-1.005,0.485-1.36s0.921-0.62,1.791-0.793c1.044-0.21,1.721-0.356,2.03-0.441
		c0.31-0.084,0.638-0.194,0.984-0.331c0-0.342-0.07-0.581-0.212-0.718s-0.39-0.205-0.745-0.205c-0.456,0-0.798,0.073-1.025,0.219
		C484.352,200.013,484.208,200.227,484.099,200.541z M486.512,202.004c-0.383,0.137-0.781,0.258-1.196,0.362
		c-0.565,0.15-0.923,0.299-1.073,0.444c-0.155,0.15-0.232,0.321-0.232,0.513c0,0.219,0.076,0.397,0.229,0.536
		c0.152,0.14,0.377,0.209,0.673,0.209c0.31,0,0.599-0.075,0.864-0.226c0.268-0.15,0.456-0.334,0.568-0.55
		c0.111-0.217,0.167-0.498,0.167-0.845V202.004z"/>
	<path class="st1" d="M490.996,195.428h2.789v10.021h-2.789V195.428z"/>
	<path class="st1" d="M494.64,206.502h7.164v0.697h-7.164V206.502z"/>
	<path class="st1" d="M502.658,195.428h2.789v10.021h-2.789V195.428z"/>
	<path class="st1" d="M506.883,201.84c0-1.107,0.374-2.02,1.121-2.738c0.747-0.717,1.757-1.076,3.028-1.076
		c1.454,0,2.552,0.422,3.295,1.265c0.597,0.679,0.896,1.516,0.896,2.509c0,1.116-0.37,2.031-1.11,2.744
		c-0.741,0.714-1.766,1.07-3.073,1.07c-1.167,0-2.11-0.296-2.83-0.889C507.325,203.991,506.883,203.029,506.883,201.84z
		 M509.672,201.833c0,0.647,0.131,1.126,0.394,1.436c0.262,0.31,0.591,0.465,0.987,0.465c0.401,0,0.73-0.152,0.987-0.458
		c0.258-0.306,0.387-0.795,0.387-1.47c0-0.629-0.13-1.097-0.39-1.405c-0.26-0.307-0.581-0.461-0.964-0.461
		c-0.405,0-0.74,0.156-1.005,0.469C509.804,200.72,509.672,201.195,509.672,201.833z"/>
	<path class="st1" d="M521.614,198.189h2.604v6.856l0.007,0.321c0,0.456-0.097,0.89-0.291,1.303
		c-0.193,0.412-0.451,0.746-0.771,1.001c-0.322,0.255-0.729,0.439-1.225,0.554c-0.494,0.114-1.061,0.171-1.698,0.171
		c-1.458,0-2.46-0.219-3.005-0.656c-0.544-0.438-0.816-1.023-0.816-1.757c0-0.091,0.005-0.214,0.014-0.369l2.7,0.308
		c0.068,0.251,0.173,0.424,0.314,0.52c0.205,0.142,0.463,0.212,0.772,0.212c0.401,0,0.701-0.107,0.898-0.321
		c0.199-0.214,0.298-0.588,0.298-1.121v-1.101c-0.273,0.323-0.547,0.559-0.82,0.704c-0.429,0.228-0.891,0.342-1.388,0.342
		c-0.971,0-1.755-0.424-2.352-1.271c-0.424-0.602-0.636-1.396-0.636-2.386c0-1.13,0.273-1.991,0.82-2.584s1.263-0.889,2.146-0.889
		c0.565,0,1.031,0.096,1.397,0.287c0.367,0.191,0.71,0.508,1.029,0.95V198.189z M518.996,201.71c0,0.524,0.111,0.913,0.335,1.165
		c0.224,0.254,0.518,0.38,0.882,0.38c0.347,0,0.637-0.131,0.872-0.394c0.234-0.262,0.352-0.657,0.352-1.186
		s-0.123-0.934-0.369-1.213c-0.246-0.281-0.547-0.421-0.902-0.421s-0.639,0.129-0.852,0.386
		C519.103,200.686,518.996,201.113,518.996,201.71z"/>
	<path class="st1" d="M526.003,195.428h2.782v1.894h-2.782V195.428z M526.003,198.189h2.782v7.26h-2.782V198.189z"/>
	<path class="st1" d="M533.919,195.428v2.762h1.531v2.037h-1.531v2.572c0,0.309,0.029,0.514,0.089,0.613
		c0.091,0.155,0.251,0.232,0.479,0.232c0.205,0,0.492-0.059,0.861-0.178l0.205,1.921c-0.688,0.15-1.331,0.226-1.928,0.226
		c-0.692,0-1.203-0.089-1.531-0.267c-0.328-0.177-0.571-0.447-0.728-0.809c-0.158-0.362-0.236-0.948-0.236-1.758v-2.554h-1.025
		v-2.037h1.025v-1.333L533.919,195.428z"/>
	<path class="st1" d="M535.854,206.502h7.164v0.697h-7.164V206.502z"/>
	<path class="st1" d="M543.797,198.189h2.598v1.06c0.374-0.442,0.752-0.757,1.133-0.943s0.841-0.28,1.38-0.28
		c0.579,0,1.038,0.103,1.376,0.308s0.613,0.511,0.828,0.916c0.437-0.474,0.835-0.796,1.194-0.968c0.36-0.17,0.804-0.256,1.331-0.256
		c0.778,0,1.387,0.231,1.823,0.693c0.437,0.463,0.655,1.187,0.655,2.171v4.56h-2.789v-4.136c0-0.328-0.063-0.572-0.19-0.731
		c-0.187-0.251-0.418-0.376-0.695-0.376c-0.327,0-0.59,0.118-0.79,0.355s-0.3,0.617-0.3,1.142v3.746h-2.789v-3.999
		c0-0.319-0.019-0.535-0.055-0.649c-0.06-0.183-0.162-0.329-0.309-0.441c-0.146-0.111-0.318-0.167-0.515-0.167
		c-0.32,0-0.583,0.121-0.789,0.362s-0.309,0.638-0.309,1.189v3.705h-2.789V198.189z"/>
	<path class="st1" d="M557.435,201.84c0-1.107,0.374-2.02,1.121-2.738c0.747-0.717,1.757-1.076,3.028-1.076
		c1.454,0,2.552,0.422,3.295,1.265c0.597,0.679,0.896,1.516,0.896,2.509c0,1.116-0.37,2.031-1.11,2.744
		c-0.741,0.714-1.766,1.07-3.073,1.07c-1.167,0-2.11-0.296-2.83-0.889C557.877,203.991,557.435,203.029,557.435,201.84z
		 M560.224,201.833c0,0.647,0.131,1.126,0.394,1.436c0.262,0.31,0.591,0.465,0.987,0.465c0.401,0,0.73-0.152,0.987-0.458
		c0.258-0.306,0.387-0.795,0.387-1.47c0-0.629-0.13-1.097-0.39-1.405c-0.26-0.307-0.581-0.461-0.964-0.461
		c-0.405,0-0.74,0.156-1.005,0.469C560.355,200.72,560.224,201.195,560.224,201.833z"/>
	<path class="st1" d="M574.757,195.428v10.021h-2.604v-1.073c-0.364,0.456-0.697,0.764-0.998,0.923
		c-0.401,0.21-0.848,0.314-1.34,0.314c-0.989,0-1.744-0.376-2.266-1.128c-0.522-0.752-0.783-1.666-0.783-2.741
		c0-1.203,0.288-2.124,0.865-2.762c0.576-0.638,1.309-0.957,2.197-0.957c0.433,0,0.826,0.073,1.18,0.219
		c0.353,0.146,0.666,0.364,0.939,0.656v-3.473H574.757z M571.968,201.799c0-0.569-0.121-0.994-0.362-1.275
		c-0.241-0.279-0.547-0.42-0.916-0.42c-0.323,0-0.595,0.135-0.813,0.403s-0.328,0.72-0.328,1.354c0,0.593,0.112,1.026,0.339,1.302
		c0.225,0.276,0.504,0.414,0.837,0.414c0.355,0,0.651-0.139,0.889-0.417S571.968,202.428,571.968,201.799z"/>
	<path class="st1" d="M584.512,202.51h-5.578c0.05,0.446,0.171,0.779,0.362,0.998c0.269,0.314,0.62,0.472,1.053,0.472
		c0.273,0,0.533-0.068,0.779-0.205c0.15-0.087,0.313-0.239,0.485-0.458l2.741,0.253c-0.419,0.729-0.925,1.252-1.518,1.569
		c-0.593,0.316-1.442,0.475-2.55,0.475c-0.962,0-1.718-0.136-2.27-0.406c-0.552-0.271-1.008-0.702-1.371-1.293
		c-0.361-0.59-0.543-1.283-0.543-2.081c0-1.135,0.363-2.053,1.09-2.755c0.728-0.702,1.731-1.053,3.012-1.053
		c1.039,0,1.859,0.157,2.461,0.472s1.06,0.771,1.374,1.367s0.472,1.374,0.472,2.331V202.51z M581.682,201.177
		c-0.055-0.538-0.199-0.923-0.434-1.155c-0.235-0.232-0.544-0.349-0.927-0.349c-0.442,0-0.795,0.176-1.06,0.526
		c-0.169,0.219-0.275,0.545-0.321,0.978H581.682z"/>
	<path class="st1" d="M585.886,195.428h2.789v10.021h-2.789V195.428z"/>
</g>
<path class="st0" d="M618.502,196.189l-7.979-15.957l-7.979,15.957H618.502z M450.112,272.652h160.411c1.465,0,2.66-1.194,2.66-2.66
	v-76.463h-5.319v76.463l2.66-2.66H450.112V272.652z"/>
</svg>
