<?xml version="1.0" encoding="utf-8"?>
<!-- Generator: Adobe Illustrator 21.0.2, SVG Export Plug-In . SVG Version: 6.00 Build 0)  -->
<svg version="1.1" id="レイヤー_1" xmlns="http://www.w3.org/2000/svg" xmlns:xlink="http://www.w3.org/1999/xlink" x="0px"
	 y="0px" viewBox="0 0 234 128" style="enable-background:new 0 0 234 128;" xml:space="preserve">
<style type="text/css">
	.st0{fill-rule:evenodd;clip-rule:evenodd;fill:#00B050;}
	.st1{fill:#41719C;}
	.st2{fill:#FFFFFF;}
	.st3{fill-rule:evenodd;clip-rule:evenodd;fill:#C00000;}
	.st4{fill:#5B9BD5;}
	.st5{fill-rule:evenodd;clip-rule:evenodd;fill:#5B9BD5;}
</style>
<g>
	<rect x="13.38" y="82.463" class="st0" width="70" height="32.5"/>
	<path class="st1" d="M82.88,82.963v31.5h-69v-31.5H82.88 M83.88,81.963h-1h-69h-1v1v31.5v1h1h69h1v-1v-31.5V81.963L83.88,81.963z"
		/>
</g>
<g>
	<path class="st2" d="M33.948,99.173V97.66l5.466-0.009v4.787c-0.839,0.669-1.705,1.173-2.597,1.51
		c-0.892,0.338-1.807,0.506-2.746,0.506c-1.267,0-2.419-0.271-3.454-0.813c-1.036-0.543-1.818-1.328-2.346-2.354
		c-0.528-1.027-0.792-2.174-0.792-3.441c0-1.256,0.262-2.428,0.788-3.517c0.525-1.088,1.281-1.896,2.266-2.425
		c0.986-0.527,2.121-0.792,3.406-0.792c0.933,0,1.776,0.151,2.53,0.454c0.754,0.302,1.345,0.723,1.773,1.263
		s0.754,1.244,0.977,2.112l-1.54,0.422c-0.194-0.656-0.435-1.173-0.722-1.549c-0.288-0.375-0.699-0.676-1.232-0.902
		c-0.534-0.226-1.126-0.339-1.778-0.339c-0.78,0-1.455,0.119-2.024,0.356c-0.569,0.238-1.028,0.551-1.377,0.938
		c-0.349,0.388-0.62,0.813-0.814,1.276c-0.329,0.798-0.493,1.663-0.493,2.597c0,1.149,0.198,2.112,0.594,2.887
		c0.396,0.774,0.973,1.35,1.729,1.725c0.757,0.376,1.561,0.563,2.412,0.563c0.739,0,1.461-0.142,2.165-0.427
		c0.704-0.284,1.238-0.588,1.602-0.911v-2.402H33.948z"/>
	<path class="st2" d="M41.139,99.56c0-1.73,0.481-3.013,1.443-3.846c0.804-0.692,1.784-1.039,2.939-1.039
		c1.285,0,2.335,0.422,3.151,1.264s1.224,2.005,1.224,3.489c0,1.203-0.181,2.149-0.542,2.839s-0.886,1.225-1.575,1.605
		c-0.69,0.382-1.442,0.572-2.258,0.572c-1.309,0-2.366-0.419-3.173-1.258C41.542,102.347,41.139,101.139,41.139,99.56z
		 M42.767,99.56c0,1.197,0.261,2.094,0.784,2.689c0.522,0.596,1.179,0.893,1.971,0.893c0.786,0,1.44-0.299,1.963-0.897
		c0.522-0.599,0.783-1.511,0.783-2.737c0-1.155-0.263-2.031-0.788-2.627c-0.525-0.596-1.178-0.894-1.958-0.894
		c-0.792,0-1.449,0.297-1.971,0.89C43.028,97.468,42.767,98.364,42.767,99.56z"/>
	<path class="st2" d="M51.164,99.56c0-1.73,0.481-3.013,1.443-3.846c0.804-0.692,1.784-1.039,2.939-1.039
		c1.285,0,2.335,0.422,3.151,1.264s1.224,2.005,1.224,3.489c0,1.203-0.181,2.149-0.542,2.839s-0.886,1.225-1.575,1.605
		c-0.69,0.382-1.442,0.572-2.258,0.572c-1.309,0-2.366-0.419-3.173-1.258C51.567,102.347,51.164,101.139,51.164,99.56z
		 M52.792,99.56c0,1.197,0.261,2.094,0.784,2.689c0.522,0.596,1.179,0.893,1.971,0.893c0.786,0,1.44-0.299,1.963-0.897
		c0.522-0.599,0.783-1.511,0.783-2.737c0-1.155-0.263-2.031-0.788-2.627c-0.525-0.596-1.178-0.894-1.958-0.894
		c-0.792,0-1.449,0.297-1.971,0.89C53.053,97.468,52.792,98.364,52.792,99.56z"/>
	<path class="st2" d="M67.842,104.234v-1.18c-0.593,0.928-1.464,1.391-2.614,1.391c-0.745,0-1.43-0.205-2.055-0.616
		c-0.625-0.41-1.109-0.983-1.452-1.721c-0.343-0.735-0.515-1.582-0.515-2.539c0-0.933,0.155-1.779,0.466-2.539
		s0.777-1.342,1.399-1.747c0.622-0.404,1.317-0.607,2.086-0.607c0.563,0,1.065,0.119,1.505,0.356
		c0.44,0.238,0.798,0.548,1.074,0.929v-4.629h1.576v12.902H67.842z M62.834,99.569c0,1.197,0.252,2.092,0.757,2.685
		c0.504,0.593,1.1,0.889,1.787,0.889c0.692,0,1.28-0.282,1.765-0.849c0.484-0.566,0.726-1.431,0.726-2.592
		c0-1.279-0.247-2.219-0.739-2.816c-0.493-0.599-1.101-0.898-1.822-0.898c-0.704,0-1.292,0.288-1.765,0.863
		C63.07,97.424,62.834,98.331,62.834,99.569z"/>
</g>
<g>
	<rect x="152.13" y="82.463" class="st3" width="70" height="32.5"/>
	<path class="st1" d="M221.63,82.963v31.5h-69v-31.5H221.63 M222.63,81.963h-1h-69h-1v1v31.5v1h1h69h1v-1v-31.5V81.963
		L222.63,81.963z"/>
</g>
<g>
	<path class="st2" d="M172.82,104.234V91.331h4.841c0.985,0,1.776,0.13,2.372,0.392c0.595,0.261,1.062,0.663,1.399,1.205
		c0.337,0.543,0.506,1.111,0.506,1.703c0,0.552-0.149,1.071-0.449,1.559c-0.299,0.486-0.751,0.88-1.355,1.179
		c0.78,0.229,1.381,0.619,1.8,1.171c0.42,0.552,0.63,1.203,0.63,1.954c0,0.604-0.128,1.166-0.383,1.686
		c-0.256,0.519-0.571,0.919-0.946,1.201c-0.376,0.281-0.847,0.494-1.413,0.638s-1.26,0.216-2.081,0.216H172.82z M174.527,96.752
		h2.79c0.757,0,1.3-0.05,1.629-0.149c0.434-0.129,0.761-0.343,0.98-0.643c0.221-0.299,0.33-0.675,0.33-1.126
		c0-0.429-0.103-0.806-0.308-1.131c-0.205-0.326-0.499-0.549-0.88-0.669c-0.382-0.12-1.036-0.181-1.963-0.181h-2.579V96.752z
		 M174.527,102.711h3.213c0.552,0,0.938-0.021,1.162-0.062c0.393-0.07,0.722-0.188,0.985-0.353c0.264-0.164,0.481-0.403,0.651-0.717
		c0.17-0.314,0.255-0.677,0.255-1.087c0-0.481-0.123-0.899-0.369-1.255c-0.247-0.354-0.589-0.604-1.025-0.748
		c-0.438-0.144-1.066-0.215-1.888-0.215h-2.984V102.711z"/>
	<path class="st2" d="M190.81,103.08c-0.587,0.499-1.151,0.852-1.694,1.057c-0.542,0.205-1.125,0.308-1.747,0.308
		c-1.026,0-1.815-0.251-2.367-0.752c-0.552-0.502-0.827-1.143-0.827-1.924c0-0.457,0.104-0.875,0.313-1.254
		c0.208-0.378,0.48-0.682,0.818-0.911c0.337-0.229,0.718-0.401,1.14-0.519c0.312-0.082,0.78-0.161,1.408-0.238
		c1.279-0.152,2.221-0.334,2.825-0.545c0.006-0.218,0.009-0.355,0.009-0.414c0-0.646-0.149-1.101-0.448-1.364
		c-0.405-0.357-1.007-0.537-1.805-0.537c-0.745,0-1.295,0.131-1.65,0.392c-0.354,0.262-0.617,0.724-0.787,1.387l-1.55-0.211
		c0.142-0.663,0.373-1.199,0.695-1.606c0.323-0.408,0.789-0.722,1.399-0.942c0.61-0.22,1.317-0.33,2.121-0.33
		c0.798,0,1.446,0.095,1.945,0.282s0.865,0.424,1.101,0.708c0.234,0.285,0.398,0.645,0.492,1.078
		c0.053,0.271,0.079,0.757,0.079,1.461v2.112c0,1.474,0.034,2.404,0.102,2.795s0.201,0.765,0.4,1.122h-1.654
		C190.963,103.906,190.856,103.521,190.81,103.08z M190.678,99.542c-0.575,0.235-1.438,0.435-2.588,0.599
		c-0.65,0.094-1.111,0.2-1.381,0.317c-0.271,0.117-0.479,0.289-0.625,0.515c-0.147,0.226-0.221,0.477-0.221,0.752
		c0,0.423,0.16,0.775,0.48,1.057c0.319,0.281,0.787,0.423,1.403,0.423c0.61,0,1.153-0.134,1.628-0.401
		c0.476-0.267,0.824-0.632,1.048-1.096c0.17-0.357,0.255-0.886,0.255-1.584V99.542z"/>
	<path class="st2" d="M200.799,104.234v-1.18c-0.593,0.928-1.464,1.391-2.613,1.391c-0.746,0-1.431-0.205-2.056-0.616
		c-0.625-0.41-1.108-0.983-1.452-1.721c-0.343-0.735-0.515-1.582-0.515-2.539c0-0.933,0.155-1.779,0.467-2.539
		c0.311-0.76,0.777-1.342,1.399-1.747c0.621-0.404,1.316-0.607,2.085-0.607c0.563,0,1.065,0.119,1.506,0.356
		c0.439,0.238,0.798,0.548,1.073,0.929v-4.629h1.575v12.902H200.799z M195.791,99.569c0,1.197,0.252,2.092,0.757,2.685
		s1.101,0.889,1.787,0.889c0.692,0,1.28-0.282,1.765-0.849c0.483-0.566,0.726-1.431,0.726-2.592c0-1.279-0.246-2.219-0.739-2.816
		c-0.492-0.599-1.1-0.898-1.821-0.898c-0.704,0-1.293,0.288-1.765,0.863C196.027,97.424,195.791,98.331,195.791,99.569z"/>
</g>
<path class="st4" d="M52.67,74.643l-4.29,6.21l7.54-0.29L52.67,74.643z M117.26,41.723l-64.5,35.43l1.09,1.98l64.5-35.44
	L117.26,41.723z"/>
<path class="st4" d="M183.26,74.643l4.29,6.21l-7.54-0.29L183.26,74.643z M118.67,41.723l64.5,35.43l-1.09,1.98l-64.5-35.44
	L118.67,41.723z"/>
<g>
	<path d="M91.702,73.953V63.735h4.531c0.911,0,1.603,0.092,2.077,0.275c0.474,0.184,0.853,0.508,1.136,0.972
		c0.283,0.465,0.425,0.978,0.425,1.541c0,0.725-0.235,1.336-0.704,1.833c-0.47,0.498-1.194,0.813-2.175,0.948
		c0.358,0.172,0.629,0.341,0.815,0.509c0.395,0.362,0.769,0.815,1.122,1.359l1.778,2.781h-1.701l-1.352-2.126
		c-0.395-0.613-0.72-1.083-0.976-1.408c-0.256-0.325-0.484-0.553-0.687-0.683c-0.202-0.13-0.408-0.221-0.617-0.272
		c-0.153-0.033-0.404-0.049-0.752-0.049h-1.568v4.538H91.702z M93.054,68.245h2.906c0.618,0,1.102-0.064,1.45-0.192
		c0.348-0.127,0.613-0.332,0.794-0.613s0.272-0.586,0.272-0.917c0-0.483-0.176-0.88-0.526-1.192
		c-0.351-0.312-0.905-0.467-1.663-0.467h-3.234V68.245z"/>
	<path d="M106.66,73.04c-0.465,0.395-0.912,0.674-1.342,0.836c-0.43,0.163-0.891,0.244-1.384,0.244
		c-0.813,0-1.438-0.199-1.875-0.596c-0.437-0.397-0.655-0.905-0.655-1.523c0-0.362,0.083-0.693,0.248-0.993s0.381-0.541,0.648-0.722
		c0.267-0.181,0.568-0.318,0.902-0.411c0.247-0.065,0.618-0.128,1.115-0.188c1.013-0.121,1.759-0.265,2.238-0.432
		c0.004-0.172,0.007-0.281,0.007-0.328c0-0.511-0.119-0.872-0.355-1.081c-0.321-0.283-0.797-0.425-1.429-0.425
		c-0.59,0-1.025,0.104-1.307,0.311c-0.281,0.207-0.489,0.573-0.624,1.098l-1.227-0.167c0.111-0.525,0.295-0.949,0.551-1.272
		c0.255-0.323,0.625-0.571,1.108-0.746s1.043-0.262,1.68-0.262c0.632,0,1.145,0.075,1.54,0.223c0.395,0.149,0.686,0.336,0.872,0.561
		c0.186,0.226,0.316,0.51,0.39,0.854c0.042,0.214,0.063,0.6,0.063,1.157v1.673c0,1.166,0.026,1.904,0.08,2.213
		c0.053,0.309,0.159,0.605,0.317,0.889h-1.31C106.781,73.693,106.697,73.389,106.66,73.04z M106.556,70.238
		c-0.456,0.186-1.139,0.344-2.049,0.474c-0.516,0.074-0.881,0.158-1.094,0.251c-0.214,0.093-0.379,0.229-0.495,0.408
		c-0.116,0.179-0.174,0.377-0.174,0.596c0,0.334,0.126,0.613,0.38,0.836c0.253,0.223,0.624,0.334,1.112,0.334
		c0.483,0,0.913-0.106,1.29-0.317s0.653-0.5,0.83-0.868c0.135-0.283,0.202-0.702,0.202-1.254V70.238z"/>
	<path d="M109.769,73.953v-7.402h1.129v1.052c0.543-0.813,1.329-1.22,2.356-1.22c0.446,0,0.856,0.081,1.23,0.241
		s0.654,0.371,0.84,0.631c0.186,0.26,0.316,0.569,0.391,0.927c0.046,0.232,0.069,0.639,0.069,1.22v4.552h-1.254v-4.503
		c0-0.511-0.049-0.893-0.146-1.146c-0.098-0.253-0.271-0.455-0.519-0.606c-0.249-0.151-0.541-0.227-0.875-0.227
		c-0.534,0-0.996,0.17-1.383,0.509c-0.388,0.339-0.582,0.983-0.582,1.931v4.043H109.769z"/>
	<path d="M122.51,73.953v-0.934c-0.47,0.734-1.16,1.102-2.07,1.102c-0.59,0-1.133-0.163-1.627-0.488
		c-0.495-0.325-0.878-0.779-1.15-1.362c-0.271-0.583-0.408-1.253-0.408-2.011c0-0.739,0.123-1.409,0.37-2.011
		c0.246-0.602,0.616-1.063,1.108-1.384c0.492-0.32,1.043-0.481,1.652-0.481c0.446,0,0.843,0.094,1.192,0.282
		c0.349,0.188,0.632,0.434,0.85,0.736v-3.667h1.248v10.218H122.51z M118.544,70.259c0,0.948,0.2,1.657,0.6,2.126
		c0.399,0.469,0.871,0.704,1.415,0.704c0.548,0,1.014-0.224,1.397-0.673c0.383-0.448,0.575-1.132,0.575-2.053
		c0-1.013-0.195-1.756-0.585-2.23c-0.39-0.474-0.871-0.711-1.443-0.711c-0.558,0-1.023,0.228-1.397,0.683
		C118.731,68.561,118.544,69.279,118.544,70.259z"/>
	<path d="M125.18,70.252c0-1.371,0.381-2.386,1.143-3.046c0.637-0.548,1.413-0.823,2.328-0.823c1.018,0,1.849,0.333,2.495,1
		s0.969,1.588,0.969,2.764c0,0.953-0.143,1.702-0.429,2.248c-0.286,0.546-0.702,0.97-1.248,1.272
		c-0.546,0.302-1.142,0.453-1.788,0.453c-1.037,0-1.874-0.333-2.513-0.997C125.499,72.459,125.18,71.502,125.18,70.252z
		 M126.469,70.252c0,0.948,0.207,1.658,0.62,2.129s0.934,0.708,1.562,0.708c0.623,0,1.141-0.237,1.554-0.711s0.62-1.197,0.62-2.168
		c0-0.915-0.208-1.609-0.624-2.081c-0.416-0.472-0.933-0.708-1.551-0.708c-0.627,0-1.148,0.235-1.562,0.704
		S126.469,69.305,126.469,70.252z"/>
	<path d="M133.585,73.953v-7.402h1.122v1.039c0.232-0.362,0.542-0.654,0.927-0.875c0.386-0.22,0.825-0.331,1.317-0.331
		c0.548,0,0.998,0.114,1.349,0.342c0.351,0.228,0.598,0.546,0.742,0.955c0.586-0.864,1.348-1.296,2.287-1.296
		c0.734,0,1.299,0.204,1.693,0.61c0.395,0.407,0.592,1.033,0.592,1.879v5.081h-1.246V69.29c0-0.502-0.041-0.863-0.123-1.084
		c-0.08-0.221-0.229-0.398-0.441-0.533c-0.215-0.135-0.465-0.202-0.754-0.202c-0.52,0-0.952,0.173-1.296,0.52
		c-0.344,0.346-0.516,0.9-0.516,1.662v4.301h-1.254v-4.81c0-0.558-0.103-0.976-0.307-1.254c-0.205-0.279-0.54-0.418-1.004-0.418
		c-0.353,0-0.68,0.093-0.979,0.279c-0.3,0.186-0.517,0.458-0.651,0.815c-0.135,0.358-0.202,0.874-0.202,1.547v3.841H133.585z"/>
</g>
<g>
	<rect x="82.38" y="12.713" class="st5" width="70.75" height="32.5"/>
	<path class="st1" d="M152.63,13.213v31.5H82.88v-31.5H152.63 M153.63,12.213h-1H82.88h-1v1v31.5v1h1h69.75h1v-1v-31.5V12.213
		L153.63,12.213z"/>
</g>
<g>
	<path class="st2" d="M89.417,34.703V21.801h5.721c1.15,0,2.024,0.116,2.623,0.348c0.598,0.232,1.077,0.641,1.435,1.228
		s0.537,1.235,0.537,1.945c0,0.916-0.296,1.687-0.889,2.315c-0.593,0.628-1.508,1.027-2.746,1.197
		c0.452,0.217,0.795,0.432,1.03,0.643c0.499,0.458,0.971,1.03,1.417,1.716l2.244,3.512H98.64l-1.708-2.685
		c-0.499-0.774-0.909-1.367-1.232-1.778c-0.323-0.411-0.612-0.698-0.867-0.862c-0.255-0.164-0.515-0.279-0.779-0.343
		c-0.193-0.041-0.51-0.062-0.951-0.062h-1.98v5.729H89.417z M91.124,27.495h3.67c0.78,0,1.391-0.081,1.831-0.242
		c0.44-0.162,0.775-0.419,1.003-0.774c0.229-0.355,0.343-0.741,0.343-1.158c0-0.61-0.221-1.112-0.665-1.505
		c-0.443-0.393-1.143-0.59-2.099-0.59h-4.083V27.495z"/>
	<path class="st2" d="M108.604,31.693l1.637,0.203c-0.258,0.957-0.736,1.699-1.435,2.227c-0.698,0.528-1.59,0.792-2.675,0.792
		c-1.368,0-2.451-0.421-3.252-1.263c-0.801-0.842-1.201-2.023-1.201-3.542c0-1.572,0.405-2.793,1.214-3.661
		c0.81-0.869,1.86-1.303,3.151-1.303c1.25,0,2.271,0.425,3.063,1.276c0.792,0.851,1.188,2.048,1.188,3.591
		c0,0.094-0.003,0.234-0.009,0.422h-6.97c0.059,1.027,0.349,1.813,0.871,2.359c0.522,0.545,1.173,0.818,1.954,0.818
		c0.581,0,1.077-0.152,1.487-0.458S108.363,32.362,108.604,31.693z M103.402,29.132h5.219c-0.071-0.786-0.27-1.376-0.599-1.769
		c-0.505-0.61-1.159-0.915-1.963-0.915c-0.728,0-1.339,0.243-1.835,0.73C103.729,27.665,103.455,28.317,103.402,29.132z"/>
	<path class="st2" d="M110.214,38.329l0.299-1.347c0.317,0.083,0.566,0.124,0.749,0.124c0.322,0,0.563-0.107,0.722-0.321
		c0.158-0.214,0.237-0.75,0.237-1.606v-9.822h1.584v9.857c0,1.15-0.15,1.951-0.449,2.403c-0.382,0.587-1.015,0.88-1.901,0.88
		C111.026,38.497,110.613,38.441,110.214,38.329z M112.22,23.64v-1.84h1.584v1.84H112.22z"/>
	<path class="st2" d="M122.633,31.693l1.637,0.203c-0.258,0.957-0.736,1.699-1.435,2.227c-0.698,0.528-1.59,0.792-2.675,0.792
		c-1.368,0-2.451-0.421-3.252-1.263c-0.801-0.842-1.201-2.023-1.201-3.542c0-1.572,0.405-2.793,1.214-3.661
		c0.81-0.869,1.86-1.303,3.151-1.303c1.25,0,2.271,0.425,3.063,1.276c0.792,0.851,1.188,2.048,1.188,3.591
		c0,0.094-0.003,0.234-0.009,0.422h-6.97c0.059,1.027,0.349,1.813,0.871,2.359c0.522,0.545,1.173,0.818,1.954,0.818
		c0.581,0,1.077-0.152,1.487-0.458S122.392,32.362,122.633,31.693z M117.431,29.132h5.219c-0.071-0.786-0.27-1.376-0.599-1.769
		c-0.505-0.61-1.159-0.915-1.963-0.915c-0.728,0-1.339,0.243-1.835,0.73C117.758,27.665,117.484,28.317,117.431,29.132z"/>
	<path class="st2" d="M132.358,31.28l1.558,0.203c-0.17,1.074-0.606,1.914-1.307,2.521s-1.562,0.911-2.583,0.911
		c-1.279,0-2.308-0.418-3.085-1.254s-1.166-2.035-1.166-3.595c0-1.009,0.167-1.893,0.501-2.649s0.844-1.324,1.527-1.703
		c0.684-0.378,1.427-0.567,2.231-0.567c1.015,0,1.845,0.257,2.491,0.77c0.646,0.514,1.059,1.243,1.241,2.187l-1.541,0.238
		c-0.146-0.628-0.406-1.1-0.779-1.417s-0.823-0.475-1.351-0.475c-0.798,0-1.446,0.286-1.945,0.858
		c-0.499,0.572-0.748,1.477-0.748,2.715c0,1.255,0.24,2.168,0.722,2.737c0.481,0.569,1.109,0.854,1.883,0.854
		c0.622,0,1.141-0.19,1.558-0.572C131.982,32.659,132.246,32.072,132.358,31.28z"/>
	<path class="st2" d="M138.73,33.286l0.229,1.399c-0.446,0.094-0.845,0.141-1.197,0.141c-0.575,0-1.021-0.091-1.337-0.272
		c-0.317-0.182-0.54-0.421-0.669-0.717c-0.129-0.296-0.194-0.92-0.194-1.871v-5.377H134.4v-1.232h1.162v-2.314l1.576-0.951v3.265
		h1.593v1.232h-1.593v5.465c0,0.452,0.028,0.743,0.083,0.872s0.146,0.232,0.273,0.308c0.126,0.076,0.306,0.114,0.541,0.114
		C138.211,33.348,138.442,33.327,138.73,33.286z"/>
	<path class="st2" d="M139.646,31.913l1.567-0.247c0.088,0.628,0.332,1.109,0.734,1.443c0.402,0.334,0.963,0.502,1.686,0.502
		c0.727,0,1.268-0.148,1.62-0.444s0.529-0.644,0.529-1.043c0-0.358-0.156-0.64-0.467-0.845c-0.219-0.141-0.758-0.32-1.62-0.537
		c-1.162-0.293-1.969-0.547-2.416-0.761c-0.45-0.214-0.79-0.511-1.022-0.889s-0.348-0.796-0.348-1.254
		c0-0.417,0.096-0.802,0.286-1.157s0.45-0.65,0.779-0.884c0.246-0.182,0.582-0.336,1.008-0.462c0.426-0.126,0.881-0.189,1.369-0.189
		c0.733,0,1.377,0.105,1.932,0.317c0.555,0.211,0.963,0.497,1.229,0.858c0.264,0.361,0.445,0.844,0.545,1.448l-1.549,0.211
		c-0.07-0.481-0.275-0.856-0.611-1.126c-0.338-0.27-0.814-0.405-1.432-0.405c-0.727,0-1.246,0.12-1.557,0.361
		c-0.313,0.24-0.467,0.522-0.467,0.845c0,0.206,0.064,0.39,0.193,0.555c0.129,0.17,0.332,0.311,0.607,0.422
		c0.158,0.059,0.625,0.193,1.398,0.405c1.122,0.299,1.905,0.544,2.346,0.735c0.443,0.191,0.791,0.468,1.043,0.832
		c0.254,0.364,0.379,0.816,0.379,1.355c0,0.528-0.154,1.025-0.461,1.492c-0.309,0.467-0.754,0.828-1.334,1.083
		c-0.582,0.255-1.238,0.383-1.973,0.383c-1.213,0-2.139-0.252-2.776-0.757C140.228,33.653,139.821,32.905,139.646,31.913z"/>
</g>
</svg>
