<?xml version="1.0" encoding="utf-8"?>
<!-- Generator: Adobe Illustrator 21.1.0, SVG Export Plug-In . SVG Version: 6.00 Build 0)  -->
<svg version="1.1" xmlns="http://www.w3.org/2000/svg" xmlns:xlink="http://www.w3.org/1999/xlink" x="0px" y="0px"
	 viewBox="0 0 355 253" style="enable-background:new 0 0 355 253;" xml:space="preserve">
<style type="text/css">
	.st0{fill-rule:evenodd;clip-rule:evenodd;fill:#98ECB0;}
	.st1{fill-rule:evenodd;clip-rule:evenodd;fill:#64E288;}
	.st2{fill-rule:evenodd;clip-rule:evenodd;fill:#37D965;}
	.st3{fill-rule:evenodd;clip-rule:evenodd;fill:#F1525A;}
	.st4{fill-rule:evenodd;clip-rule:evenodd;fill:#22B14C;}
</style>
<g id="レイヤー_1">
	<rect x="155.514" y="63.5" class="st0" width="91.769" height="57.974"/>
	<rect x="155.514" y="121.043" class="st1" width="91.769" height="57.974"/>
	<rect x="155.514" y="178.586" class="st2" width="91.769" height="58.01"/>
	<polygon class="st3" points="246.858,63.5 246.858,236.596 338.591,236.596 338.591,63.5 246.858,63.5 	"/>
	<polygon class="st4" points="64.213,63.5 64.213,236.596 155.946,236.596 155.946,63.5 64.213,63.5 	"/>
	<g>
		<path d="M78.254,54.017V43.368h2.17v8.84h5.395v1.809H78.254z"/>
		<path d="M86.874,50.018c0-0.684,0.168-1.345,0.506-1.985c0.337-0.64,0.815-1.128,1.433-1.465s1.308-0.505,2.071-0.505
			c1.178,0,2.143,0.382,2.896,1.146c0.752,0.764,1.128,1.729,1.128,2.896c0,1.177-0.38,2.152-1.14,2.926
			c-0.76,0.774-1.716,1.161-2.87,1.161c-0.714,0-1.394-0.161-2.042-0.483s-1.14-0.795-1.477-1.417
			C87.042,51.669,86.874,50.912,86.874,50.018z M88.985,50.128c0,0.771,0.183,1.362,0.549,1.772c0.367,0.41,0.819,0.615,1.356,0.615
			s0.988-0.205,1.353-0.615c0.364-0.41,0.546-1.006,0.546-1.787c0-0.762-0.182-1.348-0.546-1.758
			c-0.364-0.41-0.815-0.615-1.353-0.615s-0.99,0.205-1.356,0.615C89.168,48.766,88.985,49.356,88.985,50.128z"/>
		<path d="M97.972,54.017l-2.463-7.778h2.001l1.459,5.098l1.341-5.098h1.987l1.297,5.098l1.488-5.098h2.031l-2.5,7.778h-1.979
			l-1.341-5.002l-1.319,5.002H97.972z"/>
		<path d="M112.391,54.017V43.28h4.567c1.148,0,1.982,0.097,2.503,0.289c0.521,0.193,0.937,0.536,1.25,1.029
			c0.313,0.493,0.469,1.057,0.469,1.692c0,0.806-0.237,1.471-0.711,1.996c-0.474,0.525-1.183,0.856-2.125,0.993
			c0.469,0.273,0.856,0.574,1.162,0.901c0.306,0.327,0.717,0.908,1.235,1.743l1.312,2.095h-2.595l-1.569-2.336
			c-0.557-0.835-0.938-1.361-1.144-1.579c-0.205-0.217-0.423-0.366-0.652-0.446c-0.229-0.081-0.594-0.121-1.092-0.121h-0.44v4.482
			H112.391z M114.56,47.821h1.605c1.041,0,1.691-0.044,1.95-0.132c0.259-0.088,0.462-0.239,0.608-0.454
			c0.147-0.215,0.22-0.483,0.22-0.806c0-0.361-0.097-0.653-0.29-0.875c-0.193-0.222-0.465-0.363-0.817-0.421
			c-0.176-0.024-0.704-0.037-1.583-0.037h-1.693V47.821z"/>
		<path d="M123.21,45.184V43.28h2.06v1.904H123.21z M123.21,54.017v-7.778h2.06v7.778H123.21z"/>
		<path d="M126.655,51.798l2.067-0.315c0.088,0.4,0.266,0.705,0.535,0.912c0.269,0.208,0.645,0.311,1.129,0.311
			c0.533,0,0.933-0.098,1.202-0.293c0.181-0.137,0.271-0.32,0.271-0.549c0-0.156-0.049-0.286-0.146-0.388
			c-0.103-0.098-0.333-0.188-0.689-0.271c-1.662-0.366-2.715-0.701-3.159-1.003c-0.616-0.42-0.924-1.003-0.924-1.75
			c0-0.674,0.266-1.24,0.799-1.699s1.359-0.688,2.478-0.688c1.065,0,1.857,0.173,2.375,0.52c0.518,0.347,0.875,0.859,1.07,1.538
			l-1.942,0.359c-0.083-0.303-0.241-0.535-0.473-0.696c-0.232-0.161-0.563-0.242-0.993-0.242c-0.542,0-0.931,0.076-1.166,0.227
			c-0.157,0.107-0.235,0.247-0.235,0.417c0,0.146,0.068,0.271,0.206,0.374c0.186,0.137,0.827,0.33,1.924,0.579
			s1.863,0.554,2.298,0.916c0.43,0.366,0.645,0.876,0.645,1.531c0,0.713-0.298,1.326-0.895,1.838s-1.478,0.769-2.646,0.769
			c-1.061,0-1.9-0.215-2.518-0.645S126.846,52.535,126.655,51.798z"/>
		<path d="M135.657,54.017V43.28h2.06v5.698l2.412-2.739h2.536l-2.661,2.842l2.852,4.937h-2.221l-1.957-3.494l-0.96,1.003v2.49
			H135.657z"/>
	</g>
	<g>
		<path d="M155.652,54.018V43.28h3.247l1.95,7.324l1.928-7.324h3.254v10.737h-2.016v-8.452l-2.133,8.452h-2.089l-2.126-8.452v8.452
			H155.652z"/>
		<path d="M172.68,51.542l2.053,0.344c-0.264,0.752-0.681,1.325-1.25,1.717c-0.569,0.394-1.282,0.59-2.137,0.59
			c-1.354,0-2.355-0.442-3.005-1.326c-0.513-0.708-0.77-1.602-0.77-2.681c0-1.289,0.337-2.298,1.011-3.029
			c0.675-0.729,1.527-1.095,2.559-1.095c1.158,0,2.072,0.382,2.741,1.146s0.99,1.935,0.96,3.512h-5.161
			c0.015,0.61,0.181,1.085,0.499,1.425s0.713,0.509,1.188,0.509c0.323,0,0.594-0.088,0.814-0.264
			C172.402,52.216,172.568,51.933,172.68,51.542z M172.798,49.462c-0.015-0.596-0.169-1.048-0.462-1.358
			c-0.293-0.31-0.65-0.465-1.07-0.465c-0.45,0-0.821,0.164-1.114,0.491c-0.293,0.327-0.438,0.771-0.433,1.333H172.798z"/>
		<path d="M183.661,54.018h-1.913v-1.143c-0.318,0.444-0.693,0.775-1.125,0.992c-0.433,0.217-0.869,0.326-1.309,0.326
			c-0.894,0-1.66-0.36-2.298-1.08s-0.957-1.725-0.957-3.014c0-1.318,0.31-2.32,0.931-3.006c0.62-0.686,1.405-1.029,2.353-1.029
			c0.87,0,1.622,0.361,2.257,1.084V43.28h2.06V54.018z M178.164,49.96c0,0.83,0.115,1.431,0.344,1.802
			c0.333,0.537,0.796,0.806,1.393,0.806c0.474,0,0.877-0.201,1.21-0.604c0.332-0.402,0.498-1.004,0.498-1.805
			c0-0.894-0.161-1.537-0.483-1.93c-0.323-0.393-0.736-0.589-1.239-0.589c-0.488,0-0.898,0.194-1.228,0.583
			C178.328,48.608,178.164,49.188,178.164,49.96z"/>
		<path d="M185.691,45.185V43.28h2.06v1.904H185.691z M185.691,54.018v-7.778h2.06v7.778H185.691z"/>
		<path d="M194.986,54.018v-1.165c-0.283,0.415-0.656,0.742-1.118,0.981s-0.949,0.359-1.462,0.359c-0.523,0-0.992-0.115-1.407-0.344
			c-0.416-0.229-0.716-0.552-0.902-0.967s-0.278-0.989-0.278-1.721v-4.922h2.06v3.574c0,1.094,0.038,1.764,0.114,2.011
			s0.214,0.442,0.414,0.586s0.455,0.216,0.762,0.216c0.352,0,0.667-0.096,0.946-0.289c0.278-0.193,0.469-0.433,0.572-0.718
			c0.103-0.286,0.154-0.985,0.154-2.099v-3.281h2.06v7.778H194.986z"/>
		<path d="M198.879,46.239h1.898v1.062c0.679-0.825,1.488-1.238,2.426-1.238c0.499,0,0.931,0.103,1.297,0.308
			s0.667,0.515,0.901,0.93c0.342-0.415,0.711-0.725,1.107-0.93c0.396-0.205,0.819-0.308,1.268-0.308
			c0.572,0,1.056,0.116,1.452,0.348c0.396,0.232,0.691,0.573,0.887,1.022c0.142,0.332,0.213,0.869,0.213,1.611v4.973h-2.06v-4.446
			c0-0.771-0.071-1.27-0.212-1.494c-0.19-0.293-0.484-0.439-0.88-0.439c-0.288,0-0.56,0.088-0.813,0.264s-0.438,0.434-0.55,0.773
			s-0.168,0.875-0.168,1.607v3.735h-2.06v-4.263c0-0.757-0.037-1.245-0.11-1.465s-0.187-0.383-0.341-0.491s-0.363-0.161-0.626-0.161
			c-0.318,0-0.604,0.085-0.858,0.256s-0.436,0.417-0.546,0.74s-0.165,0.857-0.165,1.604v3.779h-2.06V46.239z"/>
		<path d="M216.574,54.018V43.28h4.567c1.148,0,1.982,0.097,2.503,0.289c0.521,0.193,0.937,0.536,1.25,1.029
			c0.313,0.493,0.469,1.057,0.469,1.692c0,0.806-0.237,1.471-0.711,1.996c-0.474,0.525-1.183,0.856-2.125,0.993
			c0.469,0.273,0.856,0.574,1.162,0.901c0.306,0.327,0.717,0.908,1.235,1.743l1.312,2.095h-2.595l-1.569-2.336
			c-0.557-0.835-0.938-1.361-1.144-1.579c-0.205-0.217-0.423-0.366-0.652-0.446c-0.229-0.081-0.594-0.121-1.092-0.121h-0.44v4.482
			H216.574z M218.743,47.821h1.605c1.041,0,1.691-0.044,1.95-0.132c0.259-0.088,0.462-0.239,0.608-0.454
			c0.147-0.215,0.22-0.483,0.22-0.806c0-0.361-0.097-0.653-0.29-0.875c-0.193-0.222-0.465-0.363-0.817-0.421
			c-0.176-0.024-0.704-0.037-1.583-0.037h-1.693V47.821z"/>
		<path d="M227.393,45.185V43.28h2.06v1.904H227.393z M227.393,54.018v-7.778h2.06v7.778H227.393z"/>
		<path d="M230.838,51.798l2.067-0.315c0.088,0.4,0.266,0.705,0.535,0.912c0.269,0.208,0.645,0.311,1.129,0.311
			c0.533,0,0.933-0.098,1.202-0.293c0.181-0.137,0.271-0.32,0.271-0.549c0-0.156-0.049-0.286-0.146-0.388
			c-0.103-0.098-0.333-0.188-0.689-0.271c-1.662-0.366-2.715-0.701-3.159-1.003c-0.616-0.42-0.924-1.003-0.924-1.75
			c0-0.674,0.266-1.24,0.799-1.699s1.359-0.688,2.478-0.688c1.065,0,1.857,0.173,2.375,0.52c0.518,0.347,0.875,0.859,1.07,1.538
			l-1.942,0.359c-0.083-0.303-0.241-0.535-0.473-0.696c-0.232-0.161-0.563-0.242-0.993-0.242c-0.542,0-0.931,0.076-1.166,0.227
			c-0.157,0.107-0.235,0.247-0.235,0.417c0,0.146,0.068,0.271,0.206,0.374c0.186,0.137,0.827,0.33,1.924,0.579
			s1.863,0.554,2.298,0.916c0.43,0.366,0.645,0.876,0.645,1.531c0,0.713-0.298,1.326-0.895,1.838s-1.478,0.769-2.646,0.769
			c-1.061,0-1.9-0.215-2.518-0.645S231.029,52.536,230.838,51.798z"/>
		<path d="M239.84,54.018V43.28h2.06v5.698l2.412-2.739h2.536l-2.661,2.842l2.852,4.937h-2.221l-1.957-3.494l-0.96,1.003v2.49
			H239.84z"/>
	</g>
	<g>
		<path d="M258.544,54.017V43.28h2.169v4.226h4.252V43.28h2.169v10.737h-2.169v-4.695h-4.252v4.695H258.544z"/>
		<path d="M269.363,45.184V43.28h2.06v1.904H269.363z M269.363,54.017v-7.778h2.06v7.778H269.363z"/>
		<path d="M273.343,54.53l2.353,0.286c0.039,0.273,0.129,0.461,0.271,0.564c0.195,0.146,0.503,0.22,0.923,0.22
			c0.538,0,0.941-0.081,1.209-0.242c0.181-0.107,0.318-0.281,0.411-0.52c0.063-0.171,0.095-0.486,0.095-0.945v-1.135
			c-0.616,0.84-1.393,1.26-2.331,1.26c-1.045,0-1.874-0.442-2.485-1.326c-0.479-0.698-0.718-1.567-0.718-2.607
			c0-1.304,0.314-2.3,0.942-2.988s1.409-1.033,2.342-1.033c0.962,0,1.756,0.422,2.382,1.267v-1.091h1.928v6.98
			c0,0.918-0.076,1.604-0.228,2.058s-0.364,0.811-0.638,1.069c-0.273,0.259-0.639,0.461-1.096,0.608s-1.035,0.22-1.733,0.22
			c-1.32,0-2.255-0.226-2.808-0.677c-0.552-0.452-0.829-1.024-0.829-1.718C273.336,54.71,273.338,54.627,273.343,54.53z
			 M275.184,49.967c0,0.825,0.16,1.43,0.48,1.813c0.32,0.383,0.715,0.575,1.184,0.575c0.503,0,0.929-0.196,1.276-0.589
			c0.347-0.393,0.52-0.976,0.52-1.747c0-0.806-0.166-1.404-0.498-1.794c-0.333-0.391-0.753-0.586-1.261-0.586
			c-0.494,0-0.9,0.192-1.22,0.575C275.343,48.596,275.184,49.181,275.184,49.967z"/>
		<path d="M284.757,43.28v3.948c0.665-0.776,1.459-1.165,2.382-1.165c0.474,0,0.902,0.088,1.283,0.264
			c0.381,0.176,0.668,0.4,0.861,0.674c0.193,0.273,0.325,0.576,0.396,0.908s0.106,0.847,0.106,1.545v4.563h-2.06v-4.109
			c0-0.815-0.039-1.333-0.117-1.553s-0.216-0.394-0.414-0.524c-0.198-0.129-0.446-0.194-0.744-0.194
			c-0.342,0-0.647,0.083-0.916,0.249c-0.269,0.166-0.466,0.417-0.59,0.75c-0.125,0.335-0.187,0.829-0.187,1.483v3.896h-2.06V43.28
			H284.757z"/>
		<path d="M296.067,54.017V43.28h4.567c1.148,0,1.982,0.097,2.503,0.289c0.521,0.193,0.937,0.536,1.25,1.029
			c0.313,0.493,0.469,1.057,0.469,1.692c0,0.806-0.237,1.471-0.711,1.996c-0.474,0.525-1.183,0.856-2.125,0.993
			c0.469,0.273,0.856,0.574,1.162,0.901c0.306,0.327,0.717,0.908,1.235,1.743l1.312,2.095h-2.595l-1.569-2.336
			c-0.557-0.835-0.938-1.361-1.144-1.579c-0.205-0.217-0.423-0.366-0.652-0.446c-0.229-0.081-0.594-0.121-1.092-0.121h-0.44v4.482
			H296.067z M298.237,47.821h1.605c1.041,0,1.691-0.044,1.95-0.132c0.259-0.088,0.462-0.239,0.608-0.454
			c0.147-0.215,0.22-0.483,0.22-0.806c0-0.361-0.097-0.653-0.29-0.875c-0.193-0.222-0.465-0.363-0.817-0.421
			c-0.176-0.024-0.704-0.037-1.583-0.037h-1.693V47.821z"/>
		<path d="M306.887,45.184V43.28h2.06v1.904H306.887z M306.887,54.017v-7.778h2.06v7.778H306.887z"/>
		<path d="M310.332,51.798l2.067-0.315c0.088,0.4,0.266,0.705,0.535,0.912c0.269,0.208,0.645,0.311,1.129,0.311
			c0.533,0,0.933-0.098,1.202-0.293c0.181-0.137,0.271-0.32,0.271-0.549c0-0.156-0.049-0.286-0.146-0.388
			c-0.103-0.098-0.333-0.188-0.689-0.271c-1.662-0.366-2.715-0.701-3.159-1.003c-0.616-0.42-0.924-1.003-0.924-1.75
			c0-0.674,0.266-1.24,0.799-1.699s1.359-0.688,2.478-0.688c1.065,0,1.857,0.173,2.375,0.52c0.518,0.347,0.875,0.859,1.07,1.538
			l-1.942,0.359c-0.083-0.303-0.241-0.535-0.473-0.696c-0.232-0.161-0.563-0.242-0.993-0.242c-0.542,0-0.931,0.076-1.166,0.227
			c-0.157,0.107-0.235,0.247-0.235,0.417c0,0.146,0.068,0.271,0.206,0.374c0.186,0.137,0.827,0.33,1.924,0.579
			s1.863,0.554,2.298,0.916c0.43,0.366,0.645,0.876,0.645,1.531c0,0.713-0.298,1.326-0.895,1.838s-1.478,0.769-2.646,0.769
			c-1.061,0-1.9-0.215-2.518-0.645S310.522,52.535,310.332,51.798z"/>
		<path d="M319.333,54.017V43.28h2.06v5.698l2.412-2.739h2.536l-2.661,2.842l2.852,4.937h-2.221l-1.957-3.494l-0.96,1.003v2.49
			H319.333z"/>
	</g>
	<g>
		<path d="M56.433,106.211H45.783v-2.166h8.84v-5.386h1.809V106.211z"/>
		<path d="M52.434,97.604c-0.684,0-1.345-0.168-1.985-0.505c-0.64-0.337-1.128-0.813-1.465-1.431s-0.505-1.307-0.505-2.067
			c0-1.176,0.382-2.14,1.146-2.891c0.764-0.751,1.729-1.127,2.896-1.127c1.177,0,2.152,0.38,2.926,1.138
			c0.774,0.759,1.161,1.714,1.161,2.865c0,0.712-0.161,1.392-0.483,2.038s-0.795,1.138-1.417,1.475
			C54.085,97.436,53.327,97.604,52.434,97.604z M52.543,95.497c0.771,0,1.362-0.183,1.772-0.549c0.41-0.366,0.615-0.817,0.615-1.354
			s-0.205-0.987-0.615-1.35c-0.41-0.364-1.006-0.545-1.787-0.545c-0.762,0-1.348,0.182-1.758,0.545
			c-0.41,0.363-0.615,0.813-0.615,1.35s0.205,0.988,0.615,1.354C51.181,95.314,51.772,95.497,52.543,95.497z"/>
		<path d="M56.433,86.525l-7.778,2.459v-1.998l5.098-1.456l-5.098-1.339v-1.983l5.098-1.295l-5.098-1.486v-2.027l7.778,2.495v1.976
			L51.43,83.21l5.002,1.317V86.525z"/>
	</g>
	<g>
		<path d="M183.573,87.755V76.292h1.518v10.111h5.65v1.353H183.573z"/>
		<path d="M192.521,77.91v-1.619h1.409v1.619H192.521z M192.521,87.755v-8.304h1.409v8.304H192.521z"/>
		<path d="M195.866,87.755v-8.304h1.26v1.165c0.261-0.407,0.608-0.733,1.041-0.981c0.433-0.248,0.926-0.371,1.479-0.371
			c0.615,0,1.12,0.127,1.514,0.383c0.394,0.256,0.672,0.613,0.833,1.071c0.657-0.969,1.513-1.454,2.567-1.454
			c0.824,0,1.458,0.228,1.901,0.684c0.444,0.456,0.666,1.159,0.666,2.107v5.7h-1.401v-5.231c0-0.563-0.046-0.968-0.137-1.216
			c-0.091-0.248-0.257-0.447-0.497-0.598c-0.24-0.151-0.522-0.227-0.845-0.227c-0.584,0-1.07,0.194-1.456,0.583
			c-0.386,0.388-0.579,1.01-0.579,1.865v4.825h-1.409v-5.396c0-0.625-0.115-1.095-0.344-1.407c-0.23-0.313-0.605-0.469-1.127-0.469
			c-0.396,0-0.763,0.104-1.1,0.313c-0.336,0.209-0.581,0.514-0.732,0.915s-0.227,0.98-0.227,1.736v4.309H195.866z"/>
		<path d="M209.369,77.91v-1.619h1.409v1.619H209.369z M209.369,87.755v-8.304h1.409v8.304H209.369z"/>
		<path d="M215.788,86.496l0.204,1.243c-0.396,0.083-0.751,0.125-1.064,0.125c-0.511,0-0.908-0.081-1.189-0.242
			s-0.48-0.374-0.595-0.637s-0.172-0.817-0.172-1.662v-4.778h-1.033v-1.095h1.033v-2.057l1.4-0.844v2.901h1.417v1.095h-1.417v4.856
			c0,0.401,0.025,0.659,0.075,0.774c0.049,0.115,0.13,0.206,0.243,0.274c0.112,0.068,0.272,0.102,0.481,0.102
			C215.327,86.551,215.533,86.533,215.788,86.496z"/>
	</g>
	<g>
		<path d="M186.322,107.979c0,0.099-0.008,0.183-0.023,0.25c-0.016,0.068-0.037,0.123-0.063,0.165
			c-0.026,0.042-0.056,0.073-0.09,0.094c-0.034,0.021-0.066,0.031-0.098,0.031h-6.229c-0.037,0-0.07-0.01-0.102-0.031
			s-0.062-0.052-0.09-0.094c-0.029-0.042-0.051-0.097-0.067-0.165c-0.016-0.067-0.023-0.151-0.023-0.25
			c0-0.094,0.007-0.176,0.02-0.246c0.013-0.071,0.033-0.128,0.059-0.172c0.026-0.044,0.056-0.077,0.09-0.098
			c0.034-0.021,0.072-0.031,0.113-0.031h0.963v-3.55h-0.963c-0.037,0-0.07-0.009-0.102-0.027c-0.031-0.019-0.062-0.048-0.09-0.09
			c-0.029-0.042-0.051-0.095-0.067-0.16c-0.016-0.065-0.023-0.15-0.023-0.254c0-0.089,0.007-0.167,0.02-0.235
			c0.013-0.067,0.033-0.124,0.059-0.168c0.026-0.044,0.056-0.076,0.09-0.094c0.034-0.018,0.072-0.027,0.113-0.027h0.963v-0.938
			c0-0.641,0.073-1.191,0.219-1.65c0.146-0.458,0.354-0.834,0.623-1.126c0.269-0.292,0.593-0.504,0.974-0.637
			s0.806-0.199,1.275-0.199c0.219,0,0.435,0.02,0.646,0.059c0.211,0.039,0.407,0.092,0.587,0.16c0.18,0.068,0.341,0.146,0.485,0.234
			c0.144,0.089,0.25,0.167,0.321,0.235c0.071,0.068,0.119,0.123,0.145,0.164c0.026,0.042,0.047,0.089,0.063,0.141
			c0.016,0.052,0.026,0.11,0.031,0.172s0.008,0.141,0.008,0.234c0,0.089-0.005,0.167-0.016,0.235
			c-0.01,0.067-0.026,0.124-0.047,0.168s-0.046,0.078-0.074,0.102c-0.029,0.023-0.062,0.035-0.098,0.035
			c-0.073,0-0.16-0.044-0.262-0.133c-0.102-0.089-0.231-0.185-0.388-0.29c-0.156-0.104-0.346-0.201-0.567-0.289
			c-0.222-0.089-0.486-0.133-0.794-0.133c-0.313,0-0.583,0.053-0.81,0.16c-0.227,0.107-0.414,0.265-0.56,0.473
			c-0.146,0.208-0.256,0.466-0.329,0.774c-0.073,0.308-0.11,0.662-0.11,1.063v0.985h2.567c0.042,0,0.08,0.009,0.113,0.027
			c0.034,0.018,0.063,0.049,0.086,0.094s0.042,0.101,0.055,0.168c0.013,0.068,0.02,0.146,0.02,0.235
			c0,0.104-0.008,0.189-0.023,0.254c-0.016,0.065-0.037,0.119-0.063,0.16c-0.026,0.042-0.055,0.072-0.086,0.09
			c-0.031,0.018-0.065,0.027-0.102,0.027h-2.567v3.55h3.944c0.037,0,0.072,0.011,0.105,0.031c0.034,0.021,0.064,0.054,0.09,0.098
			c0.026,0.044,0.045,0.102,0.059,0.172C186.315,107.803,186.322,107.885,186.322,107.979z"/>
		<path d="M194.228,105.625c0,0.464-0.081,0.882-0.243,1.255s-0.394,0.692-0.696,0.958c-0.303,0.266-0.676,0.47-1.119,0.614
			c-0.444,0.143-0.944,0.215-1.503,0.215c-0.339,0-0.656-0.027-0.951-0.082s-0.557-0.12-0.787-0.195s-0.42-0.154-0.571-0.235
			c-0.151-0.081-0.246-0.139-0.286-0.176c-0.039-0.037-0.069-0.073-0.09-0.109s-0.039-0.081-0.055-0.133
			c-0.016-0.052-0.027-0.116-0.035-0.192c-0.008-0.075-0.012-0.168-0.012-0.277c0-0.188,0.019-0.318,0.056-0.391
			c0.037-0.073,0.091-0.109,0.161-0.109c0.048,0,0.143,0.042,0.285,0.125c0.142,0.083,0.324,0.173,0.546,0.27
			c0.222,0.096,0.482,0.186,0.779,0.27s0.627,0.125,0.992,0.125c0.353,0,0.664-0.044,0.931-0.133
			c0.268-0.088,0.492-0.214,0.674-0.375c0.182-0.161,0.318-0.353,0.41-0.575c0.091-0.221,0.136-0.462,0.136-0.723
			c0-0.287-0.058-0.544-0.174-0.774s-0.286-0.428-0.509-0.594c-0.224-0.167-0.498-0.294-0.824-0.383s-0.696-0.133-1.111-0.133
			h-0.994c-0.043,0-0.085-0.009-0.125-0.027c-0.04-0.019-0.075-0.048-0.105-0.09c-0.029-0.042-0.054-0.096-0.073-0.164
			c-0.019-0.067-0.028-0.156-0.028-0.266c0-0.099,0.008-0.181,0.023-0.247c0.016-0.065,0.038-0.117,0.067-0.156
			c0.028-0.039,0.061-0.068,0.098-0.086c0.037-0.019,0.078-0.027,0.125-0.027h0.885c0.344,0,0.653-0.044,0.927-0.133
			c0.274-0.088,0.506-0.216,0.696-0.383s0.336-0.366,0.438-0.598c0.102-0.232,0.152-0.491,0.152-0.778
			c0-0.208-0.034-0.408-0.102-0.598c-0.068-0.19-0.169-0.355-0.305-0.497c-0.136-0.141-0.309-0.251-0.521-0.332
			c-0.211-0.081-0.455-0.121-0.732-0.121c-0.302,0-0.58,0.045-0.833,0.137c-0.253,0.091-0.479,0.189-0.677,0.293
			c-0.198,0.104-0.363,0.202-0.493,0.293s-0.222,0.137-0.273,0.137c-0.037,0-0.069-0.006-0.098-0.02
			c-0.029-0.013-0.052-0.039-0.07-0.078c-0.019-0.039-0.031-0.094-0.039-0.164c-0.008-0.071-0.012-0.163-0.012-0.278
			c0-0.078,0.002-0.147,0.008-0.207c0.005-0.06,0.016-0.112,0.031-0.157c0.016-0.044,0.034-0.084,0.055-0.121
			c0.021-0.036,0.056-0.079,0.105-0.129c0.05-0.049,0.15-0.121,0.302-0.215c0.151-0.094,0.337-0.187,0.559-0.278
			s0.478-0.168,0.767-0.23s0.601-0.094,0.935-0.094c0.47,0,0.882,0.06,1.237,0.18c0.354,0.12,0.65,0.289,0.888,0.508
			c0.237,0.219,0.415,0.481,0.532,0.786c0.117,0.305,0.176,0.643,0.176,1.013c0,0.318-0.042,0.614-0.125,0.888
			c-0.083,0.273-0.206,0.516-0.368,0.727c-0.162,0.211-0.36,0.391-0.595,0.54c-0.234,0.148-0.506,0.251-0.813,0.309v0.016
			c0.349,0.037,0.669,0.124,0.958,0.262s0.539,0.312,0.748,0.52c0.208,0.208,0.372,0.452,0.489,0.731
			C194.169,105.009,194.228,105.308,194.228,105.625z"/>
		<path d="M198.165,107.4c0,0.162-0.008,0.31-0.023,0.446s-0.042,0.263-0.078,0.383c-0.037,0.12-0.085,0.239-0.145,0.356
			s-0.134,0.241-0.223,0.372l-1.072,1.611c-0.026,0.036-0.056,0.067-0.09,0.094c-0.034,0.026-0.076,0.049-0.125,0.07
			c-0.05,0.021-0.107,0.035-0.172,0.043c-0.065,0.008-0.147,0.012-0.246,0.012c-0.089,0-0.164-0.004-0.223-0.012
			c-0.06-0.008-0.103-0.021-0.129-0.039c-0.026-0.019-0.041-0.043-0.043-0.074s0.006-0.068,0.027-0.109l1.041-2.15V107.4
			c0-0.141,0.014-0.253,0.043-0.336c0.029-0.083,0.074-0.146,0.137-0.188c0.063-0.042,0.141-0.07,0.235-0.086
			c0.094-0.016,0.209-0.023,0.345-0.023c0.13,0,0.242,0.008,0.336,0.023c0.094,0.016,0.171,0.044,0.23,0.086
			c0.06,0.042,0.104,0.104,0.133,0.188C198.151,107.147,198.165,107.26,198.165,107.4z"/>
		<path d="M206.732,103.436c0,0.777-0.061,1.486-0.184,2.127c-0.123,0.641-0.326,1.192-0.61,1.654
			c-0.285,0.461-0.656,0.818-1.115,1.071c-0.459,0.252-1.025,0.379-1.698,0.379c-0.637,0-1.173-0.113-1.608-0.34
			c-0.436-0.227-0.787-0.561-1.052-1.001c-0.266-0.44-0.456-0.982-0.567-1.626c-0.112-0.644-0.168-1.383-0.168-2.217
			c0-0.771,0.063-1.479,0.188-2.123c0.125-0.644,0.329-1.196,0.61-1.658s0.652-0.818,1.111-1.071
			c0.459-0.252,1.022-0.379,1.69-0.379c0.642,0,1.181,0.113,1.616,0.34c0.436,0.227,0.787,0.561,1.053,1.001
			s0.455,0.982,0.567,1.626C206.676,101.863,206.732,102.602,206.732,103.436z M205.355,103.53c0-0.505-0.019-0.959-0.055-1.36
			s-0.09-0.756-0.16-1.063s-0.162-0.572-0.274-0.794c-0.112-0.221-0.247-0.404-0.403-0.547c-0.156-0.143-0.335-0.248-0.536-0.313
			c-0.201-0.065-0.427-0.098-0.677-0.098c-0.443,0-0.803,0.104-1.08,0.313c-0.276,0.208-0.494,0.495-0.653,0.86
			c-0.159,0.365-0.268,0.792-0.325,1.282c-0.058,0.49-0.086,1.017-0.086,1.58c0,0.756,0.039,1.398,0.117,1.927
			c0.078,0.529,0.202,0.96,0.372,1.294c0.17,0.333,0.386,0.576,0.65,0.727c0.263,0.151,0.583,0.227,0.958,0.227
			c0.292,0,0.549-0.047,0.771-0.141c0.222-0.094,0.412-0.228,0.571-0.403c0.159-0.174,0.291-0.384,0.395-0.629
			s0.188-0.516,0.25-0.813c0.063-0.297,0.105-0.619,0.129-0.966S205.355,103.905,205.355,103.53z"/>
		<path d="M214.919,103.436c0,0.777-0.061,1.486-0.184,2.127c-0.123,0.641-0.326,1.192-0.61,1.654
			c-0.285,0.461-0.656,0.818-1.115,1.071c-0.459,0.252-1.025,0.379-1.698,0.379c-0.637,0-1.173-0.113-1.608-0.34
			c-0.436-0.227-0.787-0.561-1.052-1.001c-0.266-0.44-0.456-0.982-0.567-1.626c-0.112-0.644-0.168-1.383-0.168-2.217
			c0-0.771,0.063-1.479,0.188-2.123c0.125-0.644,0.329-1.196,0.61-1.658s0.652-0.818,1.111-1.071
			c0.459-0.252,1.022-0.379,1.69-0.379c0.642,0,1.181,0.113,1.616,0.34c0.436,0.227,0.787,0.561,1.053,1.001
			s0.455,0.982,0.567,1.626C214.863,101.863,214.919,102.602,214.919,103.436z M213.542,103.53c0-0.505-0.019-0.959-0.055-1.36
			s-0.09-0.756-0.16-1.063s-0.162-0.572-0.274-0.794c-0.112-0.221-0.247-0.404-0.403-0.547c-0.156-0.143-0.335-0.248-0.536-0.313
			c-0.201-0.065-0.427-0.098-0.677-0.098c-0.443,0-0.803,0.104-1.08,0.313c-0.276,0.208-0.494,0.495-0.653,0.86
			c-0.159,0.365-0.268,0.792-0.325,1.282c-0.058,0.49-0.086,1.017-0.086,1.58c0,0.756,0.039,1.398,0.117,1.927
			c0.078,0.529,0.202,0.96,0.372,1.294c0.17,0.333,0.386,0.576,0.65,0.727c0.263,0.151,0.583,0.227,0.958,0.227
			c0.292,0,0.549-0.047,0.771-0.141c0.222-0.094,0.412-0.228,0.571-0.403c0.159-0.174,0.291-0.384,0.395-0.629
			s0.188-0.516,0.25-0.813c0.063-0.297,0.105-0.619,0.129-0.966S213.542,103.905,213.542,103.53z"/>
		<path d="M223.106,103.436c0,0.777-0.061,1.486-0.184,2.127c-0.123,0.641-0.326,1.192-0.61,1.654
			c-0.285,0.461-0.656,0.818-1.115,1.071c-0.459,0.252-1.025,0.379-1.698,0.379c-0.637,0-1.173-0.113-1.608-0.34
			c-0.436-0.227-0.787-0.561-1.052-1.001c-0.266-0.44-0.456-0.982-0.567-1.626c-0.112-0.644-0.168-1.383-0.168-2.217
			c0-0.771,0.063-1.479,0.188-2.123c0.125-0.644,0.329-1.196,0.61-1.658s0.652-0.818,1.111-1.071
			c0.459-0.252,1.022-0.379,1.69-0.379c0.642,0,1.181,0.113,1.616,0.34c0.436,0.227,0.787,0.561,1.053,1.001
			s0.455,0.982,0.567,1.626C223.05,101.863,223.106,102.602,223.106,103.436z M221.729,103.53c0-0.505-0.019-0.959-0.055-1.36
			s-0.09-0.756-0.16-1.063s-0.162-0.572-0.274-0.794c-0.112-0.221-0.247-0.404-0.403-0.547c-0.156-0.143-0.335-0.248-0.536-0.313
			c-0.201-0.065-0.427-0.098-0.677-0.098c-0.443,0-0.803,0.104-1.08,0.313c-0.276,0.208-0.494,0.495-0.653,0.86
			c-0.159,0.365-0.268,0.792-0.325,1.282c-0.058,0.49-0.086,1.017-0.086,1.58c0,0.756,0.039,1.398,0.117,1.927
			c0.078,0.529,0.202,0.96,0.372,1.294c0.17,0.333,0.386,0.576,0.65,0.727c0.263,0.151,0.583,0.227,0.958,0.227
			c0.292,0,0.549-0.047,0.771-0.141c0.222-0.094,0.412-0.228,0.571-0.403c0.159-0.174,0.291-0.384,0.395-0.629
			s0.188-0.516,0.25-0.813c0.063-0.297,0.105-0.619,0.129-0.966S221.729,103.905,221.729,103.53z"/>
	</g>
	<g>
		<path d="M56.433,176.772H45.695v-3.242l7.324-1.946l-7.324-1.925v-3.25h10.737v2.013H47.98l8.452,2.129v2.086l-8.452,2.122h8.452
			V176.772z"/>
		<path d="M53.957,159.772l0.344-2.049c0.752,0.263,1.325,0.679,1.717,1.248c0.394,0.568,0.59,1.28,0.59,2.133
			c0,1.352-0.442,2.352-1.326,3c-0.708,0.512-1.602,0.769-2.681,0.769c-1.289,0-2.298-0.337-3.029-1.01
			c-0.729-0.673-1.095-1.524-1.095-2.554c0-1.156,0.382-2.069,1.146-2.737c0.764-0.668,1.935-0.988,3.512-0.958v5.152
			c0.61-0.015,1.085-0.18,1.425-0.498c0.339-0.317,0.509-0.712,0.509-1.186c0-0.322-0.088-0.593-0.264-0.812
			C54.631,160.05,54.348,159.884,53.957,159.772z M51.877,159.655c-0.596,0.015-1.048,0.168-1.358,0.461
			c-0.31,0.292-0.465,0.649-0.465,1.068c0,0.449,0.164,0.82,0.491,1.112c0.327,0.293,0.771,0.437,1.333,0.432V159.655z"/>
		<path d="M56.433,148.81v1.91H55.29c0.444,0.317,0.775,0.691,0.992,1.123c0.217,0.432,0.326,0.867,0.326,1.306
			c0,0.893-0.36,1.658-1.08,2.294s-1.725,0.955-3.014,0.955c-1.318,0-2.32-0.31-3.006-0.929s-1.029-1.403-1.029-2.349
			c0-0.869,0.361-1.62,1.084-2.254h-3.867v-2.056H56.433z M52.375,154.298c0.83,0,1.431-0.115,1.802-0.344
			c0.537-0.332,0.806-0.795,0.806-1.391c0-0.473-0.201-0.875-0.604-1.207c-0.402-0.332-1.004-0.498-1.805-0.498
			c-0.894,0-1.537,0.161-1.93,0.483c-0.393,0.322-0.589,0.734-0.589,1.236c0,0.488,0.194,0.896,0.583,1.226
			C51.023,154.133,51.604,154.298,52.375,154.298z"/>
		<path d="M47.6,146.782h-1.904v-2.057H47.6V146.782z M56.433,146.782h-7.778v-2.057h7.778V146.782z"/>
		<path d="M56.433,137.502h-1.165c0.415,0.283,0.742,0.655,0.981,1.116s0.359,0.948,0.359,1.46c0,0.522-0.115,0.991-0.344,1.405
			s-0.552,0.715-0.967,0.9c-0.415,0.186-0.989,0.278-1.721,0.278h-4.922v-2.057h3.574c1.094,0,1.764-0.038,2.011-0.113
			s0.442-0.213,0.586-0.414s0.216-0.454,0.216-0.761c0-0.351-0.096-0.666-0.289-0.944c-0.193-0.278-0.433-0.468-0.718-0.571
			c-0.286-0.103-0.985-0.154-2.099-0.154h-3.281v-2.056h7.778V137.502z"/>
		<path d="M48.654,133.617v-1.896h1.062c-0.825-0.678-1.238-1.486-1.238-2.422c0-0.498,0.103-0.93,0.308-1.295s0.515-0.666,0.93-0.9
			c-0.415-0.341-0.725-0.709-0.93-1.105c-0.205-0.395-0.308-0.817-0.308-1.266c0-0.571,0.116-1.054,0.348-1.449
			c0.232-0.395,0.573-0.69,1.022-0.886c0.332-0.141,0.869-0.212,1.611-0.212h4.973v2.056h-4.446c-0.771,0-1.27,0.071-1.494,0.212
			c-0.293,0.19-0.439,0.483-0.439,0.878c0,0.288,0.088,0.559,0.264,0.813c0.176,0.254,0.434,0.437,0.773,0.549
			s0.875,0.168,1.607,0.168h3.735v2.056H52.17c-0.757,0-1.245,0.037-1.465,0.11s-0.383,0.187-0.491,0.34s-0.161,0.362-0.161,0.626
			c0,0.317,0.085,0.603,0.256,0.856c0.171,0.254,0.417,0.436,0.74,0.545s0.857,0.165,1.604,0.165h3.779v2.057H48.654z"/>
	</g>
	<g>
		<path d="M183.573,145.299v-11.463h1.518v10.111h5.65v1.353H183.573z"/>
		<path d="M192.521,135.454v-1.619h1.409v1.619H192.521z M192.521,145.299v-8.304h1.409v8.304H192.521z"/>
		<path d="M195.866,145.299v-8.304h1.26v1.165c0.261-0.407,0.608-0.733,1.041-0.981c0.433-0.248,0.926-0.371,1.479-0.371
			c0.615,0,1.12,0.127,1.514,0.383c0.394,0.256,0.672,0.613,0.833,1.071c0.657-0.969,1.513-1.454,2.567-1.454
			c0.824,0,1.458,0.228,1.901,0.684c0.444,0.456,0.666,1.159,0.666,2.107v5.7h-1.401v-5.231c0-0.563-0.046-0.968-0.137-1.216
			c-0.091-0.248-0.257-0.447-0.497-0.598c-0.24-0.151-0.522-0.227-0.845-0.227c-0.584,0-1.07,0.194-1.456,0.583
			c-0.386,0.388-0.579,1.01-0.579,1.865v4.825h-1.409v-5.396c0-0.625-0.115-1.095-0.344-1.407c-0.23-0.313-0.605-0.469-1.127-0.469
			c-0.396,0-0.763,0.104-1.1,0.313c-0.336,0.209-0.581,0.514-0.732,0.915s-0.227,0.98-0.227,1.736v4.309H195.866z"/>
		<path d="M209.369,135.454v-1.619h1.409v1.619H209.369z M209.369,145.299v-8.304h1.409v8.304H209.369z"/>
		<path d="M215.788,144.04l0.204,1.243c-0.396,0.083-0.751,0.125-1.064,0.125c-0.511,0-0.908-0.081-1.189-0.242
			s-0.48-0.374-0.595-0.637s-0.172-0.817-0.172-1.662v-4.778h-1.033v-1.095h1.033v-2.057l1.4-0.844v2.901h1.417v1.095h-1.417v4.856
			c0,0.401,0.025,0.659,0.075,0.774c0.049,0.115,0.13,0.206,0.243,0.274c0.112,0.068,0.272,0.102,0.481,0.102
			C215.327,144.095,215.533,144.077,215.788,144.04z"/>
	</g>
	<g>
		<path d="M186.322,165.522c0,0.099-0.008,0.183-0.023,0.25c-0.016,0.068-0.037,0.123-0.063,0.165
			c-0.026,0.042-0.056,0.073-0.09,0.094c-0.034,0.021-0.066,0.031-0.098,0.031h-6.229c-0.037,0-0.07-0.01-0.102-0.031
			s-0.062-0.052-0.09-0.094c-0.029-0.042-0.051-0.097-0.067-0.165c-0.016-0.067-0.023-0.151-0.023-0.25
			c0-0.094,0.007-0.176,0.02-0.246c0.013-0.071,0.033-0.128,0.059-0.172c0.026-0.044,0.056-0.077,0.09-0.098
			c0.034-0.021,0.072-0.031,0.113-0.031h0.963v-3.55h-0.963c-0.037,0-0.07-0.009-0.102-0.027c-0.031-0.019-0.062-0.048-0.09-0.09
			c-0.029-0.042-0.051-0.095-0.067-0.16c-0.016-0.065-0.023-0.15-0.023-0.254c0-0.089,0.007-0.167,0.02-0.235
			c0.013-0.067,0.033-0.124,0.059-0.168c0.026-0.044,0.056-0.076,0.09-0.094c0.034-0.018,0.072-0.027,0.113-0.027h0.963v-0.938
			c0-0.641,0.073-1.191,0.219-1.65c0.146-0.458,0.354-0.834,0.623-1.126c0.269-0.292,0.593-0.504,0.974-0.637
			s0.806-0.199,1.275-0.199c0.219,0,0.435,0.02,0.646,0.059c0.211,0.039,0.407,0.092,0.587,0.16c0.18,0.068,0.341,0.146,0.485,0.234
			c0.144,0.089,0.25,0.167,0.321,0.235c0.071,0.068,0.119,0.123,0.145,0.164c0.026,0.042,0.047,0.089,0.063,0.141
			c0.016,0.052,0.026,0.11,0.031,0.172s0.008,0.141,0.008,0.234c0,0.089-0.005,0.167-0.016,0.235
			c-0.01,0.067-0.026,0.124-0.047,0.168s-0.046,0.078-0.074,0.102c-0.029,0.023-0.062,0.035-0.098,0.035
			c-0.073,0-0.16-0.044-0.262-0.133c-0.102-0.089-0.231-0.185-0.388-0.29c-0.156-0.104-0.346-0.201-0.567-0.289
			c-0.222-0.089-0.486-0.133-0.794-0.133c-0.313,0-0.583,0.053-0.81,0.16c-0.227,0.107-0.414,0.265-0.56,0.473
			c-0.146,0.208-0.256,0.466-0.329,0.774c-0.073,0.308-0.11,0.662-0.11,1.063v0.985h2.567c0.042,0,0.08,0.009,0.113,0.027
			c0.034,0.018,0.063,0.049,0.086,0.094s0.042,0.101,0.055,0.168c0.013,0.068,0.02,0.146,0.02,0.235
			c0,0.104-0.008,0.189-0.023,0.254c-0.016,0.065-0.037,0.119-0.063,0.16c-0.026,0.042-0.055,0.072-0.086,0.09
			c-0.031,0.018-0.065,0.027-0.102,0.027h-2.567v3.55h3.944c0.037,0,0.072,0.011,0.105,0.031c0.034,0.021,0.064,0.054,0.09,0.098
			c0.026,0.044,0.045,0.102,0.059,0.172C186.315,165.346,186.322,165.428,186.322,165.522z"/>
		<path d="M194.564,162.785c0,0.443-0.068,0.872-0.204,1.286c-0.136,0.415-0.344,0.78-0.626,1.095
			c-0.282,0.315-0.639,0.568-1.072,0.759c-0.433,0.19-0.944,0.285-1.534,0.285c-0.422,0-0.795-0.052-1.119-0.156
			c-0.323-0.104-0.605-0.253-0.845-0.446c-0.24-0.193-0.439-0.43-0.599-0.711c-0.159-0.282-0.287-0.602-0.383-0.962
			c-0.097-0.359-0.166-0.753-0.208-1.181c-0.042-0.427-0.063-0.886-0.063-1.376c0-0.433,0.023-0.871,0.07-1.314
			c0.047-0.443,0.13-0.871,0.25-1.282s0.283-0.799,0.489-1.161s0.464-0.678,0.774-0.946c0.311-0.269,0.682-0.481,1.115-0.637
			s0.937-0.234,1.511-0.234c0.193,0,0.388,0.012,0.587,0.035c0.198,0.023,0.38,0.055,0.547,0.094s0.308,0.082,0.423,0.129
			s0.19,0.085,0.227,0.113c0.036,0.029,0.063,0.06,0.082,0.094c0.018,0.034,0.033,0.071,0.043,0.11s0.018,0.083,0.023,0.133
			c0.005,0.049,0.008,0.111,0.008,0.184c0,0.094-0.001,0.175-0.004,0.243c-0.002,0.067-0.013,0.123-0.031,0.164
			s-0.042,0.073-0.07,0.094c-0.029,0.021-0.066,0.031-0.113,0.031c-0.058,0-0.136-0.018-0.235-0.055s-0.219-0.077-0.36-0.121
			c-0.141-0.044-0.312-0.085-0.512-0.121c-0.201-0.037-0.435-0.055-0.701-0.055c-0.485,0-0.902,0.099-1.252,0.297
			s-0.635,0.464-0.857,0.797c-0.222,0.334-0.386,0.721-0.493,1.162c-0.107,0.44-0.168,0.9-0.184,1.38
			c0.135-0.078,0.288-0.156,0.458-0.234c0.169-0.079,0.355-0.149,0.556-0.211s0.414-0.113,0.638-0.152
			c0.225-0.039,0.464-0.059,0.72-0.059c0.548,0,1.009,0.074,1.385,0.223c0.375,0.149,0.679,0.354,0.912,0.618
			c0.232,0.264,0.397,0.574,0.497,0.931C194.514,161.981,194.564,162.368,194.564,162.785z M193.202,162.91
			c0-0.302-0.03-0.577-0.09-0.825s-0.161-0.458-0.301-0.629c-0.141-0.172-0.329-0.305-0.563-0.399s-0.524-0.141-0.869-0.141
			c-0.193,0-0.386,0.017-0.579,0.051s-0.379,0.081-0.56,0.141s-0.352,0.13-0.517,0.211c-0.164,0.081-0.314,0.168-0.45,0.262
			c0,0.672,0.043,1.235,0.129,1.689s0.211,0.817,0.375,1.091c0.165,0.273,0.369,0.469,0.615,0.586
			c0.245,0.117,0.532,0.176,0.861,0.176c0.333,0,0.623-0.063,0.869-0.188c0.245-0.125,0.448-0.293,0.61-0.504
			c0.162-0.211,0.28-0.448,0.356-0.711S193.202,163.187,193.202,162.91z"/>
		<path d="M198.165,164.943c0,0.162-0.008,0.31-0.023,0.446s-0.042,0.263-0.078,0.383c-0.037,0.12-0.085,0.239-0.145,0.356
			s-0.134,0.241-0.223,0.372l-1.072,1.611c-0.026,0.036-0.056,0.067-0.09,0.094c-0.034,0.026-0.076,0.049-0.125,0.07
			c-0.05,0.021-0.107,0.035-0.172,0.043c-0.065,0.008-0.147,0.012-0.246,0.012c-0.089,0-0.164-0.004-0.223-0.012
			c-0.06-0.008-0.103-0.021-0.129-0.039c-0.026-0.019-0.041-0.043-0.043-0.074s0.006-0.068,0.027-0.109l1.041-2.15v-1.001
			c0-0.141,0.014-0.253,0.043-0.336c0.029-0.083,0.074-0.146,0.137-0.188c0.063-0.042,0.141-0.07,0.235-0.086
			c0.094-0.016,0.209-0.023,0.345-0.023c0.13,0,0.242,0.008,0.336,0.023c0.094,0.016,0.171,0.044,0.23,0.086
			c0.06,0.042,0.104,0.104,0.133,0.188C198.151,164.69,198.165,164.803,198.165,164.943z"/>
		<path d="M206.349,162.809c0,0.542-0.091,1.024-0.274,1.447s-0.441,0.778-0.775,1.067c-0.334,0.289-0.731,0.509-1.193,0.661
			c-0.461,0.151-0.974,0.227-1.538,0.227c-0.313,0-0.61-0.022-0.892-0.066s-0.532-0.099-0.751-0.164
			c-0.219-0.065-0.399-0.129-0.54-0.191c-0.141-0.063-0.231-0.112-0.27-0.149c-0.039-0.036-0.066-0.07-0.082-0.102
			s-0.03-0.069-0.043-0.113c-0.013-0.044-0.022-0.101-0.027-0.168c-0.005-0.068-0.008-0.149-0.008-0.243
			c0-0.088,0.004-0.168,0.012-0.238s0.022-0.128,0.043-0.172c0.021-0.044,0.045-0.077,0.074-0.098
			c0.029-0.021,0.062-0.031,0.098-0.031c0.052,0,0.133,0.033,0.242,0.098c0.11,0.065,0.257,0.136,0.442,0.211
			s0.415,0.147,0.688,0.215s0.599,0.102,0.975,0.102c0.349,0,0.67-0.042,0.962-0.125s0.544-0.214,0.755-0.391
			c0.211-0.177,0.376-0.4,0.497-0.668s0.18-0.595,0.18-0.981c0-0.323-0.051-0.608-0.153-0.856c-0.102-0.248-0.258-0.454-0.469-0.618
			c-0.211-0.165-0.479-0.287-0.802-0.368c-0.324-0.081-0.709-0.121-1.158-0.121c-0.318,0-0.592,0.016-0.822,0.047
			s-0.443,0.047-0.642,0.047c-0.146,0-0.25-0.034-0.313-0.102s-0.094-0.198-0.094-0.391v-4.121c0-0.172,0.04-0.3,0.121-0.383
			c0.081-0.083,0.197-0.125,0.348-0.125h4.484c0.042,0,0.082,0.012,0.121,0.035s0.072,0.059,0.098,0.105
			c0.026,0.047,0.045,0.107,0.059,0.18c0.013,0.073,0.02,0.159,0.02,0.258c0,0.188-0.025,0.333-0.075,0.438
			c-0.05,0.104-0.12,0.156-0.209,0.156h-3.621v2.838c0.176-0.026,0.355-0.042,0.539-0.047s0.396-0.008,0.637-0.008
			c0.558,0,1.045,0.069,1.462,0.207c0.417,0.138,0.766,0.334,1.044,0.586c0.279,0.253,0.49,0.559,0.633,0.919
			C206.277,161.972,206.349,162.371,206.349,162.809z"/>
		<path d="M214.919,160.979c0,0.777-0.061,1.486-0.184,2.127c-0.123,0.641-0.326,1.192-0.61,1.654
			c-0.285,0.461-0.656,0.818-1.115,1.071c-0.459,0.252-1.025,0.379-1.698,0.379c-0.637,0-1.173-0.113-1.608-0.34
			c-0.436-0.227-0.787-0.561-1.052-1.001c-0.266-0.44-0.456-0.982-0.567-1.626c-0.112-0.644-0.168-1.383-0.168-2.217
			c0-0.771,0.063-1.479,0.188-2.123c0.125-0.644,0.329-1.196,0.61-1.658s0.652-0.818,1.111-1.071
			c0.459-0.252,1.022-0.379,1.69-0.379c0.642,0,1.181,0.113,1.616,0.34c0.436,0.227,0.787,0.561,1.053,1.001
			s0.455,0.982,0.567,1.626C214.863,159.406,214.919,160.145,214.919,160.979z M213.542,161.073c0-0.505-0.019-0.959-0.055-1.36
			s-0.09-0.756-0.16-1.063s-0.162-0.572-0.274-0.794c-0.112-0.221-0.247-0.404-0.403-0.547c-0.156-0.143-0.335-0.248-0.536-0.313
			c-0.201-0.065-0.427-0.098-0.677-0.098c-0.443,0-0.803,0.104-1.08,0.313c-0.276,0.208-0.494,0.495-0.653,0.86
			c-0.159,0.365-0.268,0.792-0.325,1.282c-0.058,0.49-0.086,1.017-0.086,1.58c0,0.756,0.039,1.398,0.117,1.927
			c0.078,0.529,0.202,0.96,0.372,1.294c0.17,0.333,0.386,0.576,0.65,0.727c0.263,0.151,0.583,0.227,0.958,0.227
			c0.292,0,0.549-0.047,0.771-0.141c0.222-0.094,0.412-0.228,0.571-0.403c0.159-0.174,0.291-0.384,0.395-0.629
			s0.188-0.516,0.25-0.813c0.063-0.297,0.105-0.619,0.129-0.966S213.542,161.448,213.542,161.073z"/>
		<path d="M223.106,160.979c0,0.777-0.061,1.486-0.184,2.127c-0.123,0.641-0.326,1.192-0.61,1.654
			c-0.285,0.461-0.656,0.818-1.115,1.071c-0.459,0.252-1.025,0.379-1.698,0.379c-0.637,0-1.173-0.113-1.608-0.34
			c-0.436-0.227-0.787-0.561-1.052-1.001c-0.266-0.44-0.456-0.982-0.567-1.626c-0.112-0.644-0.168-1.383-0.168-2.217
			c0-0.771,0.063-1.479,0.188-2.123c0.125-0.644,0.329-1.196,0.61-1.658s0.652-0.818,1.111-1.071
			c0.459-0.252,1.022-0.379,1.69-0.379c0.642,0,1.181,0.113,1.616,0.34c0.436,0.227,0.787,0.561,1.053,1.001
			s0.455,0.982,0.567,1.626C223.05,159.406,223.106,160.145,223.106,160.979z M221.729,161.073c0-0.505-0.019-0.959-0.055-1.36
			s-0.09-0.756-0.16-1.063s-0.162-0.572-0.274-0.794c-0.112-0.221-0.247-0.404-0.403-0.547c-0.156-0.143-0.335-0.248-0.536-0.313
			c-0.201-0.065-0.427-0.098-0.677-0.098c-0.443,0-0.803,0.104-1.08,0.313c-0.276,0.208-0.494,0.495-0.653,0.86
			c-0.159,0.365-0.268,0.792-0.325,1.282c-0.058,0.49-0.086,1.017-0.086,1.58c0,0.756,0.039,1.398,0.117,1.927
			c0.078,0.529,0.202,0.96,0.372,1.294c0.17,0.333,0.386,0.576,0.65,0.727c0.263,0.151,0.583,0.227,0.958,0.227
			c0.292,0,0.549-0.047,0.771-0.141c0.222-0.094,0.412-0.228,0.571-0.403c0.159-0.174,0.291-0.384,0.395-0.629
			s0.188-0.516,0.25-0.813c0.063-0.297,0.105-0.619,0.129-0.966S221.729,161.448,221.729,161.073z"/>
	</g>
	<g>
		<path d="M56.434,222.645H45.696v-2.167h4.226v-4.244h-4.226v-2.167h10.737v2.167h-4.695v4.244h4.695V222.645z"/>
		<path d="M47.601,211.843h-1.904v-2.057h1.904V211.843z M56.434,211.843h-7.778v-2.057h7.778V211.843z"/>
		<path d="M56.946,207.869l0.286-2.349c0.273-0.039,0.461-0.129,0.564-0.271c0.146-0.195,0.22-0.502,0.22-0.922
			c0-0.537-0.081-0.939-0.242-1.208c-0.107-0.18-0.281-0.317-0.52-0.41c-0.171-0.063-0.486-0.095-0.945-0.095h-1.135
			c0.84,0.615,1.26,1.391,1.26,2.327c0,1.044-0.442,1.871-1.326,2.481c-0.698,0.479-1.567,0.717-2.607,0.717
			c-1.304,0-2.3-0.313-2.988-0.94s-1.033-1.406-1.033-2.338c0-0.961,0.422-1.754,1.267-2.378h-1.091v-1.925h6.98
			c0.918,0,1.604,0.076,2.058,0.227c0.454,0.151,0.811,0.364,1.069,0.637c0.259,0.273,0.461,0.638,0.608,1.094
			s0.22,1.033,0.22,1.731c0,1.317-0.226,2.251-0.677,2.803c-0.452,0.551-1.024,0.827-1.718,0.827
			C57.127,207.876,57.044,207.875,56.946,207.869z M52.383,206.033c0.825,0,1.43-0.16,1.813-0.479s0.575-0.713,0.575-1.182
			c0-0.502-0.196-0.927-0.589-1.273c-0.393-0.347-0.976-0.52-1.747-0.52c-0.806,0-1.404,0.166-1.794,0.498
			c-0.391,0.332-0.586,0.751-0.586,1.258c0,0.493,0.192,0.899,0.575,1.219C51.013,205.873,51.597,206.033,52.383,206.033z"/>
		<path d="M45.696,196.475h3.948c-0.776-0.663-1.165-1.456-1.165-2.378c0-0.473,0.088-0.9,0.264-1.281
			c0.176-0.38,0.4-0.667,0.674-0.86c0.273-0.192,0.576-0.324,0.908-0.395s0.847-0.106,1.545-0.106h4.563v2.056h-4.109
			c-0.815,0-1.333,0.039-1.553,0.117s-0.394,0.216-0.524,0.414c-0.129,0.198-0.194,0.445-0.194,0.743
			c0,0.342,0.083,0.646,0.249,0.915c0.166,0.268,0.417,0.464,0.75,0.589c0.335,0.125,0.829,0.187,1.483,0.187h3.896v2.057H45.696
			V196.475z"/>
	</g>
	<g>
		<path d="M183.573,202.84v-11.463h1.518v10.111h5.65v1.353H183.573z"/>
		<path d="M192.521,192.995v-1.619h1.409v1.619H192.521z M192.521,202.84v-8.304h1.409v8.304H192.521z"/>
		<path d="M195.866,202.84v-8.304h1.26v1.165c0.261-0.407,0.608-0.733,1.041-0.981c0.433-0.248,0.926-0.371,1.479-0.371
			c0.615,0,1.12,0.127,1.514,0.383c0.394,0.256,0.672,0.613,0.833,1.071c0.657-0.969,1.513-1.454,2.567-1.454
			c0.824,0,1.458,0.228,1.901,0.684c0.444,0.456,0.666,1.159,0.666,2.107v5.7h-1.401v-5.231c0-0.563-0.046-0.968-0.137-1.216
			c-0.091-0.248-0.257-0.447-0.497-0.598c-0.24-0.151-0.522-0.227-0.845-0.227c-0.584,0-1.07,0.194-1.456,0.583
			c-0.386,0.388-0.579,1.01-0.579,1.865v4.825h-1.409v-5.396c0-0.625-0.115-1.095-0.344-1.407c-0.23-0.313-0.605-0.469-1.127-0.469
			c-0.396,0-0.763,0.104-1.1,0.313c-0.336,0.209-0.581,0.514-0.732,0.915s-0.227,0.98-0.227,1.736v4.309H195.866z"/>
		<path d="M209.369,192.995v-1.619h1.409v1.619H209.369z M209.369,202.84v-8.304h1.409v8.304H209.369z"/>
		<path d="M215.788,201.581l0.204,1.243c-0.396,0.083-0.751,0.125-1.064,0.125c-0.511,0-0.908-0.081-1.189-0.242
			s-0.48-0.374-0.595-0.637s-0.172-0.817-0.172-1.662v-4.778h-1.033v-1.095h1.033v-2.057l1.4-0.844v2.901h1.417v1.095h-1.417v4.856
			c0,0.401,0.025,0.659,0.075,0.774c0.049,0.115,0.13,0.206,0.243,0.274c0.112,0.068,0.272,0.102,0.481,0.102
			C215.327,201.636,215.533,201.618,215.788,201.581z"/>
	</g>
	<g>
		<path d="M186.322,223.064c0,0.099-0.008,0.183-0.023,0.25c-0.016,0.068-0.037,0.123-0.063,0.165
			c-0.026,0.042-0.056,0.073-0.09,0.094c-0.034,0.021-0.066,0.031-0.098,0.031h-6.229c-0.037,0-0.07-0.01-0.102-0.031
			s-0.062-0.052-0.09-0.094c-0.029-0.042-0.051-0.097-0.067-0.165c-0.016-0.067-0.023-0.151-0.023-0.25
			c0-0.094,0.007-0.176,0.02-0.246c0.013-0.071,0.033-0.128,0.059-0.172c0.026-0.044,0.056-0.077,0.09-0.098
			c0.034-0.021,0.072-0.031,0.113-0.031h0.963v-3.55h-0.963c-0.037,0-0.07-0.009-0.102-0.027c-0.031-0.019-0.062-0.048-0.09-0.09
			c-0.029-0.042-0.051-0.095-0.067-0.16c-0.016-0.065-0.023-0.15-0.023-0.254c0-0.089,0.007-0.167,0.02-0.235
			c0.013-0.067,0.033-0.124,0.059-0.168c0.026-0.044,0.056-0.076,0.09-0.094c0.034-0.018,0.072-0.027,0.113-0.027h0.963v-0.938
			c0-0.641,0.073-1.191,0.219-1.65c0.146-0.458,0.354-0.834,0.623-1.126c0.269-0.292,0.593-0.504,0.974-0.637
			s0.806-0.199,1.275-0.199c0.219,0,0.435,0.02,0.646,0.059c0.211,0.039,0.407,0.092,0.587,0.16c0.18,0.068,0.341,0.146,0.485,0.234
			c0.144,0.089,0.25,0.167,0.321,0.235c0.071,0.068,0.119,0.123,0.145,0.164c0.026,0.042,0.047,0.089,0.063,0.141
			c0.016,0.052,0.026,0.11,0.031,0.172s0.008,0.141,0.008,0.234c0,0.089-0.005,0.167-0.016,0.235
			c-0.01,0.067-0.026,0.124-0.047,0.168s-0.046,0.078-0.074,0.102c-0.029,0.023-0.062,0.035-0.098,0.035
			c-0.073,0-0.16-0.044-0.262-0.133c-0.102-0.089-0.231-0.185-0.388-0.29c-0.156-0.104-0.346-0.201-0.567-0.289
			c-0.222-0.089-0.486-0.133-0.794-0.133c-0.313,0-0.583,0.053-0.81,0.16c-0.227,0.107-0.414,0.265-0.56,0.473
			c-0.146,0.208-0.256,0.466-0.329,0.774c-0.073,0.308-0.11,0.662-0.11,1.063v0.985h2.567c0.042,0,0.08,0.009,0.113,0.027
			c0.034,0.018,0.063,0.049,0.086,0.094s0.042,0.101,0.055,0.168c0.013,0.068,0.02,0.146,0.02,0.235
			c0,0.104-0.008,0.189-0.023,0.254c-0.016,0.065-0.037,0.119-0.063,0.16c-0.026,0.042-0.055,0.072-0.086,0.09
			c-0.031,0.018-0.065,0.027-0.102,0.027h-2.567v3.55h3.944c0.037,0,0.072,0.011,0.105,0.031c0.034,0.021,0.064,0.054,0.09,0.098
			c0.026,0.044,0.045,0.102,0.059,0.172C186.315,222.888,186.322,222.97,186.322,223.064z"/>
		<path d="M194.541,221.007c0,0.438-0.078,0.828-0.235,1.169c-0.156,0.342-0.382,0.63-0.677,0.864
			c-0.295,0.234-0.659,0.412-1.092,0.532c-0.433,0.12-0.929,0.18-1.487,0.18c-0.522,0-0.989-0.055-1.401-0.164
			s-0.762-0.271-1.049-0.485c-0.287-0.214-0.506-0.477-0.657-0.79c-0.151-0.313-0.227-0.67-0.227-1.071
			c0-0.318,0.052-0.61,0.157-0.876c0.104-0.266,0.254-0.511,0.45-0.735c0.196-0.224,0.437-0.434,0.724-0.629
			c0.287-0.196,0.61-0.382,0.97-0.559c-0.313-0.162-0.589-0.333-0.83-0.512c-0.24-0.18-0.443-0.375-0.61-0.586
			c-0.167-0.211-0.293-0.437-0.379-0.676s-0.129-0.5-0.129-0.782c0-0.354,0.064-0.687,0.192-0.997
			c0.128-0.31,0.321-0.58,0.579-0.809s0.587-0.411,0.986-0.543c0.399-0.133,0.865-0.199,1.396-0.199
			c0.511,0,0.954,0.061,1.327,0.184s0.681,0.289,0.923,0.5c0.243,0.211,0.421,0.46,0.536,0.747s0.172,0.594,0.172,0.923
			c0,0.266-0.043,0.521-0.129,0.766c-0.086,0.245-0.212,0.477-0.379,0.696c-0.167,0.219-0.372,0.424-0.614,0.614
			c-0.243,0.19-0.521,0.369-0.833,0.535c0.37,0.183,0.7,0.371,0.99,0.563c0.29,0.193,0.532,0.4,0.728,0.622
			c0.196,0.221,0.344,0.456,0.446,0.704C194.49,220.438,194.541,220.71,194.541,221.007z M193.179,221.148
			c0-0.24-0.044-0.458-0.133-0.653c-0.089-0.195-0.223-0.378-0.403-0.547c-0.18-0.169-0.404-0.333-0.673-0.492
			c-0.269-0.159-0.581-0.325-0.935-0.497c-0.329,0.162-0.617,0.323-0.865,0.485c-0.248,0.162-0.452,0.328-0.61,0.5
			c-0.159,0.172-0.279,0.354-0.36,0.543c-0.081,0.19-0.121,0.4-0.121,0.63c0,0.505,0.173,0.896,0.521,1.173
			c0.347,0.276,0.865,0.414,1.553,0.414c0.668,0,1.172-0.139,1.514-0.418S193.179,221.628,193.179,221.148z M192.85,215.815
			c0-0.219-0.038-0.417-0.113-0.594c-0.076-0.177-0.187-0.329-0.333-0.454c-0.146-0.125-0.328-0.22-0.544-0.285
			c-0.217-0.065-0.463-0.098-0.74-0.098c-0.563,0-0.99,0.128-1.279,0.383s-0.435,0.605-0.435,1.048c0,0.203,0.035,0.392,0.105,0.567
			c0.071,0.175,0.18,0.34,0.329,0.497c0.148,0.156,0.336,0.309,0.563,0.458c0.227,0.148,0.497,0.304,0.81,0.465
			c0.527-0.271,0.932-0.571,1.213-0.899S192.85,216.211,192.85,215.815z"/>
		<path d="M198.165,222.485c0,0.162-0.008,0.31-0.023,0.446s-0.042,0.263-0.078,0.383c-0.037,0.12-0.085,0.239-0.145,0.356
			s-0.134,0.241-0.223,0.372l-1.072,1.611c-0.026,0.036-0.056,0.067-0.09,0.094c-0.034,0.026-0.076,0.049-0.125,0.07
			c-0.05,0.021-0.107,0.035-0.172,0.043c-0.065,0.008-0.147,0.012-0.246,0.012c-0.089,0-0.164-0.004-0.223-0.012
			c-0.06-0.008-0.103-0.021-0.129-0.039c-0.026-0.019-0.041-0.043-0.043-0.074s0.006-0.068,0.027-0.109l1.041-2.15v-1.001
			c0-0.141,0.014-0.253,0.043-0.336c0.029-0.083,0.074-0.146,0.137-0.188c0.063-0.042,0.141-0.07,0.235-0.086
			c0.094-0.016,0.209-0.023,0.345-0.023c0.13,0,0.242,0.008,0.336,0.023c0.094,0.016,0.171,0.044,0.23,0.086
			c0.06,0.042,0.104,0.104,0.133,0.188C198.151,222.232,198.165,222.345,198.165,222.485z"/>
		<path d="M206.732,218.521c0,0.777-0.061,1.486-0.184,2.127c-0.123,0.641-0.326,1.192-0.61,1.654
			c-0.285,0.461-0.656,0.818-1.115,1.071c-0.459,0.252-1.025,0.379-1.698,0.379c-0.637,0-1.173-0.113-1.608-0.34
			c-0.436-0.227-0.787-0.561-1.052-1.001c-0.266-0.44-0.456-0.982-0.567-1.626c-0.112-0.644-0.168-1.383-0.168-2.217
			c0-0.771,0.063-1.479,0.188-2.123c0.125-0.644,0.329-1.196,0.61-1.658s0.652-0.818,1.111-1.071
			c0.459-0.252,1.022-0.379,1.69-0.379c0.642,0,1.181,0.113,1.616,0.34c0.436,0.227,0.787,0.561,1.053,1.001
			s0.455,0.982,0.567,1.626C206.676,216.948,206.732,217.687,206.732,218.521z M205.355,218.615c0-0.505-0.019-0.959-0.055-1.36
			s-0.09-0.756-0.16-1.063s-0.162-0.572-0.274-0.794c-0.112-0.221-0.247-0.404-0.403-0.547c-0.156-0.143-0.335-0.248-0.536-0.313
			c-0.201-0.065-0.427-0.098-0.677-0.098c-0.443,0-0.803,0.104-1.08,0.313c-0.276,0.208-0.494,0.495-0.653,0.86
			c-0.159,0.365-0.268,0.792-0.325,1.282c-0.058,0.49-0.086,1.017-0.086,1.58c0,0.756,0.039,1.398,0.117,1.927
			c0.078,0.529,0.202,0.96,0.372,1.294c0.17,0.333,0.386,0.576,0.65,0.727c0.263,0.151,0.583,0.227,0.958,0.227
			c0.292,0,0.549-0.047,0.771-0.141c0.222-0.094,0.412-0.228,0.571-0.403c0.159-0.174,0.291-0.384,0.395-0.629
			s0.188-0.516,0.25-0.813c0.063-0.297,0.105-0.619,0.129-0.966S205.355,218.99,205.355,218.615z"/>
		<path d="M214.919,218.521c0,0.777-0.061,1.486-0.184,2.127c-0.123,0.641-0.326,1.192-0.61,1.654
			c-0.285,0.461-0.656,0.818-1.115,1.071c-0.459,0.252-1.025,0.379-1.698,0.379c-0.637,0-1.173-0.113-1.608-0.34
			c-0.436-0.227-0.787-0.561-1.052-1.001c-0.266-0.44-0.456-0.982-0.567-1.626c-0.112-0.644-0.168-1.383-0.168-2.217
			c0-0.771,0.063-1.479,0.188-2.123c0.125-0.644,0.329-1.196,0.61-1.658s0.652-0.818,1.111-1.071
			c0.459-0.252,1.022-0.379,1.69-0.379c0.642,0,1.181,0.113,1.616,0.34c0.436,0.227,0.787,0.561,1.053,1.001
			s0.455,0.982,0.567,1.626C214.863,216.948,214.919,217.687,214.919,218.521z M213.542,218.615c0-0.505-0.019-0.959-0.055-1.36
			s-0.09-0.756-0.16-1.063s-0.162-0.572-0.274-0.794c-0.112-0.221-0.247-0.404-0.403-0.547c-0.156-0.143-0.335-0.248-0.536-0.313
			c-0.201-0.065-0.427-0.098-0.677-0.098c-0.443,0-0.803,0.104-1.08,0.313c-0.276,0.208-0.494,0.495-0.653,0.86
			c-0.159,0.365-0.268,0.792-0.325,1.282c-0.058,0.49-0.086,1.017-0.086,1.58c0,0.756,0.039,1.398,0.117,1.927
			c0.078,0.529,0.202,0.96,0.372,1.294c0.17,0.333,0.386,0.576,0.65,0.727c0.263,0.151,0.583,0.227,0.958,0.227
			c0.292,0,0.549-0.047,0.771-0.141c0.222-0.094,0.412-0.228,0.571-0.403c0.159-0.174,0.291-0.384,0.395-0.629
			s0.188-0.516,0.25-0.813c0.063-0.297,0.105-0.619,0.129-0.966S213.542,218.99,213.542,218.615z"/>
		<path d="M223.106,218.521c0,0.777-0.061,1.486-0.184,2.127c-0.123,0.641-0.326,1.192-0.61,1.654
			c-0.285,0.461-0.656,0.818-1.115,1.071c-0.459,0.252-1.025,0.379-1.698,0.379c-0.637,0-1.173-0.113-1.608-0.34
			c-0.436-0.227-0.787-0.561-1.052-1.001c-0.266-0.44-0.456-0.982-0.567-1.626c-0.112-0.644-0.168-1.383-0.168-2.217
			c0-0.771,0.063-1.479,0.188-2.123c0.125-0.644,0.329-1.196,0.61-1.658s0.652-0.818,1.111-1.071
			c0.459-0.252,1.022-0.379,1.69-0.379c0.642,0,1.181,0.113,1.616,0.34c0.436,0.227,0.787,0.561,1.053,1.001
			s0.455,0.982,0.567,1.626C223.05,216.948,223.106,217.687,223.106,218.521z M221.729,218.615c0-0.505-0.019-0.959-0.055-1.36
			s-0.09-0.756-0.16-1.063s-0.162-0.572-0.274-0.794c-0.112-0.221-0.247-0.404-0.403-0.547c-0.156-0.143-0.335-0.248-0.536-0.313
			c-0.201-0.065-0.427-0.098-0.677-0.098c-0.443,0-0.803,0.104-1.08,0.313c-0.276,0.208-0.494,0.495-0.653,0.86
			c-0.159,0.365-0.268,0.792-0.325,1.282c-0.058,0.49-0.086,1.017-0.086,1.58c0,0.756,0.039,1.398,0.117,1.927
			c0.078,0.529,0.202,0.96,0.372,1.294c0.17,0.333,0.386,0.576,0.65,0.727c0.263,0.151,0.583,0.227,0.958,0.227
			c0.292,0,0.549-0.047,0.771-0.141c0.222-0.094,0.412-0.228,0.571-0.403c0.159-0.174,0.291-0.384,0.395-0.629
			s0.188-0.516,0.25-0.813c0.063-0.297,0.105-0.619,0.129-0.966S221.729,218.99,221.729,218.615z"/>
	</g>
	<g>
		<path d="M116.888,27.177l2.256-0.219c0.136,0.756,0.411,1.313,0.826,1.667c0.415,0.355,0.976,0.532,1.68,0.532
			c0.747,0,1.31-0.158,1.688-0.474c0.378-0.315,0.568-0.685,0.568-1.107c0-0.271-0.08-0.502-0.239-0.692
			c-0.16-0.19-0.438-0.356-0.834-0.497c-0.271-0.094-0.891-0.261-1.856-0.501c-1.243-0.308-2.115-0.686-2.617-1.135
			c-0.705-0.631-1.058-1.401-1.058-2.309c0-0.584,0.166-1.131,0.498-1.64s0.81-0.896,1.434-1.162s1.377-0.399,2.26-0.399
			c1.441,0,2.526,0.316,3.254,0.947c0.729,0.631,1.111,1.474,1.148,2.528l-2.319,0.102c-0.099-0.59-0.312-1.014-0.638-1.272
			c-0.327-0.258-0.816-0.387-1.469-0.387c-0.673,0-1.201,0.138-1.582,0.415c-0.246,0.178-0.368,0.415-0.368,0.712
			c0,0.271,0.115,0.503,0.345,0.697c0.292,0.245,1.002,0.501,2.13,0.767c1.128,0.266,1.962,0.541,2.503,0.826
			c0.541,0.284,0.963,0.673,1.269,1.166s0.458,1.103,0.458,1.828c0,0.658-0.183,1.273-0.548,1.847
			c-0.366,0.574-0.883,1.001-1.551,1.28c-0.668,0.279-1.501,0.419-2.499,0.419c-1.452,0-2.567-0.335-3.345-1.006
			C117.504,29.438,117.04,28.46,116.888,27.177z"/>
		<path d="M135.415,25.056l-2.17,0.391c-0.073-0.433-0.239-0.759-0.497-0.979c-0.259-0.219-0.594-0.329-1.007-0.329
			c-0.548,0-0.986,0.189-1.312,0.567c-0.327,0.378-0.49,1.011-0.49,1.898c0,0.986,0.166,1.683,0.498,2.09
			c0.332,0.407,0.777,0.61,1.335,0.61c0.418,0,0.76-0.119,1.026-0.356c0.266-0.237,0.454-0.646,0.564-1.225l2.162,0.368
			c-0.225,0.992-0.655,1.74-1.292,2.247s-1.491,0.759-2.562,0.759c-1.217,0-2.187-0.384-2.91-1.151
			c-0.724-0.767-1.085-1.829-1.085-3.186c0-1.372,0.363-2.441,1.089-3.205c0.726-0.765,1.708-1.147,2.945-1.147
			c1.013,0,1.818,0.218,2.417,0.654S135.153,24.163,135.415,25.056z"/>
		<path d="M136.574,26.637c0-0.73,0.18-1.438,0.541-2.122c0.36-0.683,0.871-1.205,1.531-1.565c0.661-0.36,1.398-0.54,2.213-0.54
			c1.259,0,2.29,0.409,3.094,1.225c0.804,0.817,1.207,1.849,1.207,3.096c0,1.258-0.406,2.3-1.218,3.127s-1.834,1.241-3.067,1.241
			c-0.762,0-1.49-0.172-2.182-0.517c-0.692-0.345-1.218-0.85-1.578-1.515C136.754,28.401,136.574,27.591,136.574,26.637z
			 M138.83,26.754c0,0.825,0.196,1.456,0.587,1.894c0.392,0.438,0.875,0.658,1.449,0.658c0.575,0,1.056-0.219,1.445-0.658
			c0.389-0.438,0.583-1.075,0.583-1.91c0-0.814-0.194-1.44-0.583-1.878c-0.389-0.438-0.871-0.658-1.445-0.658
			c-0.574,0-1.058,0.219-1.449,0.658C139.026,25.298,138.83,25.93,138.83,26.754z"/>
		<path d="M148.99,30.91h-2.201v-8.313h2.044v1.182c0.35-0.559,0.665-0.926,0.944-1.104c0.279-0.177,0.597-0.266,0.952-0.266
			c0.501,0,0.984,0.139,1.449,0.415l-0.682,1.917c-0.371-0.24-0.716-0.36-1.034-0.36c-0.308,0-0.569,0.085-0.783,0.254
			c-0.214,0.169-0.383,0.476-0.505,0.919c-0.123,0.444-0.184,1.373-0.184,2.787V30.91z"/>
		<path d="M157.944,28.265l2.193,0.368c-0.282,0.804-0.728,1.416-1.335,1.835c-0.608,0.42-1.37,0.63-2.284,0.63
			c-1.447,0-2.517-0.472-3.212-1.417c-0.548-0.756-0.822-1.711-0.822-2.865c0-1.377,0.36-2.456,1.081-3.236s1.632-1.17,2.734-1.17
			c1.238,0,2.214,0.409,2.93,1.225c0.715,0.817,1.058,2.068,1.026,3.753h-5.515c0.016,0.652,0.193,1.16,0.533,1.522
			c0.339,0.363,0.763,0.544,1.269,0.544c0.345,0,0.635-0.094,0.87-0.282C157.646,28.985,157.824,28.682,157.944,28.265z
			 M158.069,26.042c-0.016-0.636-0.18-1.12-0.494-1.452s-0.695-0.497-1.144-0.497c-0.481,0-0.877,0.175-1.191,0.524
			s-0.467,0.825-0.462,1.424H158.069z"/>
		<path d="M169.303,25.056l-2.17,0.391c-0.073-0.433-0.239-0.759-0.497-0.979c-0.259-0.219-0.594-0.329-1.007-0.329
			c-0.548,0-0.986,0.189-1.312,0.567c-0.327,0.378-0.49,1.011-0.49,1.898c0,0.986,0.166,1.683,0.498,2.09
			c0.332,0.407,0.777,0.61,1.335,0.61c0.418,0,0.76-0.119,1.026-0.356c0.266-0.237,0.454-0.646,0.564-1.225l2.162,0.368
			c-0.225,0.992-0.655,1.74-1.292,2.247s-1.491,0.759-2.562,0.759c-1.217,0-2.187-0.384-2.91-1.151
			c-0.724-0.767-1.085-1.829-1.085-3.186c0-1.372,0.363-2.441,1.089-3.205c0.726-0.765,1.708-1.147,2.945-1.147
			c1.013,0,1.818,0.218,2.417,0.654S169.042,24.163,169.303,25.056z"/>
		<path d="M172.616,25.134l-1.998-0.36c0.225-0.803,0.611-1.398,1.16-1.784s1.363-0.58,2.444-0.58c0.982,0,1.713,0.116,2.193,0.349
			c0.48,0.232,0.819,0.527,1.015,0.884s0.294,1.014,0.294,1.969l-0.024,2.567c0,0.73,0.036,1.269,0.106,1.616
			s0.202,0.719,0.396,1.115h-2.178c-0.058-0.146-0.128-0.363-0.211-0.649c-0.037-0.13-0.063-0.217-0.078-0.258
			c-0.376,0.365-0.778,0.639-1.207,0.822s-0.885,0.274-1.371,0.274c-0.856,0-1.531-0.232-2.025-0.697
			c-0.493-0.464-0.74-1.051-0.74-1.761c0-0.469,0.112-0.888,0.337-1.256c0.225-0.368,0.539-0.649,0.944-0.845
			s0.988-0.366,1.751-0.513c1.029-0.193,1.742-0.373,2.139-0.54v-0.219c0-0.422-0.104-0.724-0.313-0.904s-0.603-0.27-1.183-0.27
			c-0.392,0-0.697,0.077-0.917,0.231C172.93,24.478,172.752,24.748,172.616,25.134z M175.562,26.918
			c-0.282,0.094-0.729,0.206-1.34,0.336c-0.611,0.13-1.01,0.258-1.198,0.383c-0.288,0.204-0.431,0.462-0.431,0.775
			c0,0.308,0.115,0.574,0.345,0.798c0.23,0.225,0.522,0.337,0.877,0.337c0.397,0,0.775-0.13,1.136-0.392
			c0.267-0.198,0.441-0.441,0.525-0.728c0.058-0.188,0.086-0.545,0.086-1.072V26.918z"/>
		<path d="M182.001,30.91H179.8v-8.313h2.044v1.182c0.35-0.559,0.665-0.926,0.944-1.104c0.279-0.177,0.597-0.266,0.952-0.266
			c0.501,0,0.984,0.139,1.449,0.415l-0.682,1.917c-0.371-0.24-0.716-0.36-1.034-0.36c-0.308,0-0.569,0.085-0.783,0.254
			c-0.214,0.169-0.383,0.476-0.505,0.919c-0.123,0.444-0.184,1.373-0.184,2.787V30.91z"/>
		<path d="M193.767,30.91h-2.044v-1.221c-0.339,0.475-0.74,0.829-1.203,1.061c-0.462,0.232-0.928,0.349-1.398,0.349
			c-0.956,0-1.774-0.385-2.456-1.155c-0.681-0.77-1.022-1.843-1.022-3.221c0-1.409,0.332-2.48,0.995-3.213
			c0.663-0.733,1.501-1.1,2.515-1.1c0.93,0,1.734,0.386,2.413,1.159v-4.133h2.201V30.91z M187.892,26.574
			c0,0.887,0.123,1.529,0.368,1.926c0.355,0.574,0.851,0.861,1.488,0.861c0.507,0,0.938-0.215,1.292-0.646
			c0.355-0.431,0.533-1.074,0.533-1.93c0-0.955-0.172-1.642-0.517-2.063c-0.344-0.42-0.786-0.63-1.324-0.63
			c-0.522,0-0.959,0.208-1.312,0.622C188.068,25.13,187.892,25.75,187.892,26.574z"/>
		<path d="M200.417,30.91V19.436h4.88c1.228,0,2.119,0.103,2.675,0.309s1.001,0.573,1.335,1.1c0.334,0.527,0.501,1.13,0.501,1.808
			c0,0.861-0.253,1.572-0.76,2.133c-0.507,0.561-1.264,0.915-2.271,1.061c0.501,0.292,0.915,0.613,1.241,0.962
			c0.327,0.35,0.767,0.971,1.32,1.863l1.402,2.239h-2.773l-1.676-2.497c-0.595-0.892-1.003-1.454-1.222-1.687
			c-0.219-0.232-0.452-0.392-0.697-0.478s-0.634-0.129-1.167-0.129h-0.47v4.79H200.417z M202.736,24.289h1.716
			c1.112,0,1.807-0.047,2.083-0.141s0.494-0.255,0.65-0.485c0.157-0.229,0.235-0.517,0.235-0.861c0-0.386-0.103-0.698-0.31-0.936
			c-0.206-0.237-0.497-0.387-0.873-0.45c-0.188-0.026-0.752-0.04-1.692-0.04h-1.81V24.289z"/>
		<path d="M211.979,21.471v-2.035h2.201v2.035H211.979z M211.979,30.91v-8.313h2.201v8.313H211.979z"/>
		<path d="M215.662,28.539l2.209-0.336c0.094,0.428,0.285,0.752,0.572,0.974c0.287,0.222,0.689,0.333,1.207,0.333
			c0.569,0,0.998-0.104,1.285-0.313c0.193-0.146,0.29-0.341,0.29-0.587c0-0.167-0.052-0.305-0.157-0.415
			c-0.11-0.104-0.355-0.201-0.736-0.29c-1.776-0.391-2.901-0.749-3.376-1.072c-0.658-0.449-0.987-1.072-0.987-1.871
			c0-0.72,0.285-1.325,0.854-1.816c0.569-0.49,1.452-0.736,2.648-0.736c1.139,0,1.984,0.186,2.538,0.556
			c0.554,0.37,0.935,0.918,1.144,1.644l-2.076,0.383c-0.089-0.323-0.257-0.571-0.505-0.744c-0.248-0.172-0.602-0.258-1.062-0.258
			c-0.58,0-0.995,0.081-1.246,0.243c-0.167,0.115-0.25,0.264-0.25,0.446c0,0.157,0.073,0.29,0.219,0.399
			c0.199,0.146,0.884,0.352,2.057,0.618c1.172,0.266,1.991,0.592,2.456,0.979c0.459,0.391,0.689,0.937,0.689,1.636
			c0,0.762-0.319,1.417-0.956,1.965c-0.637,0.548-1.58,0.822-2.828,0.822c-1.133,0-2.03-0.229-2.691-0.689
			C216.297,29.95,215.865,29.327,215.662,28.539z"/>
		<path d="M225.281,30.91V19.436h2.201v6.089l2.577-2.927h2.71l-2.844,3.037l3.047,5.275H230.6l-2.091-3.733l-1.026,1.072v2.661
			H225.281z"/>
		<path d="M238.818,30.91V19.529h2.319v9.448h5.765v1.933H238.818z"/>
		<path d="M253.357,28.265l2.193,0.368c-0.282,0.804-0.728,1.416-1.335,1.835c-0.608,0.42-1.37,0.63-2.284,0.63
			c-1.447,0-2.517-0.472-3.212-1.417c-0.548-0.756-0.822-1.711-0.822-2.865c0-1.377,0.36-2.456,1.081-3.236s1.632-1.17,2.734-1.17
			c1.238,0,2.214,0.409,2.93,1.225c0.715,0.817,1.058,2.068,1.026,3.753h-5.515c0.016,0.652,0.193,1.16,0.533,1.522
			c0.339,0.363,0.763,0.544,1.269,0.544c0.345,0,0.635-0.094,0.87-0.282C253.059,28.985,253.237,28.682,253.357,28.265z
			 M253.482,26.042c-0.016-0.636-0.18-1.12-0.494-1.452s-0.695-0.497-1.144-0.497c-0.481,0-0.877,0.175-1.191,0.524
			s-0.467,0.825-0.462,1.424H253.482z"/>
		<path d="M259.749,30.91l-3.353-8.313h2.311l1.567,4.242l0.454,1.417c0.12-0.36,0.196-0.598,0.228-0.712
			c0.073-0.235,0.151-0.47,0.235-0.705l1.583-4.242h2.264l-3.306,8.313H259.749z"/>
		<path d="M271.202,28.265l2.193,0.368c-0.282,0.804-0.728,1.416-1.335,1.835c-0.608,0.42-1.37,0.63-2.284,0.63
			c-1.447,0-2.517-0.472-3.212-1.417c-0.548-0.756-0.822-1.711-0.822-2.865c0-1.377,0.36-2.456,1.081-3.236s1.632-1.17,2.734-1.17
			c1.238,0,2.214,0.409,2.93,1.225c0.715,0.817,1.058,2.068,1.026,3.753h-5.515c0.016,0.652,0.193,1.16,0.533,1.522
			c0.339,0.363,0.763,0.544,1.269,0.544c0.345,0,0.635-0.094,0.87-0.282C270.904,28.985,271.082,28.682,271.202,28.265z
			 M271.327,26.042c-0.016-0.636-0.18-1.12-0.494-1.452s-0.695-0.497-1.144-0.497c-0.481,0-0.877,0.175-1.191,0.524
			s-0.467,0.825-0.462,1.424H271.327z"/>
		<path d="M275.306,30.91V19.436h2.201V30.91H275.306z"/>
		<path d="M278.988,28.539l2.209-0.336c0.094,0.428,0.285,0.752,0.572,0.974c0.287,0.222,0.689,0.333,1.207,0.333
			c0.569,0,0.998-0.104,1.285-0.313c0.193-0.146,0.29-0.341,0.29-0.587c0-0.167-0.052-0.305-0.157-0.415
			c-0.11-0.104-0.355-0.201-0.736-0.29c-1.776-0.391-2.901-0.749-3.376-1.072c-0.658-0.449-0.987-1.072-0.987-1.871
			c0-0.72,0.285-1.325,0.854-1.816c0.569-0.49,1.452-0.736,2.648-0.736c1.139,0,1.984,0.186,2.538,0.556
			c0.554,0.37,0.935,0.918,1.144,1.644l-2.076,0.383c-0.089-0.323-0.257-0.571-0.505-0.744c-0.248-0.172-0.602-0.258-1.062-0.258
			c-0.58,0-0.995,0.081-1.246,0.243c-0.167,0.115-0.25,0.264-0.25,0.446c0,0.157,0.073,0.29,0.219,0.399
			c0.199,0.146,0.884,0.352,2.057,0.618c1.172,0.266,1.991,0.592,2.456,0.979c0.459,0.391,0.689,0.937,0.689,1.636
			c0,0.762-0.319,1.417-0.956,1.965c-0.637,0.548-1.58,0.822-2.828,0.822c-1.133,0-2.03-0.229-2.691-0.689
			C279.624,29.95,279.192,29.327,278.988,28.539z"/>
	</g>
	<g>
		<path d="M18.992,229.721v-4.23c0-0.954,0.073-1.681,0.219-2.182c0.198-0.672,0.55-1.248,1.057-1.728
			c0.506-0.479,1.125-0.844,1.858-1.095c0.733-0.25,1.637-0.375,2.711-0.375c0.944,0,1.758,0.117,2.442,0.352
			c0.835,0.287,1.51,0.696,2.027,1.228c0.391,0.402,0.696,0.944,0.916,1.626c0.162,0.511,0.243,1.194,0.243,2.049v4.355H18.992z
			 M20.933,227.406h7.599v-1.728c0-0.646-0.036-1.113-0.109-1.4c-0.094-0.375-0.253-0.687-0.478-0.935
			c-0.224-0.248-0.593-0.449-1.107-0.606c-0.514-0.156-1.214-0.234-2.101-0.234c-0.887,0-1.568,0.078-2.042,0.234
			c-0.475,0.157-0.845,0.375-1.111,0.657c-0.266,0.281-0.446,0.638-0.54,1.071c-0.073,0.324-0.109,0.957-0.109,1.9V227.406z"/>
		<path d="M27.82,213.354l0.368-2.189c0.804,0.282,1.416,0.726,1.835,1.333c0.42,0.607,0.63,1.367,0.63,2.279
			c0,1.444-0.472,2.513-1.417,3.206c-0.756,0.547-1.711,0.821-2.864,0.821c-1.377,0-2.456-0.36-3.236-1.079
			c-0.78-0.719-1.17-1.629-1.17-2.729c0-1.235,0.409-2.21,1.225-2.924s2.067-1.056,3.752-1.024v5.505
			c0.652-0.016,1.16-0.193,1.522-0.532c0.363-0.339,0.544-0.761,0.544-1.267c0-0.344-0.094-0.633-0.282-0.868
			C28.54,213.652,28.237,213.475,27.82,213.354z M25.597,213.229c-0.636,0.016-1.12,0.18-1.452,0.493
			c-0.331,0.313-0.497,0.693-0.497,1.142c0,0.479,0.175,0.876,0.524,1.188c0.35,0.313,0.824,0.467,1.424,0.461V213.229z"/>
		<path d="M30.465,209.351H18.992v-2.197h4.132c-0.772-0.678-1.158-1.48-1.158-2.408c0-1.011,0.367-1.848,1.1-2.51
			c0.733-0.662,1.786-0.993,3.158-0.993c1.419,0,2.512,0.337,3.279,1.012c0.767,0.675,1.15,1.495,1.15,2.459
			c0,0.474-0.119,0.942-0.356,1.403s-0.588,0.859-1.052,1.192h1.221V209.351z M26.129,207.169c0.861,0,1.498-0.135,1.91-0.407
			c0.584-0.38,0.876-0.886,0.876-1.517c0-0.485-0.208-0.898-0.623-1.24c-0.415-0.341-1.068-0.512-1.96-0.512
			c-0.95,0-1.634,0.172-2.055,0.516c-0.419,0.344-0.63,0.785-0.63,1.322c0,0.526,0.205,0.964,0.614,1.313
			C24.672,206.995,25.295,207.169,26.129,207.169z"/>
		<path d="M22.154,195.667h1.753v1.501h3.35c0.678,0,1.073-0.014,1.186-0.043s0.205-0.094,0.278-0.196
			c0.073-0.102,0.109-0.225,0.109-0.371c0-0.204-0.07-0.498-0.211-0.884l1.706-0.188c0.219,0.511,0.329,1.089,0.329,1.736
			c0,0.396-0.067,0.753-0.2,1.071c-0.133,0.318-0.305,0.551-0.517,0.7s-0.497,0.251-0.857,0.309c-0.255,0.047-0.772,0.07-1.549,0.07
			h-3.624v1.009h-1.753v-1.009h-1.651l-1.283-2.205h2.935V195.667z"/>
		<path d="M27.405,194.393h-2.199v-4.316h2.199V194.393z"/>
		<path d="M22.154,185.001h1.753v1.501h3.35c0.678,0,1.073-0.014,1.186-0.043s0.205-0.094,0.278-0.196
			c0.073-0.102,0.109-0.225,0.109-0.371c0-0.204-0.07-0.498-0.211-0.884l1.706-0.188c0.219,0.511,0.329,1.089,0.329,1.736
			c0,0.396-0.067,0.753-0.2,1.071c-0.133,0.318-0.305,0.551-0.517,0.7s-0.497,0.251-0.857,0.309c-0.255,0.047-0.772,0.07-1.549,0.07
			h-3.624v1.009h-1.753v-1.009h-1.651l-1.283-2.205h2.935V185.001z"/>
		<path d="M26.192,183.985c-0.73,0-1.437-0.18-2.121-0.54s-1.205-0.869-1.565-1.529c-0.36-0.659-0.54-1.396-0.54-2.209
			c0-1.256,0.409-2.286,1.225-3.088s1.848-1.205,3.095-1.205c1.258,0,2.3,0.406,3.126,1.216c0.827,0.811,1.241,1.831,1.241,3.061
			c0,0.761-0.172,1.487-0.517,2.178c-0.344,0.691-0.849,1.216-1.514,1.576C27.957,183.806,27.146,183.985,26.192,183.985z
			 M26.31,181.733c0.824,0,1.456-0.196,1.894-0.586c0.438-0.391,0.657-0.873,0.657-1.447c0-0.573-0.219-1.054-0.657-1.442
			c-0.438-0.389-1.075-0.583-1.91-0.583c-0.813,0-1.44,0.194-1.878,0.583c-0.438,0.388-0.657,0.869-0.657,1.442
			c0,0.574,0.219,1.056,0.657,1.447C24.854,181.538,25.485,181.733,26.31,181.733z"/>
		<path d="M27.405,173.945h-2.199v-4.316h2.199V173.945z"/>
		<path d="M30.465,168.417H18.992v-2.314h11.473V168.417z"/>
		<path d="M30.465,156.359v2.197h-4.242c-0.897,0-1.478,0.047-1.741,0.141c-0.263,0.094-0.468,0.246-0.614,0.457
			c-0.146,0.211-0.219,0.465-0.219,0.763c0,0.38,0.104,0.722,0.313,1.024c0.209,0.302,0.485,0.509,0.83,0.622
			c0.344,0.112,0.981,0.168,1.91,0.168h3.764v2.197h-8.311v-2.041h1.221c-0.939-0.725-1.409-1.637-1.409-2.737
			c0-0.485,0.087-0.928,0.262-1.329s0.398-0.705,0.669-0.911c0.271-0.206,0.579-0.349,0.923-0.43
			c0.344-0.081,0.837-0.122,1.479-0.122H30.465z"/>
		<path d="M24.611,146.89l0.391,2.166c-0.433,0.073-0.759,0.238-0.978,0.497c-0.219,0.258-0.329,0.593-0.329,1.004
			c0,0.547,0.189,0.984,0.567,1.31c0.378,0.326,1.011,0.489,1.898,0.489c0.986,0,1.683-0.166,2.089-0.497
			c0.407-0.331,0.61-0.775,0.61-1.333c0-0.417-0.118-0.758-0.356-1.024c-0.237-0.266-0.646-0.454-1.225-0.563l0.368-2.158
			c0.991,0.224,1.74,0.654,2.246,1.29c0.506,0.636,0.759,1.488,0.759,2.557c0,1.214-0.384,2.183-1.15,2.905
			c-0.767,0.722-1.829,1.083-3.185,1.083c-1.372,0-2.44-0.362-3.205-1.087c-0.764-0.725-1.146-1.705-1.146-2.94
			c0-1.012,0.218-1.815,0.654-2.413C23.055,147.58,23.719,147.151,24.611,146.89z"/>
		<path d="M26.192,145.733c-0.73,0-1.437-0.18-2.121-0.54s-1.205-0.869-1.565-1.529c-0.36-0.659-0.54-1.396-0.54-2.209
			c0-1.256,0.409-2.286,1.225-3.088s1.848-1.205,3.095-1.205c1.258,0,2.3,0.406,3.126,1.216c0.827,0.811,1.241,1.831,1.241,3.061
			c0,0.761-0.172,1.487-0.517,2.178c-0.344,0.691-0.849,1.216-1.514,1.576C27.957,145.553,27.146,145.733,26.192,145.733z
			 M26.31,143.481c0.824,0,1.456-0.196,1.894-0.586c0.438-0.391,0.657-0.873,0.657-1.447c0-0.573-0.219-1.054-0.657-1.442
			c-0.438-0.389-1.075-0.583-1.91-0.583c-0.813,0-1.44,0.194-1.878,0.583c-0.438,0.388-0.657,0.869-0.657,1.442
			c0,0.574,0.219,1.056,0.657,1.447C24.854,143.285,25.485,143.481,26.31,143.481z"/>
		<path d="M22.154,135.606v-2.025h1.135c-0.882-0.725-1.323-1.587-1.323-2.588c0-0.532,0.11-0.993,0.329-1.384
			c0.219-0.391,0.55-0.711,0.994-0.961c-0.443-0.365-0.775-0.759-0.994-1.181c-0.219-0.422-0.329-0.874-0.329-1.353
			c0-0.61,0.124-1.126,0.372-1.548c0.248-0.422,0.612-0.737,1.092-0.946c0.354-0.151,0.929-0.227,1.722-0.227h5.313v2.197h-4.75
			c-0.824,0-1.356,0.076-1.596,0.227c-0.313,0.203-0.47,0.516-0.47,0.938c0,0.308,0.094,0.597,0.282,0.868
			c0.188,0.271,0.463,0.466,0.826,0.586c0.363,0.12,0.935,0.18,1.718,0.18h3.991v2.197H25.91c-0.809,0-1.33,0.039-1.565,0.117
			c-0.235,0.079-0.41,0.2-0.524,0.364s-0.172,0.387-0.172,0.668c0,0.339,0.091,0.644,0.274,0.915s0.446,0.465,0.791,0.583
			s0.916,0.176,1.714,0.176h4.038v2.197H22.154z"/>
		<path d="M27.82,116.395l0.368-2.189c0.804,0.282,1.416,0.726,1.835,1.333c0.42,0.607,0.63,1.367,0.63,2.279
			c0,1.444-0.472,2.513-1.417,3.206c-0.756,0.547-1.711,0.821-2.864,0.821c-1.377,0-2.456-0.36-3.236-1.079
			c-0.78-0.719-1.17-1.629-1.17-2.729c0-1.235,0.409-2.21,1.225-2.924s2.067-1.056,3.752-1.024v5.505
			c0.652-0.016,1.16-0.193,1.522-0.532c0.363-0.339,0.544-0.761,0.544-1.267c0-0.344-0.094-0.633-0.282-0.868
			C28.54,116.692,28.237,116.515,27.82,116.395z M25.597,116.27c-0.636,0.016-1.12,0.18-1.452,0.493
			c-0.331,0.313-0.497,0.693-0.497,1.142c0,0.479,0.175,0.876,0.524,1.188c0.35,0.313,0.824,0.467,1.424,0.461V116.27z"/>
		<path d="M30.465,107.825H18.992v-4.872c0-1.225,0.103-2.115,0.309-2.67s0.573-1,1.1-1.333s1.129-0.5,1.808-0.5
			c0.861,0,1.572,0.253,2.133,0.758c0.561,0.506,0.914,1.262,1.06,2.268c0.292-0.5,0.613-0.913,0.963-1.239
			c0.35-0.326,0.97-0.765,1.862-1.317l2.238-1.4v2.768l-2.497,1.673c-0.892,0.594-1.454,1.001-1.687,1.22
			c-0.232,0.219-0.391,0.451-0.477,0.696c-0.086,0.245-0.129,0.633-0.129,1.165v0.469h4.79V107.825z M23.844,105.51v-1.712
			c0-1.11-0.047-1.804-0.141-2.08c-0.094-0.276-0.255-0.493-0.485-0.649c-0.229-0.157-0.517-0.235-0.861-0.235
			c-0.386,0-0.698,0.103-0.935,0.309c-0.238,0.206-0.388,0.497-0.45,0.872c-0.026,0.188-0.039,0.751-0.039,1.689v1.807H23.844z"/>
		<path d="M24.689,94.641l-0.36,1.994c-0.804-0.224-1.398-0.61-1.785-1.158c-0.386-0.547-0.579-1.36-0.579-2.439
			c0-0.98,0.116-1.709,0.349-2.189c0.232-0.479,0.527-0.817,0.884-1.013c0.357-0.195,1.013-0.293,1.968-0.293l2.567,0.023
			c0.73,0,1.269-0.035,1.616-0.105c0.347-0.07,0.719-0.202,1.115-0.395v2.174c-0.146,0.057-0.363,0.128-0.649,0.211
			c-0.13,0.037-0.217,0.063-0.258,0.078c0.365,0.375,0.639,0.777,0.822,1.205c0.183,0.427,0.274,0.883,0.274,1.368
			c0,0.855-0.232,1.529-0.697,2.021s-1.051,0.739-1.761,0.739c-0.47,0-0.888-0.112-1.256-0.336c-0.368-0.224-0.65-0.538-0.845-0.942
			c-0.196-0.404-0.367-0.987-0.513-1.748c-0.193-1.027-0.373-1.739-0.54-2.135h-0.219c-0.422,0-0.724,0.104-0.904,0.313
			c-0.18,0.208-0.27,0.602-0.27,1.181c0,0.391,0.077,0.696,0.231,0.915S24.303,94.505,24.689,94.641z M26.474,91.701
			c0.094,0.281,0.206,0.727,0.336,1.337s0.258,1.009,0.384,1.196c0.203,0.287,0.461,0.43,0.774,0.43
			c0.308,0,0.574-0.115,0.798-0.344c0.225-0.229,0.336-0.521,0.336-0.875c0-0.396-0.13-0.774-0.391-1.134
			c-0.198-0.266-0.441-0.44-0.728-0.524c-0.188-0.058-0.545-0.086-1.072-0.086H26.474z"/>
		<path d="M22.154,83.569h1.753v1.501h3.35c0.678,0,1.073-0.014,1.186-0.043s0.205-0.094,0.278-0.196
			c0.073-0.102,0.109-0.225,0.109-0.371c0-0.204-0.07-0.498-0.211-0.884l1.706-0.188c0.219,0.511,0.329,1.089,0.329,1.736
			c0,0.396-0.067,0.753-0.2,1.071c-0.133,0.318-0.305,0.551-0.517,0.7s-0.497,0.251-0.857,0.309c-0.255,0.047-0.772,0.07-1.549,0.07
			h-3.624v1.009h-1.753v-1.009h-1.651l-1.283-2.205h2.935V83.569z"/>
		<path d="M21.027,82.044h-2.035v-2.197h2.035V82.044z M30.465,82.044h-8.311v-2.197h8.311V82.044z"/>
		<path d="M26.192,78.103c-0.73,0-1.437-0.18-2.121-0.54s-1.205-0.869-1.565-1.529c-0.36-0.659-0.54-1.396-0.54-2.209
			c0-1.256,0.409-2.286,1.225-3.088s1.848-1.205,3.095-1.205c1.258,0,2.3,0.406,3.126,1.216c0.827,0.811,1.241,1.831,1.241,3.061
			c0,0.761-0.172,1.487-0.517,2.178c-0.344,0.691-0.849,1.216-1.514,1.576C27.957,77.923,27.146,78.103,26.192,78.103z
			 M26.31,75.851c0.824,0,1.456-0.196,1.894-0.586c0.438-0.391,0.657-0.873,0.657-1.447c0-0.573-0.219-1.054-0.657-1.442
			c-0.438-0.389-1.075-0.583-1.91-0.583c-0.813,0-1.44,0.194-1.878,0.583c-0.438,0.388-0.657,0.869-0.657,1.442
			c0,0.574,0.219,1.056,0.657,1.447C24.854,75.655,25.485,75.851,26.31,75.851z"/>
	</g>
	<g>
		<path d="M92.244,145.299v-11.463h1.518v10.111h5.65v1.353H92.244z"/>
		<path d="M101.192,135.454v-1.619h1.409v1.619H101.192z M101.192,145.299v-8.304h1.409v8.304H101.192z"/>
		<path d="M104.537,145.299v-8.304h1.26v1.165c0.261-0.407,0.608-0.733,1.041-0.981c0.433-0.248,0.926-0.371,1.479-0.371
			c0.615,0,1.12,0.127,1.514,0.383c0.394,0.256,0.672,0.613,0.833,1.071c0.657-0.969,1.513-1.454,2.567-1.454
			c0.824,0,1.458,0.228,1.901,0.684c0.444,0.456,0.666,1.159,0.666,2.107v5.7h-1.401v-5.231c0-0.563-0.046-0.968-0.137-1.216
			c-0.091-0.248-0.257-0.447-0.497-0.598c-0.24-0.151-0.522-0.227-0.845-0.227c-0.584,0-1.07,0.194-1.456,0.583
			c-0.386,0.388-0.579,1.01-0.579,1.865v4.825h-1.409v-5.396c0-0.625-0.115-1.095-0.344-1.407c-0.23-0.313-0.605-0.469-1.127-0.469
			c-0.396,0-0.763,0.104-1.1,0.313c-0.336,0.209-0.581,0.514-0.732,0.915s-0.227,0.98-0.227,1.736v4.309H104.537z"/>
		<path d="M118.04,135.454v-1.619h1.409v1.619H118.04z M118.04,145.299v-8.304h1.409v8.304H118.04z"/>
		<path d="M124.459,144.04l0.204,1.243c-0.396,0.083-0.751,0.125-1.064,0.125c-0.511,0-0.908-0.081-1.189-0.242
			s-0.48-0.374-0.595-0.637s-0.172-0.817-0.172-1.662v-4.778h-1.033v-1.095h1.033v-2.057l1.4-0.844v2.901h1.417v1.095h-1.417v4.856
			c0,0.401,0.025,0.659,0.075,0.774c0.049,0.115,0.13,0.206,0.243,0.274c0.112,0.068,0.272,0.102,0.481,0.102
			C123.998,144.095,124.204,144.077,124.459,144.04z"/>
	</g>
	<g>
		<path d="M90.699,165.522c0,0.099-0.008,0.183-0.023,0.25c-0.016,0.068-0.037,0.123-0.063,0.165
			c-0.026,0.042-0.056,0.073-0.09,0.094c-0.034,0.021-0.066,0.031-0.098,0.031h-6.229c-0.037,0-0.07-0.01-0.102-0.031
			s-0.062-0.052-0.09-0.094c-0.029-0.042-0.051-0.097-0.067-0.165c-0.016-0.067-0.023-0.151-0.023-0.25
			c0-0.094,0.007-0.176,0.02-0.246c0.013-0.071,0.033-0.128,0.059-0.172c0.026-0.044,0.056-0.077,0.09-0.098
			c0.034-0.021,0.072-0.031,0.113-0.031h0.963v-3.55h-0.963c-0.037,0-0.07-0.009-0.102-0.027c-0.031-0.019-0.062-0.048-0.09-0.09
			c-0.029-0.042-0.051-0.095-0.067-0.16c-0.016-0.065-0.023-0.15-0.023-0.254c0-0.089,0.007-0.167,0.02-0.235
			c0.013-0.067,0.033-0.124,0.059-0.168c0.026-0.044,0.056-0.076,0.09-0.094c0.034-0.018,0.072-0.027,0.113-0.027h0.963v-0.938
			c0-0.641,0.073-1.191,0.219-1.65c0.146-0.458,0.354-0.834,0.623-1.126c0.269-0.292,0.593-0.504,0.974-0.637
			s0.806-0.199,1.275-0.199c0.219,0,0.435,0.02,0.646,0.059c0.211,0.039,0.407,0.092,0.587,0.16c0.18,0.068,0.341,0.146,0.485,0.234
			c0.144,0.089,0.25,0.167,0.321,0.235c0.071,0.068,0.119,0.123,0.145,0.164c0.026,0.042,0.047,0.089,0.063,0.141
			c0.016,0.052,0.026,0.11,0.031,0.172s0.008,0.141,0.008,0.234c0,0.089-0.005,0.167-0.016,0.235
			c-0.01,0.067-0.026,0.124-0.047,0.168s-0.046,0.078-0.074,0.102c-0.029,0.023-0.062,0.035-0.098,0.035
			c-0.073,0-0.16-0.044-0.262-0.133c-0.102-0.089-0.231-0.185-0.388-0.29c-0.156-0.104-0.346-0.201-0.567-0.289
			c-0.222-0.089-0.486-0.133-0.794-0.133c-0.313,0-0.583,0.053-0.81,0.16c-0.227,0.107-0.414,0.265-0.56,0.473
			c-0.146,0.208-0.256,0.466-0.329,0.774c-0.073,0.308-0.11,0.662-0.11,1.063v0.985h2.567c0.042,0,0.08,0.009,0.113,0.027
			c0.034,0.018,0.063,0.049,0.086,0.094s0.042,0.101,0.055,0.168c0.013,0.068,0.02,0.146,0.02,0.235
			c0,0.104-0.008,0.189-0.023,0.254c-0.016,0.065-0.037,0.119-0.063,0.16c-0.026,0.042-0.055,0.072-0.086,0.09
			c-0.031,0.018-0.065,0.027-0.102,0.027H86.48v3.55h3.944c0.037,0,0.072,0.011,0.105,0.031c0.034,0.021,0.064,0.054,0.09,0.098
			c0.026,0.044,0.045,0.102,0.059,0.172C90.692,165.346,90.699,165.428,90.699,165.522z"/>
		<path d="M98.706,165.53c0,0.099-0.008,0.183-0.023,0.25c-0.016,0.068-0.037,0.123-0.063,0.165c-0.026,0.042-0.056,0.072-0.09,0.09
			c-0.034,0.018-0.069,0.027-0.106,0.027h-5.29c-0.037,0-0.07-0.009-0.102-0.027c-0.031-0.018-0.061-0.048-0.09-0.09
			c-0.029-0.042-0.051-0.097-0.066-0.165c-0.016-0.067-0.023-0.151-0.023-0.25c0-0.094,0.008-0.175,0.023-0.242
			c0.016-0.068,0.035-0.124,0.059-0.168c0.023-0.044,0.052-0.078,0.086-0.102c0.034-0.023,0.072-0.035,0.114-0.035h2.113v-7.694
			l-1.957,1.165c-0.099,0.052-0.179,0.083-0.238,0.094c-0.06,0.011-0.108-0.001-0.145-0.035c-0.037-0.034-0.062-0.09-0.074-0.168
			c-0.013-0.078-0.02-0.177-0.02-0.297c0-0.089,0.004-0.165,0.012-0.227s0.02-0.115,0.035-0.156s0.038-0.078,0.066-0.109
			s0.066-0.063,0.114-0.094l2.332-1.494c0.021-0.016,0.047-0.029,0.078-0.039s0.07-0.021,0.117-0.031
			c0.047-0.011,0.102-0.017,0.165-0.02c0.063-0.003,0.141-0.004,0.235-0.004c0.125,0,0.229,0.005,0.313,0.016
			c0.083,0.01,0.148,0.025,0.195,0.043c0.047,0.018,0.079,0.042,0.094,0.07s0.023,0.059,0.023,0.09v8.891h1.831
			c0.042,0,0.081,0.012,0.118,0.035c0.036,0.023,0.066,0.058,0.09,0.102c0.023,0.044,0.042,0.101,0.055,0.168
			C98.7,165.355,98.706,165.436,98.706,165.53z"/>
		<path d="M107.206,160.979c0,0.777-0.061,1.486-0.184,2.127c-0.123,0.641-0.326,1.192-0.61,1.654
			c-0.285,0.461-0.656,0.818-1.115,1.071c-0.459,0.252-1.025,0.379-1.698,0.379c-0.637,0-1.173-0.113-1.608-0.34
			c-0.436-0.227-0.787-0.561-1.052-1.001c-0.266-0.44-0.456-0.982-0.567-1.626c-0.112-0.644-0.168-1.383-0.168-2.217
			c0-0.771,0.063-1.479,0.188-2.123c0.125-0.644,0.329-1.196,0.61-1.658s0.652-0.818,1.111-1.071
			c0.459-0.252,1.022-0.379,1.69-0.379c0.642,0,1.181,0.113,1.616,0.34c0.436,0.227,0.787,0.561,1.053,1.001
			s0.455,0.982,0.567,1.626C107.15,159.406,107.206,160.145,107.206,160.979z M105.829,161.073c0-0.505-0.019-0.959-0.055-1.36
			s-0.09-0.756-0.16-1.063s-0.162-0.572-0.274-0.794c-0.112-0.221-0.247-0.404-0.403-0.547c-0.156-0.143-0.335-0.248-0.536-0.313
			c-0.201-0.065-0.427-0.098-0.677-0.098c-0.443,0-0.803,0.104-1.08,0.313c-0.276,0.208-0.494,0.495-0.653,0.86
			c-0.159,0.365-0.268,0.792-0.325,1.282c-0.058,0.49-0.086,1.017-0.086,1.58c0,0.756,0.039,1.398,0.117,1.927
			c0.078,0.529,0.202,0.96,0.372,1.294c0.17,0.333,0.386,0.576,0.65,0.727c0.263,0.151,0.583,0.227,0.958,0.227
			c0.292,0,0.549-0.047,0.771-0.141c0.222-0.094,0.412-0.228,0.571-0.403c0.159-0.174,0.291-0.384,0.395-0.629
			s0.188-0.516,0.25-0.813c0.063-0.297,0.105-0.619,0.129-0.966S105.829,161.448,105.829,161.073z"/>
		<path d="M110.729,164.943c0,0.162-0.008,0.31-0.023,0.446s-0.042,0.263-0.078,0.383c-0.037,0.12-0.085,0.239-0.145,0.356
			s-0.134,0.241-0.223,0.372l-1.072,1.611c-0.026,0.036-0.056,0.067-0.09,0.094c-0.034,0.026-0.076,0.049-0.125,0.07
			c-0.05,0.021-0.107,0.035-0.172,0.043c-0.065,0.008-0.147,0.012-0.246,0.012c-0.089,0-0.164-0.004-0.223-0.012
			c-0.06-0.008-0.103-0.021-0.129-0.039c-0.026-0.019-0.041-0.043-0.043-0.074s0.006-0.068,0.027-0.109l1.041-2.15v-1.001
			c0-0.141,0.014-0.253,0.043-0.336c0.029-0.083,0.074-0.146,0.137-0.188c0.063-0.042,0.141-0.07,0.235-0.086
			c0.094-0.016,0.209-0.023,0.345-0.023c0.13,0,0.242,0.008,0.336,0.023c0.094,0.016,0.171,0.044,0.23,0.086
			c0.06,0.042,0.104,0.104,0.133,0.188C110.715,164.69,110.729,164.803,110.729,164.943z"/>
		<path d="M119.296,160.979c0,0.777-0.061,1.486-0.184,2.127c-0.123,0.641-0.326,1.192-0.61,1.654
			c-0.285,0.461-0.656,0.818-1.115,1.071c-0.459,0.252-1.025,0.379-1.698,0.379c-0.637,0-1.173-0.113-1.608-0.34
			c-0.436-0.227-0.787-0.561-1.052-1.001c-0.266-0.44-0.456-0.982-0.567-1.626c-0.112-0.644-0.168-1.383-0.168-2.217
			c0-0.771,0.063-1.479,0.188-2.123c0.125-0.644,0.329-1.196,0.61-1.658s0.652-0.818,1.111-1.071
			c0.459-0.252,1.022-0.379,1.69-0.379c0.642,0,1.181,0.113,1.616,0.34c0.436,0.227,0.787,0.561,1.053,1.001
			s0.455,0.982,0.567,1.626C119.24,159.406,119.296,160.145,119.296,160.979z M117.919,161.073c0-0.505-0.019-0.959-0.055-1.36
			s-0.09-0.756-0.16-1.063s-0.162-0.572-0.274-0.794c-0.112-0.221-0.247-0.404-0.403-0.547c-0.156-0.143-0.335-0.248-0.536-0.313
			c-0.201-0.065-0.427-0.098-0.677-0.098c-0.443,0-0.803,0.104-1.08,0.313c-0.276,0.208-0.494,0.495-0.653,0.86
			c-0.159,0.365-0.268,0.792-0.325,1.282c-0.058,0.49-0.086,1.017-0.086,1.58c0,0.756,0.039,1.398,0.117,1.927
			c0.078,0.529,0.202,0.96,0.372,1.294c0.17,0.333,0.386,0.576,0.65,0.727c0.263,0.151,0.583,0.227,0.958,0.227
			c0.292,0,0.549-0.047,0.771-0.141c0.222-0.094,0.412-0.228,0.571-0.403c0.159-0.174,0.291-0.384,0.395-0.629
			s0.188-0.516,0.25-0.813c0.063-0.297,0.105-0.619,0.129-0.966S117.919,161.448,117.919,161.073z"/>
		<path d="M127.483,160.979c0,0.777-0.061,1.486-0.184,2.127c-0.123,0.641-0.326,1.192-0.61,1.654
			c-0.285,0.461-0.656,0.818-1.115,1.071c-0.459,0.252-1.025,0.379-1.698,0.379c-0.637,0-1.173-0.113-1.608-0.34
			c-0.436-0.227-0.787-0.561-1.052-1.001c-0.266-0.44-0.456-0.982-0.567-1.626c-0.112-0.644-0.168-1.383-0.168-2.217
			c0-0.771,0.063-1.479,0.188-2.123c0.125-0.644,0.329-1.196,0.61-1.658s0.652-0.818,1.111-1.071
			c0.459-0.252,1.022-0.379,1.69-0.379c0.642,0,1.181,0.113,1.616,0.34c0.436,0.227,0.787,0.561,1.053,1.001
			s0.455,0.982,0.567,1.626C127.427,159.406,127.483,160.145,127.483,160.979z M126.106,161.073c0-0.505-0.019-0.959-0.055-1.36
			s-0.09-0.756-0.16-1.063s-0.162-0.572-0.274-0.794c-0.112-0.221-0.247-0.404-0.403-0.547c-0.156-0.143-0.335-0.248-0.536-0.313
			c-0.201-0.065-0.427-0.098-0.677-0.098c-0.443,0-0.803,0.104-1.08,0.313c-0.276,0.208-0.494,0.495-0.653,0.86
			c-0.159,0.365-0.268,0.792-0.325,1.282c-0.058,0.49-0.086,1.017-0.086,1.58c0,0.756,0.039,1.398,0.117,1.927
			c0.078,0.529,0.202,0.96,0.372,1.294c0.17,0.333,0.386,0.576,0.65,0.727c0.263,0.151,0.583,0.227,0.958,0.227
			c0.292,0,0.549-0.047,0.771-0.141c0.222-0.094,0.412-0.228,0.571-0.403c0.159-0.174,0.291-0.384,0.395-0.629
			s0.188-0.516,0.25-0.813c0.063-0.297,0.105-0.619,0.129-0.966S126.106,161.448,126.106,161.073z"/>
		<path d="M135.67,160.979c0,0.777-0.061,1.486-0.184,2.127c-0.123,0.641-0.326,1.192-0.61,1.654
			c-0.285,0.461-0.656,0.818-1.115,1.071c-0.459,0.252-1.025,0.379-1.698,0.379c-0.637,0-1.173-0.113-1.608-0.34
			c-0.436-0.227-0.787-0.561-1.052-1.001c-0.266-0.44-0.456-0.982-0.567-1.626c-0.112-0.644-0.168-1.383-0.168-2.217
			c0-0.771,0.063-1.479,0.188-2.123c0.125-0.644,0.329-1.196,0.61-1.658s0.652-0.818,1.111-1.071
			c0.459-0.252,1.022-0.379,1.69-0.379c0.642,0,1.181,0.113,1.616,0.34c0.436,0.227,0.787,0.561,1.053,1.001
			s0.455,0.982,0.567,1.626C135.614,159.406,135.67,160.145,135.67,160.979z M134.293,161.073c0-0.505-0.019-0.959-0.055-1.36
			s-0.09-0.756-0.16-1.063s-0.162-0.572-0.274-0.794c-0.112-0.221-0.247-0.404-0.403-0.547c-0.156-0.143-0.335-0.248-0.536-0.313
			c-0.201-0.065-0.427-0.098-0.677-0.098c-0.443,0-0.803,0.104-1.08,0.313c-0.276,0.208-0.494,0.495-0.653,0.86
			c-0.159,0.365-0.268,0.792-0.325,1.282c-0.058,0.49-0.086,1.017-0.086,1.58c0,0.756,0.039,1.398,0.117,1.927
			c0.078,0.529,0.202,0.96,0.372,1.294c0.17,0.333,0.386,0.576,0.65,0.727c0.263,0.151,0.583,0.227,0.958,0.227
			c0.292,0,0.549-0.047,0.771-0.141c0.222-0.094,0.412-0.228,0.571-0.403c0.159-0.174,0.291-0.384,0.395-0.629
			s0.188-0.516,0.25-0.813c0.063-0.297,0.105-0.619,0.129-0.966S134.293,161.448,134.293,161.073z"/>
	</g>
	<g>
		<path d="M271.078,154.66v-11.463h5.087c1.022,0,1.8,0.103,2.332,0.309s0.958,0.569,1.276,1.091
			c0.318,0.521,0.477,1.097,0.477,1.728c0,0.813-0.263,1.499-0.79,2.057c-0.527,0.558-1.341,0.912-2.442,1.063
			c0.402,0.193,0.707,0.383,0.916,0.571c0.443,0.406,0.863,0.915,1.26,1.524l1.996,3.12h-1.91l-1.518-2.385
			c-0.444-0.688-0.809-1.215-1.096-1.58c-0.287-0.365-0.544-0.62-0.771-0.767c-0.227-0.146-0.458-0.247-0.692-0.305
			c-0.172-0.037-0.454-0.055-0.845-0.055h-1.761v5.09H271.078z M272.596,148.256h3.263c0.694,0,1.236-0.071,1.628-0.215
			c0.391-0.143,0.688-0.373,0.892-0.688c0.203-0.315,0.305-0.658,0.305-1.028c0-0.542-0.197-0.988-0.591-1.337
			c-0.394-0.35-1.016-0.524-1.867-0.524h-3.631V148.256z"/>
		<path d="M288.09,151.986l1.456,0.18c-0.229,0.85-0.655,1.509-1.275,1.978c-0.621,0.469-1.414,0.704-2.379,0.704
			c-1.216,0-2.18-0.374-2.892-1.122c-0.712-0.748-1.068-1.797-1.068-3.147c0-1.397,0.36-2.481,1.08-3.253
			c0.72-0.771,1.654-1.157,2.802-1.157c1.111,0,2.019,0.378,2.723,1.134s1.057,1.819,1.057,3.19c0,0.083-0.003,0.208-0.008,0.375
			h-6.198c0.052,0.913,0.311,1.611,0.775,2.096s1.043,0.727,1.737,0.727c0.517,0,0.957-0.135,1.322-0.406
			S287.876,152.58,288.09,151.986z M283.465,149.71h4.641c-0.063-0.698-0.24-1.222-0.532-1.572
			c-0.449-0.542-1.031-0.813-1.745-0.813c-0.647,0-1.191,0.216-1.632,0.649S283.512,148.986,283.465,149.71z"/>
		<path d="M289.33,157.882l0.266-1.196c0.282,0.073,0.503,0.109,0.666,0.109c0.287,0,0.5-0.095,0.642-0.286
			c0.141-0.19,0.211-0.666,0.211-1.427v-8.727h1.409v8.758c0,1.021-0.133,1.733-0.399,2.135c-0.339,0.521-0.902,0.782-1.69,0.782
			C290.052,158.03,289.685,157.98,289.33,157.882z M291.114,144.831v-1.634h1.409v1.634H291.114z"/>
		<path d="M300.404,151.986l1.456,0.18c-0.229,0.85-0.655,1.509-1.275,1.978c-0.621,0.469-1.414,0.704-2.379,0.704
			c-1.216,0-2.18-0.374-2.892-1.122c-0.712-0.748-1.068-1.797-1.068-3.147c0-1.397,0.36-2.481,1.08-3.253
			c0.72-0.771,1.654-1.157,2.802-1.157c1.111,0,2.019,0.378,2.723,1.134s1.057,1.819,1.057,3.19c0,0.083-0.003,0.208-0.008,0.375
			h-6.198c0.052,0.913,0.311,1.611,0.775,2.096s1.043,0.727,1.737,0.727c0.517,0,0.957-0.135,1.322-0.406
			S300.19,152.58,300.404,151.986z M295.779,149.71h4.641c-0.063-0.698-0.24-1.222-0.532-1.572
			c-0.449-0.542-1.031-0.813-1.745-0.813c-0.647,0-1.191,0.216-1.632,0.649S295.826,148.986,295.779,149.71z"/>
		<path d="M308.859,151.619l1.385,0.18c-0.151,0.954-0.539,1.701-1.162,2.24s-1.389,0.809-2.297,0.809
			c-1.137,0-2.052-0.371-2.743-1.114c-0.691-0.743-1.037-1.807-1.037-3.194c0-0.897,0.149-1.681,0.446-2.354
			c0.297-0.672,0.75-1.177,1.357-1.513c0.608-0.336,1.269-0.504,1.984-0.504c0.903,0,1.641,0.228,2.215,0.684
			s0.942,1.104,1.104,1.943l-1.37,0.211c-0.13-0.558-0.361-0.978-0.692-1.259c-0.332-0.282-0.732-0.422-1.201-0.422
			c-0.71,0-1.286,0.254-1.729,0.762c-0.444,0.508-0.666,1.313-0.666,2.413c0,1.115,0.214,1.926,0.642,2.432s0.986,0.758,1.675,0.758
			c0.553,0,1.015-0.169,1.385-0.508S308.76,152.322,308.859,151.619z"/>
		<path d="M314.637,153.401l0.204,1.243c-0.396,0.083-0.751,0.125-1.064,0.125c-0.511,0-0.908-0.081-1.189-0.242
			s-0.48-0.374-0.595-0.637s-0.172-0.817-0.172-1.662v-4.778h-1.033v-1.095h1.033v-2.057l1.4-0.844v2.901h1.417v1.095h-1.417v4.856
			c0,0.401,0.025,0.659,0.075,0.774c0.049,0.115,0.13,0.206,0.243,0.274c0.112,0.068,0.272,0.102,0.481,0.102
			C314.175,153.456,314.381,153.438,314.637,153.401z"/>
	</g>
</g>
<g id="レイヤー_2">
	<g>
	</g>
	<g>
	</g>
	<g>
	</g>
	<g>
	</g>
	<g>
	</g>
	<g>
	</g>
</g>
</svg>
