<?xml version="1.0" encoding="utf-8"?>
<!-- Generator: Adobe Illustrator 21.1.0, SVG Export Plug-In . SVG Version: 6.00 Build 0)  -->
<svg version="1.1" id="レイヤー_1" xmlns="http://www.w3.org/2000/svg" xmlns:xlink="http://www.w3.org/1999/xlink" x="0px"
	 y="0px" viewBox="0 0 625 230" style="enable-background:new 0 0 625 230;" xml:space="preserve">
<style type="text/css">
	.st0{fill:#B5B5B5;}
	.st1{fill:#FFFFFF;}
	.st2{fill:#595959;}
	.st3{fill:none;stroke:#31859C;stroke-width:3.96;stroke-linejoin:round;stroke-miterlimit:10;}
	.st4{fill-rule:evenodd;clip-rule:evenodd;fill:#31859C;}
	.st5{fill-rule:evenodd;clip-rule:evenodd;fill:#7F7F7F;}
	.st6{fill:none;stroke:#31859C;stroke-width:3.96;stroke-linejoin:round;stroke-miterlimit:10;stroke-dasharray:150876,50292;}
	.st7{fill:none;stroke:#31859C;stroke-width:3.96;stroke-linejoin:round;}
	.st8{fill:none;stroke:#31859C;stroke-width:3.96;stroke-linejoin:round;stroke-dasharray:10.1182,6.0709;}
	.st9{fill:none;stroke:#31859C;stroke-width:3.96;stroke-linejoin:round;stroke-dasharray:9.6145,5.7687;}
	.st10{fill:none;stroke:#31859C;stroke-width:3.96;stroke-linejoin:round;stroke-dasharray:10.0356,6.0214;}
</style>
<path class="st0" d="M319.114,119.083L319.114,119.083c0-13.046-10.569-23.601-23.615-23.601c-13.032,0-23.601,10.555-23.601,23.601
	c0,13.032,10.569,23.615,23.601,23.615C308.545,142.698,319.114,132.114,319.114,119.083L319.114,119.083z"/>
<path class="st1" d="M303.703,129.583L303.703,129.583c0.36-0.443,0.664-0.996,0.913-1.632c0.346,0.055,0.692,0.138,1.024,0.221
	C305.1,128.767,304.45,129.251,303.703,129.583L303.703,129.583z M297.173,128.172L297.173,128.172
	c0.332-0.083,0.678-0.166,1.024-0.221c0.235,0.636,0.553,1.19,0.899,1.632C298.363,129.251,297.699,128.767,297.173,128.172
	L297.173,128.172z M295.776,124.063L295.776,124.063c0.069-0.927,0.36-1.854,0.844-2.629c0.429,0.125,0.858,0.235,1.3,0.318
	c-0.194,0.705-0.304,1.383-0.346,2.31H295.776L295.776,124.063L295.776,124.063z M297.574,124.976L297.574,124.976
	c0.042,0.747,0.166,1.55,0.36,2.269c-0.443,0.083-0.872,0.221-1.287,0.332c-0.498-0.761-0.802-1.854-0.872-2.601H297.574
	L297.574,124.976L297.574,124.976z M299.096,119.276L299.096,119.276c-0.36,0.457-0.678,1.024-0.913,1.674
	c-0.36-0.069-0.706-0.138-1.038-0.235C297.685,120.106,298.349,119.608,299.096,119.276L299.096,119.276z M301.78,124.063
	L301.78,124.063v-2.02c0.733-0.014,1.549-0.069,2.296-0.18c0.18,0.664,0.318,1.453,0.346,2.2H301.78L301.78,124.063L301.78,124.063z
	 M301.78,126.857L301.78,126.857v-1.881h2.642c-0.028,0.553-0.166,1.466-0.36,2.144C303.329,127.01,302.513,126.871,301.78,126.857
	L301.78,126.857z M301.78,130.025L301.78,130.025v-2.366c0.733,0.014,1.342,0.069,2.006,0.166
	C303.315,129.002,302.693,129.818,301.78,130.025L301.78,130.025z M300.853,127.66L300.853,127.66v2.366
	c-0.733-0.208-1.549-1.024-2.02-2.2C299.497,127.729,300.299,127.674,300.853,127.66L300.853,127.66z M300.853,124.976
	L300.853,124.976v1.881c-0.553,0.014-1.466,0.152-2.2,0.263c-0.194-0.678-0.235-1.591-0.263-2.144H300.853L300.853,124.976
	L300.853,124.976z M300.853,122.043L300.853,122.043v2.02h-2.462c0.028-0.747,0.069-1.536,0.249-2.2
	C299.386,121.974,300.299,122.029,300.853,122.043L300.853,122.043z M300.853,118.834L300.853,118.834v2.407
	c-0.553-0.028-1.37-0.083-2.034-0.166C299.29,119.871,300.12,119.041,300.853,118.834L300.853,118.834z M303.8,121.075
	L303.8,121.075c-0.664,0.083-1.287,0.138-2.02,0.166v-2.407C302.693,119.041,303.329,119.871,303.8,121.075L303.8,121.075z
	 M305.667,120.715L305.667,120.715c-0.346,0.097-0.692,0.166-1.038,0.235c-0.249-0.65-0.553-1.217-0.927-1.674
	C304.464,119.608,305.128,120.106,305.667,120.715L305.667,120.715z M307.037,124.976L307.037,124.976
	c-0.069,0.747-0.374,1.799-0.872,2.573c-0.429-0.124-0.858-0.18-1.287-0.263c0.194-0.719,0.318-1.563,0.346-2.31H307.037
	L307.037,124.976L307.037,124.976z M305.224,124.063L305.224,124.063c-0.028-0.927-0.152-1.619-0.346-2.324
	c0.443-0.083,0.885-0.18,1.3-0.291c0.484,0.761,0.789,1.688,0.858,2.615H305.224L305.224,124.063L305.224,124.063z M301.406,117.976
	L301.406,117.976c-3.569,0-6.461,2.891-6.461,6.447c0,3.569,2.891,6.461,6.461,6.461c3.569,0,6.461-2.891,6.461-6.461
	C307.867,120.867,304.975,117.976,301.406,117.976L301.406,117.976z M294.766,115.942L294.766,115.942c0.457,0,0.83,0.374,0.83,0.83
	s-0.374,0.83-0.83,0.83c-0.457,0-0.83-0.374-0.83-0.83S294.309,115.942,294.766,115.942L294.766,115.942z M292.649,117.602
	L292.649,117.602c-0.47,0-0.83-0.374-0.83-0.83s0.36-0.83,0.83-0.83c0.457,0,0.83,0.374,0.83,0.83S293.106,117.602,292.649,117.602
	L292.649,117.602z M291.819,113.424L291.819,113.424c0-0.443,0.346-0.802,0.789-0.802h5.783c0.443,0,0.802,0.36,0.802,0.802v0.069
	c0,0.429-0.36,0.789-0.802,0.789h-5.783c-0.443,0-0.789-0.36-0.789-0.789V113.424L291.819,113.424L291.819,113.424z
	 M291.819,110.837L291.819,110.837c0-0.443,0.346-0.802,0.789-0.802h5.783c0.443,0,0.802,0.36,0.802,0.802v0.069
	c0,0.443-0.36,0.788-0.802,0.788h-5.783c-0.443,0-0.789-0.346-0.789-0.788V110.837L291.819,110.837L291.819,110.837z
	 M291.819,108.25L291.819,108.25c0-0.429,0.346-0.789,0.789-0.789h5.783c0.443,0,0.802,0.36,0.802,0.789v0.069
	c0,0.443-0.36,0.802-0.802,0.802h-5.783c-0.443,0-0.789-0.36-0.789-0.802V108.25L291.819,108.25L291.819,108.25z M294.033,124.423
	L294.033,124.423c0-4.067,3.293-7.374,7.374-7.374v-9.587c0-1.231-0.996-2.214-2.213-2.214h-7.374c-1.231,0-2.213,0.982-2.213,2.214
	v23.242c0,1.217,0.982,2.213,2.213,2.213h7.374c0.816,0,1.536-0.456,1.923-1.121C297.173,131.644,294.033,128.407,294.033,124.423
	L294.033,124.423z"/>
<g>
	<path class="st2" d="M262.815,165.026l2.624-0.164c0.057,0.426,0.173,0.751,0.347,0.974c0.284,0.361,0.69,0.542,1.218,0.542
		c0.394,0,0.697-0.092,0.91-0.276c0.213-0.185,0.32-0.399,0.32-0.643c0-0.231-0.102-0.438-0.305-0.621
		c-0.203-0.183-0.674-0.355-1.412-0.518c-1.21-0.271-2.072-0.633-2.588-1.084c-0.52-0.45-0.779-1.024-0.779-1.723
		c0-0.459,0.133-0.892,0.399-1.3c0.266-0.408,0.666-0.729,1.199-0.962s1.266-0.351,2.195-0.351c1.141,0,2.01,0.213,2.609,0.637
		s0.955,1.099,1.069,2.024l-2.6,0.152c-0.069-0.402-0.214-0.694-0.435-0.877s-0.527-0.274-0.917-0.274
		c-0.321,0-0.562,0.068-0.725,0.204c-0.162,0.136-0.243,0.302-0.243,0.496c0,0.143,0.067,0.271,0.201,0.384
		c0.13,0.118,0.438,0.228,0.925,0.329c1.206,0.26,2.069,0.522,2.591,0.788s0.901,0.596,1.139,0.989
		c0.237,0.394,0.356,0.834,0.356,1.321c0,0.572-0.158,1.101-0.475,1.583c-0.317,0.483-0.759,0.85-1.328,1.099
		c-0.568,0.25-1.285,0.375-2.149,0.375c-1.518,0-2.569-0.292-3.154-0.877C263.223,166.671,262.892,165.928,262.815,165.026z"/>
	<path class="st2" d="M278.243,164.326l2.417,0.73c-0.162,0.679-0.418,1.244-0.767,1.699c-0.349,0.454-0.782,0.798-1.3,1.028
		c-0.518,0.231-1.176,0.348-1.976,0.348c-0.97,0-1.763-0.142-2.377-0.423c-0.615-0.282-1.146-0.778-1.592-1.487
		c-0.446-0.71-0.669-1.619-0.669-2.727c0-1.477,0.393-2.611,1.178-3.404c0.786-0.793,1.896-1.189,3.333-1.189
		c1.125,0,2.008,0.228,2.651,0.683c0.644,0.454,1.122,1.152,1.434,2.094l-2.436,0.542c-0.085-0.271-0.174-0.471-0.268-0.597
		c-0.154-0.211-0.343-0.373-0.566-0.487c-0.223-0.113-0.473-0.17-0.749-0.17c-0.625,0-1.104,0.251-1.437,0.754
		c-0.252,0.373-0.378,0.959-0.378,1.758c0,0.989,0.15,1.667,0.451,2.034c0.3,0.366,0.723,0.55,1.267,0.55
		c0.527,0,0.926-0.148,1.196-0.444S278.122,164.891,278.243,164.326z"/>
	<path class="st2" d="M281.653,163.522c0-1.457,0.406-2.591,1.217-3.403c0.812-0.812,1.942-1.218,3.392-1.218
		c1.485,0,2.63,0.399,3.434,1.196c0.804,0.798,1.206,1.915,1.206,3.352c0,1.044-0.175,1.899-0.526,2.566
		c-0.352,0.668-0.859,1.188-1.522,1.559c-0.664,0.372-1.491,0.558-2.481,0.558c-1.007,0-1.84-0.16-2.499-0.481
		c-0.66-0.32-1.194-0.828-1.604-1.521C281.857,165.435,281.653,164.566,281.653,163.522z M284.411,163.535
		c0,0.9,0.167,1.548,0.502,1.942c0.335,0.394,0.791,0.59,1.367,0.59c0.593,0,1.051-0.192,1.376-0.578s0.487-1.077,0.487-2.076
		c0-0.84-0.17-1.454-0.508-1.842c-0.339-0.388-0.799-0.581-1.379-0.581c-0.556,0-1.002,0.196-1.339,0.59
		C284.579,161.975,284.411,162.626,284.411,163.535z"/>
	<path class="st2" d="M292.423,167.979v-8.926h4.597c0.853,0,1.504,0.073,1.955,0.22c0.451,0.146,0.813,0.417,1.09,0.813
		c0.276,0.396,0.414,0.878,0.414,1.446c0,0.495-0.105,0.922-0.317,1.281s-0.501,0.65-0.871,0.874
		c-0.235,0.142-0.559,0.26-0.969,0.353c0.329,0.11,0.568,0.22,0.718,0.329c0.101,0.073,0.248,0.229,0.441,0.47
		c0.193,0.239,0.321,0.425,0.386,0.555l1.336,2.586h-3.117l-1.474-2.728c-0.187-0.354-0.353-0.582-0.5-0.688
		c-0.199-0.138-0.424-0.207-0.676-0.207h-0.243v3.623H292.423z M295.193,162.67h1.163c0.126,0,0.37-0.04,0.731-0.121
		c0.183-0.037,0.332-0.13,0.447-0.28s0.173-0.322,0.173-0.518c0-0.288-0.091-0.509-0.274-0.664c-0.183-0.153-0.525-0.23-1.029-0.23
		h-1.211V162.67z"/>
	<path class="st2" d="M302.195,159.054h2.764v8.926h-2.764V159.054z"/>
	<path class="st2" d="M306.956,159.054h2.575l3.361,4.938v-4.938h2.6v8.926h-2.6l-3.342-4.9v4.9h-2.594V159.054z"/>
	<path class="st2" d="M321.812,164.746v-1.856h4.262v3.806c-0.815,0.556-1.537,0.935-2.164,1.135
		c-0.627,0.201-1.371,0.302-2.231,0.302c-1.059,0-1.923-0.181-2.59-0.542s-1.185-0.899-1.552-1.613
		c-0.368-0.715-0.551-1.534-0.551-2.46c0-0.974,0.201-1.821,0.603-2.542c0.401-0.721,0.99-1.268,1.766-1.641
		c0.604-0.288,1.418-0.433,2.441-0.433c0.986,0,1.724,0.09,2.213,0.269s0.895,0.455,1.218,0.831
		c0.322,0.375,0.564,0.851,0.728,1.428l-2.661,0.475c-0.109-0.337-0.295-0.595-0.557-0.773s-0.596-0.268-1.002-0.268
		c-0.604,0-1.086,0.21-1.445,0.63c-0.359,0.42-0.539,1.085-0.539,1.994c0,0.966,0.182,1.656,0.545,2.07s0.869,0.621,1.519,0.621
		c0.309,0,0.604-0.045,0.883-0.135c0.28-0.089,0.601-0.241,0.962-0.456v-0.841H321.812z"/>
	<path class="st2" d="M268.486,174.017h7.391v1.906h-4.627v1.418h4.292v1.82h-4.292v1.76h4.761v2.021h-7.525V174.017z"/>
	<path class="st2" d="M277.516,174.017h2.575l3.361,4.938v-4.938h2.6v8.926h-2.6l-3.342-4.9v4.9h-2.594V174.017z"/>
	<path class="st2" d="M292.371,179.709v-1.856h4.262v3.806c-0.815,0.556-1.537,0.935-2.164,1.135
		c-0.627,0.201-1.371,0.302-2.231,0.302c-1.06,0-1.923-0.181-2.591-0.542s-1.185-0.899-1.552-1.613
		c-0.368-0.715-0.551-1.534-0.551-2.46c0-0.974,0.201-1.821,0.603-2.542c0.401-0.721,0.99-1.268,1.766-1.641
		c0.604-0.288,1.418-0.433,2.441-0.433c0.986,0,1.724,0.09,2.213,0.269s0.895,0.455,1.218,0.831
		c0.323,0.375,0.565,0.851,0.728,1.428l-2.661,0.475c-0.109-0.337-0.295-0.595-0.557-0.773s-0.596-0.268-1.001-0.268
		c-0.605,0-1.087,0.21-1.446,0.63c-0.359,0.42-0.539,1.085-0.539,1.994c0,0.966,0.182,1.656,0.545,2.07s0.87,0.621,1.519,0.621
		c0.309,0,0.603-0.045,0.883-0.135c0.28-0.089,0.601-0.241,0.962-0.456v-0.841H292.371z"/>
	<path class="st2" d="M298.38,174.017h2.764v8.926h-2.764V174.017z"/>
	<path class="st2" d="M303.142,174.017h2.575l3.361,4.938v-4.938h2.6v8.926h-2.6l-3.342-4.9v4.9h-2.594V174.017z"/>
	<path class="st2" d="M313.504,174.017h7.391v1.906h-4.627v1.418h4.292v1.82h-4.292v1.76h4.761v2.021h-7.525V174.017z"/>
</g>
<g>
	<path class="st2" d="M19.597,159.054h4.098c0.808,0,1.46,0.109,1.958,0.329c0.497,0.219,0.908,0.533,1.233,0.943
		s0.56,0.887,0.706,1.431s0.219,1.12,0.219,1.729c0,0.954-0.109,1.693-0.326,2.219c-0.217,0.526-0.519,0.967-0.904,1.321
		c-0.386,0.355-0.8,0.592-1.242,0.71c-0.605,0.162-1.153,0.243-1.644,0.243h-4.098V159.054z M22.355,161.075v4.877h0.676
		c0.576,0,0.986-0.064,1.23-0.191c0.243-0.128,0.434-0.352,0.572-0.67c0.138-0.319,0.207-0.835,0.207-1.55
		c0-0.945-0.154-1.593-0.463-1.942c-0.309-0.349-0.82-0.523-1.534-0.523H22.355z"/>
	<path class="st2" d="M29.253,159.054h7.391v1.906h-4.627v1.418h4.292v1.82h-4.292v1.76h4.761v2.021h-7.525V159.054z"/>
	<path class="st2" d="M44.207,164.326l2.417,0.73c-0.162,0.679-0.418,1.244-0.767,1.699c-0.349,0.454-0.782,0.798-1.3,1.028
		c-0.518,0.231-1.176,0.348-1.976,0.348c-0.97,0-1.763-0.142-2.377-0.423c-0.615-0.282-1.146-0.778-1.592-1.487
		c-0.446-0.71-0.669-1.619-0.669-2.727c0-1.477,0.393-2.611,1.178-3.404c0.786-0.793,1.896-1.189,3.333-1.189
		c1.125,0,2.008,0.228,2.651,0.683c0.644,0.454,1.122,1.152,1.434,2.094l-2.436,0.542c-0.085-0.271-0.174-0.471-0.268-0.597
		c-0.154-0.211-0.343-0.373-0.566-0.487c-0.223-0.113-0.473-0.17-0.749-0.17c-0.625,0-1.104,0.251-1.437,0.754
		c-0.252,0.373-0.378,0.959-0.378,1.758c0,0.989,0.15,1.667,0.451,2.034c0.3,0.366,0.723,0.55,1.267,0.55
		c0.527,0,0.926-0.148,1.196-0.444S44.085,164.891,44.207,164.326z"/>
	<path class="st2" d="M48.073,159.054h2.764v8.926h-2.764V159.054z"/>
	<path class="st2" d="M52.334,165.026l2.624-0.164c0.057,0.426,0.173,0.751,0.347,0.974c0.284,0.361,0.69,0.542,1.218,0.542
		c0.394,0,0.697-0.092,0.91-0.276c0.213-0.185,0.32-0.399,0.32-0.643c0-0.231-0.102-0.438-0.305-0.621
		c-0.203-0.183-0.674-0.355-1.412-0.518c-1.21-0.271-2.072-0.633-2.588-1.084c-0.52-0.45-0.779-1.024-0.779-1.723
		c0-0.459,0.133-0.892,0.399-1.3c0.266-0.408,0.666-0.729,1.199-0.962s1.266-0.351,2.195-0.351c1.141,0,2.01,0.213,2.609,0.637
		s0.955,1.099,1.069,2.024l-2.6,0.152c-0.069-0.402-0.214-0.694-0.435-0.877s-0.527-0.274-0.917-0.274
		c-0.321,0-0.562,0.068-0.725,0.204c-0.162,0.136-0.243,0.302-0.243,0.496c0,0.143,0.067,0.271,0.201,0.384
		c0.13,0.118,0.438,0.228,0.925,0.329c1.206,0.26,2.069,0.522,2.591,0.788s0.901,0.596,1.139,0.989
		c0.237,0.394,0.356,0.834,0.356,1.321c0,0.572-0.158,1.101-0.475,1.583c-0.317,0.483-0.759,0.85-1.328,1.099
		c-0.568,0.25-1.285,0.375-2.149,0.375c-1.518,0-2.569-0.292-3.154-0.877C52.743,166.671,52.412,165.928,52.334,165.026z"/>
	<path class="st2" d="M61.93,159.054h2.764v8.926H61.93V159.054z"/>
	<path class="st2" d="M66.326,163.522c0-1.457,0.406-2.591,1.217-3.403c0.812-0.812,1.942-1.218,3.392-1.218
		c1.485,0,2.63,0.399,3.434,1.196c0.804,0.798,1.206,1.915,1.206,3.352c0,1.044-0.175,1.899-0.526,2.566
		c-0.352,0.668-0.859,1.188-1.522,1.559c-0.664,0.372-1.491,0.558-2.481,0.558c-1.007,0-1.84-0.16-2.499-0.481
		c-0.66-0.32-1.194-0.828-1.604-1.521C66.531,165.435,66.326,164.566,66.326,163.522z M69.084,163.535
		c0,0.9,0.167,1.548,0.502,1.942c0.335,0.394,0.791,0.59,1.367,0.59c0.593,0,1.051-0.192,1.376-0.578s0.487-1.077,0.487-2.076
		c0-0.84-0.17-1.454-0.508-1.842c-0.339-0.388-0.799-0.581-1.379-0.581c-0.556,0-1.002,0.196-1.339,0.59
		C69.252,161.975,69.084,162.626,69.084,163.535z"/>
	<path class="st2" d="M77.078,159.054h2.575l3.361,4.938v-4.938h2.6v8.926h-2.6l-3.342-4.9v4.9h-2.594V159.054z"/>
	<path class="st2" d="M26.486,174.017h7.391v1.906H29.25v1.418h4.292v1.82H29.25v1.76h4.761v2.021h-7.525V174.017z"/>
	<path class="st2" d="M35.516,174.017h2.575l3.361,4.938v-4.938h2.6v8.926h-2.6l-3.342-4.9v4.9h-2.594V174.017z"/>
	<path class="st2" d="M50.371,179.709v-1.856h4.262v3.806c-0.815,0.556-1.537,0.935-2.164,1.135
		c-0.627,0.201-1.371,0.302-2.231,0.302c-1.06,0-1.923-0.181-2.591-0.542s-1.185-0.899-1.552-1.613
		c-0.368-0.715-0.551-1.534-0.551-2.46c0-0.974,0.201-1.821,0.603-2.542c0.401-0.721,0.99-1.268,1.766-1.641
		c0.604-0.288,1.418-0.433,2.441-0.433c0.986,0,1.724,0.09,2.213,0.269s0.895,0.455,1.218,0.831
		c0.323,0.375,0.565,0.851,0.728,1.428l-2.661,0.475c-0.109-0.337-0.295-0.595-0.557-0.773s-0.596-0.268-1.001-0.268
		c-0.605,0-1.087,0.21-1.446,0.63c-0.359,0.42-0.539,1.085-0.539,1.994c0,0.966,0.182,1.656,0.545,2.07s0.87,0.621,1.519,0.621
		c0.309,0,0.603-0.045,0.883-0.135c0.28-0.089,0.601-0.241,0.962-0.456v-0.841H50.371z"/>
	<path class="st2" d="M56.38,174.017h2.764v8.926H56.38V174.017z"/>
	<path class="st2" d="M61.142,174.017h2.575l3.361,4.938v-4.938h2.6v8.926h-2.6l-3.342-4.9v4.9h-2.594V174.017z"/>
	<path class="st2" d="M71.504,174.017h7.391v1.906h-4.627v1.418h4.292v1.82h-4.292v1.76h4.761v2.021h-7.525V174.017z"/>
</g>
<path class="st0" d="M76.216,119.083L76.216,119.083c0-13.046-10.569-23.601-23.615-23.601C39.569,95.481,29,106.037,29,119.083
	c0,13.032,10.569,23.615,23.601,23.615C65.647,142.698,76.216,132.114,76.216,119.083L76.216,119.083z"/>
<path class="st1" d="M60.805,129.583L60.805,129.583c0.36-0.443,0.664-0.996,0.913-1.632c0.346,0.055,0.692,0.138,1.024,0.221
	C62.202,128.767,61.552,129.251,60.805,129.583L60.805,129.583z M54.275,128.172L54.275,128.172
	c0.332-0.083,0.678-0.166,1.024-0.221c0.235,0.636,0.553,1.19,0.899,1.632C55.465,129.251,54.801,128.767,54.275,128.172
	L54.275,128.172z M52.878,124.063L52.878,124.063c0.069-0.927,0.36-1.854,0.844-2.629c0.429,0.125,0.858,0.235,1.3,0.318
	c-0.194,0.705-0.304,1.383-0.346,2.31H52.878L52.878,124.063L52.878,124.063z M54.676,124.976L54.676,124.976
	c0.042,0.747,0.166,1.55,0.36,2.269c-0.443,0.083-0.872,0.221-1.287,0.332c-0.498-0.761-0.802-1.854-0.872-2.601H54.676
	L54.676,124.976L54.676,124.976z M56.198,119.276L56.198,119.276c-0.36,0.457-0.678,1.024-0.913,1.674
	c-0.36-0.069-0.706-0.138-1.038-0.235C54.787,120.106,55.451,119.608,56.198,119.276L56.198,119.276z M58.882,124.063
	L58.882,124.063v-2.02c0.733-0.014,1.549-0.069,2.296-0.18c0.18,0.664,0.318,1.453,0.346,2.2H58.882L58.882,124.063L58.882,124.063z
	 M58.882,126.857L58.882,126.857v-1.881h2.642c-0.028,0.553-0.166,1.466-0.36,2.144C60.431,127.01,59.615,126.871,58.882,126.857
	L58.882,126.857z M58.882,130.025L58.882,130.025v-2.366c0.733,0.014,1.342,0.069,2.006,0.166
	C60.417,129.002,59.795,129.818,58.882,130.025L58.882,130.025z M57.955,127.66L57.955,127.66v2.366
	c-0.733-0.208-1.549-1.024-2.02-2.2C56.599,127.729,57.402,127.674,57.955,127.66L57.955,127.66z M57.955,124.976L57.955,124.976
	v1.881c-0.553,0.014-1.466,0.152-2.2,0.263c-0.194-0.678-0.235-1.591-0.263-2.144H57.955L57.955,124.976L57.955,124.976z
	 M57.955,122.043L57.955,122.043v2.02h-2.462c0.028-0.747,0.069-1.536,0.249-2.2C56.489,121.974,57.402,122.029,57.955,122.043
	L57.955,122.043z M57.955,118.834L57.955,118.834v2.407c-0.553-0.028-1.37-0.083-2.034-0.166
	C56.392,119.871,57.222,119.041,57.955,118.834L57.955,118.834z M60.902,121.075L60.902,121.075
	c-0.664,0.083-1.287,0.138-2.02,0.166v-2.407C59.795,119.041,60.431,119.871,60.902,121.075L60.902,121.075z M62.769,120.715
	L62.769,120.715c-0.346,0.097-0.692,0.166-1.038,0.235c-0.249-0.65-0.553-1.217-0.927-1.674
	C61.566,119.608,62.23,120.106,62.769,120.715L62.769,120.715z M64.139,124.976L64.139,124.976
	c-0.069,0.747-0.374,1.799-0.872,2.573c-0.429-0.124-0.858-0.18-1.287-0.263c0.194-0.719,0.318-1.563,0.346-2.31H64.139
	L64.139,124.976L64.139,124.976z M62.327,124.063L62.327,124.063c-0.028-0.927-0.152-1.619-0.346-2.324
	c0.443-0.083,0.885-0.18,1.3-0.291c0.484,0.761,0.789,1.688,0.858,2.615H62.327L62.327,124.063L62.327,124.063z M58.508,117.976
	L58.508,117.976c-3.569,0-6.461,2.891-6.461,6.447c0,3.569,2.891,6.461,6.461,6.461s6.461-2.891,6.461-6.461
	C64.969,120.867,62.078,117.976,58.508,117.976L58.508,117.976z M51.868,115.942L51.868,115.942c0.457,0,0.83,0.374,0.83,0.83
	s-0.374,0.83-0.83,0.83c-0.457,0-0.83-0.374-0.83-0.83S51.411,115.942,51.868,115.942L51.868,115.942z M49.751,117.602
	L49.751,117.602c-0.47,0-0.83-0.374-0.83-0.83s0.36-0.83,0.83-0.83c0.457,0,0.83,0.374,0.83,0.83S50.208,117.602,49.751,117.602
	L49.751,117.602z M48.921,113.424L48.921,113.424c0-0.443,0.346-0.802,0.789-0.802h5.783c0.443,0,0.802,0.36,0.802,0.802v0.069
	c0,0.429-0.36,0.789-0.802,0.789H49.71c-0.443,0-0.789-0.36-0.789-0.789V113.424L48.921,113.424L48.921,113.424z M48.921,110.837
	L48.921,110.837c0-0.443,0.346-0.802,0.789-0.802h5.783c0.443,0,0.802,0.36,0.802,0.802v0.069c0,0.443-0.36,0.788-0.802,0.788H49.71
	c-0.443,0-0.789-0.346-0.789-0.788V110.837L48.921,110.837L48.921,110.837z M48.921,108.25L48.921,108.25
	c0-0.429,0.346-0.789,0.789-0.789h5.783c0.443,0,0.802,0.36,0.802,0.789v0.069c0,0.443-0.36,0.802-0.802,0.802H49.71
	c-0.443,0-0.789-0.36-0.789-0.802V108.25L48.921,108.25L48.921,108.25z M51.135,124.423L51.135,124.423
	c0-4.067,3.293-7.374,7.374-7.374v-9.587c0-1.231-0.996-2.214-2.213-2.214h-7.374c-1.231,0-2.213,0.982-2.213,2.214v23.242
	c0,1.217,0.982,2.213,2.213,2.213h7.374c0.816,0,1.536-0.456,1.923-1.121C54.275,131.644,51.135,128.407,51.135,124.423
	L51.135,124.423z"/>
<polyline class="st3" points="53.128,96.167 53.128,56.979 296.038,56.979 296.038,84.841 "/>
<polygon class="st4" points="302.21,82.783 296.038,95.128 289.865,82.784 302.21,82.783 "/>
<line class="st3" x1="271.978" y1="119.193" x2="86.482" y2="119.193"/>
<polygon class="st4" points="88.54,113.021 76.196,119.193 88.54,125.365 88.54,113.021 "/>
<g>
	<path class="st2" d="M102.776,47.36h-3.688l-1.117,2.057h-1.968l5.262-9.306h2.126l1.511,9.306h-1.815L102.776,47.36z
		 M102.541,45.812l-0.54-3.745l-2.247,3.745H102.541z"/>
	<path class="st2" d="M107.955,49.417h-1.917l1.949-9.306h3.783c0.673,0,1.205,0.079,1.597,0.238
		c0.391,0.158,0.701,0.421,0.93,0.787c0.229,0.366,0.343,0.803,0.343,1.311c0,0.47-0.091,0.927-0.273,1.371s-0.405,0.8-0.669,1.066
		c-0.265,0.267-0.549,0.469-0.854,0.606c-0.305,0.137-0.715,0.242-1.231,0.314c-0.3,0.042-0.863,0.063-1.688,0.063h-1.225
		L107.955,49.417z M109.015,44.326h0.59c1.011,0,1.687-0.063,2.025-0.19s0.605-0.33,0.8-0.609s0.292-0.586,0.292-0.92
		c0-0.224-0.05-0.408-0.149-0.552c-0.099-0.144-0.239-0.249-0.419-0.314c-0.18-0.065-0.581-0.098-1.203-0.098h-1.371L109.015,44.326
		z"/>
	<path class="st2" d="M114.672,49.417l1.949-9.306h1.911l-1.942,9.306H114.672z"/>
	<path class="st2" d="M123.985,49.417h-1.917l1.949-9.306h4.132c0.711,0,1.264,0.073,1.66,0.219
		c0.396,0.146,0.715,0.414,0.958,0.803c0.244,0.389,0.365,0.861,0.365,1.416c0,0.792-0.237,1.444-0.711,1.958
		c-0.474,0.515-1.191,0.833-2.152,0.956c0.246,0.22,0.476,0.51,0.692,0.87c0.427,0.728,0.903,1.756,1.428,3.085h-2.057
		c-0.165-0.525-0.489-1.344-0.971-2.457c-0.262-0.601-0.542-1.005-0.838-1.212c-0.182-0.123-0.5-0.184-0.952-0.184h-0.781
		L123.985,49.417z M125.083,44.167h1.016c1.028,0,1.71-0.062,2.047-0.184c0.336-0.123,0.6-0.315,0.79-0.578s0.286-0.538,0.286-0.825
		c0-0.338-0.138-0.592-0.413-0.762c-0.169-0.102-0.535-0.152-1.098-0.152h-2.107L125.083,44.167z"/>
	<path class="st2" d="M137.943,46.611h-4.57c-0.004,0.072-0.006,0.127-0.006,0.165c0,0.449,0.128,0.811,0.384,1.085
		c0.256,0.275,0.568,0.413,0.936,0.413c0.605,0,1.077-0.313,1.416-0.939l1.631,0.273c-0.317,0.656-0.742,1.148-1.273,1.476
		c-0.531,0.328-1.126,0.492-1.787,0.492c-0.906,0-1.642-0.287-2.209-0.86c-0.567-0.574-0.851-1.332-0.851-2.276
		c0-0.922,0.256-1.744,0.768-2.463c0.698-0.973,1.695-1.46,2.99-1.46c0.825,0,1.481,0.255,1.968,0.765
		c0.487,0.51,0.73,1.224,0.73,2.142C138.07,45.864,138.027,46.26,137.943,46.611z M136.407,45.5
		c0.004-0.081,0.006-0.142,0.006-0.184c0-0.5-0.112-0.874-0.336-1.124s-0.525-0.375-0.901-0.375s-0.714,0.142-1.013,0.425
		c-0.298,0.284-0.5,0.703-0.606,1.257H136.407z"/>
	<path class="st2" d="M144.577,42.676h1.676l-1.942,9.312h-1.822l0.654-3.142c-0.322,0.262-0.624,0.45-0.908,0.562
		c-0.284,0.112-0.605,0.168-0.965,0.168c-0.715,0-1.289-0.239-1.72-0.717s-0.647-1.174-0.647-2.088c0-0.724,0.146-1.428,0.438-2.114
		s0.697-1.213,1.215-1.584c0.519-0.37,1.081-0.555,1.686-0.555c0.973,0,1.678,0.406,2.114,1.219L144.577,42.676z M140.661,46.738
		c0,0.453,0.123,0.813,0.368,1.079s0.542,0.4,0.889,0.4c0.309,0,0.607-0.105,0.895-0.314c0.288-0.21,0.521-0.556,0.701-1.038
		c0.18-0.482,0.27-0.946,0.27-1.39c0-0.503-0.129-0.898-0.387-1.184c-0.258-0.285-0.557-0.428-0.895-0.428
		c-0.279,0-0.564,0.11-0.854,0.33c-0.29,0.22-0.526,0.583-0.711,1.088C140.753,45.787,140.661,46.273,140.661,46.738z"/>
	<path class="st2" d="M147.986,42.676h1.822l-0.832,3.993c-0.102,0.478-0.152,0.776-0.152,0.895c0,0.195,0.072,0.362,0.216,0.501
		s0.328,0.209,0.552,0.209c0.161,0,0.319-0.031,0.476-0.092c0.157-0.062,0.317-0.155,0.482-0.279
		c0.165-0.125,0.313-0.268,0.444-0.429s0.254-0.373,0.368-0.635c0.081-0.195,0.167-0.512,0.26-0.952l0.673-3.212h1.822l-1.409,6.741
		h-1.701l0.19-0.914c-0.745,0.715-1.555,1.073-2.431,1.073c-0.554,0-0.99-0.159-1.308-0.476s-0.476-0.743-0.476-1.276
		c0-0.233,0.072-0.696,0.216-1.39L147.986,42.676z"/>
	<path class="st2" d="M161.094,46.611h-4.57c-0.004,0.072-0.006,0.127-0.006,0.165c0,0.449,0.128,0.811,0.384,1.085
		c0.256,0.275,0.568,0.413,0.936,0.413c0.605,0,1.077-0.313,1.416-0.939l1.631,0.273c-0.317,0.656-0.742,1.148-1.273,1.476
		c-0.531,0.328-1.126,0.492-1.787,0.492c-0.906,0-1.642-0.287-2.209-0.86c-0.567-0.574-0.851-1.332-0.851-2.276
		c0-0.922,0.256-1.744,0.768-2.463c0.698-0.973,1.695-1.46,2.99-1.46c0.825,0,1.481,0.255,1.968,0.765
		c0.487,0.51,0.73,1.224,0.73,2.142C161.221,45.864,161.178,46.26,161.094,46.611z M159.558,45.5
		c0.004-0.081,0.006-0.142,0.006-0.184c0-0.5-0.112-0.874-0.336-1.124s-0.525-0.375-0.901-0.375s-0.714,0.142-1.013,0.425
		c-0.298,0.284-0.5,0.703-0.606,1.257H159.558z"/>
	<path class="st2" d="M161.564,47.532l1.765-0.279c0.157,0.373,0.351,0.636,0.584,0.791c0.233,0.154,0.55,0.231,0.952,0.231
		c0.415,0,0.747-0.093,0.997-0.279c0.173-0.127,0.26-0.281,0.26-0.463c0-0.123-0.044-0.233-0.133-0.33
		c-0.093-0.093-0.345-0.208-0.755-0.343c-1.1-0.364-1.782-0.652-2.044-0.863c-0.411-0.33-0.616-0.762-0.616-1.295
		s0.199-0.992,0.597-1.377c0.554-0.538,1.377-0.806,2.469-0.806c0.868,0,1.523,0.159,1.968,0.476s0.726,0.747,0.844,1.289
		l-1.682,0.292c-0.089-0.246-0.233-0.43-0.432-0.552c-0.271-0.165-0.597-0.248-0.978-0.248s-0.655,0.063-0.822,0.19
		c-0.167,0.127-0.251,0.273-0.251,0.438c0,0.169,0.084,0.309,0.254,0.419c0.106,0.068,0.446,0.186,1.022,0.355
		c0.889,0.258,1.483,0.512,1.784,0.762c0.423,0.351,0.635,0.774,0.635,1.27c0,0.639-0.269,1.193-0.806,1.663
		s-1.295,0.705-2.272,0.705c-0.973,0-1.726-0.179-2.256-0.537C162.116,48.682,161.755,48.179,161.564,47.532z"/>
	<path class="st2" d="M169.525,44.028l0.279-1.352h0.889l0.222-1.079l2.088-1.257l-0.489,2.336h1.111l-0.279,1.352h-1.117
		l-0.59,2.825c-0.106,0.512-0.159,0.804-0.159,0.876c0,0.14,0.044,0.249,0.133,0.327c0.089,0.078,0.25,0.117,0.482,0.117
		c0.081,0,0.281-0.015,0.603-0.044l-0.286,1.352c-0.313,0.063-0.635,0.095-0.965,0.095c-0.643,0-1.111-0.124-1.403-0.372
		c-0.292-0.247-0.438-0.591-0.438-1.031c0-0.208,0.078-0.686,0.235-1.435l0.565-2.71H169.525z"/>
	<path class="st2" d="M174.12,47.659h1.803l-0.368,1.758h-1.803L174.12,47.659z M175.161,42.676h1.796l-0.368,1.765h-1.796
		L175.161,42.676z"/>
	<path class="st2" d="M181.474,46.402l1.822-0.095c0.025,0.58,0.125,0.971,0.298,1.174c0.279,0.33,0.795,0.495,1.549,0.495
		c0.626,0,1.079-0.112,1.358-0.336s0.419-0.495,0.419-0.813c0-0.275-0.114-0.508-0.343-0.698c-0.161-0.14-0.602-0.366-1.323-0.679
		c-0.722-0.313-1.249-0.575-1.581-0.784c-0.332-0.21-0.593-0.481-0.784-0.816s-0.286-0.726-0.286-1.174
		c0-0.783,0.284-1.433,0.851-1.949s1.388-0.774,2.463-0.774c1.092,0,1.937,0.256,2.536,0.768c0.599,0.512,0.928,1.193,0.987,2.044
		l-1.834,0.083c-0.046-0.444-0.208-0.785-0.482-1.022s-0.681-0.355-1.219-0.355c-0.529,0-0.907,0.093-1.133,0.279
		c-0.227,0.186-0.34,0.421-0.34,0.705c0,0.267,0.104,0.487,0.311,0.66c0.208,0.178,0.667,0.421,1.377,0.73
		c1.071,0.461,1.752,0.836,2.044,1.124c0.436,0.423,0.654,0.967,0.654,1.631c0,0.821-0.325,1.522-0.974,2.104
		c-0.65,0.582-1.554,0.873-2.714,0.873c-0.8,0-1.493-0.134-2.079-0.403c-0.586-0.269-1-0.643-1.241-1.121
		S181.457,47.024,181.474,46.402z"/>
	<path class="st2" d="M194.449,46.878l1.771,0.286c-0.292,0.787-0.724,1.386-1.295,1.796s-1.233,0.616-1.987,0.616
		c-0.859,0-1.541-0.256-2.044-0.768s-0.755-1.217-0.755-2.114c0-0.732,0.152-1.424,0.457-2.076s0.764-1.165,1.377-1.539
		c0.614-0.375,1.287-0.562,2.019-0.562c0.795,0,1.43,0.208,1.904,0.622s0.741,0.96,0.8,1.638l-1.733,0.184
		c-0.042-0.376-0.158-0.654-0.346-0.832c-0.188-0.178-0.435-0.267-0.739-0.267c-0.351,0-0.679,0.131-0.984,0.394
		s-0.539,0.655-0.702,1.177c-0.163,0.523-0.244,1.013-0.244,1.47c0,0.398,0.097,0.705,0.292,0.92s0.438,0.324,0.73,0.324
		s0.573-0.106,0.844-0.317S194.297,47.301,194.449,46.878z"/>
	<path class="st2" d="M197.415,46.618c0-1.249,0.353-2.244,1.057-2.987c0.705-0.742,1.63-1.114,2.777-1.114
		c0.995,0,1.771,0.274,2.33,0.822c0.559,0.548,0.838,1.286,0.838,2.212c0,1.092-0.349,2.036-1.047,2.831s-1.633,1.193-2.806,1.193
		c-0.635,0-1.198-0.127-1.688-0.381s-0.857-0.614-1.098-1.079S197.415,47.151,197.415,46.618z M202.607,45.316
		c0-0.432-0.126-0.777-0.378-1.038c-0.251-0.26-0.576-0.39-0.974-0.39c-0.394,0-0.743,0.122-1.047,0.365
		c-0.305,0.244-0.542,0.597-0.711,1.061c-0.169,0.463-0.254,0.89-0.254,1.279c0,0.482,0.131,0.865,0.394,1.149
		s0.592,0.425,0.99,0.425c0.5,0,0.918-0.214,1.257-0.641C202.366,46.92,202.607,46.184,202.607,45.316z"/>
	<path class="st2" d="M206.396,42.676h1.701l-0.273,1.308c0.635-0.978,1.322-1.466,2.063-1.466c0.262,0,0.544,0.065,0.844,0.197
		l-0.698,1.492c-0.165-0.059-0.341-0.089-0.527-0.089c-0.313,0-0.632,0.119-0.955,0.355c-0.324,0.237-0.577,0.553-0.759,0.949
		c-0.182,0.396-0.362,1.023-0.54,1.882l-0.444,2.114h-1.822L206.396,42.676z"/>
	<path class="st2" d="M216.711,46.611h-4.57c-0.004,0.072-0.006,0.127-0.006,0.165c0,0.449,0.128,0.811,0.384,1.085
		c0.256,0.275,0.568,0.413,0.936,0.413c0.605,0,1.077-0.313,1.416-0.939l1.631,0.273c-0.317,0.656-0.742,1.148-1.273,1.476
		c-0.531,0.328-1.126,0.492-1.787,0.492c-0.906,0-1.642-0.287-2.209-0.86c-0.567-0.574-0.851-1.332-0.851-2.276
		c0-0.922,0.256-1.744,0.768-2.463c0.698-0.973,1.695-1.46,2.99-1.46c0.825,0,1.481,0.255,1.968,0.765
		c0.487,0.51,0.73,1.224,0.73,2.142C216.838,45.864,216.796,46.26,216.711,46.611z M215.175,45.5
		c0.004-0.081,0.006-0.142,0.006-0.184c0-0.5-0.112-0.874-0.336-1.124s-0.525-0.375-0.901-0.375s-0.714,0.142-1.013,0.425
		c-0.298,0.284-0.5,0.703-0.606,1.257H215.175z"/>
	<path class="st2" d="M226.171,49.417h-1.815l-0.336-7.776l-1.479,7.776h-1.727l1.942-9.306h2.729l0.286,6.519l3.174-6.519h2.761
		l-1.949,9.306h-1.746l1.834-7.719L226.171,49.417z"/>
	<path class="st2" d="M231.864,46.618c0-1.249,0.353-2.244,1.057-2.987c0.705-0.742,1.63-1.114,2.777-1.114
		c0.995,0,1.771,0.274,2.33,0.822c0.559,0.548,0.838,1.286,0.838,2.212c0,1.092-0.349,2.036-1.047,2.831s-1.633,1.193-2.806,1.193
		c-0.635,0-1.198-0.127-1.688-0.381s-0.857-0.614-1.098-1.079S231.864,47.151,231.864,46.618z M237.057,45.316
		c0-0.432-0.126-0.777-0.378-1.038c-0.251-0.26-0.576-0.39-0.974-0.39c-0.394,0-0.743,0.122-1.047,0.365
		c-0.305,0.244-0.542,0.597-0.711,1.061c-0.169,0.463-0.254,0.89-0.254,1.279c0,0.482,0.131,0.865,0.394,1.149
		s0.592,0.425,0.99,0.425c0.5,0,0.918-0.214,1.257-0.641C236.815,46.92,237.057,46.184,237.057,45.316z"/>
	<path class="st2" d="M245.766,49.417h-1.727l0.152-0.73c-0.33,0.317-0.655,0.545-0.974,0.682c-0.32,0.138-0.681,0.207-1.083,0.207
		c-0.698,0-1.264-0.238-1.698-0.714c-0.434-0.476-0.651-1.179-0.651-2.11c0-1.079,0.305-2.055,0.914-2.926s1.416-1.308,2.418-1.308
		c0.906,0,1.585,0.36,2.038,1.079l0.73-3.485h1.822L245.766,49.417z M241.558,46.675c0,0.482,0.122,0.859,0.365,1.13
		c0.243,0.271,0.542,0.406,0.898,0.406c0.33,0,0.638-0.113,0.923-0.34c0.286-0.226,0.515-0.572,0.686-1.038
		c0.172-0.465,0.257-0.912,0.257-1.339c0-0.487-0.131-0.88-0.394-1.181s-0.565-0.451-0.908-0.451c-0.533,0-0.971,0.296-1.314,0.889
		S241.558,45.985,241.558,46.675z"/>
	<path class="st2" d="M254.043,46.611h-4.57c-0.004,0.072-0.006,0.127-0.006,0.165c0,0.449,0.128,0.811,0.384,1.085
		c0.256,0.275,0.568,0.413,0.936,0.413c0.605,0,1.077-0.313,1.416-0.939l1.631,0.273c-0.317,0.656-0.742,1.148-1.273,1.476
		c-0.531,0.328-1.126,0.492-1.787,0.492c-0.906,0-1.642-0.287-2.209-0.86c-0.567-0.574-0.851-1.332-0.851-2.276
		c0-0.922,0.256-1.744,0.768-2.463c0.698-0.973,1.695-1.46,2.99-1.46c0.825,0,1.481,0.255,1.968,0.765
		c0.487,0.51,0.73,1.224,0.73,2.142C254.17,45.864,254.127,46.26,254.043,46.611z M252.507,45.5
		c0.004-0.081,0.006-0.142,0.006-0.184c0-0.5-0.112-0.874-0.336-1.124s-0.525-0.375-0.901-0.375s-0.714,0.142-1.013,0.425
		c-0.298,0.284-0.5,0.703-0.606,1.257H252.507z"/>
	<path class="st2" d="M254.736,49.417l1.949-9.306h1.815l-1.942,9.306H254.736z"/>
</g>
<g>
	<g>
		<path class="st2" d="M103.035,107.515h-3.688l-1.117,2.057h-1.968l5.262-9.306h2.126l1.511,9.306h-1.815L103.035,107.515z
			 M102.8,105.966l-0.54-3.745l-2.247,3.745H102.8z"/>
		<path class="st2" d="M108.214,109.571h-1.917l1.949-9.306h3.783c0.673,0,1.205,0.079,1.597,0.238
			c0.391,0.158,0.701,0.421,0.93,0.787c0.229,0.366,0.343,0.803,0.343,1.311c0,0.47-0.091,0.927-0.273,1.371s-0.405,0.8-0.669,1.066
			c-0.265,0.267-0.549,0.469-0.854,0.606c-0.305,0.137-0.715,0.242-1.231,0.314c-0.3,0.042-0.863,0.063-1.688,0.063h-1.225
			L108.214,109.571z M109.274,104.48h0.59c1.011,0,1.687-0.063,2.025-0.19s0.605-0.33,0.8-0.609s0.292-0.586,0.292-0.92
			c0-0.224-0.05-0.408-0.149-0.552c-0.099-0.144-0.239-0.249-0.419-0.314c-0.18-0.065-0.581-0.098-1.203-0.098h-1.371
			L109.274,104.48z"/>
		<path class="st2" d="M114.931,109.571l1.949-9.306h1.911l-1.942,9.306H114.931z"/>
		<path class="st2" d="M124.244,109.571h-1.917l1.949-9.306h4.132c0.711,0,1.264,0.073,1.66,0.219
			c0.396,0.146,0.715,0.414,0.958,0.803c0.244,0.389,0.365,0.861,0.365,1.416c0,0.792-0.237,1.444-0.711,1.958
			c-0.474,0.515-1.191,0.833-2.152,0.956c0.246,0.22,0.476,0.51,0.692,0.87c0.427,0.728,0.903,1.756,1.428,3.085h-2.057
			c-0.165-0.525-0.489-1.344-0.971-2.457c-0.262-0.601-0.542-1.005-0.838-1.212c-0.182-0.123-0.5-0.184-0.952-0.184h-0.781
			L124.244,109.571z M125.342,104.322h1.016c1.028,0,1.71-0.062,2.047-0.184c0.336-0.123,0.6-0.315,0.79-0.578
			s0.286-0.538,0.286-0.825c0-0.338-0.138-0.592-0.413-0.762c-0.169-0.102-0.535-0.152-1.098-0.152h-2.107L125.342,104.322z"/>
		<path class="st2" d="M138.202,106.766h-4.57c-0.004,0.072-0.006,0.127-0.006,0.165c0,0.449,0.128,0.811,0.384,1.085
			c0.256,0.275,0.568,0.413,0.936,0.413c0.605,0,1.077-0.313,1.416-0.939l1.631,0.273c-0.317,0.656-0.742,1.148-1.273,1.476
			c-0.531,0.328-1.126,0.492-1.787,0.492c-0.906,0-1.642-0.287-2.209-0.86c-0.567-0.574-0.851-1.332-0.851-2.276
			c0-0.922,0.256-1.744,0.768-2.463c0.698-0.973,1.695-1.46,2.99-1.46c0.825,0,1.481,0.255,1.968,0.765
			c0.487,0.51,0.73,1.224,0.73,2.142C138.329,106.019,138.287,106.415,138.202,106.766z M136.666,105.655
			c0.004-0.081,0.006-0.142,0.006-0.184c0-0.5-0.112-0.874-0.336-1.124s-0.525-0.375-0.901-0.375s-0.714,0.142-1.013,0.425
			c-0.298,0.284-0.5,0.703-0.606,1.257H136.666z"/>
		<path class="st2" d="M138.673,107.686l1.765-0.279c0.157,0.373,0.351,0.636,0.584,0.791c0.233,0.154,0.55,0.231,0.952,0.231
			c0.415,0,0.747-0.093,0.997-0.279c0.173-0.127,0.26-0.281,0.26-0.463c0-0.123-0.044-0.233-0.133-0.33
			c-0.093-0.093-0.345-0.208-0.755-0.343c-1.1-0.364-1.782-0.652-2.044-0.863c-0.411-0.33-0.616-0.762-0.616-1.295
			s0.199-0.992,0.597-1.377c0.554-0.538,1.377-0.806,2.469-0.806c0.868,0,1.523,0.159,1.968,0.476s0.726,0.747,0.844,1.289
			l-1.682,0.292c-0.089-0.246-0.233-0.43-0.432-0.552c-0.271-0.165-0.597-0.248-0.978-0.248s-0.655,0.063-0.822,0.19
			c-0.167,0.127-0.251,0.273-0.251,0.438c0,0.169,0.084,0.309,0.254,0.419c0.106,0.068,0.446,0.186,1.022,0.355
			c0.889,0.258,1.483,0.512,1.784,0.762c0.423,0.351,0.635,0.774,0.635,1.27c0,0.639-0.269,1.193-0.806,1.663
			s-1.295,0.705-2.272,0.705c-0.973,0-1.726-0.179-2.256-0.537C139.224,108.836,138.863,108.333,138.673,107.686z"/>
		<path class="st2" d="M147.529,102.83h1.727l-0.146,0.692c0.368-0.305,0.713-0.522,1.035-0.654s0.667-0.197,1.035-0.197
			c0.707,0,1.275,0.243,1.704,0.73c0.43,0.487,0.645,1.212,0.645,2.177c0,1.214-0.37,2.241-1.111,3.079
			c-0.635,0.715-1.386,1.073-2.253,1.073c-0.893,0-1.568-0.362-2.025-1.085l-0.73,3.498h-1.822L147.529,102.83z M148.627,106.696
			c0,0.525,0.128,0.932,0.384,1.222c0.256,0.29,0.558,0.435,0.905,0.435c0.3,0,0.59-0.109,0.87-0.327
			c0.279-0.218,0.511-0.58,0.695-1.085c0.184-0.506,0.276-0.975,0.276-1.406c0-0.503-0.121-0.89-0.362-1.158
			c-0.241-0.269-0.548-0.403-0.92-0.403c-0.347,0-0.664,0.124-0.949,0.371c-0.286,0.248-0.507,0.612-0.664,1.092
			C148.705,105.916,148.627,106.336,148.627,106.696z"/>
		<path class="st2" d="M154.384,106.772c0-1.249,0.353-2.244,1.057-2.987c0.705-0.742,1.63-1.114,2.777-1.114
			c0.995,0,1.771,0.274,2.33,0.822c0.559,0.548,0.838,1.286,0.838,2.212c0,1.092-0.349,2.036-1.047,2.831s-1.633,1.193-2.806,1.193
			c-0.635,0-1.198-0.127-1.688-0.381s-0.857-0.614-1.098-1.079S154.384,107.305,154.384,106.772z M159.577,105.471
			c0-0.432-0.126-0.777-0.378-1.038c-0.251-0.26-0.576-0.39-0.974-0.39c-0.394,0-0.743,0.122-1.047,0.365
			c-0.305,0.244-0.542,0.597-0.711,1.061c-0.169,0.463-0.254,0.89-0.254,1.279c0,0.482,0.131,0.865,0.394,1.149
			s0.592,0.425,0.99,0.425c0.5,0,0.918-0.214,1.257-0.641C159.335,107.075,159.577,106.338,159.577,105.471z"/>
		<path class="st2" d="M163.493,102.83h1.727l-0.178,0.876c0.432-0.373,0.835-0.638,1.209-0.797c0.375-0.158,0.77-0.238,1.184-0.238
			c0.554,0,0.991,0.159,1.311,0.476c0.319,0.317,0.479,0.738,0.479,1.263c0,0.237-0.07,0.686-0.209,1.346l-0.793,3.815H166.4
			l0.8-3.828c0.119-0.571,0.178-0.912,0.178-1.022c0-0.233-0.069-0.416-0.206-0.549c-0.138-0.134-0.329-0.2-0.575-0.2
			c-0.267,0-0.563,0.112-0.889,0.336s-0.582,0.521-0.768,0.889c-0.135,0.262-0.288,0.798-0.457,1.606l-0.578,2.768h-1.822
			L163.493,102.83z"/>
		<path class="st2" d="M169.765,107.686l1.765-0.279c0.157,0.373,0.351,0.636,0.584,0.791c0.233,0.154,0.55,0.231,0.952,0.231
			c0.415,0,0.747-0.093,0.997-0.279c0.173-0.127,0.26-0.281,0.26-0.463c0-0.123-0.044-0.233-0.133-0.33
			c-0.093-0.093-0.345-0.208-0.755-0.343c-1.1-0.364-1.782-0.652-2.044-0.863c-0.411-0.33-0.616-0.762-0.616-1.295
			s0.199-0.992,0.597-1.377c0.554-0.538,1.377-0.806,2.469-0.806c0.868,0,1.523,0.159,1.968,0.476s0.726,0.747,0.844,1.289
			l-1.682,0.292c-0.089-0.246-0.233-0.43-0.432-0.552c-0.271-0.165-0.597-0.248-0.978-0.248s-0.655,0.063-0.822,0.19
			c-0.167,0.127-0.251,0.273-0.251,0.438c0,0.169,0.084,0.309,0.254,0.419c0.106,0.068,0.446,0.186,1.022,0.355
			c0.889,0.258,1.483,0.512,1.784,0.762c0.423,0.351,0.635,0.774,0.635,1.27c0,0.639-0.269,1.193-0.806,1.663
			s-1.295,0.705-2.272,0.705c-0.973,0-1.726-0.179-2.256-0.537C170.316,108.836,169.955,108.333,169.765,107.686z"/>
		<path class="st2" d="M183.832,106.766h-4.57c-0.004,0.072-0.006,0.127-0.006,0.165c0,0.449,0.128,0.811,0.384,1.085
			c0.256,0.275,0.568,0.413,0.936,0.413c0.605,0,1.077-0.313,1.416-0.939l1.631,0.273c-0.317,0.656-0.742,1.148-1.273,1.476
			c-0.531,0.328-1.126,0.492-1.787,0.492c-0.906,0-1.642-0.287-2.209-0.86c-0.567-0.574-0.851-1.332-0.851-2.276
			c0-0.922,0.256-1.744,0.768-2.463c0.698-0.973,1.695-1.46,2.99-1.46c0.825,0,1.481,0.255,1.968,0.765
			c0.487,0.51,0.73,1.224,0.73,2.142C183.958,106.019,183.916,106.415,183.832,106.766z M182.295,105.655
			c0.004-0.081,0.006-0.142,0.006-0.184c0-0.5-0.112-0.874-0.336-1.124s-0.525-0.375-0.901-0.375s-0.714,0.142-1.013,0.425
			c-0.298,0.284-0.5,0.703-0.606,1.257H182.295z"/>
		<path class="st2" d="M185.299,107.813h1.803l-0.368,1.758h-1.803L185.299,107.813z M186.34,102.83h1.796l-0.368,1.765h-1.796
			L186.34,102.83z"/>
		<path class="st2" d="M198.972,106.22l1.93,0.292c-0.376,1.045-0.941,1.844-1.695,2.396c-0.753,0.552-1.636,0.828-2.647,0.828
			c-1.138,0-2.028-0.343-2.669-1.028c-0.642-0.686-0.962-1.68-0.962-2.983c0-1.058,0.215-2.026,0.645-2.904
			c0.429-0.878,1.025-1.55,1.787-2.015s1.591-0.698,2.488-0.698c1.007,0,1.822,0.27,2.444,0.809c0.622,0.54,0.988,1.275,1.098,2.206
			l-1.834,0.178c-0.102-0.542-0.297-0.934-0.587-1.178c-0.29-0.243-0.676-0.365-1.159-0.365c-0.529,0-1.023,0.161-1.482,0.482
			c-0.459,0.322-0.827,0.824-1.102,1.507c-0.275,0.684-0.413,1.366-0.413,2.047c0,0.745,0.179,1.32,0.537,1.727
			c0.357,0.406,0.803,0.609,1.336,0.609c0.495,0,0.949-0.161,1.361-0.482C198.461,107.326,198.769,106.85,198.972,106.22z"/>
		<path class="st2" d="M202.888,102.83h1.701l-0.273,1.308c0.635-0.978,1.322-1.466,2.063-1.466c0.262,0,0.544,0.065,0.844,0.197
			l-0.698,1.492c-0.165-0.059-0.341-0.089-0.527-0.089c-0.313,0-0.632,0.119-0.955,0.355c-0.324,0.237-0.577,0.553-0.759,0.949
			c-0.182,0.396-0.362,1.023-0.54,1.882l-0.444,2.114h-1.822L202.888,102.83z"/>
		<path class="st2" d="M213.203,106.766h-4.57c-0.004,0.072-0.006,0.127-0.006,0.165c0,0.449,0.128,0.811,0.384,1.085
			c0.256,0.275,0.568,0.413,0.936,0.413c0.605,0,1.077-0.313,1.416-0.939l1.631,0.273c-0.317,0.656-0.742,1.148-1.273,1.476
			c-0.531,0.328-1.126,0.492-1.787,0.492c-0.906,0-1.642-0.287-2.209-0.86c-0.567-0.574-0.851-1.332-0.851-2.276
			c0-0.922,0.256-1.744,0.768-2.463c0.698-0.973,1.695-1.46,2.99-1.46c0.825,0,1.481,0.255,1.968,0.765
			c0.487,0.51,0.73,1.224,0.73,2.142C213.33,106.019,213.288,106.415,213.203,106.766z M211.667,105.655
			c0.004-0.081,0.006-0.142,0.006-0.184c0-0.5-0.112-0.874-0.336-1.124s-0.525-0.375-0.901-0.375s-0.714,0.142-1.013,0.425
			c-0.298,0.284-0.5,0.703-0.606,1.257H211.667z"/>
		<path class="st2" d="M220.136,109.571h-1.727l0.152-0.73c-0.33,0.317-0.655,0.545-0.974,0.682
			c-0.32,0.138-0.681,0.207-1.083,0.207c-0.698,0-1.264-0.238-1.698-0.714c-0.434-0.476-0.651-1.179-0.651-2.11
			c0-1.079,0.305-2.055,0.914-2.926s1.416-1.308,2.418-1.308c0.906,0,1.585,0.36,2.038,1.079l0.73-3.485h1.822L220.136,109.571z
			 M215.927,106.829c0,0.482,0.122,0.859,0.365,1.13c0.243,0.271,0.542,0.406,0.898,0.406c0.33,0,0.638-0.113,0.923-0.34
			c0.286-0.226,0.515-0.572,0.686-1.038c0.172-0.465,0.257-0.912,0.257-1.339c0-0.487-0.131-0.88-0.394-1.181
			s-0.565-0.451-0.908-0.451c-0.533,0-0.971,0.296-1.314,0.889S215.927,106.139,215.927,106.829z"/>
		<path class="st2" d="M223.258,102.83h1.822l-1.409,6.741h-1.822L223.258,102.83z M223.792,100.266h1.822l-0.343,1.65h-1.822
			L223.792,100.266z"/>
		<path class="st2" d="M225.944,104.182l0.279-1.352h0.889l0.222-1.079l2.088-1.257l-0.489,2.336h1.111l-0.279,1.352h-1.117
			l-0.59,2.825c-0.106,0.512-0.159,0.804-0.159,0.876c0,0.14,0.044,0.249,0.133,0.327c0.089,0.078,0.25,0.117,0.482,0.117
			c0.081,0,0.281-0.015,0.603-0.044l-0.286,1.352c-0.313,0.063-0.635,0.095-0.965,0.095c-0.643,0-1.111-0.124-1.403-0.372
			c-0.292-0.247-0.438-0.591-0.438-1.031c0-0.208,0.078-0.686,0.235-1.435l0.565-2.71H225.944z"/>
		<path class="st2" d="M233.72,106.556l1.822-0.095c0.025,0.58,0.125,0.971,0.298,1.174c0.279,0.33,0.795,0.495,1.549,0.495
			c0.626,0,1.079-0.112,1.358-0.336s0.419-0.495,0.419-0.813c0-0.275-0.114-0.508-0.343-0.698c-0.161-0.14-0.602-0.366-1.323-0.679
			c-0.722-0.313-1.249-0.575-1.581-0.784c-0.332-0.21-0.593-0.481-0.784-0.816s-0.286-0.726-0.286-1.174
			c0-0.783,0.284-1.433,0.851-1.949s1.388-0.774,2.463-0.774c1.092,0,1.937,0.256,2.536,0.768c0.599,0.512,0.928,1.193,0.987,2.044
			l-1.834,0.083c-0.046-0.444-0.208-0.785-0.482-1.022s-0.681-0.355-1.219-0.355c-0.529,0-0.907,0.093-1.133,0.279
			c-0.227,0.186-0.34,0.421-0.34,0.705c0,0.267,0.104,0.487,0.311,0.66c0.208,0.178,0.667,0.421,1.377,0.73
			c1.071,0.461,1.752,0.836,2.044,1.124c0.436,0.423,0.654,0.967,0.654,1.631c0,0.821-0.325,1.522-0.974,2.104
			c-0.65,0.582-1.554,0.873-2.714,0.873c-0.8,0-1.493-0.134-2.079-0.403c-0.586-0.269-1-0.643-1.241-1.121
			S233.703,107.178,233.72,106.556z"/>
		<path class="st2" d="M246.695,107.032l1.771,0.286c-0.292,0.787-0.724,1.386-1.295,1.796s-1.233,0.616-1.987,0.616
			c-0.859,0-1.541-0.256-2.044-0.768s-0.755-1.217-0.755-2.114c0-0.732,0.152-1.424,0.457-2.076s0.764-1.165,1.377-1.539
			c0.614-0.375,1.287-0.562,2.019-0.562c0.795,0,1.43,0.208,1.904,0.622s0.741,0.96,0.8,1.638l-1.733,0.184
			c-0.042-0.376-0.158-0.654-0.346-0.832c-0.188-0.178-0.435-0.267-0.739-0.267c-0.351,0-0.679,0.131-0.984,0.394
			s-0.539,0.655-0.702,1.177c-0.163,0.523-0.244,1.013-0.244,1.47c0,0.398,0.097,0.705,0.292,0.92s0.438,0.324,0.73,0.324
			s0.573-0.106,0.844-0.317S246.543,107.456,246.695,107.032z"/>
		<path class="st2" d="M249.661,106.772c0-1.249,0.353-2.244,1.057-2.987c0.705-0.742,1.63-1.114,2.777-1.114
			c0.995,0,1.771,0.274,2.33,0.822c0.559,0.548,0.838,1.286,0.838,2.212c0,1.092-0.349,2.036-1.047,2.831s-1.633,1.193-2.806,1.193
			c-0.635,0-1.198-0.127-1.688-0.381s-0.857-0.614-1.098-1.079S249.661,107.305,249.661,106.772z M254.853,105.471
			c0-0.432-0.126-0.777-0.378-1.038c-0.251-0.26-0.576-0.39-0.974-0.39c-0.394,0-0.743,0.122-1.047,0.365
			c-0.305,0.244-0.542,0.597-0.711,1.061c-0.169,0.463-0.254,0.89-0.254,1.279c0,0.482,0.131,0.865,0.394,1.149
			s0.592,0.425,0.99,0.425c0.5,0,0.918-0.214,1.257-0.641C254.612,107.075,254.853,106.338,254.853,105.471z"/>
		<path class="st2" d="M258.643,102.83h1.701l-0.273,1.308c0.635-0.978,1.322-1.466,2.063-1.466c0.262,0,0.544,0.065,0.844,0.197
			l-0.698,1.492c-0.165-0.059-0.341-0.089-0.527-0.089c-0.313,0-0.632,0.119-0.955,0.355c-0.324,0.237-0.577,0.553-0.759,0.949
			c-0.182,0.396-0.362,1.023-0.54,1.882l-0.444,2.114h-1.822L258.643,102.83z"/>
		<path class="st2" d="M268.958,106.766h-4.57c-0.004,0.072-0.006,0.127-0.006,0.165c0,0.449,0.128,0.811,0.384,1.085
			c0.256,0.275,0.568,0.413,0.936,0.413c0.605,0,1.077-0.313,1.416-0.939l1.631,0.273c-0.317,0.656-0.742,1.148-1.273,1.476
			c-0.531,0.328-1.126,0.492-1.787,0.492c-0.906,0-1.642-0.287-2.209-0.86c-0.567-0.574-0.851-1.332-0.851-2.276
			c0-0.922,0.256-1.744,0.768-2.463c0.698-0.973,1.695-1.46,2.99-1.46c0.825,0,1.481,0.255,1.968,0.765
			c0.487,0.51,0.73,1.224,0.73,2.142C269.084,106.019,269.042,106.415,268.958,106.766z M267.421,105.655
			c0.004-0.081,0.006-0.142,0.006-0.184c0-0.5-0.112-0.874-0.336-1.124s-0.525-0.375-0.901-0.375s-0.714,0.142-1.013,0.425
			c-0.298,0.284-0.5,0.703-0.606,1.257H267.421z"/>
	</g>
</g>
<path class="st5" d="M472.401,31.347c0-7.586,6.149-13.735,13.735-13.735h108.56c7.586,0,13.735,6.149,13.735,13.735v60.282
	c0,7.586-6.149,13.735-13.735,13.735h-108.56c-7.585,0-13.735-6.149-13.735-13.735V31.347z"/>
<g>
	<path class="st1" d="M485.07,26.66h3.064l1.104,5.846l1.615-5.846h3.054l1.619,5.838l1.104-5.838h3.05l-2.303,10.443h-3.164
		l-1.832-6.575l-1.824,6.575h-3.164L485.07,26.66z"/>
	<path class="st1" d="M500.728,26.66h8.647v2.229h-5.413v1.66h5.021v2.13h-5.021v2.059h5.57v2.365h-8.805V26.66z"/>
	<path class="st1" d="M511.276,26.66h6.041c1.007,0,1.779,0.249,2.318,0.748c0.539,0.499,0.809,1.116,0.809,1.852
		c0,0.617-0.192,1.146-0.576,1.588c-0.257,0.294-0.632,0.527-1.126,0.698c0.75,0.18,1.303,0.49,1.656,0.93
		c0.354,0.439,0.53,0.991,0.53,1.656c0,0.542-0.126,1.028-0.377,1.46c-0.252,0.432-0.597,0.774-1.033,1.026
		c-0.271,0.157-0.679,0.271-1.226,0.342c-0.727,0.095-1.208,0.143-1.445,0.143h-5.571V26.66z M514.532,30.755h1.403
		c0.503,0,0.854-0.086,1.051-0.26s0.296-0.424,0.296-0.751c0-0.304-0.099-0.542-0.296-0.712s-0.54-0.256-1.029-0.256h-1.425V30.755z
		 M514.532,34.859h1.646c0.556,0,0.947-0.099,1.176-0.296c0.228-0.197,0.342-0.462,0.342-0.794c0-0.309-0.113-0.557-0.339-0.744
		s-0.621-0.281-1.186-0.281h-1.639V34.859z"/>
	<path class="st1" d="M526.92,33.647l3.07-0.192c0.066,0.499,0.201,0.878,0.406,1.14c0.332,0.422,0.807,0.634,1.424,0.634
		c0.461,0,0.816-0.108,1.065-0.324c0.249-0.216,0.374-0.466,0.374-0.751c0-0.271-0.119-0.513-0.356-0.727s-0.788-0.416-1.652-0.605
		c-1.415-0.318-2.425-0.741-3.027-1.268c-0.608-0.527-0.912-1.199-0.912-2.016c0-0.537,0.155-1.044,0.467-1.521
		c0.311-0.478,0.778-0.853,1.403-1.125c0.624-0.273,1.48-0.41,2.568-0.41c1.334,0,2.352,0.248,3.052,0.745
		c0.7,0.496,1.117,1.286,1.25,2.368l-3.041,0.178c-0.081-0.47-0.251-0.812-0.51-1.026c-0.259-0.213-0.616-0.32-1.072-0.32
		c-0.375,0-0.657,0.08-0.848,0.239c-0.189,0.159-0.285,0.353-0.285,0.581c0,0.166,0.079,0.315,0.235,0.449
		c0.152,0.138,0.513,0.266,1.083,0.384c1.41,0.304,2.421,0.612,3.031,0.923s1.054,0.697,1.332,1.157
		c0.277,0.461,0.416,0.976,0.416,1.546c0,0.669-0.185,1.287-0.555,1.852c-0.371,0.565-0.889,0.994-1.554,1.286
		c-0.665,0.292-1.503,0.438-2.515,0.438c-1.775,0-3.006-0.342-3.689-1.026C527.397,35.571,527.01,34.702,526.92,33.647z"/>
	<path class="st1" d="M546.225,34.04h-5.813c0.053,0.465,0.178,0.812,0.378,1.04c0.28,0.328,0.646,0.491,1.097,0.491
		c0.285,0,0.556-0.071,0.813-0.213c0.156-0.09,0.325-0.25,0.506-0.478l2.856,0.264c-0.438,0.76-0.965,1.305-1.582,1.635
		s-1.503,0.495-2.657,0.495c-1.002,0-1.79-0.141-2.364-0.424c-0.575-0.282-1.051-0.731-1.429-1.346
		c-0.377-0.615-0.566-1.338-0.566-2.169c0-1.183,0.379-2.14,1.137-2.871c0.757-0.731,1.803-1.097,3.138-1.097
		c1.083,0,1.938,0.164,2.564,0.491s1.104,0.803,1.432,1.425s0.491,1.432,0.491,2.429V34.04z M543.275,32.65
		c-0.057-0.561-0.207-0.962-0.452-1.204c-0.244-0.242-0.566-0.363-0.965-0.363c-0.461,0-0.829,0.183-1.104,0.549
		c-0.176,0.228-0.287,0.567-0.335,1.019H543.275z"/>
	<path class="st1" d="M547.585,29.538h2.715v1.239c0.261-0.537,0.53-0.906,0.808-1.107c0.278-0.202,0.621-0.303,1.03-0.303
		c0.427,0,0.895,0.133,1.403,0.398l-0.898,2.066c-0.342-0.143-0.612-0.213-0.812-0.213c-0.38,0-0.675,0.157-0.884,0.47
		c-0.299,0.442-0.448,1.268-0.448,2.479v2.536h-2.914V29.538z"/>
	<path class="st1" d="M554.025,29.538h3.017l1.468,4.794l1.522-4.794h2.926l-3.215,7.565h-2.571L554.025,29.538z"/>
	<path class="st1" d="M563.898,26.66h2.898v1.973h-2.898V26.66z M563.898,29.538h2.898v7.565h-2.898V29.538z"/>
	<path class="st1" d="M574.291,34.139l2.757,0.313c-0.151,0.575-0.401,1.072-0.748,1.492c-0.347,0.42-0.789,0.747-1.328,0.979
		c-0.539,0.233-1.224,0.349-2.055,0.349c-0.803,0-1.472-0.075-2.006-0.224s-0.993-0.391-1.378-0.726
		c-0.385-0.334-0.687-0.727-0.905-1.178c-0.218-0.451-0.327-1.048-0.327-1.793c0-0.778,0.133-1.426,0.398-1.943
		c0.195-0.38,0.461-0.72,0.798-1.021s0.685-0.525,1.04-0.672c0.565-0.232,1.29-0.349,2.173-0.349c1.234,0,2.176,0.221,2.824,0.662
		c0.648,0.442,1.104,1.088,1.364,1.938l-2.729,0.363c-0.085-0.323-0.24-0.566-0.466-0.73c-0.226-0.164-0.528-0.246-0.908-0.246
		c-0.48,0-0.868,0.172-1.165,0.516s-0.445,0.864-0.445,1.561c0,0.621,0.147,1.093,0.441,1.415c0.295,0.322,0.67,0.483,1.126,0.483
		c0.38,0,0.699-0.097,0.958-0.292C573.97,34.842,574.163,34.543,574.291,34.139z"/>
	<path class="st1" d="M586.778,34.04h-5.813c0.053,0.465,0.178,0.812,0.378,1.04c0.28,0.328,0.646,0.491,1.097,0.491
		c0.285,0,0.556-0.071,0.813-0.213c0.156-0.09,0.325-0.25,0.506-0.478l2.856,0.264c-0.438,0.76-0.965,1.305-1.582,1.635
		s-1.503,0.495-2.657,0.495c-1.002,0-1.79-0.141-2.364-0.424c-0.575-0.282-1.051-0.731-1.429-1.346
		c-0.377-0.615-0.566-1.338-0.566-2.169c0-1.183,0.379-2.14,1.137-2.871c0.757-0.731,1.803-1.097,3.138-1.097
		c1.083,0,1.938,0.164,2.564,0.491s1.104,0.803,1.432,1.425s0.491,1.432,0.491,2.429V34.04z M583.829,32.65
		c-0.057-0.561-0.207-0.962-0.452-1.204c-0.244-0.242-0.566-0.363-0.965-0.363c-0.461,0-0.829,0.183-1.104,0.549
		c-0.176,0.228-0.287,0.567-0.335,1.019H583.829z"/>
	<path class="st1" d="M587.598,35.001l2.878-0.271c0.118,0.342,0.285,0.586,0.499,0.734c0.213,0.147,0.498,0.221,0.854,0.221
		c0.39,0,0.69-0.083,0.904-0.249c0.166-0.123,0.25-0.277,0.25-0.462c0-0.208-0.109-0.37-0.328-0.483
		c-0.156-0.081-0.572-0.18-1.246-0.299c-1.007-0.176-1.706-0.338-2.099-0.487c-0.392-0.149-0.722-0.402-0.99-0.758
		c-0.268-0.355-0.402-0.761-0.402-1.217c0-0.498,0.146-0.927,0.435-1.288c0.29-0.36,0.688-0.63,1.197-0.808
		c0.508-0.178,1.189-0.267,2.044-0.267c0.902,0,1.568,0.069,1.998,0.207s0.788,0.351,1.076,0.641
		c0.287,0.29,0.525,0.681,0.716,1.175l-2.75,0.271c-0.071-0.242-0.189-0.42-0.356-0.534c-0.228-0.152-0.503-0.228-0.826-0.228
		c-0.327,0-0.566,0.058-0.716,0.174s-0.225,0.257-0.225,0.423c0,0.185,0.096,0.325,0.285,0.419c0.19,0.095,0.604,0.18,1.239,0.256
		c0.965,0.109,1.682,0.261,2.151,0.455c0.471,0.195,0.83,0.472,1.079,0.833c0.25,0.361,0.374,0.757,0.374,1.188
		c0,0.437-0.132,0.861-0.395,1.274c-0.264,0.413-0.68,0.741-1.247,0.986c-0.567,0.244-1.341,0.366-2.318,0.366
		c-1.382,0-2.366-0.197-2.953-0.591C588.141,36.288,587.764,35.728,587.598,35.001z"/>
</g>
<path class="st5" d="M472.401,140.092c0-7.573,6.139-13.711,13.711-13.711H594.72c7.572,0,13.711,6.139,13.711,13.711v60.177
	c0,7.573-6.139,13.711-13.711,13.711H486.112c-7.572,0-13.711-6.139-13.711-13.711V140.092z"/>
<g>
	<path class="st1" d="M495.274,134.214h4.794c0.945,0,1.708,0.129,2.29,0.385c0.582,0.257,1.063,0.625,1.442,1.104
		s0.655,1.038,0.827,1.674c0.171,0.637,0.256,1.311,0.256,2.023c0,1.116-0.127,1.981-0.381,2.597
		c-0.254,0.614-0.606,1.13-1.058,1.545c-0.451,0.416-0.936,0.692-1.453,0.83c-0.708,0.19-1.35,0.285-1.924,0.285h-4.794V134.214z
		 M498.501,136.579v5.706h0.791c0.674,0,1.154-0.075,1.438-0.225c0.285-0.149,0.509-0.41,0.67-0.783s0.242-0.978,0.242-1.813
		c0-1.106-0.181-1.863-0.541-2.272c-0.361-0.408-0.96-0.612-1.795-0.612H498.501z"/>
	<path class="st1" d="M506.586,134.214h6.041c1.007,0,1.779,0.25,2.318,0.748c0.539,0.499,0.809,1.116,0.809,1.853
		c0,0.617-0.192,1.146-0.576,1.588c-0.257,0.295-0.632,0.527-1.126,0.698c0.75,0.181,1.303,0.491,1.656,0.93
		c0.354,0.439,0.53,0.991,0.53,1.656c0,0.542-0.126,1.028-0.377,1.461c-0.252,0.432-0.597,0.773-1.033,1.025
		c-0.271,0.156-0.679,0.271-1.226,0.342c-0.727,0.095-1.208,0.143-1.445,0.143h-5.571V134.214z M509.842,138.311h1.403
		c0.503,0,0.854-0.087,1.051-0.261c0.197-0.173,0.296-0.424,0.296-0.751c0-0.304-0.099-0.542-0.296-0.713s-0.54-0.256-1.029-0.256
		h-1.425V138.311z M509.842,142.413h1.646c0.556,0,0.947-0.099,1.176-0.295c0.228-0.197,0.342-0.462,0.342-0.795
		c0-0.309-0.113-0.557-0.339-0.744s-0.621-0.281-1.186-0.281h-1.639V142.413z"/>
	<path class="st1" d="M522.229,141.202l3.07-0.192c0.066,0.499,0.201,0.879,0.406,1.14c0.332,0.423,0.807,0.635,1.424,0.635
		c0.461,0,0.816-0.108,1.065-0.324c0.249-0.217,0.374-0.467,0.374-0.752c0-0.271-0.119-0.513-0.356-0.727s-0.788-0.415-1.652-0.605
		c-1.415-0.318-2.425-0.741-3.027-1.268c-0.608-0.527-0.912-1.199-0.912-2.017c0-0.536,0.155-1.043,0.467-1.521
		c0.311-0.478,0.778-0.853,1.403-1.126c0.624-0.272,1.48-0.409,2.568-0.409c1.334,0,2.352,0.248,3.052,0.744
		c0.7,0.497,1.117,1.286,1.25,2.369l-3.041,0.178c-0.081-0.47-0.251-0.813-0.51-1.025c-0.259-0.214-0.616-0.321-1.072-0.321
		c-0.375,0-0.657,0.08-0.848,0.239c-0.189,0.159-0.285,0.353-0.285,0.58c0,0.167,0.079,0.316,0.235,0.449
		c0.152,0.138,0.513,0.266,1.083,0.385c1.41,0.304,2.421,0.611,3.031,0.922c0.61,0.312,1.054,0.697,1.332,1.158
		c0.277,0.46,0.416,0.976,0.416,1.546c0,0.669-0.185,1.286-0.555,1.852c-0.371,0.565-0.889,0.994-1.554,1.286
		s-1.503,0.438-2.515,0.438c-1.775,0-3.006-0.342-3.689-1.025S522.319,142.257,522.229,141.202z"/>
	<path class="st1" d="M541.534,141.594h-5.813c0.053,0.466,0.178,0.813,0.378,1.04c0.28,0.328,0.646,0.492,1.097,0.492
		c0.285,0,0.556-0.071,0.813-0.214c0.156-0.09,0.325-0.249,0.506-0.478l2.856,0.264c-0.438,0.76-0.965,1.305-1.582,1.635
		s-1.503,0.495-2.657,0.495c-1.002,0-1.79-0.142-2.364-0.424c-0.575-0.282-1.051-0.731-1.429-1.347
		c-0.377-0.614-0.566-1.338-0.566-2.169c0-1.183,0.379-2.139,1.137-2.87c0.757-0.731,1.803-1.098,3.138-1.098
		c1.083,0,1.938,0.164,2.564,0.492c0.627,0.327,1.104,0.802,1.432,1.424c0.328,0.623,0.491,1.433,0.491,2.43V141.594z
		 M538.585,140.205c-0.057-0.561-0.207-0.962-0.452-1.204c-0.244-0.242-0.566-0.363-0.965-0.363c-0.461,0-0.829,0.183-1.104,0.549
		c-0.176,0.228-0.287,0.567-0.335,1.019H538.585z"/>
	<path class="st1" d="M542.895,137.092h2.715v1.24c0.261-0.537,0.53-0.906,0.808-1.108c0.278-0.201,0.621-0.303,1.03-0.303
		c0.427,0,0.895,0.133,1.403,0.399l-0.898,2.065c-0.342-0.143-0.612-0.214-0.812-0.214c-0.38,0-0.675,0.157-0.884,0.471
		c-0.299,0.441-0.448,1.268-0.448,2.479v2.536h-2.914V137.092z"/>
	<path class="st1" d="M549.334,137.092h3.017l1.468,4.794l1.522-4.794h2.926l-3.215,7.565h-2.571L549.334,137.092z"/>
	<path class="st1" d="M567.121,141.594h-5.813c0.053,0.466,0.178,0.813,0.378,1.04c0.28,0.328,0.646,0.492,1.097,0.492
		c0.285,0,0.556-0.071,0.813-0.214c0.156-0.09,0.325-0.249,0.506-0.478l2.856,0.264c-0.438,0.76-0.965,1.305-1.582,1.635
		s-1.503,0.495-2.657,0.495c-1.002,0-1.79-0.142-2.364-0.424c-0.575-0.282-1.051-0.731-1.429-1.347
		c-0.377-0.614-0.566-1.338-0.566-2.169c0-1.183,0.379-2.139,1.137-2.87c0.757-0.731,1.803-1.098,3.138-1.098
		c1.083,0,1.938,0.164,2.564,0.492c0.627,0.327,1.104,0.802,1.432,1.424c0.328,0.623,0.491,1.433,0.491,2.43V141.594z
		 M564.172,140.205c-0.057-0.561-0.207-0.962-0.452-1.204c-0.244-0.242-0.566-0.363-0.965-0.363c-0.461,0-0.829,0.183-1.104,0.549
		c-0.176,0.228-0.287,0.567-0.335,1.019H564.172z"/>
	<path class="st1" d="M568.481,137.092h2.715v1.24c0.261-0.537,0.53-0.906,0.808-1.108c0.278-0.201,0.621-0.303,1.03-0.303
		c0.427,0,0.895,0.133,1.403,0.399l-0.898,2.065c-0.342-0.143-0.612-0.214-0.812-0.214c-0.38,0-0.675,0.157-0.884,0.471
		c-0.299,0.441-0.448,1.268-0.448,2.479v2.536h-2.914V137.092z"/>
	<path class="st1" d="M574.779,142.556l2.878-0.271c0.118,0.342,0.285,0.587,0.499,0.733c0.213,0.147,0.498,0.221,0.854,0.221
		c0.39,0,0.69-0.083,0.904-0.249c0.166-0.123,0.25-0.276,0.25-0.462c0-0.208-0.109-0.37-0.328-0.483
		c-0.156-0.081-0.572-0.181-1.246-0.299c-1.007-0.176-1.706-0.338-2.099-0.487c-0.392-0.149-0.722-0.402-0.99-0.758
		c-0.268-0.356-0.402-0.762-0.402-1.217c0-0.499,0.146-0.928,0.435-1.288c0.29-0.361,0.688-0.63,1.197-0.808
		c0.508-0.179,1.189-0.268,2.044-0.268c0.902,0,1.568,0.069,1.998,0.207s0.788,0.352,1.076,0.641
		c0.287,0.29,0.525,0.682,0.716,1.176l-2.75,0.271c-0.071-0.242-0.189-0.42-0.356-0.534c-0.228-0.152-0.503-0.228-0.826-0.228
		c-0.327,0-0.566,0.058-0.716,0.174s-0.225,0.257-0.225,0.423c0,0.186,0.096,0.325,0.285,0.42c0.19,0.095,0.604,0.181,1.239,0.256
		c0.965,0.109,1.682,0.261,2.151,0.456c0.471,0.194,0.83,0.472,1.079,0.832c0.25,0.361,0.374,0.757,0.374,1.188
		c0,0.437-0.132,0.861-0.395,1.274c-0.264,0.412-0.68,0.741-1.247,0.985s-1.341,0.366-2.318,0.366c-1.382,0-2.366-0.197-2.953-0.591
		C575.322,143.843,574.945,143.282,574.779,142.556z"/>
</g>
<g>
	<path class="st0" d="M533.583,70.62L533.583,70.62c0-13.046-10.569-23.601-23.615-23.601c-13.032,0-23.601,10.555-23.601,23.601
		c0,13.032,10.569,23.615,23.601,23.615C523.014,94.235,533.583,83.652,533.583,70.62L533.583,70.62z"/>
	<path class="st1" d="M518.449,60.964L518.449,60.964c0-1.19-3.791-2.144-8.48-2.144c-4.69,0-8.48,0.955-8.48,2.144
		c0,1.176,3.791,2.144,8.48,2.144C514.658,63.108,518.449,62.14,518.449,60.964L518.449,60.964z M509.968,63.883L509.968,63.883
		c-4.482,0-8.245-0.982-9.227-2.31v5.05c0,1.618,4.192,2.919,9.227,2.919c5.049,0,9.227-1.301,9.227-2.919v-5.05
		C518.214,62.901,514.451,63.883,509.968,63.883L509.968,63.883z M509.968,70.329L509.968,70.329c-4.482,0-8.245-0.996-9.227-2.324
		v5.049c0,1.619,4.192,2.933,9.227,2.933c5.049,0,9.227-1.314,9.227-2.933v-5.049C518.214,69.333,514.451,70.329,509.968,70.329
		L509.968,70.329z M519.196,74.452L519.196,74.452v5.049c0,1.605-4.178,2.919-9.227,2.919c-5.036,0-9.227-1.314-9.227-2.919v-5.049
		c0.982,1.314,4.745,2.31,9.227,2.31C514.451,76.762,518.214,75.766,519.196,74.452L519.196,74.452z"/>
</g>
<g>
	<path class="st0" d="M564.833,70.62L564.833,70.62c0-13.046-10.569-23.601-23.615-23.601c-13.032,0-23.601,10.555-23.601,23.601
		c0,13.032,10.569,23.615,23.601,23.615C554.264,94.235,564.833,83.652,564.833,70.62L564.833,70.62z"/>
	<path class="st1" d="M549.699,60.964L549.699,60.964c0-1.19-3.791-2.144-8.48-2.144c-4.69,0-8.48,0.955-8.48,2.144
		c0,1.176,3.791,2.144,8.48,2.144C545.908,63.108,549.699,62.14,549.699,60.964L549.699,60.964z M541.218,63.883L541.218,63.883
		c-4.482,0-8.245-0.982-9.227-2.31v5.05c0,1.618,4.192,2.919,9.227,2.919c5.049,0,9.227-1.301,9.227-2.919v-5.05
		C549.464,62.901,545.701,63.883,541.218,63.883L541.218,63.883z M541.218,70.329L541.218,70.329c-4.482,0-8.245-0.996-9.227-2.324
		v5.049c0,1.619,4.192,2.933,9.227,2.933c5.049,0,9.227-1.314,9.227-2.933v-5.049C549.464,69.333,545.701,70.329,541.218,70.329
		L541.218,70.329z M550.446,74.452L550.446,74.452v5.049c0,1.605-4.178,2.919-9.227,2.919c-5.036,0-9.227-1.314-9.227-2.919v-5.049
		c0.982,1.314,4.745,2.31,9.227,2.31C545.701,76.762,549.464,75.766,550.446,74.452L550.446,74.452z"/>
</g>
<g>
	<path class="st0" d="M596.083,70.62L596.083,70.62c0-13.046-10.569-23.601-23.615-23.601c-13.032,0-23.601,10.555-23.601,23.601
		c0,13.032,10.569,23.615,23.601,23.615C585.514,94.235,596.083,83.652,596.083,70.62L596.083,70.62z"/>
	<path class="st1" d="M580.949,60.964L580.949,60.964c0-1.19-3.791-2.144-8.48-2.144c-4.69,0-8.48,0.955-8.48,2.144
		c0,1.176,3.791,2.144,8.48,2.144C577.158,63.108,580.949,62.14,580.949,60.964L580.949,60.964z M572.468,63.883L572.468,63.883
		c-4.482,0-8.245-0.982-9.227-2.31v5.05c0,1.618,4.192,2.919,9.227,2.919c5.049,0,9.227-1.301,9.227-2.919v-5.05
		C580.714,62.901,576.951,63.883,572.468,63.883L572.468,63.883z M572.468,70.329L572.468,70.329c-4.482,0-8.245-0.996-9.227-2.324
		v5.049c0,1.619,4.192,2.933,9.227,2.933c5.049,0,9.227-1.314,9.227-2.933v-5.049C580.714,69.333,576.951,70.329,572.468,70.329
		L572.468,70.329z M581.696,74.452L581.696,74.452v5.049c0,1.605-4.178,2.919-9.227,2.919c-5.036,0-9.227-1.314-9.227-2.919v-5.049
		c0.982,1.314,4.745,2.31,9.227,2.31C576.951,76.762,580.714,75.766,581.696,74.452L581.696,74.452z"/>
</g>
<g>
	<path class="st0" d="M533.583,179.62L533.583,179.62c0-13.046-10.569-23.601-23.615-23.601c-13.032,0-23.601,10.555-23.601,23.601
		c0,13.032,10.569,23.615,23.601,23.615C523.014,203.235,533.583,192.652,533.583,179.62L533.583,179.62z"/>
	<path class="st1" d="M518.449,169.964L518.449,169.964c0-1.19-3.791-2.144-8.48-2.144c-4.69,0-8.48,0.955-8.48,2.144
		c0,1.176,3.791,2.144,8.48,2.144C514.658,172.108,518.449,171.14,518.449,169.964L518.449,169.964z M509.968,172.883
		L509.968,172.883c-4.482,0-8.245-0.982-9.227-2.31v5.05c0,1.619,4.192,2.919,9.227,2.919c5.049,0,9.227-1.301,9.227-2.919v-5.05
		C518.214,171.9,514.451,172.883,509.968,172.883L509.968,172.883z M509.968,179.329L509.968,179.329
		c-4.482,0-8.245-0.996-9.227-2.324v5.049c0,1.619,4.192,2.933,9.227,2.933c5.049,0,9.227-1.314,9.227-2.933v-5.049
		C518.214,178.333,514.451,179.329,509.968,179.329L509.968,179.329z M519.196,183.452L519.196,183.452v5.049
		c0,1.605-4.178,2.919-9.227,2.919c-5.036,0-9.227-1.314-9.227-2.919v-5.049c0.982,1.314,4.745,2.31,9.227,2.31
		C514.451,185.762,518.214,184.766,519.196,183.452L519.196,183.452z"/>
</g>
<g>
	<path class="st0" d="M564.833,179.62L564.833,179.62c0-13.046-10.569-23.601-23.615-23.601c-13.032,0-23.601,10.555-23.601,23.601
		c0,13.032,10.569,23.615,23.601,23.615C554.264,203.235,564.833,192.652,564.833,179.62L564.833,179.62z"/>
	<path class="st1" d="M549.699,169.964L549.699,169.964c0-1.19-3.791-2.144-8.48-2.144c-4.69,0-8.48,0.955-8.48,2.144
		c0,1.176,3.791,2.144,8.48,2.144C545.908,172.108,549.699,171.14,549.699,169.964L549.699,169.964z M541.218,172.883
		L541.218,172.883c-4.482,0-8.245-0.982-9.227-2.31v5.05c0,1.619,4.192,2.919,9.227,2.919c5.049,0,9.227-1.301,9.227-2.919v-5.05
		C549.464,171.9,545.701,172.883,541.218,172.883L541.218,172.883z M541.218,179.329L541.218,179.329
		c-4.482,0-8.245-0.996-9.227-2.324v5.049c0,1.619,4.192,2.933,9.227,2.933c5.049,0,9.227-1.314,9.227-2.933v-5.049
		C549.464,178.333,545.701,179.329,541.218,179.329L541.218,179.329z M550.446,183.452L550.446,183.452v5.049
		c0,1.605-4.178,2.919-9.227,2.919c-5.036,0-9.227-1.314-9.227-2.919v-5.049c0.982,1.314,4.745,2.31,9.227,2.31
		C545.701,185.762,549.464,184.766,550.446,183.452L550.446,183.452z"/>
</g>
<g>
	<path class="st0" d="M596.083,179.62L596.083,179.62c0-13.046-10.569-23.601-23.615-23.601c-13.032,0-23.601,10.555-23.601,23.601
		c0,13.032,10.569,23.615,23.601,23.615C585.514,203.235,596.083,192.652,596.083,179.62L596.083,179.62z"/>
	<path class="st1" d="M580.949,169.964L580.949,169.964c0-1.19-3.791-2.144-8.48-2.144c-4.69,0-8.48,0.955-8.48,2.144
		c0,1.176,3.791,2.144,8.48,2.144C577.158,172.108,580.949,171.14,580.949,169.964L580.949,169.964z M572.468,172.883
		L572.468,172.883c-4.482,0-8.245-0.982-9.227-2.31v5.05c0,1.619,4.192,2.919,9.227,2.919c5.049,0,9.227-1.301,9.227-2.919v-5.05
		C580.714,171.9,576.951,172.883,572.468,172.883L572.468,172.883z M572.468,179.329L572.468,179.329
		c-4.482,0-8.245-0.996-9.227-2.324v5.049c0,1.619,4.192,2.933,9.227,2.933c5.049,0,9.227-1.314,9.227-2.933v-5.049
		C580.714,178.333,576.951,179.329,572.468,179.329L572.468,179.329z M581.696,183.452L581.696,183.452v5.049
		c0,1.605-4.178,2.919-9.227,2.919c-5.036,0-9.227-1.314-9.227-2.919v-5.049c0.982,1.314,4.745,2.31,9.227,2.31
		C576.951,185.762,580.714,184.766,581.696,183.452L581.696,183.452z"/>
</g>
<polygon class="st4" points="331.437,113.019 319.093,119.192 331.438,125.363 331.437,113.019 "/>
<path class="st6" d="M329.818,119.193h78.409c0,1.791,0,5.197,0,5.197"/>
<g>
	<g>
		<line class="st7" x1="472.855" y1="169.779" x2="467.855" y2="169.779"/>
		<line class="st8" x1="461.784" y1="169.779" x2="416.252" y2="169.779"/>
		<polyline class="st7" points="413.216,169.779 408.216,169.779 408.217,164.779 		"/>
		<line class="st9" x1="408.217" y1="159.01" x2="408.225" y2="69.595"/>
		<polyline class="st7" points="408.225,66.711 408.225,61.711 413.225,61.711 		"/>
		<line class="st10" x1="419.247" y1="61.711" x2="464.407" y2="61.711"/>
		<line class="st7" x1="467.417" y1="61.711" x2="472.417" y2="61.711"/>
	</g>
</g>
<polygon class="st4" points="331.437,125.366 319.093,119.193 331.438,113.022 331.437,125.366 "/>
<g>
	<g>
		<path class="st2" d="M330.917,93.971l1.948-9.306h6.513l-0.33,1.555h-4.596l-0.47,2.234h4.507l-0.323,1.555h-4.507l-0.825,3.961
			H330.917z"/>
		<path class="st2" d="M345.434,91.166h-4.57c-0.004,0.072-0.006,0.127-0.006,0.165c0,0.449,0.128,0.811,0.384,1.085
			s0.568,0.413,0.937,0.413c0.604,0,1.077-0.313,1.415-0.939l1.632,0.273c-0.317,0.656-0.742,1.148-1.273,1.476
			c-0.53,0.328-1.126,0.492-1.786,0.492c-0.906,0-1.643-0.287-2.209-0.86c-0.567-0.574-0.851-1.332-0.851-2.276
			c0-0.922,0.256-1.744,0.768-2.463c0.698-0.973,1.695-1.46,2.99-1.46c0.825,0,1.48,0.255,1.968,0.765
			c0.486,0.51,0.729,1.224,0.729,2.142C345.561,90.418,345.519,90.814,345.434,91.166z M343.897,90.055
			c0.005-0.081,0.007-0.142,0.007-0.184c0-0.5-0.112-0.874-0.337-1.124c-0.224-0.25-0.524-0.375-0.901-0.375
			c-0.376,0-0.714,0.142-1.013,0.425c-0.298,0.284-0.5,0.703-0.605,1.257H343.897z"/>
		<path class="st2" d="M352.703,91.166h-4.57c-0.005,0.072-0.007,0.127-0.007,0.165c0,0.449,0.128,0.811,0.385,1.085
			c0.256,0.275,0.567,0.413,0.936,0.413c0.605,0,1.077-0.313,1.416-0.939l1.631,0.273c-0.317,0.656-0.741,1.148-1.272,1.476
			c-0.531,0.328-1.127,0.492-1.787,0.492c-0.905,0-1.642-0.287-2.209-0.86c-0.566-0.574-0.851-1.332-0.851-2.276
			c0-0.922,0.256-1.744,0.769-2.463c0.698-0.973,1.694-1.46,2.989-1.46c0.825,0,1.481,0.255,1.968,0.765
			c0.487,0.51,0.73,1.224,0.73,2.142C352.83,90.418,352.787,90.814,352.703,91.166z M351.167,90.055
			c0.004-0.081,0.006-0.142,0.006-0.184c0-0.5-0.112-0.874-0.336-1.124c-0.225-0.25-0.525-0.375-0.901-0.375
			c-0.377,0-0.714,0.142-1.013,0.425c-0.298,0.284-0.5,0.703-0.606,1.257H351.167z"/>
		<path class="st2" d="M359.636,93.971h-1.727l0.152-0.73c-0.33,0.317-0.655,0.545-0.975,0.682
			c-0.319,0.138-0.681,0.207-1.082,0.207c-0.699,0-1.265-0.238-1.698-0.714c-0.435-0.476-0.65-1.179-0.65-2.11
			c0-1.079,0.304-2.055,0.913-2.926s1.416-1.308,2.419-1.308c0.905,0,1.585,0.36,2.038,1.079l0.729-3.485h1.821L359.636,93.971z
			 M355.427,91.229c0,0.482,0.122,0.859,0.365,1.13s0.543,0.406,0.898,0.406c0.33,0,0.638-0.113,0.923-0.34
			c0.286-0.226,0.515-0.572,0.686-1.038c0.172-0.465,0.257-0.912,0.257-1.339c0-0.487-0.131-0.88-0.393-1.181
			c-0.263-0.3-0.565-0.451-0.908-0.451c-0.533,0-0.971,0.296-1.314,0.889C355.599,89.898,355.427,90.539,355.427,91.229z"/>
		<path class="st2" d="M370.234,93.971h-1.816l-0.336-7.776l-1.479,7.776h-1.727l1.941-9.306h2.73l0.285,6.519l3.174-6.519h2.762
			l-1.949,9.306h-1.746l1.835-7.719L370.234,93.971z"/>
		<path class="st2" d="M375.927,91.172c0-1.249,0.353-2.244,1.057-2.987c0.705-0.742,1.631-1.114,2.777-1.114
			c0.994,0,1.771,0.274,2.33,0.822c0.559,0.548,0.838,1.286,0.838,2.212c0,1.092-0.35,2.036-1.048,2.831s-1.634,1.193-2.806,1.193
			c-0.635,0-1.197-0.127-1.688-0.381s-0.856-0.614-1.099-1.079C376.048,92.205,375.927,91.705,375.927,91.172z M381.119,89.871
			c0-0.432-0.126-0.777-0.378-1.038c-0.252-0.26-0.576-0.39-0.975-0.39c-0.393,0-0.742,0.122-1.047,0.365
			c-0.305,0.244-0.542,0.597-0.711,1.061c-0.169,0.463-0.254,0.89-0.254,1.279c0,0.482,0.131,0.865,0.394,1.149
			s0.593,0.425,0.99,0.425c0.499,0,0.918-0.214,1.257-0.641C380.878,91.475,381.119,90.738,381.119,89.871z"/>
		<path class="st2" d="M389.828,93.971h-1.727l0.152-0.73c-0.33,0.317-0.655,0.545-0.975,0.682
			c-0.319,0.138-0.681,0.207-1.082,0.207c-0.699,0-1.265-0.238-1.698-0.714c-0.434-0.476-0.651-1.179-0.651-2.11
			c0-1.079,0.305-2.055,0.914-2.926s1.416-1.308,2.419-1.308c0.905,0,1.585,0.36,2.038,1.079l0.729-3.485h1.821L389.828,93.971z
			 M385.619,91.229c0,0.482,0.122,0.859,0.365,1.13s0.543,0.406,0.898,0.406c0.33,0,0.638-0.113,0.923-0.34
			c0.286-0.226,0.515-0.572,0.686-1.038c0.172-0.465,0.257-0.912,0.257-1.339c0-0.487-0.131-0.88-0.393-1.181
			c-0.263-0.3-0.565-0.451-0.908-0.451c-0.533,0-0.971,0.296-1.314,0.889C385.791,89.898,385.619,90.539,385.619,91.229z"/>
		<path class="st2" d="M398.105,91.166h-4.57c-0.004,0.072-0.006,0.127-0.006,0.165c0,0.449,0.128,0.811,0.384,1.085
			s0.567,0.413,0.937,0.413c0.604,0,1.076-0.313,1.415-0.939l1.632,0.273c-0.318,0.656-0.742,1.148-1.273,1.476
			c-0.531,0.328-1.127,0.492-1.787,0.492c-0.905,0-1.642-0.287-2.209-0.86c-0.566-0.574-0.85-1.332-0.85-2.276
			c0-0.922,0.256-1.744,0.768-2.463c0.698-0.973,1.695-1.46,2.99-1.46c0.824,0,1.48,0.255,1.967,0.765
			c0.487,0.51,0.73,1.224,0.73,2.142C398.232,90.418,398.19,90.814,398.105,91.166z M396.569,90.055
			c0.004-0.081,0.007-0.142,0.007-0.184c0-0.5-0.112-0.874-0.337-1.124s-0.524-0.375-0.901-0.375s-0.714,0.142-1.013,0.425
			c-0.298,0.284-0.5,0.703-0.606,1.257H396.569z"/>
		<path class="st2" d="M398.798,93.971l1.949-9.306h1.814l-1.941,9.306H398.798z"/>
		<path class="st2" d="M333.225,109.571h-1.917l1.949-9.306h3.783c0.673,0,1.205,0.079,1.597,0.238
			c0.391,0.158,0.701,0.421,0.93,0.787c0.229,0.366,0.343,0.803,0.343,1.311c0,0.47-0.091,0.927-0.273,1.371
			c-0.182,0.444-0.405,0.8-0.669,1.066c-0.265,0.267-0.55,0.469-0.854,0.606c-0.305,0.137-0.715,0.242-1.231,0.314
			c-0.3,0.042-0.863,0.063-1.688,0.063h-1.225L333.225,109.571z M334.285,104.48h0.59c1.012,0,1.687-0.063,2.025-0.19
			c0.338-0.127,0.604-0.33,0.8-0.609c0.194-0.279,0.292-0.586,0.292-0.92c0-0.224-0.05-0.408-0.149-0.552s-0.239-0.249-0.419-0.314
			c-0.18-0.065-0.581-0.098-1.203-0.098h-1.371L334.285,104.48z"/>
		<path class="st2" d="M342.582,104.741l-1.777-0.152c0.203-0.601,0.558-1.071,1.063-1.409s1.176-0.508,2.009-0.508
			c0.868,0,1.509,0.174,1.924,0.524c0.414,0.349,0.622,0.775,0.622,1.279c0,0.203-0.019,0.419-0.054,0.647
			c-0.036,0.229-0.162,0.83-0.378,1.803c-0.178,0.804-0.267,1.367-0.267,1.688c0,0.288,0.051,0.607,0.152,0.958h-1.771
			c-0.071-0.246-0.116-0.5-0.133-0.762c-0.267,0.296-0.573,0.523-0.921,0.683c-0.347,0.158-0.696,0.238-1.047,0.238
			c-0.559,0-1.021-0.183-1.384-0.549c-0.364-0.366-0.546-0.836-0.546-1.412c0-0.643,0.2-1.157,0.6-1.542
			c0.4-0.385,1.114-0.618,2.143-0.698c0.867-0.072,1.447-0.159,1.739-0.26c0.076-0.254,0.114-0.457,0.114-0.609
			c0-0.195-0.078-0.357-0.235-0.489c-0.156-0.131-0.389-0.197-0.698-0.197c-0.325,0-0.583,0.066-0.771,0.2
			C342.778,104.306,342.65,104.495,342.582,104.741z M344.315,106.429c-0.11,0.03-0.256,0.057-0.438,0.083
			c-0.914,0.11-1.511,0.271-1.79,0.482c-0.198,0.152-0.298,0.357-0.298,0.616c0,0.211,0.076,0.39,0.229,0.537
			c0.152,0.146,0.354,0.219,0.603,0.219c0.275,0,0.534-0.066,0.778-0.2c0.243-0.133,0.425-0.305,0.546-0.514
			c0.12-0.21,0.227-0.537,0.32-0.981L344.315,106.429z"/>
		<path class="st2" d="M348.588,102.83h1.701l-0.272,1.308c0.635-0.978,1.322-1.466,2.063-1.466c0.263,0,0.544,0.065,0.845,0.197
			l-0.698,1.492c-0.165-0.059-0.341-0.089-0.527-0.089c-0.313,0-0.632,0.119-0.955,0.355c-0.324,0.237-0.576,0.553-0.759,0.949
			c-0.182,0.396-0.361,1.023-0.539,1.882l-0.444,2.114h-1.822L348.588,102.83z"/>
		<path class="st2" d="M354.911,104.741l-1.778-0.152c0.203-0.601,0.558-1.071,1.063-1.409s1.176-0.508,2.01-0.508
			c0.867,0,1.508,0.174,1.922,0.524c0.416,0.349,0.623,0.775,0.623,1.279c0,0.203-0.018,0.419-0.055,0.647
			c-0.035,0.229-0.162,0.83-0.377,1.803c-0.178,0.804-0.268,1.367-0.268,1.688c0,0.288,0.051,0.607,0.152,0.958h-1.77
			c-0.072-0.246-0.117-0.5-0.135-0.762c-0.266,0.296-0.572,0.523-0.92,0.683c-0.348,0.158-0.696,0.238-1.047,0.238
			c-0.559,0-1.021-0.183-1.384-0.549c-0.364-0.366-0.546-0.836-0.546-1.412c0-0.643,0.2-1.157,0.6-1.542
			c0.4-0.385,1.113-0.618,2.143-0.698c0.867-0.072,1.447-0.159,1.738-0.26c0.076-0.254,0.115-0.457,0.115-0.609
			c0-0.195-0.078-0.357-0.234-0.489c-0.158-0.131-0.391-0.197-0.699-0.197c-0.326,0-0.582,0.066-0.771,0.2
			C355.106,104.306,354.978,104.495,354.911,104.741z M356.644,106.429c-0.111,0.03-0.256,0.057-0.438,0.083
			c-0.914,0.11-1.512,0.271-1.791,0.482c-0.199,0.152-0.299,0.357-0.299,0.616c0,0.211,0.076,0.39,0.229,0.537
			c0.152,0.146,0.354,0.219,0.604,0.219c0.275,0,0.535-0.066,0.777-0.2c0.244-0.133,0.426-0.305,0.547-0.514
			c0.119-0.21,0.227-0.537,0.32-0.981L356.644,106.429z"/>
		<path class="st2" d="M360.961,102.83h1.713l-0.171,0.819c0.669-0.652,1.371-0.978,2.107-0.978c0.508,0,0.899,0.106,1.175,0.317
			c0.274,0.211,0.45,0.503,0.526,0.876c0.232-0.338,0.567-0.622,1.003-0.851s0.889-0.343,1.358-0.343
			c0.537,0,0.956,0.144,1.257,0.432s0.451,0.668,0.451,1.143c0,0.233-0.06,0.635-0.178,1.206l-0.863,4.12h-1.822l0.863-4.12
			c0.105-0.516,0.158-0.808,0.158-0.876c0-0.186-0.056-0.333-0.168-0.441c-0.112-0.108-0.28-0.162-0.504-0.162
			c-0.453,0-0.857,0.239-1.213,0.717c-0.258,0.343-0.479,0.95-0.66,1.822l-0.641,3.06h-1.822l0.851-4.075
			c0.098-0.47,0.146-0.774,0.146-0.914c0-0.178-0.06-0.324-0.181-0.438c-0.12-0.114-0.286-0.171-0.498-0.171
			c-0.199,0-0.404,0.059-0.616,0.178c-0.211,0.119-0.396,0.281-0.555,0.489c-0.159,0.208-0.295,0.474-0.41,0.8
			c-0.051,0.152-0.133,0.497-0.247,1.035l-0.647,3.098h-1.822L360.961,102.83z"/>
		<path class="st2" d="M377.73,106.766h-4.57c-0.004,0.072-0.006,0.127-0.006,0.165c0,0.449,0.128,0.811,0.384,1.085
			s0.567,0.413,0.937,0.413c0.604,0,1.076-0.313,1.415-0.939l1.632,0.273c-0.318,0.656-0.742,1.148-1.273,1.476
			c-0.531,0.328-1.127,0.492-1.787,0.492c-0.905,0-1.642-0.287-2.209-0.86c-0.566-0.574-0.85-1.332-0.85-2.276
			c0-0.922,0.256-1.744,0.768-2.463c0.698-0.973,1.695-1.46,2.99-1.46c0.824,0,1.48,0.255,1.967,0.765
			c0.487,0.51,0.73,1.224,0.73,2.142C377.857,106.019,377.815,106.415,377.73,106.766z M376.194,105.655
			c0.004-0.081,0.007-0.142,0.007-0.184c0-0.5-0.112-0.874-0.337-1.124s-0.524-0.375-0.901-0.375s-0.714,0.142-1.013,0.425
			c-0.298,0.284-0.5,0.703-0.606,1.257H376.194z"/>
		<path class="st2" d="M378.776,104.182l0.279-1.352h0.889l0.222-1.079l2.089-1.257l-0.489,2.336h1.111l-0.279,1.352h-1.117
			l-0.59,2.825c-0.106,0.512-0.159,0.804-0.159,0.876c0,0.14,0.044,0.249,0.134,0.327c0.088,0.078,0.249,0.117,0.482,0.117
			c0.08,0,0.281-0.015,0.603-0.044l-0.286,1.352c-0.313,0.063-0.635,0.095-0.965,0.095c-0.643,0-1.11-0.124-1.402-0.372
			c-0.292-0.247-0.438-0.591-0.438-1.031c0-0.208,0.078-0.686,0.234-1.435l0.564-2.71H378.776z"/>
		<path class="st2" d="M389.173,106.766h-4.57c-0.004,0.072-0.006,0.127-0.006,0.165c0,0.449,0.128,0.811,0.384,1.085
			s0.567,0.413,0.937,0.413c0.604,0,1.076-0.313,1.415-0.939l1.632,0.273c-0.318,0.656-0.742,1.148-1.273,1.476
			c-0.531,0.328-1.127,0.492-1.787,0.492c-0.905,0-1.642-0.287-2.209-0.86c-0.566-0.574-0.85-1.332-0.85-2.276
			c0-0.922,0.256-1.744,0.768-2.463c0.698-0.973,1.695-1.46,2.99-1.46c0.824,0,1.48,0.255,1.967,0.765
			c0.487,0.51,0.73,1.224,0.73,2.142C389.3,106.019,389.258,106.415,389.173,106.766z M387.637,105.655
			c0.004-0.081,0.007-0.142,0.007-0.184c0-0.5-0.112-0.874-0.337-1.124s-0.524-0.375-0.901-0.375s-0.714,0.142-1.013,0.425
			c-0.298,0.284-0.5,0.703-0.606,1.257H387.637z"/>
		<path class="st2" d="M391.186,102.83h1.701l-0.273,1.308c0.635-0.978,1.323-1.466,2.063-1.466c0.263,0,0.544,0.065,0.845,0.197
			l-0.699,1.492c-0.164-0.059-0.34-0.089-0.526-0.089c-0.313,0-0.632,0.119-0.955,0.355c-0.324,0.237-0.577,0.553-0.759,0.949
			c-0.182,0.396-0.361,1.023-0.539,1.882l-0.445,2.114h-1.821L391.186,102.83z"/>
		<path class="st2" d="M394.585,107.686l1.766-0.279c0.156,0.373,0.351,0.636,0.584,0.791c0.232,0.154,0.55,0.231,0.951,0.231
			c0.415,0,0.747-0.093,0.997-0.279c0.174-0.127,0.261-0.281,0.261-0.463c0-0.123-0.045-0.233-0.134-0.33
			c-0.093-0.093-0.345-0.208-0.755-0.343c-1.101-0.364-1.782-0.652-2.045-0.863c-0.41-0.33-0.615-0.762-0.615-1.295
			s0.199-0.992,0.597-1.377c0.555-0.538,1.378-0.806,2.47-0.806c0.867,0,1.523,0.159,1.967,0.476
			c0.445,0.317,0.727,0.747,0.845,1.289l-1.683,0.292c-0.088-0.246-0.232-0.43-0.432-0.552c-0.271-0.165-0.596-0.248-0.977-0.248
			s-0.655,0.063-0.822,0.19s-0.251,0.273-0.251,0.438c0,0.169,0.085,0.309,0.254,0.419c0.105,0.068,0.446,0.186,1.022,0.355
			c0.889,0.258,1.482,0.512,1.783,0.762c0.423,0.351,0.635,0.774,0.635,1.27c0,0.639-0.269,1.193-0.807,1.663
			c-0.537,0.47-1.295,0.705-2.271,0.705c-0.974,0-1.726-0.179-2.257-0.537C395.137,108.836,394.776,108.333,394.585,107.686z"/>
	</g>
</g>
<g>
	<g>
		<path class="st2" d="M427.877,187.625l2.248-10.737h2.893c0.807,0,1.321,0.013,1.546,0.036c0.444,0.045,0.841,0.135,1.19,0.271
			c0.349,0.137,0.666,0.328,0.952,0.575c0.285,0.246,0.532,0.543,0.739,0.89c0.208,0.347,0.367,0.746,0.48,1.197
			c0.111,0.452,0.168,0.946,0.168,1.483c0,1.157-0.221,2.184-0.663,3.08c-0.441,0.896-0.997,1.607-1.666,2.135
			c-0.513,0.41-1.175,0.713-1.985,0.908c-0.459,0.107-1.164,0.161-2.116,0.161H427.877z M430.447,185.896h1.121
			c0.81,0,1.397-0.05,1.761-0.15c0.364-0.1,0.697-0.286,1-0.561c0.435-0.395,0.801-0.922,1.099-1.582
			c0.298-0.658,0.447-1.436,0.447-2.328c0-0.762-0.124-1.335-0.37-1.718c-0.247-0.384-0.551-0.639-0.912-0.766
			c-0.254-0.088-0.706-0.132-1.354-0.132h-1.282L430.447,185.896z"/>
		<path class="st2" d="M441.594,182.051l-2.051-0.176c0.234-0.692,0.644-1.234,1.228-1.625c0.583-0.391,1.355-0.586,2.317-0.586
			c1.001,0,1.741,0.201,2.22,0.604c0.479,0.403,0.718,0.896,0.718,1.477c0,0.234-0.021,0.482-0.063,0.746
			c-0.041,0.264-0.187,0.958-0.436,2.08c-0.205,0.929-0.308,1.578-0.308,1.949c0,0.332,0.059,0.7,0.176,1.105h-2.044
			c-0.083-0.283-0.134-0.576-0.153-0.879c-0.308,0.342-0.662,0.604-1.062,0.787c-0.401,0.184-0.804,0.275-1.209,0.275
			c-0.645,0-1.177-0.212-1.597-0.634c-0.42-0.423-0.63-0.966-0.63-1.63c0-0.742,0.23-1.335,0.692-1.779
			c0.461-0.444,1.285-0.713,2.472-0.807c1.001-0.082,1.67-0.183,2.007-0.3c0.088-0.293,0.132-0.527,0.132-0.703
			c0-0.225-0.091-0.412-0.271-0.563s-0.449-0.228-0.805-0.228c-0.377,0-0.673,0.077-0.891,0.23
			C441.82,181.55,441.672,181.769,441.594,182.051z M443.594,184c-0.127,0.034-0.296,0.065-0.506,0.095
			c-1.055,0.127-1.742,0.313-2.064,0.557c-0.23,0.176-0.345,0.413-0.345,0.71c0,0.245,0.088,0.451,0.264,0.619
			c0.176,0.169,0.407,0.253,0.696,0.253c0.316,0,0.616-0.077,0.896-0.23c0.281-0.154,0.491-0.352,0.63-0.594
			c0.14-0.241,0.263-0.618,0.37-1.132L443.594,184z"/>
		<path class="st2" d="M447.542,181.406l0.322-1.56h1.025l0.257-1.245l2.409-1.45l-0.563,2.695h1.281l-0.322,1.56h-1.289
			l-0.682,3.26c-0.122,0.591-0.183,0.928-0.183,1.011c0,0.161,0.052,0.287,0.153,0.377c0.104,0.091,0.288,0.136,0.557,0.136
			c0.093,0,0.325-0.017,0.696-0.051l-0.329,1.56c-0.362,0.073-0.732,0.11-1.113,0.11c-0.743,0-1.282-0.144-1.619-0.429
			c-0.337-0.286-0.506-0.683-0.506-1.19c0-0.239,0.091-0.791,0.271-1.655l0.652-3.128H447.542z"/>
		<path class="st2" d="M454.931,182.051l-2.051-0.176c0.234-0.692,0.644-1.234,1.228-1.625c0.583-0.391,1.355-0.586,2.317-0.586
			c1.001,0,1.741,0.201,2.22,0.604c0.479,0.403,0.718,0.896,0.718,1.477c0,0.234-0.021,0.482-0.063,0.746
			c-0.041,0.264-0.187,0.958-0.436,2.08c-0.205,0.929-0.308,1.578-0.308,1.949c0,0.332,0.059,0.7,0.176,1.105h-2.044
			c-0.083-0.283-0.134-0.576-0.153-0.879c-0.308,0.342-0.662,0.604-1.062,0.787c-0.401,0.184-0.804,0.275-1.209,0.275
			c-0.645,0-1.177-0.212-1.597-0.634c-0.42-0.423-0.63-0.966-0.63-1.63c0-0.742,0.23-1.335,0.692-1.779
			c0.461-0.444,1.285-0.713,2.472-0.807c1.001-0.082,1.67-0.183,2.007-0.3c0.088-0.293,0.132-0.527,0.132-0.703
			c0-0.225-0.091-0.412-0.271-0.563s-0.449-0.228-0.805-0.228c-0.377,0-0.673,0.077-0.891,0.23
			C455.157,181.55,455.009,181.769,454.931,182.051z M456.931,184c-0.127,0.034-0.296,0.065-0.506,0.095
			c-1.055,0.127-1.742,0.313-2.064,0.557c-0.23,0.176-0.345,0.413-0.345,0.71c0,0.245,0.088,0.451,0.264,0.619
			c0.176,0.169,0.407,0.253,0.696,0.253c0.316,0,0.616-0.077,0.896-0.23c0.281-0.154,0.491-0.352,0.63-0.594
			c0.14-0.241,0.263-0.618,0.37-1.132L456.931,184z"/>
	</g>
</g>
<g>
	<g>
		<path class="st2" d="M437.683,50.332h-4.256l-1.289,2.373h-2.27l6.071-10.737h2.454l1.742,10.737h-2.094L437.683,50.332z
			 M437.411,48.545l-0.622-4.321l-2.593,4.321H437.411z"/>
		<path class="st2" d="M443.659,52.705h-2.213l2.249-10.737h4.365c0.776,0,1.391,0.092,1.842,0.274
			c0.452,0.184,0.81,0.486,1.073,0.908c0.264,0.423,0.396,0.927,0.396,1.513c0,0.542-0.105,1.069-0.315,1.582
			s-0.467,0.923-0.772,1.23c-0.305,0.308-0.634,0.541-0.985,0.699c-0.352,0.159-0.825,0.28-1.42,0.363
			c-0.348,0.049-0.996,0.073-1.949,0.073h-1.413L443.659,52.705z M444.882,46.831h0.682c1.166,0,1.945-0.073,2.336-0.22
			s0.698-0.381,0.923-0.703s0.337-0.676,0.337-1.062c0-0.259-0.058-0.471-0.172-0.637c-0.115-0.166-0.276-0.287-0.483-0.362
			c-0.208-0.076-0.671-0.114-1.388-0.114h-1.582L444.882,46.831z"/>
		<path class="st2" d="M451.408,52.705l2.249-10.737h2.204l-2.24,10.737H451.408z"/>
	</g>
</g>
<g>
</g>
<g>
</g>
<g>
</g>
<g>
</g>
<g>
</g>
<g>
</g>
</svg>
