<?xml version="1.0" encoding="utf-8"?>
<!-- Generator: Adobe Illustrator 21.0.2, SVG Export Plug-In . SVG Version: 6.00 Build 0)  -->
<svg version="1.1" id="レイヤー_1" xmlns="http://www.w3.org/2000/svg" xmlns:xlink="http://www.w3.org/1999/xlink" x="0px"
	 y="0px" viewBox="0 0 870.667 349" style="enable-background:new 0 0 870.667 349;"
	 xml:space="preserve">
<style type="text/css">
	.st0{fill-rule:evenodd;clip-rule:evenodd;fill:#BFBFBF;stroke:#4F81BD;stroke-miterlimit:10;}
	.st1{fill:none;stroke:#4F81BD;stroke-linejoin:round;stroke-miterlimit:10;}
	.st2{fill:#FFFFFF;}
	.st3{fill:#595959;}
	.st4{fill:#31859C;}
	.st5{fill:#B5B5B5;}
	.st6{fill:#4BACC6;}
</style>
<rect x="11.883" y="209.478" class="st0" width="98.385" height="58.335"/>
<path class="st1" d="M11.883,216.77h98.385 M24.182,209.478v58.335"/>
<g>
	<path class="st2" d="M36.321,228.116h4.072l1.571,6.098l1.56-6.098h4.07v10.021h-2.536v-7.643l-1.954,7.643h-2.295l-1.951-7.643
		v7.643h-2.536V228.116z"/>
	<path class="st2" d="M49.692,228.116h3.104v10.021h-3.104V228.116z"/>
	<path class="st2" d="M55.038,228.116h2.892l3.773,5.544v-5.544h2.919v10.021h-2.919l-3.753-5.502v5.502h-2.912V228.116z"/>
	<path class="st2" d="M66.802,228.116h3.104v10.021h-3.104V228.116z"/>
	<path class="st2" d="M72.148,228.116h2.892l3.773,5.544v-5.544h2.919v10.021h-2.919l-3.753-5.502v5.502h-2.912V228.116z"/>
	<path class="st2" d="M88.828,234.508v-2.085h4.785v4.272c-0.916,0.625-1.726,1.049-2.43,1.275s-1.539,0.338-2.505,0.338
		c-1.189,0-2.159-0.203-2.909-0.608s-1.331-1.009-1.743-1.812s-0.619-1.723-0.619-2.762c0-1.094,0.226-2.045,0.677-2.854
		s1.112-1.423,1.982-1.842c0.679-0.324,1.593-0.485,2.741-0.485c1.107,0,1.936,0.1,2.485,0.301s1.005,0.512,1.367,0.933
		s0.635,0.956,0.817,1.603l-2.987,0.533c-0.123-0.378-0.332-0.667-0.625-0.868s-0.669-0.301-1.125-0.301
		c-0.679,0-1.22,0.236-1.624,0.708s-0.605,1.218-0.605,2.239c0,1.084,0.204,1.859,0.612,2.324s0.977,0.697,1.706,0.697
		c0.346,0,0.677-0.05,0.991-0.15s0.674-0.271,1.08-0.513v-0.943H88.828z"/>
</g>
<g>
	<path class="st2" d="M46.475,243.812h3.237l2.255,7.212l2.227-7.212h3.143l-3.721,10.021h-3.356L46.475,243.812z"/>
	<path class="st2" d="M58.267,243.812h2.782v1.894h-2.782V243.812z M58.267,246.573h2.782v7.26h-2.782V246.573z"/>
	<path class="st2" d="M70.886,250.894h-5.578c0.05,0.446,0.171,0.779,0.362,0.998c0.269,0.314,0.62,0.472,1.053,0.472
		c0.273,0,0.533-0.068,0.779-0.205c0.15-0.087,0.312-0.239,0.485-0.458l2.741,0.253c-0.419,0.729-0.925,1.252-1.518,1.569
		c-0.592,0.316-1.442,0.475-2.55,0.475c-0.961,0-1.718-0.136-2.27-0.406c-0.551-0.271-1.008-0.702-1.371-1.293
		c-0.362-0.59-0.543-1.283-0.543-2.081c0-1.135,0.363-2.053,1.09-2.755c0.727-0.702,1.73-1.053,3.011-1.053
		c1.039,0,1.859,0.157,2.461,0.472s1.06,0.77,1.374,1.367s0.472,1.374,0.472,2.331V250.894z M68.056,249.561
		c-0.055-0.538-0.199-0.923-0.434-1.155s-0.543-0.349-0.926-0.349c-0.442,0-0.795,0.175-1.06,0.526
		c-0.168,0.219-0.276,0.544-0.321,0.978H68.056z"/>
	<path class="st2" d="M71.351,246.573h2.69l1.164,4.57l1.473-4.57h2.514l1.535,4.582l1.17-4.582h2.674l-2.674,7.26h-2.476
		l-1.471-4.368l-1.421,4.368h-2.487L71.351,246.573z"/>
</g>
<g>
	<path class="st3" d="M405.708,188.028h9.413v2.475h-3.158v7.547h-3.097v-7.547h-3.158V188.028z"/>
	<path class="st3" d="M416.563,198.05v-10.021h5.161c0.957,0,1.688,0.082,2.194,0.246s0.914,0.468,1.224,0.913
		s0.465,0.985,0.465,1.624c0,0.556-0.119,1.036-0.355,1.439c-0.237,0.403-0.563,0.73-0.979,0.981
		c-0.264,0.16-0.627,0.292-1.087,0.396c0.369,0.123,0.638,0.247,0.806,0.37c0.114,0.082,0.279,0.257,0.495,0.527
		c0.216,0.269,0.361,0.477,0.434,0.623l1.5,2.904h-3.499l-1.655-3.063c-0.209-0.396-0.396-0.654-0.561-0.772
		c-0.223-0.155-0.476-0.232-0.759-0.232h-0.273v4.067H416.563z M419.673,192.089h1.306c0.141,0,0.415-0.045,0.82-0.137
		c0.205-0.041,0.373-0.146,0.502-0.314s0.195-0.362,0.195-0.581c0-0.324-0.103-0.572-0.308-0.745s-0.59-0.26-1.155-0.26h-1.36
		V192.089z"/>
	<path class="st3" d="M433.573,196.396h-3.516l-0.489,1.654h-3.162l3.767-10.021h3.378l3.766,10.021h-3.243L433.573,196.396z
		 M432.93,194.229l-1.106-3.603l-1.095,3.603H432.93z"/>
	<path class="st3" d="M438.424,188.028h3.104v10.021h-3.104V188.028z"/>
	<path class="st3" d="M443.77,188.028h2.892l3.773,5.544v-5.544h2.919v10.021h-2.919l-3.753-5.502v5.502h-2.912V188.028z"/>
	<path class="st3" d="M406.378,205.828h4.072l1.571,6.098l1.56-6.098h4.07v10.021h-2.536v-7.643l-1.954,7.643h-2.295l-1.951-7.643
		v7.643h-2.536V205.828z"/>
	<path class="st3" d="M419.236,210.846c0-1.636,0.456-2.91,1.367-3.821s2.181-1.367,3.808-1.367c1.668,0,2.953,0.448,3.855,1.343
		s1.354,2.15,1.354,3.763c0,1.171-0.197,2.132-0.591,2.881s-0.964,1.333-1.709,1.75s-1.674,0.625-2.786,0.625
		c-1.13,0-2.065-0.18-2.806-0.54s-1.341-0.93-1.801-1.709S419.236,212.017,419.236,210.846z M422.333,210.859
		c0,1.012,0.188,1.739,0.564,2.181s0.888,0.663,1.535,0.663c0.666,0,1.18-0.216,1.545-0.649s0.547-1.21,0.547-2.331
		c0-0.943-0.19-1.633-0.571-2.068s-0.896-0.653-1.548-0.653c-0.625,0-1.125,0.221-1.504,0.663S422.333,209.838,422.333,210.859z"/>
	<path class="st3" d="M431.329,205.828h4.601c0.907,0,1.64,0.123,2.198,0.369s1.02,0.599,1.384,1.06s0.629,0.996,0.793,1.606
		s0.246,1.258,0.246,1.941c0,1.071-0.122,1.901-0.366,2.492s-0.582,1.084-1.015,1.483s-0.898,0.664-1.395,0.796
		c-0.679,0.182-1.294,0.273-1.846,0.273h-4.601V205.828z M434.425,208.098v5.476h0.759c0.647,0,1.107-0.072,1.381-0.215
		s0.488-0.394,0.643-0.752s0.232-0.938,0.232-1.74c0-1.062-0.173-1.789-0.52-2.181s-0.92-0.588-1.723-0.588H434.425z"/>
	<path class="st3" d="M442.171,205.828h8.299v2.14h-5.195v1.593h4.819v2.044h-4.819v1.976h5.346v2.27h-8.449V205.828z"/>
	<path class="st3" d="M452.288,205.828h3.097v7.554h4.833v2.468h-7.93V205.828z"/>
</g>
<rect x="154.673" y="115.446" class="st0" width="97.515" height="58.335"/>
<path class="st1" d="M154.673,122.738h97.515 M166.862,115.446v58.335"/>
<g>
	<path class="st2" d="M170.837,127.3h9.413v2.475h-3.158v7.547h-3.097v-7.547h-3.158V127.3z"/>
	<path class="st2" d="M181.692,137.321V127.3h5.161c0.957,0,1.688,0.082,2.194,0.246s0.914,0.468,1.224,0.913
		s0.465,0.985,0.465,1.624c0,0.556-0.119,1.036-0.355,1.439c-0.237,0.403-0.563,0.73-0.979,0.981
		c-0.264,0.16-0.627,0.292-1.087,0.396c0.369,0.123,0.638,0.247,0.806,0.37c0.114,0.082,0.279,0.257,0.495,0.527
		c0.216,0.269,0.361,0.477,0.434,0.623l1.5,2.904h-3.499l-1.655-3.063c-0.209-0.396-0.396-0.654-0.561-0.772
		c-0.223-0.155-0.476-0.232-0.759-0.232h-0.273v4.067H181.692z M184.802,131.36h1.306c0.141,0,0.415-0.045,0.82-0.137
		c0.205-0.041,0.373-0.146,0.502-0.314s0.195-0.362,0.195-0.581c0-0.324-0.103-0.572-0.308-0.745s-0.59-0.26-1.155-0.26h-1.36
		V131.36z"/>
	<path class="st2" d="M198.702,135.667h-3.516l-0.489,1.654h-3.162l3.767-10.021h3.378l3.766,10.021h-3.243L198.702,135.667z
		 M198.059,133.5l-1.106-3.603l-1.095,3.603H198.059z"/>
	<path class="st2" d="M203.553,127.3h3.104v10.021h-3.104V127.3z"/>
	<path class="st2" d="M208.899,127.3h2.892l3.773,5.544V127.3h2.919v10.021h-2.919l-3.753-5.502v5.502h-2.912V127.3z"/>
	<path class="st2" d="M220.664,127.3h3.104v10.021h-3.104V127.3z"/>
	<path class="st2" d="M226.009,127.3h2.892l3.773,5.544V127.3h2.919v10.021h-2.919l-3.753-5.502v5.502h-2.912V127.3z"/>
	<path class="st2" d="M242.689,133.691v-2.085h4.785v4.272c-0.916,0.625-1.726,1.049-2.43,1.275s-1.539,0.338-2.505,0.338
		c-1.189,0-2.159-0.203-2.909-0.608s-1.331-1.009-1.743-1.812s-0.619-1.723-0.619-2.762c0-1.094,0.226-2.045,0.677-2.854
		s1.112-1.423,1.982-1.842c0.679-0.324,1.593-0.485,2.741-0.485c1.107,0,1.936,0.1,2.485,0.301s1.005,0.512,1.367,0.933
		s0.635,0.956,0.817,1.603l-2.987,0.533c-0.123-0.378-0.332-0.667-0.625-0.868s-0.669-0.301-1.125-0.301
		c-0.679,0-1.22,0.236-1.624,0.708s-0.605,1.218-0.605,2.239c0,1.084,0.204,1.859,0.612,2.324s0.977,0.697,1.706,0.697
		c0.346,0,0.677-0.05,0.991-0.15s0.674-0.271,1.08-0.513v-0.943H242.689z"/>
</g>
<g>
	<path class="st2" d="M190.376,142.972h3.237l2.255,7.212l2.227-7.212h3.143l-3.721,10.021h-3.356L190.376,142.972z"/>
	<path class="st2" d="M202.168,142.972h2.782v1.894h-2.782V142.972z M202.168,145.733h2.782v7.26h-2.782V145.733z"/>
	<path class="st2" d="M214.787,150.054h-5.578c0.05,0.447,0.171,0.779,0.362,0.998c0.269,0.314,0.62,0.472,1.053,0.472
		c0.273,0,0.533-0.068,0.779-0.205c0.15-0.086,0.312-0.239,0.485-0.458l2.741,0.253c-0.419,0.729-0.925,1.252-1.518,1.569
		s-1.442,0.475-2.55,0.475c-0.961,0-1.718-0.136-2.27-0.407s-1.008-0.702-1.371-1.292s-0.543-1.284-0.543-2.082
		c0-1.135,0.363-2.053,1.09-2.755s1.73-1.053,3.011-1.053c1.039,0,1.859,0.157,2.461,0.472s1.06,0.77,1.374,1.367
		s0.472,1.374,0.472,2.331V150.054z M211.957,148.721c-0.055-0.538-0.199-0.923-0.434-1.155s-0.543-0.349-0.926-0.349
		c-0.442,0-0.795,0.175-1.06,0.526c-0.168,0.219-0.276,0.544-0.321,0.978H211.957z"/>
	<path class="st2" d="M215.252,145.733h2.69l1.164,4.571l1.473-4.571h2.514l1.535,4.583l1.17-4.583h2.674l-2.674,7.26h-2.476
		l-1.471-4.368l-1.421,4.368h-2.487L215.252,145.733z"/>
</g>
<g>
	<g>
		<path class="st2" d="M179.11,157.484h1.612c-0.554,1.227-0.954,2.361-1.2,3.402c-0.208,0.884-0.311,1.828-0.311,2.831
			c0,1.934,0.503,3.923,1.511,5.967h-1.612c-0.821-1.164-1.397-2.216-1.73-3.158c-0.332-0.942-0.498-1.929-0.498-2.961
			c0-1.071,0.175-2.088,0.523-3.053C177.755,159.547,178.323,158.538,179.11,157.484z"/>
		<path class="st2" d="M189.495,164.219h-5.18c0.046,0.415,0.159,0.724,0.336,0.927c0.25,0.292,0.576,0.438,0.978,0.438
			c0.254,0,0.495-0.063,0.724-0.19c0.14-0.081,0.29-0.222,0.451-0.425l2.545,0.235c-0.389,0.677-0.859,1.163-1.409,1.457
			c-0.55,0.294-1.339,0.441-2.368,0.441c-0.893,0-1.595-0.126-2.107-0.378c-0.512-0.251-0.937-0.651-1.272-1.199
			c-0.337-0.548-0.505-1.192-0.505-1.933c0-1.054,0.337-1.906,1.013-2.558c0.675-0.652,1.607-0.978,2.796-0.978
			c0.965,0,1.727,0.146,2.285,0.438s0.984,0.715,1.276,1.27s0.438,1.276,0.438,2.165V164.219z M186.867,162.981
			c-0.051-0.5-0.185-0.857-0.403-1.073c-0.218-0.216-0.504-0.324-0.86-0.324c-0.411,0-0.738,0.163-0.984,0.489
			c-0.157,0.203-0.256,0.506-0.298,0.908H186.867z"/>
		<path class="st2" d="M190.688,164.358h2.761v2.59h-2.761V164.358z"/>
		<path class="st2" d="M199.702,160.207h2.418v6.367l0.006,0.298c0,0.423-0.09,0.826-0.27,1.209c-0.18,0.383-0.419,0.693-0.718,0.93
			c-0.298,0.237-0.677,0.408-1.136,0.514c-0.459,0.106-0.985,0.159-1.578,0.159c-1.354,0-2.284-0.203-2.79-0.609
			c-0.506-0.406-0.759-0.95-0.759-1.631c0-0.084,0.004-0.199,0.013-0.343l2.507,0.286c0.063,0.233,0.161,0.394,0.292,0.482
			c0.19,0.131,0.43,0.197,0.717,0.197c0.373,0,0.65-0.1,0.835-0.298c0.184-0.199,0.276-0.546,0.276-1.041v-1.022
			c-0.254,0.3-0.508,0.519-0.762,0.654c-0.398,0.211-0.827,0.317-1.289,0.317c-0.901,0-1.629-0.394-2.184-1.181
			c-0.394-0.559-0.59-1.297-0.59-2.215c0-1.049,0.254-1.849,0.762-2.399s1.172-0.825,1.993-0.825c0.525,0,0.958,0.089,1.298,0.267
			c0.34,0.178,0.659,0.472,0.955,0.882V160.207z M197.271,163.476c0,0.487,0.104,0.847,0.311,1.083
			c0.208,0.234,0.48,0.352,0.819,0.352c0.322,0,0.591-0.122,0.809-0.365c0.218-0.244,0.327-0.611,0.327-1.102
			s-0.114-0.866-0.343-1.127c-0.229-0.26-0.508-0.39-0.838-0.39s-0.594,0.12-0.79,0.359
			C197.369,162.525,197.271,162.922,197.271,163.476z"/>
		<path class="st2" d="M203.688,164.358h2.761v2.59h-2.761V164.358z"/>
		<path class="st2" d="M207.808,157.643h7.547v1.746c-0.656,0.592-1.204,1.233-1.644,1.923c-0.533,0.838-0.954,1.771-1.263,2.799
			c-0.246,0.8-0.411,1.746-0.495,2.837h-2.577c0.203-1.519,0.522-2.793,0.958-3.821s1.125-2.128,2.069-3.301h-4.596V157.643z"/>
		<path class="st2" d="M216.434,162.257c0-1.769,0.318-3.007,0.955-3.713c0.637-0.707,1.607-1.06,2.911-1.06
			c0.626,0,1.141,0.077,1.542,0.232c0.402,0.154,0.73,0.355,0.984,0.603c0.254,0.248,0.454,0.508,0.6,0.781
			c0.146,0.272,0.263,0.591,0.352,0.955c0.173,0.694,0.26,1.417,0.26,2.171c0,1.688-0.286,2.924-0.857,3.707
			s-1.555,1.174-2.952,1.174c-0.783,0-1.416-0.125-1.898-0.375s-0.878-0.616-1.187-1.098c-0.224-0.343-0.399-0.812-0.523-1.406
			C216.497,163.634,216.434,162.977,216.434,162.257z M218.999,162.264c0,1.185,0.104,1.994,0.314,2.428
			c0.209,0.434,0.513,0.651,0.911,0.651c0.262,0,0.49-0.092,0.682-0.276c0.193-0.185,0.334-0.475,0.426-0.873
			c0.091-0.398,0.136-1.018,0.136-1.86c0-1.236-0.105-2.066-0.314-2.492c-0.21-0.425-0.524-0.638-0.943-0.638
			c-0.427,0-0.736,0.217-0.927,0.65C219.094,160.289,218.999,161.091,218.999,162.264z"/>
		<path class="st2" d="M225.2,159.928c0-0.432,0.094-0.842,0.283-1.231c0.188-0.389,0.476-0.688,0.863-0.898
			c0.387-0.209,0.845-0.314,1.374-0.314c0.779,0,1.392,0.222,1.841,0.667s0.673,1.037,0.673,1.777c0,0.745-0.224,1.339-0.673,1.784
			s-1.062,0.667-1.841,0.667c-0.529,0-0.987-0.104-1.374-0.314c-0.388-0.209-0.675-0.509-0.863-0.898
			C225.295,160.776,225.2,160.364,225.2,159.928z M226.984,159.94c0,0.525,0.084,0.906,0.254,1.143
			c0.11,0.157,0.271,0.235,0.482,0.235s0.37-0.078,0.476-0.235c0.169-0.237,0.254-0.618,0.254-1.143
			c0-0.521-0.084-0.901-0.254-1.143c-0.106-0.152-0.265-0.229-0.476-0.229s-0.373,0.076-0.482,0.229
			C227.069,159.035,226.984,159.416,226.984,159.94z M233.101,157.484h1.341l-5.376,9.94h-1.327L233.101,157.484z M231.91,164.961
			c0-0.436,0.093-0.847,0.279-1.235c0.186-0.387,0.474-0.687,0.863-0.898s0.846-0.317,1.371-0.317c0.783,0,1.398,0.223,1.847,0.669
			c0.449,0.447,0.673,1.04,0.673,1.781s-0.224,1.334-0.673,1.781c-0.449,0.446-1.064,0.669-1.847,0.669
			c-0.525,0-0.982-0.106-1.371-0.317s-0.677-0.511-0.863-0.898C232.003,165.809,231.91,165.397,231.91,164.961z M233.694,164.974
			c0,0.525,0.084,0.906,0.254,1.143c0.106,0.152,0.265,0.229,0.476,0.229s0.373-0.076,0.482-0.229
			c0.169-0.237,0.254-0.618,0.254-1.143s-0.084-0.908-0.254-1.149c-0.11-0.152-0.271-0.229-0.482-0.229s-0.37,0.078-0.476,0.235
			C233.778,164.068,233.694,164.449,233.694,164.974z"/>
		<path class="st2" d="M241.396,160.512c0.35,0.965,0.524,1.982,0.524,3.053c0,1.033-0.166,2.02-0.499,2.961
			c-0.332,0.941-0.909,1.994-1.729,3.158h-1.612c1.007-2.044,1.511-4.033,1.511-5.967c0-1.003-0.104-1.947-0.311-2.831
			c-0.246-1.041-0.646-2.175-1.2-3.402h1.612C240.479,158.538,241.048,159.547,241.396,160.512z"/>
	</g>
</g>
<rect x="154.673" y="273.907" class="st0" width="98.385" height="58.335"/>
<path class="st1" d="M154.673,281.199h98.385 M166.971,273.907v58.335"/>
<g>
	<path class="st2" d="M174.49,286.027h9.413v2.475h-3.158v7.547h-3.097v-7.547h-3.158V286.027z"/>
	<path class="st2" d="M185.298,286.027h8.299v2.14h-5.195v1.593h4.819v2.044h-4.819v1.976h5.346v2.27h-8.449V286.027z"/>
	<path class="st2" d="M194.875,292.733l2.946-0.185c0.064,0.479,0.194,0.843,0.39,1.094c0.319,0.405,0.775,0.608,1.367,0.608
		c0.442,0,0.783-0.104,1.022-0.312c0.239-0.207,0.359-0.447,0.359-0.721c0-0.26-0.114-0.492-0.342-0.697s-0.756-0.398-1.586-0.581
		c-1.358-0.306-2.327-0.711-2.905-1.217c-0.583-0.506-0.875-1.15-0.875-1.935c0-0.515,0.149-1.002,0.448-1.459
		c0.298-0.459,0.748-0.818,1.347-1.08c0.599-0.263,1.421-0.394,2.464-0.394c1.281,0,2.257,0.238,2.929,0.714
		c0.672,0.477,1.072,1.234,1.2,2.273l-2.919,0.171c-0.078-0.451-0.24-0.779-0.489-0.984s-0.591-0.308-1.029-0.308
		c-0.36,0-0.631,0.076-0.813,0.229c-0.182,0.153-0.273,0.339-0.273,0.558c0,0.159,0.075,0.303,0.226,0.431
		c0.146,0.132,0.492,0.255,1.039,0.369c1.354,0.292,2.323,0.587,2.909,0.885c0.585,0.299,1.012,0.669,1.278,1.111
		s0.4,0.937,0.4,1.483c0,0.643-0.178,1.235-0.533,1.777s-0.852,0.954-1.49,1.233c-0.638,0.281-1.442,0.421-2.413,0.421
		c-1.705,0-2.885-0.328-3.541-0.984S194.962,293.745,194.875,292.733z"/>
	<path class="st2" d="M204.821,286.027h9.413v2.475h-3.158v7.547h-3.097v-7.547h-3.158V286.027z"/>
	<path class="st2" d="M215.759,286.027h3.104v10.021h-3.104V286.027z"/>
	<path class="st2" d="M221.105,286.027h2.892l3.773,5.544v-5.544h2.919v10.021h-2.919l-3.753-5.503v5.503h-2.912V286.027z"/>
	<path class="st2" d="M237.784,292.419v-2.085h4.785v4.272c-0.916,0.624-1.726,1.05-2.43,1.274
		c-0.704,0.227-1.539,0.339-2.505,0.339c-1.189,0-2.159-0.203-2.909-0.608s-1.331-1.01-1.743-1.812s-0.619-1.723-0.619-2.762
		c0-1.094,0.226-2.045,0.677-2.854c0.451-0.809,1.112-1.423,1.982-1.842c0.679-0.323,1.593-0.485,2.741-0.485
		c1.107,0,1.936,0.101,2.485,0.301s1.005,0.512,1.367,0.933c0.362,0.422,0.635,0.956,0.817,1.604l-2.987,0.533
		c-0.123-0.378-0.332-0.668-0.625-0.868s-0.669-0.301-1.125-0.301c-0.679,0-1.22,0.235-1.624,0.708
		c-0.403,0.471-0.605,1.218-0.605,2.238c0,1.085,0.204,1.859,0.612,2.324s0.977,0.697,1.706,0.697c0.346,0,0.677-0.05,0.991-0.15
		s0.674-0.271,1.08-0.513v-0.943H237.784z"/>
</g>
<g>
	<path class="st2" d="M189.75,301.699h3.237l2.255,7.212l2.227-7.212h3.143l-3.721,10.021h-3.356L189.75,301.699z"/>
	<path class="st2" d="M201.542,301.699h2.782v1.894h-2.782V301.699z M201.542,304.461h2.782v7.26h-2.782V304.461z"/>
	<path class="st2" d="M214.161,308.781h-5.578c0.05,0.446,0.171,0.779,0.362,0.998c0.269,0.314,0.62,0.472,1.053,0.472
		c0.273,0,0.533-0.068,0.779-0.205c0.15-0.087,0.312-0.239,0.485-0.458l2.741,0.253c-0.419,0.729-0.925,1.252-1.518,1.569
		c-0.592,0.316-1.442,0.475-2.55,0.475c-0.961,0-1.718-0.136-2.27-0.406c-0.551-0.271-1.008-0.702-1.371-1.293
		c-0.362-0.59-0.543-1.283-0.543-2.081c0-1.135,0.363-2.053,1.09-2.755s1.73-1.053,3.011-1.053c1.039,0,1.859,0.157,2.461,0.472
		s1.06,0.771,1.374,1.367s0.472,1.374,0.472,2.331V308.781z M211.331,307.448c-0.055-0.538-0.199-0.923-0.434-1.155
		s-0.543-0.349-0.926-0.349c-0.442,0-0.795,0.176-1.06,0.526c-0.168,0.219-0.276,0.545-0.321,0.978H211.331z"/>
	<path class="st2" d="M214.626,304.461h2.69l1.164,4.57l1.473-4.57h2.514l1.535,4.582l1.17-4.582h2.674l-2.674,7.26h-2.476
		l-1.471-4.368l-1.421,4.368h-2.487L214.626,304.461z"/>
</g>
<g>
	<path class="st2" d="M178.485,316.223h1.612c-0.554,1.228-0.954,2.361-1.2,3.402c-0.208,0.885-0.311,1.828-0.311,2.832
		c0,1.934,0.503,3.922,1.511,5.967h-1.612c-0.821-1.164-1.397-2.217-1.73-3.158c-0.332-0.941-0.498-1.929-0.498-2.961
		c0-1.071,0.175-2.089,0.523-3.054C177.13,318.286,177.698,317.277,178.485,316.223z"/>
	<path class="st2" d="M188.87,322.958h-5.18c0.046,0.415,0.159,0.724,0.336,0.927c0.25,0.292,0.576,0.438,0.978,0.438
		c0.254,0,0.495-0.063,0.724-0.189c0.14-0.081,0.29-0.223,0.451-0.426l2.545,0.234c-0.389,0.678-0.859,1.163-1.409,1.457
		s-1.339,0.441-2.368,0.441c-0.893,0-1.595-0.126-2.107-0.378s-0.937-0.651-1.272-1.199c-0.337-0.548-0.505-1.192-0.505-1.933
		c0-1.055,0.337-1.907,1.013-2.559c0.675-0.651,1.607-0.978,2.796-0.978c0.965,0,1.727,0.146,2.285,0.438
		c0.559,0.291,0.984,0.715,1.276,1.27c0.292,0.554,0.438,1.275,0.438,2.164V322.958z M186.242,321.721
		c-0.051-0.5-0.185-0.857-0.403-1.073c-0.218-0.216-0.504-0.323-0.86-0.323c-0.411,0-0.738,0.162-0.984,0.488
		c-0.157,0.203-0.256,0.506-0.298,0.908H186.242z"/>
	<path class="st2" d="M190.063,323.098h2.761v2.59h-2.761V323.098z"/>
	<path class="st2" d="M199.077,318.946h2.418v6.366l0.006,0.299c0,0.423-0.09,0.826-0.27,1.209c-0.18,0.383-0.419,0.693-0.718,0.93
		c-0.298,0.237-0.677,0.409-1.136,0.515c-0.459,0.105-0.985,0.159-1.578,0.159c-1.354,0-2.284-0.203-2.79-0.609
		c-0.506-0.406-0.759-0.95-0.759-1.632c0-0.085,0.004-0.199,0.013-0.343l2.507,0.285c0.063,0.233,0.161,0.395,0.292,0.482
		c0.19,0.132,0.43,0.197,0.717,0.197c0.373,0,0.65-0.1,0.835-0.299c0.184-0.198,0.276-0.545,0.276-1.041v-1.021
		c-0.254,0.301-0.508,0.519-0.762,0.654c-0.398,0.211-0.827,0.316-1.289,0.316c-0.901,0-1.629-0.393-2.184-1.18
		c-0.394-0.559-0.59-1.298-0.59-2.216c0-1.05,0.254-1.85,0.762-2.399s1.172-0.825,1.993-0.825c0.525,0,0.958,0.089,1.298,0.267
		c0.34,0.178,0.659,0.472,0.955,0.883V318.946z M196.646,322.215c0,0.487,0.104,0.848,0.311,1.083
		c0.208,0.234,0.48,0.353,0.819,0.353c0.322,0,0.591-0.122,0.809-0.365c0.218-0.243,0.327-0.61,0.327-1.102
		s-0.114-0.866-0.343-1.127c-0.229-0.26-0.508-0.391-0.838-0.391s-0.594,0.12-0.79,0.359
		C196.744,321.265,196.646,321.661,196.646,322.215z"/>
	<path class="st2" d="M203.063,323.098h2.761v2.59h-2.761V323.098z"/>
	<path class="st2" d="M209.646,319.073l-2.444-0.438c0.203-0.778,0.594-1.375,1.171-1.789c0.578-0.415,1.396-0.623,2.454-0.623
		c1.214,0,2.093,0.227,2.634,0.68s0.813,1.021,0.813,1.707c0,0.402-0.11,0.767-0.33,1.092c-0.22,0.326-0.552,0.612-0.997,0.857
		c0.36,0.089,0.635,0.192,0.825,0.311c0.309,0.191,0.549,0.441,0.72,0.753c0.172,0.311,0.257,0.683,0.257,1.114
		c0,0.541-0.142,1.061-0.425,1.558s-0.692,0.881-1.225,1.149s-1.233,0.402-2.101,0.402c-0.846,0-1.514-0.099-2.003-0.298
		c-0.488-0.199-0.891-0.49-1.206-0.873c-0.315-0.383-0.557-0.864-0.727-1.444l2.583-0.342c0.102,0.52,0.259,0.881,0.473,1.082
		c0.213,0.201,0.485,0.301,0.815,0.301c0.347,0,0.636-0.127,0.866-0.381c0.231-0.254,0.346-0.592,0.346-1.016
		c0-0.432-0.111-0.766-0.333-1.002c-0.222-0.237-0.523-0.355-0.904-0.355c-0.203,0-0.482,0.051-0.838,0.152l0.133-1.848
		c0.144,0.021,0.256,0.031,0.336,0.031c0.338,0,0.621-0.107,0.848-0.323c0.226-0.216,0.339-0.472,0.339-0.769
		c0-0.283-0.084-0.51-0.254-0.679s-0.402-0.254-0.698-0.254c-0.305,0-0.552,0.092-0.743,0.276
		C209.842,318.289,209.714,318.612,209.646,319.073z"/>
	<path class="st2" d="M215.809,320.996c0-1.769,0.318-3.006,0.955-3.713c0.637-0.707,1.607-1.061,2.911-1.061
		c0.626,0,1.141,0.078,1.542,0.232s0.73,0.355,0.984,0.603c0.254,0.248,0.454,0.508,0.6,0.781c0.146,0.272,0.263,0.591,0.352,0.955
		c0.173,0.694,0.26,1.418,0.26,2.171c0,1.688-0.286,2.924-0.857,3.707s-1.555,1.174-2.952,1.174c-0.783,0-1.416-0.124-1.898-0.374
		s-0.878-0.616-1.187-1.099c-0.224-0.342-0.399-0.811-0.523-1.405C215.872,322.373,215.809,321.716,215.809,320.996z
		 M218.374,321.003c0,1.185,0.104,1.994,0.314,2.428c0.209,0.434,0.513,0.651,0.911,0.651c0.262,0,0.49-0.093,0.682-0.276
		c0.193-0.185,0.334-0.476,0.426-0.873c0.091-0.397,0.136-1.018,0.136-1.86c0-1.235-0.105-2.065-0.314-2.491
		c-0.21-0.425-0.524-0.638-0.943-0.638c-0.427,0-0.736,0.217-0.927,0.65S218.374,319.831,218.374,321.003z"/>
	<path class="st2" d="M224.575,318.667c0-0.432,0.094-0.842,0.283-1.231c0.188-0.39,0.476-0.688,0.863-0.898
		c0.387-0.209,0.845-0.314,1.374-0.314c0.779,0,1.392,0.223,1.841,0.667s0.673,1.037,0.673,1.777c0,0.745-0.224,1.339-0.673,1.784
		c-0.449,0.443-1.062,0.666-1.841,0.666c-0.529,0-0.987-0.104-1.374-0.314c-0.388-0.209-0.675-0.509-0.863-0.898
		C224.67,319.516,224.575,319.103,224.575,318.667z M226.359,318.68c0,0.524,0.084,0.905,0.254,1.143
		c0.11,0.156,0.271,0.234,0.482,0.234s0.37-0.078,0.476-0.234c0.169-0.237,0.254-0.618,0.254-1.143c0-0.521-0.084-0.901-0.254-1.143
		c-0.106-0.152-0.265-0.229-0.476-0.229s-0.373,0.076-0.482,0.229C226.444,317.774,226.359,318.155,226.359,318.68z
		 M232.476,316.223h1.341l-5.376,9.941h-1.327L232.476,316.223z M231.285,323.701c0-0.437,0.093-0.848,0.279-1.235
		c0.186-0.387,0.474-0.687,0.863-0.897c0.389-0.212,0.846-0.318,1.371-0.318c0.783,0,1.398,0.224,1.847,0.67s0.673,1.04,0.673,1.781
		c0,0.74-0.224,1.334-0.673,1.78s-1.064,0.669-1.847,0.669c-0.525,0-0.982-0.105-1.371-0.316c-0.389-0.212-0.677-0.512-0.863-0.898
		C231.378,324.548,231.285,324.137,231.285,323.701z M233.069,323.713c0,0.525,0.084,0.906,0.254,1.143
		c0.106,0.152,0.265,0.229,0.476,0.229s0.373-0.076,0.482-0.229c0.169-0.236,0.254-0.617,0.254-1.143
		c0-0.524-0.084-0.907-0.254-1.148c-0.11-0.152-0.271-0.229-0.482-0.229s-0.37,0.078-0.476,0.234
		C233.153,322.808,233.069,323.188,233.069,323.713z"/>
	<path class="st2" d="M240.771,319.251c0.35,0.965,0.524,1.982,0.524,3.054c0,1.032-0.166,2.02-0.499,2.961
		c-0.332,0.941-0.909,1.994-1.729,3.158h-1.612c1.007-2.045,1.511-4.033,1.511-5.967c0-1.004-0.104-1.947-0.311-2.832
		c-0.246-1.041-0.646-2.175-1.2-3.402h1.612C239.854,317.277,240.423,318.286,240.771,319.251z"/>
</g>
<path class="st4" d="M281.403,136.777l15.672,7.836l-15.672,7.836V136.777z M251.752,142.001h32.263v5.224h-32.263V142.001z"/>
<g>
	<path class="st5" d="M461.681,144.123L461.681,144.123c0-15.184-12.301-27.468-27.483-27.468
		c-15.167,0-27.468,12.284-27.468,27.468c0,15.166,12.301,27.483,27.468,27.483C449.38,171.606,461.681,159.29,461.681,144.123z"/>
	<path class="st2" d="M426.695,145.057L426.695,145.057l-1.24,1.852c-0.403-0.418-0.902-0.74-1.433-0.966l1.272-1.884
		C425.681,144.478,426.164,144.814,426.695,145.057z M435.823,136.282L435.823,136.282l1.273,1.884
		c0.386-0.418,0.869-0.758,1.401-0.983l-1.24-1.85C436.855,135.734,436.372,136.056,435.823,136.282z M431.396,138.037
		L431.396,138.037l1.176-1.756c-0.532-0.225-1.03-0.547-1.434-0.949l-1.191,1.786C430.494,137.329,430.977,137.636,431.396,138.037z
		 M437.128,144.106L437.128,144.106l-1.273,1.852c0.549,0.225,1.032,0.564,1.419,0.966l1.27-1.85
		C438.014,144.847,437.531,144.51,437.128,144.106z M432.604,145.926L432.604,145.926l-1.176-1.771
		c-0.401,0.401-0.884,0.725-1.431,0.951l1.174,1.771C431.574,146.473,432.072,146.151,432.604,145.926z M444.373,145.943
		L444.373,145.943l-1.176-1.755c-0.401,0.401-0.901,0.725-1.449,0.934l1.208,1.788C443.36,146.491,443.843,146.169,444.373,145.943z
		 M434.198,129.101L434.198,129.101c-1.77,0-3.221,1.434-3.221,3.221c0,1.771,1.451,3.219,3.221,3.219
		c1.786,0,3.219-1.449,3.219-3.219C437.418,130.534,435.984,129.101,434.198,129.101z M425.617,149.92L425.617,149.92
		c0,1.77-1.449,3.219-3.22,3.219c-1.787,0-3.22-1.449-3.22-3.219c0-1.788,1.433-3.221,3.22-3.221
		C424.167,146.699,425.617,148.132,425.617,149.92z M449.219,149.92L449.219,149.92c0,1.77-1.431,3.219-3.219,3.219
		c-1.771,0-3.221-1.449-3.221-3.219c0-1.788,1.451-3.221,3.221-3.221C447.788,146.699,449.219,148.132,449.219,149.92z
		 M437.418,149.92L437.418,149.92c0,1.77-1.434,3.219-3.219,3.219c-1.771,0-3.221-1.449-3.221-3.219
		c0-1.788,1.451-3.221,3.221-3.221C435.984,146.699,437.418,148.132,437.418,149.92z M431.621,141.112L431.621,141.112
		c0,1.788-1.431,3.219-3.219,3.219c-1.771,0-3.22-1.431-3.22-3.219c0-1.77,1.449-3.219,3.22-3.219
		C430.19,137.893,431.621,139.342,431.621,141.112z M443.424,141.112L443.424,141.112c0,1.788-1.434,3.219-3.221,3.219
		c-1.771,0-3.219-1.431-3.219-3.219c0-1.77,1.449-3.219,3.219-3.219C441.991,137.893,443.424,139.342,443.424,141.112z"/>
</g>
<path class="st4" d="M137.937,152.449l15.672-7.836l-15.672-7.836V152.449z M109.833,241.076h21.888
	c1.439,0,2.612-1.173,2.612-2.612v-93.851l-2.612,2.612h8.828v-5.224h-8.828c-1.439,0-2.612,1.173-2.612,2.612v93.851l2.612-2.612
	h-21.888V241.076z"/>
<path class="st4" d="M137.937,295.493l15.672,7.836l-15.672,7.836V295.493z M109.833,236.033h21.888
	c1.439,0,2.612,1.173,2.612,2.612v64.683l-2.612-2.612h8.828v5.224h-8.828c-1.439,0-2.612-1.173-2.612-2.612v-64.683l2.612,2.612
	h-21.888V236.033z"/>
<g>
	<path class="st5" d="M647.133,144.123L647.133,144.123c0-15.184-12.301-27.468-27.483-27.468
		c-15.167,0-27.468,12.284-27.468,27.468c0,15.166,12.301,27.483,27.468,27.483C634.832,171.606,647.133,159.29,647.133,144.123z"/>
	<path class="st2" d="M630.823,136.91L630.823,136.91c0.951-1.642,0.386-3.736-1.255-4.685c-1.642-0.951-3.751-0.386-4.702,1.255
		l-7.857,13.604l-2.914-3.477c-1.223-1.466-3.396-1.642-4.845-0.436c-1.449,1.223-1.642,3.397-0.419,4.846l6.071,7.23
		c1.223,1.465,3.38,1.642,4.846,0.435c0.305-0.274,0.562-0.58,0.755-0.934l0.017,0.016L630.823,136.91z"/>
</g>
<path class="st4" d="M391.083,136.777l15.672,7.836l-15.672,7.836V136.777z M351.879,142.001h41.816v5.224h-41.816V142.001z"/>
<path class="st4" d="M576.728,136.777l15.672,7.836l-15.672,7.836V136.777z M552.132,142.001h27.208v5.224h-27.208V142.001z"/>
<g>
	<path class="st3" d="M498.368,102.541l2.946-0.185c0.064,0.479,0.194,0.843,0.39,1.094c0.319,0.406,0.775,0.608,1.367,0.608
		c0.442,0,0.783-0.104,1.022-0.311s0.359-0.448,0.359-0.721c0-0.26-0.114-0.492-0.342-0.697s-0.756-0.399-1.586-0.581
		c-1.358-0.305-2.327-0.711-2.905-1.217c-0.583-0.506-0.875-1.151-0.875-1.935c0-0.515,0.149-1.001,0.448-1.459
		s0.748-0.818,1.347-1.08s1.421-0.393,2.464-0.393c1.281,0,2.257,0.238,2.929,0.714s1.072,1.234,1.2,2.273l-2.919,0.171
		c-0.078-0.451-0.24-0.779-0.489-0.984s-0.591-0.308-1.029-0.308c-0.36,0-0.631,0.076-0.813,0.229s-0.273,0.338-0.273,0.557
		c0,0.16,0.075,0.303,0.226,0.431c0.146,0.132,0.492,0.255,1.039,0.369c1.354,0.292,2.323,0.587,2.909,0.885
		s1.012,0.669,1.278,1.111s0.4,0.937,0.4,1.483c0,0.643-0.178,1.235-0.533,1.777s-0.852,0.954-1.49,1.234s-1.442,0.42-2.413,0.42
		c-1.705,0-2.885-0.328-3.541-0.984S498.455,103.553,498.368,102.541z"/>
	<path class="st3" d="M515.69,101.755l2.715,0.82c-0.184,0.761-0.471,1.397-0.861,1.907c-0.393,0.51-0.879,0.896-1.461,1.155
		c-0.58,0.26-1.32,0.39-2.217,0.39c-1.09,0-1.98-0.158-2.67-0.475c-0.691-0.316-1.287-0.874-1.787-1.67
		c-0.502-0.797-0.752-1.817-0.752-3.061c0-1.658,0.44-2.932,1.323-3.822c0.881-0.89,2.129-1.335,3.742-1.335
		c1.264,0,2.256,0.255,2.977,0.766c0.723,0.51,1.26,1.294,1.611,2.352l-2.734,0.608c-0.096-0.305-0.197-0.529-0.301-0.67
		c-0.174-0.237-0.385-0.419-0.637-0.547c-0.25-0.127-0.531-0.191-0.84-0.191c-0.703,0-1.24,0.282-1.613,0.847
		c-0.283,0.419-0.424,1.077-0.424,1.973c0,1.111,0.168,1.872,0.506,2.284c0.336,0.412,0.811,0.618,1.422,0.618
		c0.592,0,1.039-0.167,1.342-0.499C515.335,102.872,515.553,102.388,515.69,101.755z"/>
	<path class="st3" d="M519.519,100.853c0-1.636,0.456-2.91,1.367-3.821s2.181-1.367,3.808-1.367c1.668,0,2.953,0.448,3.855,1.343
		s1.354,2.15,1.354,3.763c0,1.171-0.197,2.132-0.592,2.881c-0.394,0.75-0.963,1.333-1.709,1.75
		c-0.744,0.417-1.673,0.625-2.785,0.625c-1.13,0-2.065-0.18-2.807-0.54c-0.74-0.36-1.341-0.93-1.801-1.709
		S519.519,102.024,519.519,100.853z M522.616,100.866c0,1.012,0.188,1.739,0.564,2.181c0.375,0.442,0.887,0.663,1.534,0.663
		c0.665,0,1.181-0.216,1.545-0.649s0.547-1.21,0.547-2.331c0-0.943-0.19-1.633-0.571-2.068c-0.38-0.435-0.896-0.653-1.548-0.653
		c-0.624,0-1.126,0.221-1.504,0.663S522.616,99.845,522.616,100.866z"/>
	<path class="st3" d="M531.612,105.856V95.835h5.161c0.957,0,1.688,0.082,2.194,0.246s0.914,0.468,1.224,0.913
		s0.465,0.985,0.465,1.624c0,0.556-0.118,1.036-0.355,1.439s-0.563,0.73-0.979,0.981c-0.265,0.16-0.627,0.292-1.087,0.396
		c0.368,0.123,0.637,0.247,0.806,0.37c0.114,0.082,0.279,0.257,0.495,0.527c0.217,0.269,0.361,0.477,0.434,0.623l1.5,2.904h-3.499
		l-1.655-3.063c-0.21-0.396-0.396-0.654-0.561-0.772c-0.224-0.155-0.477-0.232-0.759-0.232h-0.273v4.067H531.612z M534.722,99.896
		h1.306c0.142,0,0.415-0.045,0.82-0.137c0.205-0.041,0.373-0.146,0.502-0.314c0.131-0.168,0.195-0.362,0.195-0.581
		c0-0.324-0.103-0.572-0.308-0.745s-0.59-0.26-1.155-0.26h-1.36V99.896z"/>
	<path class="st3" d="M542.454,95.835h8.299v2.14h-5.195v1.593h4.819v2.044h-4.819v1.976h5.346v2.27h-8.449V95.835z"/>
</g>
<g>
	<path class="st3" d="M579.757,186.855h3.237l2.255,7.212l2.228-7.212h3.143l-3.721,10.021h-3.356L579.757,186.855z"/>
	<path class="st3" d="M597.792,195.223h-3.516l-0.488,1.654h-3.162l3.767-10.021h3.378l3.766,10.021h-3.243L597.792,195.223z
		 M597.149,193.056l-1.106-3.603l-1.094,3.603H597.149z"/>
	<path class="st3" d="M602.52,186.855h3.097v7.554h4.833v2.468h-7.93V186.855z"/>
	<path class="st3" d="M611.981,186.855h3.104v10.021h-3.104V186.855z"/>
	<path class="st3" d="M617.347,186.855h4.601c0.907,0,1.64,0.123,2.198,0.369c0.558,0.246,1.02,0.599,1.384,1.06
		s0.629,0.996,0.793,1.606s0.246,1.258,0.246,1.941c0,1.071-0.122,1.901-0.366,2.492c-0.243,0.59-0.582,1.084-1.015,1.483
		s-0.897,0.664-1.395,0.796c-0.679,0.182-1.294,0.273-1.846,0.273h-4.601V186.855z M620.444,189.125v5.476h0.759
		c0.647,0,1.107-0.072,1.381-0.215s0.487-0.394,0.643-0.752s0.232-0.938,0.232-1.74c0-1.062-0.173-1.789-0.52-2.181
		s-0.921-0.588-1.723-0.588H620.444z"/>
	<path class="st3" d="M634.357,195.223h-3.516l-0.488,1.654h-3.162l3.767-10.021h3.378l3.766,10.021h-3.243L634.357,195.223z
		 M633.715,193.056l-1.106-3.603l-1.094,3.603H633.715z"/>
	<path class="st3" d="M638.382,186.855h9.413v2.475h-3.158v7.547h-3.097v-7.547h-3.158V186.855z"/>
	<path class="st3" d="M649.189,186.855h8.299v2.14h-5.195v1.593h4.819v2.044h-4.819v1.976h5.346v2.27h-8.449V186.855z"/>
</g>
<g>
	<path class="st5" d="M852.611,144.123L852.611,144.123c0-15.184-12.301-27.468-27.483-27.468
		c-15.167,0-27.468,12.284-27.468,27.468c0,15.166,12.301,27.483,27.468,27.483C840.309,171.606,852.611,159.29,852.611,144.123z"/>
	<path class="st2" d="M819.492,136.475L819.492,136.475c-0.129-0.53-0.322-0.998-0.564-1.367c-0.274-0.403-0.612-0.725-1.014-0.951
		c-0.403-0.208-0.886-0.322-1.401-0.322c-0.724,0-1.336,0.21-1.819,0.597c-0.467,0.386-0.821,0.916-1.046,1.61
		c-0.209,0.627-0.322,1.464-0.322,2.464c0,1.657,0.29,2.85,0.918,3.623c0.547,0.708,1.32,1.062,2.27,1.062
		c0.725,0,1.336-0.21,1.819-0.612c0.467-0.386,0.82-0.918,1.046-1.595c0.21-0.644,0.324-1.466,0.324-2.479
		C819.703,137.651,819.638,136.99,819.492,136.475z M817.19,140.823L817.19,140.823c-0.258,0.369-0.499,0.418-0.676,0.418
		c-0.177,0-0.435-0.049-0.692-0.418c-0.113-0.146-0.354-0.676-0.354-2.318c0-1.483,0.226-2.127,0.403-2.384
		c0.161-0.24,0.37-0.337,0.628-0.337c0.193,0,0.435,0.047,0.692,0.418c0.113,0.144,0.37,0.676,0.37,2.303
		C817.56,140.13,817.302,140.662,817.19,140.823z M823.486,142.836L823.486,142.836c0.515,0,0.788-0.21,0.788-0.725v-7.342
		c0-0.515-0.273-1.159-0.788-1.159h-0.032c-0.339,0-0.629,0.273-0.807,0.564c-0.144,0.24-0.369,0.562-0.676,0.82
		c-0.322,0.29-0.659,0.579-1.094,0.79c-0.305,0.161-0.466,0.515-0.466,0.869v0.144c0,0.322,0.129,0.629,0.401,0.807
		c0.161,0.079,0.307,0.129,0.483,0.129c0.146,0,0.275-0.032,0.403-0.097c0.176-0.082,0.354-0.178,0.547-0.292
		c0.032-0.015,0.096-0.032,0.096-0.047v4.814c0,0.515,0.386,0.725,0.901,0.725H823.486z M832.002,136.475L832.002,136.475
		c-0.129-0.53-0.322-0.998-0.562-1.367c-0.258-0.403-0.612-0.725-1.015-0.951c-0.404-0.208-0.886-0.322-1.401-0.322
		c-0.723,0-1.335,0.21-1.818,0.597c-0.468,0.386-0.822,0.916-1.047,1.61c-0.21,0.627-0.322,1.464-0.322,2.464
		c0,1.657,0.305,2.85,0.916,3.623c0.549,0.708,1.322,1.062,2.271,1.062c0.725,0,1.337-0.21,1.82-0.612
		c0.468-0.386,0.822-0.918,1.047-1.595c0.208-0.644,0.322-1.466,0.322-2.479C832.212,137.651,832.148,136.99,832.002,136.475z
		 M829.699,140.823L829.699,140.823c-0.258,0.369-0.498,0.418-0.676,0.418c-0.176,0-0.419-0.049-0.691-0.418
		c-0.114-0.146-0.354-0.676-0.354-2.318c0-1.483,0.225-2.127,0.401-2.384c0.161-0.24,0.371-0.337,0.629-0.337
		c0.193,0,0.433,0.047,0.691,0.418c0.114,0.144,0.371,0.676,0.371,2.303C830.07,140.13,829.813,140.662,829.699,140.823z
		 M835.996,142.836L835.996,142.836c0.515,0,0.934-0.21,0.934-0.725l0-7.342c0-0.515-0.418-1.159-0.933-1.159h-0.032
		c-0.339,0-0.629,0.273-0.805,0.564c-0.146,0.24-0.371,0.562-0.676,0.82c-0.324,0.29-0.693,0.579-1.129,0.79
		c-0.305,0.161-0.498,0.515-0.498,0.869v0.144c0,0.322,0.161,0.629,0.433,0.807c0.161,0.079,0.322,0.129,0.5,0.129
		c0.144,0,0.29-0.032,0.418-0.097c0.161-0.082,0.436-0.178,0.612-0.292c0.032-0.015-0.032-0.032,0.178-0.047v4.814
		c0,0.515,0.24,0.725,0.755,0.725H835.996z M817.238,154.427L817.238,154.427c0.515,0,0.805-0.564,0.805-1.079v-7.326
		c0-0.515-0.29-0.82-0.805-0.82h-0.048c-0.322,0-0.628,0.112-0.805,0.386c-0.145,0.24-0.37,0.466-0.66,0.74
		c-0.322,0.29-0.66,0.53-1.079,0.755c-0.322,0.161-0.467,0.468-0.467,0.822v0.144c0,0.322,0.113,0.629,0.402,0.79
		c0.145,0.097,0.29,0.146,0.467,0.146c0.145,0,0.274-0.032,0.402-0.097c0.177-0.082,0.37-0.193,0.547-0.29
		c0.032-0.017,0.113-0.032,0.113-0.067v4.815c0,0.515,0.37,1.079,0.885,1.079H817.238z M835.996,154.427L835.996,154.427
		c0.515,0,0.934-0.564,0.934-1.079v-7.326c0-0.515-0.419-0.82-0.934-0.82h-0.032c-0.339,0-0.629,0.112-0.805,0.386
		c-0.146,0.24-0.371,0.466-0.676,0.74c-0.324,0.29-0.693,0.53-1.129,0.755c-0.305,0.161-0.498,0.468-0.498,0.822v0.144
		c0,0.322,0.161,0.629,0.433,0.79c0.161,0.097,0.322,0.146,0.5,0.146c0.144,0,0.29-0.032,0.418-0.097
		c0.161-0.082,0.436-0.193,0.612-0.29c0.032-0.017-0.032-0.032,0.178-0.067v4.815c0,0.515,0.24,1.079,0.755,1.079H835.996z
		 M825.915,147.714L825.915,147.714c-0.129-0.532-0.322-0.983-0.562-1.369c-0.275-0.401-0.612-0.723-1.015-0.934
		c-0.418-0.225-0.884-0.322-1.401-0.322c-0.723,0-1.335,0.193-1.818,0.597c-0.468,0.369-0.822,0.916-1.047,1.592
		c-0.225,0.644-0.322,1.466-0.322,2.481c0,1.658,0.29,2.849,0.919,3.622c0.547,0.692,1.32,1.046,2.268,1.046
		c0.71,0,1.322-0.209,1.82-0.596c0.468-0.386,0.822-0.934,1.047-1.61c0.208-0.628,0.322-1.465,0.322-2.463
		C826.126,148.905,826.061,148.229,825.915,147.714z M823.615,152.077L823.615,152.077c-0.258,0.37-0.5,0.418-0.678,0.418
		c-0.193,0-0.434-0.048-0.691-0.418c-0.114-0.161-0.354-0.692-0.354-2.318c0-1.498,0.225-2.127,0.401-2.399
		c0.161-0.225,0.371-0.339,0.629-0.339c0.193,0,0.436,0.049,0.693,0.418c0.112,0.161,0.369,0.693,0.369,2.32
		C823.984,151.384,823.726,151.916,823.615,152.077z M830.102,154.427L830.102,154.427c0.515,0,0.822-0.564,0.822-1.079v-7.326
		c0-0.515-0.307-0.82-0.822-0.82h-0.049c-0.322,0-0.627,0.112-0.805,0.386c-0.144,0.24-0.369,0.466-0.676,0.74
		c-0.322,0.29-0.74,0.53-1.174,0.755c-0.307,0.161-0.549,0.468-0.549,0.822v0.144c0,0.322,0.21,0.629,0.485,0.79
		c0.161,0.097,0.354,0.146,0.53,0.146c0.129,0,0.29-0.032,0.419-0.097c0.178-0.082,0.404-0.193,0.579-0.29
		c0.032-0.017-0.079-0.032,0.129-0.067v4.815c0,0.515,0.354,1.079,0.869,1.079H830.102z"/>
</g>
<path class="st4" d="M781.976,135.907l15.672,7.836l-15.672,7.836V135.907z M745.42,141.131h39.168v5.224H745.42V141.131z"/>
<g>
	<path class="st3" d="M795.105,95.835h4.601c0.907,0,1.64,0.123,2.198,0.369c0.558,0.246,1.02,0.599,1.384,1.06
		s0.629,0.996,0.793,1.606s0.246,1.258,0.246,1.941c0,1.071-0.122,1.901-0.366,2.492c-0.243,0.59-0.582,1.084-1.015,1.483
		s-0.897,0.664-1.395,0.796c-0.679,0.182-1.294,0.273-1.846,0.273h-4.601V95.835z M798.202,98.104v5.476h0.759
		c0.647,0,1.107-0.072,1.381-0.215s0.487-0.394,0.643-0.752s0.232-0.938,0.232-1.74c0-1.062-0.173-1.789-0.52-2.181
		s-0.921-0.588-1.723-0.588H798.202z"/>
	<path class="st3" d="M805.947,95.835h8.299v2.14h-5.195v1.593h4.819v2.044h-4.819v1.976h5.346v2.27h-8.449V95.835z"/>
	<path class="st3" d="M816.05,95.835h5.147c1.121,0,1.961,0.267,2.519,0.8c0.559,0.533,0.838,1.292,0.838,2.276
		c0,1.012-0.305,1.802-0.912,2.372c-0.609,0.57-1.537,0.854-2.786,0.854h-1.695v3.719h-3.11V95.835z M819.161,100.107h0.759
		c0.597,0,1.017-0.104,1.258-0.311s0.362-0.473,0.362-0.796c0-0.314-0.104-0.581-0.314-0.8s-0.604-0.328-1.183-0.328h-0.882V100.107
		z"/>
	<path class="st3" d="M826.174,95.835h3.097v7.554h4.833v2.468h-7.93V95.835z"/>
	<path class="st3" d="M835.123,100.853c0-1.636,0.456-2.91,1.367-3.821s2.181-1.367,3.808-1.367c1.668,0,2.953,0.448,3.855,1.343
		s1.354,2.15,1.354,3.763c0,1.171-0.197,2.132-0.592,2.881c-0.394,0.75-0.963,1.333-1.709,1.75
		c-0.744,0.417-1.673,0.625-2.785,0.625c-1.13,0-2.065-0.18-2.807-0.54c-0.74-0.36-1.341-0.93-1.801-1.709
		S835.123,102.024,835.123,100.853z M838.219,100.866c0,1.012,0.188,1.739,0.564,2.181c0.375,0.442,0.887,0.663,1.534,0.663
		c0.665,0,1.181-0.216,1.545-0.649s0.547-1.21,0.547-2.331c0-0.943-0.19-1.633-0.571-2.068c-0.38-0.435-0.896-0.653-1.548-0.653
		c-0.624,0-1.126,0.221-1.504,0.663S838.219,99.845,838.219,100.866z"/>
	<path class="st3" d="M846.163,95.835h3.439l2.02,3.381l2.023-3.381h3.421l-3.896,5.824v4.197h-3.104v-4.197L846.163,95.835z"/>
</g>
<g>
	<path class="st5" d="M351.977,144.123L351.977,144.123c0-15.184-12.301-27.468-27.483-27.468
		c-15.167,0-27.468,12.284-27.468,27.468c0,15.166,12.301,27.483,27.468,27.483C339.676,171.606,351.977,159.29,351.977,144.123z"/>
	<path class="st2" d="M335.877,134.254L335.877,134.254c0-3.766-10.224-3.863-11.383-3.863c-1.159,0-11.383,0.097-11.383,3.863
		c0,0.483,0.177,0.901,0.483,1.288l7.696,8.629l0.627,12.463c0.032,0.515,0.354,0.95,0.822,1.143c0.161,0.048,0.307,0.08,0.468,0.08
		c0.337,0,0.659-0.129,0.916-0.37l2.577-2.576c0.225-0.226,0.354-0.531,0.369-0.837l0.579-9.838l7.745-8.694
		C335.699,135.155,335.877,134.736,335.877,134.254z M324.495,136.861L324.495,136.861c-5.217,0-9.451-1.174-9.451-2.607
		c0-1.449,4.234-2.625,9.451-2.625c5.215,0,9.451,1.176,9.451,2.625C333.946,135.687,329.709,136.861,324.495,136.861z"/>
</g>
<g>
	<path class="st3" d="M292.173,194.892l2.946-0.185c0.064,0.479,0.194,0.843,0.39,1.094c0.319,0.406,0.775,0.608,1.367,0.608
		c0.442,0,0.783-0.104,1.022-0.311s0.359-0.448,0.359-0.721c0-0.26-0.114-0.492-0.342-0.697s-0.756-0.399-1.586-0.581
		c-1.358-0.305-2.327-0.711-2.905-1.217c-0.583-0.506-0.875-1.151-0.875-1.935c0-0.515,0.149-1.001,0.448-1.459
		s0.748-0.818,1.347-1.08s1.421-0.393,2.464-0.393c1.281,0,2.257,0.238,2.929,0.714s1.072,1.234,1.2,2.273l-2.919,0.171
		c-0.078-0.451-0.24-0.779-0.489-0.984s-0.591-0.308-1.029-0.308c-0.36,0-0.631,0.076-0.813,0.229s-0.273,0.338-0.273,0.557
		c0,0.16,0.075,0.303,0.226,0.431c0.146,0.132,0.492,0.255,1.039,0.369c1.354,0.292,2.323,0.587,2.909,0.885
		s1.012,0.669,1.278,1.111s0.4,0.937,0.4,1.483c0,0.643-0.178,1.235-0.533,1.777s-0.852,0.954-1.49,1.234s-1.442,0.42-2.413,0.42
		c-1.705,0-2.885-0.328-3.541-0.984S292.259,195.903,292.173,194.892z"/>
	<path class="st3" d="M302.816,188.186h8.299v2.14h-5.195v1.593h4.819v2.044h-4.819v1.976h5.346v2.27h-8.449V188.186z"/>
	<path class="st3" d="M312.933,188.186h3.097v7.554h4.833v2.468h-7.93V188.186z"/>
	<path class="st3" d="M322.264,188.186h8.299v2.14h-5.195v1.593h4.819v2.044h-4.819v1.976h5.346v2.27h-8.449V188.186z"/>
	<path class="st3" d="M339.053,194.105l2.714,0.82c-0.182,0.761-0.469,1.397-0.861,1.907s-0.878,0.896-1.459,1.155
		s-1.32,0.39-2.218,0.39c-1.089,0-1.979-0.158-2.669-0.475s-1.286-0.874-1.788-1.67s-0.752-1.817-0.752-3.061
		c0-1.658,0.441-2.932,1.323-3.822c0.882-0.89,2.129-1.335,3.743-1.335c1.262,0,2.255,0.255,2.977,0.766s1.259,1.294,1.61,2.352
		l-2.734,0.608c-0.096-0.305-0.196-0.529-0.301-0.67c-0.173-0.237-0.385-0.419-0.636-0.547s-0.531-0.191-0.841-0.191
		c-0.702,0-1.24,0.282-1.613,0.847c-0.283,0.419-0.424,1.077-0.424,1.973c0,1.111,0.168,1.872,0.506,2.284
		c0.337,0.412,0.811,0.618,1.422,0.618c0.592,0,1.04-0.167,1.343-0.499S338.917,194.739,339.053,194.105z"/>
	<path class="st3" d="M342.567,188.186h9.413v2.475h-3.158v7.547h-3.097v-7.547h-3.158V188.186z"/>
</g>
<g>
	<path class="st3" d="M277.335,205.6h3.237l2.255,7.212l2.227-7.212h3.143l-3.721,10.021h-3.356L277.335,205.6z"/>
	<path class="st3" d="M295.37,213.967h-3.516l-0.489,1.654h-3.162l3.767-10.021h3.378l3.766,10.021h-3.243L295.37,213.967z
		 M294.728,211.8l-1.106-3.603l-1.095,3.603H294.728z"/>
	<path class="st3" d="M300.14,215.621V205.6h5.161c0.957,0,1.688,0.082,2.194,0.246s0.914,0.468,1.224,0.913
		s0.465,0.985,0.465,1.624c0,0.556-0.119,1.036-0.355,1.439c-0.237,0.403-0.563,0.73-0.979,0.981
		c-0.264,0.16-0.627,0.292-1.087,0.396c0.369,0.123,0.638,0.247,0.806,0.37c0.114,0.082,0.279,0.257,0.495,0.527
		c0.216,0.269,0.361,0.477,0.434,0.623l1.5,2.904h-3.499l-1.655-3.063c-0.209-0.396-0.396-0.654-0.561-0.772
		c-0.223-0.155-0.476-0.232-0.759-0.232h-0.273v4.067H300.14z M303.25,209.66h1.306c0.141,0,0.415-0.045,0.82-0.137
		c0.205-0.041,0.373-0.146,0.502-0.314s0.195-0.362,0.195-0.581c0-0.324-0.103-0.572-0.308-0.745s-0.59-0.26-1.155-0.26h-1.36
		V209.66z"/>
	<path class="st3" d="M311.111,205.6h3.104v10.021h-3.104V205.6z"/>
	<path class="st3" d="M322.598,213.967h-3.516l-0.489,1.654h-3.162l3.767-10.021h3.378l3.766,10.021h-3.243L322.598,213.967z
		 M321.955,211.8l-1.106-3.603l-1.095,3.603H321.955z"/>
	<path class="st3" d="M327.333,205.6h5.797c0.966,0,1.708,0.239,2.225,0.718s0.776,1.071,0.776,1.777
		c0,0.592-0.185,1.101-0.554,1.524c-0.246,0.283-0.606,0.506-1.08,0.67c0.72,0.173,1.25,0.471,1.589,0.892s0.509,0.951,0.509,1.589
		c0,0.52-0.121,0.987-0.362,1.401s-0.572,0.743-0.991,0.984c-0.26,0.15-0.652,0.26-1.176,0.328c-0.697,0.091-1.16,0.137-1.388,0.137
		h-5.346V205.6z M330.457,209.53h1.347c0.483,0,0.819-0.083,1.008-0.25s0.284-0.407,0.284-0.721c0-0.292-0.095-0.52-0.284-0.684
		s-0.519-0.246-0.988-0.246h-1.367V209.53z M330.457,213.468h1.579c0.533,0,0.909-0.095,1.128-0.284s0.328-0.443,0.328-0.762
		c0-0.296-0.108-0.534-0.325-0.714s-0.596-0.27-1.138-0.27h-1.572V213.468z"/>
	<path class="st3" d="M338.216,205.6h3.097v7.554h4.833v2.468h-7.93V205.6z"/>
	<path class="st3" d="M347.547,205.6h8.299v2.14h-5.195v1.593h4.819v2.044h-4.819v1.976h5.346v2.27h-8.449V205.6z"/>
	<path class="st3" d="M357.124,212.306l2.946-0.185c0.064,0.479,0.194,0.843,0.39,1.094c0.319,0.406,0.775,0.608,1.367,0.608
		c0.442,0,0.783-0.104,1.022-0.311s0.359-0.448,0.359-0.721c0-0.26-0.114-0.492-0.342-0.697s-0.756-0.399-1.586-0.581
		c-1.358-0.305-2.327-0.711-2.905-1.217c-0.583-0.506-0.875-1.151-0.875-1.935c0-0.515,0.149-1.001,0.448-1.459
		s0.748-0.818,1.347-1.08s1.421-0.393,2.464-0.393c1.281,0,2.257,0.238,2.929,0.714s1.072,1.234,1.2,2.273l-2.919,0.171
		c-0.078-0.451-0.24-0.779-0.489-0.984s-0.591-0.308-1.029-0.308c-0.36,0-0.631,0.076-0.813,0.229s-0.273,0.338-0.273,0.557
		c0,0.16,0.075,0.303,0.226,0.431c0.146,0.132,0.492,0.255,1.039,0.369c1.354,0.292,2.323,0.587,2.909,0.885
		s1.012,0.669,1.278,1.111s0.4,0.937,0.4,1.483c0,0.643-0.178,1.235-0.533,1.777s-0.852,0.954-1.49,1.234s-1.442,0.42-2.413,0.42
		c-1.705,0-2.885-0.328-3.541-0.984S357.211,213.317,357.124,212.306z"/>
</g>
<g>
	<path class="st5" d="M756.837,144.123L756.837,144.123c0-15.184-12.301-27.468-27.483-27.468
		c-15.167,0-27.468,12.284-27.468,27.468c0,15.166,12.301,27.483,27.468,27.483C744.536,171.606,756.837,159.29,756.837,144.123z"/>
	<path class="st2" d="M716.361,154.395L716.361,154.395l2.721,2.721c0.998,0.998,2.624,0.998,3.623,0l19.642-19.644
		c0.998-0.998,0.998-2.623,0-3.623l-2.721-2.719c-0.998-1-2.625-1-3.623,0l-19.642,19.642
		C715.363,151.771,715.363,153.397,716.361,154.395z M735.859,132.498L735.859,132.498c0.161-0.176,0.433-0.176,0.594,0l3.028,3.011
		c0.161,0.178,0.161,0.436,0,0.612c-0.178,0.161-0.451,0.161-0.612,0l-3.011-3.026C735.681,132.934,735.681,132.659,735.859,132.498
		z M734.941,136.717L734.941,136.717l-1.352-1.352c-0.178-0.178-0.178-0.436,0-0.612c0.161-0.161,0.433-0.161,0.594,0l1.369,1.367
		c0.161,0.161,0.161,0.436,0,0.597C735.376,136.893,735.119,136.893,734.941,136.717z M731.318,137.022L731.318,137.022
		c0.161-0.161,0.436-0.161,0.612,0l3.011,3.028c0.178,0.161,0.178,0.434,0,0.594c-0.161,0.161-0.436,0.161-0.597,0l-3.026-3.026
		C731.157,137.458,731.157,137.183,731.318,137.022z M730.417,141.258L730.417,141.258l-1.369-1.369
		c-0.161-0.161-0.161-0.436,0-0.597c0.178-0.176,0.451-0.176,0.612,0l1.352,1.352c0.178,0.161,0.178,0.436,0,0.614
		C730.85,141.419,730.578,141.419,730.417,141.258z M726.794,141.548L726.794,141.548c0.161-0.161,0.434-0.161,0.594,0l3.028,3.026
		c0.161,0.161,0.161,0.436,0,0.612c-0.178,0.161-0.436,0.161-0.612,0l-3.011-3.026C726.616,141.999,726.616,141.724,726.794,141.548
		z M725.876,145.782L725.876,145.782l-1.352-1.354c-0.161-0.176-0.161-0.451,0-0.612c0.161-0.161,0.436-0.161,0.612,0l1.352,1.369
		c0.161,0.161,0.161,0.436,0,0.597C726.326,145.943,726.054,145.943,725.876,145.782z M722.254,146.087L722.254,146.087
		c0.177-0.176,0.435-0.176,0.612,0l3.01,3.011c0.178,0.178,0.178,0.451,0,0.612c-0.161,0.161-0.434,0.161-0.595,0l-3.027-3.026
		C722.093,146.523,722.093,146.248,722.254,146.087z M721.352,150.306L721.352,150.306L720,148.954
		c-0.177-0.161-0.177-0.436,0-0.614c0.161-0.161,0.435-0.161,0.596,0l1.368,1.369c0.161,0.161,0.161,0.435,0,0.596
		C721.787,150.483,721.513,150.483,721.352,150.306z M717.73,150.612L717.73,150.612c0.161-0.161,0.435-0.161,0.596,0l3.027,3.027
		c0.161,0.161,0.161,0.435,0,0.596c-0.161,0.177-0.435,0.177-0.612,0l-3.011-3.011C717.568,151.046,717.568,150.789,717.73,150.612z
		"/>
</g>
<g>
	<path class="st5" d="M701.985,73.599L701.985,73.599c0-15.184-12.301-27.468-27.483-27.468c-15.167,0-27.468,12.284-27.468,27.468
		c0,15.166,12.301,27.483,27.468,27.483C689.684,101.083,701.985,88.766,701.985,73.599z"/>
	<path class="st2" d="M669.994,74.936L669.994,74.936c0,1.27-1.03,2.318-2.302,2.318h-2.689c-1.272,0-2.303-1.047-2.303-2.318
		v-2.674c0-1.271,1.031-2.318,2.303-2.318h2.689c1.272,0,2.302,1.047,2.302,2.318V74.936z M678.157,72.262L678.157,72.262
		c0-1.27-1.03-2.318-2.303-2.318h-2.704c-1.273,0-2.288,1.047-2.288,2.318v2.674c0,1.27,1.015,2.318,2.288,2.318h2.704
		c1.273,0,2.303-1.047,2.303-2.318V72.262z M686.319,72.262L686.319,72.262c0-1.27-1.03-2.318-2.301-2.318h-2.706
		c-1.271,0-2.303,1.047-2.303,2.318l0,2.674c0,1.27,1.032,2.318,2.303,2.318h2.706c1.27,0,2.301-1.047,2.301-2.318V72.262z
		 M669.994,80.426L669.994,80.426c0-1.287-1.03-2.317-2.302-2.317h-2.689c-1.272,0-2.303,1.03-2.303,2.317v2.657
		c0,1.288,1.031,2.318,2.303,2.318h2.689c1.272,0,2.302-1.03,2.302-2.318V80.426z M678.157,80.426L678.157,80.426
		c0-1.287-1.03-2.317-2.303-2.317h-2.704c-1.273,0-2.288,1.03-2.288,2.317v2.657c0,1.288,1.015,2.318,2.288,2.318h2.704
		c1.273,0,2.303-1.03,2.303-2.318V80.426z M686.319,80.426L686.319,80.426c0-1.287-1.03-2.317-2.301-2.317h-2.706
		c-1.27,0-2.303,1.03-2.303,2.317v2.657c0,1.288,1.032,2.318,2.303,2.318h2.706c1.271,0,2.301-1.03,2.301-2.318V80.426z
		 M669.994,64.101L669.994,64.101c0-1.273-1.03-2.303-2.302-2.303h-2.689c-1.272,0-2.303,1.03-2.303,2.303v2.672
		c0,1.273,1.031,2.318,2.303,2.318h2.689c1.272,0,2.302-1.045,2.302-2.318V64.101z M678.157,64.101L678.157,64.101
		c0-1.273-1.03-2.303-2.303-2.303h-2.704c-1.273,0-2.288,1.03-2.288,2.303v2.672c0,1.273,1.015,2.318,2.288,2.318h2.704
		c1.273,0,2.303-1.045,2.303-2.318V64.101z M686.014,60.317L686.014,60.317c-0.644-1.112-2.045-1.498-3.14-0.854l-2.35,1.352
		c-1.097,0.629-1.466,2.045-0.839,3.157l1.337,2.301c0.644,1.112,2.06,1.498,3.157,0.854l2.333-1.352
		c1.097-0.629,1.483-2.045,0.839-3.157L686.014,60.317z"/>
</g>
<path class="st6" d="M342.447,67.995l10.448,5.224l-10.448,5.224V67.995z M336.594,71.477h7.594v3.483h-7.594V71.477z
	 M323.147,75.444v-2.225c0-0.967,0.774-1.741,1.741-1.741h8.223v3.483h-8.223l1.741-1.741v2.225H323.147z M323.147,89.374V78.926
	h3.483v10.448H323.147z M323.147,103.305V92.857h3.483v10.448H323.147z M323.147,117.236v-10.448h3.483v10.448H323.147z"/>
<path class="st6" d="M439.695,106.788l-5.224,10.448l-5.224-10.448H439.695z M436.213,102.072v6.457h-3.483v-6.457H436.213z
	 M436.213,88.141v10.448h-3.483V88.141H436.213z M436.213,74.21v10.448h-3.483V74.21H436.213z M421.532,71.477h10.448v3.483h-10.448
	V71.477z M407.601,71.477h10.448v3.483h-10.448V71.477z"/>
<path class="st4" d="M481.572,136.777l15.672,7.836l-15.672,7.836V136.777z M461.583,142.001h22.601v5.224h-22.601V142.001z"/>
<path class="st4" d="M686.118,136.777l15.672,7.836l-15.672,7.836V136.777z M647.035,142.001h41.695v5.224h-41.695V142.001z"/>
<path class="st6" d="M637.131,68.865l10.448,5.224l-10.448,5.224V68.865z M632.463,72.348h6.409v3.483h-6.409V72.348z
	 M618.303,75.601v-1.512c0-0.967,0.774-1.741,1.741-1.741h8.936v3.483h-8.936l1.741-1.741v1.512H618.303z M618.303,89.532V79.084
	h3.483v10.448H618.303z M618.303,103.462V93.014h3.483v10.448H618.303z M618.303,117.393v-10.448h3.483v10.448H618.303z"/>
<path class="st6" d="M734.331,106.945l-5.224,10.448l-5.224-10.448H734.331z M730.849,102.592v6.095h-3.483v-6.095H730.849z
	 M730.849,88.661v10.448h-3.483V88.661H730.849z M730.849,74.73v10.448h-3.483V74.73H730.849z M715.817,72.348h10.448v3.483h-10.448
	V72.348z M701.887,72.348h10.448v3.483h-10.448V72.348z"/>
<g>
	<path class="st3" d="M361.433,20.051h2.941l1.059,5.61l1.55-5.61h2.931l1.553,5.603l1.061-5.603h2.926l-2.209,10.021h-3.037
		l-1.758-6.31l-1.751,6.31h-3.037L361.433,20.051z"/>
	<path class="st3" d="M376.075,25.068c0-1.636,0.456-2.91,1.367-3.821s2.181-1.367,3.808-1.367c1.668,0,2.953,0.448,3.855,1.343
		s1.354,2.15,1.354,3.763c0,1.171-0.197,2.132-0.591,2.881s-0.964,1.333-1.709,1.75s-1.674,0.625-2.786,0.625
		c-1.13,0-2.065-0.18-2.806-0.54s-1.341-0.93-1.801-1.709S376.075,26.24,376.075,25.068z M379.172,25.082
		c0,1.012,0.188,1.739,0.564,2.181s0.888,0.663,1.535,0.663c0.666,0,1.18-0.216,1.545-0.649s0.547-1.21,0.547-2.331
		c0-0.943-0.19-1.633-0.571-2.068s-0.896-0.653-1.548-0.653c-0.625,0-1.125,0.221-1.504,0.663S379.172,24.061,379.172,25.082z"/>
	<path class="st3" d="M388.12,20.051h8.299v2.14h-5.195v1.593h4.819v2.044h-4.819v1.976h5.346v2.27h-8.449V20.051z"/>
</g>
<g>
	<path class="st3" d="M598.729,28.839V18.817h5.161c0.957,0,1.688,0.082,2.194,0.246s0.914,0.468,1.224,0.913
		s0.465,0.985,0.465,1.624c0,0.556-0.118,1.036-0.355,1.439s-0.563,0.73-0.979,0.981c-0.265,0.16-0.627,0.292-1.087,0.396
		c0.368,0.123,0.637,0.247,0.806,0.37c0.114,0.082,0.279,0.257,0.495,0.527c0.217,0.269,0.361,0.477,0.434,0.623l1.5,2.904h-3.499
		l-1.655-3.063c-0.21-0.396-0.396-0.654-0.561-0.772c-0.224-0.155-0.477-0.232-0.759-0.232h-0.273v4.067H598.729z M601.84,22.878
		h1.306c0.142,0,0.415-0.045,0.82-0.137c0.205-0.041,0.373-0.146,0.502-0.314c0.131-0.168,0.195-0.362,0.195-0.581
		c0-0.324-0.103-0.572-0.308-0.745s-0.59-0.26-1.155-0.26h-1.36V22.878z"/>
	<path class="st3" d="M609.571,18.817h8.299v2.14h-5.195v1.593h4.819v2.044h-4.819v1.976h5.346v2.27h-8.449V18.817z"/>
	<path class="st3" d="M623.858,18.817h3.104v5.445c0,1.143-0.102,2.013-0.305,2.609c-0.202,0.597-0.61,1.102-1.223,1.517
		c-0.613,0.415-1.398,0.622-2.355,0.622c-1.012,0-1.796-0.137-2.352-0.41s-0.985-0.673-1.289-1.2
		c-0.303-0.526-0.481-1.177-0.536-1.952l2.96-0.403c0.005,0.442,0.043,0.77,0.116,0.984s0.196,0.387,0.369,0.52
		c0.118,0.086,0.287,0.13,0.506,0.13c0.347,0,0.601-0.128,0.763-0.386c0.161-0.257,0.242-0.691,0.242-1.301V18.817z"/>
	<path class="st3" d="M629.019,18.817h8.299v2.14h-5.195v1.593h4.819v2.044h-4.819v1.976h5.346v2.27h-8.449V18.817z"/>
	<path class="st3" d="M645.808,24.737l2.714,0.82c-0.183,0.761-0.47,1.397-0.861,1.907s-0.878,0.896-1.46,1.155
		c-0.58,0.26-1.32,0.39-2.218,0.39c-1.089,0-1.979-0.158-2.669-0.475c-0.691-0.316-1.287-0.874-1.788-1.67s-0.752-1.817-0.752-3.061
		c0-1.658,0.44-2.932,1.323-3.822c0.881-0.89,2.129-1.335,3.742-1.335c1.263,0,2.255,0.255,2.977,0.766
		c0.723,0.51,1.26,1.294,1.61,2.352l-2.734,0.608c-0.096-0.305-0.196-0.529-0.301-0.67c-0.173-0.237-0.385-0.419-0.636-0.547
		s-0.531-0.191-0.841-0.191c-0.702,0-1.239,0.282-1.613,0.847c-0.282,0.419-0.424,1.077-0.424,1.973
		c0,1.111,0.169,1.872,0.506,2.284c0.337,0.412,0.812,0.618,1.422,0.618c0.593,0,1.04-0.167,1.343-0.499
		C645.452,25.854,645.672,25.371,645.808,24.737z"/>
	<path class="st3" d="M649.322,18.817h9.413v2.475h-3.158v7.547h-3.097v-7.547h-3.158V18.817z"/>
	<path class="st3" d="M664.928,18.817h3.104v10.021h-3.104V18.817z"/>
	<path class="st3" d="M670.274,18.817h2.892l3.773,5.544v-5.544h2.919v10.021h-2.919l-3.753-5.502v5.502h-2.912V18.817z"/>
	<path class="st3" d="M681.929,18.817h7.656v2.153h-4.546v1.75h3.883v2.023h-3.883v4.095h-3.11V18.817z"/>
	<path class="st3" d="M691.247,18.817h8.299v2.14h-5.195v1.593h4.819v2.044h-4.819v1.976h5.346v2.27h-8.449V18.817z"/>
	<path class="st3" d="M701.405,28.839V18.817h5.161c0.957,0,1.688,0.082,2.194,0.246s0.914,0.468,1.224,0.913
		s0.465,0.985,0.465,1.624c0,0.556-0.118,1.036-0.355,1.439s-0.563,0.73-0.979,0.981c-0.265,0.16-0.627,0.292-1.087,0.396
		c0.368,0.123,0.637,0.247,0.806,0.37c0.114,0.082,0.279,0.257,0.495,0.527c0.217,0.269,0.361,0.477,0.434,0.623l1.5,2.904h-3.499
		l-1.655-3.063c-0.21-0.396-0.396-0.654-0.561-0.772c-0.224-0.155-0.477-0.232-0.759-0.232h-0.273v4.067H701.405z M704.515,22.878
		h1.306c0.142,0,0.415-0.045,0.82-0.137c0.205-0.041,0.373-0.146,0.502-0.314c0.131-0.168,0.195-0.362,0.195-0.581
		c0-0.324-0.103-0.572-0.308-0.745s-0.59-0.26-1.155-0.26h-1.36V22.878z"/>
	<path class="st3" d="M712.247,18.817h8.299v2.14h-5.195v1.593h4.819v2.044h-4.819v1.976h5.346v2.27h-8.449V18.817z"/>
	<path class="st3" d="M722.384,18.817h2.892l3.773,5.544v-5.544h2.919v10.021h-2.919l-3.753-5.502v5.502h-2.912V18.817z"/>
	<path class="st3" d="M740.698,24.737l2.714,0.82c-0.183,0.761-0.47,1.397-0.861,1.907s-0.878,0.896-1.46,1.155
		c-0.58,0.26-1.32,0.39-2.218,0.39c-1.089,0-1.979-0.158-2.669-0.475c-0.691-0.316-1.287-0.874-1.788-1.67s-0.752-1.817-0.752-3.061
		c0-1.658,0.44-2.932,1.323-3.822c0.881-0.89,2.129-1.335,3.742-1.335c1.263,0,2.255,0.255,2.977,0.766
		c0.723,0.51,1.26,1.294,1.61,2.352l-2.734,0.608c-0.096-0.305-0.196-0.529-0.301-0.67c-0.173-0.237-0.385-0.419-0.636-0.547
		s-0.531-0.191-0.841-0.191c-0.702,0-1.239,0.282-1.613,0.847c-0.282,0.419-0.424,1.077-0.424,1.973
		c0,1.111,0.169,1.872,0.506,2.284c0.337,0.412,0.812,0.618,1.422,0.618c0.593,0,1.04-0.167,1.343-0.499
		C740.341,25.854,740.561,25.371,740.698,24.737z"/>
	<path class="st3" d="M744.909,18.817h8.299v2.14h-5.195v1.593h4.819v2.044h-4.819v1.976h5.346v2.27h-8.449V18.817z"/>
</g>
<g>
	<path class="st3" d="M704.897,193.562l2.946-0.185c0.063,0.479,0.193,0.843,0.39,1.094c0.319,0.406,0.774,0.608,1.367,0.608
		c0.442,0,0.782-0.104,1.022-0.311c0.238-0.208,0.358-0.448,0.358-0.721c0-0.26-0.114-0.492-0.342-0.697s-0.757-0.399-1.586-0.581
		c-1.358-0.305-2.326-0.711-2.905-1.217c-0.583-0.506-0.875-1.151-0.875-1.935c0-0.515,0.149-1.001,0.447-1.459
		c0.299-0.458,0.748-0.818,1.348-1.08c0.599-0.262,1.42-0.393,2.464-0.393c1.28,0,2.257,0.238,2.929,0.714
		c0.673,0.476,1.072,1.234,1.2,2.273l-2.919,0.171c-0.077-0.451-0.24-0.779-0.488-0.984c-0.249-0.205-0.592-0.308-1.029-0.308
		c-0.36,0-0.631,0.076-0.813,0.229s-0.273,0.338-0.273,0.557c0,0.16,0.075,0.303,0.226,0.431c0.146,0.132,0.492,0.255,1.039,0.369
		c1.354,0.292,2.323,0.587,2.908,0.885c0.586,0.298,1.012,0.669,1.279,1.111c0.266,0.442,0.399,0.937,0.399,1.483
		c0,0.643-0.178,1.235-0.533,1.777s-0.853,0.954-1.49,1.234s-1.442,0.42-2.413,0.42c-1.704,0-2.885-0.328-3.541-0.984
		S704.984,194.573,704.897,193.562z"/>
	<path class="st3" d="M722.219,192.775l2.714,0.82c-0.183,0.761-0.47,1.397-0.861,1.907s-0.878,0.896-1.46,1.155
		c-0.58,0.26-1.32,0.39-2.218,0.39c-1.089,0-1.979-0.158-2.669-0.475c-0.691-0.316-1.287-0.874-1.788-1.67s-0.752-1.817-0.752-3.061
		c0-1.658,0.44-2.932,1.323-3.822c0.881-0.89,2.129-1.335,3.742-1.335c1.263,0,2.255,0.255,2.977,0.766
		c0.723,0.51,1.26,1.294,1.61,2.352l-2.734,0.608c-0.096-0.305-0.196-0.529-0.301-0.67c-0.173-0.237-0.385-0.419-0.636-0.547
		s-0.531-0.191-0.841-0.191c-0.702,0-1.239,0.282-1.613,0.847c-0.282,0.419-0.424,1.077-0.424,1.973
		c0,1.111,0.169,1.872,0.506,2.284c0.337,0.412,0.812,0.618,1.422,0.618c0.593,0,1.04-0.167,1.343-0.499
		C721.863,193.892,722.083,193.409,722.219,192.775z"/>
	<path class="st3" d="M732.598,195.223h-3.516l-0.488,1.654h-3.162l3.767-10.021h3.378l3.766,10.021h-3.243L732.598,195.223z
		 M731.956,193.056l-1.106-3.603l-1.094,3.603H731.956z"/>
	<path class="st3" d="M737.327,186.855h3.097v7.554h4.833v2.468h-7.93V186.855z"/>
	<path class="st3" d="M746.658,186.855h8.299v2.14h-5.195v1.593h4.819v2.044h-4.819v1.976h5.346v2.27h-8.449V186.855z"/>
</g>
<g>
	<path class="st5" d="M552.231,144.123L552.231,144.123c0-15.184-12.301-27.468-27.483-27.468
		c-15.167,0-27.468,12.284-27.468,27.468c0,15.166,12.301,27.483,27.468,27.483C539.929,171.606,552.231,159.29,552.231,144.123z"/>
	<path class="st2" d="M514.298,157.004L514.298,157.004c-0.354,0-0.66-0.209-0.789-0.531c-0.129-0.338-0.064-0.708,0.193-0.95
		l11.335-10.998l-11.351-11.834c-0.241-0.24-0.306-0.612-0.177-0.934c0.145-0.305,0.451-0.515,0.789-0.515h20.753
		c0.483,0,0.869,0.386,0.869,0.854v4.299c0,0.337-0.208,0.659-0.53,0.788c-0.114,0.049-0.225,0.064-0.339,0.064
		c-0.225,0-0.434-0.079-0.612-0.24l-2.753-2.753h-8.79l8.05,8.421c0.339,0.337,0.322,0.869-0.015,1.206l-9.226,9.049h9.981
		l2.753-2.769c0.178-0.161,0.386-0.241,0.612-0.241c0.114,0,0.225,0.015,0.339,0.064c0.322,0.129,0.53,0.45,0.53,0.788v5.377
		c0,0.467-0.386,0.854-0.869,0.854H514.298z"/>
</g>
<path class="st4" d="M532.905,187.276l-7.836-15.672l-7.836,15.672H532.905z M252.623,305.312h272.446
	c1.451,0,2.612-1.161,2.612-2.612V184.664h-5.224V302.7l2.612-2.612H252.623V305.312z"/>
<g>
	<path class="st5" d="M407.7,72.729L407.7,72.729c0-15.184-12.301-27.468-27.483-27.468c-15.167,0-27.468,12.284-27.468,27.468
		c0,15.166,12.301,27.483,27.468,27.483C395.399,100.212,407.7,87.895,407.7,72.729z"/>
	<path class="st2" d="M377.64,63.921L377.64,63.921h-6.858c-0.596,0-1.079-0.483-1.079-1.062c0-0.597,0.483-1.079,1.079-1.079h6.858
		c-0.129,0.322-0.208,0.693-0.208,1.08C377.432,63.23,377.511,63.599,377.64,63.921z M380.217,60.058L380.217,60.058
		c0.386,0,0.74,0.079,1.077,0.225v-0.225c0-0.597-0.483-1.062-1.077-1.062c-0.597,0-1.062,0.466-1.062,1.062v0.225
		C379.477,60.138,379.846,60.058,380.217,60.058z M386.658,84.755L386.658,84.755c-2.964,0-5.363-1.159-5.363-2.576V65.434
		c-0.337,0.129-0.691,0.21-1.077,0.21c-0.371,0-0.74-0.082-1.062-0.21l0,16.745c0,1.417-2.417,2.576-5.378,2.576
		c-0.467,0-0.853,0.37-0.853,0.853c0,0.467,0.386,0.853,0.853,0.853h12.881c0.483,0,0.869-0.386,0.869-0.853
		C387.527,85.126,387.14,84.755,386.658,84.755z M389.669,61.779L389.669,61.779h-6.876c0.146,0.322,0.225,0.693,0.225,1.08
		c0,0.371-0.079,0.74-0.225,1.062h6.876c0.594,0,1.077-0.483,1.077-1.062C390.746,62.262,390.263,61.779,389.669,61.779z
		 M380.217,60.927L380.217,60.927c-1.062,0-1.934,0.852-1.934,1.932c0,1.062,0.871,1.931,1.934,1.931
		c1.062,0,1.932-0.869,1.932-1.931C382.149,61.779,381.279,60.927,380.217,60.927z M380.217,63.713L380.217,63.713
		c-0.468,0-0.854-0.386-0.854-0.854c0-0.483,0.386-0.869,0.854-0.869c0.483,0,0.869,0.386,0.869,0.869
		C381.086,63.327,380.7,63.713,380.217,63.713z M393.95,73.373L393.95,73.373c0-0.082-0.015-0.146-0.047-0.21l-4.59-7.953
		c-0.112-0.176-0.29-0.29-0.515-0.29c-0.208,0-0.401,0.114-0.498,0.29l-4.588,7.953c-0.032,0.064-0.049,0.129-0.049,0.21
		c0,2.786,2.303,5.153,5.153,5.153c2.833,0,5.153-2.367,5.153-5.153H393.95z M384.58,73.373L384.58,73.373l4.234-7.327l4.219,7.327
		H384.58z M376.788,73.373L376.788,73.373c0-0.082-0.017-0.146-0.064-0.21l-4.589-7.953c-0.097-0.176-0.29-0.29-0.499-0.29
		c-0.226,0-0.403,0.114-0.515,0.29l-4.589,7.953c-0.032,0.064-0.048,0.129-0.048,0.21c0,2.786,2.302,5.153,5.152,5.153
		C374.485,78.525,376.788,76.158,376.788,73.373z M367.401,73.373L367.401,73.373l4.234-7.327l4.219,7.327H367.401z"/>
</g>
</svg>
