<?xml version="1.0" encoding="utf-8"?>
<!-- Generator: Adobe Illustrator 21.1.0, SVG Export Plug-In . SVG Version: 6.00 Build 0)  -->
<svg version="1.1" id="レイヤー_1" xmlns="http://www.w3.org/2000/svg" xmlns:xlink="http://www.w3.org/1999/xlink" x="0px"
	 y="0px" viewBox="0 0 628 131" style="enable-background:new 0 0 628 131;" xml:space="preserve">
<style type="text/css">
	.st0{fill:#B5B5B5;}
	.st1{fill:#FFFFFF;}
	.st2{fill:#595959;}
	.st3{fill:none;stroke:#31859C;stroke-width:3.96;stroke-linejoin:round;stroke-miterlimit:10;}
	.st4{fill-rule:evenodd;clip-rule:evenodd;fill:#31859C;}
</style>
<path class="st0" d="M83.009,49.582L83.009,49.582c0-12.555-10.172-22.713-22.727-22.713c-12.542,0-22.713,10.158-22.713,22.713
	c0,12.542,10.172,22.727,22.713,22.727C72.837,72.308,83.009,62.123,83.009,49.582L83.009,49.582z"/>
<path class="st1" d="M50.67,54.947L50.67,54.947c0.133-0.133,0.359-0.133,0.493,0l2.503,2.503c0.133,0.133,0.133,0.359,0,0.493
	c-0.133,0.146-0.359,0.146-0.506,0l-2.49-2.49C50.537,55.307,50.537,55.094,50.67,54.947L50.67,54.947z M53.666,54.694
	L53.666,54.694l-1.118-1.118c-0.146-0.133-0.146-0.359,0-0.506c0.133-0.133,0.359-0.133,0.493,0l1.132,1.132
	c0.133,0.133,0.133,0.359,0,0.493C54.025,54.841,53.799,54.841,53.666,54.694L53.666,54.694z M54.411,51.206L54.411,51.206
	c0.146-0.146,0.359-0.146,0.506,0l2.49,2.49c0.146,0.146,0.146,0.373,0,0.506c-0.133,0.133-0.359,0.133-0.493,0l-2.503-2.503
	C54.278,51.565,54.278,51.339,54.411,51.206L54.411,51.206z M57.407,50.953L57.407,50.953l-1.118-1.118
	c-0.133-0.146-0.133-0.373,0-0.506s0.359-0.133,0.506,0l1.118,1.132c0.133,0.133,0.133,0.359,0,0.493
	C57.779,51.086,57.553,51.086,57.407,50.953L57.407,50.953z M58.166,47.451L58.166,47.451c0.133-0.133,0.359-0.133,0.493,0
	l2.503,2.503c0.133,0.133,0.133,0.359,0,0.506c-0.146,0.133-0.359,0.133-0.506,0l-2.49-2.503
	C58.019,47.824,58.019,47.598,58.166,47.451L58.166,47.451z M61.161,47.212L61.161,47.212l-1.132-1.132
	c-0.133-0.133-0.133-0.359,0-0.493c0.146-0.146,0.373-0.146,0.506,0l1.118,1.118c0.146,0.133,0.146,0.359,0,0.506
	C61.521,47.345,61.294,47.345,61.161,47.212L61.161,47.212z M61.907,43.71L61.907,43.71c0.133-0.133,0.359-0.133,0.506,0l2.49,2.503
	c0.146,0.133,0.146,0.359,0,0.493c-0.133,0.133-0.359,0.133-0.493,0l-2.503-2.503C61.774,44.07,61.774,43.843,61.907,43.71
	L61.907,43.71z M64.902,43.457L64.902,43.457l-1.118-1.118c-0.146-0.146-0.146-0.359,0-0.506c0.133-0.133,0.359-0.133,0.493,0
	l1.132,1.132c0.133,0.133,0.133,0.359,0,0.493C65.262,43.604,65.049,43.604,64.902,43.457L64.902,43.457z M65.661,39.969
	L65.661,39.969c0.133-0.146,0.359-0.146,0.493,0l2.503,2.49c0.133,0.146,0.133,0.359,0,0.506c-0.146,0.133-0.373,0.133-0.506,0
	l-2.49-2.503C65.515,40.328,65.515,40.102,65.661,39.969L65.661,39.969z M49.538,58.076L49.538,58.076l2.25,2.25
	c0.825,0.825,2.17,0.825,2.996,0l16.243-16.243c0.825-0.825,0.825-2.17,0-2.996l-2.25-2.25c-0.825-0.825-2.17-0.825-2.996,0
	L49.538,55.08C48.713,55.906,48.713,57.25,49.538,58.076L49.538,58.076z"/>
<g>
	<path class="st2" d="M17.502,92.549l2.525-0.158c0.055,0.41,0.166,0.723,0.334,0.938c0.273,0.348,0.664,0.521,1.172,0.521
		c0.379,0,0.671-0.089,0.876-0.267s0.308-0.384,0.308-0.618c0-0.223-0.098-0.422-0.293-0.598s-0.648-0.342-1.359-0.498
		c-1.164-0.262-1.994-0.609-2.49-1.043c-0.5-0.434-0.75-0.986-0.75-1.658c0-0.441,0.128-0.858,0.384-1.251s0.641-0.701,1.154-0.926
		s1.218-0.337,2.112-0.337c1.098,0,1.935,0.204,2.511,0.612s0.919,1.058,1.028,1.948l-2.502,0.146
		c-0.066-0.387-0.206-0.668-0.419-0.844s-0.507-0.264-0.882-0.264c-0.309,0-0.541,0.065-0.697,0.196s-0.234,0.29-0.234,0.478
		c0,0.137,0.064,0.26,0.193,0.369c0.125,0.113,0.422,0.219,0.891,0.316c1.16,0.25,1.991,0.503,2.493,0.759s0.867,0.573,1.096,0.952
		s0.343,0.803,0.343,1.271c0,0.551-0.152,1.059-0.457,1.523s-0.73,0.817-1.277,1.058s-1.236,0.36-2.068,0.36
		c-1.461,0-2.473-0.281-3.035-0.844S17.577,93.416,17.502,92.549z"/>
	<path class="st2" d="M32.35,91.875l2.326,0.703c-0.156,0.652-0.402,1.197-0.738,1.635s-0.753,0.768-1.251,0.99
		s-1.132,0.334-1.901,0.334c-0.934,0-1.696-0.136-2.288-0.407c-0.592-0.271-1.103-0.748-1.532-1.432
		c-0.43-0.683-0.645-1.558-0.645-2.623c0-1.421,0.378-2.513,1.134-3.276c0.756-0.763,1.825-1.145,3.208-1.145
		c1.082,0,1.933,0.219,2.552,0.656s1.079,1.109,1.38,2.016l-2.344,0.521c-0.082-0.262-0.168-0.453-0.258-0.574
		c-0.148-0.203-0.33-0.359-0.545-0.469s-0.455-0.164-0.721-0.164c-0.602,0-1.063,0.242-1.383,0.726
		c-0.242,0.359-0.363,0.923-0.363,1.691c0,0.952,0.145,1.604,0.434,1.958c0.289,0.353,0.695,0.529,1.219,0.529
		c0.508,0,0.892-0.143,1.151-0.428S32.233,92.418,32.35,91.875z"/>
	<path class="st2" d="M35.631,91.102c0-1.402,0.391-2.494,1.172-3.275s1.869-1.172,3.264-1.172c1.43,0,2.531,0.384,3.305,1.151
		s1.16,1.843,1.16,3.226c0,1.004-0.169,1.827-0.507,2.47s-0.826,1.143-1.465,1.5s-1.435,0.536-2.388,0.536
		c-0.969,0-1.771-0.154-2.405-0.463s-1.149-0.797-1.544-1.465S35.631,92.105,35.631,91.102z M38.286,91.113
		c0,0.867,0.161,1.49,0.483,1.869s0.761,0.568,1.315,0.568c0.57,0,1.012-0.186,1.324-0.557s0.469-1.037,0.469-1.998
		c0-0.809-0.163-1.399-0.489-1.772s-0.769-0.56-1.327-0.56c-0.535,0-0.965,0.189-1.289,0.568S38.286,90.238,38.286,91.113z"/>
	<path class="st2" d="M45.997,95.391v-8.59h4.424c0.82,0,1.447,0.07,1.881,0.211s0.783,0.401,1.049,0.782s0.398,0.845,0.398,1.392
		c0,0.477-0.102,0.888-0.305,1.233c-0.204,0.346-0.483,0.626-0.838,0.841c-0.227,0.137-0.538,0.25-0.932,0.34
		c0.316,0.105,0.546,0.211,0.691,0.316c0.097,0.07,0.239,0.221,0.424,0.452c0.186,0.23,0.31,0.408,0.372,0.533l1.285,2.489h-2.999
		l-1.419-2.625c-0.18-0.34-0.34-0.561-0.48-0.662c-0.191-0.133-0.408-0.199-0.65-0.199h-0.234v3.486H45.997z M48.663,90.281h1.119
		c0.121,0,0.355-0.039,0.703-0.117c0.176-0.035,0.319-0.125,0.431-0.27s0.167-0.311,0.167-0.498c0-0.277-0.088-0.49-0.264-0.639
		s-0.506-0.223-0.99-0.223h-1.166V90.281z"/>
	<path class="st2" d="M55.29,86.801h7.113v1.834H57.95V90h4.131v1.752H57.95v1.693h4.582v1.945H55.29V86.801z"/>
	<path class="st2" d="M69.68,91.875l2.326,0.703c-0.156,0.652-0.402,1.197-0.738,1.635s-0.753,0.768-1.251,0.99
		s-1.132,0.334-1.901,0.334c-0.934,0-1.696-0.136-2.288-0.407c-0.592-0.271-1.103-0.748-1.532-1.432
		c-0.43-0.683-0.645-1.558-0.645-2.623c0-1.421,0.378-2.513,1.134-3.276c0.756-0.763,1.825-1.145,3.208-1.145
		c1.082,0,1.933,0.219,2.552,0.656s1.079,1.109,1.38,2.016l-2.344,0.521c-0.082-0.262-0.168-0.453-0.258-0.574
		c-0.148-0.203-0.33-0.359-0.545-0.469s-0.455-0.164-0.721-0.164c-0.602,0-1.063,0.242-1.383,0.726
		c-0.242,0.359-0.363,0.923-0.363,1.691c0,0.952,0.145,1.604,0.434,1.958c0.289,0.353,0.695,0.529,1.219,0.529
		c0.508,0,0.892-0.143,1.151-0.428S69.563,92.418,69.68,91.875z"/>
	<path class="st2" d="M78.576,93.973h-3.013l-0.419,1.418h-2.71l3.229-8.59h2.896l3.228,8.59h-2.779L78.576,93.973z M78.026,92.115
		l-0.948-3.088l-0.938,3.088H78.026z"/>
	<path class="st2" d="M82.665,95.391v-8.59h4.424c0.82,0,1.447,0.07,1.881,0.211s0.783,0.401,1.049,0.782s0.398,0.845,0.398,1.392
		c0,0.477-0.102,0.888-0.305,1.233c-0.204,0.346-0.483,0.626-0.838,0.841c-0.227,0.137-0.538,0.25-0.932,0.34
		c0.316,0.105,0.546,0.211,0.691,0.316c0.097,0.07,0.239,0.221,0.424,0.452c0.186,0.23,0.31,0.408,0.372,0.533l1.285,2.489h-2.999
		l-1.419-2.625c-0.18-0.34-0.34-0.561-0.48-0.662c-0.191-0.133-0.408-0.199-0.65-0.199h-0.234v3.486H82.665z M85.331,90.281h1.119
		c0.121,0,0.355-0.039,0.703-0.117c0.176-0.035,0.319-0.125,0.431-0.27s0.167-0.311,0.167-0.498c0-0.277-0.088-0.49-0.264-0.639
		s-0.506-0.223-0.99-0.223h-1.166V90.281z"/>
	<path class="st2" d="M91.999,86.801h3.943c0.777,0,1.405,0.105,1.884,0.316s0.874,0.514,1.187,0.908s0.539,0.854,0.68,1.377
		s0.211,1.078,0.211,1.664c0,0.918-0.104,1.63-0.313,2.136s-0.499,0.93-0.87,1.271s-0.77,0.569-1.195,0.683
		c-0.582,0.156-1.109,0.234-1.582,0.234h-3.943V86.801z M94.653,88.746v4.693h0.65c0.555,0,0.949-0.062,1.184-0.185
		s0.418-0.338,0.551-0.645s0.199-0.804,0.199-1.491c0-0.91-0.148-1.533-0.445-1.869s-0.789-0.504-1.477-0.504H94.653z"/>
	<path class="st2" d="M35.939,101.201h3.491l1.346,5.227l1.336-5.227h3.489v8.59h-2.174v-6.551l-1.675,6.551h-1.968l-1.672-6.551
		v6.551h-2.174V101.201z"/>
	<path class="st2" d="M46.96,105.502c0-1.402,0.391-2.494,1.172-3.275s1.869-1.172,3.264-1.172c1.43,0,2.531,0.384,3.305,1.151
		s1.16,1.843,1.16,3.226c0,1.004-0.169,1.827-0.507,2.47s-0.826,1.143-1.465,1.5s-1.435,0.536-2.388,0.536
		c-0.969,0-1.771-0.154-2.405-0.463s-1.149-0.797-1.544-1.465S46.96,106.506,46.96,105.502z M49.615,105.514
		c0,0.867,0.161,1.49,0.483,1.869s0.761,0.568,1.315,0.568c0.57,0,1.012-0.186,1.324-0.557s0.469-1.037,0.469-1.998
		c0-0.809-0.163-1.399-0.489-1.772s-0.769-0.56-1.327-0.56c-0.535,0-0.965,0.189-1.289,0.568S49.615,104.639,49.615,105.514z"/>
	<path class="st2" d="M57.326,101.201h3.943c0.777,0,1.405,0.105,1.884,0.316s0.874,0.514,1.187,0.908s0.539,0.854,0.68,1.377
		s0.211,1.078,0.211,1.664c0,0.918-0.104,1.63-0.313,2.136s-0.499,0.93-0.87,1.271s-0.77,0.569-1.195,0.683
		c-0.582,0.156-1.109,0.234-1.582,0.234h-3.943V101.201z M59.98,103.146v4.693h0.65c0.555,0,0.949-0.062,1.184-0.185
		s0.418-0.338,0.551-0.645s0.199-0.804,0.199-1.491c0-0.91-0.148-1.533-0.445-1.869s-0.789-0.504-1.477-0.504H59.98z"/>
	<path class="st2" d="M66.619,101.201h7.113v1.834h-4.453v1.365h4.131v1.752h-4.131v1.693h4.582v1.945h-7.242V101.201z"/>
	<path class="st2" d="M75.291,101.201h2.654v6.475h4.143v2.115h-6.797V101.201z"/>
</g>
<path class="st0" d="M204.329,49.582L204.329,49.582c0-12.555-10.172-22.713-22.727-22.713c-12.542,0-22.713,10.158-22.713,22.713
	c0,12.542,10.172,22.727,22.713,22.727C194.157,72.308,204.329,62.123,204.329,49.582L204.329,49.582z"/>
<path class="st1" d="M185.716,58.102L185.716,58.102c0.426,0,0.679-0.466,0.679-0.892v-6.058c0-0.426-0.253-0.679-0.679-0.679h-0.04
	c-0.266,0-0.519,0.093-0.666,0.32c-0.12,0.2-0.306,0.386-0.559,0.612c-0.266,0.24-0.612,0.439-0.972,0.626
	c-0.253,0.133-0.453,0.386-0.453,0.679v0.12c0,0.266,0.173,0.519,0.399,0.652c0.133,0.08,0.293,0.12,0.439,0.12
	c0.107,0,0.24-0.027,0.346-0.08c0.146-0.067,0.333-0.16,0.479-0.24c0.027-0.013-0.067-0.027,0.107-0.053v3.981
	c0,0.426,0.293,0.892,0.719,0.892H185.716L185.716,58.102L185.716,58.102z M180.351,56.159L180.351,56.159
	c-0.213,0.306-0.413,0.346-0.559,0.346c-0.16,0-0.359-0.04-0.572-0.346c-0.093-0.133-0.293-0.573-0.293-1.917
	c0-1.238,0.186-1.757,0.333-1.984c0.133-0.186,0.306-0.28,0.519-0.28c0.16,0,0.359,0.04,0.572,0.346
	c0.093,0.133,0.306,0.573,0.306,1.917S180.444,56.025,180.351,56.159L180.351,56.159z M182.255,52.551L182.255,52.551
	c-0.107-0.439-0.266-0.812-0.466-1.132c-0.226-0.333-0.506-0.599-0.839-0.772c-0.346-0.186-0.732-0.266-1.158-0.266
	c-0.599,0-1.105,0.16-1.504,0.493c-0.386,0.306-0.679,0.759-0.865,1.318c-0.186,0.533-0.266,1.212-0.266,2.05
	c0,1.371,0.24,2.357,0.759,2.996c0.453,0.573,1.092,0.865,1.877,0.865c0.586,0,1.092-0.173,1.504-0.493
	c0.386-0.32,0.679-0.772,0.865-1.331c0.173-0.519,0.266-1.212,0.266-2.037C182.428,53.536,182.375,52.977,182.255,52.551
	L182.255,52.551z M190.589,58.102L190.589,58.102c0.426,0,0.772-0.466,0.772-0.892v-6.058c0-0.426-0.346-0.679-0.772-0.679h-0.027
	c-0.28,0-0.519,0.093-0.666,0.32c-0.12,0.2-0.306,0.386-0.559,0.612c-0.266,0.24-0.572,0.439-0.932,0.626
	c-0.253,0.133-0.413,0.386-0.413,0.679v0.12c0,0.266,0.133,0.519,0.359,0.652c0.133,0.08,0.266,0.12,0.413,0.12
	c0.12,0,0.24-0.027,0.346-0.08c0.133-0.067,0.359-0.16,0.506-0.24c0.027-0.013-0.027-0.027,0.146-0.053v3.981
	c0,0.426,0.2,0.892,0.626,0.892H190.589L190.589,58.102L190.589,58.102z M175.079,58.102L175.079,58.102
	c0.426,0,0.666-0.466,0.666-0.892v-6.058c0-0.426-0.24-0.679-0.666-0.679h-0.04c-0.266,0-0.519,0.093-0.666,0.32
	c-0.12,0.2-0.306,0.386-0.546,0.612c-0.266,0.24-0.546,0.439-0.892,0.626c-0.266,0.133-0.386,0.386-0.386,0.679v0.12
	c0,0.266,0.093,0.519,0.333,0.652c0.12,0.08,0.24,0.12,0.386,0.12c0.12,0,0.226-0.027,0.333-0.08c0.146-0.067,0.306-0.16,0.453-0.24
	c0.027-0.013,0.093-0.027,0.093-0.053v3.981c0,0.426,0.306,0.892,0.732,0.892H175.079L175.079,58.102L175.079,58.102z
	 M190.589,48.516L190.589,48.516c0.426,0,0.772-0.173,0.772-0.599v-6.071c0-0.426-0.346-0.959-0.772-0.959h-0.027
	c-0.28,0-0.519,0.226-0.666,0.466c-0.12,0.2-0.306,0.466-0.559,0.679c-0.266,0.24-0.572,0.479-0.932,0.652
	c-0.253,0.133-0.413,0.426-0.413,0.719v0.12c0,0.266,0.133,0.519,0.359,0.666c0.133,0.067,0.266,0.107,0.413,0.107
	c0.12,0,0.24-0.027,0.346-0.08c0.133-0.067,0.359-0.146,0.506-0.24c0.027-0.013-0.027-0.027,0.146-0.04v3.981
	c0,0.426,0.2,0.599,0.626,0.599H190.589L190.589,48.516L190.589,48.516z M185.384,46.852L185.384,46.852
	c-0.213,0.306-0.413,0.346-0.559,0.346s-0.346-0.04-0.572-0.346c-0.093-0.12-0.293-0.559-0.293-1.917
	c0-1.225,0.186-1.757,0.333-1.97c0.133-0.2,0.306-0.28,0.519-0.28c0.16,0,0.359,0.04,0.572,0.346
	c0.093,0.12,0.306,0.559,0.306,1.904C185.69,46.28,185.477,46.719,185.384,46.852L185.384,46.852z M187.287,43.258L187.287,43.258
	c-0.107-0.439-0.266-0.826-0.466-1.132c-0.213-0.333-0.506-0.599-0.839-0.786c-0.333-0.173-0.732-0.266-1.158-0.266
	c-0.599,0-1.105,0.173-1.504,0.493c-0.386,0.32-0.679,0.759-0.865,1.331c-0.173,0.519-0.266,1.212-0.266,2.037
	c0,1.371,0.253,2.357,0.759,2.996c0.453,0.586,1.092,0.879,1.877,0.879c0.599,0,1.105-0.173,1.504-0.506
	c0.386-0.32,0.679-0.759,0.865-1.318c0.173-0.533,0.266-1.212,0.266-2.05C187.461,44.229,187.407,43.684,187.287,43.258
	L187.287,43.258z M180.244,48.516L180.244,48.516c0.426,0,0.652-0.173,0.652-0.599v-6.071c0-0.426-0.226-0.959-0.652-0.959h-0.027
	c-0.28,0-0.519,0.226-0.666,0.466c-0.12,0.2-0.306,0.466-0.559,0.679c-0.266,0.24-0.546,0.479-0.905,0.652
	c-0.253,0.133-0.386,0.426-0.386,0.719v0.12c0,0.266,0.107,0.519,0.333,0.666c0.133,0.067,0.253,0.107,0.399,0.107
	c0.12,0,0.226-0.027,0.333-0.08c0.146-0.067,0.293-0.146,0.453-0.24c0.027-0.013,0.08-0.027,0.08-0.04v3.981
	c0,0.426,0.32,0.599,0.746,0.599H180.244L180.244,48.516L180.244,48.516z M175.039,46.852L175.039,46.852
	c-0.213,0.306-0.413,0.346-0.559,0.346c-0.146,0-0.359-0.04-0.572-0.346c-0.093-0.12-0.293-0.559-0.293-1.917
	c0-1.225,0.186-1.757,0.333-1.97c0.133-0.2,0.306-0.28,0.519-0.28c0.16,0,0.359,0.04,0.572,0.346
	c0.093,0.12,0.306,0.559,0.306,1.904C175.345,46.28,175.132,46.719,175.039,46.852L175.039,46.852z M176.943,43.258L176.943,43.258
	c-0.107-0.439-0.266-0.826-0.466-1.132c-0.226-0.333-0.506-0.599-0.839-0.786c-0.333-0.173-0.732-0.266-1.158-0.266
	c-0.599,0-1.105,0.173-1.504,0.493c-0.386,0.32-0.679,0.759-0.865,1.331c-0.173,0.519-0.266,1.212-0.266,2.037
	c0,1.371,0.24,2.357,0.759,2.996c0.453,0.586,1.092,0.879,1.877,0.879c0.599,0,1.105-0.173,1.504-0.506
	c0.386-0.32,0.679-0.759,0.865-1.318c0.173-0.533,0.266-1.212,0.266-2.05C177.116,44.229,177.062,43.684,176.943,43.258
	L176.943,43.258z"/>
<line class="st3" x1="82.989" y1="49.688" x2="149.046" y2="49.688"/>
<polygon class="st4" points="147.066,43.748 158.946,49.688 147.065,55.628 147.066,43.748 "/>
<g>
	<path class="st2" d="M136.459,86.801h3.943c0.777,0,1.405,0.105,1.884,0.316s0.874,0.514,1.187,0.908s0.539,0.854,0.68,1.377
		s0.211,1.078,0.211,1.664c0,0.918-0.104,1.63-0.313,2.136s-0.499,0.93-0.87,1.271s-0.77,0.569-1.195,0.683
		c-0.582,0.156-1.109,0.234-1.582,0.234h-3.943V86.801z M139.114,88.746v4.693h0.65c0.555,0,0.949-0.062,1.184-0.185
		s0.418-0.338,0.551-0.645s0.199-0.804,0.199-1.491c0-0.91-0.148-1.533-0.445-1.869s-0.789-0.504-1.477-0.504H139.114z"/>
	<path class="st2" d="M145.752,86.801h7.113v1.834h-4.453V90h4.131v1.752h-4.131v1.693h4.582v1.945h-7.242V86.801z"/>
	<path class="st2" d="M154.413,86.801h4.412c0.961,0,1.681,0.229,2.159,0.686s0.718,1.107,0.718,1.951
		c0,0.867-0.261,1.545-0.782,2.033s-1.317,0.732-2.388,0.732h-1.453v3.188h-2.666V86.801z M157.079,90.463h0.65
		c0.512,0,0.871-0.089,1.078-0.267s0.311-0.405,0.311-0.683c0-0.27-0.09-0.498-0.27-0.686s-0.518-0.281-1.014-0.281h-0.756V90.463z"
		/>
	<path class="st2" d="M163.09,86.801h2.654v6.475h4.143v2.115h-6.797V86.801z"/>
	<path class="st2" d="M170.555,91.102c0-1.402,0.391-2.494,1.172-3.275s1.869-1.172,3.264-1.172c1.43,0,2.531,0.384,3.305,1.151
		s1.16,1.843,1.16,3.226c0,1.004-0.169,1.827-0.507,2.47s-0.826,1.143-1.465,1.5s-1.435,0.536-2.388,0.536
		c-0.969,0-1.771-0.154-2.405-0.463s-1.149-0.797-1.544-1.465S170.555,92.105,170.555,91.102z M173.209,91.113
		c0,0.867,0.161,1.49,0.483,1.869s0.761,0.568,1.315,0.568c0.57,0,1.012-0.186,1.324-0.557s0.469-1.037,0.469-1.998
		c0-0.809-0.163-1.399-0.489-1.772s-0.769-0.56-1.327-0.56c-0.535,0-0.965,0.189-1.289,0.568S173.209,90.238,173.209,91.113z"/>
	<path class="st2" d="M179.204,86.801h2.948l1.731,2.897l1.734-2.897h2.933l-3.34,4.992v3.598h-2.66v-3.598L179.204,86.801z"/>
	<path class="st2" d="M189.375,86.801h3.491l1.346,5.227l1.336-5.227h3.489v8.59h-2.174V88.84l-1.675,6.551h-1.968l-1.672-6.551
		v6.551h-2.174V86.801z"/>
	<path class="st2" d="M200.725,86.801h7.113v1.834h-4.453V90h4.131v1.752h-4.131v1.693h4.582v1.945h-7.242V86.801z"/>
	<path class="st2" d="M209.415,86.801h2.479l3.234,4.752v-4.752h2.502v8.59h-2.502l-3.217-4.717v4.717h-2.496V86.801z"/>
	<path class="st2" d="M218.79,86.801h8.068v2.121h-2.707v6.469h-2.654v-6.469h-2.707V86.801z"/>
	<path class="st2" d="M169.295,106.275l2.326,0.703c-0.156,0.652-0.402,1.197-0.738,1.635s-0.753,0.768-1.251,0.99
		s-1.132,0.334-1.901,0.334c-0.934,0-1.696-0.136-2.288-0.407c-0.592-0.271-1.103-0.748-1.532-1.432
		c-0.43-0.683-0.645-1.558-0.645-2.623c0-1.421,0.378-2.513,1.134-3.276c0.756-0.763,1.825-1.145,3.208-1.145
		c1.082,0,1.933,0.219,2.552,0.656s1.079,1.109,1.38,2.016l-2.344,0.521c-0.082-0.262-0.168-0.453-0.258-0.574
		c-0.148-0.203-0.33-0.359-0.545-0.469s-0.455-0.164-0.721-0.164c-0.602,0-1.063,0.242-1.383,0.726
		c-0.242,0.359-0.363,0.923-0.363,1.691c0,0.952,0.145,1.604,0.434,1.958c0.289,0.353,0.695,0.529,1.219,0.529
		c0.508,0,0.892-0.143,1.151-0.428S169.178,106.818,169.295,106.275z"/>
	<path class="st2" d="M172.577,105.502c0-1.402,0.391-2.494,1.172-3.275s1.869-1.172,3.264-1.172c1.43,0,2.531,0.384,3.305,1.151
		s1.16,1.843,1.16,3.226c0,1.004-0.169,1.827-0.507,2.47s-0.826,1.143-1.465,1.5s-1.435,0.536-2.388,0.536
		c-0.969,0-1.771-0.154-2.405-0.463s-1.149-0.797-1.544-1.465S172.577,106.506,172.577,105.502z M175.231,105.514
		c0,0.867,0.161,1.49,0.483,1.869s0.761,0.568,1.315,0.568c0.57,0,1.012-0.186,1.324-0.557s0.469-1.037,0.469-1.998
		c0-0.809-0.163-1.399-0.489-1.772s-0.769-0.56-1.327-0.56c-0.535,0-0.965,0.189-1.289,0.568S175.231,104.639,175.231,105.514z"/>
	<path class="st2" d="M182.942,101.201h3.943c0.777,0,1.405,0.105,1.884,0.316s0.874,0.514,1.187,0.908s0.539,0.854,0.68,1.377
		s0.211,1.078,0.211,1.664c0,0.918-0.104,1.63-0.313,2.136s-0.499,0.93-0.87,1.271s-0.77,0.569-1.195,0.683
		c-0.582,0.156-1.109,0.234-1.582,0.234h-3.943V101.201z M185.596,103.146v4.693h0.65c0.555,0,0.949-0.062,1.184-0.185
		s0.418-0.338,0.551-0.645s0.199-0.804,0.199-1.491c0-0.91-0.148-1.533-0.445-1.869s-0.789-0.504-1.477-0.504H185.596z"/>
	<path class="st2" d="M192.235,101.201h7.113v1.834h-4.453v1.365h4.131v1.752h-4.131v1.693h4.582v1.945h-7.242V101.201z"/>
</g>
<path class="st0" d="M325.649,49.582L325.649,49.582c0-12.555-10.172-22.713-22.727-22.713c-12.542,0-22.713,10.158-22.713,22.713
	c0,12.542,10.172,22.727,22.713,22.727C315.477,72.308,325.649,62.123,325.649,49.582L325.649,49.582z"/>
<path class="st1" d="M306.477,39.223L306.477,39.223c0,0.426-0.346,0.772-0.772,0.772h-5.565c-0.426,0-0.772-0.346-0.772-0.772
	v-0.067c0-0.413,0.346-0.759,0.772-0.759h5.565c0.426,0,0.772,0.346,0.772,0.759V39.223L306.477,39.223L306.477,39.223z
	 M306.477,41.713L306.477,41.713c0,0.426-0.346,0.772-0.772,0.772h-5.565c-0.426,0-0.772-0.346-0.772-0.772v-0.067
	c0-0.426,0.346-0.759,0.772-0.759h5.565c0.426,0,0.772,0.333,0.772,0.759V41.713L306.477,41.713L306.477,41.713z M306.477,44.203
	L306.477,44.203c0,0.413-0.346,0.759-0.772,0.759h-5.565c-0.426,0-0.772-0.346-0.772-0.759v-0.067c0-0.426,0.346-0.772,0.772-0.772
	h5.565c0.426,0,0.772,0.346,0.772,0.772V44.203L306.477,44.203L306.477,44.203z M302.217,48.157L302.217,48.157
	c-0.439,0-0.799-0.359-0.799-0.799c0-0.439,0.359-0.799,0.799-0.799c0.439,0,0.799,0.359,0.799,0.799
	C303.016,47.798,302.656,48.157,302.217,48.157L302.217,48.157z M300.167,48.157L300.167,48.157c-0.439,0-0.799-0.359-0.799-0.799
	c0-0.439,0.359-0.799,0.799-0.799c0.453,0,0.799,0.359,0.799,0.799C300.965,47.798,300.619,48.157,300.167,48.157L300.167,48.157z
	 M306.477,36.268L306.477,36.268h-7.11c-1.172,0-2.13,0.945-2.13,2.13v22.367c0,1.172,0.959,2.13,2.13,2.13h7.11
	c1.172,0,2.13-0.959,2.13-2.13V38.398C308.607,37.213,307.649,36.268,306.477,36.268L306.477,36.268z"/>
<path class="st0" d="M446.969,49.582L446.969,49.582c0-12.555-10.172-22.713-22.727-22.713c-12.542,0-22.713,10.158-22.713,22.713
	c0,12.542,10.172,22.727,22.713,22.727C436.797,72.308,446.969,62.123,446.969,49.582L446.969,49.582z"/>
<path class="st1" d="M432.138,59.687L432.138,59.687c0.346-0.426,0.639-0.959,0.879-1.571c0.333,0.053,0.666,0.133,0.985,0.213
	C433.482,58.901,432.856,59.367,432.138,59.687L432.138,59.687z M425.853,58.329L425.853,58.329c0.32-0.08,0.652-0.16,0.985-0.213
	c0.226,0.612,0.533,1.145,0.865,1.571C426.998,59.367,426.359,58.901,425.853,58.329L425.853,58.329z M424.509,54.375
	L424.509,54.375c0.067-0.892,0.346-1.784,0.812-2.53c0.413,0.12,0.825,0.226,1.251,0.306c-0.186,0.679-0.293,1.331-0.333,2.223
	H424.509L424.509,54.375L424.509,54.375z M426.24,55.253L426.24,55.253c0.04,0.719,0.16,1.491,0.346,2.183
	c-0.426,0.08-0.839,0.213-1.238,0.32c-0.479-0.732-0.772-1.784-0.839-2.503H426.24L426.24,55.253L426.24,55.253z M427.704,49.768
	L427.704,49.768c-0.346,0.439-0.652,0.985-0.879,1.611c-0.346-0.067-0.679-0.133-0.999-0.226
	C426.346,50.567,426.985,50.088,427.704,49.768L427.704,49.768z M430.287,54.375L430.287,54.375v-1.944
	c0.706-0.013,1.491-0.067,2.21-0.173c0.173,0.639,0.306,1.398,0.333,2.117H430.287L430.287,54.375L430.287,54.375z M430.287,57.064
	L430.287,57.064v-1.811h2.543c-0.027,0.533-0.16,1.411-0.346,2.064C431.778,57.21,430.993,57.077,430.287,57.064L430.287,57.064z
	 M430.287,60.113L430.287,60.113v-2.277c0.706,0.013,1.291,0.067,1.931,0.16C431.765,59.128,431.166,59.913,430.287,60.113
	L430.287,60.113z M429.395,57.836L429.395,57.836v2.277c-0.706-0.2-1.491-0.985-1.944-2.117
	C428.09,57.903,428.862,57.849,429.395,57.836L429.395,57.836z M429.395,55.253L429.395,55.253v1.811
	c-0.533,0.013-1.411,0.146-2.117,0.253c-0.186-0.652-0.226-1.531-0.253-2.064H429.395L429.395,55.253L429.395,55.253z
	 M429.395,52.431L429.395,52.431v1.944h-2.37c0.027-0.719,0.067-1.478,0.24-2.117C427.984,52.364,428.862,52.417,429.395,52.431
	L429.395,52.431z M429.395,49.342L429.395,49.342v2.317c-0.533-0.027-1.318-0.08-1.957-0.16
	C427.89,50.34,428.689,49.542,429.395,49.342L429.395,49.342z M432.231,51.499L432.231,51.499c-0.639,0.08-1.238,0.133-1.944,0.16
	v-2.317C431.166,49.542,431.778,50.34,432.231,51.499L432.231,51.499z M434.028,51.153L434.028,51.153
	c-0.333,0.093-0.666,0.16-0.999,0.226c-0.24-0.626-0.533-1.172-0.892-1.611C432.87,50.088,433.509,50.567,434.028,51.153
	L434.028,51.153z M435.346,55.253L435.346,55.253c-0.067,0.719-0.359,1.731-0.839,2.476c-0.413-0.12-0.825-0.173-1.238-0.253
	c0.186-0.692,0.306-1.504,0.333-2.223H435.346L435.346,55.253L435.346,55.253z M433.602,54.375L433.602,54.375
	c-0.027-0.892-0.146-1.558-0.333-2.237c0.426-0.08,0.852-0.173,1.251-0.28c0.466,0.732,0.759,1.624,0.825,2.516H433.602
	L433.602,54.375L433.602,54.375z M429.927,48.516L429.927,48.516c-3.435,0-6.218,2.783-6.218,6.204c0,3.435,2.783,6.218,6.218,6.218
	c3.435,0,6.218-2.783,6.218-6.218C436.145,51.299,433.362,48.516,429.927,48.516L429.927,48.516z M423.537,46.559L423.537,46.559
	c0.439,0,0.799,0.359,0.799,0.799c0,0.439-0.359,0.799-0.799,0.799c-0.439,0-0.799-0.359-0.799-0.799
	C422.738,46.919,423.097,46.559,423.537,46.559L423.537,46.559z M421.5,48.157L421.5,48.157c-0.453,0-0.799-0.359-0.799-0.799
	c0-0.439,0.346-0.799,0.799-0.799c0.439,0,0.799,0.359,0.799,0.799C422.299,47.798,421.939,48.157,421.5,48.157L421.5,48.157z
	 M420.701,44.136L420.701,44.136c0-0.426,0.333-0.772,0.759-0.772h5.565c0.426,0,0.772,0.346,0.772,0.772v0.067
	c0,0.413-0.346,0.759-0.772,0.759h-5.565c-0.426,0-0.759-0.346-0.759-0.759V44.136L420.701,44.136L420.701,44.136z M420.701,41.647
	L420.701,41.647c0-0.426,0.333-0.772,0.759-0.772h5.565c0.426,0,0.772,0.346,0.772,0.772v0.067c0,0.426-0.346,0.759-0.772,0.759
	h-5.565c-0.426,0-0.759-0.333-0.759-0.759V41.647L420.701,41.647L420.701,41.647z M420.701,39.157L420.701,39.157
	c0-0.413,0.333-0.759,0.759-0.759h5.565c0.426,0,0.772,0.346,0.772,0.759v0.067c0,0.426-0.346,0.772-0.772,0.772h-5.565
	c-0.426,0-0.759-0.346-0.759-0.772V39.157L420.701,39.157L420.701,39.157z M422.831,54.721L422.831,54.721
	c0-3.914,3.169-7.096,7.096-7.096v-9.226c0-1.185-0.959-2.13-2.13-2.13h-7.096c-1.185,0-2.13,0.945-2.13,2.13v22.367
	c0,1.172,0.945,2.13,2.13,2.13h7.096c0.785,0,1.478-0.439,1.851-1.078C425.853,61.67,422.831,58.555,422.831,54.721L422.831,54.721z
	"/>
<path class="st0" d="M568.289,49.582L568.289,49.582c0-12.555-10.172-22.713-22.727-22.713c-12.542,0-22.713,10.158-22.713,22.713
	c0,12.542,10.172,22.727,22.713,22.727C558.117,72.308,568.289,62.123,568.289,49.582L568.289,49.582z"/>
<path class="st1" d="M546.761,60.938L546.761,60.938c-0.08,0-0.173-0.013-0.24-0.04c-0.107-0.04-0.186-0.093-0.253-0.173
	c-0.08-0.08-0.133-0.16-0.173-0.266c-0.013-0.053-0.027-0.107-0.027-0.16l-1.731-15.75l-1.358,9.373
	c0,0.053-0.013,0.093-0.027,0.133c-0.027,0.107-0.08,0.186-0.146,0.266c-0.08,0.08-0.16,0.133-0.266,0.173
	c-0.067,0.04-0.146,0.053-0.24,0.053c0,0-0.013,0-0.027,0c-0.067,0-0.146-0.013-0.213-0.027c-0.107-0.04-0.186-0.093-0.266-0.16
	c-0.067-0.067-0.133-0.16-0.173-0.253c-0.013-0.04-0.027-0.08-0.04-0.133l-1.105-4.966l-0.266,0.786
	c-0.013,0.04-0.04,0.093-0.067,0.133c-0.053,0.093-0.12,0.173-0.2,0.226c-0.08,0.067-0.186,0.107-0.28,0.12
	c-0.053,0.013-0.093,0.013-0.133,0.013h-4.58c-0.386,0-0.706-0.32-0.706-0.706c0-0.399,0.32-0.706,0.706-0.706h4.074l0.905-2.703
	c0.013-0.027,0.027-0.053,0.04-0.08c0.04-0.093,0.093-0.173,0.173-0.24c0.067-0.067,0.16-0.12,0.253-0.146
	c0.067-0.027,0.146-0.04,0.213-0.04c0.013,0,0.027,0.013,0.04,0.013c0.093,0,0.173,0.027,0.253,0.053
	c0.093,0.04,0.173,0.107,0.24,0.173c0.067,0.067,0.12,0.16,0.146,0.266c0.013,0.013,0.013,0.04,0.027,0.067l0.812,3.675
	l1.611-11.077c0-0.053,0.013-0.107,0.04-0.16c0.04-0.093,0.093-0.186,0.16-0.253c0.08-0.08,0.173-0.133,0.28-0.173
	c0.067-0.027,0.146-0.027,0.226-0.027h0.013c0.08,0,0.16,0.013,0.24,0.04c0.093,0.04,0.186,0.093,0.253,0.173
	c0.067,0.067,0.133,0.16,0.16,0.266c0.027,0.053,0.04,0.107,0.04,0.16l1.717,15.737l1.358-9.373c0.013-0.04,0.013-0.08,0.04-0.133
	c0.027-0.093,0.08-0.186,0.146-0.253c0.067-0.08,0.16-0.146,0.253-0.186c0.08-0.027,0.16-0.04,0.24-0.04
	c0.013,0,0.027-0.013,0.027-0.013c0.08,0,0.16,0.013,0.226,0.04c0.093,0.04,0.186,0.08,0.253,0.146
	c0.08,0.08,0.146,0.16,0.186,0.266c0.013,0.04,0.027,0.08,0.04,0.12l1.078,4.859l0.2-0.652c0.013-0.053,0.04-0.093,0.067-0.146
	c0.04-0.093,0.12-0.16,0.2-0.226c0.08-0.067,0.173-0.107,0.28-0.133c0.053,0,0.093,0,0.133,0h4.66c0.399,0,0.719,0.306,0.719,0.706
	c0,0.386-0.32,0.706-0.719,0.706h-4.127l-0.839,2.689c-0.013,0.027-0.027,0.053-0.04,0.08c-0.04,0.093-0.093,0.173-0.16,0.24
	c-0.08,0.067-0.173,0.12-0.266,0.16c-0.067,0.013-0.146,0.027-0.226,0.027c0,0-0.013,0-0.027,0c-0.093,0-0.173-0.027-0.253-0.053
	c-0.093-0.04-0.173-0.107-0.24-0.173c-0.067-0.067-0.12-0.16-0.146-0.253c-0.013-0.027-0.027-0.053-0.027-0.093l-0.826-3.661
	l-1.598,11.064c-0.013,0.067-0.027,0.12-0.04,0.173c-0.04,0.093-0.093,0.186-0.173,0.253c-0.067,0.067-0.16,0.133-0.266,0.16
	c-0.08,0.027-0.146,0.04-0.226,0.04H546.761L546.761,60.938L546.761,60.938z"/>
<g>
	<path class="st2" d="M243.888,86.801h4.412c0.961,0,1.681,0.229,2.159,0.686s0.718,1.107,0.718,1.951
		c0,0.867-0.261,1.545-0.782,2.033s-1.317,0.732-2.388,0.732h-1.453v3.188h-2.666V86.801z M246.554,90.463h0.65
		c0.512,0,0.871-0.089,1.078-0.267s0.311-0.405,0.311-0.683c0-0.27-0.09-0.498-0.27-0.686s-0.518-0.281-1.014-0.281h-0.756V90.463z"
		/>
	<path class="st2" d="M252.601,95.391v-8.59h4.424c0.82,0,1.447,0.07,1.881,0.211s0.783,0.401,1.049,0.782s0.398,0.845,0.398,1.392
		c0,0.477-0.102,0.888-0.305,1.233c-0.204,0.346-0.483,0.626-0.838,0.841c-0.227,0.137-0.538,0.25-0.932,0.34
		c0.316,0.105,0.546,0.211,0.691,0.316c0.097,0.07,0.239,0.221,0.424,0.452c0.186,0.23,0.31,0.408,0.372,0.533l1.285,2.489h-2.999
		l-1.419-2.625c-0.18-0.34-0.34-0.561-0.48-0.662c-0.191-0.133-0.408-0.199-0.65-0.199h-0.234v3.486H252.601z M255.267,90.281h1.119
		c0.121,0,0.355-0.039,0.703-0.117c0.176-0.035,0.319-0.125,0.431-0.27s0.167-0.311,0.167-0.498c0-0.277-0.088-0.49-0.264-0.639
		s-0.506-0.223-0.99-0.223h-1.166V90.281z"/>
	<path class="st2" d="M261.894,86.801h7.113v1.834h-4.453V90h4.131v1.752h-4.131v1.693h4.582v1.945h-7.242V86.801z"/>
	<path class="st2" d="M269.95,91.336h3.469v1.846h-3.469V91.336z"/>
	<path class="st2" d="M274.55,86.801h4.412c0.961,0,1.681,0.229,2.159,0.686s0.718,1.107,0.718,1.951
		c0,0.867-0.261,1.545-0.782,2.033s-1.317,0.732-2.388,0.732h-1.453v3.188h-2.666V86.801z M277.216,90.463h0.65
		c0.512,0,0.871-0.089,1.078-0.267s0.311-0.405,0.311-0.683c0-0.27-0.09-0.498-0.27-0.686s-0.518-0.281-1.014-0.281h-0.756V90.463z"
		/>
	<path class="st2" d="M283.263,95.391v-8.59h4.424c0.82,0,1.447,0.07,1.881,0.211s0.783,0.401,1.049,0.782s0.398,0.845,0.398,1.392
		c0,0.477-0.102,0.888-0.305,1.233c-0.204,0.346-0.483,0.626-0.838,0.841c-0.227,0.137-0.538,0.25-0.932,0.34
		c0.316,0.105,0.546,0.211,0.691,0.316c0.097,0.07,0.239,0.221,0.424,0.452c0.186,0.23,0.31,0.408,0.372,0.533l1.285,2.489h-2.999
		l-1.419-2.625c-0.18-0.34-0.34-0.561-0.48-0.662c-0.191-0.133-0.408-0.199-0.65-0.199h-0.234v3.486H283.263z M285.929,90.281h1.119
		c0.121,0,0.355-0.039,0.703-0.117c0.176-0.035,0.319-0.125,0.431-0.27s0.167-0.311,0.167-0.498c0-0.277-0.088-0.49-0.264-0.639
		s-0.506-0.223-0.99-0.223h-1.166V90.281z"/>
	<path class="st2" d="M292.022,91.102c0-1.402,0.391-2.494,1.172-3.275s1.869-1.172,3.264-1.172c1.43,0,2.531,0.384,3.305,1.151
		s1.16,1.843,1.16,3.226c0,1.004-0.169,1.827-0.507,2.47s-0.826,1.143-1.465,1.5s-1.435,0.536-2.388,0.536
		c-0.969,0-1.771-0.154-2.405-0.463s-1.149-0.797-1.544-1.465S292.022,92.105,292.022,91.102z M294.677,91.113
		c0,0.867,0.161,1.49,0.483,1.869s0.761,0.568,1.315,0.568c0.57,0,1.012-0.186,1.324-0.557s0.469-1.037,0.469-1.998
		c0-0.809-0.163-1.399-0.489-1.772s-0.769-0.56-1.327-0.56c-0.535,0-0.965,0.189-1.289,0.568S294.677,90.238,294.677,91.113z"/>
	<path class="st2" d="M302.388,86.801h3.943c0.777,0,1.405,0.105,1.884,0.316s0.874,0.514,1.187,0.908s0.539,0.854,0.68,1.377
		s0.211,1.078,0.211,1.664c0,0.918-0.104,1.63-0.313,2.136s-0.499,0.93-0.87,1.271s-0.77,0.569-1.195,0.683
		c-0.582,0.156-1.109,0.234-1.582,0.234h-3.943V86.801z M305.042,88.746v4.693h0.65c0.555,0,0.949-0.062,1.184-0.185
		s0.418-0.338,0.551-0.645s0.199-0.804,0.199-1.491c0-0.91-0.148-1.533-0.445-1.869s-0.789-0.504-1.477-0.504H305.042z"/>
	<path class="st2" d="M317.276,86.801h2.648v5.118c0,0.507-0.079,0.986-0.237,1.437c-0.158,0.451-0.406,0.846-0.744,1.184
		s-0.692,0.574-1.063,0.711c-0.516,0.191-1.135,0.287-1.857,0.287c-0.418,0-0.874-0.029-1.368-0.088s-0.907-0.175-1.239-0.349
		s-0.636-0.42-0.911-0.74s-0.464-0.65-0.565-0.989c-0.164-0.547-0.246-1.031-0.246-1.452v-5.118h2.648v5.239
		c0,0.469,0.13,0.835,0.39,1.098c0.26,0.264,0.62,0.396,1.081,0.396c0.457,0,0.815-0.13,1.075-0.39
		c0.26-0.259,0.39-0.627,0.39-1.104V86.801z"/>
	<path class="st2" d="M327.401,91.875l2.326,0.703c-0.156,0.652-0.402,1.197-0.738,1.635s-0.753,0.768-1.251,0.99
		s-1.132,0.334-1.901,0.334c-0.934,0-1.696-0.136-2.288-0.407c-0.592-0.271-1.103-0.748-1.532-1.432
		c-0.43-0.683-0.645-1.558-0.645-2.623c0-1.421,0.378-2.513,1.134-3.276c0.756-0.763,1.825-1.145,3.208-1.145
		c1.082,0,1.933,0.219,2.552,0.656s1.079,1.109,1.38,2.016l-2.344,0.521c-0.082-0.262-0.168-0.453-0.258-0.574
		c-0.148-0.203-0.33-0.359-0.545-0.469s-0.455-0.164-0.721-0.164c-0.602,0-1.063,0.242-1.383,0.726
		c-0.242,0.359-0.363,0.923-0.363,1.691c0,0.952,0.145,1.604,0.434,1.958c0.289,0.353,0.695,0.529,1.219,0.529
		c0.508,0,0.892-0.143,1.151-0.428S327.284,92.418,327.401,91.875z"/>
	<path class="st2" d="M330.413,86.801h8.068v2.121h-2.707v6.469h-2.654v-6.469h-2.707V86.801z"/>
	<path class="st2" d="M339.788,86.801h2.66v8.59h-2.66V86.801z"/>
	<path class="st2" d="M344.019,91.102c0-1.402,0.391-2.494,1.172-3.275s1.869-1.172,3.264-1.172c1.43,0,2.531,0.384,3.305,1.151
		s1.16,1.843,1.16,3.226c0,1.004-0.169,1.827-0.507,2.47s-0.826,1.143-1.465,1.5s-1.435,0.536-2.388,0.536
		c-0.969,0-1.771-0.154-2.405-0.463s-1.149-0.797-1.544-1.465S344.019,92.105,344.019,91.102z M346.673,91.113
		c0,0.867,0.161,1.49,0.483,1.869s0.761,0.568,1.315,0.568c0.57,0,1.012-0.186,1.324-0.557s0.469-1.037,0.469-1.998
		c0-0.809-0.163-1.399-0.489-1.772s-0.769-0.56-1.327-0.56c-0.535,0-0.965,0.189-1.289,0.568S346.673,90.238,346.673,91.113z"/>
	<path class="st2" d="M354.366,86.801h2.479l3.234,4.752v-4.752h2.502v8.59h-2.502l-3.217-4.717v4.717h-2.496V86.801z"/>
	<path class="st2" d="M276.762,106.949l2.525-0.158c0.055,0.41,0.166,0.723,0.334,0.938c0.273,0.348,0.664,0.521,1.172,0.521
		c0.379,0,0.671-0.089,0.876-0.267s0.308-0.384,0.308-0.618c0-0.223-0.098-0.422-0.293-0.598s-0.648-0.342-1.359-0.498
		c-1.164-0.262-1.994-0.609-2.49-1.043c-0.5-0.434-0.75-0.986-0.75-1.658c0-0.441,0.128-0.858,0.384-1.251s0.641-0.701,1.154-0.926
		s1.218-0.337,2.112-0.337c1.098,0,1.935,0.204,2.511,0.612s0.919,1.058,1.028,1.948l-2.502,0.146
		c-0.066-0.387-0.206-0.668-0.419-0.844s-0.507-0.264-0.882-0.264c-0.309,0-0.541,0.065-0.697,0.196s-0.234,0.29-0.234,0.478
		c0,0.137,0.064,0.26,0.193,0.369c0.125,0.113,0.422,0.219,0.891,0.316c1.16,0.25,1.991,0.503,2.493,0.759s0.867,0.573,1.096,0.952
		s0.343,0.803,0.343,1.271c0,0.551-0.152,1.059-0.457,1.523s-0.73,0.817-1.277,1.058s-1.236,0.36-2.068,0.36
		c-1.461,0-2.473-0.281-3.035-0.844S276.836,107.816,276.762,106.949z"/>
	<path class="st2" d="M285.885,101.201h7.113v1.834h-4.453v1.365h4.131v1.752h-4.131v1.693h4.582v1.945h-7.242V101.201z"/>
	<path class="st2" d="M294.592,109.791v-8.59h4.424c0.82,0,1.447,0.07,1.881,0.211s0.783,0.401,1.049,0.782s0.398,0.845,0.398,1.392
		c0,0.477-0.102,0.888-0.305,1.233c-0.204,0.346-0.483,0.626-0.838,0.841c-0.227,0.137-0.538,0.25-0.932,0.34
		c0.316,0.105,0.546,0.211,0.691,0.316c0.097,0.07,0.239,0.221,0.424,0.452c0.186,0.23,0.31,0.408,0.372,0.533l1.285,2.489h-2.999
		l-1.419-2.625c-0.18-0.34-0.34-0.561-0.48-0.662c-0.191-0.133-0.408-0.199-0.65-0.199h-0.234v3.486H294.592z M297.258,104.682
		h1.119c0.121,0,0.355-0.039,0.703-0.117c0.176-0.035,0.319-0.125,0.431-0.27s0.167-0.311,0.167-0.498
		c0-0.277-0.088-0.49-0.264-0.639s-0.506-0.223-0.99-0.223h-1.166V104.682z"/>
	<path class="st2" d="M302.842,101.201h2.775l1.933,6.182l1.909-6.182h2.694l-3.189,8.59h-2.877L302.842,101.201z"/>
	<path class="st2" d="M313.014,101.201h7.113v1.834h-4.453v1.365h4.131v1.752h-4.131v1.693h4.582v1.945h-7.242V101.201z"/>
	<path class="st2" d="M321.721,109.791v-8.59h4.424c0.82,0,1.447,0.07,1.881,0.211s0.783,0.401,1.049,0.782s0.398,0.845,0.398,1.392
		c0,0.477-0.102,0.888-0.305,1.233c-0.204,0.346-0.483,0.626-0.838,0.841c-0.227,0.137-0.538,0.25-0.932,0.34
		c0.316,0.105,0.546,0.211,0.691,0.316c0.097,0.07,0.239,0.221,0.424,0.452c0.186,0.23,0.31,0.408,0.372,0.533l1.285,2.489h-2.999
		l-1.419-2.625c-0.18-0.34-0.34-0.561-0.48-0.662c-0.191-0.133-0.408-0.199-0.65-0.199h-0.234v3.486H321.721z M324.387,104.682
		h1.119c0.121,0,0.355-0.039,0.703-0.117c0.176-0.035,0.319-0.125,0.431-0.27s0.167-0.311,0.167-0.498
		c0-0.277-0.088-0.49-0.264-0.639s-0.506-0.223-0.99-0.223h-1.166V104.682z"/>
</g>
<g>
	<path class="st2" d="M380.089,86.801h4.412c0.961,0,1.681,0.229,2.159,0.686s0.718,1.107,0.718,1.951
		c0,0.867-0.261,1.545-0.782,2.033s-1.317,0.732-2.388,0.732h-1.453v3.188h-2.666V86.801z M382.755,90.463h0.65
		c0.512,0,0.871-0.089,1.078-0.267s0.311-0.405,0.311-0.683c0-0.27-0.09-0.498-0.27-0.686s-0.518-0.281-1.014-0.281h-0.756V90.463z"
		/>
	<path class="st2" d="M388.802,95.391v-8.59h4.424c0.82,0,1.447,0.07,1.881,0.211s0.783,0.401,1.049,0.782s0.398,0.845,0.398,1.392
		c0,0.477-0.102,0.888-0.305,1.233s-0.483,0.626-0.839,0.841c-0.227,0.137-0.537,0.25-0.932,0.34
		c0.315,0.105,0.546,0.211,0.69,0.316c0.098,0.07,0.239,0.221,0.425,0.452c0.186,0.23,0.31,0.408,0.372,0.533l1.285,2.489h-2.999
		l-1.419-2.625c-0.18-0.34-0.34-0.561-0.48-0.662c-0.191-0.133-0.408-0.199-0.65-0.199h-0.234v3.486H388.802z M391.468,90.281h1.119
		c0.121,0,0.355-0.039,0.703-0.117c0.176-0.035,0.319-0.125,0.431-0.27s0.167-0.311,0.167-0.498c0-0.277-0.088-0.49-0.264-0.639
		s-0.506-0.223-0.99-0.223h-1.166V90.281z"/>
	<path class="st2" d="M397.562,91.102c0-1.402,0.391-2.494,1.172-3.275s1.869-1.172,3.264-1.172c1.43,0,2.531,0.384,3.305,1.151
		s1.16,1.843,1.16,3.226c0,1.004-0.169,1.827-0.507,2.47s-0.826,1.143-1.465,1.5s-1.435,0.536-2.388,0.536
		c-0.969,0-1.771-0.154-2.405-0.463s-1.149-0.797-1.544-1.465S397.562,92.105,397.562,91.102z M400.216,91.113
		c0,0.867,0.161,1.49,0.483,1.869s0.761,0.568,1.315,0.568c0.57,0,1.012-0.186,1.324-0.557s0.469-1.037,0.469-1.998
		c0-0.809-0.163-1.399-0.489-1.772s-0.769-0.56-1.327-0.56c-0.535,0-0.965,0.189-1.289,0.568S400.216,90.238,400.216,91.113z"/>
	<path class="st2" d="M407.927,86.801h3.943c0.777,0,1.405,0.105,1.884,0.316s0.874,0.514,1.187,0.908s0.539,0.854,0.68,1.377
		s0.211,1.078,0.211,1.664c0,0.918-0.104,1.63-0.313,2.136s-0.499,0.93-0.87,1.271s-0.77,0.569-1.195,0.683
		c-0.582,0.156-1.109,0.234-1.582,0.234h-3.943V86.801z M410.581,88.746v4.693h0.65c0.555,0,0.949-0.062,1.184-0.185
		s0.418-0.338,0.551-0.645s0.199-0.804,0.199-1.491c0-0.91-0.148-1.533-0.445-1.869s-0.789-0.504-1.477-0.504H410.581z"/>
	<path class="st2" d="M422.815,86.801h2.648v5.118c0,0.507-0.079,0.986-0.237,1.437c-0.158,0.451-0.406,0.846-0.744,1.184
		s-0.692,0.574-1.063,0.711c-0.516,0.191-1.135,0.287-1.857,0.287c-0.418,0-0.874-0.029-1.368-0.088s-0.907-0.175-1.239-0.349
		s-0.636-0.42-0.911-0.74s-0.464-0.65-0.565-0.989c-0.164-0.547-0.246-1.031-0.246-1.452v-5.118h2.648v5.239
		c0,0.469,0.13,0.835,0.39,1.098c0.26,0.264,0.62,0.396,1.081,0.396c0.457,0,0.815-0.13,1.075-0.39
		c0.26-0.259,0.39-0.627,0.39-1.104V86.801z"/>
	<path class="st2" d="M432.94,91.875l2.326,0.703c-0.156,0.652-0.402,1.197-0.738,1.635s-0.753,0.768-1.251,0.99
		s-1.132,0.334-1.901,0.334c-0.934,0-1.696-0.136-2.288-0.407c-0.592-0.271-1.103-0.748-1.532-1.432
		c-0.43-0.683-0.645-1.558-0.645-2.623c0-1.421,0.378-2.513,1.134-3.276c0.756-0.763,1.825-1.145,3.208-1.145
		c1.082,0,1.933,0.219,2.552,0.656s1.079,1.109,1.38,2.016l-2.344,0.521c-0.082-0.262-0.168-0.453-0.258-0.574
		c-0.148-0.203-0.33-0.359-0.545-0.469s-0.455-0.164-0.721-0.164c-0.602,0-1.063,0.242-1.383,0.726
		c-0.242,0.359-0.363,0.923-0.363,1.691c0,0.952,0.145,1.604,0.434,1.958c0.289,0.353,0.695,0.529,1.219,0.529
		c0.508,0,0.892-0.143,1.151-0.428S432.823,92.418,432.94,91.875z"/>
	<path class="st2" d="M435.952,86.801h8.068v2.121h-2.707v6.469h-2.654v-6.469h-2.707V86.801z"/>
	<path class="st2" d="M445.327,86.801h2.66v8.59h-2.66V86.801z"/>
	<path class="st2" d="M449.558,91.102c0-1.402,0.391-2.494,1.172-3.275s1.869-1.172,3.264-1.172c1.43,0,2.531,0.384,3.305,1.151
		s1.16,1.843,1.16,3.226c0,1.004-0.169,1.827-0.507,2.47s-0.826,1.143-1.465,1.5s-1.435,0.536-2.388,0.536
		c-0.969,0-1.771-0.154-2.405-0.463s-1.149-0.797-1.544-1.465S449.558,92.105,449.558,91.102z M452.212,91.113
		c0,0.867,0.161,1.49,0.483,1.869s0.761,0.568,1.315,0.568c0.57,0,1.012-0.186,1.324-0.557s0.469-1.037,0.469-1.998
		c0-0.809-0.163-1.399-0.489-1.772s-0.769-0.56-1.327-0.56c-0.535,0-0.965,0.189-1.289,0.568S452.212,90.238,452.212,91.113z"/>
	<path class="st2" d="M459.905,86.801h2.479l3.234,4.752v-4.752h2.502v8.59h-2.502l-3.217-4.717v4.717h-2.496V86.801z"/>
	<path class="st2" d="M397.632,106.949l2.525-0.158c0.055,0.41,0.166,0.723,0.334,0.938c0.273,0.348,0.664,0.521,1.172,0.521
		c0.379,0,0.671-0.089,0.876-0.267s0.308-0.384,0.308-0.618c0-0.223-0.098-0.422-0.293-0.598s-0.648-0.342-1.359-0.498
		c-1.164-0.262-1.994-0.609-2.49-1.043c-0.5-0.434-0.75-0.986-0.75-1.658c0-0.441,0.128-0.858,0.384-1.251s0.641-0.701,1.154-0.926
		s1.218-0.337,2.112-0.337c1.098,0,1.935,0.204,2.511,0.612s0.919,1.058,1.028,1.948l-2.502,0.146
		c-0.066-0.387-0.206-0.668-0.419-0.844s-0.507-0.264-0.882-0.264c-0.309,0-0.541,0.065-0.697,0.196s-0.234,0.29-0.234,0.478
		c0,0.137,0.064,0.26,0.193,0.369c0.125,0.113,0.422,0.219,0.891,0.316c1.16,0.25,1.991,0.503,2.493,0.759s0.867,0.573,1.096,0.952
		s0.343,0.803,0.343,1.271c0,0.551-0.152,1.059-0.457,1.523s-0.73,0.817-1.277,1.058s-1.236,0.36-2.068,0.36
		c-1.461,0-2.473-0.281-3.035-0.844S397.706,107.816,397.632,106.949z"/>
	<path class="st2" d="M406.755,101.201h7.113v1.834h-4.453v1.365h4.131v1.752h-4.131v1.693h4.582v1.945h-7.242V101.201z"/>
	<path class="st2" d="M415.462,109.791v-8.59h4.424c0.82,0,1.447,0.07,1.881,0.211s0.783,0.401,1.049,0.782s0.398,0.845,0.398,1.392
		c0,0.477-0.102,0.888-0.305,1.233s-0.483,0.626-0.839,0.841c-0.227,0.137-0.537,0.25-0.932,0.34
		c0.315,0.105,0.546,0.211,0.69,0.316c0.098,0.07,0.239,0.221,0.425,0.452c0.186,0.23,0.31,0.408,0.372,0.533l1.285,2.489h-2.999
		l-1.419-2.625c-0.18-0.34-0.34-0.561-0.48-0.662c-0.191-0.133-0.408-0.199-0.65-0.199h-0.234v3.486H415.462z M418.128,104.682
		h1.119c0.121,0,0.355-0.039,0.703-0.117c0.176-0.035,0.319-0.125,0.431-0.27s0.167-0.311,0.167-0.498
		c0-0.277-0.088-0.49-0.264-0.639s-0.506-0.223-0.99-0.223h-1.166V104.682z"/>
	<path class="st2" d="M423.712,101.201h2.774l1.934,6.182l1.908-6.182h2.694l-3.189,8.59h-2.877L423.712,101.201z"/>
	<path class="st2" d="M433.884,101.201h7.113v1.834h-4.453v1.365h4.131v1.752h-4.131v1.693h4.582v1.945h-7.242V101.201z"/>
	<path class="st2" d="M442.591,109.791v-8.59h4.424c0.82,0,1.447,0.07,1.881,0.211s0.783,0.401,1.049,0.782s0.398,0.845,0.398,1.392
		c0,0.477-0.102,0.888-0.305,1.233s-0.483,0.626-0.839,0.841c-0.227,0.137-0.537,0.25-0.932,0.34
		c0.315,0.105,0.546,0.211,0.69,0.316c0.098,0.07,0.239,0.221,0.425,0.452c0.186,0.23,0.31,0.408,0.372,0.533l1.285,2.489h-2.999
		l-1.419-2.625c-0.18-0.34-0.34-0.561-0.48-0.662c-0.191-0.133-0.408-0.199-0.65-0.199h-0.234v3.486H442.591z M445.257,104.682
		h1.119c0.121,0,0.355-0.039,0.703-0.117c0.176-0.035,0.319-0.125,0.431-0.27s0.167-0.311,0.167-0.498
		c0-0.277-0.088-0.49-0.264-0.639s-0.506-0.223-0.99-0.223h-1.166V104.682z"/>
</g>
<g>
	<path class="st2" d="M483.09,86.801h4.412c0.961,0,1.681,0.229,2.159,0.686s0.718,1.107,0.718,1.951
		c0,0.867-0.261,1.545-0.782,2.033s-1.317,0.732-2.388,0.732h-1.453v3.188h-2.666V86.801z M485.756,90.463h0.65
		c0.512,0,0.871-0.089,1.078-0.267s0.311-0.405,0.311-0.683c0-0.27-0.09-0.498-0.27-0.686s-0.518-0.281-1.014-0.281h-0.756V90.463z"
		/>
	<path class="st2" d="M491.434,91.102c0-1.402,0.391-2.494,1.172-3.275s1.869-1.172,3.264-1.172c1.43,0,2.531,0.384,3.305,1.151
		s1.16,1.843,1.16,3.226c0,1.004-0.169,1.827-0.507,2.47s-0.826,1.143-1.465,1.5s-1.435,0.536-2.388,0.536
		c-0.969,0-1.771-0.154-2.405-0.463s-1.149-0.797-1.544-1.465S491.434,92.105,491.434,91.102z M494.088,91.113
		c0,0.867,0.161,1.49,0.483,1.869s0.761,0.568,1.315,0.568c0.57,0,1.012-0.186,1.324-0.557s0.469-1.037,0.469-1.998
		c0-0.809-0.163-1.399-0.489-1.772s-0.769-0.56-1.327-0.56c-0.535,0-0.965,0.189-1.289,0.568S494.088,90.238,494.088,91.113z"/>
	<path class="st2" d="M501.301,92.549l2.525-0.158c0.055,0.41,0.166,0.723,0.334,0.938c0.273,0.348,0.664,0.521,1.172,0.521
		c0.379,0,0.671-0.089,0.876-0.267s0.308-0.384,0.308-0.618c0-0.223-0.098-0.422-0.293-0.598s-0.648-0.342-1.359-0.498
		c-1.164-0.262-1.994-0.609-2.49-1.043c-0.5-0.434-0.75-0.986-0.75-1.658c0-0.441,0.128-0.858,0.384-1.251s0.641-0.701,1.154-0.926
		s1.218-0.337,2.112-0.337c1.098,0,1.935,0.204,2.511,0.612s0.919,1.058,1.028,1.948l-2.502,0.146
		c-0.066-0.387-0.206-0.668-0.419-0.844s-0.507-0.264-0.882-0.264c-0.309,0-0.541,0.065-0.697,0.196s-0.234,0.29-0.234,0.478
		c0,0.137,0.064,0.26,0.193,0.369c0.125,0.113,0.422,0.219,0.891,0.316c1.16,0.25,1.991,0.503,2.493,0.759s0.867,0.573,1.096,0.952
		s0.343,0.803,0.343,1.271c0,0.551-0.152,1.059-0.457,1.523s-0.73,0.817-1.277,1.058s-1.236,0.36-2.068,0.36
		c-1.461,0-2.473-0.281-3.035-0.844S501.375,93.416,501.301,92.549z"/>
	<path class="st2" d="M509.826,86.801h8.068v2.121h-2.707v6.469h-2.654v-6.469h-2.707V86.801z"/>
	<path class="st2" d="M517.666,91.336h3.469v1.846h-3.469V91.336z"/>
	<path class="st2" d="M522.266,86.801h4.412c0.961,0,1.681,0.229,2.159,0.686s0.718,1.107,0.718,1.951
		c0,0.867-0.261,1.545-0.782,2.033s-1.317,0.732-2.388,0.732h-1.453v3.188h-2.666V86.801z M524.932,90.463h0.65
		c0.512,0,0.871-0.089,1.078-0.267s0.311-0.405,0.311-0.683c0-0.27-0.09-0.498-0.27-0.686s-0.518-0.281-1.014-0.281h-0.756V90.463z"
		/>
	<path class="st2" d="M530.979,95.391v-8.59h4.424c0.82,0,1.447,0.07,1.881,0.211s0.783,0.401,1.049,0.782s0.398,0.845,0.398,1.392
		c0,0.477-0.102,0.888-0.305,1.233s-0.483,0.626-0.839,0.841c-0.227,0.137-0.537,0.25-0.932,0.34
		c0.315,0.105,0.546,0.211,0.69,0.316c0.098,0.07,0.239,0.221,0.425,0.452c0.186,0.23,0.31,0.408,0.372,0.533l1.285,2.489h-2.999
		l-1.419-2.625c-0.18-0.34-0.34-0.561-0.48-0.662c-0.191-0.133-0.408-0.199-0.65-0.199h-0.234v3.486H530.979z M533.645,90.281h1.119
		c0.121,0,0.355-0.039,0.703-0.117c0.176-0.035,0.319-0.125,0.431-0.27s0.167-0.311,0.167-0.498c0-0.277-0.088-0.49-0.264-0.639
		s-0.506-0.223-0.99-0.223h-1.166V90.281z"/>
	<path class="st2" d="M539.738,91.102c0-1.402,0.391-2.494,1.172-3.275s1.869-1.172,3.264-1.172c1.43,0,2.531,0.384,3.305,1.151
		s1.16,1.843,1.16,3.226c0,1.004-0.169,1.827-0.507,2.47s-0.826,1.143-1.465,1.5s-1.435,0.536-2.388,0.536
		c-0.969,0-1.771-0.154-2.405-0.463s-1.149-0.797-1.544-1.465S539.738,92.105,539.738,91.102z M542.393,91.113
		c0,0.867,0.161,1.49,0.483,1.869s0.761,0.568,1.315,0.568c0.57,0,1.012-0.186,1.324-0.557s0.469-1.037,0.469-1.998
		c0-0.809-0.163-1.399-0.489-1.772s-0.769-0.56-1.327-0.56c-0.535,0-0.965,0.189-1.289,0.568S542.393,90.238,542.393,91.113z"/>
	<path class="st2" d="M550.104,86.801h3.943c0.777,0,1.405,0.105,1.884,0.316s0.874,0.514,1.187,0.908s0.539,0.854,0.68,1.377
		s0.211,1.078,0.211,1.664c0,0.918-0.104,1.63-0.313,2.136s-0.499,0.93-0.87,1.271s-0.77,0.569-1.195,0.683
		c-0.582,0.156-1.109,0.234-1.582,0.234h-3.943V86.801z M552.758,88.746v4.693h0.65c0.555,0,0.949-0.062,1.184-0.185
		s0.418-0.338,0.551-0.645s0.199-0.804,0.199-1.491c0-0.91-0.148-1.533-0.445-1.869s-0.789-0.504-1.477-0.504H552.758z"/>
	<path class="st2" d="M564.992,86.801h2.648v5.118c0,0.507-0.079,0.986-0.237,1.437c-0.158,0.451-0.406,0.846-0.744,1.184
		s-0.692,0.574-1.063,0.711c-0.516,0.191-1.135,0.287-1.857,0.287c-0.418,0-0.874-0.029-1.368-0.088s-0.907-0.175-1.239-0.349
		s-0.636-0.42-0.911-0.74s-0.464-0.65-0.565-0.989c-0.164-0.547-0.246-1.031-0.246-1.452v-5.118h2.648v5.239
		c0,0.469,0.13,0.835,0.39,1.098c0.26,0.264,0.62,0.396,1.081,0.396c0.457,0,0.815-0.13,1.075-0.39
		c0.26-0.259,0.39-0.627,0.39-1.104V86.801z"/>
	<path class="st2" d="M575.117,91.875l2.326,0.703c-0.156,0.652-0.402,1.197-0.738,1.635s-0.753,0.768-1.251,0.99
		s-1.132,0.334-1.901,0.334c-0.934,0-1.696-0.136-2.288-0.407c-0.592-0.271-1.103-0.748-1.532-1.432
		c-0.43-0.683-0.645-1.558-0.645-2.623c0-1.421,0.378-2.513,1.134-3.276c0.756-0.763,1.825-1.145,3.208-1.145
		c1.082,0,1.933,0.219,2.552,0.656s1.079,1.109,1.38,2.016l-2.344,0.521c-0.082-0.262-0.168-0.453-0.258-0.574
		c-0.148-0.203-0.33-0.359-0.545-0.469s-0.455-0.164-0.721-0.164c-0.602,0-1.063,0.242-1.383,0.726
		c-0.242,0.359-0.363,0.923-0.363,1.691c0,0.952,0.145,1.604,0.434,1.958c0.289,0.353,0.695,0.529,1.219,0.529
		c0.508,0,0.892-0.143,1.151-0.428S575,92.418,575.117,91.875z"/>
	<path class="st2" d="M578.129,86.801h8.068v2.121h-2.707v6.469h-2.654v-6.469h-2.707V86.801z"/>
	<path class="st2" d="M587.504,86.801h2.66v8.59h-2.66V86.801z"/>
	<path class="st2" d="M591.734,91.102c0-1.402,0.391-2.494,1.172-3.275s1.869-1.172,3.264-1.172c1.43,0,2.531,0.384,3.305,1.151
		s1.16,1.843,1.16,3.226c0,1.004-0.169,1.827-0.507,2.47s-0.826,1.143-1.465,1.5s-1.435,0.536-2.388,0.536
		c-0.969,0-1.771-0.154-2.405-0.463s-1.149-0.797-1.544-1.465S591.734,92.105,591.734,91.102z M594.389,91.113
		c0,0.867,0.161,1.49,0.483,1.869s0.761,0.568,1.315,0.568c0.57,0,1.012-0.186,1.324-0.557s0.469-1.037,0.469-1.998
		c0-0.809-0.163-1.399-0.489-1.772s-0.769-0.56-1.327-0.56c-0.535,0-0.965,0.189-1.289,0.568S594.389,90.238,594.389,91.113z"/>
	<path class="st2" d="M602.082,86.801h2.479l3.234,4.752v-4.752h2.502v8.59h-2.502l-3.217-4.717v4.717h-2.496V86.801z"/>
	<path class="st2" d="M503.434,101.201h3.49l1.347,5.227l1.337-5.227h3.488v8.59h-2.174v-6.551l-1.675,6.551h-1.968l-1.672-6.551
		v6.551h-2.174V101.201z"/>
	<path class="st2" d="M514.455,105.502c0-1.402,0.391-2.494,1.172-3.275s1.869-1.172,3.264-1.172c1.43,0,2.531,0.384,3.305,1.151
		s1.16,1.843,1.16,3.226c0,1.004-0.169,1.827-0.507,2.47s-0.826,1.143-1.465,1.5s-1.435,0.536-2.388,0.536
		c-0.969,0-1.771-0.154-2.405-0.463s-1.149-0.797-1.544-1.465S514.455,106.506,514.455,105.502z M517.109,105.514
		c0,0.867,0.161,1.49,0.483,1.869s0.761,0.568,1.315,0.568c0.57,0,1.012-0.186,1.324-0.557s0.469-1.037,0.469-1.998
		c0-0.809-0.163-1.399-0.489-1.772s-0.769-0.56-1.327-0.56c-0.535,0-0.965,0.189-1.289,0.568S517.109,104.639,517.109,105.514z"/>
	<path class="st2" d="M524.803,101.201h2.479l3.234,4.752v-4.752h2.502v8.59h-2.502l-3.217-4.717v4.717h-2.496V101.201z"/>
	<path class="st2" d="M534.887,101.201h2.66v8.59h-2.66V101.201z"/>
	<path class="st2" d="M538.848,101.201h8.068v2.121h-2.707v6.469h-2.654v-6.469h-2.707V101.201z"/>
	<path class="st2" d="M547.373,105.502c0-1.402,0.391-2.494,1.172-3.275s1.869-1.172,3.264-1.172c1.43,0,2.531,0.384,3.305,1.151
		s1.16,1.843,1.16,3.226c0,1.004-0.169,1.827-0.507,2.47s-0.826,1.143-1.465,1.5s-1.435,0.536-2.388,0.536
		c-0.969,0-1.771-0.154-2.405-0.463s-1.149-0.797-1.544-1.465S547.373,106.506,547.373,105.502z M550.027,105.514
		c0,0.867,0.161,1.49,0.483,1.869s0.761,0.568,1.315,0.568c0.57,0,1.012-0.186,1.324-0.557s0.469-1.037,0.469-1.998
		c0-0.809-0.163-1.399-0.489-1.772s-0.769-0.56-1.327-0.56c-0.535,0-0.965,0.189-1.289,0.568S550.027,104.639,550.027,105.514z"/>
	<path class="st2" d="M557.738,109.791v-8.59h4.424c0.82,0,1.447,0.07,1.881,0.211s0.783,0.401,1.049,0.782s0.398,0.845,0.398,1.392
		c0,0.477-0.102,0.888-0.305,1.233s-0.483,0.626-0.839,0.841c-0.227,0.137-0.537,0.25-0.932,0.34
		c0.315,0.105,0.546,0.211,0.69,0.316c0.098,0.07,0.239,0.221,0.425,0.452c0.186,0.23,0.31,0.408,0.372,0.533l1.285,2.489h-2.999
		l-1.419-2.625c-0.18-0.34-0.34-0.561-0.48-0.662c-0.191-0.133-0.408-0.199-0.65-0.199h-0.234v3.486H557.738z M560.404,104.682
		h1.119c0.121,0,0.355-0.039,0.703-0.117c0.176-0.035,0.319-0.125,0.431-0.27s0.167-0.311,0.167-0.498
		c0-0.277-0.088-0.49-0.264-0.639s-0.506-0.223-0.99-0.223h-1.166V104.682z"/>
	<path class="st2" d="M567.143,101.201h2.66v8.59h-2.66V101.201z"/>
	<path class="st2" d="M571.725,101.201h2.479l3.234,4.752v-4.752h2.502v8.59h-2.502l-3.217-4.717v4.717h-2.496V101.201z"/>
	<path class="st2" d="M586.021,106.68v-1.787h4.102v3.662c-0.785,0.535-1.479,0.899-2.083,1.093s-1.319,0.29-2.147,0.29
		c-1.02,0-1.851-0.174-2.493-0.521s-1.141-0.865-1.494-1.553s-0.53-1.477-0.53-2.367c0-0.938,0.193-1.753,0.58-2.446
		s0.953-1.22,1.699-1.579c0.582-0.277,1.365-0.416,2.35-0.416c0.949,0,1.659,0.086,2.13,0.258s0.861,0.438,1.172,0.8
		s0.544,0.819,0.7,1.374l-2.561,0.457c-0.105-0.324-0.284-0.572-0.536-0.744s-0.573-0.258-0.964-0.258
		c-0.582,0-1.046,0.202-1.392,0.606s-0.519,1.044-0.519,1.919c0,0.93,0.175,1.594,0.524,1.992s0.837,0.598,1.462,0.598
		c0.297,0,0.58-0.043,0.85-0.129s0.578-0.232,0.926-0.439v-0.809H586.021z"/>
</g>
<line class="st3" x1="204.309" y1="49.688" x2="270.366" y2="49.688"/>
<polygon class="st4" points="268.386,43.748 280.266,49.688 268.385,55.628 268.386,43.748 "/>
<line class="st3" x1="325.629" y1="49.688" x2="391.686" y2="49.688"/>
<polygon class="st4" points="389.706,43.748 401.586,49.688 389.705,55.628 389.706,43.748 "/>
<line class="st3" x1="446.949" y1="49.688" x2="513.005" y2="49.688"/>
<polygon class="st4" points="511.026,43.748 522.906,49.688 511.025,55.628 511.026,43.748 "/>
<g>
	<path class="st2" d="M98.891,32.889l2.182,0.257c-0.283,0.473-0.624,0.882-1.024,1.228c-0.4,0.346-0.854,0.614-1.361,0.806
		c-0.507,0.191-1.103,0.287-1.786,0.287c-0.66,0-1.189-0.062-1.588-0.184c-0.398-0.124-0.709-0.323-0.935-0.598
		c-0.225-0.275-0.365-0.598-0.421-0.968c-0.056-0.372,0.018-0.862,0.223-1.476c0.213-0.641,0.5-1.173,0.86-1.598
		c0.265-0.313,0.576-0.592,0.937-0.84c0.36-0.248,0.707-0.432,1.04-0.553c0.528-0.191,1.156-0.286,1.882-0.286
		c1.016,0,1.729,0.182,2.142,0.544c0.412,0.363,0.609,0.894,0.591,1.594l-2.344,0.299c0.018-0.266-0.042-0.466-0.183-0.602
		c-0.141-0.134-0.367-0.202-0.68-0.202c-0.395,0-0.762,0.142-1.1,0.424c-0.338,0.282-0.604,0.71-0.794,1.284
		c-0.17,0.511-0.179,0.899-0.025,1.164c0.154,0.265,0.418,0.397,0.793,0.397c0.313,0,0.602-0.08,0.868-0.24
		C98.434,33.467,98.675,33.22,98.891,32.889z"/>
	<path class="st2" d="M103.54,29.103h2.232l-0.34,1.02c0.362-0.442,0.685-0.745,0.969-0.912c0.284-0.166,0.593-0.248,0.929-0.248
		c0.352,0,0.7,0.109,1.045,0.328l-1.305,1.699c-0.242-0.118-0.445-0.176-0.609-0.176c-0.313,0-0.598,0.128-0.856,0.387
		c-0.367,0.363-0.716,1.042-1.048,2.038l-0.695,2.086h-2.396L103.54,29.103z"/>
	<path class="st2" d="M114.709,32.806h-4.781c-0.085,0.383-0.076,0.668,0.025,0.856c0.141,0.27,0.396,0.404,0.768,0.404
		c0.234,0,0.477-0.058,0.727-0.176c0.153-0.074,0.336-0.205,0.547-0.392l2.277,0.217c-0.568,0.625-1.151,1.073-1.749,1.344
		c-0.599,0.271-1.372,0.408-2.321,0.408c-0.824,0-1.434-0.117-1.829-0.349c-0.396-0.232-0.664-0.602-0.806-1.107
		c-0.142-0.505-0.099-1.101,0.129-1.784c0.324-0.973,0.897-1.759,1.721-2.36c0.824-0.603,1.784-0.902,2.882-0.902
		c0.891,0,1.549,0.134,1.975,0.404s0.688,0.661,0.787,1.172c0.099,0.511,0.012,1.178-0.262,1.999L114.709,32.806z M112.665,31.664
		c0.106-0.46,0.093-0.791-0.042-0.99s-0.366-0.298-0.694-0.298c-0.379,0-0.732,0.15-1.059,0.451
		c-0.207,0.188-0.393,0.467-0.555,0.837H112.665z"/>
	<path class="st2" d="M118.542,31.119l-2.2-0.24c0.219-0.398,0.448-0.712,0.686-0.94c0.239-0.229,0.538-0.427,0.898-0.595
		c0.259-0.121,0.591-0.215,0.997-0.281c0.405-0.067,0.83-0.099,1.275-0.099c0.715,0,1.276,0.04,1.683,0.119
		c0.406,0.081,0.712,0.248,0.917,0.501c0.145,0.176,0.222,0.424,0.231,0.747s-0.034,0.63-0.132,0.923l-0.917,2.749
		c-0.097,0.293-0.156,0.523-0.173,0.688c-0.019,0.166-0.008,0.378,0.031,0.636H119.6c-0.037-0.161-0.055-0.283-0.054-0.366
		c0-0.084,0.017-0.216,0.05-0.396c-0.413,0.301-0.795,0.515-1.147,0.645c-0.479,0.171-0.998,0.257-1.556,0.257
		c-0.742,0-1.249-0.172-1.519-0.516c-0.271-0.344-0.321-0.767-0.153-1.271c0.157-0.473,0.426-0.861,0.805-1.167
		c0.379-0.305,0.966-0.531,1.761-0.679c0.955-0.18,1.577-0.306,1.866-0.378s0.603-0.167,0.939-0.284
		c0.097-0.293,0.105-0.499,0.023-0.615c-0.082-0.118-0.275-0.176-0.58-0.176c-0.391,0-0.705,0.063-0.941,0.187
		C118.909,30.666,118.725,30.85,118.542,31.119z M120.192,32.373c-0.367,0.118-0.744,0.221-1.129,0.311
		c-0.527,0.129-0.876,0.256-1.046,0.381c-0.176,0.129-0.291,0.275-0.346,0.439c-0.063,0.187-0.049,0.341,0.042,0.46
		c0.091,0.118,0.264,0.178,0.518,0.178c0.266,0,0.534-0.064,0.806-0.193c0.271-0.128,0.485-0.286,0.643-0.471
		c0.158-0.187,0.286-0.427,0.385-0.724L120.192,32.373z"/>
	<path class="st2" d="M128.504,26.736l-0.789,2.367h1.313l-0.582,1.747h-1.313l-0.735,2.205c-0.088,0.265-0.121,0.44-0.099,0.526
		c0.034,0.132,0.149,0.198,0.344,0.198c0.176,0,0.438-0.05,0.789-0.152l-0.373,1.646c-0.633,0.128-1.205,0.193-1.717,0.193
		c-0.594,0-1.006-0.076-1.236-0.229c-0.231-0.152-0.362-0.382-0.394-0.693c-0.031-0.31,0.069-0.813,0.301-1.507l0.729-2.188h-0.879
		l0.582-1.747h0.879l0.381-1.142L128.504,26.736z"/>
	<path class="st2" d="M135.838,32.806h-4.781c-0.085,0.383-0.076,0.668,0.025,0.856c0.141,0.27,0.396,0.404,0.768,0.404
		c0.234,0,0.477-0.058,0.727-0.176c0.153-0.074,0.336-0.205,0.547-0.392l2.277,0.217c-0.568,0.625-1.151,1.073-1.749,1.344
		c-0.599,0.271-1.372,0.408-2.321,0.408c-0.824,0-1.434-0.117-1.829-0.349c-0.396-0.232-0.664-0.602-0.806-1.107
		c-0.142-0.505-0.099-1.101,0.129-1.784c0.324-0.973,0.897-1.759,1.721-2.36c0.824-0.603,1.784-0.902,2.882-0.902
		c0.891,0,1.549,0.134,1.975,0.404s0.688,0.661,0.787,1.172c0.099,0.511,0.012,1.178-0.262,1.999L135.838,32.806z M133.793,31.664
		c0.106-0.46,0.093-0.791-0.042-0.99s-0.366-0.298-0.694-0.298c-0.379,0-0.732,0.15-1.059,0.451
		c-0.207,0.188-0.393,0.467-0.555,0.837H133.793z"/>
</g>
<g>
	<path class="st2" d="M353.981,19.536h2.391l-2.863,8.59h-2.391L353.981,19.536z"/>
	<path class="st2" d="M357.194,21.903h2.385l-2.074,6.223h-2.385L357.194,21.903z M357.983,19.536h2.385l-0.541,1.624h-2.385
		L357.983,19.536z"/>
	<path class="st2" d="M360.399,21.903h2.481l-0.108,3.944l2.568-3.944h2.406l-4.719,6.223h-2.115L360.399,21.903z"/>
	<path class="st2" d="M373.796,25.606h-4.781c-0.085,0.383-0.076,0.668,0.025,0.856c0.141,0.27,0.396,0.404,0.768,0.404
		c0.234,0,0.477-0.058,0.727-0.176c0.153-0.074,0.336-0.205,0.547-0.392l2.277,0.217c-0.568,0.625-1.151,1.073-1.749,1.344
		c-0.599,0.271-1.372,0.408-2.321,0.408c-0.824,0-1.435-0.117-1.829-0.349c-0.396-0.232-0.664-0.602-0.806-1.107
		c-0.143-0.506-0.1-1.101,0.129-1.784c0.324-0.973,0.897-1.759,1.721-2.36c0.824-0.603,1.785-0.902,2.883-0.902
		c0.891,0,1.549,0.134,1.975,0.404s0.688,0.661,0.787,1.172c0.099,0.511,0.012,1.178-0.262,1.999L373.796,25.606z M371.751,24.464
		c0.106-0.46,0.093-0.791-0.042-0.99s-0.366-0.298-0.694-0.298c-0.379,0-0.732,0.15-1.059,0.451
		c-0.207,0.187-0.393,0.467-0.555,0.837H371.751z"/>
	<path class="st2" d="M338.784,33.936h2.391l-2.863,8.59h-2.391L338.784,33.936z"/>
	<path class="st2" d="M343.411,38.319l-2.2-0.24c0.219-0.398,0.448-0.712,0.686-0.94c0.239-0.229,0.538-0.427,0.898-0.595
		c0.26-0.121,0.592-0.215,0.997-0.282c0.404-0.066,0.829-0.099,1.274-0.099c0.715,0,1.276,0.04,1.683,0.12
		c0.407,0.081,0.713,0.248,0.918,0.501c0.144,0.176,0.221,0.424,0.23,0.747c0.01,0.322-0.033,0.63-0.131,0.923l-0.917,2.749
		c-0.097,0.293-0.155,0.522-0.174,0.688c-0.018,0.166-0.008,0.378,0.032,0.635h-2.238c-0.037-0.16-0.055-0.282-0.055-0.366
		c0.001-0.084,0.018-0.216,0.05-0.396c-0.413,0.301-0.794,0.515-1.146,0.645c-0.479,0.171-0.998,0.258-1.557,0.258
		c-0.742,0-1.248-0.172-1.519-0.516c-0.27-0.344-0.321-0.767-0.153-1.271c0.158-0.473,0.427-0.862,0.806-1.167
		s0.966-0.531,1.761-0.679c0.955-0.18,1.577-0.306,1.866-0.378c0.29-0.072,0.604-0.167,0.939-0.284
		c0.097-0.293,0.105-0.499,0.023-0.615c-0.082-0.118-0.275-0.176-0.58-0.176c-0.391,0-0.705,0.063-0.941,0.187
		C343.778,37.866,343.595,38.049,343.411,38.319z M345.062,39.573c-0.367,0.118-0.744,0.221-1.13,0.311
		c-0.527,0.129-0.876,0.256-1.047,0.381c-0.175,0.129-0.29,0.275-0.345,0.439c-0.063,0.187-0.049,0.341,0.042,0.46
		c0.092,0.119,0.265,0.178,0.519,0.178c0.266,0,0.533-0.064,0.805-0.193s0.486-0.286,0.644-0.472
		c0.158-0.186,0.286-0.427,0.385-0.724L345.062,39.573z"/>
	<path class="st2" d="M354.396,42.526h-2.227l0.336-1.008c-0.471,0.414-0.904,0.708-1.301,0.885
		c-0.396,0.176-0.841,0.264-1.333,0.264c-0.656,0-1.104-0.197-1.347-0.589s-0.228-0.997,0.044-1.813l1.321-3.961h2.396l-1.141,3.422
		c-0.131,0.391-0.15,0.668-0.061,0.832c0.09,0.164,0.265,0.247,0.526,0.247c0.285,0,0.556-0.109,0.81-0.329
		c0.255-0.219,0.477-0.611,0.666-1.178l0.998-2.994h2.385L354.396,42.526z"/>
	<path class="st2" d="M357.917,36.303h2.221l-0.338,1.013c0.47-0.413,0.904-0.709,1.303-0.887c0.399-0.178,0.843-0.266,1.331-0.266
		c0.66,0,1.112,0.196,1.354,0.588c0.242,0.393,0.227,0.999-0.047,1.819l-1.318,3.955h-2.396l1.141-3.422
		c0.13-0.39,0.149-0.666,0.059-0.828c-0.09-0.162-0.266-0.244-0.527-0.244c-0.289,0-0.561,0.109-0.813,0.328
		c-0.253,0.219-0.474,0.611-0.662,1.177l-0.996,2.989h-2.385L357.917,36.303z"/>
	<path class="st2" d="M369.3,40.088l2.182,0.258c-0.283,0.472-0.625,0.882-1.025,1.228s-0.854,0.614-1.361,0.806
		c-0.507,0.19-1.103,0.287-1.786,0.287c-0.66,0-1.188-0.062-1.588-0.185c-0.398-0.123-0.71-0.322-0.935-0.598
		c-0.225-0.275-0.365-0.597-0.421-0.968c-0.056-0.372,0.018-0.863,0.222-1.476c0.214-0.64,0.501-1.173,0.861-1.598
		c0.264-0.312,0.576-0.592,0.937-0.84c0.359-0.247,0.706-0.432,1.04-0.553c0.528-0.191,1.155-0.287,1.882-0.287
		c1.016,0,1.729,0.182,2.142,0.545s0.609,0.894,0.592,1.593l-2.345,0.299c0.019-0.266-0.043-0.466-0.183-0.601
		c-0.141-0.134-0.367-0.202-0.68-0.202c-0.395,0-0.762,0.142-1.1,0.424c-0.339,0.283-0.604,0.71-0.795,1.284
		c-0.17,0.51-0.178,0.898-0.024,1.164c0.154,0.265,0.419,0.397,0.794,0.397c0.313,0,0.602-0.08,0.867-0.24
		C368.842,40.667,369.083,40.42,369.3,40.088z"/>
	<path class="st2" d="M374.509,33.936h2.385l-1.055,3.164c0.436-0.335,0.838-0.575,1.206-0.72c0.369-0.145,0.771-0.217,1.209-0.217
		c0.648,0,1.094,0.197,1.335,0.591c0.242,0.395,0.227,1-0.045,1.816l-1.318,3.955h-2.396l1.141-3.422
		c0.13-0.39,0.149-0.666,0.059-0.828c-0.09-0.162-0.266-0.244-0.527-0.244c-0.289,0-0.561,0.109-0.813,0.328
		c-0.253,0.219-0.474,0.611-0.662,1.177l-0.996,2.989h-2.385L374.509,33.936z"/>
</g>
<g>
	<path class="st2" d="M207.322,21.903h2.385l-2.075,6.223h-2.385L207.322,21.903z M208.111,19.536h2.385l-0.541,1.624h-2.385
		L208.111,19.536z"/>
	<path class="st2" d="M211.248,21.903h2.227l-0.303,0.909c0.447-0.379,0.861-0.648,1.24-0.809c0.38-0.16,0.801-0.24,1.263-0.24
		c0.497,0,0.862,0.087,1.092,0.263c0.23,0.176,0.38,0.438,0.448,0.786c0.509-0.407,0.943-0.683,1.301-0.829
		c0.356-0.146,0.762-0.219,1.214-0.219c0.667,0,1.122,0.198,1.365,0.594c0.242,0.396,0.222,1.017-0.059,1.861l-1.303,3.908h-2.391
		l1.182-3.545c0.094-0.281,0.109-0.49,0.046-0.627c-0.088-0.215-0.251-0.322-0.488-0.322c-0.28,0-0.541,0.102-0.779,0.305
		c-0.239,0.203-0.433,0.529-0.583,0.978l-1.071,3.211h-2.391l1.143-3.428c0.091-0.273,0.137-0.458,0.139-0.557
		c0.001-0.156-0.046-0.282-0.139-0.378c-0.095-0.095-0.225-0.144-0.394-0.144c-0.274,0-0.535,0.104-0.78,0.311
		c-0.246,0.207-0.447,0.547-0.604,1.02l-1.059,3.176h-2.391L211.248,21.903z"/>
	<path class="st2" d="M220.378,30.493l2.864-8.59h2.232l-0.307,0.92c0.437-0.386,0.808-0.648,1.111-0.785
		c0.409-0.184,0.824-0.275,1.246-0.275c0.832,0,1.37,0.317,1.613,0.954c0.242,0.637,0.208,1.424-0.104,2.361
		c-0.346,1.036-0.856,1.825-1.535,2.371c-0.678,0.544-1.396,0.817-2.153,0.817c-0.367,0-0.681-0.063-0.942-0.188
		c-0.262-0.124-0.47-0.311-0.626-0.556l-0.99,2.97H220.378z M224.589,25.033c-0.164,0.492-0.182,0.857-0.054,1.095
		c0.127,0.239,0.35,0.357,0.666,0.357c0.277,0,0.547-0.114,0.812-0.343c0.264-0.229,0.486-0.616,0.668-1.163
		c0.168-0.504,0.194-0.875,0.078-1.111c-0.117-0.236-0.316-0.354-0.597-0.354c-0.305,0-0.598,0.118-0.88,0.356
		C224.998,24.111,224.768,24.498,224.589,25.033z"/>
	<path class="st2" d="M232.105,19.536h2.391l-2.864,8.59h-2.391L232.105,19.536z"/>
	<path class="st2" d="M240.904,25.606h-4.781c-0.085,0.383-0.076,0.668,0.025,0.856c0.141,0.27,0.397,0.404,0.768,0.404
		c0.234,0,0.476-0.058,0.727-0.176c0.153-0.074,0.336-0.205,0.546-0.392l2.277,0.217c-0.568,0.625-1.151,1.073-1.749,1.344
		c-0.599,0.271-1.373,0.408-2.322,0.408c-0.824,0-1.434-0.117-1.829-0.349c-0.396-0.232-0.664-0.602-0.806-1.107
		c-0.143-0.506-0.1-1.101,0.129-1.784c0.324-0.973,0.897-1.759,1.721-2.36c0.824-0.603,1.784-0.902,2.882-0.902
		c0.891,0,1.549,0.134,1.975,0.404s0.688,0.661,0.787,1.172s0.012,1.178-0.262,1.999L240.904,25.606z M238.859,24.464
		c0.106-0.46,0.093-0.791-0.042-0.99s-0.367-0.298-0.695-0.298c-0.379,0-0.732,0.15-1.059,0.451
		c-0.207,0.187-0.392,0.467-0.554,0.837H238.859z"/>
	<path class="st2" d="M243.252,21.903h2.227l-0.303,0.909c0.447-0.379,0.861-0.648,1.24-0.809c0.38-0.16,0.801-0.24,1.263-0.24
		c0.497,0,0.862,0.087,1.092,0.263c0.23,0.176,0.38,0.438,0.448,0.786c0.509-0.407,0.943-0.683,1.301-0.829
		c0.356-0.146,0.762-0.219,1.214-0.219c0.667,0,1.122,0.198,1.365,0.594c0.242,0.396,0.222,1.017-0.059,1.861l-1.303,3.908h-2.391
		l1.182-3.545c0.094-0.281,0.109-0.49,0.046-0.627c-0.088-0.215-0.251-0.322-0.488-0.322c-0.28,0-0.541,0.102-0.779,0.305
		c-0.239,0.203-0.433,0.529-0.583,0.978l-1.071,3.211h-2.391l1.143-3.428c0.091-0.273,0.137-0.458,0.139-0.557
		c0.001-0.156-0.046-0.282-0.139-0.378c-0.095-0.095-0.225-0.144-0.394-0.144c-0.274,0-0.535,0.104-0.78,0.311
		c-0.246,0.207-0.447,0.547-0.604,1.02l-1.059,3.176h-2.391L243.252,21.903z"/>
	<path class="st2" d="M260.908,25.606h-4.781c-0.085,0.383-0.076,0.668,0.025,0.856c0.141,0.27,0.397,0.404,0.768,0.404
		c0.234,0,0.476-0.058,0.727-0.176c0.153-0.074,0.336-0.205,0.546-0.392l2.277,0.217c-0.568,0.625-1.151,1.073-1.749,1.344
		c-0.599,0.271-1.373,0.408-2.322,0.408c-0.824,0-1.434-0.117-1.829-0.349c-0.396-0.232-0.664-0.602-0.806-1.107
		c-0.143-0.506-0.1-1.101,0.129-1.784c0.324-0.973,0.897-1.759,1.721-2.36c0.824-0.603,1.784-0.902,2.882-0.902
		c0.891,0,1.549,0.134,1.975,0.404s0.688,0.661,0.787,1.172s0.012,1.178-0.262,1.999L260.908,25.606z M258.863,24.464
		c0.106-0.46,0.093-0.791-0.042-0.99s-0.367-0.298-0.695-0.298c-0.379,0-0.732,0.15-1.059,0.451
		c-0.207,0.187-0.392,0.467-0.554,0.837H258.863z"/>
	<path class="st2" d="M263.238,21.903h2.221l-0.338,1.014c0.47-0.413,0.904-0.71,1.304-0.888c0.399-0.178,0.842-0.266,1.331-0.266
		c0.66,0,1.112,0.195,1.354,0.588c0.242,0.393,0.227,0.999-0.047,1.82l-1.318,3.955h-2.396l1.141-3.422
		c0.13-0.39,0.149-0.666,0.059-0.828s-0.267-0.244-0.528-0.244c-0.289,0-0.56,0.109-0.812,0.328
		c-0.253,0.219-0.474,0.611-0.662,1.178l-0.997,2.989h-2.385L263.238,21.903z"/>
	<path class="st2" d="M274.908,19.536l-0.789,2.367h1.313l-0.583,1.747h-1.313l-0.735,2.205c-0.088,0.265-0.121,0.44-0.1,0.526
		c0.034,0.132,0.149,0.198,0.345,0.198c0.176,0,0.438-0.05,0.789-0.152l-0.373,1.646c-0.632,0.128-1.205,0.193-1.717,0.193
		c-0.594,0-1.006-0.076-1.236-0.229c-0.231-0.152-0.362-0.382-0.394-0.693c-0.031-0.31,0.069-0.813,0.301-1.507l0.729-2.188h-0.879
		l0.583-1.747h0.879l0.38-1.142L274.908,19.536z"/>
	<path class="st2" d="M211.603,38.319l-2.2-0.24c0.219-0.398,0.448-0.712,0.686-0.94c0.239-0.229,0.538-0.427,0.898-0.595
		c0.26-0.121,0.592-0.215,0.997-0.282c0.405-0.066,0.83-0.099,1.275-0.099c0.715,0,1.276,0.04,1.683,0.12
		c0.407,0.081,0.712,0.248,0.917,0.501c0.144,0.176,0.222,0.424,0.231,0.747c0.01,0.322-0.034,0.63-0.132,0.923l-0.917,2.749
		c-0.097,0.293-0.155,0.522-0.174,0.688c-0.018,0.166-0.008,0.378,0.032,0.635h-2.238c-0.037-0.16-0.054-0.282-0.054-0.366
		c0.001-0.084,0.018-0.216,0.05-0.396c-0.413,0.301-0.794,0.515-1.146,0.645c-0.479,0.171-0.998,0.258-1.557,0.258
		c-0.742,0-1.248-0.172-1.518-0.516s-0.322-0.767-0.154-1.271c0.158-0.473,0.426-0.862,0.805-1.167s0.966-0.531,1.761-0.679
		c0.955-0.18,1.577-0.306,1.866-0.378c0.29-0.072,0.603-0.167,0.939-0.284c0.097-0.293,0.105-0.499,0.023-0.615
		c-0.082-0.118-0.275-0.176-0.58-0.176c-0.391,0-0.705,0.063-0.941,0.187C211.971,37.866,211.787,38.049,211.603,38.319z
		 M213.253,39.573c-0.367,0.118-0.744,0.221-1.129,0.311c-0.527,0.129-0.876,0.256-1.047,0.381
		c-0.175,0.129-0.291,0.275-0.345,0.439c-0.063,0.187-0.048,0.341,0.042,0.46c0.092,0.119,0.264,0.178,0.518,0.178
		c0.266,0,0.534-0.064,0.805-0.193c0.271-0.129,0.486-0.286,0.644-0.472c0.158-0.186,0.286-0.427,0.385-0.724L213.253,39.573z"/>
	<path class="st2" d="M218.105,36.303h2.221l-0.338,1.013c0.47-0.413,0.905-0.709,1.304-0.887s0.842-0.266,1.331-0.266
		c0.66,0,1.112,0.196,1.354,0.588c0.242,0.393,0.227,0.999-0.047,1.819l-1.318,3.955h-2.396l1.141-3.422
		c0.13-0.39,0.15-0.666,0.059-0.828c-0.09-0.162-0.266-0.244-0.528-0.244c-0.289,0-0.56,0.109-0.813,0.328s-0.473,0.611-0.662,1.177
		l-0.996,2.989h-2.385L218.105,36.303z"/>
	<path class="st2" d="M233.449,33.936l-2.863,8.59h-2.232l0.307-0.92c-0.443,0.391-0.816,0.654-1.119,0.792
		c-0.404,0.18-0.817,0.27-1.239,0.27c-0.848,0-1.387-0.323-1.62-0.967c-0.233-0.644-0.195-1.428,0.112-2.35
		c0.344-1.031,0.854-1.82,1.53-2.367c0.676-0.546,1.395-0.82,2.157-0.82c0.371,0,0.688,0.062,0.949,0.188
		c0.261,0.125,0.467,0.312,0.618,0.562l0.992-2.977H233.449z M229.237,39.397c0.163-0.488,0.181-0.854,0.054-1.093
		s-0.349-0.36-0.665-0.36c-0.277,0-0.548,0.116-0.813,0.346c-0.264,0.23-0.487,0.618-0.668,1.161
		c-0.169,0.508-0.196,0.879-0.082,1.116c0.114,0.237,0.314,0.354,0.6,0.354c0.305,0,0.598-0.119,0.881-0.357
		C228.827,40.325,229.058,39.937,229.237,39.397z"/>
	<path class="st2" d="M241.781,33.936l-0.789,2.367h1.313l-0.582,1.746h-1.313l-0.735,2.205c-0.088,0.265-0.122,0.44-0.1,0.526
		c0.034,0.132,0.149,0.198,0.344,0.198c0.176,0,0.438-0.05,0.789-0.152l-0.373,1.646c-0.633,0.129-1.206,0.194-1.717,0.194
		c-0.594,0-1.006-0.076-1.236-0.229c-0.231-0.152-0.362-0.383-0.393-0.693c-0.031-0.311,0.068-0.813,0.3-1.507l0.729-2.188h-0.879
		l0.582-1.746h0.879l0.381-1.143L241.781,33.936z"/>
	<path class="st2" d="M249.115,40.006h-4.781c-0.084,0.383-0.076,0.668,0.025,0.856c0.141,0.27,0.397,0.404,0.768,0.404
		c0.234,0,0.477-0.059,0.727-0.176c0.154-0.074,0.336-0.205,0.546-0.392l2.277,0.217c-0.567,0.625-1.15,1.073-1.749,1.344
		s-1.373,0.408-2.322,0.408c-0.824,0-1.434-0.117-1.829-0.35c-0.395-0.231-0.664-0.601-0.806-1.107s-0.099-1.101,0.129-1.784
		c0.324-0.973,0.898-1.759,1.721-2.361c0.824-0.602,1.784-0.902,2.882-0.902c0.891,0,1.549,0.134,1.975,0.404
		c0.426,0.27,0.688,0.66,0.787,1.172c0.099,0.511,0.012,1.177-0.262,1.998L249.115,40.006z M247.07,38.864
		c0.107-0.46,0.093-0.791-0.042-0.99s-0.367-0.298-0.695-0.298c-0.379,0-0.731,0.15-1.059,0.451
		c-0.207,0.187-0.392,0.467-0.554,0.837H247.07z"/>
	<path class="st2" d="M249.525,40.797l2.441-0.223c0.003,0.282,0.074,0.483,0.209,0.604c0.135,0.121,0.35,0.182,0.643,0.182
		c0.32,0,0.591-0.068,0.813-0.205c0.17-0.101,0.281-0.228,0.332-0.38c0.057-0.171,0.012-0.304-0.137-0.398
		c-0.107-0.065-0.422-0.147-0.943-0.245c-0.78-0.145-1.311-0.278-1.592-0.401c-0.282-0.122-0.484-0.33-0.607-0.623
		c-0.123-0.292-0.122-0.626,0.003-1.001c0.137-0.41,0.374-0.763,0.71-1.059c0.337-0.297,0.74-0.519,1.206-0.664
		c0.467-0.146,1.052-0.22,1.755-0.22c0.742,0,1.271,0.057,1.587,0.169c0.316,0.113,0.552,0.289,0.709,0.527s0.246,0.561,0.266,0.967
		l-2.335,0.222c0.008-0.199-0.041-0.345-0.147-0.439c-0.146-0.125-0.351-0.188-0.617-0.188c-0.27,0-0.482,0.048-0.637,0.144
		c-0.155,0.095-0.255,0.211-0.301,0.348c-0.05,0.152-0.011,0.267,0.12,0.345c0.13,0.079,0.447,0.148,0.949,0.211
		c0.763,0.09,1.312,0.214,1.645,0.374c0.333,0.16,0.553,0.388,0.66,0.685c0.106,0.297,0.1,0.623-0.018,0.978
		c-0.12,0.359-0.345,0.709-0.675,1.048c-0.33,0.34-0.762,0.61-1.295,0.811c-0.534,0.201-1.204,0.302-2.008,0.302
		c-1.137,0-1.892-0.162-2.266-0.486S249.462,41.395,249.525,40.797z"/>
	<path class="st2" d="M262.441,33.936l-0.789,2.367h1.313l-0.582,1.746h-1.313l-0.735,2.205c-0.088,0.265-0.122,0.44-0.1,0.526
		c0.034,0.132,0.149,0.198,0.344,0.198c0.176,0,0.438-0.05,0.789-0.152l-0.373,1.646c-0.633,0.129-1.206,0.194-1.717,0.194
		c-0.594,0-1.006-0.076-1.236-0.229c-0.231-0.152-0.362-0.383-0.393-0.693c-0.031-0.311,0.068-0.813,0.3-1.507l0.729-2.188H257.8
		l0.582-1.746h0.879l0.381-1.143L262.441,33.936z"/>
</g>
<g>
	<path class="st2" d="M475.485,19.536l-0.789,2.367h1.313l-0.582,1.747h-1.313l-0.734,2.205c-0.089,0.265-0.121,0.44-0.1,0.526
		c0.034,0.132,0.148,0.198,0.344,0.198c0.176,0,0.439-0.05,0.789-0.152l-0.373,1.646c-0.633,0.128-1.205,0.193-1.717,0.193
		c-0.594,0-1.006-0.076-1.236-0.229c-0.23-0.152-0.361-0.382-0.393-0.693c-0.031-0.31,0.068-0.813,0.3-1.507l0.729-2.188h-0.879
		l0.582-1.747h0.879l0.381-1.142L475.485,19.536z"/>
	<path class="st2" d="M482.819,25.606h-4.781c-0.084,0.383-0.076,0.668,0.025,0.856c0.141,0.27,0.396,0.404,0.768,0.404
		c0.234,0,0.477-0.058,0.727-0.176c0.154-0.074,0.336-0.205,0.547-0.392l2.277,0.217c-0.567,0.625-1.15,1.073-1.749,1.344
		c-0.598,0.271-1.372,0.408-2.321,0.408c-0.824,0-1.434-0.117-1.828-0.349c-0.396-0.232-0.664-0.602-0.807-1.107
		c-0.142-0.505-0.099-1.101,0.129-1.784c0.324-0.973,0.898-1.759,1.722-2.36c0.824-0.603,1.784-0.902,2.882-0.902
		c0.891,0,1.549,0.134,1.975,0.404s0.688,0.661,0.787,1.172c0.1,0.511,0.012,1.178-0.262,1.999L482.819,25.606z M480.774,24.464
		c0.107-0.46,0.093-0.791-0.042-0.99s-0.366-0.298-0.694-0.298c-0.379,0-0.731,0.15-1.059,0.451
		c-0.207,0.188-0.392,0.467-0.555,0.837H480.774z"/>
	<path class="st2" d="M483.229,26.397l2.441-0.222c0.004,0.282,0.074,0.482,0.209,0.603c0.136,0.122,0.35,0.182,0.643,0.182
		c0.32,0,0.592-0.068,0.813-0.205c0.171-0.101,0.281-0.228,0.332-0.38c0.057-0.171,0.012-0.304-0.137-0.398
		c-0.107-0.066-0.422-0.147-0.943-0.246c-0.78-0.145-1.311-0.278-1.592-0.401c-0.282-0.122-0.484-0.33-0.607-0.623
		c-0.123-0.292-0.122-0.626,0.003-1.001c0.137-0.409,0.373-0.762,0.71-1.059c0.338-0.297,0.74-0.519,1.206-0.665
		c0.467-0.146,1.052-0.219,1.755-0.219c0.742,0,1.271,0.056,1.587,0.169c0.316,0.113,0.552,0.289,0.709,0.527
		c0.157,0.238,0.246,0.561,0.267,0.967l-2.336,0.223c0.008-0.199-0.041-0.346-0.146-0.439c-0.146-0.125-0.352-0.188-0.617-0.188
		c-0.27,0-0.481,0.048-0.637,0.144c-0.154,0.096-0.255,0.211-0.301,0.349c-0.051,0.152-0.011,0.267,0.12,0.344
		c0.13,0.079,0.446,0.148,0.949,0.211c0.763,0.09,1.312,0.214,1.645,0.375c0.333,0.16,0.554,0.388,0.659,0.685
		c0.106,0.296,0.101,0.623-0.018,0.977c-0.12,0.36-0.345,0.709-0.675,1.048c-0.33,0.34-0.763,0.611-1.296,0.811
		c-0.533,0.201-1.203,0.302-2.008,0.302c-1.137,0-1.893-0.162-2.267-0.486S483.167,26.995,483.229,26.397z"/>
	<path class="st2" d="M496.146,19.536l-0.789,2.367h1.313l-0.582,1.747h-1.313l-0.734,2.205c-0.089,0.265-0.121,0.44-0.1,0.526
		c0.034,0.132,0.148,0.198,0.344,0.198c0.176,0,0.439-0.05,0.789-0.152l-0.373,1.646c-0.633,0.128-1.205,0.193-1.717,0.193
		c-0.594,0-1.006-0.076-1.236-0.229c-0.23-0.152-0.361-0.382-0.393-0.693c-0.031-0.31,0.068-0.813,0.3-1.507l0.729-2.188h-0.879
		l0.582-1.747h0.879l0.381-1.142L496.146,19.536z"/>
	<path class="st2" d="M455.997,40.797l2.441-0.222c0.004,0.281,0.073,0.482,0.209,0.603c0.136,0.121,0.35,0.182,0.643,0.182
		c0.32,0,0.591-0.068,0.813-0.205c0.17-0.101,0.281-0.228,0.332-0.38c0.057-0.171,0.012-0.304-0.137-0.398
		c-0.107-0.066-0.422-0.147-0.943-0.246c-0.78-0.145-1.311-0.278-1.592-0.401c-0.282-0.122-0.484-0.33-0.607-0.623
		c-0.123-0.292-0.122-0.626,0.003-1.001c0.136-0.41,0.373-0.762,0.71-1.059c0.338-0.297,0.739-0.519,1.206-0.664
		c0.467-0.146,1.052-0.22,1.755-0.22c0.742,0,1.271,0.057,1.587,0.17c0.315,0.113,0.552,0.289,0.709,0.527
		c0.157,0.238,0.246,0.561,0.267,0.967l-2.336,0.222c0.008-0.199-0.041-0.345-0.146-0.439c-0.146-0.125-0.352-0.188-0.617-0.188
		c-0.27,0-0.481,0.048-0.637,0.144c-0.154,0.095-0.255,0.211-0.301,0.348c-0.051,0.152-0.011,0.267,0.12,0.345
		c0.13,0.079,0.446,0.148,0.948,0.211c0.764,0.09,1.313,0.214,1.646,0.374c0.333,0.161,0.553,0.388,0.659,0.685
		c0.106,0.297,0.1,0.623-0.018,0.978c-0.12,0.359-0.346,0.709-0.675,1.048c-0.33,0.34-0.763,0.61-1.296,0.811
		c-0.533,0.201-1.203,0.302-2.008,0.302c-1.137,0-1.893-0.162-2.267-0.486S455.935,41.395,455.997,40.797z"/>
	<path class="st2" d="M468.626,40.088l2.182,0.258c-0.282,0.473-0.624,0.882-1.024,1.228s-0.854,0.614-1.361,0.806
		c-0.507,0.19-1.103,0.287-1.786,0.287c-0.66,0-1.189-0.062-1.588-0.185c-0.398-0.123-0.71-0.322-0.935-0.598
		c-0.225-0.275-0.365-0.597-0.422-0.968c-0.056-0.372,0.019-0.863,0.223-1.476c0.214-0.64,0.501-1.173,0.86-1.598
		c0.265-0.312,0.577-0.592,0.938-0.84c0.359-0.247,0.706-0.432,1.039-0.553c0.529-0.191,1.156-0.287,1.883-0.287
		c1.016,0,1.729,0.182,2.142,0.545s0.609,0.894,0.591,1.593l-2.344,0.299c0.019-0.266-0.043-0.466-0.184-0.601
		c-0.141-0.134-0.367-0.202-0.68-0.202c-0.395,0-0.761,0.142-1.1,0.424c-0.338,0.283-0.603,0.711-0.794,1.284
		c-0.17,0.51-0.179,0.898-0.024,1.164c0.153,0.265,0.418,0.397,0.793,0.397c0.313,0,0.602-0.08,0.868-0.24
		C468.169,40.667,468.41,40.42,468.626,40.088z"/>
	<path class="st2" d="M471.915,39.433c0.316-0.95,0.897-1.731,1.743-2.347s1.813-0.923,2.903-0.923c1.246,0,2.066,0.361,2.463,1.084
		c0.317,0.582,0.334,1.299,0.051,2.15c-0.319,0.957-0.897,1.741-1.736,2.352c-0.839,0.612-1.818,0.917-2.939,0.917
		c-1,0-1.724-0.254-2.172-0.762C471.68,41.276,471.575,40.452,471.915,39.433z M474.308,39.426c-0.185,0.555-0.209,0.965-0.073,1.23
		c0.136,0.266,0.374,0.399,0.714,0.399c0.344,0,0.67-0.131,0.978-0.393c0.308-0.262,0.559-0.682,0.751-1.26
		c0.18-0.539,0.202-0.94,0.067-1.204c-0.135-0.263-0.366-0.396-0.694-0.396c-0.348,0-0.68,0.134-0.995,0.402
		C474.739,38.472,474.49,38.879,474.308,39.426z"/>
	<path class="st2" d="M481.278,36.303h2.232l-0.34,1.02c0.362-0.442,0.685-0.745,0.969-0.912c0.284-0.166,0.594-0.249,0.93-0.249
		c0.352,0,0.7,0.109,1.045,0.328l-1.305,1.699c-0.242-0.118-0.445-0.176-0.609-0.176c-0.313,0-0.598,0.129-0.855,0.387
		c-0.367,0.363-0.717,1.042-1.049,2.039l-0.695,2.086h-2.396L481.278,36.303z"/>
	<path class="st2" d="M492.448,40.006h-4.781c-0.085,0.383-0.076,0.668,0.025,0.856c0.141,0.27,0.396,0.404,0.768,0.404
		c0.234,0,0.477-0.059,0.727-0.176c0.154-0.074,0.336-0.205,0.547-0.392l2.277,0.217c-0.567,0.625-1.15,1.073-1.749,1.344
		s-1.372,0.408-2.321,0.408c-0.824,0-1.434-0.117-1.829-0.35c-0.396-0.231-0.663-0.601-0.806-1.107
		c-0.142-0.506-0.099-1.101,0.129-1.784c0.324-0.973,0.898-1.759,1.722-2.361c0.823-0.602,1.784-0.902,2.882-0.902
		c0.891,0,1.549,0.134,1.975,0.404c0.426,0.27,0.688,0.66,0.787,1.172c0.1,0.511,0.012,1.177-0.262,1.998L492.448,40.006z
		 M490.403,38.864c0.106-0.46,0.093-0.791-0.042-0.99s-0.366-0.298-0.694-0.298c-0.379,0-0.731,0.15-1.059,0.451
		c-0.207,0.187-0.392,0.467-0.555,0.837H490.403z"/>
	<path class="st2" d="M492.858,40.797l2.441-0.222c0.004,0.281,0.073,0.482,0.209,0.603c0.136,0.121,0.35,0.182,0.643,0.182
		c0.32,0,0.591-0.068,0.813-0.205c0.17-0.101,0.281-0.228,0.332-0.38c0.057-0.171,0.012-0.304-0.137-0.398
		c-0.107-0.066-0.422-0.147-0.943-0.246c-0.78-0.145-1.311-0.278-1.592-0.401c-0.282-0.122-0.484-0.33-0.607-0.623
		c-0.123-0.292-0.122-0.626,0.003-1.001c0.136-0.41,0.373-0.762,0.71-1.059c0.338-0.297,0.739-0.519,1.206-0.664
		c0.467-0.146,1.052-0.22,1.755-0.22c0.742,0,1.271,0.057,1.587,0.17c0.315,0.113,0.552,0.289,0.709,0.527
		c0.157,0.238,0.246,0.561,0.267,0.967l-2.336,0.222c0.008-0.199-0.041-0.345-0.146-0.439c-0.146-0.125-0.352-0.188-0.617-0.188
		c-0.27,0-0.481,0.048-0.637,0.144c-0.154,0.095-0.255,0.211-0.301,0.348c-0.051,0.152-0.011,0.267,0.12,0.345
		c0.13,0.079,0.446,0.148,0.948,0.211c0.764,0.09,1.313,0.214,1.646,0.374c0.333,0.161,0.553,0.388,0.659,0.685
		c0.106,0.297,0.1,0.623-0.018,0.978c-0.12,0.359-0.346,0.709-0.675,1.048c-0.33,0.34-0.763,0.61-1.296,0.811
		c-0.533,0.201-1.203,0.302-2.008,0.302c-1.137,0-1.893-0.162-2.267-0.486S492.796,41.395,492.858,40.797z"/>
</g>
<g>
</g>
<g>
</g>
<g>
</g>
<g>
</g>
<g>
</g>
<g>
</g>
</svg>
