<?xml version="1.0" encoding="utf-8"?>
<!-- Generator: Adobe Illustrator 21.0.2, SVG Export Plug-In . SVG Version: 6.00 Build 0)  -->
<svg version="1.1" id="レイヤー_1" xmlns="http://www.w3.org/2000/svg" xmlns:xlink="http://www.w3.org/1999/xlink" x="0px"
	 y="0px" viewBox="0 0 331 154.5" style="enable-background:new 0 0 331 154.5;" xml:space="preserve">
<style type="text/css">
	.st0{fill-rule:evenodd;clip-rule:evenodd;fill:#5B9BD5;}
	.st1{fill:none;stroke:#41719C;stroke-width:0.7508;stroke-miterlimit:10;}
	.st2{fill:#FFFFFF;}
	.st3{fill-rule:evenodd;clip-rule:evenodd;fill:#00B050;}
	.st4{fill:none;stroke:#41719C;stroke-miterlimit:10;}
	.st5{fill-rule:evenodd;clip-rule:evenodd;fill:#C00000;}
	.st6{fill:#5B9BD5;}
	.st7{fill:none;stroke:#5B9BD5;stroke-width:2.25;stroke-miterlimit:10;}
</style>
<g>
	<path d="M10.721,78.12V67.383h1.421v4.409h5.581v-4.409h1.421V78.12h-1.421v-5.061h-5.581v5.061H10.721z"/>
	<path d="M21.348,68.899v-1.516h1.318v1.516H21.348z M21.348,78.12v-7.778h1.318v7.778H21.348z"/>
	<path d="M24.432,78.765l1.282,0.19c0.054,0.396,0.203,0.684,0.447,0.864c0.327,0.244,0.774,0.366,1.34,0.366
		c0.61,0,1.082-0.122,1.414-0.366s0.557-0.586,0.674-1.025c0.068-0.269,0.1-0.833,0.095-1.692c-0.576,0.679-1.294,1.018-2.153,1.018
		c-1.069,0-1.897-0.386-2.483-1.157s-0.879-1.697-0.879-2.776c0-0.742,0.134-1.427,0.403-2.054s0.658-1.112,1.168-1.454
		c0.51-0.342,1.109-0.513,1.798-0.513c0.918,0,1.675,0.371,2.271,1.113v-0.938h1.216v6.724c0,1.211-0.124,2.069-0.37,2.574
		c-0.247,0.506-0.637,0.905-1.172,1.198c-0.534,0.293-1.192,0.439-1.974,0.439c-0.928,0-1.677-0.208-2.249-0.626
		C24.688,80.233,24.412,79.604,24.432,78.765z M25.523,74.092c0,1.021,0.203,1.765,0.608,2.234s0.913,0.703,1.523,0.703
		c0.605,0,1.113-0.233,1.523-0.7c0.41-0.466,0.615-1.197,0.615-2.193c0-0.952-0.211-1.67-0.634-2.153s-0.931-0.725-1.527-0.725
		c-0.586,0-1.084,0.238-1.494,0.714C25.728,72.447,25.523,73.154,25.523,74.092z"/>
	<path d="M33.016,78.12V67.383h1.318v3.853c0.615-0.713,1.392-1.069,2.329-1.069c0.576,0,1.077,0.113,1.501,0.341
		c0.425,0.227,0.729,0.541,0.912,0.941c0.183,0.4,0.274,0.981,0.274,1.743v4.929h-1.318v-4.929c0-0.659-0.143-1.139-0.429-1.439
		c-0.285-0.301-0.689-0.451-1.212-0.451c-0.391,0-0.758,0.102-1.103,0.304c-0.344,0.203-0.589,0.477-0.736,0.824
		s-0.22,0.825-0.22,1.436v4.255H33.016z"/>
	<path d="M10.194,90.671l1.34-0.117c0.063,0.537,0.211,0.978,0.443,1.321c0.232,0.345,0.592,0.623,1.081,0.835
		c0.488,0.213,1.038,0.318,1.648,0.318c0.542,0,1.021-0.08,1.436-0.241c0.415-0.161,0.724-0.382,0.927-0.663
		c0.202-0.28,0.304-0.587,0.304-0.919c0-0.337-0.098-0.631-0.293-0.883c-0.195-0.251-0.518-0.462-0.967-0.634
		c-0.288-0.111-0.925-0.286-1.912-0.523c-0.986-0.236-1.677-0.46-2.073-0.67c-0.513-0.269-0.895-0.602-1.146-1
		c-0.251-0.397-0.377-0.843-0.377-1.336c0-0.543,0.154-1.049,0.461-1.521c0.308-0.471,0.757-0.829,1.348-1.073
		s1.248-0.366,1.97-0.366c0.796,0,1.498,0.128,2.105,0.384c0.608,0.257,1.076,0.634,1.403,1.132s0.503,1.063,0.527,1.691
		l-1.362,0.104c-0.073-0.679-0.321-1.191-0.744-1.538c-0.422-0.348-1.046-0.521-1.871-0.521c-0.859,0-1.486,0.157-1.879,0.473
		c-0.393,0.314-0.589,0.694-0.589,1.139c0,0.386,0.139,0.703,0.417,0.952c0.273,0.249,0.987,0.504,2.143,0.766
		c1.154,0.261,1.947,0.489,2.376,0.685c0.625,0.288,1.086,0.653,1.384,1.095c0.298,0.442,0.447,0.951,0.447,1.527
		c0,0.571-0.164,1.109-0.491,1.615c-0.327,0.505-0.797,0.898-1.41,1.179c-0.613,0.281-1.302,0.422-2.069,0.422
		c-0.972,0-1.786-0.143-2.443-0.426c-0.657-0.282-1.172-0.709-1.545-1.277C10.409,92.031,10.213,91.388,10.194,90.671z"/>
	<path d="M25.589,91.271l1.296,0.169c-0.142,0.894-0.504,1.593-1.087,2.099c-0.584,0.505-1.3,0.758-2.15,0.758
		c-1.064,0-1.92-0.348-2.567-1.044c-0.647-0.695-0.971-1.692-0.971-2.991c0-0.84,0.139-1.575,0.417-2.205s0.702-1.103,1.271-1.417
		c0.568-0.315,1.188-0.473,1.856-0.473c0.845,0,1.536,0.214,2.073,0.641c0.537,0.428,0.881,1.034,1.033,1.82l-1.282,0.198
		c-0.122-0.522-0.338-0.916-0.648-1.18c-0.311-0.264-0.685-0.396-1.125-0.396c-0.664,0-1.204,0.238-1.619,0.714
		c-0.415,0.477-0.623,1.229-0.623,2.26c0,1.045,0.2,1.805,0.601,2.277c0.4,0.475,0.923,0.711,1.567,0.711
		c0.518,0,0.95-0.158,1.296-0.477C25.277,92.419,25.496,91.931,25.589,91.271z"/>
	<path d="M27.523,90.231c0-1.44,0.4-2.508,1.201-3.201c0.669-0.576,1.484-0.864,2.446-0.864c1.069,0,1.943,0.351,2.622,1.051
		c0.679,0.701,1.018,1.669,1.018,2.904c0,1.001-0.15,1.788-0.451,2.362c-0.3,0.573-0.737,1.02-1.311,1.336
		c-0.574,0.317-1.2,0.477-1.879,0.477c-1.089,0-1.969-0.349-2.641-1.047S27.523,91.545,27.523,90.231z M28.878,90.231
		c0,0.996,0.217,1.741,0.652,2.237c0.435,0.495,0.981,0.743,1.641,0.743c0.654,0,1.199-0.249,1.633-0.747s0.652-1.257,0.652-2.278
		c0-0.961-0.219-1.69-0.655-2.186c-0.438-0.496-0.98-0.744-1.63-0.744c-0.659,0-1.206,0.247-1.641,0.74S28.878,89.235,28.878,90.231
		z"/>
	<path d="M36.341,94.12v-7.778h1.187v1.179c0.303-0.551,0.583-0.915,0.838-1.091c0.257-0.176,0.539-0.264,0.846-0.264
		c0.444,0,0.896,0.142,1.355,0.425l-0.454,1.223c-0.322-0.189-0.645-0.285-0.967-0.285c-0.288,0-0.547,0.087-0.776,0.26
		c-0.229,0.174-0.393,0.414-0.491,0.722c-0.146,0.469-0.22,0.981-0.22,1.538v4.072H36.341z"/>
	<path d="M46.675,91.615l1.362,0.169c-0.215,0.796-0.613,1.413-1.194,1.853s-1.323,0.659-2.227,0.659
		c-1.138,0-2.04-0.351-2.707-1.051c-0.666-0.701-1-1.684-1-2.948c0-1.309,0.337-2.324,1.011-3.047s1.548-1.084,2.622-1.084
		c1.04,0,1.89,0.354,2.549,1.062c0.659,0.709,0.989,1.705,0.989,2.988c0,0.079-0.002,0.196-0.007,0.352h-5.801
		c0.049,0.855,0.291,1.51,0.725,1.963c0.435,0.455,0.977,0.682,1.626,0.682c0.483,0,0.896-0.127,1.238-0.381
		S46.475,92.172,46.675,91.615z M42.347,89.483h4.343c-0.059-0.653-0.225-1.145-0.498-1.472c-0.42-0.508-0.964-0.762-1.633-0.762
		c-0.605,0-1.115,0.203-1.527,0.608C42.619,88.264,42.391,88.806,42.347,89.483z"/>
</g>
<rect x="127.547" y="16.38" class="st0" width="69.75" height="31.5"/>
<rect x="127.547" y="16.38" class="st1" width="69.75" height="31.5"/>
<g>
	<path class="st2" d="M133.183,37.87V24.967h5.721c1.15,0,2.024,0.116,2.623,0.348c0.598,0.232,1.077,0.641,1.435,1.228
		s0.537,1.235,0.537,1.945c0,0.916-0.296,1.687-0.889,2.315c-0.593,0.628-1.508,1.027-2.746,1.197
		c0.452,0.217,0.795,0.432,1.03,0.643c0.499,0.458,0.971,1.03,1.417,1.716l2.244,3.512h-2.147l-1.708-2.685
		c-0.499-0.774-0.909-1.367-1.232-1.778c-0.323-0.411-0.612-0.698-0.867-0.862c-0.255-0.164-0.515-0.279-0.779-0.343
		c-0.193-0.041-0.51-0.062-0.951-0.062h-1.98v5.729H133.183z M134.891,30.662h3.67c0.78,0,1.391-0.081,1.831-0.242
		c0.44-0.162,0.775-0.419,1.003-0.774c0.229-0.355,0.343-0.741,0.343-1.158c0-0.61-0.221-1.112-0.665-1.505
		c-0.443-0.393-1.143-0.59-2.099-0.59h-4.083V30.662z"/>
	<path class="st2" d="M152.37,34.86l1.637,0.203c-0.258,0.957-0.736,1.699-1.435,2.227c-0.698,0.528-1.59,0.792-2.675,0.792
		c-1.368,0-2.451-0.421-3.252-1.263c-0.801-0.842-1.201-2.023-1.201-3.542c0-1.572,0.405-2.793,1.214-3.661
		c0.81-0.869,1.86-1.303,3.151-1.303c1.25,0,2.271,0.425,3.063,1.276c0.792,0.851,1.188,2.048,1.188,3.591
		c0,0.094-0.003,0.234-0.009,0.422h-6.97c0.059,1.027,0.349,1.813,0.871,2.359c0.522,0.545,1.173,0.818,1.954,0.818
		c0.581,0,1.077-0.152,1.487-0.458S152.13,35.529,152.37,34.86z M147.169,32.299h5.219c-0.071-0.786-0.27-1.376-0.599-1.769
		c-0.505-0.61-1.159-0.915-1.963-0.915c-0.728,0-1.339,0.243-1.835,0.73C147.496,30.832,147.221,31.483,147.169,32.299z"/>
	<path class="st2" d="M153.981,41.496l0.299-1.347c0.317,0.083,0.566,0.124,0.749,0.124c0.322,0,0.563-0.107,0.722-0.321
		c0.158-0.214,0.237-0.75,0.237-1.606v-9.822h1.584v9.857c0,1.15-0.15,1.951-0.449,2.403c-0.382,0.587-1.015,0.88-1.901,0.88
		C154.793,41.664,154.38,41.607,153.981,41.496z M155.987,26.807v-1.84h1.584v1.84H155.987z"/>
	<path class="st2" d="M166.4,34.86l1.637,0.203c-0.258,0.957-0.736,1.699-1.435,2.227c-0.698,0.528-1.59,0.792-2.675,0.792
		c-1.368,0-2.451-0.421-3.252-1.263c-0.801-0.842-1.201-2.023-1.201-3.542c0-1.572,0.405-2.793,1.214-3.661
		c0.81-0.869,1.86-1.303,3.151-1.303c1.25,0,2.271,0.425,3.063,1.276c0.792,0.851,1.188,2.048,1.188,3.591
		c0,0.094-0.003,0.234-0.009,0.422h-6.97c0.059,1.027,0.349,1.813,0.871,2.359c0.522,0.545,1.173,0.818,1.954,0.818
		c0.581,0,1.077-0.152,1.487-0.458S166.159,35.529,166.4,34.86z M161.198,32.299h5.219c-0.071-0.786-0.27-1.376-0.599-1.769
		c-0.505-0.61-1.159-0.915-1.963-0.915c-0.728,0-1.339,0.243-1.835,0.73C161.525,30.832,161.251,31.483,161.198,32.299z"/>
	<path class="st2" d="M176.125,34.446l1.558,0.203c-0.17,1.074-0.606,1.914-1.307,2.521s-1.562,0.911-2.583,0.911
		c-1.279,0-2.308-0.418-3.085-1.254s-1.166-2.035-1.166-3.595c0-1.009,0.167-1.893,0.501-2.649s0.844-1.324,1.527-1.703
		c0.684-0.378,1.427-0.567,2.231-0.567c1.015,0,1.845,0.257,2.491,0.77c0.646,0.514,1.059,1.243,1.241,2.187l-1.541,0.238
		c-0.146-0.628-0.406-1.1-0.779-1.417s-0.823-0.475-1.351-0.475c-0.798,0-1.446,0.286-1.945,0.858
		c-0.499,0.572-0.748,1.477-0.748,2.715c0,1.255,0.24,2.168,0.722,2.737c0.481,0.569,1.109,0.854,1.883,0.854
		c0.622,0,1.141-0.19,1.558-0.572C175.749,35.825,176.013,35.239,176.125,34.446z"/>
	<path class="st2" d="M182.497,36.453l0.229,1.399c-0.446,0.094-0.845,0.141-1.197,0.141c-0.575,0-1.021-0.091-1.337-0.272
		c-0.317-0.182-0.54-0.421-0.669-0.717c-0.129-0.296-0.194-0.92-0.194-1.871v-5.377h-1.162v-1.232h1.162v-2.314l1.576-0.951v3.265
		h1.593v1.232h-1.593v5.465c0,0.452,0.028,0.743,0.083,0.872s0.146,0.232,0.273,0.308c0.126,0.076,0.306,0.114,0.541,0.114
		C181.978,36.515,182.209,36.494,182.497,36.453z"/>
	<path class="st2" d="M183.412,35.08l1.566-0.247c0.088,0.628,0.333,1.109,0.735,1.443c0.401,0.334,0.963,0.502,1.685,0.502
		c0.728,0,1.268-0.148,1.621-0.444c0.352-0.296,0.528-0.644,0.528-1.043c0-0.358-0.156-0.64-0.467-0.845
		c-0.218-0.141-0.757-0.32-1.62-0.537c-1.162-0.293-1.968-0.547-2.416-0.761c-0.449-0.214-0.79-0.511-1.021-0.889
		s-0.348-0.796-0.348-1.254c0-0.417,0.096-0.802,0.286-1.157s0.45-0.65,0.778-0.884c0.247-0.182,0.583-0.336,1.009-0.462
		c0.425-0.126,0.881-0.189,1.368-0.189c0.733,0,1.378,0.105,1.932,0.317c0.555,0.211,0.964,0.497,1.229,0.858
		c0.264,0.361,0.445,0.844,0.545,1.448l-1.549,0.211c-0.07-0.481-0.274-0.856-0.612-1.126c-0.338-0.27-0.814-0.405-1.431-0.405
		c-0.728,0-1.247,0.12-1.558,0.361c-0.312,0.24-0.467,0.522-0.467,0.845c0,0.206,0.064,0.39,0.194,0.555
		c0.129,0.17,0.331,0.311,0.606,0.422c0.159,0.059,0.625,0.193,1.399,0.405c1.121,0.299,1.904,0.544,2.346,0.735
		c0.443,0.191,0.791,0.468,1.043,0.832c0.253,0.364,0.379,0.816,0.379,1.355c0,0.528-0.154,1.025-0.462,1.492
		c-0.309,0.467-0.753,0.828-1.334,1.083c-0.581,0.255-1.239,0.383-1.972,0.383c-1.214,0-2.14-0.252-2.776-0.757
		C183.994,36.82,183.588,36.072,183.412,35.08z"/>
</g>
<rect x="51.047" y="107.88" class="st3" width="76.5" height="31.5"/>
<rect x="51.047" y="107.88" class="st4" width="76.5" height="31.5"/>
<g>
	<path class="st2" d="M75.045,124.52v-1.514l5.466-0.009v4.787c-0.839,0.669-1.705,1.173-2.597,1.51
		c-0.892,0.338-1.807,0.506-2.746,0.506c-1.267,0-2.419-0.271-3.454-0.813c-1.036-0.543-1.818-1.328-2.346-2.354
		c-0.528-1.027-0.792-2.174-0.792-3.441c0-1.256,0.262-2.428,0.788-3.517c0.525-1.088,1.281-1.896,2.266-2.425
		c0.986-0.527,2.121-0.792,3.406-0.792c0.933,0,1.776,0.151,2.53,0.454c0.754,0.302,1.345,0.723,1.773,1.263
		s0.754,1.244,0.977,2.112l-1.54,0.422c-0.194-0.656-0.435-1.173-0.722-1.549c-0.288-0.375-0.699-0.676-1.232-0.902
		c-0.534-0.226-1.126-0.339-1.778-0.339c-0.78,0-1.455,0.119-2.024,0.356c-0.569,0.238-1.028,0.551-1.377,0.938
		c-0.349,0.388-0.62,0.813-0.814,1.276c-0.329,0.798-0.493,1.663-0.493,2.597c0,1.149,0.198,2.112,0.594,2.887
		c0.396,0.774,0.973,1.35,1.729,1.725c0.757,0.376,1.561,0.563,2.412,0.563c0.739,0,1.461-0.142,2.165-0.427
		c0.704-0.284,1.238-0.588,1.602-0.911v-2.402H75.045z"/>
	<path class="st2" d="M82.236,124.906c0-1.73,0.481-3.013,1.443-3.846c0.804-0.692,1.784-1.039,2.939-1.039
		c1.285,0,2.335,0.422,3.151,1.264s1.224,2.005,1.224,3.489c0,1.203-0.181,2.149-0.542,2.839s-0.886,1.225-1.575,1.605
		c-0.69,0.382-1.442,0.572-2.258,0.572c-1.309,0-2.366-0.419-3.173-1.258C82.639,127.693,82.236,126.485,82.236,124.906z
		 M83.864,124.906c0,1.197,0.261,2.094,0.784,2.689c0.522,0.596,1.179,0.893,1.971,0.893c0.786,0,1.44-0.299,1.963-0.897
		c0.522-0.599,0.783-1.511,0.783-2.737c0-1.155-0.263-2.031-0.788-2.627c-0.525-0.596-1.178-0.894-1.958-0.894
		c-0.792,0-1.449,0.297-1.971,0.89C84.125,122.814,83.864,123.71,83.864,124.906z"/>
	<path class="st2" d="M92.26,124.906c0-1.73,0.481-3.013,1.443-3.846c0.804-0.692,1.784-1.039,2.939-1.039
		c1.285,0,2.335,0.422,3.151,1.264s1.224,2.005,1.224,3.489c0,1.203-0.181,2.149-0.542,2.839s-0.886,1.225-1.575,1.605
		c-0.69,0.382-1.442,0.572-2.258,0.572c-1.309,0-2.366-0.419-3.173-1.258C92.664,127.693,92.26,126.485,92.26,124.906z
		 M93.888,124.906c0,1.197,0.261,2.094,0.784,2.689c0.522,0.596,1.179,0.893,1.971,0.893c0.786,0,1.44-0.299,1.963-0.897
		c0.522-0.599,0.783-1.511,0.783-2.737c0-1.155-0.263-2.031-0.788-2.627c-0.525-0.596-1.178-0.894-1.958-0.894
		c-0.792,0-1.449,0.297-1.971,0.89C94.15,122.814,93.888,123.71,93.888,124.906z"/>
	<path class="st2" d="M108.939,129.58v-1.18c-0.593,0.928-1.464,1.391-2.614,1.391c-0.745,0-1.43-0.205-2.055-0.616
		c-0.625-0.41-1.109-0.983-1.452-1.721c-0.343-0.735-0.515-1.582-0.515-2.539c0-0.933,0.155-1.779,0.466-2.539
		s0.777-1.342,1.399-1.747c0.622-0.404,1.317-0.607,2.086-0.607c0.563,0,1.065,0.119,1.505,0.356
		c0.44,0.238,0.798,0.548,1.074,0.929v-4.629h1.576v12.902H108.939z M103.931,124.915c0,1.197,0.252,2.092,0.757,2.685
		c0.504,0.593,1.1,0.889,1.787,0.889c0.692,0,1.28-0.282,1.765-0.849c0.484-0.566,0.726-1.431,0.726-2.592
		c0-1.279-0.247-2.219-0.739-2.816c-0.493-0.599-1.101-0.898-1.822-0.898c-0.704,0-1.292,0.288-1.765,0.863
		C104.167,122.771,103.931,123.678,103.931,124.915z"/>
</g>
<rect x="127.547" y="107.88" class="st5" width="146.25" height="31.5"/>
<rect x="126.88" y="107.88" class="st4" width="146.25" height="31.5"/>
<g>
	<path class="st2" d="M186.137,129.58v-12.902h4.84c0.986,0,1.777,0.13,2.373,0.392c0.594,0.261,1.061,0.663,1.398,1.205
		c0.338,0.543,0.506,1.111,0.506,1.703c0,0.552-0.148,1.071-0.449,1.559c-0.299,0.486-0.75,0.88-1.355,1.179
		c0.781,0.229,1.381,0.619,1.801,1.171s0.629,1.203,0.629,1.954c0,0.604-0.127,1.166-0.383,1.686
		c-0.256,0.519-0.57,0.919-0.945,1.201c-0.377,0.281-0.848,0.494-1.414,0.638s-1.26,0.216-2.08,0.216H186.137z M187.844,122.099
		h2.789c0.758,0,1.301-0.05,1.629-0.149c0.434-0.129,0.762-0.343,0.98-0.643c0.221-0.299,0.33-0.675,0.33-1.126
		c0-0.429-0.102-0.806-0.307-1.131c-0.205-0.326-0.5-0.549-0.881-0.669s-1.035-0.181-1.963-0.181h-2.578V122.099z M187.844,128.058
		h3.213c0.551,0,0.938-0.021,1.162-0.062c0.393-0.07,0.721-0.188,0.984-0.353c0.264-0.164,0.482-0.403,0.652-0.717
		c0.17-0.314,0.254-0.677,0.254-1.087c0-0.481-0.123-0.899-0.369-1.255c-0.246-0.354-0.588-0.604-1.025-0.748
		c-0.438-0.144-1.066-0.215-1.887-0.215h-2.984V128.058z"/>
	<path class="st2" d="M204.127,128.427c-0.587,0.499-1.151,0.852-1.694,1.057c-0.542,0.205-1.125,0.308-1.747,0.308
		c-1.026,0-1.815-0.251-2.367-0.752c-0.552-0.502-0.827-1.143-0.827-1.924c0-0.457,0.104-0.875,0.313-1.254
		c0.208-0.378,0.48-0.682,0.818-0.911c0.337-0.229,0.718-0.401,1.14-0.519c0.312-0.082,0.78-0.161,1.408-0.238
		c1.279-0.152,2.221-0.334,2.825-0.545c0.006-0.218,0.009-0.355,0.009-0.414c0-0.646-0.149-1.101-0.448-1.364
		c-0.405-0.357-1.007-0.537-1.805-0.537c-0.745,0-1.295,0.131-1.65,0.392c-0.354,0.262-0.617,0.724-0.787,1.387l-1.55-0.211
		c0.142-0.663,0.373-1.199,0.695-1.606c0.323-0.408,0.789-0.722,1.399-0.942c0.61-0.22,1.317-0.33,2.121-0.33
		c0.798,0,1.446,0.095,1.945,0.282s0.865,0.424,1.101,0.708c0.234,0.285,0.398,0.645,0.492,1.078
		c0.053,0.271,0.079,0.757,0.079,1.461v2.112c0,1.474,0.034,2.404,0.102,2.795s0.201,0.765,0.4,1.122h-1.654
		C204.28,129.252,204.174,128.867,204.127,128.427z M203.995,124.889c-0.575,0.235-1.438,0.435-2.588,0.599
		c-0.65,0.094-1.111,0.2-1.381,0.317c-0.271,0.117-0.479,0.289-0.625,0.515c-0.147,0.226-0.221,0.477-0.221,0.752
		c0,0.423,0.16,0.775,0.48,1.057c0.319,0.281,0.787,0.423,1.403,0.423c0.61,0,1.153-0.134,1.628-0.401
		c0.476-0.267,0.824-0.632,1.048-1.096c0.17-0.357,0.255-0.886,0.255-1.584V124.889z"/>
	<path class="st2" d="M214.116,129.58v-1.18c-0.593,0.928-1.464,1.391-2.613,1.391c-0.746,0-1.431-0.205-2.056-0.616
		c-0.625-0.41-1.108-0.983-1.452-1.721c-0.343-0.735-0.515-1.582-0.515-2.539c0-0.933,0.155-1.779,0.467-2.539
		c0.311-0.76,0.777-1.342,1.399-1.747c0.621-0.404,1.316-0.607,2.085-0.607c0.563,0,1.065,0.119,1.506,0.356
		c0.439,0.238,0.798,0.548,1.073,0.929v-4.629h1.575v12.902H214.116z M209.108,124.915c0,1.197,0.252,2.092,0.757,2.685
		s1.101,0.889,1.787,0.889c0.692,0,1.28-0.282,1.765-0.849c0.483-0.566,0.726-1.431,0.726-2.592c0-1.279-0.246-2.219-0.739-2.816
		c-0.492-0.599-1.1-0.898-1.821-0.898c-0.704,0-1.293,0.288-1.765,0.863C209.344,122.771,209.108,123.678,209.108,124.915z"/>
</g>
<path class="st6" d="M265.827,77.47l8.42,4.91l-8.42,4.9c-0.53,0.32-1.22,0.14-1.53-0.4c-0.32-0.54-0.14-1.23,0.4-1.54l6.75-3.94
	v1.95l-6.75-3.94c-0.54-0.31-0.72-1-0.4-1.54C264.607,77.33,265.297,77.15,265.827,77.47z M59.457,87.28l-8.42-4.91l8.42-4.9
	c0.53-0.32,1.22-0.14,1.53,0.4c0.32,0.54,0.14,1.23-0.4,1.54l-6.75,3.94V81.4l6.75,3.94c0.54,0.31,0.72,1,0.4,1.54
	C60.677,87.42,59.987,87.6,59.457,87.28z M53.267,81.25h218.75v2.25H53.267V81.25z"/>
<g>
	<path d="M147.328,66.117l1.276-0.111c0.06,0.511,0.201,0.931,0.421,1.258s0.563,0.592,1.028,0.794
		c0.464,0.202,0.987,0.303,1.568,0.303c0.516,0,0.971-0.077,1.366-0.23c0.395-0.153,0.688-0.364,0.881-0.631s0.29-0.559,0.29-0.875
		c0-0.321-0.093-0.601-0.279-0.84c-0.186-0.239-0.493-0.44-0.92-0.603c-0.274-0.107-0.881-0.273-1.819-0.499
		c-0.939-0.226-1.596-0.438-1.973-0.638c-0.488-0.255-0.852-0.573-1.091-0.952c-0.239-0.378-0.359-0.803-0.359-1.272
		c0-0.516,0.146-0.998,0.439-1.446c0.293-0.448,0.72-0.789,1.283-1.021c0.562-0.232,1.187-0.349,1.875-0.349
		c0.757,0,1.425,0.122,2.004,0.366c0.578,0.244,1.023,0.603,1.334,1.077c0.312,0.474,0.479,1.011,0.502,1.61l-1.296,0.098
		c-0.07-0.646-0.306-1.134-0.708-1.463c-0.402-0.33-0.996-0.495-1.781-0.495c-0.818,0-1.414,0.15-1.788,0.45
		s-0.561,0.661-0.561,1.084c0,0.367,0.132,0.669,0.397,0.906c0.26,0.237,0.939,0.48,2.039,0.729s1.853,0.466,2.262,0.652
		c0.595,0.274,1.034,0.622,1.317,1.042c0.284,0.42,0.425,0.905,0.425,1.453c0,0.544-0.156,1.056-0.467,1.537
		c-0.312,0.481-0.759,0.855-1.342,1.122c-0.583,0.267-1.24,0.401-1.969,0.401c-0.925,0-1.7-0.135-2.325-0.404
		s-1.115-0.675-1.471-1.216S147.346,66.8,147.328,66.117z"/>
	<path d="M161.98,66.688l1.233,0.16c-0.135,0.851-0.479,1.516-1.035,1.997c-0.556,0.481-1.237,0.722-2.046,0.722
		c-1.013,0-1.828-0.331-2.443-0.994c-0.616-0.662-0.923-1.611-0.923-2.847c0-0.799,0.132-1.499,0.397-2.098
		c0.265-0.599,0.668-1.049,1.209-1.349c0.542-0.3,1.13-0.45,1.767-0.45c0.804,0,1.461,0.204,1.973,0.61
		c0.511,0.407,0.839,0.984,0.983,1.732l-1.22,0.188c-0.116-0.497-0.322-0.871-0.617-1.122s-0.651-0.376-1.07-0.376
		c-0.632,0-1.146,0.227-1.541,0.68s-0.592,1.17-0.592,2.15c0,0.994,0.19,1.717,0.571,2.167c0.381,0.451,0.878,0.676,1.492,0.676
		c0.493,0,0.904-0.151,1.234-0.453C161.682,67.781,161.891,67.316,161.98,66.688z"/>
	<path d="M163.82,65.699c0-1.371,0.381-2.386,1.143-3.046c0.637-0.548,1.413-0.823,2.328-0.823c1.018,0,1.849,0.333,2.495,1
		s0.969,1.588,0.969,2.764c0,0.953-0.143,1.702-0.429,2.248c-0.286,0.546-0.702,0.97-1.248,1.272
		c-0.546,0.302-1.142,0.453-1.788,0.453c-1.037,0-1.874-0.333-2.513-0.997C164.139,67.906,163.82,66.949,163.82,65.699z
		 M165.109,65.699c0,0.948,0.207,1.658,0.62,2.129s0.934,0.708,1.562,0.708c0.623,0,1.141-0.237,1.554-0.711s0.62-1.197,0.62-2.168
		c0-0.915-0.208-1.609-0.624-2.081c-0.416-0.472-0.933-0.708-1.551-0.708c-0.627,0-1.148,0.235-1.562,0.704
		S165.109,64.751,165.109,65.699z"/>
	<path d="M172.212,69.4v-7.402h1.129v1.122c0.288-0.525,0.554-0.871,0.798-1.039c0.244-0.167,0.512-0.251,0.805-0.251
		c0.423,0,0.853,0.135,1.29,0.404l-0.432,1.164c-0.307-0.181-0.613-0.272-0.92-0.272c-0.274,0-0.521,0.083-0.739,0.248
		c-0.219,0.165-0.374,0.394-0.467,0.687c-0.139,0.446-0.209,0.934-0.209,1.464V69.4H172.212z"/>
	<path d="M182.047,67.016l1.296,0.16c-0.205,0.758-0.583,1.345-1.136,1.764c-0.553,0.418-1.259,0.627-2.119,0.627
		c-1.083,0-1.941-0.333-2.576-1c-0.634-0.667-0.951-1.602-0.951-2.806c0-1.245,0.32-2.211,0.962-2.899
		c0.641-0.688,1.473-1.032,2.495-1.032c0.99,0,1.798,0.337,2.426,1.011c0.627,0.674,0.941,1.622,0.941,2.844
		c0,0.075-0.002,0.186-0.007,0.335h-5.521c0.046,0.813,0.276,1.436,0.69,1.868s0.929,0.648,1.547,0.648
		c0.46,0,0.853-0.121,1.178-0.362C181.598,67.932,181.856,67.546,182.047,67.016z M177.927,64.988h4.133
		c-0.056-0.623-0.214-1.09-0.474-1.401c-0.4-0.483-0.918-0.725-1.554-0.725c-0.577,0-1.061,0.193-1.454,0.579
		S177.969,64.342,177.927,64.988z"/>
</g>
<g>
	<path d="M280.548,78.7V67.963h1.421v9.47h5.288V78.7H280.548z"/>
	<path d="M288.291,74.811c0-1.44,0.4-2.507,1.201-3.201c0.669-0.576,1.484-0.864,2.446-0.864c1.069,0,1.943,0.351,2.622,1.051
		c0.679,0.701,1.018,1.669,1.018,2.904c0,1.001-0.149,1.789-0.45,2.362c-0.3,0.574-0.737,1.019-1.311,1.336
		c-0.574,0.317-1.2,0.476-1.879,0.476c-1.089,0-1.969-0.349-2.641-1.047C288.627,77.13,288.291,76.125,288.291,74.811z
		 M289.646,74.811c0,0.996,0.217,1.742,0.651,2.238s0.981,0.743,1.641,0.743c0.654,0,1.198-0.249,1.634-0.747
		c0.434-0.498,0.651-1.257,0.651-2.278c0-0.962-0.219-1.69-0.655-2.186c-0.438-0.496-0.98-0.744-1.63-0.744
		c-0.659,0-1.206,0.247-1.641,0.74S289.646,73.815,289.646,74.811z"/>
	<path d="M298.558,78.7l-2.38-7.778h1.362l1.238,4.49l0.461,1.67c0.02-0.083,0.154-0.618,0.402-1.604l1.238-4.556h1.355l1.164,4.512
		l0.389,1.487l0.446-1.501l1.333-4.497h1.281l-2.432,7.778h-1.369l-1.238-4.658l-0.3-1.326l-1.575,5.984H298.558z"/>
	<path d="M280.124,91.251l1.34-0.117c0.063,0.537,0.212,0.978,0.443,1.321c0.232,0.345,0.592,0.623,1.08,0.835
		c0.488,0.213,1.038,0.318,1.648,0.318c0.542,0,1.021-0.08,1.436-0.241s0.724-0.382,0.927-0.663c0.202-0.28,0.304-0.587,0.304-0.919
		c0-0.337-0.098-0.631-0.293-0.883c-0.195-0.251-0.518-0.462-0.967-0.634c-0.288-0.111-0.926-0.286-1.912-0.523
		c-0.986-0.236-1.677-0.46-2.072-0.67c-0.513-0.269-0.895-0.602-1.146-1c-0.251-0.397-0.377-0.843-0.377-1.336
		c0-0.543,0.154-1.049,0.461-1.521c0.309-0.471,0.757-0.829,1.348-1.073s1.248-0.366,1.971-0.366c0.796,0,1.498,0.128,2.105,0.384
		c0.608,0.257,1.075,0.634,1.402,1.132s0.503,1.063,0.527,1.691l-1.361,0.104c-0.074-0.679-0.321-1.191-0.744-1.539
		c-0.422-0.346-1.046-0.52-1.871-0.52c-0.859,0-1.485,0.157-1.879,0.473c-0.393,0.314-0.59,0.694-0.59,1.139
		c0,0.386,0.14,0.703,0.418,0.952c0.273,0.249,0.987,0.504,2.143,0.766c1.154,0.261,1.946,0.489,2.377,0.685
		c0.624,0.288,1.086,0.653,1.384,1.095c0.298,0.442,0.446,0.951,0.446,1.527c0,0.571-0.163,1.109-0.49,1.615
		c-0.327,0.505-0.797,0.898-1.41,1.179c-0.612,0.281-1.303,0.422-2.068,0.422c-0.973,0-1.786-0.143-2.443-0.426
		c-0.656-0.282-1.172-0.709-1.545-1.277C280.34,92.611,280.143,91.968,280.124,91.251z"/>
	<path d="M295.519,91.851l1.297,0.169c-0.143,0.894-0.505,1.593-1.088,2.099c-0.584,0.505-1.301,0.758-2.15,0.758
		c-1.064,0-1.92-0.348-2.566-1.044c-0.647-0.695-0.971-1.692-0.971-2.991c0-0.84,0.139-1.575,0.418-2.205
		c0.277-0.63,0.701-1.103,1.271-1.417c0.568-0.315,1.188-0.473,1.856-0.473c0.845,0,1.535,0.214,2.072,0.641
		c0.537,0.428,0.882,1.034,1.033,1.82l-1.281,0.198c-0.123-0.522-0.339-0.916-0.648-1.18c-0.311-0.264-0.686-0.396-1.125-0.396
		c-0.664,0-1.203,0.238-1.618,0.714c-0.415,0.477-0.622,1.229-0.622,2.26c0,1.045,0.199,1.805,0.6,2.277
		c0.4,0.475,0.924,0.711,1.568,0.711c0.517,0,0.949-0.158,1.296-0.477C295.207,92.999,295.426,92.511,295.519,91.851z"/>
	<path d="M297.453,90.812c0-1.44,0.4-2.508,1.201-3.201c0.669-0.576,1.484-0.864,2.446-0.864c1.069,0,1.943,0.351,2.622,1.051
		c0.679,0.701,1.018,1.669,1.018,2.904c0,1.001-0.149,1.788-0.45,2.362c-0.3,0.573-0.737,1.02-1.311,1.336
		c-0.574,0.317-1.2,0.477-1.879,0.477c-1.089,0-1.969-0.349-2.641-1.047C297.789,93.131,297.453,92.125,297.453,90.812z
		 M298.808,90.812c0,0.996,0.217,1.741,0.651,2.237c0.435,0.495,0.981,0.743,1.641,0.743c0.654,0,1.198-0.249,1.634-0.747
		c0.434-0.498,0.651-1.257,0.651-2.278c0-0.961-0.219-1.69-0.655-2.186c-0.438-0.496-0.98-0.744-1.63-0.744
		c-0.659,0-1.206,0.247-1.641,0.74S298.808,89.815,298.808,90.812z"/>
	<path d="M306.271,94.7v-7.778h1.186v1.179c0.303-0.551,0.583-0.915,0.839-1.091c0.257-0.176,0.538-0.264,0.847-0.264
		c0.443,0,0.896,0.142,1.354,0.425l-0.454,1.223c-0.322-0.189-0.645-0.285-0.967-0.285c-0.288,0-0.547,0.087-0.776,0.26
		c-0.229,0.174-0.394,0.414-0.491,0.722c-0.146,0.469-0.219,0.981-0.219,1.538V94.7H306.271z"/>
	<path d="M316.606,92.195l1.362,0.169c-0.215,0.796-0.613,1.413-1.193,1.853c-0.582,0.439-1.324,0.659-2.227,0.659
		c-1.139,0-2.04-0.351-2.707-1.051c-0.666-0.701-1-1.684-1-2.948c0-1.309,0.338-2.324,1.012-3.047s1.547-1.084,2.621-1.084
		c1.041,0,1.891,0.354,2.549,1.062c0.66,0.709,0.989,1.705,0.989,2.988c0,0.079-0.003,0.196-0.007,0.352h-5.801
		c0.048,0.855,0.29,1.51,0.725,1.963c0.435,0.455,0.977,0.682,1.626,0.682c0.483,0,0.896-0.127,1.237-0.381
		S316.406,92.752,316.606,92.195z M312.277,90.063h4.344c-0.059-0.653-0.225-1.145-0.498-1.472c-0.42-0.508-0.965-0.762-1.633-0.762
		c-0.606,0-1.115,0.203-1.527,0.608C312.549,88.844,312.322,89.386,312.277,90.063z"/>
</g>
<line class="st7" x1="127.547" y1="77.13" x2="127.547" y2="90.04"/>
<g>
	<path d="M111.893,98.863l2,0.634c-0.307,1.115-0.817,1.944-1.53,2.485c-0.713,0.541-1.618,0.812-2.715,0.812
		c-1.357,0-2.472-0.463-3.346-1.39c-0.874-0.928-1.31-2.195-1.31-3.803c0-1.701,0.439-3.021,1.317-3.963
		c0.878-0.94,2.033-1.411,3.464-1.411c1.25,0,2.266,0.369,3.046,1.108c0.464,0.437,0.813,1.064,1.045,1.882l-2.042,0.488
		c-0.121-0.53-0.373-0.948-0.756-1.255s-0.849-0.46-1.397-0.46c-0.757,0-1.372,0.271-1.844,0.815s-0.707,1.424-0.707,2.642
		c0,1.292,0.232,2.212,0.697,2.76c0.465,0.549,1.069,0.823,1.813,0.823c0.548,0,1.02-0.175,1.415-0.523
		S111.721,99.611,111.893,98.863z"/>
	<path d="M120.523,102.62v-1.108c-0.27,0.396-0.624,0.706-1.063,0.935c-0.439,0.228-0.903,0.341-1.391,0.341
		c-0.498,0-0.943-0.109-1.338-0.327c-0.395-0.219-0.681-0.525-0.857-0.92c-0.177-0.396-0.265-0.941-0.265-1.639v-4.684h1.958v3.401
		c0,1.041,0.036,1.679,0.108,1.913c0.072,0.235,0.204,0.421,0.394,0.558c0.19,0.138,0.432,0.206,0.725,0.206
		c0.335,0,0.634-0.092,0.899-0.275c0.265-0.184,0.446-0.411,0.543-0.684c0.098-0.271,0.146-0.938,0.146-1.996v-3.123h1.958v7.402
		H120.523z"/>
	<path d="M127.764,95.218v1.562h-1.338v2.983c0,0.604,0.013,0.956,0.038,1.056s0.083,0.183,0.174,0.247
		c0.091,0.065,0.201,0.098,0.331,0.098c0.181,0,0.444-0.063,0.788-0.188l0.167,1.52c-0.456,0.194-0.971,0.292-1.547,0.292
		c-0.354,0-0.672-0.059-0.955-0.178c-0.284-0.118-0.491-0.271-0.624-0.46c-0.132-0.188-0.224-0.442-0.275-0.763
		c-0.042-0.228-0.063-0.688-0.063-1.381v-3.227h-0.899v-1.562h0.899v-1.471l1.966-1.144v2.614H127.764z"/>
	<path d="M128.671,98.814c0-0.65,0.16-1.28,0.481-1.889c0.32-0.609,0.774-1.074,1.362-1.395s1.244-0.48,1.969-0.48
		c1.12,0,2.038,0.363,2.753,1.091c0.715,0.727,1.073,1.646,1.073,2.757c0,1.119-0.361,2.048-1.084,2.784s-1.632,1.104-2.729,1.104
		c-0.679,0-1.326-0.153-1.941-0.46s-1.084-0.756-1.404-1.349C128.831,100.386,128.671,99.665,128.671,98.814z M130.678,98.919
		c0,0.734,0.174,1.297,0.522,1.687c0.349,0.391,0.778,0.586,1.29,0.586s0.94-0.195,1.286-0.586c0.346-0.39,0.519-0.957,0.519-1.7
		c0-0.726-0.173-1.283-0.519-1.673c-0.346-0.391-0.775-0.586-1.286-0.586s-0.941,0.195-1.29,0.586
		C130.852,97.622,130.678,98.185,130.678,98.919z"/>
	<path d="M136.986,95.218h1.087V94.66c0-0.623,0.066-1.087,0.198-1.395c0.133-0.307,0.376-0.556,0.732-0.749
		c0.355-0.192,0.805-0.289,1.349-0.289c0.558,0,1.104,0.084,1.638,0.251l-0.265,1.366c-0.312-0.074-0.611-0.111-0.899-0.111
		c-0.283,0-0.487,0.065-0.61,0.198s-0.185,0.387-0.185,0.764v0.522h1.464v1.54h-1.464v5.862h-1.958v-5.862h-1.087V95.218z"/>
	<path d="M141.74,95.218h1.087V94.66c0-0.623,0.066-1.087,0.198-1.395c0.133-0.307,0.376-0.556,0.732-0.749
		c0.355-0.192,0.805-0.289,1.349-0.289c0.558,0,1.104,0.084,1.638,0.251l-0.265,1.366c-0.312-0.074-0.611-0.111-0.899-0.111
		c-0.283,0-0.487,0.065-0.61,0.198s-0.185,0.387-0.185,0.764v0.522h1.464v1.54h-1.464v5.862h-1.958v-5.862h-1.087V95.218z"/>
</g>
</svg>
