<?xml version="1.0" encoding="utf-8"?>
<!-- Generator: Adobe Illustrator 21.0.2, SVG Export Plug-In . SVG Version: 6.00 Build 0)  -->
<svg version="1.1" id="レイヤー_1" xmlns="http://www.w3.org/2000/svg" xmlns:xlink="http://www.w3.org/1999/xlink" x="0px"
	 y="0px" viewBox="0 0 789 377" style="enable-background:new 0 0 789 377;" xml:space="preserve">
<style type="text/css">
	.st0{fill-rule:evenodd;clip-rule:evenodd;fill:#D9D9D9;}
	.st1{fill:#7F7F7F;}
	.st2{fill:#595959;}
	.st3{fill-rule:evenodd;clip-rule:evenodd;fill:#BFBFBF;stroke:#4F81BD;stroke-miterlimit:10;}
	.st4{fill:none;stroke:#4F81BD;stroke-linejoin:round;stroke-miterlimit:10;}
	.st5{fill:#FFFFFF;}
	.st6{fill:#B5B5B5;}
	.st7{fill:#31859C;}
</style>
<path class="st0" d="M135.718,63.512c0-25.306,20.526-45.832,45.832-45.832h193.704c25.306,0,45.832,20.526,45.832,45.832v183.327
	c0,25.306-20.526,45.832-45.832,45.832H181.55c-25.306,0-45.832-20.526-45.832-45.832V63.512z"/>
<g>
	<path class="st1" d="M177.489,30.531h3.468l2.417,7.727l2.386-7.727h3.367l-3.987,10.737h-3.596L177.489,30.531z"/>
	<path class="st1" d="M192.731,36.01l-2.849-0.3c0.107-0.498,0.262-0.89,0.465-1.175c0.202-0.286,0.494-0.534,0.875-0.744
		c0.273-0.151,0.649-0.269,1.128-0.352s0.996-0.125,1.553-0.125c0.894,0,1.611,0.05,2.153,0.15s0.994,0.309,1.355,0.626
		c0.254,0.22,0.454,0.531,0.601,0.934c0.146,0.403,0.22,0.788,0.22,1.154v3.435c0,0.366,0.023,0.653,0.07,0.86
		c0.046,0.208,0.147,0.473,0.304,0.795h-2.798c-0.112-0.2-0.186-0.353-0.22-0.458c-0.034-0.104-0.068-0.27-0.103-0.494
		c-0.391,0.376-0.779,0.645-1.165,0.806c-0.527,0.215-1.14,0.322-1.838,0.322c-0.928,0-1.632-0.215-2.113-0.645
		s-0.721-0.959-0.721-1.589c0-0.591,0.173-1.077,0.52-1.458s0.986-0.664,1.919-0.85c1.118-0.225,1.843-0.382,2.175-0.473
		c0.332-0.09,0.684-0.208,1.055-0.355c0-0.366-0.076-0.623-0.227-0.769s-0.417-0.22-0.798-0.22c-0.488,0-0.854,0.078-1.099,0.234
		C193.002,35.443,192.848,35.673,192.731,36.01z M195.316,37.577c-0.41,0.146-0.837,0.276-1.282,0.388
		c-0.605,0.161-0.989,0.32-1.15,0.476c-0.166,0.161-0.249,0.344-0.249,0.549c0,0.234,0.082,0.426,0.246,0.575
		c0.163,0.149,0.404,0.224,0.721,0.224c0.332,0,0.641-0.081,0.926-0.242c0.286-0.161,0.488-0.357,0.608-0.589
		c0.119-0.232,0.179-0.534,0.179-0.905V37.577z"/>
	<path class="st1" d="M200.048,33.49h2.791v1.274c0.269-0.552,0.546-0.931,0.831-1.139c0.286-0.208,0.639-0.312,1.059-0.312
		c0.439,0,0.92,0.137,1.443,0.41l-0.923,2.124c-0.352-0.146-0.63-0.22-0.835-0.22c-0.391,0-0.693,0.161-0.908,0.483
		c-0.308,0.454-0.461,1.304-0.461,2.549v2.607h-2.996V33.49z"/>
	<path class="st1" d="M206.786,30.531h2.981v2.029h-2.981V30.531z M206.786,33.49h2.981v7.778h-2.981V33.49z"/>
	<path class="st1" d="M214.389,36.01l-2.849-0.3c0.107-0.498,0.262-0.89,0.465-1.175c0.202-0.286,0.494-0.534,0.875-0.744
		c0.273-0.151,0.649-0.269,1.128-0.352s0.996-0.125,1.553-0.125c0.894,0,1.611,0.05,2.153,0.15s0.994,0.309,1.355,0.626
		c0.254,0.22,0.454,0.531,0.601,0.934c0.146,0.403,0.22,0.788,0.22,1.154v3.435c0,0.366,0.023,0.653,0.07,0.86
		c0.046,0.208,0.147,0.473,0.304,0.795h-2.798c-0.112-0.2-0.186-0.353-0.22-0.458c-0.034-0.104-0.068-0.27-0.103-0.494
		c-0.391,0.376-0.779,0.645-1.165,0.806c-0.527,0.215-1.14,0.322-1.838,0.322c-0.928,0-1.632-0.215-2.113-0.645
		s-0.721-0.959-0.721-1.589c0-0.591,0.173-1.077,0.52-1.458s0.986-0.664,1.919-0.85c1.118-0.225,1.843-0.382,2.175-0.473
		c0.332-0.09,0.684-0.208,1.055-0.355c0-0.366-0.076-0.623-0.227-0.769s-0.417-0.22-0.798-0.22c-0.488,0-0.854,0.078-1.099,0.234
		C214.66,35.443,214.506,35.673,214.389,36.01z M216.974,37.577c-0.41,0.146-0.837,0.276-1.282,0.388
		c-0.605,0.161-0.989,0.32-1.15,0.476c-0.166,0.161-0.249,0.344-0.249,0.549c0,0.234,0.082,0.426,0.246,0.575
		c0.163,0.149,0.404,0.224,0.721,0.224c0.332,0,0.641-0.081,0.926-0.242c0.286-0.161,0.488-0.357,0.608-0.589
		c0.119-0.232,0.179-0.534,0.179-0.905V37.577z"/>
	<path class="st1" d="M221.691,30.531h3.01v3.721c0.298-0.313,0.636-0.547,1.015-0.703c0.378-0.156,0.797-0.234,1.256-0.234
		c0.947,0,1.731,0.341,2.351,1.021c0.62,0.682,0.93,1.659,0.93,2.934c0,0.85-0.142,1.598-0.425,2.245s-0.675,1.13-1.176,1.45
		c-0.5,0.319-1.056,0.479-1.666,0.479c-0.522,0-1.001-0.112-1.436-0.337c-0.327-0.176-0.684-0.505-1.069-0.989v1.15h-2.791V30.531z
		 M224.679,37.357c0,0.669,0.125,1.153,0.377,1.454c0.251,0.3,0.57,0.45,0.956,0.45c0.356,0,0.656-0.147,0.897-0.443
		c0.242-0.295,0.363-0.792,0.363-1.49c0-0.615-0.119-1.067-0.355-1.355c-0.237-0.288-0.524-0.432-0.861-0.432
		c-0.405,0-0.736,0.15-0.993,0.45C224.808,36.292,224.679,36.747,224.679,37.357z"/>
	<path class="st1" d="M231.784,30.531h2.988v10.737h-2.988V30.531z"/>
	<path class="st1" d="M245.312,38.119h-5.977c0.054,0.479,0.183,0.835,0.388,1.069c0.288,0.337,0.664,0.505,1.128,0.505
		c0.293,0,0.571-0.073,0.835-0.22c0.161-0.093,0.334-0.256,0.52-0.491l2.937,0.271c-0.449,0.781-0.991,1.342-1.626,1.681
		c-0.635,0.339-1.545,0.509-2.732,0.509c-1.03,0-1.841-0.146-2.432-0.436c-0.591-0.291-1.08-0.752-1.469-1.385
		c-0.388-0.632-0.582-1.375-0.582-2.23c0-1.216,0.389-2.2,1.168-2.952s1.854-1.128,3.227-1.128c1.113,0,1.992,0.168,2.637,0.505
		s1.135,0.825,1.472,1.465s0.505,1.472,0.505,2.498V38.119z M242.279,36.691c-0.059-0.576-0.214-0.989-0.465-1.238
		c-0.252-0.249-0.583-0.374-0.993-0.374c-0.474,0-0.852,0.188-1.135,0.564c-0.181,0.234-0.295,0.583-0.344,1.047H242.279z"/>
	<path class="st1" d="M246.125,30.531h10.085v2.651h-3.384v8.086h-3.318v-8.086h-3.384V30.531z"/>
	<path class="st1" d="M257.543,33.49h2.791v1.274c0.269-0.552,0.546-0.931,0.831-1.139c0.286-0.208,0.639-0.312,1.059-0.312
		c0.439,0,0.92,0.137,1.443,0.41l-0.923,2.124c-0.352-0.146-0.63-0.22-0.835-0.22c-0.391,0-0.693,0.161-0.908,0.483
		c-0.308,0.454-0.461,1.304-0.461,2.549v2.607h-2.996V33.49z"/>
	<path class="st1" d="M266.889,36.01l-2.849-0.3c0.107-0.498,0.262-0.89,0.465-1.175c0.202-0.286,0.494-0.534,0.875-0.744
		c0.273-0.151,0.649-0.269,1.128-0.352s0.996-0.125,1.553-0.125c0.894,0,1.611,0.05,2.153,0.15s0.994,0.309,1.355,0.626
		c0.254,0.22,0.454,0.531,0.601,0.934c0.146,0.403,0.22,0.788,0.22,1.154v3.435c0,0.366,0.023,0.653,0.07,0.86
		c0.046,0.208,0.147,0.473,0.304,0.795h-2.798c-0.112-0.2-0.186-0.353-0.22-0.458c-0.034-0.104-0.068-0.27-0.103-0.494
		c-0.391,0.376-0.779,0.645-1.165,0.806c-0.527,0.215-1.14,0.322-1.838,0.322c-0.928,0-1.632-0.215-2.113-0.645
		s-0.721-0.959-0.721-1.589c0-0.591,0.173-1.077,0.52-1.458s0.986-0.664,1.919-0.85c1.118-0.225,1.843-0.382,2.175-0.473
		c0.332-0.09,0.684-0.208,1.055-0.355c0-0.366-0.076-0.623-0.227-0.769s-0.417-0.22-0.798-0.22c-0.488,0-0.854,0.078-1.099,0.234
		C267.16,35.443,267.006,35.673,266.889,36.01z M269.474,37.577c-0.41,0.146-0.837,0.276-1.282,0.388
		c-0.605,0.161-0.989,0.32-1.15,0.476c-0.166,0.161-0.249,0.344-0.249,0.549c0,0.234,0.082,0.426,0.246,0.575
		c0.163,0.149,0.404,0.224,0.721,0.224c0.332,0,0.641-0.081,0.926-0.242c0.286-0.161,0.488-0.357,0.608-0.589
		c0.119-0.232,0.179-0.534,0.179-0.905V37.577z"/>
	<path class="st1" d="M274.176,33.49h2.776v1.267c0.415-0.518,0.835-0.887,1.26-1.11c0.425-0.222,0.942-0.333,1.553-0.333
		c0.825,0,1.471,0.245,1.938,0.736c0.466,0.49,0.699,1.249,0.699,2.274v4.944h-2.996v-4.277c0-0.488-0.09-0.833-0.271-1.036
		s-0.435-0.304-0.762-0.304c-0.361,0-0.654,0.137-0.879,0.41s-0.337,0.764-0.337,1.472v3.735h-2.981V33.49z"/>
	<path class="st1" d="M283.654,39.108l2.959-0.278c0.122,0.352,0.293,0.603,0.513,0.754s0.513,0.227,0.879,0.227
		c0.4,0,0.71-0.085,0.93-0.256c0.171-0.127,0.256-0.285,0.256-0.476c0-0.214-0.112-0.38-0.337-0.497
		c-0.161-0.083-0.588-0.185-1.282-0.307c-1.035-0.181-1.754-0.348-2.157-0.501c-0.402-0.153-0.742-0.413-1.018-0.779
		c-0.276-0.366-0.414-0.783-0.414-1.251c0-0.512,0.149-0.954,0.447-1.324s0.708-0.647,1.23-0.831
		c0.522-0.183,1.223-0.274,2.102-0.274c0.928,0,1.612,0.071,2.055,0.212c0.441,0.142,0.81,0.361,1.105,0.659
		s0.541,0.701,0.736,1.208l-2.827,0.278c-0.073-0.249-0.195-0.432-0.366-0.549c-0.234-0.156-0.518-0.234-0.85-0.234
		c-0.337,0-0.582,0.06-0.736,0.179c-0.153,0.12-0.23,0.265-0.23,0.435c0,0.19,0.098,0.334,0.293,0.432
		c0.195,0.097,0.62,0.185,1.274,0.263c0.991,0.112,1.729,0.268,2.212,0.468s0.854,0.485,1.109,0.856
		c0.257,0.371,0.385,0.778,0.385,1.222c0,0.449-0.136,0.885-0.406,1.31c-0.271,0.424-0.699,0.762-1.282,1.013
		c-0.583,0.251-1.378,0.377-2.384,0.377c-1.421,0-2.433-0.203-3.036-0.608S283.825,39.855,283.654,39.108z"/>
	<path class="st1" d="M296.662,33.49h1.421v2.183h-1.421v5.596h-2.988v-5.596h-1.113V33.49h1.113v-0.352
		c0-0.317,0.034-0.667,0.103-1.047s0.196-0.692,0.385-0.934c0.188-0.241,0.451-0.437,0.791-0.586
		c0.339-0.148,0.836-0.223,1.49-0.223c0.522,0,1.282,0.061,2.278,0.183l-0.33,1.802c-0.356-0.059-0.645-0.088-0.864-0.088
		c-0.269,0-0.461,0.045-0.579,0.136s-0.2,0.233-0.249,0.428C296.674,32.917,296.662,33.144,296.662,33.49z"/>
	<path class="st1" d="M298.815,37.401c0-1.187,0.4-2.164,1.201-2.934c0.801-0.769,1.882-1.153,3.245-1.153
		c1.558,0,2.734,0.452,3.53,1.355c0.64,0.728,0.959,1.624,0.959,2.688c0,1.196-0.397,2.177-1.19,2.94
		c-0.794,0.765-1.891,1.146-3.292,1.146c-1.25,0-2.261-0.317-3.032-0.952C299.289,39.706,298.815,38.676,298.815,37.401z
		 M301.803,37.394c0,0.693,0.14,1.206,0.421,1.538c0.28,0.332,0.633,0.498,1.058,0.498c0.43,0,0.782-0.164,1.058-0.491
		s0.414-0.852,0.414-1.575c0-0.674-0.139-1.175-0.417-1.505c-0.278-0.329-0.623-0.494-1.033-0.494c-0.435,0-0.793,0.167-1.077,0.502
		S301.803,36.71,301.803,37.394z"/>
	<path class="st1" d="M309.215,33.49h2.791v1.274c0.269-0.552,0.546-0.931,0.831-1.139c0.286-0.208,0.639-0.312,1.059-0.312
		c0.439,0,0.92,0.137,1.443,0.41l-0.923,2.124c-0.352-0.146-0.63-0.22-0.835-0.22c-0.391,0-0.693,0.161-0.908,0.483
		c-0.308,0.454-0.461,1.304-0.461,2.549v2.607h-2.996V33.49z"/>
	<path class="st1" d="M315.866,33.49h2.783v1.135c0.401-0.474,0.806-0.811,1.214-1.011s0.901-0.3,1.478-0.3
		c0.621,0,1.112,0.11,1.474,0.33s0.658,0.547,0.887,0.981c0.469-0.508,0.895-0.853,1.281-1.037c0.385-0.183,0.859-0.274,1.426-0.274
		c0.834,0,1.484,0.248,1.953,0.743c0.467,0.496,0.701,1.271,0.701,2.326v4.885h-2.988v-4.431c0-0.352-0.068-0.613-0.203-0.784
		c-0.201-0.269-0.449-0.403-0.746-0.403c-0.35,0-0.631,0.127-0.846,0.381s-0.322,0.662-0.322,1.223v4.014h-2.987v-4.285
		c0-0.342-0.02-0.574-0.059-0.696c-0.064-0.195-0.174-0.353-0.331-0.473c-0.157-0.119-0.34-0.179-0.551-0.179
		c-0.343,0-0.625,0.129-0.845,0.388c-0.22,0.259-0.331,0.684-0.331,1.274v3.97h-2.988V33.49z"/>
	<path class="st1" d="M333.561,36.01l-2.849-0.3c0.106-0.498,0.262-0.89,0.465-1.175c0.202-0.286,0.494-0.534,0.875-0.744
		c0.273-0.151,0.649-0.269,1.128-0.352s0.996-0.125,1.553-0.125c0.894,0,1.611,0.05,2.153,0.15s0.993,0.309,1.355,0.626
		c0.253,0.22,0.453,0.531,0.6,0.934c0.146,0.403,0.221,0.788,0.221,1.154v3.435c0,0.366,0.022,0.653,0.069,0.86
		c0.046,0.208,0.147,0.473,0.304,0.795h-2.798c-0.112-0.2-0.186-0.353-0.22-0.458c-0.034-0.104-0.068-0.27-0.103-0.494
		c-0.391,0.376-0.779,0.645-1.165,0.806c-0.527,0.215-1.14,0.322-1.838,0.322c-0.928,0-1.632-0.215-2.113-0.645
		c-0.48-0.43-0.721-0.959-0.721-1.589c0-0.591,0.173-1.077,0.52-1.458s0.986-0.664,1.919-0.85c1.118-0.225,1.843-0.382,2.175-0.473
		c0.332-0.09,0.684-0.208,1.055-0.355c0-0.366-0.075-0.623-0.227-0.769s-0.418-0.22-0.799-0.22c-0.488,0-0.854,0.078-1.098,0.234
		C333.831,35.443,333.678,35.673,333.561,36.01z M336.146,37.577c-0.41,0.146-0.837,0.276-1.281,0.388
		c-0.605,0.161-0.988,0.32-1.15,0.476c-0.166,0.161-0.248,0.344-0.248,0.549c0,0.234,0.081,0.426,0.245,0.575
		c0.163,0.149,0.403,0.224,0.722,0.224c0.331,0,0.641-0.081,0.926-0.242c0.286-0.161,0.488-0.357,0.608-0.589
		c0.119-0.232,0.179-0.534,0.179-0.905V37.577z"/>
	<path class="st1" d="M344.444,30.531v2.959h1.641v2.183h-1.641v2.756c0,0.331,0.031,0.551,0.095,0.658
		c0.098,0.166,0.269,0.249,0.514,0.249c0.219,0,0.527-0.063,0.922-0.19l0.221,2.058c-0.738,0.161-1.427,0.242-2.066,0.242
		c-0.742,0-1.289-0.095-1.641-0.285c-0.352-0.19-0.611-0.479-0.779-0.867c-0.169-0.388-0.253-1.016-0.253-1.884v-2.736h-1.099V33.49
		h1.099v-1.428L344.444,30.531z"/>
	<path class="st1" d="M347.615,30.531h2.981v2.029h-2.981V30.531z M347.615,33.49h2.981v7.778h-2.981V33.49z"/>
	<path class="st1" d="M352.135,37.401c0-1.187,0.399-2.164,1.201-2.934c0.8-0.769,1.882-1.153,3.244-1.153
		c1.558,0,2.734,0.452,3.53,1.355c0.64,0.728,0.96,1.624,0.96,2.688c0,1.196-0.397,2.177-1.19,2.94
		c-0.794,0.765-1.892,1.146-3.292,1.146c-1.251,0-2.262-0.317-3.033-0.952C352.607,39.706,352.135,38.676,352.135,37.401z
		 M355.123,37.394c0,0.693,0.14,1.206,0.421,1.538c0.28,0.332,0.634,0.498,1.058,0.498c0.43,0,0.783-0.164,1.059-0.491
		c0.276-0.327,0.414-0.852,0.414-1.575c0-0.674-0.139-1.175-0.418-1.505c-0.277-0.329-0.622-0.494-1.032-0.494
		c-0.435,0-0.794,0.167-1.077,0.502S355.123,36.71,355.123,37.394z"/>
	<path class="st1" d="M362.505,33.49h2.776v1.267c0.415-0.518,0.835-0.887,1.26-1.11c0.425-0.222,0.942-0.333,1.553-0.333
		c0.825,0,1.471,0.245,1.938,0.736c0.466,0.49,0.699,1.249,0.699,2.274v4.944h-2.995v-4.277c0-0.488-0.091-0.833-0.271-1.036
		s-0.435-0.304-0.762-0.304c-0.361,0-0.654,0.137-0.879,0.41s-0.337,0.764-0.337,1.472v3.735h-2.981V33.49z"/>
	<path class="st1" d="M371.982,39.108l2.959-0.278c0.122,0.352,0.293,0.603,0.514,0.754c0.219,0.151,0.512,0.227,0.879,0.227
		c0.399,0,0.71-0.085,0.93-0.256c0.171-0.127,0.256-0.285,0.256-0.476c0-0.214-0.112-0.38-0.336-0.497
		c-0.162-0.083-0.589-0.185-1.282-0.307c-1.035-0.181-1.754-0.348-2.157-0.501c-0.402-0.153-0.742-0.413-1.018-0.779
		c-0.276-0.366-0.414-0.783-0.414-1.251c0-0.512,0.148-0.954,0.447-1.324c0.297-0.371,0.707-0.647,1.23-0.831
		c0.521-0.183,1.223-0.274,2.102-0.274c0.928,0,1.612,0.071,2.055,0.212c0.441,0.142,0.811,0.361,1.105,0.659
		c0.296,0.298,0.541,0.701,0.736,1.208l-2.827,0.278c-0.073-0.249-0.195-0.432-0.366-0.549c-0.234-0.156-0.518-0.234-0.85-0.234
		c-0.337,0-0.582,0.06-0.736,0.179c-0.153,0.12-0.23,0.265-0.23,0.435c0,0.19,0.098,0.334,0.293,0.432
		c0.195,0.097,0.62,0.185,1.274,0.263c0.991,0.112,1.729,0.268,2.212,0.468s0.854,0.485,1.109,0.856
		c0.257,0.371,0.385,0.778,0.385,1.222c0,0.449-0.136,0.885-0.406,1.31c-0.271,0.424-0.698,0.762-1.282,1.013
		c-0.583,0.251-1.378,0.377-2.384,0.377c-1.421,0-2.433-0.203-3.036-0.608C372.541,40.431,372.153,39.855,371.982,39.108z"/>
</g>
<g>
	<path class="st2" d="M440.295,70.581h9.413v2.475h-3.158v7.547h-3.097v-7.547h-3.158V70.581z"/>
	<path class="st2" d="M451.15,80.602V70.581h5.161c0.957,0,1.688,0.082,2.194,0.246s0.914,0.468,1.224,0.913
		s0.465,0.985,0.465,1.624c0,0.556-0.118,1.036-0.355,1.439s-0.563,0.73-0.979,0.981c-0.265,0.16-0.627,0.292-1.087,0.396
		c0.368,0.123,0.637,0.247,0.806,0.37c0.114,0.082,0.279,0.257,0.495,0.527c0.217,0.269,0.361,0.477,0.434,0.623l1.5,2.904h-3.499
		l-1.655-3.063c-0.21-0.396-0.396-0.654-0.561-0.772c-0.224-0.155-0.477-0.232-0.759-0.232h-0.273v4.067H451.15z M454.261,74.641
		h1.306c0.142,0,0.415-0.045,0.82-0.137c0.205-0.041,0.373-0.146,0.502-0.314c0.131-0.168,0.195-0.362,0.195-0.581
		c0-0.324-0.103-0.572-0.308-0.745s-0.59-0.26-1.155-0.26h-1.36V74.641z"/>
	<path class="st2" d="M468.16,78.948h-3.516l-0.488,1.654h-3.162l3.767-10.021h3.378l3.766,10.021h-3.243L468.16,78.948z
		 M467.518,76.781l-1.106-3.603l-1.094,3.603H467.518z"/>
	<path class="st2" d="M473.012,70.581h3.104v10.021h-3.104V70.581z"/>
	<path class="st2" d="M478.357,70.581h2.892l3.773,5.544v-5.544h2.919v10.021h-2.919L481.27,75.1v5.502h-2.912V70.581z"/>
</g>
<g>
	<path class="st2" d="M439.415,87.899h4.072l1.571,6.098l1.559-6.098h4.07v10.021h-2.536v-7.643l-1.954,7.643h-2.296l-1.95-7.643
		v7.643h-2.536V87.899z"/>
	<path class="st2" d="M452.273,92.917c0-1.636,0.456-2.91,1.367-3.821s2.181-1.367,3.808-1.367c1.668,0,2.953,0.448,3.855,1.343
		s1.354,2.15,1.354,3.763c0,1.171-0.197,2.132-0.592,2.881c-0.394,0.75-0.963,1.333-1.709,1.75
		c-0.744,0.417-1.673,0.625-2.785,0.625c-1.13,0-2.065-0.18-2.807-0.54c-0.74-0.36-1.341-0.93-1.801-1.709
		S452.273,94.088,452.273,92.917z M455.37,92.931c0,1.012,0.188,1.739,0.564,2.181c0.375,0.442,0.887,0.663,1.534,0.663
		c0.665,0,1.181-0.216,1.545-0.649s0.547-1.21,0.547-2.331c0-0.943-0.19-1.633-0.571-2.068c-0.38-0.435-0.896-0.653-1.548-0.653
		c-0.624,0-1.126,0.221-1.504,0.663S455.37,91.91,455.37,92.931z"/>
	<path class="st2" d="M464.366,87.899h4.601c0.907,0,1.64,0.123,2.198,0.369c0.558,0.246,1.02,0.599,1.384,1.06
		s0.629,0.996,0.793,1.606s0.246,1.258,0.246,1.941c0,1.071-0.122,1.901-0.366,2.492c-0.243,0.59-0.582,1.084-1.015,1.483
		s-0.897,0.664-1.395,0.796c-0.679,0.182-1.294,0.273-1.846,0.273h-4.601V87.899z M467.463,90.169v5.476h0.759
		c0.647,0,1.107-0.072,1.381-0.215s0.487-0.394,0.643-0.752s0.232-0.938,0.232-1.74c0-1.062-0.173-1.789-0.52-2.181
		s-0.921-0.588-1.723-0.588H467.463z"/>
	<path class="st2" d="M475.208,87.899h8.299v2.14h-5.195v1.593h4.819v2.044h-4.819v1.976h5.346v2.27h-8.449V87.899z"/>
	<path class="st2" d="M485.325,87.899h3.097v7.554h4.833v2.468h-7.93V87.899z"/>
</g>
<rect x="17.68" y="104.587" class="st3" width="96.852" height="57.938"/>
<path class="st4" d="M17.68,111.829h96.852 M29.786,104.587v57.938"/>
<g>
	<path class="st5" d="M34.027,116.94h9.413v2.475h-3.158v7.547h-3.097v-7.547h-3.158V116.94z"/>
	<path class="st5" d="M44.882,126.962V116.94h5.161c0.957,0,1.688,0.082,2.194,0.246s0.914,0.468,1.224,0.913
		s0.465,0.985,0.465,1.624c0,0.556-0.119,1.036-0.355,1.439c-0.237,0.403-0.563,0.73-0.979,0.981
		c-0.264,0.16-0.627,0.292-1.087,0.396c0.369,0.123,0.638,0.247,0.806,0.37c0.114,0.082,0.279,0.257,0.495,0.527
		c0.216,0.269,0.361,0.477,0.434,0.623l1.5,2.904h-3.499l-1.655-3.063c-0.209-0.396-0.396-0.654-0.561-0.772
		c-0.223-0.155-0.476-0.232-0.759-0.232h-0.273v4.067H44.882z M47.993,121.001h1.306c0.141,0,0.415-0.045,0.82-0.137
		c0.205-0.041,0.373-0.146,0.502-0.314s0.195-0.362,0.195-0.581c0-0.324-0.103-0.572-0.308-0.745s-0.59-0.26-1.155-0.26h-1.36
		V121.001z"/>
	<path class="st5" d="M61.892,125.308h-3.516l-0.489,1.654h-3.162l3.767-10.021h3.378l3.766,10.021h-3.243L61.892,125.308z
		 M61.25,123.141l-1.106-3.603l-1.095,3.603H61.25z"/>
	<path class="st5" d="M66.744,116.94h3.104v10.021h-3.104V116.94z"/>
	<path class="st5" d="M72.089,116.94h2.892l3.773,5.544v-5.544h2.919v10.021h-2.919l-3.753-5.502v5.502h-2.912V116.94z"/>
	<path class="st5" d="M83.854,116.94h3.104v10.021h-3.104V116.94z"/>
	<path class="st5" d="M89.2,116.94h2.892l3.773,5.544v-5.544h2.919v10.021h-2.919l-3.753-5.502v5.502H89.2V116.94z"/>
	<path class="st5" d="M105.879,123.332v-2.085h4.785v4.272c-0.916,0.625-1.726,1.049-2.43,1.275s-1.539,0.338-2.505,0.338
		c-1.189,0-2.159-0.203-2.909-0.608s-1.331-1.009-1.743-1.812s-0.619-1.723-0.619-2.762c0-1.094,0.226-2.045,0.677-2.854
		s1.112-1.423,1.982-1.842c0.679-0.324,1.593-0.485,2.741-0.485c1.107,0,1.936,0.1,2.485,0.301s1.005,0.512,1.367,0.933
		s0.635,0.956,0.817,1.603l-2.987,0.533c-0.123-0.378-0.332-0.667-0.625-0.868s-0.669-0.301-1.125-0.301
		c-0.679,0-1.22,0.236-1.624,0.708s-0.605,1.218-0.605,2.239c0,1.084,0.204,1.859,0.612,2.324s0.977,0.697,1.706,0.697
		c0.346,0,0.677-0.05,0.991-0.15s0.674-0.271,1.08-0.513v-0.943H105.879z"/>
	<path class="st5" d="M39.239,138.646l2.946-0.185c0.064,0.479,0.194,0.843,0.39,1.094c0.319,0.406,0.775,0.608,1.367,0.608
		c0.442,0,0.783-0.104,1.022-0.311s0.359-0.448,0.359-0.721c0-0.26-0.114-0.492-0.342-0.697s-0.756-0.399-1.586-0.581
		c-1.358-0.305-2.327-0.711-2.905-1.217c-0.583-0.506-0.875-1.151-0.875-1.935c0-0.515,0.149-1.001,0.448-1.459
		s0.748-0.818,1.347-1.08s1.421-0.393,2.464-0.393c1.281,0,2.257,0.238,2.929,0.714s1.072,1.234,1.2,2.273l-2.919,0.171
		c-0.078-0.451-0.24-0.779-0.489-0.984s-0.591-0.308-1.029-0.308c-0.36,0-0.631,0.076-0.813,0.229s-0.273,0.338-0.273,0.557
		c0,0.16,0.075,0.303,0.226,0.431c0.146,0.132,0.492,0.255,1.039,0.369c1.354,0.292,2.323,0.587,2.909,0.885
		s1.012,0.669,1.278,1.111s0.4,0.937,0.4,1.483c0,0.643-0.178,1.235-0.533,1.777s-0.852,0.954-1.49,1.234s-1.442,0.42-2.413,0.42
		c-1.705,0-2.885-0.328-3.541-0.984S39.326,139.658,39.239,138.646z"/>
	<path class="st5" d="M57.765,139.022h-5.578c0.05,0.447,0.171,0.779,0.362,0.998c0.269,0.314,0.62,0.472,1.053,0.472
		c0.273,0,0.533-0.068,0.779-0.205c0.15-0.086,0.312-0.239,0.485-0.458l2.741,0.253c-0.419,0.729-0.925,1.252-1.518,1.569
		s-1.442,0.475-2.55,0.475c-0.961,0-1.718-0.136-2.27-0.407s-1.008-0.702-1.371-1.292s-0.543-1.284-0.543-2.082
		c0-1.135,0.363-2.053,1.09-2.755s1.73-1.053,3.011-1.053c1.039,0,1.859,0.157,2.461,0.472s1.06,0.77,1.374,1.367
		s0.472,1.374,0.472,2.331V139.022z M54.935,137.689c-0.055-0.538-0.199-0.923-0.434-1.155s-0.543-0.349-0.926-0.349
		c-0.442,0-0.795,0.175-1.06,0.526c-0.168,0.219-0.276,0.544-0.321,0.978H54.935z"/>
	<path class="st5" d="M59.139,131.94h2.789v10.021h-2.789V131.94z"/>
	<path class="st5" d="M71.765,139.022h-5.578c0.05,0.447,0.171,0.779,0.362,0.998c0.269,0.314,0.62,0.472,1.053,0.472
		c0.273,0,0.533-0.068,0.779-0.205c0.15-0.086,0.312-0.239,0.485-0.458l2.741,0.253c-0.419,0.729-0.925,1.252-1.518,1.569
		s-1.442,0.475-2.55,0.475c-0.961,0-1.718-0.136-2.27-0.407s-1.008-0.702-1.371-1.292s-0.543-1.284-0.543-2.082
		c0-1.135,0.363-2.053,1.09-2.755s1.73-1.053,3.011-1.053c1.039,0,1.859,0.157,2.461,0.472s1.06,0.77,1.374,1.367
		s0.472,1.374,0.472,2.331V139.022z M68.935,137.689c-0.055-0.538-0.199-0.923-0.434-1.155s-0.543-0.349-0.926-0.349
		c-0.442,0-0.795,0.175-1.06,0.526c-0.168,0.219-0.276,0.544-0.321,0.978H68.935z"/>
	<path class="st5" d="M78.457,139.118l2.646,0.301c-0.146,0.551-0.385,1.029-0.718,1.432s-0.758,0.717-1.275,0.94
		s-1.175,0.335-1.972,0.335c-0.77,0-1.412-0.072-1.924-0.215c-0.513-0.143-0.954-0.375-1.323-0.696
		c-0.369-0.321-0.659-0.698-0.868-1.13s-0.314-1.006-0.314-1.721c0-0.747,0.127-1.368,0.383-1.865
		c0.187-0.364,0.442-0.691,0.766-0.98s0.656-0.504,0.998-0.646c0.542-0.223,1.237-0.334,2.085-0.334c1.185,0,2.088,0.212,2.71,0.636
		s1.059,1.043,1.309,1.859l-2.618,0.349c-0.082-0.31-0.231-0.543-0.448-0.701s-0.507-0.236-0.872-0.236
		c-0.46,0-0.833,0.165-1.118,0.495c-0.285,0.33-0.427,0.829-0.427,1.498c0,0.596,0.141,1.048,0.424,1.358
		c0.283,0.309,0.643,0.464,1.08,0.464c0.365,0,0.671-0.093,0.919-0.28S78.334,139.505,78.457,139.118z"/>
	<path class="st5" d="M85.737,131.94v2.762h1.531v2.037h-1.531v2.572c0,0.309,0.03,0.514,0.089,0.614
		c0.091,0.155,0.25,0.232,0.479,0.232c0.205,0,0.492-0.059,0.861-0.177l0.205,1.92c-0.688,0.15-1.331,0.226-1.928,0.226
		c-0.693,0-1.203-0.089-1.531-0.266c-0.328-0.178-0.571-0.447-0.728-0.809s-0.236-0.948-0.236-1.758v-2.553h-1.025v-2.037h1.025
		v-1.333L85.737,131.94z"/>
	<path class="st5" d="M96.654,139.022h-5.578c0.05,0.447,0.171,0.779,0.362,0.998c0.269,0.314,0.62,0.472,1.053,0.472
		c0.273,0,0.533-0.068,0.779-0.205c0.15-0.086,0.312-0.239,0.485-0.458l2.741,0.253c-0.419,0.729-0.925,1.252-1.518,1.569
		s-1.442,0.475-2.55,0.475c-0.961,0-1.718-0.136-2.27-0.407s-1.008-0.702-1.371-1.292s-0.543-1.284-0.543-2.082
		c0-1.135,0.363-2.053,1.09-2.755s1.73-1.053,3.011-1.053c1.039,0,1.859,0.157,2.461,0.472s1.06,0.77,1.374,1.367
		s0.472,1.374,0.472,2.331V139.022z M93.824,137.689c-0.055-0.538-0.199-0.923-0.434-1.155s-0.543-0.349-0.926-0.349
		c-0.442,0-0.795,0.175-1.06,0.526c-0.168,0.219-0.276,0.544-0.321,0.978H93.824z"/>
	<path class="st5" d="M105.575,131.94v10.021h-2.604v-1.073c-0.365,0.456-0.697,0.763-0.998,0.923
		c-0.401,0.209-0.848,0.314-1.34,0.314c-0.989,0-1.744-0.376-2.266-1.128s-0.783-1.666-0.783-2.741c0-1.203,0.288-2.124,0.865-2.762
		s1.309-0.957,2.198-0.957c0.433,0,0.826,0.073,1.179,0.219s0.667,0.365,0.94,0.656v-3.473H105.575z M102.786,138.312
		c0-0.57-0.121-0.995-0.362-1.275s-0.547-0.42-0.916-0.42c-0.324,0-0.595,0.134-0.813,0.403s-0.328,0.72-0.328,1.354
		c0,0.592,0.113,1.026,0.338,1.302s0.505,0.414,0.837,0.414c0.355,0,0.652-0.139,0.889-0.417S102.786,138.94,102.786,138.312z"/>
	<path class="st5" d="M36.467,146.94h3.237l2.255,7.212l2.227-7.212h3.143l-3.721,10.021h-3.356L36.467,146.94z"/>
	<path class="st5" d="M50.693,152.054l-2.659-0.28c0.1-0.465,0.245-0.831,0.434-1.097c0.189-0.268,0.461-0.498,0.817-0.694
		c0.255-0.141,0.606-0.25,1.053-0.328s0.93-0.116,1.449-0.116c0.834,0,1.504,0.047,2.01,0.14c0.506,0.094,0.927,0.289,1.265,0.585
		c0.237,0.205,0.424,0.496,0.561,0.871c0.137,0.377,0.205,0.735,0.205,1.077v3.206c0,0.342,0.021,0.609,0.065,0.803
		c0.043,0.194,0.138,0.441,0.284,0.742h-2.611c-0.105-0.187-0.173-0.329-0.205-0.428c-0.032-0.098-0.064-0.251-0.096-0.461
		c-0.365,0.351-0.727,0.602-1.087,0.752c-0.492,0.2-1.064,0.301-1.716,0.301c-0.866,0-1.523-0.2-1.972-0.602
		s-0.673-0.896-0.673-1.483c0-0.552,0.162-1.005,0.485-1.36s0.92-0.62,1.791-0.793c1.043-0.21,1.72-0.356,2.03-0.441
		c0.31-0.084,0.638-0.194,0.984-0.331c0-0.342-0.071-0.581-0.212-0.718s-0.39-0.205-0.745-0.205c-0.456,0-0.797,0.073-1.025,0.219
		C50.946,151.525,50.802,151.739,50.693,152.054z M53.106,153.517c-0.383,0.137-0.782,0.258-1.196,0.362
		c-0.565,0.15-0.923,0.299-1.073,0.444c-0.155,0.15-0.232,0.321-0.232,0.513c0,0.219,0.076,0.397,0.229,0.536
		c0.153,0.14,0.377,0.209,0.673,0.209c0.31,0,0.598-0.075,0.865-0.226s0.456-0.334,0.567-0.55c0.112-0.217,0.167-0.498,0.167-0.845
		V153.517z"/>
	<path class="st5" d="M57.522,149.702h2.604v1.189c0.25-0.515,0.509-0.869,0.776-1.063c0.267-0.193,0.596-0.29,0.988-0.29
		c0.41,0,0.859,0.128,1.347,0.383l-0.861,1.982c-0.328-0.137-0.588-0.205-0.779-0.205c-0.365,0-0.647,0.15-0.848,0.451
		c-0.287,0.424-0.431,1.217-0.431,2.379v2.434h-2.796V149.702z"/>
	<path class="st5" d="M63.811,146.94h2.782v1.894h-2.782V146.94z M63.811,149.702h2.782v7.26h-2.782V149.702z"/>
	<path class="st5" d="M70.907,152.054l-2.659-0.28c0.1-0.465,0.245-0.831,0.434-1.097c0.189-0.268,0.461-0.498,0.817-0.694
		c0.255-0.141,0.606-0.25,1.053-0.328s0.93-0.116,1.449-0.116c0.834,0,1.504,0.047,2.01,0.14c0.506,0.094,0.927,0.289,1.265,0.585
		c0.237,0.205,0.424,0.496,0.561,0.871c0.137,0.377,0.205,0.735,0.205,1.077v3.206c0,0.342,0.021,0.609,0.065,0.803
		c0.043,0.194,0.138,0.441,0.284,0.742h-2.611c-0.105-0.187-0.173-0.329-0.205-0.428c-0.032-0.098-0.064-0.251-0.096-0.461
		c-0.365,0.351-0.727,0.602-1.087,0.752c-0.492,0.2-1.064,0.301-1.716,0.301c-0.866,0-1.523-0.2-1.972-0.602
		s-0.673-0.896-0.673-1.483c0-0.552,0.162-1.005,0.485-1.36s0.92-0.62,1.791-0.793c1.043-0.21,1.72-0.356,2.03-0.441
		c0.31-0.084,0.638-0.194,0.984-0.331c0-0.342-0.071-0.581-0.212-0.718s-0.39-0.205-0.745-0.205c-0.456,0-0.797,0.073-1.025,0.219
		C71.16,151.525,71.016,151.739,70.907,152.054z M73.32,153.517c-0.383,0.137-0.782,0.258-1.196,0.362
		c-0.565,0.15-0.923,0.299-1.073,0.444c-0.155,0.15-0.232,0.321-0.232,0.513c0,0.219,0.076,0.397,0.229,0.536
		c0.153,0.14,0.377,0.209,0.673,0.209c0.31,0,0.598-0.075,0.865-0.226s0.456-0.334,0.567-0.55c0.112-0.217,0.167-0.498,0.167-0.845
		V153.517z"/>
	<path class="st5" d="M77.722,146.94h2.81v3.473c0.278-0.292,0.594-0.511,0.947-0.656s0.744-0.219,1.172-0.219
		c0.884,0,1.616,0.317,2.194,0.953c0.579,0.637,0.868,1.549,0.868,2.738c0,0.793-0.132,1.491-0.396,2.096
		c-0.264,0.604-0.63,1.055-1.097,1.354c-0.467,0.298-0.985,0.447-1.555,0.447c-0.488,0-0.934-0.104-1.34-0.314
		c-0.305-0.164-0.638-0.472-0.998-0.923v1.073h-2.604V146.94z M80.511,153.312c0,0.624,0.117,1.076,0.352,1.357
		c0.235,0.279,0.532,0.42,0.892,0.42c0.333,0,0.612-0.138,0.837-0.414c0.226-0.275,0.338-0.739,0.338-1.391
		c0-0.574-0.11-0.996-0.332-1.265s-0.489-0.403-0.803-0.403c-0.378,0-0.687,0.141-0.926,0.42
		C80.631,152.317,80.511,152.742,80.511,153.312z"/>
	<path class="st5" d="M87.142,146.94h2.789v10.021h-2.789V146.94z"/>
	<path class="st5" d="M99.768,154.022H94.19c0.05,0.446,0.171,0.779,0.362,0.998c0.269,0.314,0.62,0.472,1.053,0.472
		c0.273,0,0.533-0.068,0.779-0.205c0.15-0.087,0.312-0.239,0.485-0.458l2.741,0.253c-0.419,0.729-0.925,1.252-1.518,1.569
		c-0.592,0.316-1.442,0.475-2.55,0.475c-0.961,0-1.718-0.136-2.27-0.406c-0.551-0.271-1.008-0.702-1.371-1.293
		c-0.362-0.59-0.543-1.283-0.543-2.081c0-1.135,0.363-2.053,1.09-2.755s1.73-1.053,3.011-1.053c1.039,0,1.859,0.157,2.461,0.472
		s1.06,0.771,1.374,1.367s0.472,1.374,0.472,2.331V154.022z M96.938,152.689c-0.055-0.538-0.199-0.923-0.434-1.155
		s-0.543-0.349-0.926-0.349c-0.442,0-0.795,0.176-1.06,0.526c-0.168,0.219-0.276,0.545-0.321,0.978H96.938z"/>
	<path class="st5" d="M100.554,154.945l2.762-0.26c0.114,0.328,0.273,0.563,0.479,0.704s0.479,0.212,0.82,0.212
		c0.374,0,0.663-0.079,0.868-0.239c0.16-0.118,0.239-0.266,0.239-0.443c0-0.2-0.105-0.354-0.314-0.464
		c-0.15-0.077-0.549-0.173-1.196-0.287c-0.966-0.168-1.637-0.324-2.013-0.468s-0.693-0.386-0.95-0.727
		c-0.257-0.342-0.386-0.731-0.386-1.168c0-0.479,0.139-0.891,0.417-1.236s0.661-0.604,1.148-0.774
		c0.488-0.172,1.142-0.257,1.962-0.257c0.866,0,1.505,0.065,1.917,0.198s0.756,0.337,1.032,0.615s0.505,0.654,0.687,1.128
		l-2.639,0.26c-0.068-0.232-0.182-0.403-0.342-0.513c-0.219-0.146-0.483-0.219-0.793-0.219c-0.314,0-0.543,0.056-0.687,0.167
		s-0.215,0.247-0.215,0.406c0,0.178,0.091,0.312,0.273,0.402c0.182,0.092,0.579,0.174,1.189,0.246
		c0.925,0.104,1.613,0.251,2.064,0.438s0.796,0.453,1.036,0.799s0.359,0.726,0.359,1.141c0,0.419-0.126,0.826-0.379,1.222
		c-0.253,0.396-0.652,0.712-1.196,0.946s-1.286,0.352-2.225,0.352c-1.326,0-2.271-0.189-2.833-0.567
		S100.714,155.643,100.554,154.945z"/>
</g>
<rect x="17.68" y="301.75" class="st3" width="97.717" height="57.938"/>
<path class="st4" d="M17.68,308.992h97.717 M29.895,301.75v57.938"/>
<g>
	<path class="st5" d="M38.247,320.013h9.413v2.475h-3.158v7.547h-3.097v-7.547h-3.158V320.013z"/>
	<path class="st5" d="M49.054,320.013h8.299v2.14h-5.195v1.593h4.819v2.044h-4.819v1.976h5.346v2.27h-8.449V320.013z"/>
	<path class="st5" d="M58.631,326.719l2.946-0.185c0.064,0.479,0.194,0.843,0.39,1.094c0.319,0.405,0.775,0.608,1.367,0.608
		c0.442,0,0.783-0.104,1.022-0.312c0.239-0.207,0.359-0.447,0.359-0.721c0-0.26-0.114-0.492-0.342-0.697s-0.756-0.398-1.586-0.581
		c-1.358-0.306-2.327-0.711-2.905-1.217c-0.583-0.506-0.875-1.15-0.875-1.935c0-0.515,0.149-1.002,0.448-1.459
		c0.298-0.459,0.748-0.818,1.347-1.08c0.599-0.263,1.421-0.394,2.464-0.394c1.281,0,2.257,0.238,2.929,0.714
		c0.672,0.477,1.072,1.234,1.2,2.273L64.476,323c-0.078-0.451-0.24-0.779-0.489-0.984s-0.591-0.308-1.029-0.308
		c-0.36,0-0.631,0.076-0.813,0.229c-0.182,0.153-0.273,0.339-0.273,0.558c0,0.159,0.075,0.303,0.226,0.431
		c0.146,0.132,0.492,0.255,1.039,0.369c1.354,0.292,2.323,0.587,2.909,0.885c0.585,0.299,1.012,0.669,1.278,1.111
		s0.4,0.937,0.4,1.483c0,0.643-0.178,1.235-0.533,1.777s-0.852,0.954-1.49,1.233c-0.638,0.281-1.442,0.421-2.413,0.421
		c-1.705,0-2.885-0.328-3.541-0.984S58.718,327.73,58.631,326.719z"/>
	<path class="st5" d="M68.578,320.013h9.413v2.475h-3.158v7.547h-3.097v-7.547h-3.158V320.013z"/>
	<path class="st5" d="M79.515,320.013h3.104v10.021h-3.104V320.013z"/>
	<path class="st5" d="M84.861,320.013h2.892l3.773,5.544v-5.544h2.919v10.021h-2.919l-3.753-5.503v5.503h-2.912V320.013z"/>
	<path class="st5" d="M101.541,326.404v-2.085h4.785v4.272c-0.916,0.624-1.726,1.05-2.43,1.274
		c-0.704,0.227-1.539,0.339-2.505,0.339c-1.189,0-2.159-0.203-2.909-0.608s-1.331-1.01-1.743-1.812s-0.619-1.723-0.619-2.762
		c0-1.094,0.226-2.045,0.677-2.854c0.451-0.809,1.112-1.423,1.982-1.842c0.679-0.323,1.593-0.485,2.741-0.485
		c1.107,0,1.936,0.101,2.485,0.301s1.005,0.512,1.367,0.933c0.362,0.422,0.635,0.956,0.817,1.604l-2.987,0.533
		c-0.123-0.378-0.332-0.668-0.625-0.868s-0.669-0.301-1.125-0.301c-0.679,0-1.22,0.235-1.624,0.708
		c-0.403,0.471-0.605,1.218-0.605,2.238c0,1.085,0.204,1.859,0.612,2.324s0.977,0.697,1.706,0.697c0.346,0,0.677-0.05,0.991-0.15
		s0.674-0.271,1.08-0.513v-0.943H101.541z"/>
</g>
<g>
	<path class="st5" d="M53.506,335.603h3.237l2.255,7.212l2.227-7.212h3.143l-3.721,10.021h-3.356L53.506,335.603z"/>
	<path class="st5" d="M65.298,335.603h2.782v1.894h-2.782V335.603z M65.298,338.364h2.782v7.26h-2.782V338.364z"/>
	<path class="st5" d="M77.917,342.685h-5.578c0.05,0.446,0.171,0.779,0.362,0.998c0.269,0.314,0.62,0.472,1.053,0.472
		c0.273,0,0.533-0.068,0.779-0.205c0.15-0.087,0.312-0.239,0.485-0.458l2.741,0.253c-0.419,0.729-0.925,1.252-1.518,1.569
		c-0.592,0.316-1.442,0.475-2.55,0.475c-0.961,0-1.718-0.136-2.27-0.406c-0.551-0.271-1.008-0.702-1.371-1.293
		c-0.362-0.59-0.543-1.283-0.543-2.081c0-1.135,0.363-2.053,1.09-2.755s1.73-1.053,3.011-1.053c1.039,0,1.859,0.157,2.461,0.472
		s1.06,0.771,1.374,1.367s0.472,1.374,0.472,2.331V342.685z M75.087,341.352c-0.055-0.538-0.199-0.923-0.434-1.155
		s-0.543-0.349-0.926-0.349c-0.442,0-0.795,0.176-1.06,0.526c-0.168,0.219-0.276,0.545-0.321,0.978H75.087z"/>
	<path class="st5" d="M78.382,338.364h2.69l1.164,4.57l1.473-4.57h2.514l1.535,4.582l1.17-4.582h2.674l-2.674,7.26h-2.476
		l-1.471-4.368l-1.421,4.368h-2.487L78.382,338.364z"/>
</g>
<g>
	<path class="st6" d="M492.957,133.07L492.957,133.07c0-15.08-12.218-27.281-27.296-27.281c-15.064,0-27.281,12.201-27.281,27.281
		c0,15.063,12.217,27.296,27.281,27.296C480.739,160.366,492.957,148.133,492.957,133.07z"/>
	<path class="st5" d="M458.209,133.997L458.209,133.997l-1.231,1.839c-0.4-0.416-0.896-0.735-1.423-0.959l1.263-1.871
		C457.201,133.421,457.681,133.756,458.209,133.997z M467.274,125.281L467.274,125.281l1.264,1.871
		c0.384-0.416,0.863-0.752,1.392-0.976l-1.232-1.837C468.3,124.738,467.82,125.057,467.274,125.281z M462.877,127.025
		L462.877,127.025l1.168-1.744c-0.529-0.224-1.023-0.544-1.424-0.942l-1.183,1.773C461.982,126.321,462.462,126.626,462.877,127.025
		z M468.57,133.053L468.57,133.053l-1.264,1.839c0.546,0.224,1.025,0.561,1.409,0.959l1.262-1.837
		C469.451,133.788,468.971,133.453,468.57,133.053z M464.077,134.86L464.077,134.86l-1.168-1.758
		c-0.399,0.399-0.878,0.72-1.422,0.944l1.166,1.758C463.054,135.404,463.549,135.084,464.077,134.86z M475.766,134.877
		L475.766,134.877l-1.168-1.744c-0.399,0.399-0.895,0.72-1.439,0.927l1.2,1.776C474.76,135.421,475.24,135.101,475.766,134.877z
		 M465.661,118.149L465.661,118.149c-1.758,0-3.199,1.424-3.199,3.199c0,1.758,1.441,3.197,3.199,3.197
		c1.773,0,3.197-1.439,3.197-3.197C468.858,119.573,467.434,118.149,465.661,118.149z M457.137,138.827L457.137,138.827
		c0,1.758-1.439,3.197-3.198,3.197c-1.775,0-3.198-1.439-3.198-3.197c0-1.776,1.423-3.199,3.198-3.199
		C455.698,135.627,457.137,137.051,457.137,138.827z M480.579,138.827L480.579,138.827c0,1.758-1.422,3.197-3.197,3.197
		c-1.758,0-3.199-1.439-3.199-3.197c0-1.776,1.441-3.199,3.199-3.199C479.158,135.627,480.579,137.051,480.579,138.827z
		 M468.858,138.827L468.858,138.827c0,1.758-1.424,3.197-3.197,3.197c-1.758,0-3.199-1.439-3.199-3.197
		c0-1.776,1.441-3.199,3.199-3.199C467.434,135.627,468.858,137.051,468.858,138.827z M463.101,130.079L463.101,130.079
		c0,1.776-1.422,3.197-3.197,3.197c-1.759,0-3.198-1.422-3.198-3.197c0-1.758,1.439-3.197,3.198-3.197
		C461.679,126.882,463.101,128.321,463.101,130.079z M474.824,130.079L474.824,130.079c0,1.776-1.424,3.197-3.199,3.197
		c-1.759,0-3.197-1.422-3.197-3.197c0-1.758,1.439-3.197,3.197-3.197C473.4,126.882,474.824,128.321,474.824,130.079z"/>
</g>
<g>
	<path class="st6" d="M679.742,133.07L679.742,133.07c0-15.08-12.218-27.281-27.296-27.281c-15.064,0-27.281,12.201-27.281,27.281
		c0,15.063,12.217,27.296,27.281,27.296C667.525,160.366,679.742,148.133,679.742,133.07z"/>
	<path class="st5" d="M663.543,125.906L663.543,125.906c0.944-1.631,0.384-3.711-1.247-4.653c-1.631-0.944-3.726-0.384-4.67,1.247
		l-7.803,13.512l-2.895-3.453c-1.214-1.456-3.373-1.631-4.812-0.433c-1.439,1.215-1.631,3.374-0.416,4.813l6.029,7.181
		c1.215,1.455,3.357,1.631,4.813,0.432c0.303-0.272,0.558-0.576,0.75-0.928l0.017,0.016L663.543,125.906z"/>
</g>
<path class="st7" d="M236.197,125.774l15.565,7.783l-15.565,7.783V125.774z M212.681,130.962h26.111v5.188h-26.111V130.962z"/>
<path class="st7" d="M609.768,125.774l15.565,7.783l-15.565,7.783V125.774z M586.252,130.962h26.111v5.188h-26.111V130.962z"/>
<g>
	<path class="st2" d="M533.884,86.979l2.946-0.185c0.063,0.479,0.193,0.843,0.39,1.094c0.319,0.406,0.774,0.608,1.367,0.608
		c0.442,0,0.782-0.104,1.022-0.311c0.238-0.208,0.358-0.448,0.358-0.721c0-0.26-0.114-0.492-0.342-0.697s-0.757-0.399-1.586-0.581
		c-1.358-0.305-2.326-0.711-2.905-1.217c-0.583-0.506-0.875-1.151-0.875-1.935c0-0.515,0.149-1.001,0.447-1.459
		c0.299-0.458,0.748-0.818,1.348-1.08c0.599-0.262,1.42-0.393,2.464-0.393c1.28,0,2.257,0.238,2.929,0.714
		c0.673,0.476,1.072,1.234,1.2,2.273l-2.919,0.171c-0.077-0.451-0.24-0.779-0.488-0.984c-0.249-0.205-0.592-0.308-1.029-0.308
		c-0.36,0-0.631,0.076-0.813,0.229s-0.273,0.338-0.273,0.557c0,0.16,0.075,0.303,0.226,0.431c0.146,0.132,0.492,0.255,1.039,0.369
		c1.354,0.292,2.323,0.587,2.908,0.885c0.586,0.298,1.012,0.669,1.279,1.111c0.266,0.442,0.399,0.937,0.399,1.483
		c0,0.643-0.178,1.235-0.533,1.777s-0.853,0.954-1.49,1.234s-1.442,0.42-2.413,0.42c-1.704,0-2.885-0.328-3.541-0.984
		S533.971,87.99,533.884,86.979z"/>
	<path class="st2" d="M551.206,86.192l2.714,0.82c-0.183,0.761-0.47,1.397-0.861,1.907s-0.878,0.896-1.46,1.155
		c-0.58,0.26-1.32,0.39-2.218,0.39c-1.089,0-1.979-0.158-2.669-0.475c-0.691-0.316-1.287-0.874-1.788-1.67s-0.752-1.817-0.752-3.061
		c0-1.658,0.44-2.932,1.323-3.822c0.881-0.89,2.129-1.335,3.742-1.335c1.263,0,2.255,0.255,2.977,0.766
		c0.723,0.51,1.26,1.294,1.61,2.352l-2.734,0.608c-0.096-0.305-0.196-0.529-0.301-0.67c-0.173-0.237-0.385-0.419-0.636-0.547
		s-0.531-0.191-0.841-0.191c-0.702,0-1.239,0.282-1.613,0.847c-0.282,0.419-0.424,1.077-0.424,1.973
		c0,1.111,0.169,1.872,0.506,2.284c0.337,0.412,0.812,0.618,1.422,0.618c0.593,0,1.04-0.167,1.343-0.499
		C550.85,87.309,551.069,86.826,551.206,86.192z"/>
	<path class="st2" d="M555.034,85.29c0-1.636,0.456-2.91,1.367-3.821s2.181-1.367,3.808-1.367c1.668,0,2.953,0.448,3.855,1.343
		s1.354,2.15,1.354,3.763c0,1.171-0.197,2.132-0.592,2.881c-0.394,0.75-0.963,1.333-1.709,1.75
		c-0.744,0.417-1.673,0.625-2.785,0.625c-1.13,0-2.065-0.18-2.807-0.54c-0.74-0.36-1.341-0.93-1.801-1.709
		S555.034,86.461,555.034,85.29z M558.131,85.304c0,1.012,0.188,1.739,0.564,2.181c0.375,0.442,0.887,0.663,1.534,0.663
		c0.665,0,1.181-0.216,1.545-0.649s0.547-1.21,0.547-2.331c0-0.943-0.19-1.633-0.571-2.068c-0.38-0.435-0.896-0.653-1.548-0.653
		c-0.624,0-1.126,0.221-1.504,0.663S558.131,84.283,558.131,85.304z"/>
	<path class="st2" d="M567.127,90.294V80.272h5.161c0.957,0,1.688,0.082,2.194,0.246s0.914,0.468,1.224,0.913
		s0.465,0.985,0.465,1.624c0,0.556-0.118,1.036-0.355,1.439s-0.563,0.73-0.979,0.981c-0.265,0.16-0.627,0.292-1.087,0.396
		c0.368,0.123,0.637,0.247,0.806,0.37c0.114,0.082,0.279,0.257,0.495,0.527c0.217,0.269,0.361,0.477,0.434,0.623l1.5,2.904h-3.499
		l-1.655-3.063c-0.21-0.396-0.396-0.654-0.561-0.772c-0.224-0.155-0.477-0.232-0.759-0.232h-0.273v4.067H567.127z M570.237,84.333
		h1.306c0.142,0,0.415-0.045,0.82-0.137c0.205-0.041,0.373-0.146,0.502-0.314c0.131-0.168,0.195-0.362,0.195-0.581
		c0-0.324-0.103-0.572-0.308-0.745s-0.59-0.26-1.155-0.26h-1.36V84.333z"/>
	<path class="st2" d="M577.969,80.272h8.299v2.14h-5.195v1.593h4.819v2.044h-4.819v1.976h5.346v2.27h-8.449V80.272z"/>
</g>
<g>
	<path class="st2" d="M612.558,80.272h3.237l2.255,7.212l2.228-7.212h3.143l-3.721,10.021h-3.356L612.558,80.272z"/>
	<path class="st2" d="M630.593,88.64h-3.516l-0.488,1.654h-3.162l3.767-10.021h3.378l3.766,10.021h-3.243L630.593,88.64z
		 M629.95,86.473l-1.106-3.603l-1.094,3.603H629.95z"/>
	<path class="st2" d="M635.321,80.272h3.097v7.554h4.833v2.468h-7.93V80.272z"/>
	<path class="st2" d="M644.782,80.272h3.104v10.021h-3.104V80.272z"/>
	<path class="st2" d="M650.148,80.272h4.601c0.907,0,1.64,0.123,2.198,0.369c0.558,0.246,1.02,0.599,1.384,1.06
		s0.629,0.996,0.793,1.606s0.246,1.258,0.246,1.941c0,1.071-0.122,1.901-0.366,2.492c-0.243,0.59-0.582,1.084-1.015,1.483
		s-0.897,0.664-1.395,0.796c-0.679,0.182-1.294,0.273-1.846,0.273h-4.601V80.272z M653.245,82.542v5.476h0.759
		c0.647,0,1.107-0.072,1.381-0.215s0.487-0.394,0.643-0.752s0.232-0.938,0.232-1.74c0-1.062-0.173-1.789-0.52-2.181
		s-0.921-0.588-1.723-0.588H653.245z"/>
	<path class="st2" d="M667.158,88.64h-3.516l-0.488,1.654h-3.162l3.767-10.021h3.378l3.766,10.021h-3.243L667.158,88.64z
		 M666.516,86.473l-1.106-3.603l-1.094,3.603H666.516z"/>
	<path class="st2" d="M671.183,80.272h9.413v2.475h-3.158v7.547h-3.097v-7.547h-3.158V80.272z"/>
	<path class="st2" d="M681.99,80.272h8.299v2.14h-5.195v1.593h4.819v2.044h-4.819v1.976h5.346v2.27h-8.449V80.272z"/>
</g>
<g>
	<path class="st2" d="M165.946,70.581h7.656v2.153h-4.546v1.75h3.883v2.023h-3.883v4.095h-3.11V70.581z"/>
	<path class="st2" d="M175.394,70.581h3.104v10.021h-3.104V70.581z"/>
	<path class="st2" d="M180.739,70.581h2.892l3.773,5.544v-5.544h2.919v10.021h-2.919l-3.753-5.502v5.502h-2.912V70.581z"/>
	<path class="st2" d="M192.374,70.581h8.299v2.14h-5.195v1.593h4.819v2.044h-4.819v1.976h5.346v2.27h-8.449V70.581z"/>
</g>
<g>
	<path class="st2" d="M153.163,93.819l2.714,0.82c-0.182,0.761-0.469,1.397-0.861,1.907s-0.878,0.896-1.459,1.155
		s-1.32,0.39-2.218,0.39c-1.089,0-1.979-0.158-2.669-0.475s-1.286-0.874-1.788-1.67s-0.752-1.817-0.752-3.061
		c0-1.658,0.441-2.932,1.323-3.822c0.882-0.89,2.129-1.335,3.743-1.335c1.262,0,2.255,0.255,2.977,0.766s1.259,1.294,1.61,2.352
		l-2.734,0.608c-0.096-0.305-0.196-0.529-0.301-0.67c-0.173-0.237-0.385-0.419-0.636-0.547s-0.531-0.191-0.841-0.191
		c-0.702,0-1.24,0.282-1.613,0.847c-0.283,0.419-0.424,1.077-0.424,1.973c0,1.111,0.168,1.872,0.506,2.284
		c0.337,0.412,0.811,0.618,1.422,0.618c0.592,0,1.04-0.167,1.343-0.499S153.026,94.453,153.163,93.819z"/>
	<path class="st2" d="M157.381,87.899h3.097v7.554h4.833v2.468h-7.93V87.899z"/>
	<path class="st2" d="M172.88,96.267h-3.516l-0.489,1.654h-3.162l3.767-10.021h3.378l3.766,10.021h-3.243L172.88,96.267z
		 M172.237,94.1l-1.106-3.603l-1.095,3.603H172.237z"/>
	<path class="st2" d="M177.068,94.605l2.946-0.185c0.064,0.479,0.194,0.843,0.39,1.094c0.319,0.406,0.775,0.608,1.367,0.608
		c0.442,0,0.783-0.104,1.022-0.311s0.359-0.448,0.359-0.721c0-0.26-0.114-0.492-0.342-0.697s-0.756-0.399-1.586-0.581
		c-1.358-0.305-2.327-0.711-2.905-1.217c-0.583-0.506-0.875-1.151-0.875-1.935c0-0.515,0.149-1.001,0.448-1.459
		s0.748-0.818,1.347-1.08s1.421-0.393,2.464-0.393c1.281,0,2.257,0.238,2.929,0.714s1.072,1.234,1.2,2.273l-2.919,0.171
		c-0.078-0.451-0.24-0.779-0.489-0.984s-0.591-0.308-1.029-0.308c-0.36,0-0.631,0.076-0.813,0.229s-0.273,0.338-0.273,0.557
		c0,0.16,0.075,0.303,0.226,0.431c0.146,0.132,0.492,0.255,1.039,0.369c1.354,0.292,2.323,0.587,2.909,0.885
		s1.012,0.669,1.278,1.111s0.4,0.937,0.4,1.483c0,0.643-0.178,1.235-0.533,1.777s-0.852,0.954-1.49,1.234s-1.442,0.42-2.413,0.42
		c-1.705,0-2.885-0.328-3.541-0.984S177.155,95.617,177.068,94.605z"/>
	<path class="st2" d="M187.179,94.605l2.946-0.185c0.064,0.479,0.194,0.843,0.39,1.094c0.319,0.406,0.775,0.608,1.367,0.608
		c0.442,0,0.783-0.104,1.022-0.311s0.359-0.448,0.359-0.721c0-0.26-0.114-0.492-0.342-0.697s-0.756-0.399-1.586-0.581
		c-1.358-0.305-2.327-0.711-2.905-1.217c-0.583-0.506-0.875-1.151-0.875-1.935c0-0.515,0.149-1.001,0.448-1.459
		s0.748-0.818,1.347-1.08s1.421-0.393,2.464-0.393c1.281,0,2.257,0.238,2.929,0.714s1.072,1.234,1.2,2.273l-2.919,0.171
		c-0.078-0.451-0.24-0.779-0.489-0.984s-0.591-0.308-1.029-0.308c-0.36,0-0.631,0.076-0.813,0.229s-0.273,0.338-0.273,0.557
		c0,0.16,0.075,0.303,0.226,0.431c0.146,0.132,0.492,0.255,1.039,0.369c1.354,0.292,2.323,0.587,2.909,0.885
		s1.012,0.669,1.278,1.111s0.4,0.937,0.4,1.483c0,0.643-0.178,1.235-0.533,1.777s-0.852,0.954-1.49,1.234s-1.442,0.42-2.413,0.42
		c-1.705,0-2.885-0.328-3.541-0.984S187.265,95.617,187.179,94.605z"/>
	<path class="st2" d="M197.952,87.899h3.104v10.021h-3.104V87.899z"/>
	<path class="st2" d="M203.298,87.899h2.892l3.773,5.544v-5.544h2.919v10.021h-2.919l-3.753-5.502v5.502h-2.912V87.899z"/>
	<path class="st2" d="M219.978,94.291v-2.085h4.785v4.272c-0.916,0.625-1.726,1.049-2.43,1.275s-1.539,0.338-2.505,0.338
		c-1.189,0-2.159-0.203-2.909-0.608s-1.331-1.009-1.743-1.812s-0.619-1.723-0.619-2.762c0-1.094,0.226-2.045,0.677-2.854
		s1.112-1.423,1.982-1.842c0.679-0.324,1.593-0.485,2.741-0.485c1.107,0,1.936,0.1,2.485,0.301s1.005,0.512,1.367,0.933
		s0.635,0.956,0.817,1.603l-2.987,0.533c-0.123-0.378-0.332-0.667-0.625-0.868s-0.669-0.301-1.125-0.301
		c-0.679,0-1.22,0.236-1.624,0.708s-0.605,1.218-0.605,2.239c0,1.084,0.204,1.859,0.612,2.324s0.977,0.697,1.706,0.697
		c0.346,0,0.677-0.05,0.991-0.15s0.674-0.271,1.08-0.513v-0.943H219.978z"/>
</g>
<g>
	<path class="st6" d="M212.778,133.07L212.778,133.07c0-15.08-12.218-27.281-27.296-27.281c-15.064,0-27.281,12.201-27.281,27.281
		c0,15.063,12.217,27.296,27.281,27.296C200.561,160.366,212.778,148.133,212.778,133.07z"/>
	<path class="st5" d="M198.05,140.793L198.05,140.793l-12.407-12.409c0.671-2.368,0.079-5.037-1.79-6.908
		c-1.903-1.886-4.606-2.479-7.021-1.758l3.647,3.63c1.151,1.166,1.262,3.037,0.096,4.205l-0.61,0.59
		c-1.166,1.168-3.149,1.2-4.316,0.032l-3.566-3.566c-0.64,2.351-0.032,4.973,1.823,6.812c1.871,1.871,4.525,2.479,6.908,1.79
		l12.41,12.41c1.326,1.327,3.502,1.327,4.828,0C199.378,144.279,199.378,142.12,198.05,140.793z M196.756,144.199L196.756,144.199
		c-0.576,0.576-1.535,0.576-2.11,0c-0.578-0.592-0.578-1.535,0-2.111c0.576-0.591,1.535-0.591,2.11,0
		C197.332,142.664,197.332,143.607,196.756,144.199z M183.355,137.019L183.355,137.019c0.671,0.671,0.671,1.744,0,2.415l-6.78,6.78
		c-0.672,0.672-1.759,0.672-2.415,0l-1.807-1.807c-0.671-0.672-0.671-1.743,0-2.415l6.78-6.781c0.671-0.671,1.743-0.671,2.414,0
		L183.355,137.019z M198.898,121.491L198.898,121.491l-1.822-1.805c-0.32-0.337-0.895-0.352-1.215-0.017l-1.825,1.807
		c-0.32,0.335-0.303,0.895,0.032,1.23l-0.032-0.032l-6.475,6.478l1.807,1.822l6.475-6.493l0.032,0.032
		c0.337,0.337,0.848,0.305,1.183-0.032l1.808-1.808C199.203,122.34,199.218,121.828,198.898,121.491z"/>
</g>
<g>
	<path class="st6" d="M774,133.07L774,133.07c0-15.08-12.218-27.281-27.296-27.281c-15.064,0-27.281,12.201-27.281,27.281
		c0,15.063,12.217,27.296,27.281,27.296C761.782,160.366,774,148.133,774,133.07z"/>
	<path class="st5" d="M733.799,143.272L733.799,143.272l2.702,2.703c0.992,0.991,2.607,0.991,3.598,0l19.509-19.51
		c0.991-0.991,0.991-2.605,0-3.598l-2.703-2.701c-0.991-0.993-2.607-0.993-3.598,0l-19.509,19.508
		C732.807,140.665,732.807,142.28,733.799,143.272z M753.165,121.523L753.165,121.523c0.16-0.175,0.431-0.175,0.59,0l3.008,2.991
		c0.16,0.177,0.16,0.433,0,0.607c-0.177,0.16-0.448,0.16-0.607,0l-2.991-3.005C752.988,121.956,752.988,121.683,753.165,121.523z
		 M752.252,125.714L752.252,125.714l-1.343-1.343c-0.177-0.177-0.177-0.433,0-0.607c0.16-0.16,0.431-0.16,0.59,0l1.36,1.358
		c0.16,0.16,0.16,0.433,0,0.593C752.685,125.889,752.429,125.889,752.252,125.714z M748.654,126.017L748.654,126.017
		c0.16-0.16,0.433-0.16,0.607,0l2.991,3.008c0.177,0.16,0.177,0.431,0,0.59c-0.16,0.16-0.433,0.16-0.593,0l-3.005-3.005
		C748.495,126.449,748.495,126.176,748.654,126.017z M747.759,130.224L747.759,130.224l-1.36-1.36c-0.16-0.16-0.16-0.433,0-0.593
		c0.177-0.175,0.448-0.175,0.607,0l1.343,1.343c0.177,0.16,0.177,0.433,0,0.61C748.19,130.384,747.919,130.384,747.759,130.224z
		 M744.161,130.512L744.161,130.512c0.16-0.16,0.431-0.16,0.59,0l3.008,3.005c0.16,0.16,0.16,0.433,0,0.607
		c-0.177,0.16-0.433,0.16-0.607,0l-2.99-3.005C743.984,130.959,743.984,130.687,744.161,130.512z M743.249,134.717L743.249,134.717
		l-1.343-1.345c-0.16-0.175-0.16-0.448,0-0.607c0.16-0.16,0.433-0.16,0.607,0l1.343,1.36c0.16,0.16,0.16,0.433,0,0.593
		C743.697,134.877,743.426,134.877,743.249,134.717z M739.652,135.02L739.652,135.02c0.176-0.175,0.432-0.175,0.608,0l2.99,2.99
		c0.177,0.177,0.177,0.448,0,0.607c-0.16,0.16-0.431,0.16-0.59,0l-3.007-3.005C739.492,135.453,739.492,135.18,739.652,135.02z
		 M738.756,139.21L738.756,139.21l-1.343-1.342c-0.176-0.16-0.176-0.433,0-0.61c0.16-0.16,0.432-0.16,0.592,0l1.359,1.36
		c0.16,0.16,0.16,0.432,0,0.592C739.188,139.386,738.916,139.386,738.756,139.21z M735.158,139.514L735.158,139.514
		c0.16-0.16,0.432-0.16,0.591,0l3.007,3.006c0.16,0.16,0.16,0.432,0,0.592c-0.16,0.176-0.432,0.176-0.608,0l-2.99-2.99
		C734.998,139.945,734.998,139.69,735.158,139.514z"/>
</g>
<path class="st7" d="M516.375,125.774l15.565,7.783l-15.565,7.783V125.774z M492.859,130.962h26.111v5.188h-26.111V130.962z"/>
<path class="st7" d="M703.161,125.774l15.565,7.783l-15.565,7.783V125.774z M679.645,130.962h26.111v5.188h-26.111V130.962z"/>
<g>
	<path class="st2" d="M723.039,86.979l2.946-0.185c0.063,0.479,0.193,0.843,0.39,1.094c0.319,0.406,0.774,0.608,1.367,0.608
		c0.442,0,0.782-0.104,1.022-0.311c0.238-0.208,0.358-0.448,0.358-0.721c0-0.26-0.114-0.492-0.342-0.697s-0.757-0.399-1.586-0.581
		c-1.358-0.305-2.326-0.711-2.905-1.217c-0.583-0.506-0.875-1.151-0.875-1.935c0-0.515,0.149-1.001,0.447-1.459
		c0.299-0.458,0.748-0.818,1.348-1.08c0.599-0.262,1.42-0.393,2.464-0.393c1.28,0,2.257,0.238,2.929,0.714
		c0.673,0.476,1.072,1.234,1.2,2.273l-2.919,0.171c-0.077-0.451-0.24-0.779-0.488-0.984c-0.249-0.205-0.592-0.308-1.029-0.308
		c-0.36,0-0.631,0.076-0.813,0.229s-0.273,0.338-0.273,0.557c0,0.16,0.075,0.303,0.226,0.431c0.146,0.132,0.492,0.255,1.039,0.369
		c1.354,0.292,2.323,0.587,2.908,0.885c0.586,0.298,1.012,0.669,1.279,1.111c0.266,0.442,0.399,0.937,0.399,1.483
		c0,0.643-0.178,1.235-0.533,1.777s-0.853,0.954-1.49,1.234s-1.442,0.42-2.413,0.42c-1.704,0-2.885-0.328-3.541-0.984
		S723.126,87.99,723.039,86.979z"/>
	<path class="st2" d="M740.361,86.192l2.714,0.82c-0.183,0.761-0.47,1.397-0.861,1.907s-0.878,0.896-1.46,1.155
		c-0.58,0.26-1.32,0.39-2.218,0.39c-1.089,0-1.979-0.158-2.669-0.475c-0.691-0.316-1.287-0.874-1.788-1.67s-0.752-1.817-0.752-3.061
		c0-1.658,0.44-2.932,1.323-3.822c0.881-0.89,2.129-1.335,3.742-1.335c1.263,0,2.255,0.255,2.977,0.766
		c0.723,0.51,1.26,1.294,1.61,2.352l-2.734,0.608c-0.096-0.305-0.196-0.529-0.301-0.67c-0.173-0.237-0.385-0.419-0.636-0.547
		s-0.531-0.191-0.841-0.191c-0.702,0-1.239,0.282-1.613,0.847c-0.282,0.419-0.424,1.077-0.424,1.973
		c0,1.111,0.169,1.872,0.506,2.284c0.337,0.412,0.812,0.618,1.422,0.618c0.593,0,1.04-0.167,1.343-0.499
		C740.005,87.309,740.225,86.826,740.361,86.192z"/>
	<path class="st2" d="M750.74,88.64h-3.516l-0.488,1.654h-3.162l3.767-10.021h3.378l3.766,10.021h-3.243L750.74,88.64z
		 M750.098,86.473l-1.106-3.603l-1.094,3.603H750.098z"/>
	<path class="st2" d="M755.469,80.272h3.097v7.554h4.833v2.468h-7.93V80.272z"/>
	<path class="st2" d="M764.8,80.272h8.299v2.14h-5.195v1.593h4.819v2.044h-4.819v1.976h5.346v2.27H764.8V80.272z"/>
</g>
<g>
	<path class="st6" d="M586.35,133.07L586.35,133.07c0-15.08-12.218-27.281-27.296-27.281c-15.064,0-27.281,12.201-27.281,27.281
		c0,15.063,12.217,27.296,27.281,27.296C574.132,160.366,586.35,148.133,586.35,133.07z"/>
	<path class="st5" d="M548.675,145.862L548.675,145.862c-0.352,0-0.656-0.208-0.784-0.528c-0.128-0.336-0.064-0.704,0.192-0.943
		l11.258-10.923l-11.274-11.753c-0.24-0.239-0.304-0.607-0.176-0.927c0.144-0.303,0.448-0.512,0.784-0.512h20.612
		c0.48,0,0.863,0.384,0.863,0.848v4.269c0,0.335-0.207,0.654-0.526,0.782c-0.113,0.049-0.224,0.064-0.337,0.064
		c-0.224,0-0.431-0.079-0.607-0.239l-2.735-2.735h-8.731l7.995,8.364c0.337,0.335,0.32,0.863-0.015,1.198l-9.163,8.988h9.914
		l2.735-2.75c0.177-0.16,0.384-0.239,0.607-0.239c0.113,0,0.224,0.015,0.337,0.064c0.32,0.128,0.526,0.447,0.526,0.783v5.341
		c0,0.464-0.384,0.848-0.863,0.848H548.675z"/>
</g>
<path class="st7" d="M567.384,175.929l-7.783-15.565l-7.783,15.565H567.384z M114.964,332.46h444.637
	c1.441,0,2.594-1.153,2.594-2.594V173.335h-5.188v156.531l2.594-2.594H114.964V332.46z"/>
<g>
	<path class="st6" d="M278.78,160.461L278.78,160.461c-15.08,0-27.281-12.218-27.281-27.296c0-15.064,12.201-27.281,27.281-27.281
		c15.063,0,27.296,12.217,27.296,27.281C306.076,148.243,293.843,160.461,278.78,160.461z"/>
	<path class="st5" d="M286.551,145.814L286.551,145.814l-12.393-12.456c-2.383,0.686-5.054,0.096-6.925-1.79
		c-1.886-1.903-2.479-4.622-1.758-7.037l3.63,3.646c1.168,1.168,3.037,1.279,4.205,0.113l0.593-0.61
		c1.166-1.166,1.198-3.165,0.032-4.332l-3.566-3.582c2.351-0.64,4.973-0.032,6.812,1.823c1.869,1.871,2.479,4.557,1.79,6.94
		l12.409,12.442c1.327,1.343,1.327,3.502,0,4.845C290.037,147.142,287.878,147.142,286.551,145.814z M289.957,144.518
		L289.957,144.518c0.576-0.59,0.576-1.535,0-2.125c-0.591-0.578-1.535-0.578-2.111,0c-0.592,0.59-0.592,1.535,0,2.125
		C288.422,145.093,289.366,145.093,289.957,144.518z"/>
</g>
<g>
	<path class="st2" d="M253.63,76.5l2.714,0.82c-0.182,0.761-0.469,1.397-0.861,1.907s-0.878,0.896-1.459,1.155
		s-1.32,0.39-2.218,0.39c-1.089,0-1.979-0.158-2.669-0.475s-1.286-0.874-1.788-1.67s-0.752-1.817-0.752-3.061
		c0-1.658,0.441-2.932,1.323-3.822c0.882-0.89,2.129-1.335,3.743-1.335c1.262,0,2.255,0.255,2.977,0.766s1.259,1.294,1.61,2.352
		l-2.734,0.608c-0.096-0.305-0.196-0.529-0.301-0.67c-0.173-0.237-0.385-0.419-0.636-0.547s-0.531-0.191-0.841-0.191
		c-0.702,0-1.24,0.282-1.613,0.847c-0.283,0.419-0.424,1.077-0.424,1.973c0,1.111,0.168,1.872,0.506,2.284
		c0.337,0.412,0.811,0.618,1.422,0.618c0.592,0,1.04-0.167,1.343-0.499S253.494,77.134,253.63,76.5z"/>
	<path class="st2" d="M257.458,75.598c0-1.636,0.456-2.91,1.367-3.821s2.181-1.367,3.808-1.367c1.668,0,2.953,0.448,3.855,1.343
		s1.354,2.15,1.354,3.763c0,1.171-0.197,2.132-0.591,2.881s-0.964,1.333-1.709,1.75s-1.674,0.625-2.786,0.625
		c-1.13,0-2.065-0.18-2.806-0.54s-1.341-0.93-1.801-1.709S257.458,76.77,257.458,75.598z M260.555,75.612
		c0,1.012,0.188,1.739,0.564,2.181s0.888,0.663,1.535,0.663c0.666,0,1.18-0.216,1.545-0.649s0.547-1.21,0.547-2.331
		c0-0.943-0.19-1.633-0.571-2.068s-0.896-0.653-1.548-0.653c-0.625,0-1.125,0.221-1.504,0.663S260.555,74.591,260.555,75.612z"/>
	<path class="st2" d="M275.671,78.948h-3.516l-0.489,1.654h-3.162l3.767-10.021h3.378l3.766,10.021h-3.243L275.671,78.948z
		 M275.029,76.781l-1.106-3.603l-1.095,3.603H275.029z"/>
	<path class="st2" d="M280.441,80.602V70.581h5.161c0.957,0,1.688,0.082,2.194,0.246s0.914,0.468,1.224,0.913
		s0.465,0.985,0.465,1.624c0,0.556-0.119,1.036-0.355,1.439c-0.237,0.403-0.563,0.73-0.979,0.981
		c-0.264,0.16-0.627,0.292-1.087,0.396c0.369,0.123,0.638,0.247,0.806,0.37c0.114,0.082,0.279,0.257,0.495,0.527
		c0.216,0.269,0.361,0.477,0.434,0.623l1.5,2.904h-3.499l-1.655-3.063c-0.209-0.396-0.396-0.654-0.561-0.772
		c-0.223-0.155-0.476-0.232-0.759-0.232h-0.273v4.067H280.441z M283.551,74.641h1.306c0.141,0,0.415-0.045,0.82-0.137
		c0.205-0.041,0.373-0.146,0.502-0.314s0.195-0.362,0.195-0.581c0-0.324-0.103-0.572-0.308-0.745s-0.59-0.26-1.155-0.26h-1.36
		V74.641z"/>
	<path class="st2" d="M290.75,77.287l2.946-0.185c0.064,0.479,0.194,0.843,0.39,1.094c0.319,0.406,0.775,0.608,1.367,0.608
		c0.442,0,0.783-0.104,1.022-0.311s0.359-0.448,0.359-0.721c0-0.26-0.114-0.492-0.342-0.697s-0.756-0.399-1.586-0.581
		c-1.358-0.305-2.327-0.711-2.905-1.217c-0.583-0.506-0.875-1.151-0.875-1.935c0-0.515,0.149-1.001,0.448-1.459
		s0.748-0.818,1.347-1.08s1.421-0.393,2.464-0.393c1.281,0,2.257,0.238,2.929,0.714s1.072,1.234,1.2,2.273l-2.919,0.171
		c-0.078-0.451-0.24-0.779-0.489-0.984s-0.591-0.308-1.029-0.308c-0.36,0-0.631,0.076-0.813,0.229s-0.273,0.338-0.273,0.557
		c0,0.16,0.075,0.303,0.226,0.431c0.146,0.132,0.492,0.255,1.039,0.369c1.354,0.292,2.323,0.587,2.909,0.885
		s1.012,0.669,1.278,1.111s0.4,0.937,0.4,1.483c0,0.643-0.178,1.235-0.533,1.777s-0.852,0.954-1.49,1.234s-1.442,0.42-2.413,0.42
		c-1.705,0-2.885-0.328-3.541-0.984S290.836,78.298,290.75,77.287z"/>
	<path class="st2" d="M301.393,70.581h8.299v2.14h-5.195v1.593h4.819v2.044h-4.819v1.976h5.346v2.27h-8.449V70.581z"/>
</g>
<g>
	<path class="st2" d="M246.713,93.819l2.714,0.82c-0.182,0.761-0.469,1.397-0.861,1.907s-0.878,0.896-1.459,1.155
		s-1.32,0.39-2.218,0.39c-1.089,0-1.979-0.158-2.669-0.475s-1.286-0.874-1.788-1.67s-0.752-1.817-0.752-3.061
		c0-1.658,0.441-2.932,1.323-3.822c0.882-0.89,2.129-1.335,3.743-1.335c1.262,0,2.255,0.255,2.977,0.766s1.259,1.294,1.61,2.352
		l-2.734,0.608c-0.096-0.305-0.196-0.529-0.301-0.67c-0.173-0.237-0.385-0.419-0.636-0.547s-0.531-0.191-0.841-0.191
		c-0.702,0-1.24,0.282-1.613,0.847c-0.283,0.419-0.424,1.077-0.424,1.973c0,1.111,0.168,1.872,0.506,2.284
		c0.337,0.412,0.811,0.618,1.422,0.618c0.592,0,1.04-0.167,1.343-0.499S246.577,94.453,246.713,93.819z"/>
	<path class="st2" d="M250.931,87.899h3.097v7.554h4.833v2.468h-7.93V87.899z"/>
	<path class="st2" d="M266.43,96.267h-3.516l-0.489,1.654h-3.162l3.767-10.021h3.378l3.766,10.021h-3.243L266.43,96.267z
		 M265.788,94.1l-1.106-3.603l-1.095,3.603H265.788z"/>
	<path class="st2" d="M270.619,94.605l2.946-0.185c0.064,0.479,0.194,0.843,0.39,1.094c0.319,0.406,0.775,0.608,1.367,0.608
		c0.442,0,0.783-0.104,1.022-0.311s0.359-0.448,0.359-0.721c0-0.26-0.114-0.492-0.342-0.697s-0.756-0.399-1.586-0.581
		c-1.358-0.305-2.327-0.711-2.905-1.217c-0.583-0.506-0.875-1.151-0.875-1.935c0-0.515,0.149-1.001,0.448-1.459
		s0.748-0.818,1.347-1.08s1.421-0.393,2.464-0.393c1.281,0,2.257,0.238,2.929,0.714s1.072,1.234,1.2,2.273l-2.919,0.171
		c-0.078-0.451-0.24-0.779-0.489-0.984s-0.591-0.308-1.029-0.308c-0.36,0-0.631,0.076-0.813,0.229s-0.273,0.338-0.273,0.557
		c0,0.16,0.075,0.303,0.226,0.431c0.146,0.132,0.492,0.255,1.039,0.369c1.354,0.292,2.323,0.587,2.909,0.885
		s1.012,0.669,1.278,1.111s0.4,0.937,0.4,1.483c0,0.643-0.178,1.235-0.533,1.777s-0.852,0.954-1.49,1.234s-1.442,0.42-2.413,0.42
		c-1.705,0-2.885-0.328-3.541-0.984S270.705,95.617,270.619,94.605z"/>
	<path class="st2" d="M280.729,94.605l2.946-0.185c0.064,0.479,0.194,0.843,0.39,1.094c0.319,0.406,0.775,0.608,1.367,0.608
		c0.442,0,0.783-0.104,1.022-0.311s0.359-0.448,0.359-0.721c0-0.26-0.114-0.492-0.342-0.697s-0.756-0.399-1.586-0.581
		c-1.358-0.305-2.327-0.711-2.905-1.217c-0.583-0.506-0.875-1.151-0.875-1.935c0-0.515,0.149-1.001,0.448-1.459
		s0.748-0.818,1.347-1.08s1.421-0.393,2.464-0.393c1.281,0,2.257,0.238,2.929,0.714s1.072,1.234,1.2,2.273l-2.919,0.171
		c-0.078-0.451-0.24-0.779-0.489-0.984s-0.591-0.308-1.029-0.308c-0.36,0-0.631,0.076-0.813,0.229s-0.273,0.338-0.273,0.557
		c0,0.16,0.075,0.303,0.226,0.431c0.146,0.132,0.492,0.255,1.039,0.369c1.354,0.292,2.323,0.587,2.909,0.885
		s1.012,0.669,1.278,1.111s0.4,0.937,0.4,1.483c0,0.643-0.178,1.235-0.533,1.777s-0.852,0.954-1.49,1.234s-1.442,0.42-2.413,0.42
		c-1.705,0-2.885-0.328-3.541-0.984S280.815,95.617,280.729,94.605z"/>
	<path class="st2" d="M291.502,87.899h3.104v10.021h-3.104V87.899z"/>
	<path class="st2" d="M296.848,87.899h2.892l3.773,5.544v-5.544h2.919v10.021h-2.919l-3.753-5.502v5.502h-2.912V87.899z"/>
	<path class="st2" d="M313.528,94.291v-2.085h4.785v4.272c-0.916,0.625-1.726,1.049-2.43,1.275s-1.539,0.338-2.505,0.338
		c-1.189,0-2.159-0.203-2.909-0.608s-1.331-1.009-1.743-1.812s-0.619-1.723-0.619-2.762c0-1.094,0.226-2.045,0.677-2.854
		s1.112-1.423,1.982-1.842c0.679-0.324,1.593-0.485,2.741-0.485c1.107,0,1.936,0.1,2.485,0.301s1.005,0.512,1.367,0.933
		s0.635,0.956,0.817,1.603l-2.987,0.533c-0.123-0.378-0.332-0.667-0.625-0.868s-0.669-0.301-1.125-0.301
		c-0.679,0-1.22,0.236-1.624,0.708s-0.605,1.218-0.605,2.239c0,1.084,0.204,1.859,0.612,2.324s0.977,0.697,1.706,0.697
		c0.346,0,0.677-0.05,0.991-0.15s0.674-0.271,1.08-0.513v-0.943H313.528z"/>
</g>
<g>
	<path class="st2" d="M354.522,79.75h3.095l1.114,5.903l1.631-5.903h3.083l1.635,5.895l1.115-5.895h3.079l-2.324,10.544h-3.195
		l-1.85-6.639l-1.842,6.639h-3.195L354.522,79.75z"/>
	<path class="st2" d="M369.929,85.029c0-1.721,0.479-3.062,1.438-4.021s2.295-1.439,4.007-1.439c1.755,0,3.106,0.471,4.057,1.414
		c0.949,0.942,1.424,2.262,1.424,3.959c0,1.232-0.207,2.243-0.622,3.032c-0.415,0.789-1.015,1.403-1.798,1.841
		c-0.784,0.439-1.762,0.658-2.932,0.658c-1.189,0-2.173-0.189-2.952-0.568c-0.779-0.379-1.411-0.979-1.896-1.798
		S369.929,86.261,369.929,85.029z M373.187,85.043c0,1.064,0.198,1.829,0.594,2.294c0.396,0.465,0.934,0.698,1.615,0.698
		c0.7,0,1.241-0.228,1.625-0.684s0.575-1.273,0.575-2.453c0-0.993-0.2-1.718-0.601-2.176s-0.943-0.687-1.629-0.687
		c-0.657,0-1.185,0.233-1.582,0.698C373.386,83.2,373.187,83.969,373.187,85.043z"/>
	<path class="st2" d="M382.602,79.75h8.732V82h-5.467v1.676h5.071v2.15h-5.071v2.079h5.625v2.388h-8.891V79.75z"/>
</g>
<g>
	<path class="st6" d="M399.563,133.07L399.563,133.07c0-15.08-12.024-27.281-26.863-27.281c-14.825,0-26.848,12.201-26.848,27.281
		c0,15.063,12.023,27.296,26.848,27.296C387.539,160.366,399.563,148.133,399.563,133.07z"/>
	<path class="st5" d="M370.181,124.322L370.181,124.322h-6.703c-0.582,0-1.055-0.48-1.055-1.055c0-0.593,0.472-1.072,1.055-1.072
		h6.703c-0.126,0.32-0.203,0.688-0.203,1.072C369.977,123.636,370.055,124.002,370.181,124.322z M372.7,120.485L372.7,120.485
		c0.378,0,0.724,0.079,1.053,0.224v-0.224c0-0.593-0.472-1.055-1.053-1.055c-0.583,0-1.038,0.463-1.038,1.055v0.224
		C371.976,120.564,372.337,120.485,372.7,120.485z M378.995,145.015L378.995,145.015c-2.897,0-5.242-1.151-5.242-2.558v-16.631
		c-0.329,0.128-0.675,0.209-1.053,0.209c-0.363,0-0.724-0.081-1.038-0.209v16.631c0,1.407-2.362,2.558-5.257,2.558
		c-0.456,0-0.834,0.368-0.834,0.848c0,0.464,0.378,0.847,0.834,0.847h12.59c0.472,0,0.85-0.384,0.85-0.847
		C379.845,145.382,379.467,145.015,378.995,145.015z M381.938,122.195L381.938,122.195h-6.721c0.143,0.32,0.22,0.688,0.22,1.072
		c0,0.369-0.078,0.735-0.22,1.055h6.721c0.581,0,1.053-0.48,1.053-1.055C382.991,122.674,382.519,122.195,381.938,122.195z
		 M372.7,121.349L372.7,121.349c-1.038,0-1.89,0.846-1.89,1.918c0,1.055,0.852,1.918,1.89,1.918c1.038,0,1.888-0.863,1.888-1.918
		C374.588,122.195,373.738,121.349,372.7,121.349z M372.7,124.115L372.7,124.115c-0.457,0-0.835-0.384-0.835-0.848
		c0-0.48,0.378-0.863,0.835-0.863c0.472,0,0.85,0.384,0.85,0.863C373.549,123.732,373.172,124.115,372.7,124.115z M386.123,133.709
		L386.123,133.709c0-0.081-0.015-0.145-0.046-0.209l-4.487-7.899c-0.109-0.175-0.283-0.288-0.503-0.288
		c-0.203,0-0.392,0.113-0.487,0.288l-4.485,7.899c-0.031,0.064-0.048,0.128-0.048,0.209c0,2.767,2.251,5.118,5.036,5.118
		c2.769,0,5.036-2.351,5.036-5.118H386.123z M376.964,133.709L376.964,133.709l4.139-7.277l4.124,7.277H376.964z M369.348,133.709
		L369.348,133.709c0-0.081-0.017-0.145-0.063-0.209l-4.486-7.899c-0.094-0.175-0.283-0.288-0.488-0.288
		c-0.22,0-0.394,0.113-0.504,0.288l-4.485,7.899c-0.031,0.064-0.047,0.128-0.047,0.209c0,2.767,2.25,5.118,5.036,5.118
		C367.097,138.827,369.348,136.476,369.348,133.709z M360.173,133.709L360.173,133.709l4.139-7.277l4.124,7.277H360.173z"/>
</g>
<g>
	<path class="st6" d="M399.563,215.221L399.563,215.221c0-15.08-12.024-27.281-26.863-27.281c-14.825,0-26.848,12.201-26.848,27.281
		c0,15.063,12.023,27.296,26.848,27.296C387.539,242.517,399.563,230.284,399.563,215.221z"/>
	<path class="st5" d="M381.718,218.627L381.718,218.627c-2.425,0-4.407,2.014-4.407,4.477c0,2.479,1.982,4.477,4.407,4.477
		c2.438,0,4.405-1.999,4.405-4.477C386.123,220.641,384.155,218.627,381.718,218.627z M381.718,226.558L381.718,226.558
		c-1.859,0-3.384-1.551-3.384-3.454c0-1.903,1.525-3.437,3.384-3.437c1.871,0,3.398,1.534,3.398,3.437
		C385.116,225.007,383.589,226.558,381.718,226.558z M368.781,207.464L368.781,207.464c0.189,0.192,0.189,0.497,0,0.688
		l-3.384,3.438l3.384,3.438c0.189,0.192,0.189,0.495,0,0.686c-0.189,0.192-0.489,0.192-0.678,0l-3.368-3.438l-3.383,3.438
		c-0.189,0.192-0.488,0.192-0.677,0c-0.189-0.192-0.189-0.495,0-0.686l3.383-3.438l-3.383-3.438c-0.189-0.192-0.189-0.497,0-0.688
		c0.189-0.175,0.488-0.175,0.677,0l3.383,3.438l3.368-3.438C368.293,207.289,368.593,207.289,368.781,207.464z M383.26,208.136
		L383.26,208.136c-0.22,0.416-0.646,0.688-1.118,0.688h-2.391c-0.394,4.301-2.331,8.283-5.557,11.354
		c-3.556,3.405-8.277,5.276-13.297,5.276c-0.126,0-0.252,0-0.394,0c-0.676-0.016-1.227-0.592-1.227-1.279v-1.071
		c0-0.336,0.126-0.672,0.378-0.911c0.236-0.24,0.551-0.368,0.881-0.368c0,0,0.016,0,0.031,0c0.11,0,0.22,0,0.33,0
		c7.822,0,14.352-5.709,15.218-13.001h-2.565c-0.489,0-0.929-0.273-1.133-0.72c-0.22-0.431-0.157-0.959,0.126-1.343l4.531-5.964
		c0.237-0.32,0.598-0.497,0.992-0.497c0.017,0,0.031,0,0.031,0c0.409,0,0.772,0.209,1.007,0.544l4.076,5.966
		C383.448,207.208,383.48,207.72,383.26,208.136z"/>
</g>
<path class="st7" d="M142.252,125.774l15.565,7.783l-15.565,7.783V125.774z M114.099,130.962h30.747v5.188h-30.747V130.962z"/>
<path class="st7" d="M329.638,222.613l15.565-7.783l-15.565-7.783V222.613z M327.704,217.425h4.528v-5.188h-4.528V217.425z
	 M306.95,217.425h15.565v-5.188H306.95V217.425z M286.196,217.425h15.565v-5.188h-15.565V217.425z M275.807,201.871v12.959
	c0,1.441,1.165,2.594,2.594,2.594h2.606v-5.188h-2.606l2.594,2.594v-12.959H275.807z M275.807,181.117v15.565h5.189v-15.565H275.807
	z M275.807,160.363v15.565h5.189v-15.565H275.807z"/>
<path class="st7" d="M473.078,175.929l-7.783-15.565l-7.783,15.565H473.078z M467.889,177.902v-4.567h-5.188v4.567H467.889z
	 M467.889,197.656V182.09h-5.188v15.565H467.889z M461.728,217.425h3.567c1.429,0,2.594-1.153,2.594-2.594v-11.986h-5.188v11.986
	l2.594-2.594h-3.567V217.425z M440.974,217.425h15.565v-5.188h-15.565V217.425z M420.22,217.425h15.565v-5.188H420.22V217.425z
	 M399.466,217.425h15.565v-5.188h-15.565V217.425z"/>
<path class="st7" d="M330.07,141.339l15.565-7.783l-15.565-7.783V141.339z M306.073,136.15h26.591v-5.188h-26.591V136.15z"/>
<path class="st7" d="M422.49,125.774l15.565,7.783l-15.565,7.783V125.774z M399.466,130.962h25.618v5.188h-25.618V130.962z"/>
<g>
	<path class="st2" d="M341.99,253.027h4.601c0.907,0,1.64,0.123,2.198,0.369c0.558,0.246,1.02,0.6,1.384,1.06
		s0.629,0.996,0.793,1.606s0.246,1.258,0.246,1.941c0,1.071-0.122,1.901-0.366,2.492c-0.243,0.59-0.582,1.084-1.015,1.482
		c-0.433,0.399-0.897,0.665-1.395,0.797c-0.679,0.183-1.294,0.273-1.846,0.273h-4.601V253.027z M345.087,255.297v5.476h0.759
		c0.647,0,1.107-0.071,1.381-0.216c0.273-0.143,0.487-0.394,0.643-0.752c0.155-0.357,0.232-0.938,0.232-1.739
		c0-1.062-0.173-1.789-0.52-2.181s-0.921-0.588-1.723-0.588H345.087z"/>
	<path class="st2" d="M359.36,253.027h3.09v5.971c0,0.592-0.092,1.151-0.277,1.677c-0.184,0.526-0.474,0.986-0.867,1.38
		c-0.395,0.395-0.809,0.671-1.241,0.83c-0.602,0.224-1.324,0.335-2.167,0.335c-0.487,0-1.02-0.034-1.596-0.103
		c-0.577-0.068-1.059-0.204-1.446-0.406c-0.388-0.203-0.741-0.491-1.063-0.864c-0.32-0.373-0.541-0.758-0.659-1.154
		c-0.191-0.638-0.287-1.202-0.287-1.694v-5.971h3.09v6.113c0,0.546,0.151,0.973,0.454,1.28c0.304,0.308,0.724,0.461,1.262,0.461
		c0.533,0,0.951-0.151,1.254-0.454c0.304-0.303,0.455-0.732,0.455-1.287V253.027z"/>
	<path class="st2" d="M364.467,253.027h4.072l1.571,6.098l1.559-6.098h4.07v10.021h-2.536v-7.643l-1.954,7.643h-2.296l-1.95-7.643
		v7.643h-2.536V253.027z"/>
	<path class="st2" d="M377.681,253.027h4.072l1.571,6.098l1.559-6.098h4.07v10.021h-2.536v-7.643l-1.954,7.643h-2.296l-1.95-7.643
		v7.643h-2.536V253.027z"/>
	<path class="st2" d="M389.917,253.027h3.439l2.02,3.381l2.023-3.381h3.421l-3.896,5.824v4.197h-3.104v-4.197L389.917,253.027z"/>
</g>
<g>
	<path class="st2" d="M349.783,274.267l2.714,0.82c-0.183,0.761-0.47,1.396-0.861,1.907s-0.878,0.896-1.46,1.155
		c-0.58,0.26-1.32,0.39-2.218,0.39c-1.089,0-1.979-0.158-2.669-0.475c-0.691-0.316-1.287-0.873-1.788-1.67
		c-0.501-0.798-0.752-1.817-0.752-3.062c0-1.657,0.44-2.932,1.323-3.821c0.881-0.891,2.129-1.336,3.742-1.336
		c1.263,0,2.255,0.255,2.977,0.766c0.723,0.511,1.26,1.294,1.61,2.352l-2.734,0.608c-0.096-0.306-0.196-0.528-0.301-0.67
		c-0.173-0.237-0.385-0.419-0.636-0.547s-0.531-0.191-0.841-0.191c-0.702,0-1.239,0.282-1.613,0.847
		c-0.282,0.419-0.424,1.076-0.424,1.974c0,1.11,0.169,1.872,0.506,2.283c0.337,0.412,0.812,0.618,1.422,0.618
		c0.593,0,1.04-0.166,1.343-0.499C349.427,275.383,349.646,274.9,349.783,274.267z"/>
	<path class="st2" d="M353.611,273.364c0-1.636,0.456-2.91,1.367-3.821s2.181-1.367,3.808-1.367c1.668,0,2.953,0.448,3.855,1.343
		c0.902,0.896,1.354,2.15,1.354,3.764c0,1.171-0.197,2.132-0.592,2.881c-0.394,0.75-0.963,1.334-1.709,1.75
		c-0.744,0.418-1.673,0.626-2.785,0.626c-1.13,0-2.065-0.18-2.807-0.54c-0.74-0.36-1.341-0.93-1.801-1.709
		S353.611,274.535,353.611,273.364z M356.708,273.378c0,1.012,0.188,1.738,0.564,2.181c0.375,0.442,0.887,0.663,1.534,0.663
		c0.665,0,1.181-0.217,1.545-0.649s0.547-1.21,0.547-2.331c0-0.943-0.19-1.633-0.571-2.068c-0.38-0.435-0.896-0.652-1.548-0.652
		c-0.624,0-1.126,0.221-1.504,0.663S356.708,272.357,356.708,273.378z"/>
	<path class="st2" d="M365.704,268.347h4.601c0.907,0,1.64,0.123,2.198,0.369c0.558,0.246,1.02,0.6,1.384,1.06
		s0.629,0.996,0.793,1.606s0.246,1.258,0.246,1.941c0,1.071-0.122,1.901-0.366,2.492c-0.243,0.59-0.582,1.084-1.015,1.482
		c-0.433,0.399-0.897,0.665-1.395,0.797c-0.679,0.183-1.294,0.273-1.846,0.273h-4.601V268.347z M368.801,270.616v5.476h0.759
		c0.647,0,1.107-0.071,1.381-0.216c0.273-0.143,0.487-0.394,0.643-0.752c0.155-0.357,0.232-0.938,0.232-1.739
		c0-1.062-0.173-1.789-0.52-2.181s-0.921-0.588-1.723-0.588H368.801z"/>
	<path class="st2" d="M376.676,268.347h3.104v10.021h-3.104V268.347z"/>
	<path class="st2" d="M382.021,268.347h2.892l3.773,5.544v-5.544h2.919v10.021h-2.919l-3.753-5.503v5.503h-2.912V268.347z"/>
	<path class="st2" d="M398.701,274.738v-2.085h4.785v4.272c-0.916,0.624-1.726,1.05-2.431,1.274
		c-0.703,0.227-1.539,0.339-2.505,0.339c-1.189,0-2.159-0.203-2.909-0.608c-0.749-0.405-1.33-1.01-1.742-1.812
		c-0.413-0.802-0.619-1.723-0.619-2.762c0-1.094,0.226-2.045,0.677-2.854c0.451-0.809,1.112-1.423,1.982-1.842
		c0.679-0.323,1.593-0.485,2.741-0.485c1.107,0,1.936,0.101,2.484,0.301c0.55,0.2,1.006,0.512,1.367,0.933
		c0.363,0.422,0.635,0.956,0.817,1.604l-2.987,0.533c-0.123-0.378-0.332-0.668-0.625-0.868c-0.295-0.2-0.669-0.301-1.125-0.301
		c-0.679,0-1.221,0.235-1.623,0.708c-0.404,0.471-0.605,1.218-0.605,2.238c0,1.085,0.204,1.859,0.611,2.324
		c0.408,0.465,0.977,0.697,1.706,0.697c0.347,0,0.677-0.05,0.991-0.15s0.675-0.271,1.08-0.513v-0.943H398.701z"/>
</g>
</svg>
