<?xml version="1.0" encoding="utf-8"?>
<!-- Generator: Adobe Illustrator 21.0.2, SVG Export Plug-In . SVG Version: 6.00 Build 0)  -->
<svg version="1.1" id="レイヤー_1" xmlns="http://www.w3.org/2000/svg" xmlns:xlink="http://www.w3.org/1999/xlink" x="0px"
	 y="0px" viewBox="0 0 870.667 390" style="enable-background:new 0 0 870.667 390;"
	 xml:space="preserve">
<style type="text/css">
	.st0{fill-rule:evenodd;clip-rule:evenodd;fill:#BFBFBF;stroke:#4F81BD;stroke-miterlimit:10;}
	.st1{fill:none;stroke:#4F81BD;stroke-linejoin:round;stroke-miterlimit:10;}
	.st2{fill:#FFFFFF;}
	.st3{fill:#595959;}
	.st4{fill-rule:evenodd;clip-rule:evenodd;fill:#BFBFBF;}
	.st5{fill:#31859C;}
	.st6{fill:#B5B5B5;}
	.st7{fill:#4BACC6;}
	.st8{fill:#7F7F7F;}
</style>
<rect x="12.667" y="164.386" class="st0" width="80.596" height="58.064"/>
<path class="st1" d="M12.667,171.644h80.596 M22.741,164.386v58.064"/>
<g>
	<path class="st2" d="M29.995,182.831h4.072l1.571,6.098l1.56-6.098h4.07v10.021h-2.536v-7.643l-1.954,7.643h-2.295l-1.951-7.643
		v7.643h-2.536V182.831z"/>
	<path class="st2" d="M43.366,182.831h3.104v10.021h-3.104V182.831z"/>
	<path class="st2" d="M48.712,182.831h2.892l3.773,5.544v-5.544h2.919v10.021h-2.919l-3.753-5.502v5.502h-2.912V182.831z"/>
	<path class="st2" d="M60.476,182.831h3.104v10.021h-3.104V182.831z"/>
	<path class="st2" d="M65.822,182.831h2.892l3.773,5.544v-5.544h2.919v10.021h-2.919l-3.753-5.502v5.502h-2.912V182.831z"/>
	<path class="st2" d="M82.502,189.223v-2.085h4.785v4.272c-0.916,0.625-1.726,1.049-2.43,1.275s-1.539,0.338-2.505,0.338
		c-1.189,0-2.159-0.203-2.909-0.608s-1.331-1.009-1.743-1.812s-0.619-1.723-0.619-2.762c0-1.094,0.226-2.045,0.677-2.854
		s1.112-1.423,1.982-1.842c0.679-0.324,1.593-0.485,2.741-0.485c1.107,0,1.936,0.1,2.485,0.301s1.005,0.512,1.367,0.933
		s0.635,0.956,0.817,1.603l-2.987,0.533c-0.123-0.378-0.332-0.667-0.625-0.868s-0.669-0.301-1.125-0.301
		c-0.679,0-1.22,0.236-1.624,0.708s-0.605,1.218-0.605,2.239c0,1.084,0.204,1.859,0.612,2.324s0.977,0.697,1.706,0.697
		c0.346,0,0.677-0.05,0.991-0.15s0.674-0.271,1.08-0.513v-0.943H82.502z"/>
</g>
<g>
	<path class="st2" d="M39.482,198.43h3.237l2.255,7.212l2.227-7.212h3.143l-3.721,10.021h-3.356L39.482,198.43z"/>
	<path class="st2" d="M51.274,198.43h2.782v1.894h-2.782V198.43z M51.274,201.192h2.782v7.26h-2.782V201.192z"/>
	<path class="st2" d="M63.893,205.512h-5.578c0.05,0.447,0.171,0.779,0.362,0.998c0.269,0.314,0.62,0.472,1.053,0.472
		c0.273,0,0.533-0.068,0.779-0.205c0.15-0.086,0.312-0.239,0.485-0.458l2.741,0.253c-0.419,0.729-0.925,1.252-1.518,1.569
		s-1.442,0.475-2.55,0.475c-0.961,0-1.718-0.136-2.27-0.407s-1.008-0.702-1.371-1.292s-0.543-1.284-0.543-2.082
		c0-1.135,0.363-2.053,1.09-2.755s1.73-1.053,3.011-1.053c1.039,0,1.859,0.157,2.461,0.472s1.06,0.77,1.374,1.367
		s0.472,1.374,0.472,2.331V205.512z M61.063,204.179c-0.055-0.538-0.199-0.923-0.434-1.155s-0.543-0.349-0.926-0.349
		c-0.442,0-0.795,0.175-1.06,0.526c-0.168,0.219-0.276,0.544-0.321,0.978H61.063z"/>
	<path class="st2" d="M64.358,201.192h2.69l1.164,4.571l1.473-4.571h2.514l1.535,4.583l1.17-4.583h2.674l-2.674,7.26h-2.476
		l-1.471-4.368l-1.421,4.368h-2.487L64.358,201.192z"/>
</g>
<g>
	<path class="st3" d="M361.809,143.051h9.413v2.475h-3.158v7.547h-3.097v-7.547h-3.158V143.051z"/>
	<path class="st3" d="M372.665,153.072v-10.021h5.161c0.957,0,1.688,0.082,2.194,0.246s0.914,0.468,1.224,0.913
		s0.465,0.985,0.465,1.624c0,0.556-0.119,1.036-0.355,1.439c-0.237,0.403-0.563,0.73-0.979,0.981
		c-0.264,0.16-0.627,0.292-1.087,0.396c0.369,0.123,0.638,0.247,0.806,0.37c0.114,0.082,0.279,0.257,0.495,0.527
		c0.216,0.269,0.361,0.477,0.434,0.623l1.5,2.904h-3.499l-1.655-3.063c-0.209-0.396-0.396-0.654-0.561-0.772
		c-0.223-0.155-0.476-0.232-0.759-0.232h-0.273v4.067H372.665z M375.775,147.111h1.306c0.141,0,0.415-0.045,0.82-0.137
		c0.205-0.041,0.373-0.146,0.502-0.314s0.195-0.362,0.195-0.581c0-0.324-0.103-0.572-0.308-0.745s-0.59-0.26-1.155-0.26h-1.36
		V147.111z"/>
	<path class="st3" d="M389.674,151.418h-3.516l-0.489,1.654h-3.162l3.767-10.021h3.378l3.766,10.021h-3.243L389.674,151.418z
		 M389.032,149.251l-1.106-3.603l-1.095,3.603H389.032z"/>
	<path class="st3" d="M394.526,143.051h3.104v10.021h-3.104V143.051z"/>
	<path class="st3" d="M399.872,143.051h2.892l3.773,5.544v-5.544h2.919v10.021h-2.919l-3.753-5.502v5.502h-2.912V143.051z"/>
</g>
<g>
	<path class="st3" d="M361.724,160.418h4.072l1.571,6.098l1.56-6.098h4.07v10.021h-2.536v-7.643l-1.954,7.643h-2.295l-1.951-7.643
		v7.643h-2.536V160.418z"/>
	<path class="st3" d="M374.582,165.436c0-1.636,0.456-2.91,1.367-3.821s2.181-1.367,3.808-1.367c1.668,0,2.953,0.448,3.855,1.343
		s1.354,2.15,1.354,3.763c0,1.171-0.197,2.132-0.591,2.881s-0.964,1.333-1.709,1.75s-1.674,0.625-2.786,0.625
		c-1.13,0-2.065-0.18-2.806-0.54s-1.341-0.93-1.801-1.709S374.582,166.607,374.582,165.436z M377.679,165.45
		c0,1.012,0.188,1.739,0.564,2.181s0.888,0.663,1.535,0.663c0.666,0,1.18-0.216,1.545-0.649s0.547-1.21,0.547-2.331
		c0-0.943-0.19-1.633-0.571-2.068s-0.896-0.653-1.548-0.653c-0.625,0-1.125,0.221-1.504,0.663S377.679,164.429,377.679,165.45z"/>
	<path class="st3" d="M386.675,160.418h4.601c0.907,0,1.64,0.123,2.198,0.369s1.02,0.599,1.384,1.06s0.629,0.996,0.793,1.606
		s0.246,1.258,0.246,1.941c0,1.071-0.122,1.901-0.366,2.492s-0.582,1.084-1.015,1.483s-0.898,0.664-1.395,0.796
		c-0.679,0.182-1.294,0.273-1.846,0.273h-4.601V160.418z M389.772,162.688v5.476h0.759c0.647,0,1.107-0.072,1.381-0.215
		s0.488-0.394,0.643-0.752s0.232-0.938,0.232-1.74c0-1.062-0.173-1.789-0.52-2.181s-0.92-0.588-1.723-0.588H389.772z"/>
	<path class="st3" d="M397.517,160.418h8.299v2.14h-5.195v1.593h4.819v2.044h-4.819v1.976h5.346v2.27h-8.449V160.418z"/>
	<path class="st3" d="M407.634,160.418h3.097v7.554h4.833v2.468h-7.93V160.418z"/>
</g>
<rect x="151.326" y="71.658" class="st4" width="79.729" height="58.064"/>
<path class="st1" d="M151.326,78.916h79.729 M161.293,71.658v58.064"/>
<rect x="151.326" y="71.658" class="st1" width="79.729" height="58.064"/>
<g>
	<path class="st2" d="M172.262,91.089h9.413v2.475h-3.158v7.547h-3.097v-7.547h-3.158V91.089z"/>
	<path class="st2" d="M183.118,101.111V91.089h5.161c0.957,0,1.688,0.082,2.194,0.246s0.914,0.468,1.224,0.913
		s0.465,0.985,0.465,1.624c0,0.556-0.119,1.036-0.355,1.439c-0.237,0.403-0.563,0.73-0.979,0.981
		c-0.264,0.16-0.627,0.292-1.087,0.396c0.369,0.123,0.638,0.247,0.806,0.37c0.114,0.082,0.279,0.257,0.495,0.527
		c0.216,0.269,0.361,0.477,0.434,0.623l1.5,2.904h-3.499l-1.655-3.063c-0.209-0.396-0.396-0.654-0.561-0.772
		c-0.223-0.155-0.476-0.232-0.759-0.232h-0.273v4.067H183.118z M186.228,95.15h1.306c0.141,0,0.415-0.045,0.82-0.137
		c0.205-0.041,0.373-0.146,0.502-0.314s0.195-0.362,0.195-0.581c0-0.324-0.103-0.572-0.308-0.745s-0.59-0.26-1.155-0.26h-1.36V95.15
		z"/>
	<path class="st2" d="M200.128,99.457h-3.516l-0.489,1.654h-3.162l3.767-10.021h3.378l3.766,10.021h-3.243L200.128,99.457z
		 M199.485,97.29l-1.106-3.603l-1.095,3.603H199.485z"/>
	<path class="st2" d="M204.979,91.089h3.104v10.021h-3.104V91.089z"/>
	<path class="st2" d="M210.325,91.089h2.892l3.773,5.544v-5.544h2.919v10.021h-2.919l-3.753-5.502v5.502h-2.912V91.089z"/>
</g>
<g>
	<path class="st2" d="M166.15,105.536h1.612c-0.554,1.227-0.954,2.361-1.2,3.402c-0.208,0.884-0.311,1.828-0.311,2.831
		c0,1.934,0.503,3.923,1.511,5.967h-1.612c-0.821-1.164-1.397-2.216-1.73-3.158c-0.332-0.942-0.498-1.929-0.498-2.961
		c0-1.071,0.175-2.088,0.523-3.053C164.795,107.599,165.362,106.59,166.15,105.536z"/>
	<path class="st2" d="M176.534,112.271h-5.18c0.046,0.415,0.159,0.724,0.336,0.927c0.25,0.292,0.576,0.438,0.978,0.438
		c0.254,0,0.495-0.063,0.724-0.19c0.14-0.081,0.29-0.222,0.451-0.425l2.545,0.235c-0.389,0.677-0.859,1.163-1.409,1.457
		c-0.55,0.294-1.339,0.441-2.368,0.441c-0.893,0-1.595-0.126-2.107-0.378c-0.512-0.251-0.937-0.651-1.272-1.199
		c-0.337-0.548-0.505-1.192-0.505-1.933c0-1.054,0.337-1.906,1.013-2.558c0.675-0.652,1.607-0.978,2.796-0.978
		c0.965,0,1.727,0.146,2.285,0.438s0.984,0.715,1.276,1.27s0.438,1.276,0.438,2.165V112.271z M173.906,111.033
		c-0.051-0.5-0.185-0.857-0.403-1.073c-0.218-0.216-0.504-0.324-0.86-0.324c-0.411,0-0.738,0.163-0.984,0.489
		c-0.157,0.203-0.256,0.506-0.298,0.908H173.906z"/>
	<path class="st2" d="M177.728,112.411h2.761V115h-2.761V112.411z"/>
	<path class="st2" d="M186.741,108.259h2.418v6.367l0.006,0.298c0,0.423-0.09,0.826-0.27,1.209c-0.18,0.383-0.419,0.693-0.718,0.93
		c-0.298,0.237-0.677,0.408-1.136,0.514c-0.459,0.106-0.985,0.159-1.578,0.159c-1.354,0-2.284-0.203-2.79-0.609
		c-0.506-0.406-0.759-0.95-0.759-1.631c0-0.084,0.004-0.199,0.013-0.343l2.507,0.286c0.063,0.233,0.161,0.394,0.292,0.482
		c0.19,0.131,0.43,0.197,0.717,0.197c0.373,0,0.65-0.1,0.835-0.298c0.184-0.199,0.276-0.546,0.276-1.041v-1.022
		c-0.254,0.3-0.508,0.519-0.762,0.654c-0.398,0.211-0.827,0.317-1.289,0.317c-0.901,0-1.629-0.394-2.184-1.181
		c-0.394-0.559-0.59-1.297-0.59-2.215c0-1.049,0.254-1.849,0.762-2.399s1.172-0.825,1.993-0.825c0.525,0,0.958,0.089,1.298,0.267
		c0.34,0.178,0.659,0.472,0.955,0.882V108.259z M184.31,111.528c0,0.487,0.104,0.847,0.311,1.083
		c0.208,0.234,0.48,0.352,0.819,0.352c0.322,0,0.591-0.122,0.809-0.365c0.218-0.244,0.327-0.611,0.327-1.102
		s-0.114-0.866-0.343-1.127c-0.229-0.26-0.508-0.39-0.838-0.39s-0.594,0.12-0.79,0.359
		C184.408,110.577,184.31,110.974,184.31,111.528z"/>
	<path class="st2" d="M190.728,112.411h2.761V115h-2.761V112.411z"/>
	<path class="st2" d="M202.287,107.79l-2.571,0.317c-0.068-0.36-0.181-0.614-0.34-0.762c-0.158-0.148-0.354-0.222-0.587-0.222
		c-0.419,0-0.745,0.211-0.978,0.635c-0.169,0.305-0.294,0.957-0.375,1.955c0.309-0.313,0.626-0.545,0.952-0.695
		c0.326-0.15,0.703-0.226,1.13-0.226c0.83,0,1.531,0.296,2.104,0.889c0.574,0.592,0.86,1.344,0.86,2.253
		c0,0.614-0.145,1.174-0.435,1.682c-0.29,0.508-0.692,0.892-1.206,1.152c-0.515,0.26-1.159,0.39-1.933,0.39
		c-0.931,0-1.678-0.159-2.241-0.476s-1.013-0.824-1.349-1.521c-0.337-0.696-0.505-1.617-0.505-2.764c0-1.68,0.354-2.911,1.06-3.691
		c0.707-0.781,1.687-1.171,2.939-1.171c0.741,0,1.326,0.085,1.755,0.257c0.43,0.171,0.786,0.422,1.07,0.752
		S202.139,107.29,202.287,107.79z M197.526,111.935c0,0.503,0.127,0.898,0.381,1.184c0.254,0.285,0.565,0.428,0.933,0.428
		c0.338,0,0.622-0.129,0.851-0.387s0.343-0.643,0.343-1.155c0-0.525-0.119-0.925-0.355-1.2s-0.531-0.413-0.882-0.413
		c-0.36,0-0.661,0.133-0.905,0.4C197.648,111.059,197.526,111.439,197.526,111.935z"/>
	<path class="st2" d="M203.474,110.31c0-1.769,0.318-3.007,0.955-3.713c0.637-0.707,1.607-1.06,2.911-1.06
		c0.626,0,1.141,0.077,1.542,0.232c0.402,0.154,0.73,0.355,0.984,0.603c0.254,0.248,0.454,0.508,0.6,0.781
		c0.146,0.272,0.263,0.591,0.352,0.955c0.173,0.694,0.26,1.417,0.26,2.171c0,1.688-0.286,2.924-0.857,3.707
		s-1.555,1.174-2.952,1.174c-0.783,0-1.416-0.125-1.898-0.375s-0.878-0.616-1.187-1.098c-0.224-0.343-0.399-0.812-0.523-1.406
		C203.536,111.686,203.474,111.029,203.474,110.31z M206.038,110.316c0,1.185,0.104,1.994,0.314,2.428
		c0.209,0.434,0.513,0.651,0.911,0.651c0.262,0,0.49-0.092,0.682-0.276c0.193-0.185,0.334-0.475,0.426-0.873
		c0.091-0.398,0.136-1.018,0.136-1.86c0-1.236-0.105-2.066-0.314-2.492c-0.21-0.425-0.524-0.638-0.943-0.638
		c-0.427,0-0.736,0.217-0.927,0.65C206.133,108.341,206.038,109.144,206.038,110.316z"/>
	<path class="st2" d="M212.24,107.98c0-0.432,0.094-0.842,0.283-1.231c0.188-0.389,0.476-0.688,0.863-0.898
		c0.387-0.209,0.845-0.314,1.374-0.314c0.779,0,1.392,0.222,1.841,0.667s0.673,1.037,0.673,1.777c0,0.745-0.224,1.339-0.673,1.784
		s-1.062,0.667-1.841,0.667c-0.529,0-0.987-0.104-1.374-0.314c-0.388-0.209-0.675-0.509-0.863-0.898
		C212.334,108.829,212.24,108.416,212.24,107.98z M214.024,107.993c0,0.525,0.084,0.906,0.254,1.143
		c0.11,0.157,0.271,0.235,0.482,0.235s0.37-0.078,0.476-0.235c0.169-0.237,0.254-0.618,0.254-1.143c0-0.521-0.084-0.901-0.254-1.143
		c-0.106-0.152-0.265-0.229-0.476-0.229s-0.373,0.076-0.482,0.229C214.108,107.087,214.024,107.468,214.024,107.993z
		 M220.141,105.536h1.341l-5.376,9.94h-1.327L220.141,105.536z M218.949,113.014c0-0.436,0.093-0.847,0.279-1.235
		c0.186-0.387,0.474-0.687,0.863-0.898s0.846-0.317,1.371-0.317c0.783,0,1.398,0.223,1.847,0.669
		c0.449,0.447,0.673,1.04,0.673,1.781s-0.224,1.334-0.673,1.781c-0.449,0.446-1.064,0.669-1.847,0.669
		c-0.525,0-0.982-0.106-1.371-0.317s-0.677-0.511-0.863-0.898C219.043,113.861,218.949,113.45,218.949,113.014z M220.733,113.026
		c0,0.525,0.084,0.906,0.254,1.143c0.106,0.152,0.265,0.229,0.476,0.229s0.373-0.076,0.482-0.229
		c0.169-0.237,0.254-0.618,0.254-1.143s-0.084-0.908-0.254-1.149c-0.11-0.152-0.271-0.229-0.482-0.229s-0.37,0.078-0.476,0.235
		C220.818,112.121,220.733,112.501,220.733,113.026z"/>
	<path class="st2" d="M228.436,108.564c0.35,0.965,0.524,1.982,0.524,3.053c0,1.033-0.166,2.02-0.499,2.961
		c-0.332,0.941-0.909,1.994-1.729,3.158h-1.612c1.007-2.044,1.511-4.033,1.511-5.967c0-1.003-0.104-1.947-0.311-2.831
		c-0.246-1.041-0.646-2.175-1.2-3.402h1.612C227.519,106.59,228.087,107.599,228.436,108.564z"/>
</g>
<rect x="151.326" y="205.118" class="st0" width="80.596" height="58.064"/>
<path class="st1" d="M151.326,212.376h80.596 M161.401,205.118v58.064"/>
<g>
	<path class="st2" d="M173.262,224.489h3.237l2.255,7.212l2.227-7.212h3.143l-3.721,10.021h-3.356L173.262,224.489z"/>
	<path class="st2" d="M191.297,232.856h-3.516l-0.489,1.654h-3.162l3.767-10.021h3.378l3.766,10.021h-3.243L191.297,232.856z
		 M190.654,230.689l-1.106-3.603l-1.095,3.603H190.654z"/>
	<path class="st2" d="M196.026,224.489h3.097v7.554h4.833v2.468h-7.93V224.489z"/>
	<path class="st2" d="M205.486,224.489h3.104v10.021h-3.104V224.489z"/>
	<path class="st2" d="M210.853,224.489h4.601c0.907,0,1.64,0.123,2.198,0.369s1.02,0.6,1.384,1.06s0.629,0.996,0.793,1.606
		s0.246,1.258,0.246,1.941c0,1.071-0.122,1.901-0.366,2.492c-0.244,0.59-0.582,1.084-1.015,1.482
		c-0.433,0.399-0.898,0.665-1.395,0.797c-0.679,0.183-1.294,0.273-1.846,0.273h-4.601V224.489z M213.949,226.759v5.476h0.759
		c0.647,0,1.107-0.071,1.381-0.216c0.273-0.143,0.488-0.394,0.643-0.752c0.155-0.357,0.232-0.938,0.232-1.739
		c0-1.062-0.173-1.789-0.52-2.181s-0.92-0.588-1.723-0.588H213.949z"/>
</g>
<g>
	<path class="st2" d="M166.657,238.937h1.612c-0.554,1.228-0.954,2.361-1.2,3.402c-0.208,0.885-0.311,1.828-0.311,2.832
		c0,1.934,0.503,3.922,1.511,5.967h-1.612c-0.821-1.164-1.397-2.217-1.73-3.158c-0.332-0.941-0.498-1.929-0.498-2.961
		c0-1.071,0.175-2.089,0.523-3.054C165.302,241,165.87,239.991,166.657,238.937z"/>
	<path class="st2" d="M177.042,245.672h-5.18c0.046,0.415,0.159,0.724,0.336,0.927c0.25,0.292,0.576,0.438,0.978,0.438
		c0.254,0,0.495-0.063,0.724-0.189c0.14-0.081,0.29-0.223,0.451-0.426l2.545,0.234c-0.389,0.678-0.859,1.163-1.409,1.457
		s-1.339,0.441-2.368,0.441c-0.893,0-1.595-0.126-2.107-0.378s-0.937-0.651-1.272-1.199c-0.337-0.548-0.505-1.192-0.505-1.933
		c0-1.055,0.337-1.907,1.013-2.559c0.675-0.651,1.607-0.978,2.796-0.978c0.965,0,1.727,0.146,2.285,0.438
		c0.559,0.291,0.984,0.715,1.276,1.27c0.292,0.554,0.438,1.275,0.438,2.164V245.672z M174.414,244.435
		c-0.051-0.5-0.185-0.857-0.403-1.073c-0.218-0.216-0.504-0.323-0.86-0.323c-0.411,0-0.738,0.162-0.984,0.488
		c-0.157,0.203-0.256,0.506-0.298,0.908H174.414z"/>
	<path class="st2" d="M178.236,245.812h2.761v2.59h-2.761V245.812z"/>
	<path class="st2" d="M187.249,241.66h2.418v6.366l0.006,0.299c0,0.423-0.09,0.826-0.27,1.209c-0.18,0.383-0.419,0.693-0.718,0.93
		c-0.298,0.237-0.677,0.409-1.136,0.515c-0.459,0.105-0.985,0.159-1.578,0.159c-1.354,0-2.284-0.203-2.79-0.609
		c-0.506-0.406-0.759-0.95-0.759-1.632c0-0.085,0.004-0.199,0.013-0.343l2.507,0.285c0.063,0.233,0.161,0.395,0.292,0.482
		c0.19,0.132,0.43,0.197,0.717,0.197c0.373,0,0.65-0.1,0.835-0.299c0.184-0.198,0.276-0.545,0.276-1.041v-1.021
		c-0.254,0.301-0.508,0.519-0.762,0.654c-0.398,0.211-0.827,0.316-1.289,0.316c-0.901,0-1.629-0.393-2.184-1.18
		c-0.394-0.559-0.59-1.298-0.59-2.216c0-1.05,0.254-1.85,0.762-2.399s1.172-0.825,1.993-0.825c0.525,0,0.958,0.089,1.298,0.267
		c0.34,0.178,0.659,0.472,0.955,0.883V241.66z M184.818,244.929c0,0.487,0.104,0.848,0.311,1.083
		c0.208,0.234,0.48,0.353,0.819,0.353c0.322,0,0.591-0.122,0.809-0.365c0.218-0.243,0.327-0.61,0.327-1.102
		s-0.114-0.866-0.343-1.127c-0.229-0.26-0.508-0.391-0.838-0.391s-0.594,0.12-0.79,0.359
		C184.916,243.979,184.818,244.375,184.818,244.929z"/>
	<path class="st2" d="M191.236,245.812h2.761v2.59h-2.761V245.812z"/>
	<path class="st2" d="M202.877,248.401h-7.757c0.089-0.766,0.358-1.486,0.81-2.161c0.45-0.675,1.296-1.472,2.536-2.39
		c0.757-0.563,1.242-0.99,1.454-1.283c0.211-0.291,0.317-0.568,0.317-0.831c0-0.283-0.104-0.525-0.314-0.727
		c-0.209-0.201-0.473-0.302-0.79-0.302c-0.33,0-0.6,0.104-0.81,0.311c-0.209,0.208-0.35,0.574-0.422,1.099l-2.59-0.21
		c0.102-0.728,0.288-1.296,0.559-1.704s0.653-0.722,1.146-0.939c0.493-0.218,1.176-0.327,2.047-0.327
		c0.91,0,1.618,0.104,2.124,0.312c0.505,0.207,0.903,0.525,1.193,0.955c0.29,0.43,0.435,0.911,0.435,1.444
		c0,0.567-0.166,1.108-0.498,1.625c-0.333,0.517-0.937,1.083-1.813,1.701c-0.521,0.359-0.869,0.611-1.044,0.756
		c-0.176,0.144-0.382,0.332-0.619,0.564h4.037V248.401z"/>
	<path class="st2" d="M203.982,243.71c0-1.769,0.318-3.006,0.955-3.713c0.637-0.707,1.607-1.061,2.911-1.061
		c0.626,0,1.141,0.078,1.542,0.232s0.73,0.355,0.984,0.603c0.254,0.248,0.454,0.508,0.6,0.781c0.146,0.272,0.263,0.591,0.352,0.955
		c0.173,0.694,0.26,1.418,0.26,2.171c0,1.688-0.286,2.924-0.857,3.707s-1.555,1.174-2.952,1.174c-0.783,0-1.416-0.124-1.898-0.374
		s-0.878-0.616-1.187-1.099c-0.224-0.342-0.399-0.811-0.523-1.405C204.044,245.087,203.982,244.43,203.982,243.71z M206.546,243.717
		c0,1.185,0.104,1.994,0.314,2.428c0.209,0.434,0.513,0.651,0.911,0.651c0.262,0,0.49-0.093,0.682-0.276
		c0.193-0.185,0.334-0.476,0.426-0.873c0.091-0.397,0.136-1.018,0.136-1.86c0-1.235-0.105-2.065-0.314-2.491
		c-0.21-0.425-0.524-0.638-0.943-0.638c-0.427,0-0.736,0.217-0.927,0.65S206.546,242.545,206.546,243.717z"/>
	<path class="st2" d="M212.748,241.381c0-0.432,0.094-0.842,0.283-1.231c0.188-0.39,0.476-0.688,0.863-0.898
		c0.387-0.209,0.845-0.314,1.374-0.314c0.779,0,1.392,0.223,1.841,0.667s0.673,1.037,0.673,1.777c0,0.745-0.224,1.339-0.673,1.784
		c-0.449,0.443-1.062,0.666-1.841,0.666c-0.529,0-0.987-0.104-1.374-0.314c-0.388-0.209-0.675-0.509-0.863-0.898
		C212.842,242.229,212.748,241.816,212.748,241.381z M214.531,241.394c0,0.524,0.084,0.905,0.254,1.143
		c0.11,0.156,0.271,0.234,0.482,0.234s0.37-0.078,0.476-0.234c0.169-0.237,0.254-0.618,0.254-1.143c0-0.521-0.084-0.901-0.254-1.143
		c-0.106-0.152-0.265-0.229-0.476-0.229s-0.373,0.076-0.482,0.229C214.616,240.488,214.531,240.869,214.531,241.394z
		 M220.649,238.937h1.341l-5.376,9.941h-1.327L220.649,238.937z M219.457,246.415c0-0.437,0.093-0.848,0.279-1.235
		c0.186-0.387,0.474-0.687,0.863-0.897c0.389-0.212,0.846-0.318,1.371-0.318c0.783,0,1.398,0.224,1.847,0.67s0.673,1.04,0.673,1.781
		c0,0.74-0.224,1.334-0.673,1.78s-1.064,0.669-1.847,0.669c-0.525,0-0.982-0.105-1.371-0.316c-0.389-0.212-0.677-0.512-0.863-0.898
		C219.55,247.262,219.457,246.851,219.457,246.415z M221.241,246.427c0,0.525,0.084,0.906,0.254,1.143
		c0.106,0.152,0.265,0.229,0.476,0.229s0.373-0.076,0.482-0.229c0.169-0.236,0.254-0.617,0.254-1.143
		c0-0.524-0.084-0.907-0.254-1.148c-0.11-0.152-0.271-0.229-0.482-0.229s-0.37,0.078-0.476,0.234
		C221.325,245.521,221.241,245.902,221.241,246.427z"/>
	<path class="st2" d="M228.944,241.965c0.35,0.965,0.524,1.982,0.524,3.054c0,1.032-0.166,2.02-0.499,2.961
		c-0.332,0.941-0.909,1.994-1.729,3.158h-1.612c1.007-2.045,1.511-4.033,1.511-5.967c0-1.004-0.104-1.947-0.311-2.832
		c-0.246-1.041-0.646-2.175-1.2-3.402h1.612C228.027,239.991,228.595,241,228.944,241.965z"/>
</g>
<path class="st5" d="M257.151,108.561l15.563-7.872l-15.635-7.727L257.151,108.561z M230.635,103.482l29.092-0.132l-0.024-5.2
	l-29.092,0.132L230.635,103.482z"/>
<g>
	<path class="st6" d="M416.178,100.202L416.178,100.202c0-15.113-12.244-27.34-27.355-27.34c-15.097,0-27.34,12.227-27.34,27.34
		c0,15.096,12.244,27.355,27.34,27.355C403.934,127.557,416.178,115.298,416.178,100.202z"/>
	<path class="st2" d="M381.354,101.131L381.354,101.131l-1.234,1.843c-0.401-0.417-0.898-0.737-1.426-0.961l1.266-1.876
		C380.345,100.554,380.826,100.89,381.354,101.131z M390.44,92.396L390.44,92.396l1.267,1.876c0.384-0.417,0.865-0.754,1.395-0.978
		l-1.235-1.841C391.467,91.852,390.987,92.172,390.44,92.396z M386.033,94.144L386.033,94.144l1.171-1.747
		c-0.53-0.224-1.025-0.545-1.427-0.944l-1.186,1.777C385.136,93.439,385.617,93.744,386.033,94.144z M391.739,100.185
		L391.739,100.185l-1.267,1.843c0.547,0.224,1.027,0.562,1.412,0.961l1.265-1.841C392.621,100.922,392.14,100.586,391.739,100.185z
		 M387.236,101.996L387.236,101.996l-1.171-1.762c-0.399,0.399-0.88,0.722-1.425,0.946l1.168,1.762
		C386.21,102.541,386.706,102.221,387.236,101.996z M398.95,102.013L398.95,102.013l-1.171-1.747
		c-0.399,0.399-0.897,0.722-1.442,0.929l1.203,1.779C397.942,102.558,398.423,102.238,398.95,102.013z M388.823,85.249
		L388.823,85.249c-1.762,0-3.206,1.427-3.206,3.206c0,1.762,1.444,3.204,3.206,3.204c1.777,0,3.204-1.442,3.204-3.204
		C392.027,86.676,390.6,85.249,388.823,85.249z M380.281,105.972L380.281,105.972c0,1.762-1.442,3.204-3.205,3.204
		c-1.779,0-3.205-1.442-3.205-3.204c0-1.779,1.426-3.206,3.205-3.206C378.838,102.765,380.281,104.192,380.281,105.972z
		 M403.774,105.972L403.774,105.972c0,1.762-1.425,3.204-3.204,3.204c-1.762,0-3.206-1.442-3.206-3.204
		c0-1.779,1.444-3.206,3.206-3.206C402.349,102.765,403.774,104.192,403.774,105.972z M392.027,105.972L392.027,105.972
		c0,1.762-1.427,3.204-3.204,3.204c-1.762,0-3.206-1.442-3.206-3.204c0-1.779,1.444-3.206,3.206-3.206
		C390.6,102.765,392.027,104.192,392.027,105.972z M386.257,97.205L386.257,97.205c0,1.779-1.425,3.204-3.204,3.204
		c-1.763,0-3.205-1.425-3.205-3.204c0-1.762,1.442-3.204,3.205-3.204C384.833,94.001,386.257,95.443,386.257,97.205z
		 M398.006,97.205L398.006,97.205c0,1.779-1.427,3.204-3.206,3.204c-1.762,0-3.204-1.425-3.204-3.204
		c0-1.762,1.442-3.204,3.204-3.204C396.579,94.001,398.006,95.443,398.006,97.205z"/>
</g>
<path class="st5" d="M135.727,108.489l15.599-7.8l-15.599-7.8V108.489z M92.829,195.862h29.246c1.435,0,2.602-1.168,2.602-2.6
	V100.69l-2.602,2.6h16.252v-5.2h-16.252c-1.436,0-2.6,1.168-2.6,2.6v92.572l2.6-2.6H92.829V195.862z"/>
<g>
	<path class="st6" d="M848.623,100.202L848.623,100.202c0-15.113-12.244-27.34-27.355-27.34c-15.097,0-27.34,12.227-27.34,27.34
		c0,15.096,12.244,27.355,27.34,27.355C836.379,127.557,848.623,115.298,848.623,100.202z"/>
	<path class="st2" d="M832.389,93.022L832.389,93.022c0.946-1.634,0.385-3.719-1.25-4.663c-1.634-0.946-3.734-0.385-4.68,1.25
		l-7.82,13.541l-2.901-3.461c-1.217-1.459-3.38-1.634-4.823-0.434c-1.442,1.218-1.635,3.381-0.417,4.823l6.042,7.196
		c1.218,1.458,3.364,1.635,4.823,0.433c0.303-0.273,0.56-0.577,0.752-0.93l0.017,0.016L832.389,93.022z"/>
</g>
<path class="st5" d="M346.497,92.89l15.599,7.8l-15.599,7.8V92.89z M327.684,98.09h21.413v5.2h-21.413V98.09z"/>
<path class="st5" d="M525.973,92.89l15.599,7.8l-15.599,7.8V92.89z M503.609,98.09h24.964v5.2h-24.964V98.09z"/>
<g>
	<path class="st3" d="M451.012,59.567l2.946-0.185c0.064,0.479,0.194,0.843,0.39,1.094c0.319,0.406,0.775,0.608,1.367,0.608
		c0.442,0,0.783-0.104,1.022-0.311s0.359-0.448,0.359-0.721c0-0.26-0.114-0.492-0.342-0.697s-0.756-0.399-1.586-0.581
		c-1.358-0.305-2.327-0.711-2.905-1.217c-0.583-0.506-0.875-1.151-0.875-1.935c0-0.515,0.149-1.001,0.448-1.459
		s0.748-0.818,1.347-1.08s1.421-0.393,2.464-0.393c1.281,0,2.257,0.238,2.929,0.714s1.072,1.234,1.2,2.273l-2.919,0.171
		c-0.078-0.451-0.24-0.779-0.489-0.984s-0.591-0.308-1.029-0.308c-0.36,0-0.631,0.076-0.813,0.229s-0.273,0.338-0.273,0.557
		c0,0.16,0.075,0.303,0.226,0.431c0.146,0.132,0.492,0.255,1.039,0.369c1.354,0.292,2.323,0.587,2.909,0.885
		s1.012,0.669,1.278,1.111s0.4,0.937,0.4,1.483c0,0.643-0.178,1.235-0.533,1.777s-0.852,0.954-1.49,1.234s-1.442,0.42-2.413,0.42
		c-1.705,0-2.885-0.328-3.541-0.984S451.098,60.579,451.012,59.567z"/>
	<path class="st3" d="M468.334,58.781l2.714,0.82c-0.182,0.761-0.469,1.397-0.861,1.907s-0.878,0.896-1.459,1.155
		s-1.32,0.39-2.218,0.39c-1.089,0-1.979-0.158-2.669-0.475s-1.286-0.874-1.788-1.67s-0.752-1.817-0.752-3.061
		c0-1.658,0.441-2.932,1.323-3.822c0.882-0.89,2.129-1.335,3.743-1.335c1.262,0,2.255,0.255,2.977,0.766s1.259,1.294,1.61,2.352
		l-2.734,0.608c-0.096-0.305-0.196-0.529-0.301-0.67c-0.173-0.237-0.385-0.419-0.636-0.547s-0.531-0.191-0.841-0.191
		c-0.702,0-1.24,0.282-1.613,0.847c-0.283,0.419-0.424,1.077-0.424,1.973c0,1.111,0.168,1.872,0.506,2.284
		c0.337,0.412,0.811,0.618,1.422,0.618c0.592,0,1.04-0.167,1.343-0.499S468.197,59.414,468.334,58.781z"/>
	<path class="st3" d="M472.162,57.878c0-1.636,0.456-2.91,1.367-3.821s2.181-1.367,3.808-1.367c1.668,0,2.953,0.448,3.855,1.343
		s1.354,2.15,1.354,3.763c0,1.171-0.197,2.132-0.591,2.881s-0.964,1.333-1.709,1.75s-1.674,0.625-2.786,0.625
		c-1.13,0-2.065-0.18-2.806-0.54s-1.341-0.93-1.801-1.709S472.162,59.05,472.162,57.878z M475.259,57.892
		c0,1.012,0.188,1.739,0.564,2.181s0.888,0.663,1.535,0.663c0.666,0,1.18-0.216,1.545-0.649s0.547-1.21,0.547-2.331
		c0-0.943-0.19-1.633-0.571-2.068s-0.896-0.653-1.548-0.653c-0.625,0-1.125,0.221-1.504,0.663S475.259,56.871,475.259,57.892z"/>
	<path class="st3" d="M484.255,62.882V52.861h5.161c0.957,0,1.688,0.082,2.194,0.246s0.914,0.468,1.224,0.913
		s0.465,0.985,0.465,1.624c0,0.556-0.119,1.036-0.355,1.439c-0.237,0.403-0.563,0.73-0.979,0.981
		c-0.264,0.16-0.627,0.292-1.087,0.396c0.369,0.123,0.638,0.247,0.806,0.37c0.114,0.082,0.279,0.257,0.495,0.527
		c0.216,0.269,0.361,0.477,0.434,0.623l1.5,2.904h-3.499l-1.655-3.063c-0.209-0.396-0.396-0.654-0.561-0.772
		c-0.223-0.155-0.476-0.232-0.759-0.232h-0.273v4.067H484.255z M487.365,56.921h1.306c0.141,0,0.415-0.045,0.82-0.137
		c0.205-0.041,0.373-0.146,0.502-0.314s0.195-0.362,0.195-0.581c0-0.324-0.103-0.572-0.308-0.745s-0.59-0.26-1.155-0.26h-1.36
		V56.921z"/>
	<path class="st3" d="M495.097,52.861h8.299V55H498.2v1.593h4.819v2.044H498.2v1.976h5.346v2.27h-8.449V52.861z"/>
</g>
<g>
	<path class="st3" d="M782.862,45.483h3.237l2.255,7.212l2.228-7.212h3.143l-3.721,10.021h-3.356L782.862,45.483z"/>
	<path class="st3" d="M800.897,53.851h-3.516l-0.488,1.654h-3.162l3.767-10.021h3.378l3.766,10.021h-3.243L800.897,53.851z
		 M800.255,51.684l-1.106-3.603l-1.094,3.603H800.255z"/>
	<path class="st3" d="M805.626,45.483h3.097v7.554h4.833v2.468h-7.93V45.483z"/>
	<path class="st3" d="M815.087,45.483h3.104v10.021h-3.104V45.483z"/>
	<path class="st3" d="M820.453,45.483h4.601c0.907,0,1.64,0.123,2.198,0.369c0.558,0.246,1.02,0.599,1.384,1.06
		s0.629,0.996,0.793,1.606s0.246,1.258,0.246,1.941c0,1.071-0.122,1.901-0.366,2.492c-0.243,0.59-0.582,1.084-1.015,1.483
		s-0.897,0.664-1.395,0.796c-0.679,0.182-1.294,0.273-1.846,0.273h-4.601V45.483z M823.549,47.753v5.476h0.759
		c0.647,0,1.107-0.072,1.381-0.215s0.487-0.394,0.643-0.752s0.232-0.938,0.232-1.74c0-1.062-0.173-1.789-0.52-2.181
		s-0.921-0.588-1.723-0.588H823.549z"/>
	<path class="st3" d="M837.463,53.851h-3.516l-0.488,1.654h-3.162l3.767-10.021h3.378l3.766,10.021h-3.243L837.463,53.851z
		 M836.82,51.684l-1.106-3.603l-1.094,3.603H836.82z"/>
	<path class="st3" d="M841.487,45.483h9.413v2.475h-3.158v7.547h-3.097v-7.547h-3.158V45.483z"/>
	<path class="st3" d="M852.295,45.483h8.299v2.14h-5.195v1.593h4.819v2.044h-4.819v1.976h5.346v2.27h-8.449V45.483z"/>
</g>
<g>
	<path class="st6" d="M327.782,100.202L327.782,100.202c0-15.113-12.244-27.34-27.355-27.34c-15.097,0-27.34,12.227-27.34,27.34
		c0,15.096,12.244,27.355,27.34,27.355C315.538,127.557,327.782,115.298,327.782,100.202z"/>
	<path class="st2" d="M311.757,90.378L311.757,90.378c0-3.749-10.177-3.845-11.33-3.845s-11.331,0.096-11.331,3.845
		c0,0.481,0.176,0.897,0.481,1.282l7.661,8.589l0.624,12.405c0.032,0.513,0.352,0.945,0.818,1.138c0.16,0.048,0.305,0.08,0.466,0.08
		c0.335,0,0.656-0.128,0.912-0.369l2.565-2.564c0.224-0.225,0.352-0.529,0.367-0.833l0.577-9.793l7.709-8.653
		C311.58,91.275,311.757,90.858,311.757,90.378z M300.427,92.973L300.427,92.973c-5.193,0-9.407-1.168-9.407-2.595
		c0-1.442,4.215-2.612,9.407-2.612c5.191,0,9.408,1.171,9.408,2.612C309.835,91.805,305.618,92.973,300.427,92.973z"/>
</g>
<g>
	<path class="st3" d="M269.872,149.757l2.946-0.185c0.064,0.479,0.194,0.843,0.39,1.094c0.319,0.406,0.775,0.608,1.367,0.608
		c0.442,0,0.783-0.104,1.022-0.311s0.359-0.448,0.359-0.721c0-0.26-0.114-0.492-0.342-0.697s-0.756-0.399-1.586-0.581
		c-1.358-0.305-2.327-0.711-2.905-1.217c-0.583-0.506-0.875-1.151-0.875-1.935c0-0.515,0.149-1.001,0.448-1.459
		s0.748-0.818,1.347-1.08s1.421-0.393,2.464-0.393c1.281,0,2.257,0.238,2.929,0.714s1.072,1.234,1.2,2.273l-2.919,0.171
		c-0.078-0.451-0.24-0.779-0.489-0.984s-0.591-0.308-1.029-0.308c-0.36,0-0.631,0.076-0.813,0.229s-0.273,0.338-0.273,0.557
		c0,0.16,0.075,0.303,0.226,0.431c0.146,0.132,0.492,0.255,1.039,0.369c1.354,0.292,2.323,0.587,2.909,0.885
		s1.012,0.669,1.278,1.111s0.4,0.937,0.4,1.483c0,0.643-0.178,1.235-0.533,1.777s-0.852,0.954-1.49,1.234s-1.442,0.42-2.413,0.42
		c-1.705,0-2.885-0.328-3.541-0.984S269.959,150.769,269.872,149.757z"/>
	<path class="st3" d="M280.516,143.051h8.299v2.14h-5.195v1.593h4.819v2.044h-4.819v1.976h5.346v2.27h-8.449V143.051z"/>
	<path class="st3" d="M290.633,143.051h3.097v7.554h4.833v2.468h-7.93V143.051z"/>
	<path class="st3" d="M299.964,143.051h8.299v2.14h-5.195v1.593h4.819v2.044h-4.819v1.976h5.346v2.27h-8.449V143.051z"/>
	<path class="st3" d="M316.753,148.971l2.714,0.82c-0.182,0.761-0.469,1.397-0.861,1.907s-0.878,0.896-1.459,1.155
		s-1.32,0.39-2.218,0.39c-1.089,0-1.979-0.158-2.669-0.475s-1.286-0.874-1.788-1.67s-0.752-1.817-0.752-3.061
		c0-1.658,0.441-2.932,1.323-3.822c0.882-0.89,2.129-1.335,3.743-1.335c1.262,0,2.255,0.255,2.977,0.766s1.259,1.294,1.61,2.352
		l-2.734,0.608c-0.096-0.305-0.196-0.529-0.301-0.67c-0.173-0.237-0.385-0.419-0.636-0.547s-0.531-0.191-0.841-0.191
		c-0.702,0-1.24,0.282-1.613,0.847c-0.283,0.419-0.424,1.077-0.424,1.973c0,1.111,0.168,1.872,0.506,2.284
		c0.337,0.412,0.811,0.618,1.422,0.618c0.592,0,1.04-0.167,1.343-0.499S316.616,149.604,316.753,148.971z"/>
	<path class="st3" d="M320.267,143.051h9.413v2.475h-3.158v7.547h-3.097v-7.547h-3.158V143.051z"/>
</g>
<g>
	<path class="st3" d="M255.035,160.418h3.237l2.255,7.212l2.227-7.212h3.143l-3.721,10.021h-3.356L255.035,160.418z"/>
	<path class="st3" d="M273.07,168.786h-3.516l-0.489,1.654h-3.162l3.767-10.021h3.378l3.766,10.021h-3.243L273.07,168.786z
		 M272.427,166.619l-1.106-3.603l-1.095,3.603H272.427z"/>
	<path class="st3" d="M277.84,170.44v-10.021h5.161c0.957,0,1.688,0.082,2.194,0.246s0.914,0.468,1.224,0.913
		s0.465,0.985,0.465,1.624c0,0.556-0.119,1.036-0.355,1.439c-0.237,0.403-0.563,0.73-0.979,0.981
		c-0.264,0.16-0.627,0.292-1.087,0.396c0.369,0.123,0.638,0.247,0.806,0.37c0.114,0.082,0.279,0.257,0.495,0.527
		c0.216,0.269,0.361,0.477,0.434,0.623l1.5,2.904h-3.499l-1.655-3.063c-0.209-0.396-0.396-0.654-0.561-0.772
		c-0.223-0.155-0.476-0.232-0.759-0.232h-0.273v4.067H277.84z M280.95,164.479h1.306c0.141,0,0.415-0.045,0.82-0.137
		c0.205-0.041,0.373-0.146,0.502-0.314s0.195-0.362,0.195-0.581c0-0.324-0.103-0.572-0.308-0.745s-0.59-0.26-1.155-0.26h-1.36
		V164.479z"/>
	<path class="st3" d="M288.811,160.418h3.104v10.021h-3.104V160.418z"/>
	<path class="st3" d="M300.298,168.786h-3.516l-0.489,1.654h-3.162l3.767-10.021h3.378l3.766,10.021h-3.243L300.298,168.786z
		 M299.655,166.619l-1.106-3.603l-1.095,3.603H299.655z"/>
	<path class="st3" d="M305.033,160.418h5.797c0.966,0,1.708,0.239,2.225,0.718s0.776,1.071,0.776,1.777
		c0,0.592-0.185,1.101-0.554,1.524c-0.246,0.283-0.606,0.506-1.08,0.67c0.72,0.173,1.25,0.471,1.589,0.892s0.509,0.951,0.509,1.589
		c0,0.52-0.121,0.987-0.362,1.401s-0.572,0.743-0.991,0.984c-0.26,0.15-0.652,0.26-1.176,0.328c-0.697,0.091-1.16,0.137-1.388,0.137
		h-5.346V160.418z M308.157,164.349h1.347c0.483,0,0.819-0.083,1.008-0.25s0.284-0.407,0.284-0.721c0-0.292-0.095-0.52-0.284-0.684
		s-0.519-0.246-0.988-0.246h-1.367V164.349z M308.157,168.287h1.579c0.533,0,0.909-0.095,1.128-0.284s0.328-0.443,0.328-0.762
		c0-0.296-0.108-0.534-0.325-0.714s-0.596-0.27-1.138-0.27h-1.572V168.287z"/>
	<path class="st3" d="M315.916,160.418h3.097v7.554h4.833v2.468h-7.93V160.418z"/>
	<path class="st3" d="M325.247,160.418h8.299v2.14h-5.195v1.593h4.819v2.044h-4.819v1.976h5.346v2.27h-8.449V160.418z"/>
	<path class="st3" d="M334.824,167.125l2.946-0.185c0.064,0.479,0.194,0.843,0.39,1.094c0.319,0.406,0.775,0.608,1.367,0.608
		c0.442,0,0.783-0.104,1.022-0.311s0.359-0.448,0.359-0.721c0-0.26-0.114-0.492-0.342-0.697s-0.756-0.399-1.586-0.581
		c-1.358-0.305-2.327-0.711-2.905-1.217c-0.583-0.506-0.875-1.151-0.875-1.935c0-0.515,0.149-1.001,0.448-1.459
		s0.748-0.818,1.347-1.08s1.421-0.393,2.464-0.393c1.281,0,2.257,0.238,2.929,0.714s1.072,1.234,1.2,2.273l-2.919,0.171
		c-0.078-0.451-0.24-0.779-0.489-0.984s-0.591-0.308-1.029-0.308c-0.36,0-0.631,0.076-0.813,0.229s-0.273,0.338-0.273,0.557
		c0,0.16,0.075,0.303,0.226,0.431c0.146,0.132,0.492,0.255,1.039,0.369c1.354,0.292,2.323,0.587,2.909,0.885
		s1.012,0.669,1.278,1.111s0.4,0.937,0.4,1.483c0,0.643-0.178,1.235-0.533,1.777s-0.852,0.954-1.49,1.234s-1.442,0.42-2.413,0.42
		c-1.705,0-2.885-0.328-3.541-0.984S334.91,168.136,334.824,167.125z"/>
</g>
<path class="st5" d="M432.763,92.89l15.599,7.8l-15.599,7.8V92.89z M416.08,98.09h19.282v5.2H416.08V98.09z"/>
<g>
	<path class="st6" d="M503.707,100.202L503.707,100.202c0-15.113-12.244-27.34-27.355-27.34c-15.097,0-27.34,12.227-27.34,27.34
		c0,15.096,12.244,27.355,27.34,27.355C491.463,127.557,503.707,115.298,503.707,100.202z"/>
	<path class="st2" d="M465.951,113.022L465.951,113.022c-0.352,0-0.657-0.208-0.785-0.529c-0.128-0.337-0.064-0.705,0.192-0.945
		l11.283-10.947l-11.299-11.779c-0.24-0.239-0.304-0.609-0.176-0.929c0.144-0.303,0.449-0.513,0.785-0.513h20.657
		c0.481,0,0.865,0.385,0.865,0.85v4.279c0,0.335-0.207,0.656-0.528,0.784c-0.113,0.049-0.224,0.064-0.338,0.064
		c-0.224,0-0.431-0.079-0.609-0.239l-2.741-2.741h-8.75l8.013,8.382c0.338,0.335,0.32,0.865-0.015,1.2l-9.183,9.007h9.935
		l2.741-2.756c0.177-0.161,0.384-0.24,0.609-0.24c0.113,0,0.224,0.015,0.337,0.064c0.32,0.128,0.528,0.448,0.528,0.785v5.352
		c0,0.465-0.384,0.85-0.865,0.85L465.951,113.022z"/>
</g>
<rect x="151.326" y="316.912" class="st0" width="80.596" height="58.064"/>
<path class="st1" d="M151.326,324.17h80.596 M161.401,316.912v58.064"/>
<g>
	<path class="st2" d="M177.019,336.585h9.413v2.475h-3.158v7.547h-3.097v-7.547h-3.158V336.585z"/>
	<path class="st2" d="M187.827,336.585h8.299v2.14h-5.195v1.593h4.819v2.044h-4.819v1.976h5.346v2.27h-8.449V336.585z"/>
	<path class="st2" d="M197.404,343.291l2.946-0.185c0.064,0.479,0.194,0.843,0.39,1.094c0.319,0.405,0.775,0.608,1.367,0.608
		c0.442,0,0.783-0.104,1.022-0.312c0.239-0.207,0.359-0.447,0.359-0.721c0-0.26-0.114-0.492-0.342-0.697s-0.756-0.398-1.586-0.581
		c-1.358-0.306-2.327-0.711-2.905-1.217c-0.583-0.506-0.875-1.15-0.875-1.935c0-0.515,0.149-1.002,0.448-1.459
		c0.298-0.459,0.748-0.818,1.347-1.08c0.599-0.263,1.421-0.394,2.464-0.394c1.281,0,2.257,0.238,2.929,0.714
		c0.672,0.477,1.072,1.234,1.2,2.273l-2.919,0.171c-0.078-0.451-0.24-0.779-0.489-0.984s-0.591-0.308-1.029-0.308
		c-0.36,0-0.631,0.076-0.813,0.229c-0.182,0.153-0.273,0.339-0.273,0.558c0,0.159,0.075,0.303,0.226,0.431
		c0.146,0.132,0.492,0.255,1.039,0.369c1.354,0.292,2.323,0.587,2.909,0.885c0.585,0.299,1.012,0.669,1.278,1.111
		s0.4,0.937,0.4,1.483c0,0.643-0.178,1.235-0.533,1.777s-0.852,0.954-1.49,1.233c-0.638,0.281-1.442,0.421-2.413,0.421
		c-1.705,0-2.885-0.328-3.541-0.984S197.49,344.303,197.404,343.291z"/>
	<path class="st2" d="M207.35,336.585h9.413v2.475h-3.158v7.547h-3.097v-7.547h-3.158V336.585z"/>
</g>
<g>
	<path class="st2" d="M166.683,351.031h1.612c-0.554,1.228-0.954,2.361-1.2,3.402c-0.208,0.885-0.311,1.828-0.311,2.832
		c0,1.934,0.503,3.922,1.511,5.967h-1.612c-0.821-1.164-1.397-2.217-1.73-3.158c-0.332-0.941-0.498-1.929-0.498-2.961
		c0-1.071,0.175-2.089,0.523-3.054C165.328,353.095,165.896,352.086,166.683,351.031z"/>
	<path class="st2" d="M177.068,357.767h-5.18c0.046,0.415,0.159,0.724,0.336,0.927c0.25,0.292,0.576,0.438,0.978,0.438
		c0.254,0,0.495-0.063,0.724-0.189c0.14-0.081,0.29-0.223,0.451-0.426l2.545,0.234c-0.389,0.678-0.859,1.163-1.409,1.457
		s-1.339,0.441-2.368,0.441c-0.893,0-1.595-0.126-2.107-0.378s-0.937-0.651-1.272-1.199c-0.337-0.548-0.505-1.192-0.505-1.933
		c0-1.055,0.337-1.907,1.013-2.559c0.675-0.651,1.607-0.978,2.796-0.978c0.965,0,1.727,0.146,2.285,0.438
		c0.559,0.291,0.984,0.715,1.276,1.27c0.292,0.554,0.438,1.275,0.438,2.164V357.767z M174.44,356.529
		c-0.051-0.5-0.185-0.857-0.403-1.073c-0.218-0.216-0.504-0.323-0.86-0.323c-0.411,0-0.738,0.162-0.984,0.488
		c-0.157,0.203-0.256,0.506-0.298,0.908H174.44z"/>
	<path class="st2" d="M178.261,357.906h2.761v2.59h-2.761V357.906z"/>
	<path class="st2" d="M187.275,353.755h2.418v6.366l0.006,0.299c0,0.423-0.09,0.826-0.27,1.209c-0.18,0.383-0.419,0.693-0.718,0.93
		c-0.298,0.237-0.677,0.409-1.136,0.515c-0.459,0.105-0.985,0.159-1.578,0.159c-1.354,0-2.284-0.203-2.79-0.609
		c-0.506-0.406-0.759-0.95-0.759-1.632c0-0.085,0.004-0.199,0.013-0.343l2.507,0.285c0.063,0.233,0.161,0.395,0.292,0.482
		c0.19,0.132,0.43,0.197,0.717,0.197c0.373,0,0.65-0.1,0.835-0.299c0.184-0.198,0.276-0.545,0.276-1.041v-1.021
		c-0.254,0.301-0.508,0.519-0.762,0.654c-0.398,0.211-0.827,0.316-1.289,0.316c-0.901,0-1.629-0.393-2.184-1.18
		c-0.394-0.559-0.59-1.298-0.59-2.216c0-1.05,0.254-1.85,0.762-2.399s1.172-0.825,1.993-0.825c0.525,0,0.958,0.089,1.298,0.267
		c0.34,0.178,0.659,0.472,0.955,0.883V353.755z M184.843,357.023c0,0.487,0.104,0.848,0.311,1.083
		c0.208,0.234,0.48,0.353,0.819,0.353c0.322,0,0.591-0.122,0.809-0.365c0.218-0.243,0.327-0.61,0.327-1.102
		s-0.114-0.866-0.343-1.127c-0.229-0.26-0.508-0.391-0.838-0.391s-0.594,0.12-0.79,0.359
		C184.942,356.073,184.843,356.47,184.843,357.023z"/>
	<path class="st2" d="M191.261,357.906h2.761v2.59h-2.761V357.906z"/>
	<path class="st2" d="M202.903,360.496h-7.757c0.089-0.766,0.358-1.486,0.81-2.161c0.45-0.675,1.296-1.472,2.536-2.39
		c0.757-0.563,1.242-0.99,1.454-1.283c0.211-0.291,0.317-0.568,0.317-0.831c0-0.283-0.104-0.525-0.314-0.727
		c-0.209-0.201-0.473-0.302-0.79-0.302c-0.33,0-0.6,0.104-0.81,0.311c-0.209,0.208-0.35,0.574-0.422,1.099l-2.59-0.21
		c0.102-0.728,0.288-1.296,0.559-1.704s0.653-0.722,1.146-0.939c0.493-0.218,1.176-0.327,2.047-0.327
		c0.91,0,1.618,0.104,2.124,0.312c0.505,0.207,0.903,0.525,1.193,0.955c0.29,0.43,0.435,0.911,0.435,1.444
		c0,0.567-0.166,1.108-0.498,1.625c-0.333,0.517-0.937,1.083-1.813,1.701c-0.521,0.359-0.869,0.611-1.044,0.756
		c-0.176,0.144-0.382,0.332-0.619,0.564h4.037V360.496z"/>
	<path class="st2" d="M204.007,355.805c0-1.769,0.318-3.006,0.955-3.713c0.637-0.707,1.607-1.061,2.911-1.061
		c0.626,0,1.141,0.078,1.542,0.232s0.73,0.355,0.984,0.603c0.254,0.248,0.454,0.508,0.6,0.781c0.146,0.272,0.263,0.591,0.352,0.955
		c0.173,0.694,0.26,1.418,0.26,2.171c0,1.688-0.286,2.924-0.857,3.707s-1.555,1.174-2.952,1.174c-0.783,0-1.416-0.124-1.898-0.374
		s-0.878-0.616-1.187-1.099c-0.224-0.342-0.399-0.811-0.523-1.405C204.07,357.182,204.007,356.524,204.007,355.805z
		 M206.571,355.812c0,1.185,0.104,1.994,0.314,2.428c0.209,0.434,0.513,0.651,0.911,0.651c0.262,0,0.49-0.093,0.682-0.276
		c0.193-0.185,0.334-0.476,0.426-0.873c0.091-0.397,0.136-1.018,0.136-1.86c0-1.235-0.105-2.065-0.314-2.491
		c-0.21-0.425-0.524-0.638-0.943-0.638c-0.427,0-0.736,0.217-0.927,0.65S206.571,354.64,206.571,355.812z"/>
	<path class="st2" d="M212.773,353.476c0-0.432,0.094-0.842,0.283-1.231c0.188-0.39,0.476-0.688,0.863-0.898
		c0.387-0.209,0.845-0.314,1.374-0.314c0.779,0,1.392,0.223,1.841,0.667s0.673,1.037,0.673,1.777c0,0.745-0.224,1.339-0.673,1.784
		c-0.449,0.443-1.062,0.666-1.841,0.666c-0.529,0-0.987-0.104-1.374-0.314c-0.388-0.209-0.675-0.509-0.863-0.898
		C212.867,354.324,212.773,353.911,212.773,353.476z M214.557,353.488c0,0.524,0.084,0.905,0.254,1.143
		c0.11,0.156,0.271,0.234,0.482,0.234s0.37-0.078,0.476-0.234c0.169-0.237,0.254-0.618,0.254-1.143c0-0.521-0.084-0.901-0.254-1.143
		c-0.106-0.152-0.265-0.229-0.476-0.229s-0.373,0.076-0.482,0.229C214.641,352.583,214.557,352.964,214.557,353.488z
		 M220.674,351.031h1.341l-5.376,9.941h-1.327L220.674,351.031z M219.483,358.51c0-0.437,0.093-0.848,0.279-1.235
		c0.186-0.387,0.474-0.687,0.863-0.897c0.389-0.212,0.846-0.318,1.371-0.318c0.783,0,1.398,0.224,1.847,0.67s0.673,1.04,0.673,1.781
		c0,0.74-0.224,1.334-0.673,1.78s-1.064,0.669-1.847,0.669c-0.525,0-0.982-0.105-1.371-0.316c-0.389-0.212-0.677-0.512-0.863-0.898
		C219.576,359.356,219.483,358.945,219.483,358.51z M221.266,358.521c0,0.525,0.084,0.906,0.254,1.143
		c0.106,0.152,0.265,0.229,0.476,0.229s0.373-0.076,0.482-0.229c0.169-0.236,0.254-0.617,0.254-1.143
		c0-0.524-0.084-0.907-0.254-1.148c-0.11-0.152-0.271-0.229-0.482-0.229s-0.37,0.078-0.476,0.234
		C221.351,357.616,221.266,357.997,221.266,358.521z"/>
	<path class="st2" d="M228.969,354.06c0.35,0.965,0.524,1.982,0.524,3.054c0,1.032-0.166,2.02-0.499,2.961
		c-0.332,0.941-0.909,1.994-1.729,3.158h-1.612c1.007-2.045,1.511-4.033,1.511-5.967c0-1.004-0.104-1.947-0.311-2.832
		c-0.246-1.041-0.646-2.175-1.2-3.402h1.612C228.052,352.086,228.62,353.095,228.969,354.06z"/>
</g>
<path class="st5" d="M484.134,143.154l-7.8-15.599l-7.8,15.599H484.134z M231.489,236.268h244.845c1.432,0,2.6-1.155,2.6-2.6
	v-93.114h-5.2v93.114l2.6-2.6H231.489V236.268z"/>
<path class="st5" d="M135.727,226.266l15.599,7.8l-15.599,7.8V226.266z M92.829,190.818h29.246c1.435,0,2.602,1.168,2.602,2.6
	v40.647l-2.602-2.6h16.252v5.2h-16.252c-1.436,0-2.6-1.168-2.6-2.6v-40.647l2.6,2.6H92.829V190.818z"/>
<path class="st5" d="M135.727,338.205l15.599,7.8l-15.599,7.8V338.205z M92.829,190.818h29.246c1.435,0,2.602,1.168,2.602,2.6
	v152.586l-2.602-2.6h16.252v5.2h-16.252c-1.436,0-2.6-1.168-2.6-2.6V193.418l2.6,2.6H92.829V190.818z"/>
<g>
	<path class="st6" d="M596.436,100.202L596.436,100.202c0-15.113-12.244-27.34-27.355-27.34c-15.097,0-27.34,12.227-27.34,27.34
		c0,15.096,12.244,27.355,27.34,27.355C584.192,127.557,596.436,115.298,596.436,100.202z"/>
	<path class="st2" d="M582.75,110.666L582.75,110.666c0,0.593-0.464,1.074-1.057,1.074l-25.224,0c-0.577,0-1.058-0.481-1.058-1.074
		c0-0.593,0.481-1.058,1.058-1.058h25.224C582.286,109.609,582.75,110.074,582.75,110.666z M563.952,105.331L563.952,105.331
		c0,1.409-1.138,2.563-2.564,2.563c-1.41,0-2.564-1.154-2.564-2.563v-7.692c0-1.427,1.154-2.565,2.564-2.565
		c1.426,0,2.564,1.139,2.564,2.565V105.331z M569.081,88.663L569.081,88.663c-1.41,0-2.565,1.139-2.565,2.565v14.103
		c0,1.409,1.156,2.563,2.565,2.563c1.425,0,2.563-1.154,2.563-2.563V91.228C571.644,89.801,570.505,88.663,569.081,88.663z
		 M576.773,84.384L576.773,84.384c-1.41,0-2.565,1.153-2.565,2.565l0,18.381c0,1.409,1.156,2.563,2.565,2.563
		c1.427,0,2.563-1.154,2.563-2.563V86.949C579.336,85.537,578.2,84.384,576.773,84.384z"/>
</g>
<g>
	<path class="st3" d="M515.763,148.554h-2.973v-2.29c0-0.843,0.175-1.508,0.526-1.996c0.351-0.488,0.952-0.918,1.804-1.292
		l0.643,1.217c-0.523,0.246-0.887,0.491-1.086,0.735c-0.201,0.244-0.313,0.532-0.336,0.865h1.422V148.554z M519.23,148.554h-2.975
		v-2.29c0-0.843,0.176-1.508,0.527-1.996c0.35-0.488,0.951-0.918,1.805-1.292l0.643,1.217c-0.525,0.246-0.887,0.491-1.088,0.735
		c-0.199,0.244-0.313,0.532-0.334,0.865h1.422V148.554z"/>
	<path class="st3" d="M519.899,149.853l2.946-0.185c0.063,0.479,0.193,0.843,0.39,1.094c0.319,0.406,0.774,0.608,1.367,0.608
		c0.442,0,0.782-0.104,1.022-0.311c0.238-0.208,0.358-0.448,0.358-0.721c0-0.26-0.114-0.492-0.342-0.697s-0.757-0.399-1.586-0.581
		c-1.358-0.305-2.326-0.711-2.905-1.217c-0.583-0.506-0.875-1.151-0.875-1.935c0-0.515,0.149-1.001,0.447-1.459
		c0.299-0.458,0.748-0.818,1.348-1.08c0.599-0.262,1.42-0.393,2.464-0.393c1.28,0,2.257,0.238,2.929,0.714
		c0.673,0.476,1.072,1.234,1.2,2.273l-2.919,0.171c-0.077-0.451-0.24-0.779-0.488-0.984c-0.249-0.205-0.592-0.308-1.029-0.308
		c-0.36,0-0.631,0.076-0.813,0.229s-0.273,0.338-0.273,0.557c0,0.16,0.075,0.303,0.226,0.431c0.146,0.132,0.492,0.255,1.039,0.369
		c1.354,0.292,2.323,0.587,2.908,0.885c0.586,0.298,1.012,0.669,1.279,1.111c0.266,0.442,0.399,0.937,0.399,1.483
		c0,0.643-0.178,1.235-0.533,1.777s-0.853,0.954-1.49,1.234s-1.442,0.42-2.413,0.42c-1.704,0-2.885-0.328-3.541-0.984
		S519.986,150.865,519.899,149.853z"/>
	<path class="st3" d="M529.517,143.147h2.941l1.059,5.61l1.55-5.61h2.931l1.554,5.603l1.061-5.603h2.926l-2.209,10.021h-3.037
		l-1.758-6.31l-1.75,6.31h-3.037L529.517,143.147z"/>
	<path class="st3" d="M544.543,143.147h8.299v2.14h-5.195v1.593h4.819v2.044h-4.819v1.976h5.346v2.27h-8.449V143.147z"/>
	<path class="st3" d="M554.653,143.147h8.299v2.14h-5.195v1.593h4.819v2.044h-4.819v1.976h5.346v2.27h-8.449V143.147z"/>
	<path class="st3" d="M564.066,143.147h9.413v2.475h-3.158v7.547h-3.097v-7.547h-3.158V143.147z"/>
	<path class="st3" d="M579.009,149.853l2.946-0.185c0.063,0.479,0.193,0.843,0.39,1.094c0.319,0.406,0.774,0.608,1.367,0.608
		c0.442,0,0.782-0.104,1.022-0.311c0.238-0.208,0.358-0.448,0.358-0.721c0-0.26-0.114-0.492-0.342-0.697s-0.757-0.399-1.586-0.581
		c-1.358-0.305-2.326-0.711-2.905-1.217c-0.583-0.506-0.875-1.151-0.875-1.935c0-0.515,0.149-1.001,0.447-1.459
		c0.299-0.458,0.748-0.818,1.348-1.08c0.599-0.262,1.42-0.393,2.464-0.393c1.28,0,2.257,0.238,2.929,0.714
		c0.673,0.476,1.072,1.234,1.2,2.273l-2.919,0.171c-0.077-0.451-0.24-0.779-0.488-0.984c-0.249-0.205-0.592-0.308-1.029-0.308
		c-0.36,0-0.631,0.076-0.813,0.229s-0.273,0.338-0.273,0.557c0,0.16,0.075,0.303,0.226,0.431c0.146,0.132,0.492,0.255,1.039,0.369
		c1.354,0.292,2.323,0.587,2.908,0.885c0.586,0.298,1.012,0.669,1.279,1.111c0.266,0.442,0.399,0.937,0.399,1.483
		c0,0.643-0.178,1.235-0.533,1.777s-0.853,0.954-1.49,1.234s-1.442,0.42-2.413,0.42c-1.704,0-2.885-0.328-3.541-0.984
		S579.096,150.865,579.009,149.853z"/>
	<path class="st3" d="M589.646,143.147h5.147c1.121,0,1.961,0.267,2.519,0.8c0.559,0.533,0.838,1.292,0.838,2.276
		c0,1.012-0.305,1.802-0.912,2.372c-0.609,0.57-1.537,0.854-2.786,0.854h-1.695v3.719h-3.11V143.147z M592.757,147.419h0.759
		c0.597,0,1.017-0.104,1.258-0.311s0.362-0.473,0.362-0.796c0-0.314-0.104-0.581-0.314-0.8s-0.604-0.328-1.183-0.328h-0.882V147.419
		z"/>
	<path class="st3" d="M599.381,148.165c0-1.636,0.456-2.91,1.367-3.821s2.181-1.367,3.808-1.367c1.668,0,2.953,0.448,3.855,1.343
		s1.354,2.15,1.354,3.763c0,1.171-0.197,2.132-0.592,2.881c-0.394,0.75-0.963,1.333-1.709,1.75
		c-0.744,0.417-1.673,0.625-2.785,0.625c-1.13,0-2.065-0.18-2.807-0.54c-0.74-0.36-1.341-0.93-1.801-1.709
		S599.381,149.336,599.381,148.165z M602.477,148.178c0,1.012,0.188,1.739,0.564,2.181c0.375,0.442,0.887,0.663,1.534,0.663
		c0.665,0,1.181-0.216,1.545-0.649s0.547-1.21,0.547-2.331c0-0.943-0.19-1.633-0.571-2.068c-0.38-0.435-0.896-0.653-1.548-0.653
		c-0.624,0-1.126,0.221-1.504,0.663S602.477,147.157,602.477,148.178z"/>
	<path class="st3" d="M610.728,143.147h9.413v2.475h-3.158v7.547h-3.097v-7.547h-3.158V143.147z"/>
	<path class="st3" d="M620.893,142.976h2.974v2.29c0,0.843-0.176,1.51-0.526,2s-0.95,0.919-1.798,1.289l-0.649-1.217
		c0.528-0.246,0.892-0.491,1.091-0.735c0.197-0.244,0.309-0.532,0.331-0.865h-1.422V142.976z M624.359,142.976h2.974v2.29
		c0,0.843-0.176,1.51-0.526,2s-0.95,0.919-1.798,1.289l-0.649-1.217c0.528-0.246,0.893-0.491,1.09-0.735
		c0.199-0.244,0.31-0.532,0.332-0.865h-1.422V142.976z"/>
</g>
<g>
	<path class="st3" d="M529.035,170.501v-10.021h5.161c0.957,0,1.688,0.082,2.194,0.246s0.914,0.468,1.224,0.913
		s0.465,0.985,0.465,1.624c0,0.556-0.118,1.036-0.355,1.439s-0.563,0.73-0.979,0.981c-0.265,0.16-0.627,0.292-1.087,0.396
		c0.368,0.123,0.637,0.247,0.806,0.37c0.114,0.082,0.279,0.257,0.495,0.527c0.217,0.269,0.361,0.477,0.434,0.623l1.5,2.904h-3.499
		l-1.655-3.063c-0.21-0.396-0.396-0.654-0.561-0.772c-0.224-0.155-0.477-0.232-0.759-0.232h-0.273v4.067H529.035z M532.145,164.54
		h1.306c0.142,0,0.415-0.045,0.82-0.137c0.205-0.041,0.373-0.146,0.502-0.314c0.131-0.168,0.195-0.362,0.195-0.581
		c0-0.324-0.103-0.572-0.308-0.745s-0.59-0.26-1.155-0.26h-1.36V164.54z"/>
	<path class="st3" d="M539.877,160.479h8.299v2.14h-5.195v1.593h4.819v2.044h-4.819v1.976h5.346v2.27h-8.449V160.479z"/>
	<path class="st3" d="M556.155,168.847h-3.516l-0.488,1.654h-3.162l3.767-10.021h3.378l3.766,10.021h-3.243L556.155,168.847z
		 M555.512,166.68l-1.106-3.603l-1.094,3.603H555.512z"/>
	<path class="st3" d="M567.555,166.399l2.714,0.82c-0.183,0.761-0.47,1.397-0.861,1.907s-0.878,0.896-1.46,1.155
		c-0.58,0.26-1.32,0.39-2.218,0.39c-1.089,0-1.979-0.158-2.669-0.475c-0.691-0.316-1.287-0.874-1.788-1.67s-0.752-1.817-0.752-3.061
		c0-1.658,0.44-2.932,1.323-3.822c0.881-0.89,2.129-1.335,3.742-1.335c1.263,0,2.255,0.255,2.977,0.766
		c0.723,0.51,1.26,1.294,1.61,2.352l-2.734,0.608c-0.096-0.305-0.196-0.529-0.301-0.67c-0.173-0.237-0.385-0.419-0.636-0.547
		s-0.531-0.191-0.841-0.191c-0.702,0-1.239,0.282-1.613,0.847c-0.282,0.419-0.424,1.077-0.424,1.973
		c0,1.111,0.169,1.872,0.506,2.284c0.337,0.412,0.812,0.618,1.422,0.618c0.593,0,1.04-0.167,1.343-0.499
		C567.199,167.516,567.419,167.033,567.555,166.399z"/>
	<path class="st3" d="M571.787,160.479h3.097v3.507h3.384v-3.507h3.11v10.021h-3.11v-4.054h-3.384v4.054h-3.097V160.479z"/>
	<path class="st3" d="M583.428,160.479h8.299v2.14h-5.195v1.593h4.819v2.044h-4.819v1.976h5.346v2.27h-8.449V160.479z"/>
	<path class="st3" d="M593.587,160.479h4.601c0.907,0,1.64,0.123,2.198,0.369c0.558,0.246,1.02,0.599,1.384,1.06
		s0.629,0.996,0.793,1.606s0.246,1.258,0.246,1.941c0,1.071-0.122,1.901-0.366,2.492c-0.243,0.59-0.582,1.084-1.015,1.483
		s-0.897,0.664-1.395,0.796c-0.679,0.182-1.294,0.273-1.846,0.273h-4.601V160.479z M596.683,162.749v5.476h0.759
		c0.647,0,1.107-0.072,1.381-0.215s0.487-0.394,0.643-0.752s0.232-0.938,0.232-1.74c0-1.062-0.173-1.789-0.52-2.181
		s-0.921-0.588-1.723-0.588H596.683z"/>
	<path class="st3" d="M608.776,167.356h-2.598v-0.26c0-0.442,0.05-0.801,0.15-1.077s0.249-0.527,0.448-0.755
		c0.197-0.228,0.644-0.629,1.336-1.203c0.369-0.301,0.554-0.577,0.554-0.827s-0.074-0.445-0.222-0.584
		c-0.148-0.139-0.373-0.208-0.674-0.208c-0.323,0-0.592,0.107-0.803,0.321c-0.213,0.214-0.348,0.588-0.407,1.121l-2.652-0.328
		c0.091-0.975,0.445-1.76,1.063-2.355c0.617-0.595,1.563-0.892,2.84-0.892c0.993,0,1.796,0.208,2.406,0.622
		c0.829,0.561,1.244,1.308,1.244,2.242c0,0.387-0.107,0.761-0.321,1.121s-0.651,0.8-1.313,1.319
		c-0.46,0.365-0.751,0.657-0.872,0.878C608.837,166.713,608.776,167.001,608.776,167.356z M606.09,168.047h2.782v2.454h-2.782
		V168.047z"/>
</g>
<path class="st7" d="M293.019,56.492l7.8,15.599l7.8-15.599H293.019z M298.219,48.054v11.037h5.2V48.054H298.219z M298.219,27.255
	v15.599h5.2V27.255H298.219z M312.458,15.496h-11.639c-1.432,0-2.6,1.168-2.6,2.6v3.96h5.2v-3.96l-2.6,2.6h11.639V15.496z
	 M333.257,15.496h-15.599v5.2h15.599V15.496z M354.056,15.496h-15.599v5.2h15.599V15.496z M374.855,15.496h-15.599v5.2h15.599
	V15.496z M395.654,15.496h-15.599v5.2h15.599V15.496z M416.453,15.496h-15.599v5.2h15.599V15.496z M437.252,15.496h-15.599v5.2
	h15.599V15.496z M458.051,15.496h-15.599v5.2h15.599V15.496z M478.85,15.496h-15.599v5.2h15.599V15.496z M499.649,15.496H484.05v5.2
	h15.599V15.496z M520.448,15.496h-15.599v5.2h15.599V15.496z M541.247,15.496h-15.599v5.2h15.599V15.496z M562.046,15.496h-15.599
	v5.2h15.599V15.496z M571.844,31.697V18.095c0-1.432-1.167-2.6-2.6-2.6h-1.998v5.2h1.998l-2.6-2.6v13.601H571.844z M571.844,52.496
	V36.896h-5.2v15.599H571.844z M571.844,73.295V57.695h-5.2v15.599H571.844z"/>
<g>
	<path class="st8" d="M544.832,41.666h2.927l1.949,5.612l1.87-5.612h2.954l-3.381,10.143h-2.954l-1.942-5.569l-1.856,5.569h-2.947
		L544.832,41.666z"/>
	<path class="st8" d="M553.919,48.156c0.373-1.121,1.06-2.045,2.059-2.771c0.998-0.727,2.141-1.09,3.428-1.09
		c1.471,0,2.441,0.426,2.908,1.279c0.375,0.688,0.396,1.535,0.061,2.54c-0.377,1.13-1.061,2.056-2.051,2.778
		c-0.99,0.723-2.146,1.083-3.471,1.083c-1.18,0-2.035-0.299-2.564-0.9C553.64,50.333,553.517,49.359,553.919,48.156z
		 M556.744,48.148c-0.218,0.655-0.247,1.14-0.087,1.454c0.161,0.313,0.441,0.471,0.844,0.471c0.404,0,0.791-0.155,1.154-0.464
		c0.362-0.309,0.659-0.805,0.887-1.487c0.212-0.636,0.238-1.111,0.079-1.422c-0.159-0.312-0.433-0.467-0.82-0.467
		c-0.41,0-0.802,0.157-1.174,0.473C557.254,47.022,556.96,47.503,556.744,48.148z"/>
</g>
<path class="st5" d="M619.725,92.89l15.599,7.8l-15.599,7.8V92.89z M596.338,98.09h25.987v5.2h-25.987V98.09z"/>
<g>
	<path class="st8" d="M598.449,79.798h3.481l0.904,3.421l3.188-3.421h3.462l-5.908,5.895l-1.415,4.248h-3.141l1.415-4.248
		L598.449,79.798z"/>
	<path class="st8" d="M616.076,86.966h-5.646c-0.1,0.452-0.09,0.788,0.03,1.01c0.165,0.319,0.468,0.477,0.907,0.477
		c0.275,0,0.562-0.068,0.856-0.208c0.182-0.087,0.397-0.242,0.646-0.463l2.689,0.256c-0.67,0.738-1.357,1.268-2.064,1.588
		c-0.706,0.321-1.62,0.481-2.741,0.481c-0.974,0-1.693-0.137-2.159-0.412c-0.468-0.274-0.784-0.71-0.952-1.308
		c-0.167-0.597-0.117-1.299,0.152-2.106c0.383-1.148,1.061-2.077,2.032-2.788c0.973-0.71,2.107-1.065,3.403-1.065
		c1.052,0,1.829,0.16,2.331,0.478c0.503,0.318,0.813,0.78,0.93,1.384c0.117,0.604,0.014,1.391-0.309,2.359L616.076,86.966z
		 M613.661,85.617c0.127-0.545,0.11-0.935-0.049-1.17c-0.159-0.234-0.433-0.352-0.82-0.352c-0.447,0-0.863,0.177-1.25,0.533
		c-0.244,0.221-0.463,0.551-0.655,0.989H613.661z"/>
	<path class="st8" d="M616.56,87.9l2.884-0.263c0.004,0.333,0.086,0.57,0.246,0.713c0.16,0.144,0.412,0.215,0.76,0.215
		c0.377,0,0.697-0.081,0.958-0.242c0.202-0.119,0.332-0.27,0.392-0.449c0.067-0.202,0.015-0.358-0.161-0.47
		c-0.126-0.078-0.497-0.175-1.113-0.29c-0.922-0.17-1.548-0.328-1.881-0.473c-0.331-0.146-0.571-0.39-0.716-0.737
		c-0.146-0.344-0.145-0.739,0.003-1.181c0.161-0.484,0.44-0.901,0.839-1.251s0.873-0.611,1.424-0.784
		c0.551-0.173,1.242-0.26,2.072-0.26c0.876,0,1.501,0.067,1.874,0.2c0.373,0.134,0.651,0.342,0.837,0.624
		c0.186,0.281,0.29,0.662,0.314,1.142l-2.758,0.263c0.009-0.235-0.049-0.409-0.173-0.52c-0.173-0.147-0.415-0.221-0.729-0.221
		c-0.318,0-0.568,0.056-0.752,0.169c-0.183,0.113-0.301,0.25-0.354,0.411c-0.06,0.18-0.013,0.315,0.141,0.408
		c0.154,0.092,0.527,0.175,1.121,0.249c0.901,0.106,1.549,0.254,1.942,0.443s0.653,0.458,0.778,0.809
		c0.126,0.35,0.118,0.735-0.021,1.153c-0.142,0.424-0.407,0.837-0.797,1.238c-0.39,0.401-0.9,0.72-1.529,0.957
		c-0.631,0.237-1.421,0.356-2.371,0.356c-1.343,0-2.234-0.191-2.677-0.575C616.671,89.15,616.487,88.606,616.56,87.9z"/>
</g>
<g>
	<path class="st3" d="M716.719,52.754l2.946-0.185c0.063,0.479,0.193,0.843,0.39,1.094c0.319,0.406,0.774,0.608,1.367,0.608
		c0.442,0,0.782-0.104,1.022-0.311c0.238-0.208,0.358-0.448,0.358-0.721c0-0.26-0.114-0.492-0.342-0.697s-0.757-0.399-1.586-0.581
		c-1.358-0.305-2.326-0.711-2.905-1.217c-0.583-0.506-0.875-1.151-0.875-1.935c0-0.515,0.149-1.001,0.447-1.459
		c0.299-0.458,0.748-0.818,1.348-1.08c0.599-0.262,1.42-0.393,2.464-0.393c1.28,0,2.257,0.238,2.929,0.714
		c0.673,0.476,1.072,1.234,1.2,2.273l-2.919,0.171c-0.077-0.451-0.24-0.779-0.488-0.984c-0.249-0.205-0.592-0.308-1.029-0.308
		c-0.36,0-0.631,0.076-0.813,0.229s-0.273,0.338-0.273,0.557c0,0.16,0.075,0.303,0.226,0.431c0.146,0.132,0.492,0.255,1.039,0.369
		c1.354,0.292,2.323,0.587,2.908,0.885c0.586,0.298,1.012,0.669,1.279,1.111c0.266,0.442,0.399,0.937,0.399,1.483
		c0,0.643-0.178,1.235-0.533,1.777s-0.853,0.954-1.49,1.234s-1.442,0.42-2.413,0.42c-1.704,0-2.885-0.328-3.541-0.984
		S716.806,53.766,716.719,52.754z"/>
	<path class="st3" d="M734.042,51.968l2.714,0.82c-0.183,0.761-0.47,1.397-0.861,1.907s-0.878,0.896-1.46,1.155
		c-0.58,0.26-1.32,0.39-2.218,0.39c-1.089,0-1.979-0.158-2.669-0.475c-0.691-0.316-1.287-0.874-1.788-1.67s-0.752-1.817-0.752-3.061
		c0-1.658,0.44-2.932,1.323-3.822c0.881-0.89,2.129-1.335,3.742-1.335c1.263,0,2.255,0.255,2.977,0.766
		c0.723,0.51,1.26,1.294,1.61,2.352l-2.734,0.608c-0.096-0.305-0.196-0.529-0.301-0.67c-0.173-0.237-0.385-0.419-0.636-0.547
		s-0.531-0.191-0.841-0.191c-0.702,0-1.239,0.282-1.613,0.847c-0.282,0.419-0.424,1.077-0.424,1.973
		c0,1.111,0.169,1.872,0.506,2.284c0.337,0.412,0.812,0.618,1.422,0.618c0.593,0,1.04-0.167,1.343-0.499
		C733.685,53.085,733.905,52.602,734.042,51.968z"/>
	<path class="st3" d="M737.87,51.066c0-1.636,0.456-2.91,1.367-3.821s2.181-1.367,3.808-1.367c1.668,0,2.953,0.448,3.855,1.343
		s1.354,2.15,1.354,3.763c0,1.171-0.197,2.132-0.592,2.881c-0.394,0.75-0.963,1.333-1.709,1.75
		c-0.744,0.417-1.673,0.625-2.785,0.625c-1.13,0-2.065-0.18-2.807-0.54c-0.74-0.36-1.341-0.93-1.801-1.709
		S737.87,52.237,737.87,51.066z M740.966,51.08c0,1.012,0.188,1.739,0.564,2.181c0.375,0.442,0.887,0.663,1.534,0.663
		c0.665,0,1.181-0.216,1.545-0.649s0.547-1.21,0.547-2.331c0-0.943-0.19-1.633-0.571-2.068c-0.38-0.435-0.896-0.653-1.548-0.653
		c-0.624,0-1.126,0.221-1.504,0.663S740.966,50.059,740.966,51.08z"/>
	<path class="st3" d="M749.963,56.07V46.048h5.161c0.957,0,1.688,0.082,2.194,0.246s0.914,0.468,1.224,0.913
		s0.465,0.985,0.465,1.624c0,0.556-0.118,1.036-0.355,1.439s-0.563,0.73-0.979,0.981c-0.265,0.16-0.627,0.292-1.087,0.396
		c0.368,0.123,0.637,0.247,0.806,0.37c0.114,0.082,0.279,0.257,0.495,0.527c0.217,0.269,0.361,0.477,0.434,0.623l1.5,2.904h-3.499
		l-1.655-3.063c-0.21-0.396-0.396-0.654-0.561-0.772c-0.224-0.155-0.477-0.232-0.759-0.232h-0.273v4.067H749.963z M753.073,50.109
		h1.306c0.142,0,0.415-0.045,0.82-0.137c0.205-0.041,0.373-0.146,0.502-0.314c0.131-0.168,0.195-0.362,0.195-0.581
		c0-0.324-0.103-0.572-0.308-0.745s-0.59-0.26-1.155-0.26h-1.36V50.109z"/>
	<path class="st3" d="M760.804,46.048h8.299v2.14h-5.195v1.593h4.819v2.044h-4.819V53.8h5.346v2.27h-8.449V46.048z"/>
</g>
<g>
	<path class="st6" d="M769.76,100.202L769.76,100.202c0-15.113-12.244-27.34-27.355-27.34c-15.097,0-27.34,12.227-27.34,27.34
		c0,15.096,12.244,27.355,27.34,27.355C757.516,127.557,769.76,115.298,769.76,100.202z"/>
	<path class="st2" d="M732.004,113.022L732.004,113.022c-0.352,0-0.657-0.208-0.785-0.529c-0.128-0.337-0.064-0.705,0.192-0.945
		l11.282-10.947l-11.299-11.779c-0.24-0.239-0.304-0.609-0.176-0.929c0.144-0.303,0.449-0.513,0.785-0.513h20.657
		c0.481,0,0.865,0.385,0.865,0.85v4.279c0,0.335-0.207,0.656-0.528,0.784c-0.113,0.049-0.224,0.064-0.337,0.064
		c-0.224,0-0.432-0.079-0.609-0.239l-2.741-2.741h-8.749l8.013,8.382c0.338,0.335,0.32,0.865-0.015,1.2l-9.183,9.007h9.935
		l2.741-2.756c0.177-0.161,0.385-0.24,0.609-0.24c0.113,0,0.224,0.015,0.337,0.064c0.32,0.128,0.528,0.448,0.528,0.785v5.352
		c0,0.465-0.384,0.85-0.865,0.85L732.004,113.022z"/>
</g>
<path class="st5" d="M698.684,92.89l15.599,7.8l-15.599,7.8V92.89z M689.066,98.09h12.217v5.2h-12.217V98.09z"/>
<path class="st5" d="M778.497,92.89l15.599,7.8l-15.599,7.8V92.89z M769.662,98.09h11.435v5.2h-11.435V98.09z"/>
<g>
	<path class="st3" d="M626.173,51.138l2.714,0.82c-0.183,0.761-0.47,1.397-0.861,1.907s-0.878,0.896-1.46,1.155
		c-0.58,0.26-1.32,0.39-2.218,0.39c-1.089,0-1.979-0.158-2.669-0.475c-0.691-0.316-1.287-0.874-1.788-1.67s-0.752-1.817-0.752-3.061
		c0-1.658,0.44-2.932,1.323-3.822c0.881-0.89,2.129-1.335,3.742-1.335c1.263,0,2.255,0.255,2.977,0.766
		c0.723,0.51,1.26,1.294,1.61,2.352l-2.734,0.608c-0.096-0.305-0.196-0.529-0.301-0.67c-0.173-0.237-0.385-0.419-0.636-0.547
		s-0.531-0.191-0.841-0.191c-0.702,0-1.239,0.282-1.613,0.847c-0.282,0.419-0.424,1.077-0.424,1.973
		c0,1.111,0.169,1.872,0.506,2.284c0.337,0.412,0.812,0.618,1.422,0.618c0.593,0,1.04-0.167,1.343-0.499
		C625.816,52.254,626.036,51.771,626.173,51.138z"/>
	<path class="st3" d="M630.404,45.218h3.097v3.507h3.384v-3.507h3.11v10.021h-3.11v-4.054h-3.384v4.054h-3.097V45.218z"/>
	<path class="st3" d="M648.214,53.585h-3.516l-0.488,1.654h-3.162l3.767-10.021h3.378l3.766,10.021h-3.243L648.214,53.585z
		 M647.571,51.418l-1.106-3.603l-1.094,3.603H647.571z"/>
	<path class="st3" d="M652.908,45.218h4.072l1.571,6.098l1.559-6.098h4.07v10.021h-2.536v-7.643l-1.954,7.643h-2.296l-1.95-7.643
		v7.643h-2.536V45.218z"/>
	<path class="st3" d="M666.142,45.218h5.147c1.121,0,1.961,0.267,2.519,0.8c0.559,0.533,0.838,1.292,0.838,2.276
		c0,1.012-0.305,1.802-0.912,2.372c-0.609,0.57-1.537,0.854-2.786,0.854h-1.695v3.719h-3.11V45.218z M669.253,49.49h0.759
		c0.597,0,1.017-0.104,1.258-0.311s0.362-0.473,0.362-0.796c0-0.314-0.104-0.581-0.314-0.8s-0.604-0.328-1.183-0.328h-0.882V49.49z"
		/>
	<path class="st3" d="M676.389,45.218h3.104v10.021h-3.104V45.218z"/>
	<path class="st3" d="M681.325,50.235c0-1.636,0.456-2.91,1.367-3.821s2.181-1.367,3.808-1.367c1.668,0,2.953,0.448,3.855,1.343
		s1.354,2.15,1.354,3.763c0,1.171-0.197,2.132-0.592,2.881c-0.394,0.75-0.963,1.333-1.709,1.75
		c-0.744,0.417-1.673,0.625-2.785,0.625c-1.13,0-2.065-0.18-2.807-0.54c-0.74-0.36-1.341-0.93-1.801-1.709
		S681.325,51.407,681.325,50.235z M684.422,50.249c0,1.012,0.188,1.739,0.564,2.181c0.375,0.442,0.887,0.663,1.534,0.663
		c0.665,0,1.181-0.216,1.545-0.649s0.547-1.21,0.547-2.331c0-0.943-0.19-1.633-0.571-2.068c-0.38-0.435-0.896-0.653-1.548-0.653
		c-0.624,0-1.126,0.221-1.504,0.663S684.422,49.228,684.422,50.249z"/>
	<path class="st3" d="M693.397,45.218h2.892l3.773,5.544v-5.544h2.919v10.021h-2.919l-3.753-5.502v5.502h-2.912V45.218z"/>
</g>
<g>
	<path class="st6" d="M689.164,100.202L689.164,100.202c0-15.113-12.244-27.34-27.355-27.34c-15.097,0-27.34,12.227-27.34,27.34
		c0,15.096,12.244,27.355,27.34,27.355C676.92,127.557,689.164,115.298,689.164,100.202z"/>
	<path class="st2" d="M665.447,90.154L665.447,90.154c0,2.004-1.634,3.638-3.638,3.638s-3.638-1.634-3.638-3.638
		c0-2.004,1.634-3.621,3.638-3.621S665.447,88.15,665.447,90.154z M651.761,103.615L651.761,103.615
		c-2.003,0-3.622,1.634-3.622,3.638c0,2.003,1.619,3.638,3.622,3.638c2.019,0,3.638-1.635,3.638-3.638
		C655.399,105.249,653.78,103.615,651.761,103.615z M671.858,103.615L671.858,103.615c-2.004,0-3.638,1.634-3.638,3.638
		c0,2.003,1.634,3.638,3.638,3.638c2.002,0,3.621-1.635,3.621-3.638C675.478,105.25,673.859,103.615,671.858,103.615z
		 M651.761,102.558L651.761,102.558c0.224,0,0.433,0.015,0.641,0.032v-3.029h8.557v3.061c0.273-0.049,0.562-0.064,0.85-0.064
		c0.288,0,0.577,0.015,0.848,0.064v-3.061l8.559,0l0,3.029c0.207-0.017,0.417-0.032,0.641-0.032c0.367,0,0.72,0.032,1.057,0.111
		v-3.958c0-0.481-0.37-0.865-0.85-0.865h-9.407v-3.061c-0.271,0.049-0.56,0.081-0.848,0.081c-0.288,0-0.577-0.032-0.85-0.081
		l0,3.061h-9.407c-0.465,0-0.849,0.384-0.849,0.865v3.958C651.04,102.59,651.408,102.558,651.761,102.558z M661.809,103.615
		L661.809,103.615c-2.004,0-3.638,1.634-3.638,3.638c0,2.003,1.634,3.638,3.638,3.638s3.638-1.635,3.638-3.638
		C665.447,105.25,663.813,103.615,661.809,103.615z"/>
</g>
<path class="st5" d="M750.055,143.154l-7.8-15.599l-7.8,15.599H750.055z M231.489,348.207h510.766c1.432,0,2.6-1.155,2.6-2.6
	V140.554h-5.2v205.053l2.6-2.6H231.489V348.207z"/>
</svg>
